<svg width="580" height="244" viewBox="0 0 580 244" fill="none" xmlns="http://www.w3.org/2000/svg">
<rect width="100" height="244" fill="#2A3243"/>
<rect x="120" y="13" width="100" height="231" fill="#2A3243"/>
<path d="M18.7785 11.6L15.1425 20H13.2225L9.59849 11.6H11.6985L14.2545 17.6L16.8465 11.6H18.7785ZM19.705 13.544H21.577V20H19.705V13.544ZM20.641 12.644C20.297 12.644 20.017 12.544 19.801 12.344C19.585 12.144 19.477 11.896 19.477 11.6C19.477 11.304 19.585 11.056 19.801 10.856C20.017 10.656 20.297 10.556 20.641 10.556C20.985 10.556 21.265 10.652 21.481 10.844C21.697 11.036 21.805 11.276 21.805 11.564C21.805 11.876 21.697 12.136 21.481 12.344C21.265 12.544 20.985 12.644 20.641 12.644ZM29.8784 16.796C29.8784 16.82 29.8664 16.988 29.8424 17.3H24.9584C25.0464 17.7 25.2544 18.016 25.5824 18.248C25.9104 18.48 26.3184 18.596 26.8064 18.596C27.1424 18.596 27.4384 18.548 27.6944 18.452C27.9584 18.348 28.2024 18.188 28.4264 17.972L29.4224 19.052C28.8144 19.748 27.9264 20.096 26.7584 20.096C26.0304 20.096 25.3864 19.956 24.8264 19.676C24.2664 19.388 23.8344 18.992 23.5304 18.488C23.2264 17.984 23.0744 17.412 23.0744 16.772C23.0744 16.14 23.2224 15.572 23.5184 15.068C23.8224 14.556 24.2344 14.16 24.7544 13.88C25.2824 13.592 25.8704 13.448 26.5184 13.448C27.1504 13.448 27.7224 13.584 28.2344 13.856C28.7464 14.128 29.1464 14.52 29.4344 15.032C29.7304 15.536 29.8784 16.124 29.8784 16.796ZM26.5304 14.864C26.1064 14.864 25.7504 14.984 25.4624 15.224C25.1744 15.464 24.9984 15.792 24.9344 16.208H28.1144C28.0504 15.8 27.8744 15.476 27.5864 15.236C27.2984 14.988 26.9464 14.864 26.5304 14.864ZM41.6155 13.544L39.2755 20H37.4755L36.0235 15.992L34.5235 20H32.7235L30.3955 13.544H32.1595L33.6835 17.912L35.2675 13.544H36.8515L38.3875 17.912L39.9595 13.544H41.6155ZM50.5282 19.688C50.3442 19.824 50.1162 19.928 49.8442 20C49.5802 20.064 49.3002 20.096 49.0042 20.096C48.2362 20.096 47.6402 19.9 47.2162 19.508C46.8002 19.116 46.5922 18.54 46.5922 17.78V15.128H45.5962V13.688H46.5922V12.116H48.4642V13.688H50.0722V15.128H48.4642V17.756C48.4642 18.028 48.5322 18.24 48.6682 18.392C48.8122 18.536 49.0122 18.608 49.2682 18.608C49.5642 18.608 49.8162 18.528 50.0242 18.368L50.5282 19.688ZM54.4231 13.448C55.4231 13.448 56.1911 13.688 56.7271 14.168C57.2631 14.64 57.5311 15.356 57.5311 16.316V20H55.7791V19.196C55.4271 19.796 54.7711 20.096 53.8111 20.096C53.3151 20.096 52.8831 20.012 52.5151 19.844C52.1551 19.676 51.8791 19.444 51.6871 19.148C51.4951 18.852 51.3991 18.516 51.3991 18.14C51.3991 17.54 51.6231 17.068 52.0711 16.724C52.5271 16.38 53.2271 16.208 54.1711 16.208H55.6591C55.6591 15.8 55.5351 15.488 55.2871 15.272C55.0391 15.048 54.6671 14.936 54.1711 14.936C53.8271 14.936 53.4871 14.992 53.1511 15.104C52.8231 15.208 52.5431 15.352 52.3111 15.536L51.6391 14.228C51.9911 13.98 52.4111 13.788 52.8991 13.652C53.3951 13.516 53.9031 13.448 54.4231 13.448ZM54.2791 18.836C54.5991 18.836 54.8831 18.764 55.1311 18.62C55.3791 18.468 55.5551 18.248 55.6591 17.96V17.3H54.3751C53.6071 17.3 53.2231 17.552 53.2231 18.056C53.2231 18.296 53.3151 18.488 53.4991 18.632C53.6911 18.768 53.9511 18.836 54.2791 18.836ZM63.2813 13.448C63.8813 13.448 64.4253 13.588 64.9133 13.868C65.4093 14.14 65.7973 14.528 66.0773 15.032C66.3573 15.528 66.4973 16.108 66.4973 16.772C66.4973 17.436 66.3573 18.02 66.0773 18.524C65.7973 19.02 65.4093 19.408 64.9133 19.688C64.4253 19.96 63.8813 20.096 63.2813 20.096C62.4573 20.096 61.8093 19.836 61.3373 19.316V22.328H59.4653V13.544H61.2533V14.288C61.7173 13.728 62.3933 13.448 63.2813 13.448ZM62.9573 18.56C63.4373 18.56 63.8293 18.4 64.1333 18.08C64.4453 17.752 64.6013 17.316 64.6013 16.772C64.6013 16.228 64.4453 15.796 64.1333 15.476C63.8293 15.148 63.4373 14.984 62.9573 14.984C62.4773 14.984 62.0813 15.148 61.7693 15.476C61.4653 15.796 61.3133 16.228 61.3133 16.772C61.3133 17.316 61.4653 17.752 61.7693 18.08C62.0813 18.4 62.4773 18.56 62.9573 18.56ZM71.6289 11.096H73.5009V20H71.6289V11.096ZM75.4783 13.544H77.3503V20H75.4783V13.544ZM76.4143 12.644C76.0703 12.644 75.7903 12.544 75.5743 12.344C75.3583 12.144 75.2503 11.896 75.2503 11.6C75.2503 11.304 75.3583 11.056 75.5743 10.856C75.7903 10.656 76.0703 10.556 76.4143 10.556C76.7583 10.556 77.0383 10.652 77.2543 10.844C77.4703 11.036 77.5783 11.276 77.5783 11.564C77.5783 11.876 77.4703 12.136 77.2543 12.344C77.0383 12.544 76.7583 12.644 76.4143 12.644ZM81.4997 20.096C80.9637 20.096 80.4397 20.032 79.9277 19.904C79.4157 19.768 79.0077 19.6 78.7037 19.4L79.3277 18.056C79.6157 18.24 79.9637 18.392 80.3717 18.512C80.7797 18.624 81.1797 18.68 81.5717 18.68C82.3637 18.68 82.7597 18.484 82.7597 18.092C82.7597 17.908 82.6517 17.776 82.4357 17.696C82.2197 17.616 81.8877 17.548 81.4397 17.492C80.9117 17.412 80.4757 17.32 80.1317 17.216C79.7877 17.112 79.4877 16.928 79.2317 16.664C78.9837 16.4 78.8597 16.024 78.8597 15.536C78.8597 15.128 78.9757 14.768 79.2077 14.456C79.4477 14.136 79.7917 13.888 80.2397 13.712C80.6957 13.536 81.2317 13.448 81.8477 13.448C82.3037 13.448 82.7557 13.5 83.2037 13.604C83.6597 13.7 84.0357 13.836 84.3317 14.012L83.7077 15.344C83.1397 15.024 82.5197 14.864 81.8477 14.864C81.4477 14.864 81.1477 14.92 80.9477 15.032C80.7477 15.144 80.6477 15.288 80.6477 15.464C80.6477 15.664 80.7557 15.804 80.9717 15.884C81.1877 15.964 81.5317 16.04 82.0037 16.112C82.5317 16.2 82.9637 16.296 83.2997 16.4C83.6357 16.496 83.9277 16.676 84.1757 16.94C84.4237 17.204 84.5477 17.572 84.5477 18.044C84.5477 18.444 84.4277 18.8 84.1877 19.112C83.9477 19.424 83.5957 19.668 83.1317 19.844C82.6757 20.012 82.1317 20.096 81.4997 20.096ZM90.1067 19.688C89.9227 19.824 89.6947 19.928 89.4227 20C89.1587 20.064 88.8787 20.096 88.5827 20.096C87.8147 20.096 87.2187 19.9 86.7947 19.508C86.3787 19.116 86.1707 18.54 86.1707 17.78V15.128H85.1747V13.688H86.1707V12.116H88.0427V13.688H89.6507V15.128H88.0427V17.756C88.0427 18.028 88.1107 18.24 88.2467 18.392C88.3907 18.536 88.5907 18.608 88.8467 18.608C89.1427 18.608 89.3947 18.528 89.6027 18.368L90.1067 19.688Z" fill="white"/>
<path d="M162.994 24.6L159.358 33H157.438L153.814 24.6H155.914L158.47 30.6L161.062 24.6H162.994ZM163.921 26.544H165.793V33H163.921V26.544ZM164.857 25.644C164.513 25.644 164.233 25.544 164.017 25.344C163.801 25.144 163.693 24.896 163.693 24.6C163.693 24.304 163.801 24.056 164.017 23.856C164.233 23.656 164.513 23.556 164.857 23.556C165.201 23.556 165.481 23.652 165.697 23.844C165.913 24.036 166.021 24.276 166.021 24.564C166.021 24.876 165.913 25.136 165.697 25.344C165.481 25.544 165.201 25.644 164.857 25.644ZM174.094 29.796C174.094 29.82 174.082 29.988 174.058 30.3H169.174C169.262 30.7 169.47 31.016 169.798 31.248C170.126 31.48 170.534 31.596 171.022 31.596C171.358 31.596 171.654 31.548 171.91 31.452C172.174 31.348 172.418 31.188 172.642 30.972L173.638 32.052C173.03 32.748 172.142 33.096 170.974 33.096C170.246 33.096 169.602 32.956 169.042 32.676C168.482 32.388 168.05 31.992 167.746 31.488C167.442 30.984 167.29 30.412 167.29 29.772C167.29 29.14 167.438 28.572 167.734 28.068C168.038 27.556 168.45 27.16 168.97 26.88C169.498 26.592 170.086 26.448 170.734 26.448C171.366 26.448 171.938 26.584 172.45 26.856C172.962 27.128 173.362 27.52 173.65 28.032C173.946 28.536 174.094 29.124 174.094 29.796ZM170.746 27.864C170.322 27.864 169.966 27.984 169.678 28.224C169.39 28.464 169.214 28.792 169.15 29.208H172.33C172.266 28.8 172.09 28.476 171.802 28.236C171.514 27.988 171.162 27.864 170.746 27.864ZM185.831 26.544L183.491 33H181.691L180.239 28.992L178.739 33H176.939L174.611 26.544H176.375L177.899 30.912L179.483 26.544H181.067L182.603 30.912L184.175 26.544H185.831ZM144.228 41.544V48H142.452V47.232C142.204 47.512 141.908 47.728 141.564 47.88C141.22 48.024 140.848 48.096 140.448 48.096C139.6 48.096 138.928 47.852 138.432 47.364C137.936 46.876 137.688 46.152 137.688 45.192V41.544H139.56V44.916C139.56 45.956 139.996 46.476 140.868 46.476C141.316 46.476 141.676 46.332 141.948 46.044C142.22 45.748 142.356 45.312 142.356 44.736V41.544H144.228ZM150.019 41.448C150.619 41.448 151.163 41.588 151.651 41.868C152.147 42.14 152.535 42.528 152.815 43.032C153.095 43.528 153.235 44.108 153.235 44.772C153.235 45.436 153.095 46.02 152.815 46.524C152.535 47.02 152.147 47.408 151.651 47.688C151.163 47.96 150.619 48.096 150.019 48.096C149.195 48.096 148.547 47.836 148.075 47.316V50.328H146.203V41.544H147.991V42.288C148.455 41.728 149.131 41.448 150.019 41.448ZM149.695 46.56C150.175 46.56 150.567 46.4 150.871 46.08C151.183 45.752 151.339 45.316 151.339 44.772C151.339 44.228 151.183 43.796 150.871 43.476C150.567 43.148 150.175 42.984 149.695 42.984C149.215 42.984 148.819 43.148 148.507 43.476C148.203 43.796 148.051 44.228 148.051 44.772C148.051 45.316 148.203 45.752 148.507 46.08C148.819 46.4 149.215 46.56 149.695 46.56ZM157.848 48.096C157.16 48.096 156.54 47.956 155.988 47.676C155.444 47.388 155.016 46.992 154.704 46.488C154.4 45.984 154.248 45.412 154.248 44.772C154.248 44.132 154.4 43.56 154.704 43.056C155.016 42.552 155.444 42.16 155.988 41.88C156.54 41.592 157.16 41.448 157.848 41.448C158.528 41.448 159.12 41.592 159.624 41.88C160.136 42.16 160.508 42.564 160.74 43.092L159.288 43.872C158.952 43.28 158.468 42.984 157.836 42.984C157.348 42.984 156.944 43.144 156.624 43.464C156.304 43.784 156.144 44.22 156.144 44.772C156.144 45.324 156.304 45.76 156.624 46.08C156.944 46.4 157.348 46.56 157.836 46.56C158.476 46.56 158.96 46.264 159.288 45.672L160.74 46.464C160.508 46.976 160.136 47.376 159.624 47.664C159.12 47.952 158.528 48.096 157.848 48.096ZM165.048 48.096C164.368 48.096 163.756 47.956 163.212 47.676C162.676 47.388 162.256 46.992 161.952 46.488C161.648 45.984 161.496 45.412 161.496 44.772C161.496 44.132 161.648 43.56 161.952 43.056C162.256 42.552 162.676 42.16 163.212 41.88C163.756 41.592 164.368 41.448 165.048 41.448C165.728 41.448 166.336 41.592 166.872 41.88C167.408 42.16 167.828 42.552 168.132 43.056C168.436 43.56 168.588 44.132 168.588 44.772C168.588 45.412 168.436 45.984 168.132 46.488C167.828 46.992 167.408 47.388 166.872 47.676C166.336 47.956 165.728 48.096 165.048 48.096ZM165.048 46.56C165.528 46.56 165.92 46.4 166.224 46.08C166.536 45.752 166.692 45.316 166.692 44.772C166.692 44.228 166.536 43.796 166.224 43.476C165.92 43.148 165.528 42.984 165.048 42.984C164.568 42.984 164.172 43.148 163.86 43.476C163.548 43.796 163.392 44.228 163.392 44.772C163.392 45.316 163.548 45.752 163.86 46.08C164.172 46.4 164.568 46.56 165.048 46.56ZM178.347 41.448C179.155 41.448 179.795 41.688 180.267 42.168C180.747 42.64 180.987 43.352 180.987 44.304V48H179.115V44.592C179.115 44.08 179.007 43.7 178.791 43.452C178.583 43.196 178.283 43.068 177.891 43.068C177.451 43.068 177.103 43.212 176.847 43.5C176.591 43.78 176.463 44.2 176.463 44.76V48H174.591V44.592C174.591 43.576 174.183 43.068 173.367 43.068C172.935 43.068 172.591 43.212 172.335 43.5C172.079 43.78 171.951 44.2 171.951 44.76V48H170.079V41.544H171.867V42.288C172.107 42.016 172.399 41.808 172.743 41.664C173.095 41.52 173.479 41.448 173.895 41.448C174.351 41.448 174.763 41.54 175.131 41.724C175.499 41.9 175.795 42.16 176.019 42.504C176.283 42.168 176.615 41.908 177.015 41.724C177.423 41.54 177.867 41.448 178.347 41.448ZM182.905 41.544H184.777V48H182.905V41.544ZM183.841 40.644C183.497 40.644 183.217 40.544 183.001 40.344C182.785 40.144 182.677 39.896 182.677 39.6C182.677 39.304 182.785 39.056 183.001 38.856C183.217 38.656 183.497 38.556 183.841 38.556C184.185 38.556 184.465 38.652 184.681 38.844C184.897 39.036 185.005 39.276 185.005 39.564C185.005 39.876 184.897 40.136 184.681 40.344C184.465 40.544 184.185 40.644 183.841 40.644ZM190.678 41.448C191.478 41.448 192.122 41.688 192.61 42.168C193.106 42.648 193.354 43.36 193.354 44.304V48H191.482V44.592C191.482 44.08 191.37 43.7 191.146 43.452C190.922 43.196 190.598 43.068 190.174 43.068C189.702 43.068 189.326 43.216 189.046 43.512C188.766 43.8 188.626 44.232 188.626 44.808V48H186.754V41.544H188.542V42.3C188.79 42.028 189.098 41.82 189.466 41.676C189.834 41.524 190.238 41.448 190.678 41.448ZM202.021 41.544V46.92C202.021 48.104 201.713 48.984 201.097 49.56C200.481 50.136 199.581 50.424 198.397 50.424C197.773 50.424 197.181 50.348 196.621 50.196C196.061 50.044 195.597 49.824 195.229 49.536L195.973 48.192C196.245 48.416 196.589 48.592 197.005 48.72C197.421 48.856 197.837 48.924 198.253 48.924C198.901 48.924 199.377 48.776 199.681 48.48C199.993 48.192 200.149 47.752 200.149 47.16V46.884C199.661 47.42 198.981 47.688 198.109 47.688C197.517 47.688 196.973 47.56 196.477 47.304C195.989 47.04 195.601 46.672 195.313 46.2C195.025 45.728 194.881 45.184 194.881 44.568C194.881 43.952 195.025 43.408 195.313 42.936C195.601 42.464 195.989 42.1 196.477 41.844C196.973 41.58 197.517 41.448 198.109 41.448C199.045 41.448 199.757 41.756 200.245 42.372V41.544H202.021ZM198.481 46.152C198.977 46.152 199.381 46.008 199.693 45.72C200.013 45.424 200.173 45.04 200.173 44.568C200.173 44.096 200.013 43.716 199.693 43.428C199.381 43.132 198.977 42.984 198.481 42.984C197.985 42.984 197.577 43.132 197.257 43.428C196.937 43.716 196.777 44.096 196.777 44.568C196.777 45.04 196.937 45.424 197.257 45.72C197.577 46.008 197.985 46.152 198.481 46.152ZM155.635 59.796C155.635 59.82 155.623 59.988 155.599 60.3H150.715C150.803 60.7 151.011 61.016 151.339 61.248C151.667 61.48 152.075 61.596 152.563 61.596C152.899 61.596 153.195 61.548 153.451 61.452C153.715 61.348 153.959 61.188 154.183 60.972L155.179 62.052C154.571 62.748 153.683 63.096 152.515 63.096C151.787 63.096 151.143 62.956 150.583 62.676C150.023 62.388 149.591 61.992 149.287 61.488C148.983 60.984 148.831 60.412 148.831 59.772C148.831 59.14 148.979 58.572 149.275 58.068C149.579 57.556 149.991 57.16 150.511 56.88C151.039 56.592 151.627 56.448 152.275 56.448C152.907 56.448 153.479 56.584 153.991 56.856C154.503 57.128 154.903 57.52 155.191 58.032C155.487 58.536 155.635 59.124 155.635 59.796ZM152.287 57.864C151.863 57.864 151.507 57.984 151.219 58.224C150.931 58.464 150.755 58.792 150.691 59.208H153.871C153.807 58.8 153.631 58.476 153.343 58.236C153.055 57.988 152.703 57.864 152.287 57.864ZM163.412 56.544L160.688 63H158.756L156.044 56.544H157.976L159.764 60.936L161.612 56.544H163.412ZM170.564 59.796C170.564 59.82 170.552 59.988 170.528 60.3H165.644C165.732 60.7 165.94 61.016 166.268 61.248C166.596 61.48 167.004 61.596 167.492 61.596C167.828 61.596 168.124 61.548 168.38 61.452C168.644 61.348 168.888 61.188 169.112 60.972L170.108 62.052C169.5 62.748 168.612 63.096 167.444 63.096C166.716 63.096 166.072 62.956 165.512 62.676C164.952 62.388 164.52 61.992 164.216 61.488C163.912 60.984 163.76 60.412 163.76 59.772C163.76 59.14 163.908 58.572 164.204 58.068C164.508 57.556 164.92 57.16 165.44 56.88C165.968 56.592 166.556 56.448 167.204 56.448C167.836 56.448 168.408 56.584 168.92 56.856C169.432 57.128 169.832 57.52 170.12 58.032C170.416 58.536 170.564 59.124 170.564 59.796ZM167.216 57.864C166.792 57.864 166.436 57.984 166.148 58.224C165.86 58.464 165.684 58.792 165.62 59.208H168.8C168.736 58.8 168.56 58.476 168.272 58.236C167.984 57.988 167.632 57.864 167.216 57.864ZM175.974 56.448C176.774 56.448 177.418 56.688 177.906 57.168C178.402 57.648 178.65 58.36 178.65 59.304V63H176.778V59.592C176.778 59.08 176.666 58.7 176.442 58.452C176.218 58.196 175.894 58.068 175.47 58.068C174.998 58.068 174.622 58.216 174.342 58.512C174.062 58.8 173.922 59.232 173.922 59.808V63H172.05V56.544H173.838V57.3C174.086 57.028 174.394 56.82 174.762 56.676C175.13 56.524 175.534 56.448 175.974 56.448ZM184.751 62.688C184.567 62.824 184.339 62.928 184.067 63C183.803 63.064 183.523 63.096 183.227 63.096C182.459 63.096 181.863 62.9 181.439 62.508C181.023 62.116 180.815 61.54 180.815 60.78V58.128H179.819V56.688H180.815V55.116H182.687V56.688H184.295V58.128H182.687V60.756C182.687 61.028 182.755 61.24 182.891 61.392C183.035 61.536 183.235 61.608 183.491 61.608C183.787 61.608 184.039 61.528 184.247 61.368L184.751 62.688ZM188.214 63.096C187.678 63.096 187.154 63.032 186.642 62.904C186.13 62.768 185.722 62.6 185.418 62.4L186.042 61.056C186.33 61.24 186.678 61.392 187.086 61.512C187.494 61.624 187.894 61.68 188.286 61.68C189.078 61.68 189.474 61.484 189.474 61.092C189.474 60.908 189.366 60.776 189.15 60.696C188.934 60.616 188.602 60.548 188.154 60.492C187.626 60.412 187.19 60.32 186.846 60.216C186.502 60.112 186.202 59.928 185.946 59.664C185.698 59.4 185.574 59.024 185.574 58.536C185.574 58.128 185.69 57.768 185.922 57.456C186.162 57.136 186.506 56.888 186.954 56.712C187.41 56.536 187.946 56.448 188.562 56.448C189.018 56.448 189.47 56.5 189.918 56.604C190.374 56.7 190.75 56.836 191.046 57.012L190.422 58.344C189.854 58.024 189.234 57.864 188.562 57.864C188.162 57.864 187.862 57.92 187.662 58.032C187.462 58.144 187.362 58.288 187.362 58.464C187.362 58.664 187.47 58.804 187.686 58.884C187.902 58.964 188.246 59.04 188.718 59.112C189.246 59.2 189.678 59.296 190.014 59.4C190.35 59.496 190.642 59.676 190.89 59.94C191.138 60.204 191.262 60.572 191.262 61.044C191.262 61.444 191.142 61.8 190.902 62.112C190.662 62.424 190.31 62.668 189.846 62.844C189.39 63.012 188.846 63.096 188.214 63.096Z" fill="white"/>
<path d="M20.8187 227.168C21.6507 227.584 22.2827 228.128 22.7147 228.8C23.1627 229.472 23.3867 230.248 23.3867 231.128C23.3867 232.168 23.0907 233.08 22.4987 233.864C21.9067 234.632 21.0747 235.232 20.0027 235.664C18.9307 236.08 17.6907 236.288 16.2827 236.288C14.8747 236.288 13.6347 236.08 12.5627 235.664C11.5067 235.232 10.6827 234.632 10.0907 233.864C9.51472 233.08 9.22672 232.168 9.22672 231.128C9.22672 230.248 9.44272 229.472 9.87472 228.8C10.3227 228.128 10.9547 227.584 11.7707 227.168C11.1467 226.784 10.6667 226.304 10.3307 225.728C9.99472 225.136 9.82672 224.464 9.82672 223.712C9.82672 222.736 10.0987 221.888 10.6427 221.168C11.1867 220.448 11.9467 219.896 12.9227 219.512C13.8987 219.112 15.0187 218.912 16.2827 218.912C17.5627 218.912 18.6907 219.112 19.6667 219.512C20.6587 219.896 21.4267 220.448 21.9707 221.168C22.5147 221.888 22.7867 222.736 22.7867 223.712C22.7867 224.464 22.6187 225.136 22.2827 225.728C21.9467 226.304 21.4587 226.784 20.8187 227.168ZM16.2827 221.768C15.4987 221.768 14.8667 221.96 14.3867 222.344C13.9227 222.712 13.6907 223.224 13.6907 223.88C13.6907 224.52 13.9227 225.024 14.3867 225.392C14.8507 225.76 15.4827 225.944 16.2827 225.944C17.0827 225.944 17.7227 225.76 18.2027 225.392C18.6827 225.024 18.9227 224.52 18.9227 223.88C18.9227 223.224 18.6827 222.712 18.2027 222.344C17.7227 221.96 17.0827 221.768 16.2827 221.768ZM16.2827 233.432C17.2587 233.432 18.0267 233.216 18.5867 232.784C19.1627 232.336 19.4507 231.744 19.4507 231.008C19.4507 230.272 19.1627 229.688 18.5867 229.256C18.0267 228.824 17.2587 228.608 16.2827 228.608C15.3227 228.608 14.5627 228.824 14.0027 229.256C13.4427 229.688 13.1627 230.272 13.1627 231.008C13.1627 231.76 13.4427 232.352 14.0027 232.784C14.5627 233.216 15.3227 233.432 16.2827 233.432ZM37.7185 232.832V236H25.0225V233.48L31.5025 227.36C32.1905 226.704 32.6545 226.144 32.8945 225.68C33.1345 225.2 33.2545 224.728 33.2545 224.264C33.2545 223.592 33.0225 223.08 32.5585 222.728C32.1105 222.36 31.4465 222.176 30.5665 222.176C29.8305 222.176 29.1665 222.32 28.5745 222.608C27.9825 222.88 27.4865 223.296 27.0865 223.856L24.2545 222.032C24.9105 221.056 25.8145 220.296 26.9665 219.752C28.1185 219.192 29.4385 218.912 30.9265 218.912C32.1745 218.912 33.2625 219.12 34.1905 219.536C35.1345 219.936 35.8625 220.512 36.3745 221.264C36.9025 222 37.1665 222.872 37.1665 223.88C37.1665 224.792 36.9745 225.648 36.5905 226.448C36.2065 227.248 35.4625 228.16 34.3585 229.184L30.4945 232.832H37.7185ZM43.1867 228.224C42.0187 228.224 41.0747 227.8 40.3547 226.952C39.6347 226.104 39.2747 225 39.2747 223.64C39.2747 222.28 39.6347 221.176 40.3547 220.328C41.0747 219.48 42.0187 219.056 43.1867 219.056C44.3547 219.056 45.2907 219.48 45.9947 220.328C46.7147 221.16 47.0747 222.264 47.0747 223.64C47.0747 225.016 46.7147 226.128 45.9947 226.976C45.2907 227.808 44.3547 228.224 43.1867 228.224ZM53.3147 219.2H55.1627L43.6907 236H41.8427L53.3147 219.2ZM43.1867 226.856C43.9227 226.856 44.4987 226.576 44.9147 226.016C45.3307 225.44 45.5387 224.648 45.5387 223.64C45.5387 222.632 45.3307 221.848 44.9147 221.288C44.4987 220.712 43.9227 220.424 43.1867 220.424C42.4667 220.424 41.8907 220.712 41.4587 221.288C41.0427 221.864 40.8347 222.648 40.8347 223.64C40.8347 224.632 41.0427 225.416 41.4587 225.992C41.8907 226.568 42.4667 226.856 43.1867 226.856ZM53.8187 236.144C52.6507 236.144 51.7067 235.728 50.9867 234.896C50.2827 234.048 49.9307 232.936 49.9307 231.56C49.9307 230.184 50.2827 229.08 50.9867 228.248C51.7067 227.4 52.6507 226.976 53.8187 226.976C54.9867 226.976 55.9307 227.4 56.6507 228.248C57.3707 229.096 57.7307 230.2 57.7307 231.56C57.7307 232.92 57.3707 234.024 56.6507 234.872C55.9307 235.72 54.9867 236.144 53.8187 236.144ZM53.8187 234.776C54.5387 234.776 55.1067 234.488 55.5227 233.912C55.9547 233.336 56.1707 232.552 56.1707 231.56C56.1707 230.568 55.9547 229.784 55.5227 229.208C55.1067 228.632 54.5387 228.344 53.8187 228.344C53.0827 228.344 52.5067 228.632 52.0907 229.208C51.6747 229.768 51.4667 230.552 51.4667 231.56C51.4667 232.568 51.6747 233.36 52.0907 233.936C52.5067 234.496 53.0827 234.776 53.8187 234.776Z" fill="white"/>
<path d="M142.592 219.2V221.72L136.352 236H132.128L138.152 222.368H132.584V225.104H129.128V219.2H142.592ZM157.475 219.2V221.72L151.235 236H147.011L153.035 222.368H147.467V225.104H144.011V219.2H157.475ZM163.07 228.224C161.902 228.224 160.958 227.8 160.238 226.952C159.518 226.104 159.158 225 159.158 223.64C159.158 222.28 159.518 221.176 160.238 220.328C160.958 219.48 161.902 219.056 163.07 219.056C164.238 219.056 165.174 219.48 165.878 220.328C166.598 221.16 166.958 222.264 166.958 223.64C166.958 225.016 166.598 226.128 165.878 226.976C165.174 227.808 164.238 228.224 163.07 228.224ZM173.198 219.2H175.046L163.574 236H161.726L173.198 219.2ZM163.07 226.856C163.806 226.856 164.382 226.576 164.798 226.016C165.214 225.44 165.422 224.648 165.422 223.64C165.422 222.632 165.214 221.848 164.798 221.288C164.382 220.712 163.806 220.424 163.07 220.424C162.35 220.424 161.774 220.712 161.342 221.288C160.926 221.864 160.718 222.648 160.718 223.64C160.718 224.632 160.926 225.416 161.342 225.992C161.774 226.568 162.35 226.856 163.07 226.856ZM173.702 236.144C172.534 236.144 171.59 235.728 170.87 234.896C170.166 234.048 169.814 232.936 169.814 231.56C169.814 230.184 170.166 229.08 170.87 228.248C171.59 227.4 172.534 226.976 173.702 226.976C174.87 226.976 175.814 227.4 176.534 228.248C177.254 229.096 177.614 230.2 177.614 231.56C177.614 232.92 177.254 234.024 176.534 234.872C175.814 235.72 174.87 236.144 173.702 236.144ZM173.702 234.776C174.422 234.776 174.99 234.488 175.406 233.912C175.838 233.336 176.054 232.552 176.054 231.56C176.054 230.568 175.838 229.784 175.406 229.208C174.99 228.632 174.422 228.344 173.702 228.344C172.966 228.344 172.39 228.632 171.974 229.208C171.558 229.768 171.35 230.552 171.35 231.56C171.35 232.568 171.558 233.36 171.974 233.936C172.39 234.496 172.966 234.776 173.702 234.776Z" fill="white"/>
<rect x="240" y="52" width="100" height="192" fill="#2A3243"/>
<path d="M259.497 225.464C260.569 225.464 261.545 225.68 262.425 226.112C263.305 226.544 264.001 227.16 264.513 227.96C265.025 228.744 265.281 229.656 265.281 230.696C265.281 231.816 265.001 232.8 264.441 233.648C263.881 234.496 263.113 235.152 262.137 235.616C261.177 236.064 260.105 236.288 258.921 236.288C256.569 236.288 254.729 235.568 253.401 234.128C252.073 232.688 251.409 230.632 251.409 227.96C251.409 226.056 251.769 224.424 252.489 223.064C253.209 221.704 254.209 220.672 255.489 219.968C256.785 219.264 258.281 218.912 259.977 218.912C260.873 218.912 261.729 219.016 262.545 219.224C263.377 219.416 264.081 219.696 264.657 220.064L263.217 222.92C262.385 222.36 261.337 222.08 260.073 222.08C258.649 222.08 257.521 222.496 256.689 223.328C255.857 224.16 255.409 225.368 255.345 226.952C256.337 225.96 257.721 225.464 259.497 225.464ZM258.705 233.384C259.537 233.384 260.209 233.16 260.721 232.712C261.249 232.264 261.513 231.656 261.513 230.888C261.513 230.12 261.249 229.512 260.721 229.064C260.209 228.6 259.521 228.368 258.657 228.368C257.809 228.368 257.113 228.608 256.569 229.088C256.025 229.552 255.753 230.152 255.753 230.888C255.753 231.624 256.017 232.224 256.545 232.688C257.073 233.152 257.793 233.384 258.705 233.384ZM282.074 232.472H279.338V236H275.546V232.472H266.498V229.856L274.418 219.2H278.498L271.154 229.304H275.666V226.16H279.338V229.304H282.074V232.472ZM287.101 228.224C285.933 228.224 284.989 227.8 284.269 226.952C283.549 226.104 283.189 225 283.189 223.64C283.189 222.28 283.549 221.176 284.269 220.328C284.989 219.48 285.933 219.056 287.101 219.056C288.269 219.056 289.205 219.48 289.909 220.328C290.629 221.16 290.989 222.264 290.989 223.64C290.989 225.016 290.629 226.128 289.909 226.976C289.205 227.808 288.269 228.224 287.101 228.224ZM297.229 219.2H299.077L287.605 236H285.757L297.229 219.2ZM287.101 226.856C287.837 226.856 288.413 226.576 288.829 226.016C289.245 225.44 289.453 224.648 289.453 223.64C289.453 222.632 289.245 221.848 288.829 221.288C288.413 220.712 287.837 220.424 287.101 220.424C286.381 220.424 285.805 220.712 285.373 221.288C284.957 221.864 284.749 222.648 284.749 223.64C284.749 224.632 284.957 225.416 285.373 225.992C285.805 226.568 286.381 226.856 287.101 226.856ZM297.733 236.144C296.565 236.144 295.621 235.728 294.901 234.896C294.197 234.048 293.845 232.936 293.845 231.56C293.845 230.184 294.197 229.08 294.901 228.248C295.621 227.4 296.565 226.976 297.733 226.976C298.901 226.976 299.845 227.4 300.565 228.248C301.285 229.096 301.645 230.2 301.645 231.56C301.645 232.92 301.285 234.024 300.565 234.872C299.845 235.72 298.901 236.144 297.733 236.144ZM297.733 234.776C298.453 234.776 299.021 234.488 299.437 233.912C299.869 233.336 300.085 232.552 300.085 231.56C300.085 230.568 299.869 229.784 299.437 229.208C299.021 228.632 298.453 228.344 297.733 228.344C296.997 228.344 296.421 228.632 296.005 229.208C295.589 229.768 295.381 230.552 295.381 231.56C295.381 232.568 295.589 233.36 296.005 233.936C296.421 234.496 296.997 234.776 297.733 234.776Z" fill="white"/>
<path d="M266.398 63.6L262.762 72H260.842L257.218 63.6H259.318L261.874 69.6L264.466 63.6H266.398ZM267.325 65.544H269.197V72H267.325V65.544ZM268.261 64.644C267.917 64.644 267.637 64.544 267.421 64.344C267.205 64.144 267.097 63.896 267.097 63.6C267.097 63.304 267.205 63.056 267.421 62.856C267.637 62.656 267.917 62.556 268.261 62.556C268.605 62.556 268.885 62.652 269.101 62.844C269.317 63.036 269.425 63.276 269.425 63.564C269.425 63.876 269.317 64.136 269.101 64.344C268.885 64.544 268.605 64.644 268.261 64.644ZM277.498 68.796C277.498 68.82 277.486 68.988 277.462 69.3H272.578C272.666 69.7 272.874 70.016 273.202 70.248C273.53 70.48 273.938 70.596 274.426 70.596C274.762 70.596 275.058 70.548 275.314 70.452C275.578 70.348 275.822 70.188 276.046 69.972L277.042 71.052C276.434 71.748 275.546 72.096 274.378 72.096C273.65 72.096 273.006 71.956 272.446 71.676C271.886 71.388 271.454 70.992 271.15 70.488C270.846 69.984 270.694 69.412 270.694 68.772C270.694 68.14 270.842 67.572 271.138 67.068C271.442 66.556 271.854 66.16 272.374 65.88C272.902 65.592 273.49 65.448 274.138 65.448C274.77 65.448 275.342 65.584 275.854 65.856C276.366 66.128 276.766 66.52 277.054 67.032C277.35 67.536 277.498 68.124 277.498 68.796ZM274.15 66.864C273.726 66.864 273.37 66.984 273.082 67.224C272.794 67.464 272.618 67.792 272.554 68.208H275.734C275.67 67.8 275.494 67.476 275.206 67.236C274.918 66.988 274.566 66.864 274.15 66.864ZM289.235 65.544L286.895 72H285.095L283.643 67.992L282.143 72H280.343L278.015 65.544H279.779L281.303 69.912L282.887 65.544H284.471L286.007 69.912L287.579 65.544H289.235ZM296.036 65.688H297.692V67.128H296.084V72H294.212V67.128H293.216V65.688H294.212V65.4C294.212 64.664 294.428 64.08 294.86 63.648C295.3 63.216 295.916 63 296.708 63C296.988 63 297.252 63.032 297.5 63.096C297.756 63.152 297.968 63.236 298.136 63.348L297.644 64.704C297.428 64.552 297.176 64.476 296.888 64.476C296.32 64.476 296.036 64.788 296.036 65.412V65.688ZM301.855 72.096C301.175 72.096 300.563 71.956 300.019 71.676C299.483 71.388 299.063 70.992 298.759 70.488C298.455 69.984 298.303 69.412 298.303 68.772C298.303 68.132 298.455 67.56 298.759 67.056C299.063 66.552 299.483 66.16 300.019 65.88C300.563 65.592 301.175 65.448 301.855 65.448C302.535 65.448 303.143 65.592 303.679 65.88C304.215 66.16 304.635 66.552 304.939 67.056C305.243 67.56 305.395 68.132 305.395 68.772C305.395 69.412 305.243 69.984 304.939 70.488C304.635 70.992 304.215 71.388 303.679 71.676C303.143 71.956 302.535 72.096 301.855 72.096ZM301.855 70.56C302.335 70.56 302.727 70.4 303.031 70.08C303.343 69.752 303.499 69.316 303.499 68.772C303.499 68.228 303.343 67.796 303.031 67.476C302.727 67.148 302.335 66.984 301.855 66.984C301.375 66.984 300.979 67.148 300.667 67.476C300.355 67.796 300.199 68.228 300.199 68.772C300.199 69.316 300.355 69.752 300.667 70.08C300.979 70.4 301.375 70.56 301.855 70.56ZM309.958 72.096C309.278 72.096 308.666 71.956 308.122 71.676C307.586 71.388 307.166 70.992 306.862 70.488C306.558 69.984 306.406 69.412 306.406 68.772C306.406 68.132 306.558 67.56 306.862 67.056C307.166 66.552 307.586 66.16 308.122 65.88C308.666 65.592 309.278 65.448 309.958 65.448C310.638 65.448 311.246 65.592 311.782 65.88C312.318 66.16 312.738 66.552 313.042 67.056C313.346 67.56 313.498 68.132 313.498 68.772C313.498 69.412 313.346 69.984 313.042 70.488C312.738 70.992 312.318 71.388 311.782 71.676C311.246 71.956 310.638 72.096 309.958 72.096ZM309.958 70.56C310.438 70.56 310.83 70.4 311.134 70.08C311.446 69.752 311.602 69.316 311.602 68.772C311.602 68.228 311.446 67.796 311.134 67.476C310.83 67.148 310.438 66.984 309.958 66.984C309.478 66.984 309.082 67.148 308.77 67.476C308.458 67.796 308.302 68.228 308.302 68.772C308.302 69.316 308.458 69.752 308.77 70.08C309.082 70.4 309.478 70.56 309.958 70.56ZM321.565 63.096V72H319.777V71.256C319.313 71.816 318.641 72.096 317.761 72.096C317.153 72.096 316.601 71.96 316.105 71.688C315.617 71.416 315.233 71.028 314.953 70.524C314.673 70.02 314.533 69.436 314.533 68.772C314.533 68.108 314.673 67.524 314.953 67.02C315.233 66.516 315.617 66.128 316.105 65.856C316.601 65.584 317.153 65.448 317.761 65.448C318.585 65.448 319.229 65.708 319.693 66.228V63.096H321.565ZM318.085 70.56C318.557 70.56 318.949 70.4 319.261 70.08C319.573 69.752 319.729 69.316 319.729 68.772C319.729 68.228 319.573 67.796 319.261 67.476C318.949 67.148 318.557 66.984 318.085 66.984C317.605 66.984 317.209 67.148 316.897 67.476C316.585 67.796 316.429 68.228 316.429 68.772C316.429 69.316 316.585 69.752 316.897 70.08C317.209 70.4 317.605 70.56 318.085 70.56ZM269.462 87.096C268.782 87.096 268.17 86.956 267.626 86.676C267.09 86.388 266.67 85.992 266.366 85.488C266.062 84.984 265.91 84.412 265.91 83.772C265.91 83.132 266.062 82.56 266.366 82.056C266.67 81.552 267.09 81.16 267.626 80.88C268.17 80.592 268.782 80.448 269.462 80.448C270.142 80.448 270.75 80.592 271.286 80.88C271.822 81.16 272.242 81.552 272.546 82.056C272.85 82.56 273.002 83.132 273.002 83.772C273.002 84.412 272.85 84.984 272.546 85.488C272.242 85.992 271.822 86.388 271.286 86.676C270.75 86.956 270.142 87.096 269.462 87.096ZM269.462 85.56C269.942 85.56 270.334 85.4 270.638 85.08C270.95 84.752 271.106 84.316 271.106 83.772C271.106 83.228 270.95 82.796 270.638 82.476C270.334 82.148 269.942 81.984 269.462 81.984C268.982 81.984 268.586 82.148 268.274 82.476C267.962 82.796 267.806 83.228 267.806 83.772C267.806 84.316 267.962 84.752 268.274 85.08C268.586 85.4 268.982 85.56 269.462 85.56ZM278.309 80.448C278.909 80.448 279.453 80.588 279.941 80.868C280.437 81.14 280.825 81.528 281.105 82.032C281.385 82.528 281.525 83.108 281.525 83.772C281.525 84.436 281.385 85.02 281.105 85.524C280.825 86.02 280.437 86.408 279.941 86.688C279.453 86.96 278.909 87.096 278.309 87.096C277.485 87.096 276.837 86.836 276.365 86.316V89.328H274.493V80.544H276.281V81.288C276.745 80.728 277.421 80.448 278.309 80.448ZM277.985 85.56C278.465 85.56 278.857 85.4 279.161 85.08C279.473 84.752 279.629 84.316 279.629 83.772C279.629 83.228 279.473 82.796 279.161 82.476C278.857 82.148 278.465 81.984 277.985 81.984C277.505 81.984 277.109 82.148 276.797 82.476C276.493 82.796 276.341 83.228 276.341 83.772C276.341 84.316 276.493 84.752 276.797 85.08C277.109 85.4 277.505 85.56 277.985 85.56ZM287.183 86.688C286.999 86.824 286.771 86.928 286.499 87C286.235 87.064 285.955 87.096 285.659 87.096C284.891 87.096 284.295 86.9 283.871 86.508C283.455 86.116 283.247 85.54 283.247 84.78V82.128H282.251V80.688H283.247V79.116H285.119V80.688H286.727V82.128H285.119V84.756C285.119 85.028 285.187 85.24 285.323 85.392C285.467 85.536 285.667 85.608 285.923 85.608C286.219 85.608 286.471 85.528 286.679 85.368L287.183 86.688ZM288.473 80.544H290.345V87H288.473V80.544ZM289.409 79.644C289.065 79.644 288.785 79.544 288.569 79.344C288.353 79.144 288.245 78.896 288.245 78.6C288.245 78.304 288.353 78.056 288.569 77.856C288.785 77.656 289.065 77.556 289.409 77.556C289.753 77.556 290.033 77.652 290.249 77.844C290.465 78.036 290.573 78.276 290.573 78.564C290.573 78.876 290.465 79.136 290.249 79.344C290.033 79.544 289.753 79.644 289.409 79.644ZM295.395 87.096C294.715 87.096 294.103 86.956 293.559 86.676C293.023 86.388 292.603 85.992 292.299 85.488C291.995 84.984 291.843 84.412 291.843 83.772C291.843 83.132 291.995 82.56 292.299 82.056C292.603 81.552 293.023 81.16 293.559 80.88C294.103 80.592 294.715 80.448 295.395 80.448C296.075 80.448 296.683 80.592 297.219 80.88C297.755 81.16 298.175 81.552 298.479 82.056C298.783 82.56 298.935 83.132 298.935 83.772C298.935 84.412 298.783 84.984 298.479 85.488C298.175 85.992 297.755 86.388 297.219 86.676C296.683 86.956 296.075 87.096 295.395 87.096ZM295.395 85.56C295.875 85.56 296.267 85.4 296.571 85.08C296.883 84.752 297.039 84.316 297.039 83.772C297.039 83.228 296.883 82.796 296.571 82.476C296.267 82.148 295.875 81.984 295.395 81.984C294.915 81.984 294.519 82.148 294.207 82.476C293.895 82.796 293.739 83.228 293.739 83.772C293.739 84.316 293.895 84.752 294.207 85.08C294.519 85.4 294.915 85.56 295.395 85.56ZM304.35 80.448C305.15 80.448 305.794 80.688 306.282 81.168C306.778 81.648 307.026 82.36 307.026 83.304V87H305.154V83.592C305.154 83.08 305.042 82.7 304.818 82.452C304.594 82.196 304.27 82.068 303.846 82.068C303.374 82.068 302.998 82.216 302.718 82.512C302.438 82.8 302.298 83.232 302.298 83.808V87H300.426V80.544H302.214V81.3C302.462 81.028 302.77 80.82 303.138 80.676C303.506 80.524 303.91 80.448 304.35 80.448ZM311.135 87.096C310.599 87.096 310.075 87.032 309.563 86.904C309.051 86.768 308.643 86.6 308.339 86.4L308.963 85.056C309.251 85.24 309.599 85.392 310.007 85.512C310.415 85.624 310.815 85.68 311.207 85.68C311.999 85.68 312.395 85.484 312.395 85.092C312.395 84.908 312.287 84.776 312.071 84.696C311.855 84.616 311.523 84.548 311.075 84.492C310.547 84.412 310.111 84.32 309.767 84.216C309.423 84.112 309.123 83.928 308.867 83.664C308.619 83.4 308.495 83.024 308.495 82.536C308.495 82.128 308.611 81.768 308.843 81.456C309.083 81.136 309.427 80.888 309.875 80.712C310.331 80.536 310.867 80.448 311.483 80.448C311.939 80.448 312.391 80.5 312.839 80.604C313.295 80.7 313.671 80.836 313.967 81.012L313.343 82.344C312.775 82.024 312.155 81.864 311.483 81.864C311.083 81.864 310.783 81.92 310.583 82.032C310.383 82.144 310.283 82.288 310.283 82.464C310.283 82.664 310.391 82.804 310.607 82.884C310.823 82.964 311.167 83.04 311.639 83.112C312.167 83.2 312.599 83.296 312.935 83.4C313.271 83.496 313.563 83.676 313.811 83.94C314.059 84.204 314.183 84.572 314.183 85.044C314.183 85.444 314.063 85.8 313.823 86.112C313.583 86.424 313.231 86.668 312.767 86.844C312.311 87.012 311.767 87.096 311.135 87.096Z" fill="white"/>
<rect x="360" y="121" width="100" height="123" fill="#2A3243"/>
<path d="M390.039 232.472H387.303V236H383.511V232.472H374.463V229.856L382.383 219.2H386.463L379.119 229.304H383.631V226.16H387.303V229.304H390.039V232.472ZM397.072 219.2V236H393.184V222.32H389.824V219.2H397.072ZM403.855 228.224C402.687 228.224 401.743 227.8 401.023 226.952C400.303 226.104 399.943 225 399.943 223.64C399.943 222.28 400.303 221.176 401.023 220.328C401.743 219.48 402.687 219.056 403.855 219.056C405.023 219.056 405.959 219.48 406.663 220.328C407.383 221.16 407.743 222.264 407.743 223.64C407.743 225.016 407.383 226.128 406.663 226.976C405.959 227.808 405.023 228.224 403.855 228.224ZM413.983 219.2H415.831L404.359 236H402.511L413.983 219.2ZM403.855 226.856C404.591 226.856 405.167 226.576 405.583 226.016C405.999 225.44 406.207 224.648 406.207 223.64C406.207 222.632 405.999 221.848 405.583 221.288C405.167 220.712 404.591 220.424 403.855 220.424C403.135 220.424 402.559 220.712 402.127 221.288C401.711 221.864 401.503 222.648 401.503 223.64C401.503 224.632 401.711 225.416 402.127 225.992C402.559 226.568 403.135 226.856 403.855 226.856ZM414.487 236.144C413.319 236.144 412.375 235.728 411.655 234.896C410.951 234.048 410.599 232.936 410.599 231.56C410.599 230.184 410.951 229.08 411.655 228.248C412.375 227.4 413.319 226.976 414.487 226.976C415.655 226.976 416.599 227.4 417.319 228.248C418.039 229.096 418.399 230.2 418.399 231.56C418.399 232.92 418.039 234.024 417.319 234.872C416.599 235.72 415.655 236.144 414.487 236.144ZM414.487 234.776C415.207 234.776 415.775 234.488 416.191 233.912C416.623 233.336 416.839 232.552 416.839 231.56C416.839 230.568 416.623 229.784 416.191 229.208C415.775 228.632 415.207 228.344 414.487 228.344C413.751 228.344 413.175 228.632 412.759 229.208C412.343 229.768 412.135 230.552 412.135 231.56C412.135 232.568 412.343 233.36 412.759 233.936C413.175 234.496 413.751 234.776 414.487 234.776Z" fill="white"/>
<path d="M371.766 132.6H373.71V139.416H377.922V141H371.766V132.6ZM385.393 137.796C385.393 137.82 385.381 137.988 385.357 138.3H380.473C380.561 138.7 380.769 139.016 381.097 139.248C381.425 139.48 381.833 139.596 382.321 139.596C382.657 139.596 382.953 139.548 383.209 139.452C383.473 139.348 383.717 139.188 383.941 138.972L384.937 140.052C384.329 140.748 383.441 141.096 382.273 141.096C381.545 141.096 380.901 140.956 380.341 140.676C379.781 140.388 379.349 139.992 379.045 139.488C378.741 138.984 378.589 138.412 378.589 137.772C378.589 137.14 378.737 136.572 379.033 136.068C379.337 135.556 379.749 135.16 380.269 134.88C380.797 134.592 381.385 134.448 382.033 134.448C382.665 134.448 383.237 134.584 383.749 134.856C384.261 135.128 384.661 135.52 384.949 136.032C385.245 136.536 385.393 137.124 385.393 137.796ZM382.045 135.864C381.621 135.864 381.265 135.984 380.977 136.224C380.689 136.464 380.513 136.792 380.449 137.208H383.629C383.565 136.8 383.389 136.476 383.101 136.236C382.813 135.988 382.461 135.864 382.045 135.864ZM389.308 134.448C390.308 134.448 391.076 134.688 391.612 135.168C392.148 135.64 392.416 136.356 392.416 137.316V141H390.664V140.196C390.312 140.796 389.656 141.096 388.696 141.096C388.2 141.096 387.768 141.012 387.4 140.844C387.04 140.676 386.764 140.444 386.572 140.148C386.38 139.852 386.284 139.516 386.284 139.14C386.284 138.54 386.508 138.068 386.956 137.724C387.412 137.38 388.112 137.208 389.056 137.208H390.544C390.544 136.8 390.42 136.488 390.172 136.272C389.924 136.048 389.552 135.936 389.056 135.936C388.712 135.936 388.372 135.992 388.036 136.104C387.708 136.208 387.428 136.352 387.196 136.536L386.524 135.228C386.876 134.98 387.296 134.788 387.784 134.652C388.28 134.516 388.788 134.448 389.308 134.448ZM389.164 139.836C389.484 139.836 389.768 139.764 390.016 139.62C390.264 139.468 390.44 139.248 390.544 138.96V138.3H389.26C388.492 138.3 388.108 138.552 388.108 139.056C388.108 139.296 388.2 139.488 388.384 139.632C388.576 139.768 388.836 139.836 389.164 139.836ZM396.138 135.396C396.362 135.084 396.662 134.848 397.038 134.688C397.422 134.528 397.862 134.448 398.358 134.448V136.176C398.15 136.16 398.01 136.152 397.938 136.152C397.402 136.152 396.982 136.304 396.678 136.608C396.374 136.904 396.222 137.352 396.222 137.952V141H394.35V134.544H396.138V135.396ZM403.635 134.448C404.435 134.448 405.079 134.688 405.567 135.168C406.063 135.648 406.311 136.36 406.311 137.304V141H404.439V137.592C404.439 137.08 404.327 136.7 404.103 136.452C403.879 136.196 403.555 136.068 403.131 136.068C402.659 136.068 402.283 136.216 402.003 136.512C401.723 136.8 401.583 137.232 401.583 137.808V141H399.711V134.544H401.499V135.3C401.747 135.028 402.055 134.82 402.423 134.676C402.791 134.524 403.195 134.448 403.635 134.448ZM414.49 134.448C415.49 134.448 416.258 134.688 416.794 135.168C417.33 135.64 417.598 136.356 417.598 137.316V141H415.846V140.196C415.494 140.796 414.838 141.096 413.878 141.096C413.382 141.096 412.95 141.012 412.582 140.844C412.222 140.676 411.946 140.444 411.754 140.148C411.562 139.852 411.466 139.516 411.466 139.14C411.466 138.54 411.69 138.068 412.138 137.724C412.594 137.38 413.294 137.208 414.238 137.208H415.726C415.726 136.8 415.602 136.488 415.354 136.272C415.106 136.048 414.734 135.936 414.238 135.936C413.894 135.936 413.554 135.992 413.218 136.104C412.89 136.208 412.61 136.352 412.378 136.536L411.706 135.228C412.058 134.98 412.478 134.788 412.966 134.652C413.462 134.516 413.97 134.448 414.49 134.448ZM414.346 139.836C414.666 139.836 414.95 139.764 415.198 139.62C415.446 139.468 415.622 139.248 415.726 138.96V138.3H414.442C413.674 138.3 413.29 138.552 413.29 139.056C413.29 139.296 413.382 139.488 413.566 139.632C413.758 139.768 414.018 139.836 414.346 139.836ZM423.349 134.448C423.949 134.448 424.493 134.588 424.981 134.868C425.477 135.14 425.865 135.528 426.145 136.032C426.425 136.528 426.565 137.108 426.565 137.772C426.565 138.436 426.425 139.02 426.145 139.524C425.865 140.02 425.477 140.408 424.981 140.688C424.493 140.96 423.949 141.096 423.349 141.096C422.461 141.096 421.785 140.816 421.321 140.256V141H419.533V132.096H421.405V135.228C421.877 134.708 422.525 134.448 423.349 134.448ZM423.025 139.56C423.505 139.56 423.897 139.4 424.201 139.08C424.513 138.752 424.669 138.316 424.669 137.772C424.669 137.228 424.513 136.796 424.201 136.476C423.897 136.148 423.505 135.984 423.025 135.984C422.545 135.984 422.149 136.148 421.837 136.476C421.533 136.796 421.381 137.228 421.381 137.772C421.381 138.316 421.533 138.752 421.837 139.08C422.149 139.4 422.545 139.56 423.025 139.56ZM431.13 141.096C430.45 141.096 429.838 140.956 429.294 140.676C428.758 140.388 428.338 139.992 428.034 139.488C427.73 138.984 427.578 138.412 427.578 137.772C427.578 137.132 427.73 136.56 428.034 136.056C428.338 135.552 428.758 135.16 429.294 134.88C429.838 134.592 430.45 134.448 431.13 134.448C431.81 134.448 432.418 134.592 432.954 134.88C433.49 135.16 433.91 135.552 434.214 136.056C434.518 136.56 434.67 137.132 434.67 137.772C434.67 138.412 434.518 138.984 434.214 139.488C433.91 139.992 433.49 140.388 432.954 140.676C432.418 140.956 431.81 141.096 431.13 141.096ZM431.13 139.56C431.61 139.56 432.002 139.4 432.306 139.08C432.618 138.752 432.774 138.316 432.774 137.772C432.774 137.228 432.618 136.796 432.306 136.476C432.002 136.148 431.61 135.984 431.13 135.984C430.65 135.984 430.254 136.148 429.942 136.476C429.63 136.796 429.474 137.228 429.474 137.772C429.474 138.316 429.63 138.752 429.942 139.08C430.254 139.4 430.65 139.56 431.13 139.56ZM442.665 134.544V141H440.889V140.232C440.641 140.512 440.345 140.728 440.001 140.88C439.657 141.024 439.285 141.096 438.885 141.096C438.037 141.096 437.365 140.852 436.869 140.364C436.373 139.876 436.125 139.152 436.125 138.192V134.544H437.997V137.916C437.997 138.956 438.433 139.476 439.305 139.476C439.753 139.476 440.113 139.332 440.385 139.044C440.657 138.748 440.793 138.312 440.793 137.736V134.544H442.665ZM448.803 140.688C448.619 140.824 448.391 140.928 448.119 141C447.855 141.064 447.575 141.096 447.279 141.096C446.511 141.096 445.915 140.9 445.491 140.508C445.075 140.116 444.867 139.54 444.867 138.78V136.128H443.871V134.688H444.867V133.116H446.739V134.688H448.347V136.128H446.739V138.756C446.739 139.028 446.807 139.24 446.943 139.392C447.087 139.536 447.287 139.608 447.543 139.608C447.839 139.608 448.091 139.528 448.299 139.368L448.803 140.688ZM375.578 155.688C375.394 155.824 375.166 155.928 374.894 156C374.63 156.064 374.35 156.096 374.054 156.096C373.286 156.096 372.69 155.9 372.266 155.508C371.85 155.116 371.642 154.54 371.642 153.78V151.128H370.646V149.688H371.642V148.116H373.514V149.688H375.122V151.128H373.514V153.756C373.514 154.028 373.582 154.24 373.718 154.392C373.862 154.536 374.062 154.608 374.318 154.608C374.614 154.608 374.866 154.528 375.074 154.368L375.578 155.688ZM380.793 149.448C381.593 149.448 382.237 149.688 382.725 150.168C383.221 150.648 383.469 151.36 383.469 152.304V156H381.597V152.592C381.597 152.08 381.485 151.7 381.261 151.452C381.037 151.196 380.713 151.068 380.289 151.068C379.817 151.068 379.441 151.216 379.161 151.512C378.881 151.8 378.741 152.232 378.741 152.808V156H376.869V147.096H378.741V150.216C378.989 149.968 379.289 149.78 379.641 149.652C379.993 149.516 380.377 149.448 380.793 149.448ZM391.8 152.796C391.8 152.82 391.788 152.988 391.764 153.3H386.88C386.968 153.7 387.176 154.016 387.504 154.248C387.832 154.48 388.24 154.596 388.728 154.596C389.064 154.596 389.36 154.548 389.616 154.452C389.88 154.348 390.124 154.188 390.348 153.972L391.344 155.052C390.736 155.748 389.848 156.096 388.68 156.096C387.952 156.096 387.308 155.956 386.748 155.676C386.188 155.388 385.756 154.992 385.452 154.488C385.148 153.984 384.996 153.412 384.996 152.772C384.996 152.14 385.144 151.572 385.44 151.068C385.744 150.556 386.156 150.16 386.676 149.88C387.204 149.592 387.792 149.448 388.44 149.448C389.072 149.448 389.644 149.584 390.156 149.856C390.668 150.128 391.068 150.52 391.356 151.032C391.652 151.536 391.8 152.124 391.8 152.796ZM388.452 150.864C388.028 150.864 387.672 150.984 387.384 151.224C387.096 151.464 386.92 151.792 386.856 152.208H390.036C389.972 151.8 389.796 151.476 389.508 151.236C389.22 150.988 388.868 150.864 388.452 150.864ZM400.741 149.448C401.341 149.448 401.885 149.588 402.373 149.868C402.869 150.14 403.257 150.528 403.537 151.032C403.817 151.528 403.957 152.108 403.957 152.772C403.957 153.436 403.817 154.02 403.537 154.524C403.257 155.02 402.869 155.408 402.373 155.688C401.885 155.96 401.341 156.096 400.741 156.096C399.853 156.096 399.177 155.816 398.713 155.256V156H396.925V147.096H398.797V150.228C399.269 149.708 399.917 149.448 400.741 149.448ZM400.417 154.56C400.897 154.56 401.289 154.4 401.593 154.08C401.905 153.752 402.061 153.316 402.061 152.772C402.061 152.228 401.905 151.796 401.593 151.476C401.289 151.148 400.897 150.984 400.417 150.984C399.937 150.984 399.541 151.148 399.229 151.476C398.925 151.796 398.773 152.228 398.773 152.772C398.773 153.316 398.925 153.752 399.229 154.08C399.541 154.4 399.937 154.56 400.417 154.56ZM407.238 150.396C407.462 150.084 407.762 149.848 408.138 149.688C408.522 149.528 408.962 149.448 409.458 149.448V151.176C409.25 151.16 409.11 151.152 409.038 151.152C408.502 151.152 408.082 151.304 407.778 151.608C407.474 151.904 407.322 152.352 407.322 152.952V156H405.45V149.544H407.238V150.396ZM417.076 152.796C417.076 152.82 417.064 152.988 417.04 153.3H412.156C412.244 153.7 412.452 154.016 412.78 154.248C413.108 154.48 413.516 154.596 414.004 154.596C414.34 154.596 414.636 154.548 414.892 154.452C415.156 154.348 415.4 154.188 415.624 153.972L416.62 155.052C416.012 155.748 415.124 156.096 413.956 156.096C413.228 156.096 412.584 155.956 412.024 155.676C411.464 155.388 411.032 154.992 410.728 154.488C410.424 153.984 410.272 153.412 410.272 152.772C410.272 152.14 410.42 151.572 410.716 151.068C411.02 150.556 411.432 150.16 411.952 149.88C412.48 149.592 413.068 149.448 413.716 149.448C414.348 149.448 414.92 149.584 415.432 149.856C415.944 150.128 416.344 150.52 416.632 151.032C416.928 151.536 417.076 152.124 417.076 152.796ZM413.728 150.864C413.304 150.864 412.948 150.984 412.66 151.224C412.372 151.464 412.196 151.792 412.132 152.208H415.312C415.248 151.8 415.072 151.476 414.784 151.236C414.496 150.988 414.144 150.864 413.728 150.864ZM428.814 149.544L426.474 156H424.674L423.222 151.992L421.722 156H419.922L417.594 149.544H419.358L420.882 153.912L422.466 149.544H424.05L425.586 153.912L427.158 149.544H428.814ZM436.072 152.796C436.072 152.82 436.06 152.988 436.036 153.3H431.152C431.24 153.7 431.448 154.016 431.776 154.248C432.104 154.48 432.512 154.596 433 154.596C433.336 154.596 433.632 154.548 433.888 154.452C434.152 154.348 434.396 154.188 434.62 153.972L435.616 155.052C435.008 155.748 434.12 156.096 432.952 156.096C432.224 156.096 431.58 155.956 431.02 155.676C430.46 155.388 430.028 154.992 429.724 154.488C429.42 153.984 429.268 153.412 429.268 152.772C429.268 152.14 429.416 151.572 429.712 151.068C430.016 150.556 430.428 150.16 430.948 149.88C431.476 149.592 432.064 149.448 432.712 149.448C433.344 149.448 433.916 149.584 434.428 149.856C434.94 150.128 435.34 150.52 435.628 151.032C435.924 151.536 436.072 152.124 436.072 152.796ZM432.724 150.864C432.3 150.864 431.944 150.984 431.656 151.224C431.368 151.464 431.192 151.792 431.128 152.208H434.308C434.244 151.8 434.068 151.476 433.78 151.236C433.492 150.988 433.14 150.864 432.724 150.864ZM439.346 150.396C439.57 150.084 439.87 149.848 440.246 149.688C440.63 149.528 441.07 149.448 441.566 149.448V151.176C441.358 151.16 441.218 151.152 441.146 151.152C440.61 151.152 440.19 151.304 439.886 151.608C439.582 151.904 439.43 152.352 439.43 152.952V156H437.558V149.544H439.346V150.396ZM449.55 149.544L446.634 156.396C446.338 157.14 445.97 157.664 445.53 157.968C445.098 158.272 444.574 158.424 443.958 158.424C443.622 158.424 443.29 158.372 442.962 158.268C442.634 158.164 442.366 158.02 442.158 157.836L442.842 156.504C442.986 156.632 443.15 156.732 443.334 156.804C443.526 156.876 443.714 156.912 443.898 156.912C444.154 156.912 444.362 156.848 444.522 156.72C444.682 156.6 444.826 156.396 444.954 156.108L444.978 156.048L442.182 149.544H444.114L445.926 153.924L447.75 149.544H449.55Z" fill="white"/>
<rect x="480" y="137" width="100" height="107" fill="#2A3243"/>
<path d="M500.429 226.04C501.901 226.28 503.029 226.832 503.813 227.696C504.597 228.544 504.989 229.6 504.989 230.864C504.989 231.84 504.733 232.744 504.221 233.576C503.709 234.392 502.925 235.048 501.869 235.544C500.829 236.04 499.549 236.288 498.029 236.288C496.845 236.288 495.677 236.136 494.525 235.832C493.389 235.512 492.421 235.064 491.621 234.488L493.133 231.512C493.773 231.992 494.509 232.368 495.341 232.64C496.189 232.896 497.053 233.024 497.933 233.024C498.909 233.024 499.677 232.84 500.237 232.472C500.797 232.088 501.077 231.552 501.077 230.864C501.077 229.488 500.029 228.8 497.933 228.8H496.157V226.232L499.613 222.32H492.461V219.2H504.221V221.72L500.429 226.04ZM514.872 225.464C515.944 225.464 516.92 225.68 517.8 226.112C518.68 226.544 519.376 227.16 519.888 227.96C520.4 228.744 520.656 229.656 520.656 230.696C520.656 231.816 520.376 232.8 519.816 233.648C519.256 234.496 518.488 235.152 517.512 235.616C516.552 236.064 515.48 236.288 514.296 236.288C511.944 236.288 510.104 235.568 508.776 234.128C507.448 232.688 506.784 230.632 506.784 227.96C506.784 226.056 507.144 224.424 507.864 223.064C508.584 221.704 509.584 220.672 510.864 219.968C512.16 219.264 513.656 218.912 515.352 218.912C516.248 218.912 517.104 219.016 517.92 219.224C518.752 219.416 519.456 219.696 520.032 220.064L518.592 222.92C517.76 222.36 516.712 222.08 515.448 222.08C514.024 222.08 512.896 222.496 512.064 223.328C511.232 224.16 510.784 225.368 510.72 226.952C511.712 225.96 513.096 225.464 514.872 225.464ZM514.08 233.384C514.912 233.384 515.584 233.16 516.096 232.712C516.624 232.264 516.888 231.656 516.888 230.888C516.888 230.12 516.624 229.512 516.096 229.064C515.584 228.6 514.896 228.368 514.032 228.368C513.184 228.368 512.488 228.608 511.944 229.088C511.4 229.552 511.128 230.152 511.128 230.888C511.128 231.624 511.392 232.224 511.92 232.688C512.448 233.152 513.168 233.384 514.08 233.384ZM525.929 228.224C524.761 228.224 523.817 227.8 523.097 226.952C522.377 226.104 522.017 225 522.017 223.64C522.017 222.28 522.377 221.176 523.097 220.328C523.817 219.48 524.761 219.056 525.929 219.056C527.097 219.056 528.033 219.48 528.737 220.328C529.457 221.16 529.817 222.264 529.817 223.64C529.817 225.016 529.457 226.128 528.737 226.976C528.033 227.808 527.097 228.224 525.929 228.224ZM536.057 219.2H537.905L526.433 236H524.585L536.057 219.2ZM525.929 226.856C526.665 226.856 527.241 226.576 527.657 226.016C528.073 225.44 528.281 224.648 528.281 223.64C528.281 222.632 528.073 221.848 527.657 221.288C527.241 220.712 526.665 220.424 525.929 220.424C525.209 220.424 524.633 220.712 524.201 221.288C523.785 221.864 523.577 222.648 523.577 223.64C523.577 224.632 523.785 225.416 524.201 225.992C524.633 226.568 525.209 226.856 525.929 226.856ZM536.561 236.144C535.393 236.144 534.449 235.728 533.729 234.896C533.025 234.048 532.673 232.936 532.673 231.56C532.673 230.184 533.025 229.08 533.729 228.248C534.449 227.4 535.393 226.976 536.561 226.976C537.729 226.976 538.673 227.4 539.393 228.248C540.113 229.096 540.473 230.2 540.473 231.56C540.473 232.92 540.113 234.024 539.393 234.872C538.673 235.72 537.729 236.144 536.561 236.144ZM536.561 234.776C537.281 234.776 537.849 234.488 538.265 233.912C538.697 233.336 538.913 232.552 538.913 231.56C538.913 230.568 538.697 229.784 538.265 229.208C537.849 228.632 537.281 228.344 536.561 228.344C535.825 228.344 535.249 228.632 534.833 229.208C534.417 229.768 534.209 230.552 534.209 231.56C534.209 232.568 534.417 233.36 534.833 233.936C535.249 234.496 535.825 234.776 536.561 234.776Z" fill="white"/>
<path d="M496.507 157.144C495.651 157.144 494.875 156.96 494.179 156.592C493.491 156.216 492.947 155.7 492.547 155.044C492.155 154.38 491.959 153.632 491.959 152.8C491.959 151.968 492.155 151.224 492.547 150.568C492.947 149.904 493.491 149.388 494.179 149.02C494.875 148.644 495.655 148.456 496.519 148.456C497.247 148.456 497.903 148.584 498.487 148.84C499.079 149.096 499.575 149.464 499.975 149.944L498.727 151.096C498.159 150.44 497.455 150.112 496.615 150.112C496.095 150.112 495.631 150.228 495.223 150.46C494.815 150.684 494.495 151 494.263 151.408C494.039 151.816 493.927 152.28 493.927 152.8C493.927 153.32 494.039 153.784 494.263 154.192C494.495 154.6 494.815 154.92 495.223 155.152C495.631 155.376 496.095 155.488 496.615 155.488C497.455 155.488 498.159 155.156 498.727 154.492L499.975 155.644C499.575 156.132 499.079 156.504 498.487 156.76C497.895 157.016 497.235 157.144 496.507 157.144ZM504.245 157.096C503.565 157.096 502.953 156.956 502.409 156.676C501.873 156.388 501.453 155.992 501.149 155.488C500.845 154.984 500.693 154.412 500.693 153.772C500.693 153.132 500.845 152.56 501.149 152.056C501.453 151.552 501.873 151.16 502.409 150.88C502.953 150.592 503.565 150.448 504.245 150.448C504.925 150.448 505.533 150.592 506.069 150.88C506.605 151.16 507.025 151.552 507.329 152.056C507.633 152.56 507.785 153.132 507.785 153.772C507.785 154.412 507.633 154.984 507.329 155.488C507.025 155.992 506.605 156.388 506.069 156.676C505.533 156.956 504.925 157.096 504.245 157.096ZM504.245 155.56C504.725 155.56 505.117 155.4 505.421 155.08C505.733 154.752 505.889 154.316 505.889 153.772C505.889 153.228 505.733 152.796 505.421 152.476C505.117 152.148 504.725 151.984 504.245 151.984C503.765 151.984 503.369 152.148 503.057 152.476C502.745 152.796 502.589 153.228 502.589 153.772C502.589 154.316 502.745 154.752 503.057 155.08C503.369 155.4 503.765 155.56 504.245 155.56ZM513.2 150.448C514 150.448 514.644 150.688 515.132 151.168C515.628 151.648 515.876 152.36 515.876 153.304V157H514.004V153.592C514.004 153.08 513.892 152.7 513.668 152.452C513.444 152.196 513.12 152.068 512.696 152.068C512.224 152.068 511.848 152.216 511.568 152.512C511.288 152.8 511.148 153.232 511.148 153.808V157H509.276V150.544H511.064V151.3C511.312 151.028 511.62 150.82 511.988 150.676C512.356 150.524 512.76 150.448 513.2 150.448ZM521.977 156.688C521.793 156.824 521.565 156.928 521.293 157C521.029 157.064 520.749 157.096 520.453 157.096C519.685 157.096 519.089 156.9 518.665 156.508C518.249 156.116 518.041 155.54 518.041 154.78V152.128H517.045V150.688H518.041V149.116H519.913V150.688H521.521V152.128H519.913V154.756C519.913 155.028 519.981 155.24 520.117 155.392C520.261 155.536 520.461 155.608 520.717 155.608C521.013 155.608 521.265 155.528 521.473 155.368L521.977 156.688ZM525.872 150.448C526.872 150.448 527.64 150.688 528.176 151.168C528.712 151.64 528.98 152.356 528.98 153.316V157H527.228V156.196C526.876 156.796 526.22 157.096 525.26 157.096C524.764 157.096 524.332 157.012 523.964 156.844C523.604 156.676 523.328 156.444 523.136 156.148C522.944 155.852 522.848 155.516 522.848 155.14C522.848 154.54 523.072 154.068 523.52 153.724C523.976 153.38 524.676 153.208 525.62 153.208H527.108C527.108 152.8 526.984 152.488 526.736 152.272C526.488 152.048 526.116 151.936 525.62 151.936C525.276 151.936 524.936 151.992 524.6 152.104C524.272 152.208 523.992 152.352 523.76 152.536L523.088 151.228C523.44 150.98 523.86 150.788 524.348 150.652C524.844 150.516 525.352 150.448 525.872 150.448ZM525.728 155.836C526.048 155.836 526.332 155.764 526.58 155.62C526.828 155.468 527.004 155.248 527.108 154.96V154.3H525.824C525.056 154.3 524.672 154.552 524.672 155.056C524.672 155.296 524.764 155.488 524.948 155.632C525.14 155.768 525.4 155.836 525.728 155.836ZM534.104 157.096C533.416 157.096 532.796 156.956 532.244 156.676C531.7 156.388 531.272 155.992 530.96 155.488C530.656 154.984 530.504 154.412 530.504 153.772C530.504 153.132 530.656 152.56 530.96 152.056C531.272 151.552 531.7 151.16 532.244 150.88C532.796 150.592 533.416 150.448 534.104 150.448C534.784 150.448 535.376 150.592 535.88 150.88C536.392 151.16 536.764 151.564 536.996 152.092L535.544 152.872C535.208 152.28 534.724 151.984 534.092 151.984C533.604 151.984 533.2 152.144 532.88 152.464C532.56 152.784 532.4 153.22 532.4 153.772C532.4 154.324 532.56 154.76 532.88 155.08C533.2 155.4 533.604 155.56 534.092 155.56C534.732 155.56 535.216 155.264 535.544 154.672L536.996 155.464C536.764 155.976 536.392 156.376 535.88 156.664C535.376 156.952 534.784 157.096 534.104 157.096ZM542.572 156.688C542.388 156.824 542.16 156.928 541.888 157C541.624 157.064 541.344 157.096 541.048 157.096C540.28 157.096 539.684 156.9 539.26 156.508C538.844 156.116 538.636 155.54 538.636 154.78V152.128H537.64V150.688H538.636V149.116H540.508V150.688H542.116V152.128H540.508V154.756C540.508 155.028 540.576 155.24 540.712 155.392C540.856 155.536 541.056 155.608 541.312 155.608C541.608 155.608 541.86 155.528 542.068 155.368L542.572 156.688ZM551.665 156.688C551.481 156.824 551.253 156.928 550.981 157C550.717 157.064 550.437 157.096 550.141 157.096C549.373 157.096 548.777 156.9 548.353 156.508C547.937 156.116 547.729 155.54 547.729 154.78V152.128H546.733V150.688H547.729V149.116H549.601V150.688H551.209V152.128H549.601V154.756C549.601 155.028 549.669 155.24 549.805 155.392C549.949 155.536 550.149 155.608 550.405 155.608C550.701 155.608 550.953 155.528 551.161 155.368L551.665 156.688ZM556.88 150.448C557.68 150.448 558.324 150.688 558.812 151.168C559.308 151.648 559.556 152.36 559.556 153.304V157H557.684V153.592C557.684 153.08 557.572 152.7 557.348 152.452C557.124 152.196 556.8 152.068 556.376 152.068C555.904 152.068 555.528 152.216 555.248 152.512C554.968 152.8 554.828 153.232 554.828 153.808V157H552.956V148.096H554.828V151.216C555.076 150.968 555.376 150.78 555.728 150.652C556.08 150.516 556.464 150.448 556.88 150.448ZM567.887 153.796C567.887 153.82 567.875 153.988 567.851 154.3H562.967C563.055 154.7 563.263 155.016 563.591 155.248C563.919 155.48 564.327 155.596 564.815 155.596C565.151 155.596 565.447 155.548 565.703 155.452C565.967 155.348 566.211 155.188 566.435 154.972L567.431 156.052C566.823 156.748 565.935 157.096 564.767 157.096C564.039 157.096 563.395 156.956 562.835 156.676C562.275 156.388 561.843 155.992 561.539 155.488C561.235 154.984 561.083 154.412 561.083 153.772C561.083 153.14 561.231 152.572 561.527 152.068C561.831 151.556 562.243 151.16 562.763 150.88C563.291 150.592 563.879 150.448 564.527 150.448C565.159 150.448 565.731 150.584 566.243 150.856C566.755 151.128 567.155 151.52 567.443 152.032C567.739 152.536 567.887 153.124 567.887 153.796ZM564.539 151.864C564.115 151.864 563.759 151.984 563.471 152.224C563.183 152.464 563.007 152.792 562.943 153.208H566.123C566.059 152.8 565.883 152.476 565.595 152.236C565.307 151.988 564.955 151.864 564.539 151.864ZM507.985 165.448C508.585 165.448 509.129 165.588 509.617 165.868C510.113 166.14 510.501 166.528 510.781 167.032C511.061 167.528 511.201 168.108 511.201 168.772C511.201 169.436 511.061 170.02 510.781 170.524C510.501 171.02 510.113 171.408 509.617 171.688C509.129 171.96 508.585 172.096 507.985 172.096C507.097 172.096 506.421 171.816 505.957 171.256V172H504.169V163.096H506.041V166.228C506.513 165.708 507.161 165.448 507.985 165.448ZM507.661 170.56C508.141 170.56 508.533 170.4 508.837 170.08C509.149 169.752 509.305 169.316 509.305 168.772C509.305 168.228 509.149 167.796 508.837 167.476C508.533 167.148 508.141 166.984 507.661 166.984C507.181 166.984 506.785 167.148 506.473 167.476C506.169 167.796 506.017 168.228 506.017 168.772C506.017 169.316 506.169 169.752 506.473 170.08C506.785 170.4 507.181 170.56 507.661 170.56ZM514.483 166.396C514.707 166.084 515.007 165.848 515.383 165.688C515.767 165.528 516.207 165.448 516.703 165.448V167.176C516.495 167.16 516.355 167.152 516.283 167.152C515.747 167.152 515.327 167.304 515.023 167.608C514.719 167.904 514.567 168.352 514.567 168.952V172H512.695V165.544H514.483V166.396ZM524.321 168.796C524.321 168.82 524.309 168.988 524.285 169.3H519.401C519.489 169.7 519.697 170.016 520.025 170.248C520.353 170.48 520.761 170.596 521.249 170.596C521.585 170.596 521.881 170.548 522.137 170.452C522.401 170.348 522.645 170.188 522.869 169.972L523.865 171.052C523.257 171.748 522.369 172.096 521.201 172.096C520.473 172.096 519.829 171.956 519.269 171.676C518.709 171.388 518.277 170.992 517.973 170.488C517.669 169.984 517.517 169.412 517.517 168.772C517.517 168.14 517.665 167.572 517.961 167.068C518.265 166.556 518.677 166.16 519.197 165.88C519.725 165.592 520.313 165.448 520.961 165.448C521.593 165.448 522.165 165.584 522.677 165.856C523.189 166.128 523.589 166.52 523.877 167.032C524.173 167.536 524.321 168.124 524.321 168.796ZM520.973 166.864C520.549 166.864 520.193 166.984 519.905 167.224C519.617 167.464 519.441 167.792 519.377 168.208H522.557C522.493 167.8 522.317 167.476 522.029 167.236C521.741 166.988 521.389 166.864 520.973 166.864ZM536.058 165.544L533.718 172H531.918L530.466 167.992L528.966 172H527.166L524.838 165.544H526.602L528.126 169.912L529.71 165.544H531.294L532.83 169.912L534.402 165.544H536.058ZM543.317 168.796C543.317 168.82 543.305 168.988 543.281 169.3H538.397C538.485 169.7 538.693 170.016 539.021 170.248C539.349 170.48 539.757 170.596 540.245 170.596C540.581 170.596 540.877 170.548 541.133 170.452C541.397 170.348 541.641 170.188 541.865 169.972L542.861 171.052C542.253 171.748 541.365 172.096 540.197 172.096C539.469 172.096 538.825 171.956 538.265 171.676C537.705 171.388 537.273 170.992 536.969 170.488C536.665 169.984 536.513 169.412 536.513 168.772C536.513 168.14 536.661 167.572 536.957 167.068C537.261 166.556 537.673 166.16 538.193 165.88C538.721 165.592 539.309 165.448 539.957 165.448C540.589 165.448 541.161 165.584 541.673 165.856C542.185 166.128 542.585 166.52 542.873 167.032C543.169 167.536 543.317 168.124 543.317 168.796ZM539.969 166.864C539.545 166.864 539.189 166.984 538.901 167.224C538.613 167.464 538.437 167.792 538.373 168.208H541.553C541.489 167.8 541.313 167.476 541.025 167.236C540.737 166.988 540.385 166.864 539.969 166.864ZM546.591 166.396C546.815 166.084 547.115 165.848 547.491 165.688C547.875 165.528 548.315 165.448 548.811 165.448V167.176C548.603 167.16 548.463 167.152 548.391 167.152C547.855 167.152 547.435 167.304 547.131 167.608C546.827 167.904 546.675 168.352 546.675 168.952V172H544.803V165.544H546.591V166.396ZM556.795 165.544L553.879 172.396C553.583 173.14 553.215 173.664 552.775 173.968C552.343 174.272 551.819 174.424 551.203 174.424C550.867 174.424 550.535 174.372 550.207 174.268C549.879 174.164 549.611 174.02 549.403 173.836L550.087 172.504C550.231 172.632 550.395 172.732 550.579 172.804C550.771 172.876 550.959 172.912 551.143 172.912C551.399 172.912 551.607 172.848 551.767 172.72C551.927 172.6 552.071 172.396 552.199 172.108L552.223 172.048L549.427 165.544H551.359L553.171 169.924L554.995 165.544H556.795Z" fill="white"/>
</svg>
