<svg width="340" height="322" viewBox="0 0 340 322" fill="none" xmlns="http://www.w3.org/2000/svg">
<path d="M6.55 31H5.185L1.42 21.1H2.71L5.23 27.94L5.86 29.905L6.49 27.955L9.01 21.1H10.3L6.55 31ZM13.0216 22.06C12.7516 22.06 12.5316 21.98 12.3616 21.82C12.2016 21.65 12.1216 21.43 12.1216 21.16C12.1216 20.89 12.2016 20.675 12.3616 20.515C12.5316 20.345 12.7516 20.26 13.0216 20.26C13.2916 20.26 13.5066 20.345 13.6666 20.515C13.8366 20.675 13.9216 20.89 13.9216 21.16C13.9216 21.43 13.8366 21.65 13.6666 21.82C13.5066 21.98 13.2916 22.06 13.0216 22.06ZM13.6216 31H12.4216V23.5H13.6216V31ZM23.1409 26.86C23.1409 27.14 23.1209 27.42 23.0809 27.7H17.4259C17.4959 28.46 17.7459 29.05 18.1759 29.47C18.6159 29.89 19.1809 30.1 19.8709 30.1C20.4209 30.1 20.8759 30.005 21.2359 29.815C21.6059 29.625 21.8559 29.35 21.9859 28.99L22.9909 29.515C22.6909 30.045 22.2909 30.45 21.7909 30.73C21.2909 31.01 20.6509 31.15 19.8709 31.15C18.7409 31.15 17.8509 30.805 17.2009 30.115C16.5609 29.425 16.2409 28.47 16.2409 27.25C16.2409 26.03 16.5459 25.075 17.1559 24.385C17.7759 23.695 18.6509 23.35 19.7809 23.35C20.4809 23.35 21.0859 23.505 21.5959 23.815C22.1059 24.125 22.4909 24.545 22.7509 25.075C23.0109 25.605 23.1409 26.2 23.1409 26.86ZM19.7809 24.4C19.1209 24.4 18.5859 24.595 18.1759 24.985C17.7759 25.375 17.5309 25.925 17.4409 26.635H21.9859C21.9059 25.935 21.6759 25.39 21.2959 25C20.9159 24.6 20.4109 24.4 19.7809 24.4ZM36.436 23.5L33.826 31H32.626L30.511 25.03L28.516 31H27.316L24.706 23.5H26.041L27.931 29.605L29.971 23.5H31.171L33.211 29.605L35.101 23.5H36.436ZM48.0651 30.475C47.5651 30.925 46.9201 31.15 46.1301 31.15C45.5201 31.15 45.0201 30.985 44.6301 30.655C44.2501 30.325 44.0551 29.82 44.0451 29.14V24.535H42.5451V23.5H44.0451V21.7L45.2451 21.37V23.5H48.0201V24.535H45.2451V28.93C45.2451 29.29 45.3451 29.565 45.5451 29.755C45.7551 29.935 46.0301 30.025 46.3701 30.025C46.8501 30.025 47.2751 29.84 47.6451 29.47L48.0651 30.475ZM56.2093 30.13C56.4093 30.13 56.6093 30.105 56.8093 30.055L56.7343 31C56.4543 31.1 56.1543 31.15 55.8343 31.15C55.4443 31.15 55.1343 31.065 54.9043 30.895C54.6843 30.725 54.5443 30.44 54.4843 30.04C54.2543 30.39 53.9143 30.665 53.4643 30.865C53.0243 31.055 52.5593 31.15 52.0693 31.15C51.3293 31.15 50.7193 30.98 50.2393 30.64C49.7593 30.29 49.5193 29.79 49.5193 29.14C49.5193 28.57 49.7693 28.08 50.2693 27.67C50.7693 27.25 51.4943 26.96 52.4443 26.8L54.4393 26.47V26.05C54.4393 25.55 54.2843 25.15 53.9743 24.85C53.6643 24.55 53.2343 24.4 52.6843 24.4C52.1843 24.4 51.7493 24.52 51.3793 24.76C51.0193 25 50.7393 25.355 50.5393 25.825L49.6543 25.18C49.8543 24.62 50.2243 24.175 50.7643 23.845C51.3143 23.515 51.9543 23.35 52.6843 23.35C53.5743 23.35 54.2893 23.565 54.8293 23.995C55.3693 24.425 55.6393 25.06 55.6393 25.9V29.59C55.6393 29.77 55.6843 29.905 55.7743 29.995C55.8643 30.085 56.0093 30.13 56.2093 30.13ZM52.1293 30.1C52.7593 30.1 53.2993 29.95 53.7493 29.65C54.2093 29.35 54.4393 28.96 54.4393 28.48V27.445L52.7593 27.76C52.0893 27.88 51.5893 28.055 51.2593 28.285C50.9293 28.505 50.7643 28.79 50.7643 29.14C50.7643 29.45 50.8843 29.69 51.1243 29.86C51.3643 30.02 51.6993 30.1 52.1293 30.1ZM62.5454 23.35C63.5954 23.35 64.4254 23.7 65.0353 24.4C65.6554 25.09 65.9654 26.04 65.9654 27.25C65.9654 28.46 65.6554 29.415 65.0353 30.115C64.4254 30.805 63.5954 31.15 62.5454 31.15C61.9954 31.15 61.5004 31.03 61.0604 30.79C60.6304 30.55 60.2954 30.23 60.0554 29.83V34.15H58.8554V23.5H59.9054L59.9804 24.805C60.2004 24.365 60.5354 24.015 60.9854 23.755C61.4454 23.485 61.9654 23.35 62.5454 23.35ZM62.4104 30.1C63.1404 30.1 63.7154 29.845 64.1354 29.335C64.5554 28.815 64.7654 28.12 64.7654 27.25C64.7654 26.38 64.5554 25.69 64.1354 25.18C63.7154 24.66 63.1404 24.4 62.4104 24.4C61.6904 24.4 61.1154 24.65 60.6854 25.15C60.2654 25.65 60.0554 26.32 60.0554 27.16V27.34C60.0554 28.18 60.2654 28.85 60.6854 29.35C61.1154 29.85 61.6904 30.1 62.4104 30.1ZM75.1559 28.99C75.1559 29.37 75.2109 29.635 75.3209 29.785C75.4409 29.925 75.6559 29.995 75.9659 29.995C76.1759 29.995 76.3559 29.98 76.5059 29.95C76.6659 29.92 76.8509 29.865 77.0609 29.785L76.8659 30.94C76.5359 31.08 76.1659 31.15 75.7559 31.15C75.1459 31.15 74.6909 30.985 74.3909 30.655C74.1009 30.325 73.9559 29.82 73.9559 29.14V20.05H75.1559V28.99ZM79.5009 22.06C79.2309 22.06 79.0109 21.98 78.8409 21.82C78.6809 21.65 78.6009 21.43 78.6009 21.16C78.6009 20.89 78.6809 20.675 78.8409 20.515C79.0109 20.345 79.2309 20.26 79.5009 20.26C79.7709 20.26 79.9859 20.345 80.1459 20.515C80.3159 20.675 80.4009 20.89 80.4009 21.16C80.4009 21.43 80.3159 21.65 80.1459 21.82C79.9859 21.98 79.7709 22.06 79.5009 22.06ZM80.1009 31H78.9009V23.5H80.1009V31ZM85.7352 31.15C85.0152 31.15 84.3652 31.01 83.7852 30.73C83.2052 30.44 82.7802 30.015 82.5102 29.455L83.4852 28.78C83.6552 29.22 83.9502 29.55 84.3702 29.77C84.7902 29.99 85.2852 30.1 85.8552 30.1C86.4452 30.1 86.8952 29.995 87.2052 29.785C87.5152 29.575 87.6702 29.31 87.6702 28.99C87.6702 28.7 87.5252 28.47 87.2352 28.3C86.9452 28.12 86.4352 27.965 85.7052 27.835C84.9852 27.705 84.4152 27.55 83.9952 27.37C83.5752 27.18 83.2702 26.945 83.0802 26.665C82.8902 26.375 82.7952 26.02 82.7952 25.6C82.7952 25.19 82.9152 24.815 83.1552 24.475C83.3952 24.135 83.7402 23.865 84.1902 23.665C84.6402 23.455 85.1602 23.35 85.7502 23.35C86.5502 23.35 87.1902 23.5 87.6702 23.8C88.1602 24.09 88.5102 24.54 88.7202 25.15L87.7002 25.75C87.5402 25.27 87.2952 24.925 86.9652 24.715C86.6452 24.505 86.2402 24.4 85.7502 24.4C85.2602 24.4 84.8452 24.51 84.5052 24.73C84.1652 24.95 83.9952 25.205 83.9952 25.495C83.9952 25.825 84.1402 26.08 84.4302 26.26C84.7302 26.44 85.2602 26.595 86.0202 26.725C87.0602 26.895 87.7952 27.15 88.2252 27.49C88.6552 27.83 88.8702 28.31 88.8702 28.93C88.8702 29.36 88.7402 29.745 88.4802 30.085C88.2302 30.415 87.8652 30.675 87.3852 30.865C86.9152 31.055 86.3652 31.15 85.7352 31.15ZM95.9854 30.475C95.4854 30.925 94.8404 31.15 94.0504 31.15C93.4404 31.15 92.9404 30.985 92.5504 30.655C92.1704 30.325 91.9754 29.82 91.9654 29.14V24.535H90.4654V23.5H91.9654V21.7L93.1654 21.37V23.5H95.9404V24.535H93.1654V28.93C93.1654 29.29 93.2654 29.565 93.4654 29.755C93.6754 29.935 93.9504 30.025 94.2904 30.025C94.7704 30.025 95.1954 29.84 95.5654 29.47L95.9854 30.475Z" fill="black"/>
<path d="M9.285 86.31C9.285 87.58 8.95 88.54 8.28 89.19C7.62 89.83 6.66 90.15 5.4 90.15C4.14 90.15 3.175 89.825 2.505 89.175C1.845 88.525 1.515 87.57 1.515 86.31V80.1H2.715V86.01C2.715 87.05 2.93 87.815 3.36 88.305C3.8 88.785 4.48 89.025 5.4 89.025C6.32 89.025 6.995 88.785 7.425 88.305C7.865 87.815 8.085 87.05 8.085 86.01V80.1H9.285V86.31ZM16.1077 82.35C17.1577 82.35 17.9877 82.7 18.5977 83.4C19.2177 84.09 19.5277 85.04 19.5277 86.25C19.5277 87.46 19.2177 88.415 18.5977 89.115C17.9877 89.805 17.1577 90.15 16.1077 90.15C15.5577 90.15 15.0627 90.03 14.6227 89.79C14.1927 89.55 13.8577 89.23 13.6177 88.83V93.15H12.4177V82.5H13.4677L13.5427 83.805C13.7627 83.365 14.0977 83.015 14.5477 82.755C15.0077 82.485 15.5277 82.35 16.1077 82.35ZM15.9727 89.1C16.7027 89.1 17.2777 88.845 17.6977 88.335C18.1177 87.815 18.3277 87.12 18.3277 86.25C18.3277 85.38 18.1177 84.69 17.6977 84.18C17.2777 83.66 16.7027 83.4 15.9727 83.4C15.2527 83.4 14.6777 83.65 14.2477 84.15C13.8277 84.65 13.6177 85.32 13.6177 86.16V86.34C13.6177 87.18 13.8277 87.85 14.2477 88.35C14.6777 88.85 15.2527 89.1 15.9727 89.1ZM25.3309 82.35C26.0809 82.35 26.7109 82.525 27.2209 82.875C27.7409 83.215 28.1459 83.705 28.4359 84.345L27.2959 84.885C26.9759 83.895 26.3109 83.4 25.3009 83.4C24.5509 83.4 23.9609 83.655 23.5309 84.165C23.1109 84.665 22.9009 85.36 22.9009 86.25C22.9009 87.14 23.1109 87.84 23.5309 88.35C23.9609 88.85 24.5509 89.1 25.3009 89.1C25.8809 89.1 26.3459 88.97 26.6959 88.71C27.0559 88.44 27.2909 88.055 27.4009 87.555L28.5109 87.945C28.2509 88.645 27.8509 89.19 27.3109 89.58C26.7709 89.96 26.1109 90.15 25.3309 90.15C24.2009 90.15 23.3109 89.805 22.6609 89.115C22.0209 88.425 21.7009 87.47 21.7009 86.25C21.7009 85.03 22.0209 84.075 22.6609 83.385C23.3109 82.695 24.2009 82.35 25.3309 82.35ZM34.0977 82.35C35.2277 82.35 36.1127 82.695 36.7527 83.385C37.4027 84.075 37.7277 85.03 37.7277 86.25C37.7277 87.47 37.4027 88.425 36.7527 89.115C36.1127 89.805 35.2277 90.15 34.0977 90.15C32.9677 90.15 32.0777 89.805 31.4277 89.115C30.7877 88.425 30.4677 87.47 30.4677 86.25C30.4677 85.03 30.7877 84.075 31.4277 83.385C32.0777 82.695 32.9677 82.35 34.0977 82.35ZM34.0977 83.385C33.3377 83.385 32.7427 83.64 32.3127 84.15C31.8827 84.66 31.6677 85.36 31.6677 86.25C31.6677 87.14 31.8827 87.84 32.3127 88.35C32.7427 88.86 33.3377 89.115 34.0977 89.115C34.8577 89.115 35.4527 88.86 35.8827 88.35C36.3127 87.84 36.5277 87.14 36.5277 86.25C36.5277 85.36 36.3127 84.66 35.8827 84.15C35.4527 83.64 34.8577 83.385 34.0977 83.385ZM49.0737 82.35C49.5737 82.35 50.0387 82.455 50.4687 82.665C50.9087 82.865 51.2637 83.18 51.5337 83.61C51.8037 84.04 51.9387 84.57 51.9387 85.2V90H50.7387V85.32C50.7387 84.67 50.5737 84.19 50.2437 83.88C49.9237 83.56 49.4987 83.4 48.9687 83.4C48.5687 83.4 48.1987 83.5 47.8587 83.7C47.5287 83.89 47.2587 84.175 47.0487 84.555C46.8487 84.925 46.7487 85.37 46.7487 85.89V90H45.5487V85.32C45.5487 84.67 45.3837 84.19 45.0537 83.88C44.7337 83.56 44.3087 83.4 43.7787 83.4C43.4187 83.4 43.0687 83.495 42.7287 83.685C42.3887 83.865 42.1087 84.15 41.8887 84.54C41.6687 84.93 41.5587 85.415 41.5587 85.995V90H40.3587V82.5H41.4087L41.4837 83.67C41.7437 83.23 42.0837 82.9 42.5037 82.68C42.9337 82.46 43.3937 82.35 43.8837 82.35C44.4337 82.35 44.9387 82.475 45.3987 82.725C45.8687 82.975 46.2237 83.34 46.4637 83.82C46.6837 83.34 47.0437 82.975 47.5437 82.725C48.0437 82.475 48.5537 82.35 49.0737 82.35ZM55.5555 81.06C55.2855 81.06 55.0655 80.98 54.8955 80.82C54.7355 80.65 54.6555 80.43 54.6555 80.16C54.6555 79.89 54.7355 79.675 54.8955 79.515C55.0655 79.345 55.2855 79.26 55.5555 79.26C55.8255 79.26 56.0405 79.345 56.2005 79.515C56.3705 79.675 56.4555 79.89 56.4555 80.16C56.4555 80.43 56.3705 80.65 56.2005 80.82C56.0405 80.98 55.8255 81.06 55.5555 81.06ZM56.1555 90H54.9555V82.5H56.1555V90ZM62.8849 82.35C63.7349 82.35 64.4349 82.595 64.9849 83.085C65.5349 83.575 65.8099 84.28 65.8099 85.2V90H64.6099V85.62C64.6099 84.84 64.4399 84.275 64.0999 83.925C63.7699 83.575 63.3249 83.4 62.7649 83.4C62.3649 83.4 61.9899 83.49 61.6399 83.67C61.2899 83.84 60.9999 84.125 60.7699 84.525C60.5499 84.915 60.4399 85.41 60.4399 86.01V90H59.2399V82.5H60.2899L60.3649 83.67C60.6149 83.22 60.9599 82.89 61.3999 82.68C61.8399 82.46 62.3349 82.35 62.8849 82.35ZM73.012 89.04C73.722 89.04 74.277 89.2 74.677 89.52C75.077 89.84 75.277 90.275 75.277 90.825C75.277 91.305 75.112 91.725 74.782 92.085C74.452 92.455 74.002 92.735 73.432 92.925C72.872 93.125 72.252 93.225 71.572 93.225C70.432 93.225 69.572 93.04 68.992 92.67C68.412 92.31 68.122 91.835 68.122 91.245C68.122 90.905 68.237 90.605 68.467 90.345C68.707 90.085 69.032 89.9 69.442 89.79C69.132 89.64 68.882 89.45 68.692 89.22C68.512 88.99 68.422 88.72 68.422 88.41C68.422 88.04 68.522 87.735 68.722 87.495C68.922 87.245 69.197 87.06 69.547 86.94C69.187 86.72 68.912 86.435 68.722 86.085C68.542 85.725 68.452 85.325 68.452 84.885C68.452 84.395 68.582 83.96 68.842 83.58C69.102 83.19 69.467 82.89 69.937 82.68C70.407 82.46 70.937 82.35 71.527 82.35C72.087 82.35 72.597 82.45 73.057 82.65C73.337 81.63 74.042 81.12 75.172 81.12L75.442 82.17C74.462 82.17 73.867 82.445 73.657 82.995C73.957 83.225 74.187 83.5 74.347 83.82C74.517 84.14 74.602 84.495 74.602 84.885C74.602 85.375 74.472 85.815 74.212 86.205C73.952 86.585 73.587 86.885 73.117 87.105C72.647 87.315 72.117 87.42 71.527 87.42C71.087 87.42 70.702 87.375 70.372 87.285C70.072 87.355 69.857 87.465 69.727 87.615C69.597 87.765 69.532 87.97 69.532 88.23C69.532 88.49 69.622 88.69 69.802 88.83C69.982 88.97 70.222 89.04 70.522 89.04H73.012ZM71.527 83.325C71.007 83.325 70.572 83.47 70.222 83.76C69.872 84.05 69.697 84.425 69.697 84.885C69.697 85.345 69.872 85.72 70.222 86.01C70.572 86.3 71.007 86.445 71.527 86.445C72.047 86.445 72.482 86.3 72.832 86.01C73.182 85.72 73.357 85.345 73.357 84.885C73.357 84.425 73.182 84.05 72.832 83.76C72.482 83.47 72.047 83.325 71.527 83.325ZM71.707 92.22C72.467 92.22 73.067 92.095 73.507 91.845C73.947 91.605 74.167 91.31 74.167 90.96C74.167 90.67 74.052 90.45 73.822 90.3C73.602 90.15 73.222 90.075 72.682 90.075H70.672C70.212 90.075 69.857 90.155 69.607 90.315C69.357 90.485 69.232 90.715 69.232 91.005C69.232 91.385 69.442 91.68 69.862 91.89C70.282 92.11 70.897 92.22 71.707 92.22ZM7.83 103.86C7.83 104.14 7.81 104.42 7.77 104.7H2.115C2.185 105.46 2.435 106.05 2.865 106.47C3.305 106.89 3.87 107.1 4.56 107.1C5.11 107.1 5.565 107.005 5.925 106.815C6.295 106.625 6.545 106.35 6.675 105.99L7.68 106.515C7.38 107.045 6.98 107.45 6.48 107.73C5.98 108.01 5.34 108.15 4.56 108.15C3.43 108.15 2.54 107.805 1.89 107.115C1.25 106.425 0.93 105.47 0.93 104.25C0.93 103.03 1.235 102.075 1.845 101.385C2.465 100.695 3.34 100.35 4.47 100.35C5.17 100.35 5.775 100.505 6.285 100.815C6.795 101.125 7.18 101.545 7.44 102.075C7.7 102.605 7.83 103.2 7.83 103.86ZM4.47 101.4C3.81 101.4 3.275 101.595 2.865 101.985C2.465 102.375 2.22 102.925 2.13 103.635H6.675C6.595 102.935 6.365 102.39 5.985 102C5.605 101.6 5.1 101.4 4.47 101.4ZM16.4307 100.5L13.3107 108H12.1107L8.99074 100.5H10.3557L12.7257 106.785L15.1707 100.5H16.4307ZM24.7337 103.86C24.7337 104.14 24.7137 104.42 24.6737 104.7H19.0187C19.0887 105.46 19.3387 106.05 19.7687 106.47C20.2087 106.89 20.7737 107.1 21.4637 107.1C22.0137 107.1 22.4687 107.005 22.8287 106.815C23.1987 106.625 23.4487 106.35 23.5787 105.99L24.5837 106.515C24.2837 107.045 23.8837 107.45 23.3837 107.73C22.8837 108.01 22.2437 108.15 21.4637 108.15C20.3337 108.15 19.4437 107.805 18.7937 107.115C18.1537 106.425 17.8337 105.47 17.8337 104.25C17.8337 103.03 18.1387 102.075 18.7487 101.385C19.3687 100.695 20.2437 100.35 21.3737 100.35C22.0737 100.35 22.6787 100.505 23.1887 100.815C23.6987 101.125 24.0837 101.545 24.3437 102.075C24.6037 102.605 24.7337 103.2 24.7337 103.86ZM21.3737 101.4C20.7137 101.4 20.1787 101.595 19.7687 101.985C19.3687 102.375 19.1237 102.925 19.0337 103.635H23.5787C23.4987 102.935 23.2687 102.39 22.8887 102C22.5087 101.6 22.0037 101.4 21.3737 101.4ZM30.9595 100.35C31.8095 100.35 32.5095 100.595 33.0595 101.085C33.6095 101.575 33.8845 102.28 33.8845 103.2V108H32.6845V103.62C32.6845 102.84 32.5145 102.275 32.1745 101.925C31.8445 101.575 31.3995 101.4 30.8395 101.4C30.4395 101.4 30.0645 101.49 29.7145 101.67C29.3645 101.84 29.0745 102.125 28.8445 102.525C28.6245 102.915 28.5145 103.41 28.5145 104.01V108H27.3145V100.5H28.3645L28.4395 101.67C28.6895 101.22 29.0345 100.89 29.4745 100.68C29.9145 100.46 30.4095 100.35 30.9595 100.35ZM41.3891 107.475C40.8891 107.925 40.2441 108.15 39.4541 108.15C38.8441 108.15 38.3441 107.985 37.9541 107.655C37.5741 107.325 37.3791 106.82 37.3691 106.14V101.535H35.8691V100.5H37.3691V98.7L38.5691 98.37V100.5H41.3441V101.535H38.5691V105.93C38.5691 106.29 38.6691 106.565 38.8691 106.755C39.0791 106.935 39.3541 107.025 39.6941 107.025C40.1741 107.025 40.5991 106.84 40.9691 106.47L41.3891 107.475ZM45.9333 108.15C45.2133 108.15 44.5633 108.01 43.9833 107.73C43.4033 107.44 42.9783 107.015 42.7083 106.455L43.6833 105.78C43.8533 106.22 44.1483 106.55 44.5683 106.77C44.9883 106.99 45.4833 107.1 46.0533 107.1C46.6433 107.1 47.0933 106.995 47.4033 106.785C47.7133 106.575 47.8683 106.31 47.8683 105.99C47.8683 105.7 47.7233 105.47 47.4333 105.3C47.1433 105.12 46.6333 104.965 45.9033 104.835C45.1833 104.705 44.6133 104.55 44.1933 104.37C43.7733 104.18 43.4683 103.945 43.2783 103.665C43.0883 103.375 42.9933 103.02 42.9933 102.6C42.9933 102.19 43.1133 101.815 43.3533 101.475C43.5933 101.135 43.9383 100.865 44.3883 100.665C44.8383 100.455 45.3583 100.35 45.9483 100.35C46.7483 100.35 47.3883 100.5 47.8683 100.8C48.3583 101.09 48.7083 101.54 48.9183 102.15L47.8983 102.75C47.7383 102.27 47.4933 101.925 47.1633 101.715C46.8433 101.505 46.4383 101.4 45.9483 101.4C45.4583 101.4 45.0433 101.51 44.7033 101.73C44.3633 101.95 44.1933 102.205 44.1933 102.495C44.1933 102.825 44.3383 103.08 44.6283 103.26C44.9283 103.44 45.4583 103.595 46.2183 103.725C47.2583 103.895 47.9933 104.15 48.4233 104.49C48.8533 104.83 49.0683 105.31 49.0683 105.93C49.0683 106.36 48.9383 106.745 48.6783 107.085C48.4283 107.415 48.0633 107.675 47.5833 107.865C47.1133 108.055 46.5633 108.15 45.9333 108.15Z" fill="black"/>
<path d="M2.82 157.225V160.42H7.29V161.545H2.82V166H1.62V156.1H8.55V157.225H2.82ZM13.195 158.35C14.325 158.35 15.21 158.695 15.85 159.385C16.5 160.075 16.825 161.03 16.825 162.25C16.825 163.47 16.5 164.425 15.85 165.115C15.21 165.805 14.325 166.15 13.195 166.15C12.065 166.15 11.175 165.805 10.525 165.115C9.88496 164.425 9.56496 163.47 9.56496 162.25C9.56496 161.03 9.88496 160.075 10.525 159.385C11.175 158.695 12.065 158.35 13.195 158.35ZM13.195 159.385C12.435 159.385 11.84 159.64 11.41 160.15C10.98 160.66 10.765 161.36 10.765 162.25C10.765 163.14 10.98 163.84 11.41 164.35C11.84 164.86 12.435 165.115 13.195 165.115C13.955 165.115 14.55 164.86 14.98 164.35C15.41 163.84 15.625 163.14 15.625 162.25C15.625 161.36 15.41 160.66 14.98 160.15C14.55 159.64 13.955 159.385 13.195 159.385ZM22.6209 158.35C23.7509 158.35 24.6359 158.695 25.2759 159.385C25.9259 160.075 26.2509 161.03 26.2509 162.25C26.2509 163.47 25.9259 164.425 25.2759 165.115C24.6359 165.805 23.7509 166.15 22.6209 166.15C21.4909 166.15 20.6009 165.805 19.9509 165.115C19.3109 164.425 18.9909 163.47 18.9909 162.25C18.9909 161.03 19.3109 160.075 19.9509 159.385C20.6009 158.695 21.4909 158.35 22.6209 158.35ZM22.6209 159.385C21.8609 159.385 21.2659 159.64 20.8359 160.15C20.4059 160.66 20.1909 161.36 20.1909 162.25C20.1909 163.14 20.4059 163.84 20.8359 164.35C21.2659 164.86 21.8609 165.115 22.6209 165.115C23.3809 165.115 23.9759 164.86 24.4059 164.35C24.8359 163.84 25.0509 163.14 25.0509 162.25C25.0509 161.36 24.8359 160.66 24.4059 160.15C23.9759 159.64 23.3809 159.385 22.6209 159.385ZM35.5419 155.05V166H34.4919L34.4169 164.695C34.1969 165.135 33.8569 165.49 33.3969 165.76C32.9469 166.02 32.4319 166.15 31.8519 166.15C30.8019 166.15 29.9669 165.805 29.3469 165.115C28.7369 164.415 28.4319 163.46 28.4319 162.25C28.4319 161.04 28.7369 160.09 29.3469 159.4C29.9669 158.7 30.8019 158.35 31.8519 158.35C32.4019 158.35 32.8919 158.47 33.3219 158.71C33.7619 158.95 34.1019 159.27 34.3419 159.67V155.05H35.5419ZM31.9869 165.1C32.7069 165.1 33.2769 164.85 33.6969 164.35C34.1269 163.85 34.3419 163.18 34.3419 162.34V162.16C34.3419 161.32 34.1269 160.65 33.6969 160.15C33.2769 159.65 32.7069 159.4 31.9869 159.4C31.2569 159.4 30.6819 159.66 30.2619 160.18C29.8419 160.69 29.6319 161.38 29.6319 162.25C29.6319 163.12 29.8419 163.815 30.2619 164.335C30.6819 164.845 31.2569 165.1 31.9869 165.1ZM47.2075 158.35C48.3375 158.35 49.2225 158.695 49.8625 159.385C50.5125 160.075 50.8375 161.03 50.8375 162.25C50.8375 163.47 50.5125 164.425 49.8625 165.115C49.2225 165.805 48.3375 166.15 47.2075 166.15C46.0775 166.15 45.1875 165.805 44.5375 165.115C43.8975 164.425 43.5775 163.47 43.5775 162.25C43.5775 161.03 43.8975 160.075 44.5375 159.385C45.1875 158.695 46.0775 158.35 47.2075 158.35ZM47.2075 159.385C46.4475 159.385 45.8525 159.64 45.4225 160.15C44.9925 160.66 44.7775 161.36 44.7775 162.25C44.7775 163.14 44.9925 163.84 45.4225 164.35C45.8525 164.86 46.4475 165.115 47.2075 165.115C47.9675 165.115 48.5625 164.86 48.9925 164.35C49.4225 163.84 49.6375 163.14 49.6375 162.25C49.6375 161.36 49.4225 160.66 48.9925 160.15C48.5625 159.64 47.9675 159.385 47.2075 159.385ZM57.1584 158.35C58.2084 158.35 59.0384 158.7 59.6484 159.4C60.2684 160.09 60.5784 161.04 60.5784 162.25C60.5784 163.46 60.2684 164.415 59.6484 165.115C59.0384 165.805 58.2084 166.15 57.1584 166.15C56.6084 166.15 56.1134 166.03 55.6734 165.79C55.2434 165.55 54.9084 165.23 54.6684 164.83V169.15H53.4684V158.5H54.5184L54.5934 159.805C54.8134 159.365 55.1484 159.015 55.5984 158.755C56.0584 158.485 56.5784 158.35 57.1584 158.35ZM57.0234 165.1C57.7534 165.1 58.3284 164.845 58.7484 164.335C59.1684 163.815 59.3784 163.12 59.3784 162.25C59.3784 161.38 59.1684 160.69 58.7484 160.18C58.3284 159.66 57.7534 159.4 57.0234 159.4C56.3034 159.4 55.7284 159.65 55.2984 160.15C54.8784 160.65 54.6684 161.32 54.6684 162.16V162.34C54.6684 163.18 54.8784 163.85 55.2984 164.35C55.7284 164.85 56.3034 165.1 57.0234 165.1ZM67.6748 165.475C67.1748 165.925 66.5298 166.15 65.7398 166.15C65.1298 166.15 64.6298 165.985 64.2398 165.655C63.8598 165.325 63.6648 164.82 63.6548 164.14V159.535H62.1548V158.5H63.6548V156.7L64.8548 156.37V158.5H67.6298V159.535H64.8548V163.93C64.8548 164.29 64.9548 164.565 65.1548 164.755C65.3648 164.935 65.6398 165.025 65.9798 165.025C66.4598 165.025 66.8848 164.84 67.2548 164.47L67.6748 165.475ZM70.269 157.06C69.999 157.06 69.779 156.98 69.609 156.82C69.449 156.65 69.369 156.43 69.369 156.16C69.369 155.89 69.449 155.675 69.609 155.515C69.779 155.345 69.999 155.26 70.269 155.26C70.539 155.26 70.754 155.345 70.914 155.515C71.084 155.675 71.169 155.89 71.169 156.16C71.169 156.43 71.084 156.65 70.914 156.82C70.754 156.98 70.539 157.06 70.269 157.06ZM70.869 166H69.669V158.5H70.869V166ZM77.1184 158.35C78.2484 158.35 79.1334 158.695 79.7734 159.385C80.4234 160.075 80.7484 161.03 80.7484 162.25C80.7484 163.47 80.4234 164.425 79.7734 165.115C79.1334 165.805 78.2484 166.15 77.1184 166.15C75.9884 166.15 75.0984 165.805 74.4484 165.115C73.8084 164.425 73.4884 163.47 73.4884 162.25C73.4884 161.03 73.8084 160.075 74.4484 159.385C75.0984 158.695 75.9884 158.35 77.1184 158.35ZM77.1184 159.385C76.3584 159.385 75.7634 159.64 75.3334 160.15C74.9034 160.66 74.6884 161.36 74.6884 162.25C74.6884 163.14 74.9034 163.84 75.3334 164.35C75.7634 164.86 76.3584 165.115 77.1184 165.115C77.8784 165.115 78.4734 164.86 78.9034 164.35C79.3334 163.84 79.5484 163.14 79.5484 162.25C79.5484 161.36 79.3334 160.66 78.9034 160.15C78.4734 159.64 77.8784 159.385 77.1184 159.385ZM87.0244 158.35C87.8744 158.35 88.5744 158.595 89.1244 159.085C89.6744 159.575 89.9494 160.28 89.9494 161.2V166H88.7494V161.62C88.7494 160.84 88.5794 160.275 88.2394 159.925C87.9094 159.575 87.4644 159.4 86.9044 159.4C86.5044 159.4 86.1294 159.49 85.7794 159.67C85.4294 159.84 85.1394 160.125 84.9094 160.525C84.6894 160.915 84.5794 161.41 84.5794 162.01V166H83.3794V158.5H84.4294L84.5044 159.67C84.7544 159.22 85.0994 158.89 85.5394 158.68C85.9794 158.46 86.4744 158.35 87.0244 158.35ZM95.5165 166.15C94.7965 166.15 94.1465 166.01 93.5665 165.73C92.9865 165.44 92.5615 165.015 92.2915 164.455L93.2665 163.78C93.4365 164.22 93.7315 164.55 94.1515 164.77C94.5715 164.99 95.0665 165.1 95.6365 165.1C96.2265 165.1 96.6765 164.995 96.9865 164.785C97.2965 164.575 97.4515 164.31 97.4515 163.99C97.4515 163.7 97.3065 163.47 97.0165 163.3C96.7265 163.12 96.2165 162.965 95.4865 162.835C94.7665 162.705 94.1965 162.55 93.7765 162.37C93.3565 162.18 93.0515 161.945 92.8615 161.665C92.6715 161.375 92.5765 161.02 92.5765 160.6C92.5765 160.19 92.6965 159.815 92.9365 159.475C93.1765 159.135 93.5215 158.865 93.9715 158.665C94.4215 158.455 94.9415 158.35 95.5315 158.35C96.3315 158.35 96.9715 158.5 97.4515 158.8C97.9415 159.09 98.2915 159.54 98.5015 160.15L97.4815 160.75C97.3215 160.27 97.0765 159.925 96.7465 159.715C96.4265 159.505 96.0215 159.4 95.5315 159.4C95.0415 159.4 94.6265 159.51 94.2865 159.73C93.9465 159.95 93.7765 160.205 93.7765 160.495C93.7765 160.825 93.9215 161.08 94.2115 161.26C94.5115 161.44 95.0415 161.595 95.8015 161.725C96.8415 161.895 97.5765 162.15 98.0065 162.49C98.4365 162.83 98.6515 163.31 98.6515 163.93C98.6515 164.36 98.5215 164.745 98.2615 165.085C98.0115 165.415 97.6465 165.675 97.1665 165.865C96.6965 166.055 96.1465 166.15 95.5165 166.15Z" fill="black"/>
<path d="M8.49 223.875V225H1.62V215.1H2.82V223.875H8.49ZM16.8751 220.86C16.8751 221.14 16.8551 221.42 16.8151 221.7H11.1601C11.2301 222.46 11.4801 223.05 11.9101 223.47C12.3501 223.89 12.9151 224.1 13.6051 224.1C14.1551 224.1 14.6101 224.005 14.9701 223.815C15.3401 223.625 15.5901 223.35 15.7201 222.99L16.7251 223.515C16.4251 224.045 16.0251 224.45 15.5251 224.73C15.0251 225.01 14.3851 225.15 13.6051 225.15C12.4751 225.15 11.5851 224.805 10.9351 224.115C10.2951 223.425 9.97512 222.47 9.97512 221.25C9.97512 220.03 10.2801 219.075 10.8901 218.385C11.5101 217.695 12.3851 217.35 13.5151 217.35C14.2151 217.35 14.8201 217.505 15.3301 217.815C15.8401 218.125 16.2251 218.545 16.4851 219.075C16.7451 219.605 16.8751 220.2 16.8751 220.86ZM13.5151 218.4C12.8551 218.4 12.3201 218.595 11.9101 218.985C11.5101 219.375 11.2651 219.925 11.1751 220.635H15.7201C15.6401 219.935 15.4101 219.39 15.0301 219C14.6501 218.6 14.1451 218.4 13.5151 218.4ZM25.6059 224.13C25.8059 224.13 26.0059 224.105 26.2059 224.055L26.1309 225C25.8509 225.1 25.5509 225.15 25.2309 225.15C24.8409 225.15 24.5309 225.065 24.3009 224.895C24.0809 224.725 23.9409 224.44 23.8809 224.04C23.6509 224.39 23.3109 224.665 22.8609 224.865C22.4209 225.055 21.9559 225.15 21.4659 225.15C20.7259 225.15 20.1159 224.98 19.6359 224.64C19.1559 224.29 18.9159 223.79 18.9159 223.14C18.9159 222.57 19.1659 222.08 19.6659 221.67C20.1659 221.25 20.8909 220.96 21.8409 220.8L23.8359 220.47V220.05C23.8359 219.55 23.6809 219.15 23.3709 218.85C23.0609 218.55 22.6309 218.4 22.0809 218.4C21.5809 218.4 21.1459 218.52 20.7759 218.76C20.4159 219 20.1359 219.355 19.9359 219.825L19.0509 219.18C19.2509 218.62 19.6209 218.175 20.1609 217.845C20.7109 217.515 21.3509 217.35 22.0809 217.35C22.9709 217.35 23.6859 217.565 24.2259 217.995C24.7659 218.425 25.0359 219.06 25.0359 219.9V223.59C25.0359 223.77 25.0809 223.905 25.1709 223.995C25.2609 224.085 25.4059 224.13 25.6059 224.13ZM21.5259 224.1C22.1559 224.1 22.6959 223.95 23.1459 223.65C23.6059 223.35 23.8359 222.96 23.8359 222.48V221.445L22.1559 221.76C21.4859 221.88 20.9859 222.055 20.6559 222.285C20.3259 222.505 20.1609 222.79 20.1609 223.14C20.1609 223.45 20.2809 223.69 20.5209 223.86C20.7609 224.02 21.0959 224.1 21.5259 224.1ZM31.792 217.35C32.152 217.35 32.427 217.4 32.617 217.5L32.377 218.67C32.137 218.54 31.822 218.475 31.432 218.475C31.112 218.475 30.797 218.57 30.487 218.76C30.187 218.94 29.937 219.22 29.737 219.6C29.547 219.97 29.452 220.42 29.452 220.95V225H28.252V217.5H29.227L29.392 218.73C29.812 217.81 30.612 217.35 31.792 217.35ZM38.3201 217.35C39.1701 217.35 39.8701 217.595 40.4201 218.085C40.9701 218.575 41.2451 219.28 41.2451 220.2V225H40.0451V220.62C40.0451 219.84 39.8751 219.275 39.5351 218.925C39.2051 218.575 38.7601 218.4 38.2001 218.4C37.8001 218.4 37.4251 218.49 37.0751 218.67C36.7251 218.84 36.4351 219.125 36.2051 219.525C35.9851 219.915 35.8751 220.41 35.8751 221.01V225H34.6751V217.5H35.7251L35.8001 218.67C36.0501 218.22 36.3951 217.89 36.8351 217.68C37.2751 217.46 37.7701 217.35 38.3201 217.35ZM55.8245 224.13C56.0245 224.13 56.2245 224.105 56.4245 224.055L56.3495 225C56.0695 225.1 55.7695 225.15 55.4495 225.15C55.0595 225.15 54.7495 225.065 54.5195 224.895C54.2995 224.725 54.1595 224.44 54.0995 224.04C53.8695 224.39 53.5295 224.665 53.0795 224.865C52.6395 225.055 52.1745 225.15 51.6845 225.15C50.9445 225.15 50.3345 224.98 49.8545 224.64C49.3745 224.29 49.1345 223.79 49.1345 223.14C49.1345 222.57 49.3845 222.08 49.8845 221.67C50.3845 221.25 51.1095 220.96 52.0595 220.8L54.0545 220.47V220.05C54.0545 219.55 53.8995 219.15 53.5895 218.85C53.2795 218.55 52.8495 218.4 52.2995 218.4C51.7995 218.4 51.3645 218.52 50.9945 218.76C50.6345 219 50.3545 219.355 50.1545 219.825L49.2695 219.18C49.4695 218.62 49.8395 218.175 50.3795 217.845C50.9295 217.515 51.5695 217.35 52.2995 217.35C53.1895 217.35 53.9045 217.565 54.4445 217.995C54.9845 218.425 55.2545 219.06 55.2545 219.9V223.59C55.2545 223.77 55.2995 223.905 55.3895 223.995C55.4795 224.085 55.6245 224.13 55.8245 224.13ZM51.7445 224.1C52.3745 224.1 52.9145 223.95 53.3645 223.65C53.8245 223.35 54.0545 222.96 54.0545 222.48V221.445L52.3745 221.76C51.7045 221.88 51.2045 222.055 50.8745 222.285C50.5445 222.505 50.3795 222.79 50.3795 223.14C50.3795 223.45 50.4995 223.69 50.7395 223.86C50.9795 224.02 51.3145 224.1 51.7445 224.1ZM62.1606 217.35C63.2106 217.35 64.0406 217.7 64.6506 218.4C65.2706 219.09 65.5806 220.04 65.5806 221.25C65.5806 222.46 65.2706 223.415 64.6506 224.115C64.0406 224.805 63.2106 225.15 62.1606 225.15C61.5806 225.15 61.0606 225.02 60.6006 224.76C60.1506 224.49 59.8156 224.135 59.5956 223.695L59.5206 225H58.4706V214.05H59.6706V218.67C59.9106 218.27 60.2456 217.95 60.6756 217.71C61.1156 217.47 61.6106 217.35 62.1606 217.35ZM62.0256 224.1C62.7556 224.1 63.3306 223.845 63.7506 223.335C64.1706 222.815 64.3806 222.12 64.3806 221.25C64.3806 220.38 64.1706 219.69 63.7506 219.18C63.3306 218.66 62.7556 218.4 62.0256 218.4C61.3056 218.4 60.7306 218.65 60.3006 219.15C59.8806 219.65 59.6706 220.32 59.6706 221.16V221.34C59.6706 222.18 59.8806 222.85 60.3006 223.35C60.7306 223.85 61.3056 224.1 62.0256 224.1ZM71.3838 217.35C72.5138 217.35 73.3988 217.695 74.0388 218.385C74.6888 219.075 75.0138 220.03 75.0138 221.25C75.0138 222.47 74.6888 223.425 74.0388 224.115C73.3988 224.805 72.5138 225.15 71.3838 225.15C70.2538 225.15 69.3638 224.805 68.7138 224.115C68.0738 223.425 67.7538 222.47 67.7538 221.25C67.7538 220.03 68.0738 219.075 68.7138 218.385C69.3638 217.695 70.2538 217.35 71.3838 217.35ZM71.3838 218.385C70.6238 218.385 70.0288 218.64 69.5988 219.15C69.1688 219.66 68.9538 220.36 68.9538 221.25C68.9538 222.14 69.1688 222.84 69.5988 223.35C70.0288 223.86 70.6238 224.115 71.3838 224.115C72.1438 224.115 72.7388 223.86 73.1688 223.35C73.5988 222.84 73.8138 222.14 73.8138 221.25C73.8138 220.36 73.5988 219.66 73.1688 219.15C72.7388 218.64 72.1438 218.385 71.3838 218.385ZM84.1398 217.5V225H83.0898L83.0148 223.86C82.5148 224.72 81.6198 225.15 80.3298 225.15C79.5198 225.15 78.8548 224.925 78.3348 224.475C77.8248 224.025 77.5698 223.335 77.5698 222.405V217.5H78.7698V222.09C78.7698 222.82 78.9198 223.34 79.2198 223.65C79.5198 223.95 79.9598 224.1 80.5398 224.1C81.2298 224.1 81.7998 223.89 82.2498 223.47C82.7098 223.05 82.9398 222.42 82.9398 221.58V217.5H84.1398ZM91.8219 224.475C91.3219 224.925 90.6769 225.15 89.8869 225.15C89.2769 225.15 88.7769 224.985 88.3869 224.655C88.0069 224.325 87.8119 223.82 87.8019 223.14V218.535H86.3019V217.5H87.8019V215.7L89.0019 215.37V217.5H91.7769V218.535H89.0019V222.93C89.0019 223.29 89.1019 223.565 89.3019 223.755C89.5119 223.935 89.7869 224.025 90.1269 224.025C90.6069 224.025 91.0319 223.84 91.4019 223.47L91.8219 224.475ZM5.085 235.35C6.135 235.35 6.965 235.7 7.575 236.4C8.195 237.09 8.505 238.04 8.505 239.25C8.505 240.46 8.195 241.415 7.575 242.115C6.965 242.805 6.135 243.15 5.085 243.15C4.505 243.15 3.985 243.02 3.525 242.76C3.075 242.49 2.74 242.135 2.52 241.695L2.445 243H1.395V232.05H2.595V236.67C2.835 236.27 3.17 235.95 3.6 235.71C4.04 235.47 4.535 235.35 5.085 235.35ZM4.95 242.1C5.68 242.1 6.255 241.845 6.675 241.335C7.095 240.815 7.305 240.12 7.305 239.25C7.305 238.38 7.095 237.69 6.675 237.18C6.255 236.66 5.68 236.4 4.95 236.4C4.23 236.4 3.655 236.65 3.225 237.15C2.805 237.65 2.595 238.32 2.595 239.16V239.34C2.595 240.18 2.805 240.85 3.225 241.35C3.655 241.85 4.23 242.1 4.95 242.1ZM14.6832 235.35C15.0432 235.35 15.3182 235.4 15.5082 235.5L15.2682 236.67C15.0282 236.54 14.7132 236.475 14.3232 236.475C14.0032 236.475 13.6882 236.57 13.3782 236.76C13.0782 236.94 12.8282 237.22 12.6282 237.6C12.4382 237.97 12.3432 238.42 12.3432 238.95V243H11.1432V235.5H12.1182L12.2832 236.73C12.7032 235.81 13.5032 235.35 14.6832 235.35ZM23.7669 238.86C23.7669 239.14 23.7469 239.42 23.7069 239.7H18.0519C18.1219 240.46 18.3719 241.05 18.8019 241.47C19.2419 241.89 19.8069 242.1 20.4969 242.1C21.0469 242.1 21.5019 242.005 21.8619 241.815C22.2319 241.625 22.4819 241.35 22.6119 240.99L23.6169 241.515C23.3169 242.045 22.9169 242.45 22.4169 242.73C21.9169 243.01 21.2769 243.15 20.4969 243.15C19.3669 243.15 18.4769 242.805 17.8269 242.115C17.1869 241.425 16.8669 240.47 16.8669 239.25C16.8669 238.03 17.1719 237.075 17.7819 236.385C18.4019 235.695 19.2769 235.35 20.4069 235.35C21.1069 235.35 21.7119 235.505 22.2219 235.815C22.7319 236.125 23.1169 236.545 23.3769 237.075C23.6369 237.605 23.7669 238.2 23.7669 238.86ZM20.4069 236.4C19.7469 236.4 19.2119 236.595 18.8019 236.985C18.4019 237.375 18.1569 237.925 18.0669 238.635H22.6119C22.5319 237.935 22.3019 237.39 21.9219 237C21.5419 236.6 21.0369 236.4 20.4069 236.4ZM37.062 235.5L34.452 243H33.252L31.137 237.03L29.142 243H27.942L25.332 235.5H26.667L28.557 241.605L30.597 235.5H31.797L33.837 241.605L35.727 235.5H37.062ZM45.5193 238.86C45.5193 239.14 45.4993 239.42 45.4593 239.7H39.8043C39.8743 240.46 40.1243 241.05 40.5543 241.47C40.9943 241.89 41.5593 242.1 42.2493 242.1C42.7993 242.1 43.2543 242.005 43.6143 241.815C43.9843 241.625 44.2343 241.35 44.3643 240.99L45.3693 241.515C45.0693 242.045 44.6693 242.45 44.1693 242.73C43.6693 243.01 43.0293 243.15 42.2493 243.15C41.1193 243.15 40.2293 242.805 39.5793 242.115C38.9393 241.425 38.6193 240.47 38.6193 239.25C38.6193 238.03 38.9243 237.075 39.5343 236.385C40.1543 235.695 41.0293 235.35 42.1593 235.35C42.8593 235.35 43.4643 235.505 43.9743 235.815C44.4843 236.125 44.8693 236.545 45.1293 237.075C45.3893 237.605 45.5193 238.2 45.5193 238.86ZM42.1593 236.4C41.4993 236.4 40.9643 236.595 40.5543 236.985C40.1543 237.375 39.9093 237.925 39.8193 238.635H44.3643C44.2843 237.935 44.0543 237.39 43.6743 237C43.2943 236.6 42.7893 236.4 42.1593 236.4ZM51.6401 235.35C52.0001 235.35 52.2751 235.4 52.4651 235.5L52.2251 236.67C51.9851 236.54 51.6701 236.475 51.2801 236.475C50.9601 236.475 50.6451 236.57 50.3351 236.76C50.0351 236.94 49.7851 237.22 49.5851 237.6C49.3951 237.97 49.3001 238.42 49.3001 238.95V243H48.1001V235.5H49.0751L49.2401 236.73C49.6601 235.81 50.4601 235.35 51.6401 235.35ZM57.3731 244.26C57.0831 244.98 56.7581 245.485 56.3981 245.775C56.0381 246.075 55.5731 246.225 55.0031 246.225C54.6231 246.225 54.3031 246.175 54.0431 246.075C53.7931 245.975 53.5631 245.815 53.3531 245.595L53.7731 244.575C54.0631 244.975 54.4681 245.175 54.9881 245.175C55.2781 245.175 55.5331 245.085 55.7531 244.905C55.9831 244.735 56.1831 244.42 56.3531 243.96L56.7431 242.985L53.6081 235.5H54.9731L56.8481 240.39L57.3131 241.725L57.8531 240.24L59.6081 235.5H60.8981L57.3731 244.26Z" fill="black"/>
<path d="M9.6 289.465C9.29 290.305 8.78 290.965 8.07 291.445C7.36 291.915 6.54 292.15 5.61 292.15C4.68 292.15 3.87 291.945 3.18 291.535C2.49 291.115 1.955 290.525 1.575 289.765C1.205 288.995 1.02 288.09 1.02 287.05C1.02 286.02 1.205 285.12 1.575 284.35C1.955 283.58 2.49 282.99 3.18 282.58C3.87 282.16 4.67 281.95 5.58 281.95C6.53 281.95 7.325 282.145 7.965 282.535C8.615 282.925 9.1 283.5 9.42 284.26L8.235 284.815C8.015 284.235 7.695 283.8 7.275 283.51C6.855 283.22 6.32 283.075 5.67 283.075C4.99 283.075 4.395 283.235 3.885 283.555C3.375 283.865 2.98 284.32 2.7 284.92C2.42 285.52 2.28 286.23 2.28 287.05C2.28 288.29 2.575 289.265 3.165 289.975C3.765 290.675 4.58 291.025 5.61 291.025C6.28 291.025 6.86 290.855 7.35 290.515C7.84 290.175 8.19 289.675 8.4 289.015L9.6 289.465ZM15.1432 284.35C16.2732 284.35 17.1582 284.695 17.7982 285.385C18.4482 286.075 18.7732 287.03 18.7732 288.25C18.7732 289.47 18.4482 290.425 17.7982 291.115C17.1582 291.805 16.2732 292.15 15.1432 292.15C14.0132 292.15 13.1232 291.805 12.4732 291.115C11.8332 290.425 11.5132 289.47 11.5132 288.25C11.5132 287.03 11.8332 286.075 12.4732 285.385C13.1232 284.695 14.0132 284.35 15.1432 284.35ZM15.1432 285.385C14.3832 285.385 13.7882 285.64 13.3582 286.15C12.9282 286.66 12.7132 287.36 12.7132 288.25C12.7132 289.14 12.9282 289.84 13.3582 290.35C13.7882 290.86 14.3832 291.115 15.1432 291.115C15.9032 291.115 16.4982 290.86 16.9282 290.35C17.3582 289.84 17.5732 289.14 17.5732 288.25C17.5732 287.36 17.3582 286.66 16.9282 286.15C16.4982 285.64 15.9032 285.385 15.1432 285.385ZM25.0492 284.35C25.8992 284.35 26.5992 284.595 27.1492 285.085C27.6992 285.575 27.9742 286.28 27.9742 287.2V292H26.7742V287.62C26.7742 286.84 26.6042 286.275 26.2642 285.925C25.9342 285.575 25.4892 285.4 24.9292 285.4C24.5292 285.4 24.1542 285.49 23.8042 285.67C23.4542 285.84 23.1642 286.125 22.9342 286.525C22.7142 286.915 22.6042 287.41 22.6042 288.01V292H21.4042V284.5H22.4542L22.5292 285.67C22.7792 285.22 23.1242 284.89 23.5642 284.68C24.0042 284.46 24.4992 284.35 25.0492 284.35ZM35.4787 291.475C34.9787 291.925 34.3337 292.15 33.5437 292.15C32.9337 292.15 32.4337 291.985 32.0437 291.655C31.6637 291.325 31.4687 290.82 31.4587 290.14V285.535H29.9587V284.5H31.4587V282.7L32.6587 282.37V284.5H35.4338V285.535H32.6587V289.93C32.6587 290.29 32.7587 290.565 32.9587 290.755C33.1687 290.935 33.4437 291.025 33.7837 291.025C34.2637 291.025 34.6887 290.84 35.0587 290.47L35.4787 291.475ZM43.6229 291.13C43.8229 291.13 44.0229 291.105 44.2229 291.055L44.1479 292C43.8679 292.1 43.5679 292.15 43.2479 292.15C42.8579 292.15 42.5479 292.065 42.3179 291.895C42.0979 291.725 41.9579 291.44 41.8979 291.04C41.6679 291.39 41.3279 291.665 40.8779 291.865C40.4379 292.055 39.9729 292.15 39.4829 292.15C38.7429 292.15 38.1329 291.98 37.6529 291.64C37.1729 291.29 36.9329 290.79 36.9329 290.14C36.9329 289.57 37.1829 289.08 37.6829 288.67C38.1829 288.25 38.9079 287.96 39.8579 287.8L41.8529 287.47V287.05C41.8529 286.55 41.6979 286.15 41.3879 285.85C41.0779 285.55 40.6479 285.4 40.0979 285.4C39.5979 285.4 39.1629 285.52 38.7929 285.76C38.4329 286 38.1529 286.355 37.9529 286.825L37.0679 286.18C37.2679 285.62 37.6379 285.175 38.1779 284.845C38.7279 284.515 39.3679 284.35 40.0979 284.35C40.9879 284.35 41.7029 284.565 42.2429 284.995C42.7829 285.425 43.0529 286.06 43.0529 286.9V290.59C43.0529 290.77 43.0979 290.905 43.1879 290.995C43.2779 291.085 43.4229 291.13 43.6229 291.13ZM39.5429 291.1C40.1729 291.1 40.7129 290.95 41.1629 290.65C41.6229 290.35 41.8529 289.96 41.8529 289.48V288.445L40.1729 288.76C39.5029 288.88 39.0029 289.055 38.6729 289.285C38.3429 289.505 38.1779 289.79 38.1779 290.14C38.1779 290.45 38.2979 290.69 38.5379 290.86C38.7779 291.02 39.1129 291.1 39.5429 291.1ZM49.434 284.35C50.184 284.35 50.814 284.525 51.324 284.875C51.844 285.215 52.249 285.705 52.539 286.345L51.399 286.885C51.079 285.895 50.414 285.4 49.404 285.4C48.654 285.4 48.064 285.655 47.634 286.165C47.214 286.665 47.004 287.36 47.004 288.25C47.004 289.14 47.214 289.84 47.634 290.35C48.064 290.85 48.654 291.1 49.404 291.1C49.984 291.1 50.449 290.97 50.799 290.71C51.159 290.44 51.394 290.055 51.504 289.555L52.614 289.945C52.354 290.645 51.954 291.19 51.414 291.58C50.874 291.96 50.214 292.15 49.434 292.15C48.304 292.15 47.414 291.805 46.764 291.115C46.124 290.425 45.804 289.47 45.804 288.25C45.804 287.03 46.124 286.075 46.764 285.385C47.414 284.695 48.304 284.35 49.434 284.35ZM59.6258 291.475C59.1258 291.925 58.4808 292.15 57.6908 292.15C57.0808 292.15 56.5808 291.985 56.1908 291.655C55.8108 291.325 55.6158 290.82 55.6058 290.14V285.535H54.1058V284.5H55.6058V282.7L56.8058 282.37V284.5H59.5808V285.535H56.8058V289.93C56.8058 290.29 56.9058 290.565 57.1058 290.755C57.3158 290.935 57.5908 291.025 57.9308 291.025C58.4108 291.025 58.8358 290.84 59.2058 290.47L59.6258 291.475ZM5.085 302.35C6.135 302.35 6.965 302.7 7.575 303.4C8.195 304.09 8.505 305.04 8.505 306.25C8.505 307.46 8.195 308.415 7.575 309.115C6.965 309.805 6.135 310.15 5.085 310.15C4.505 310.15 3.985 310.02 3.525 309.76C3.075 309.49 2.74 309.135 2.52 308.695L2.445 310H1.395V299.05H2.595V303.67C2.835 303.27 3.17 302.95 3.6 302.71C4.04 302.47 4.535 302.35 5.085 302.35ZM4.95 309.1C5.68 309.1 6.255 308.845 6.675 308.335C7.095 307.815 7.305 307.12 7.305 306.25C7.305 305.38 7.095 304.69 6.675 304.18C6.255 303.66 5.68 303.4 4.95 303.4C4.23 303.4 3.655 303.65 3.225 304.15C2.805 304.65 2.595 305.32 2.595 306.16V306.34C2.595 307.18 2.805 307.85 3.225 308.35C3.655 308.85 4.23 309.1 4.95 309.1ZM14.6832 302.35C15.0432 302.35 15.3182 302.4 15.5082 302.5L15.2682 303.67C15.0282 303.54 14.7132 303.475 14.3232 303.475C14.0032 303.475 13.6882 303.57 13.3782 303.76C13.0782 303.94 12.8282 304.22 12.6282 304.6C12.4382 304.97 12.3432 305.42 12.3432 305.95V310H11.1432V302.5H12.1182L12.2832 303.73C12.7032 302.81 13.5032 302.35 14.6832 302.35ZM23.7669 305.86C23.7669 306.14 23.7469 306.42 23.7069 306.7H18.0519C18.1219 307.46 18.3719 308.05 18.8019 308.47C19.2419 308.89 19.8069 309.1 20.4969 309.1C21.0469 309.1 21.5019 309.005 21.8619 308.815C22.2319 308.625 22.4819 308.35 22.6119 307.99L23.6169 308.515C23.3169 309.045 22.9169 309.45 22.4169 309.73C21.9169 310.01 21.2769 310.15 20.4969 310.15C19.3669 310.15 18.4769 309.805 17.8269 309.115C17.1869 308.425 16.8669 307.47 16.8669 306.25C16.8669 305.03 17.1719 304.075 17.7819 303.385C18.4019 302.695 19.2769 302.35 20.4069 302.35C21.1069 302.35 21.7119 302.505 22.2219 302.815C22.7319 303.125 23.1169 303.545 23.3769 304.075C23.6369 304.605 23.7669 305.2 23.7669 305.86ZM20.4069 303.4C19.7469 303.4 19.2119 303.595 18.8019 303.985C18.4019 304.375 18.1569 304.925 18.0669 305.635H22.6119C22.5319 304.935 22.3019 304.39 21.9219 304C21.5419 303.6 21.0369 303.4 20.4069 303.4ZM37.062 302.5L34.452 310H33.252L31.137 304.03L29.142 310H27.942L25.332 302.5H26.667L28.557 308.605L30.597 302.5H31.797L33.837 308.605L35.727 302.5H37.062ZM45.5193 305.86C45.5193 306.14 45.4993 306.42 45.4593 306.7H39.8043C39.8743 307.46 40.1243 308.05 40.5543 308.47C40.9943 308.89 41.5593 309.1 42.2493 309.1C42.7993 309.1 43.2543 309.005 43.6143 308.815C43.9843 308.625 44.2343 308.35 44.3643 307.99L45.3693 308.515C45.0693 309.045 44.6693 309.45 44.1693 309.73C43.6693 310.01 43.0293 310.15 42.2493 310.15C41.1193 310.15 40.2293 309.805 39.5793 309.115C38.9393 308.425 38.6193 307.47 38.6193 306.25C38.6193 305.03 38.9243 304.075 39.5343 303.385C40.1543 302.695 41.0293 302.35 42.1593 302.35C42.8593 302.35 43.4643 302.505 43.9743 302.815C44.4843 303.125 44.8693 303.545 45.1293 304.075C45.3893 304.605 45.5193 305.2 45.5193 305.86ZM42.1593 303.4C41.4993 303.4 40.9643 303.595 40.5543 303.985C40.1543 304.375 39.9093 304.925 39.8193 305.635H44.3643C44.2843 304.935 44.0543 304.39 43.6743 304C43.2943 303.6 42.7893 303.4 42.1593 303.4ZM51.6401 302.35C52.0001 302.35 52.2751 302.4 52.4651 302.5L52.2251 303.67C51.9851 303.54 51.6701 303.475 51.2801 303.475C50.9601 303.475 50.6451 303.57 50.3351 303.76C50.0351 303.94 49.7851 304.22 49.5851 304.6C49.3951 304.97 49.3001 305.42 49.3001 305.95V310H48.1001V302.5H49.0751L49.2401 303.73C49.6601 302.81 50.4601 302.35 51.6401 302.35ZM57.3731 311.26C57.0831 311.98 56.7581 312.485 56.3981 312.775C56.0381 313.075 55.5731 313.225 55.0031 313.225C54.6231 313.225 54.3031 313.175 54.0431 313.075C53.7931 312.975 53.5631 312.815 53.3531 312.595L53.7731 311.575C54.0631 311.975 54.4681 312.175 54.9881 312.175C55.2781 312.175 55.5331 312.085 55.7531 311.905C55.9831 311.735 56.1831 311.42 56.3531 310.96L56.7431 309.985L53.6081 302.5H54.9731L56.8481 307.39L57.3131 308.725L57.8531 307.24L59.6081 302.5H60.8981L57.3731 311.26Z" fill="black"/>
<rect x="118" y="51.1387" width="51.1387" height="222" transform="rotate(-90 118 51.1387)" fill="#2A3243"/>
<rect x="118" y="253.648" width="51.1387" height="112" transform="rotate(-90 118 253.648)" fill="#2A3243"/>
<rect x="118" y="118.642" width="51.1389" height="207" transform="rotate(-90 118 118.642)" fill="#2A3243"/>
<path d="M142.039 239.472H139.303V243H135.511V239.472H126.463V236.856L134.383 226.2H138.463L131.119 236.304H135.631V233.16H139.303V236.304H142.039V239.472ZM149.072 226.2V243H145.184V229.32H141.824V226.2H149.072ZM155.855 235.224C154.687 235.224 153.743 234.8 153.023 233.952C152.303 233.104 151.943 232 151.943 230.64C151.943 229.28 152.303 228.176 153.023 227.328C153.743 226.48 154.687 226.056 155.855 226.056C157.023 226.056 157.959 226.48 158.663 227.328C159.383 228.16 159.743 229.264 159.743 230.64C159.743 232.016 159.383 233.128 158.663 233.976C157.959 234.808 157.023 235.224 155.855 235.224ZM165.983 226.2H167.831L156.359 243H154.511L165.983 226.2ZM155.855 233.856C156.591 233.856 157.167 233.576 157.583 233.016C157.999 232.44 158.207 231.648 158.207 230.64C158.207 229.632 157.999 228.848 157.583 228.288C157.167 227.712 156.591 227.424 155.855 227.424C155.135 227.424 154.559 227.712 154.127 228.288C153.711 228.864 153.503 229.648 153.503 230.64C153.503 231.632 153.711 232.416 154.127 232.992C154.559 233.568 155.135 233.856 155.855 233.856ZM166.487 243.144C165.319 243.144 164.375 242.728 163.655 241.896C162.951 241.048 162.599 239.936 162.599 238.56C162.599 237.184 162.951 236.08 163.655 235.248C164.375 234.4 165.319 233.976 166.487 233.976C167.655 233.976 168.599 234.4 169.319 235.248C170.039 236.096 170.399 237.2 170.399 238.56C170.399 239.92 170.039 241.024 169.319 241.872C168.599 242.72 167.655 243.144 166.487 243.144ZM166.487 241.776C167.207 241.776 167.775 241.488 168.191 240.912C168.623 240.336 168.839 239.552 168.839 238.56C168.839 237.568 168.623 236.784 168.191 236.208C167.775 235.632 167.207 235.344 166.487 235.344C165.751 235.344 165.175 235.632 164.759 236.208C164.343 236.768 164.135 237.552 164.135 238.56C164.135 239.568 164.343 240.36 164.759 240.936C165.175 241.496 165.751 241.776 166.487 241.776Z" fill="white"/>
<rect x="118" y="321.139" width="51.1387" height="97" transform="rotate(-90 118 321.139)" fill="#2A3243"/>
<path d="M132.429 300.04C133.901 300.28 135.029 300.832 135.813 301.696C136.597 302.544 136.989 303.6 136.989 304.864C136.989 305.84 136.733 306.744 136.221 307.576C135.709 308.392 134.925 309.048 133.869 309.544C132.829 310.04 131.549 310.288 130.029 310.288C128.845 310.288 127.677 310.136 126.525 309.832C125.389 309.512 124.421 309.064 123.621 308.488L125.133 305.512C125.773 305.992 126.509 306.368 127.341 306.64C128.189 306.896 129.053 307.024 129.933 307.024C130.909 307.024 131.677 306.84 132.237 306.472C132.797 306.088 133.077 305.552 133.077 304.864C133.077 303.488 132.029 302.8 129.933 302.8H128.157V300.232L131.613 296.32H124.461V293.2H136.221V295.72L132.429 300.04ZM146.872 299.464C147.944 299.464 148.92 299.68 149.8 300.112C150.68 300.544 151.376 301.16 151.888 301.96C152.4 302.744 152.656 303.656 152.656 304.696C152.656 305.816 152.376 306.8 151.816 307.648C151.256 308.496 150.488 309.152 149.512 309.616C148.552 310.064 147.48 310.288 146.296 310.288C143.944 310.288 142.104 309.568 140.776 308.128C139.448 306.688 138.784 304.632 138.784 301.96C138.784 300.056 139.144 298.424 139.864 297.064C140.584 295.704 141.584 294.672 142.864 293.968C144.16 293.264 145.656 292.912 147.352 292.912C148.248 292.912 149.104 293.016 149.92 293.224C150.752 293.416 151.456 293.696 152.032 294.064L150.592 296.92C149.76 296.36 148.712 296.08 147.448 296.08C146.024 296.08 144.896 296.496 144.064 297.328C143.232 298.16 142.784 299.368 142.72 300.952C143.712 299.96 145.096 299.464 146.872 299.464ZM146.08 307.384C146.912 307.384 147.584 307.16 148.096 306.712C148.624 306.264 148.888 305.656 148.888 304.888C148.888 304.12 148.624 303.512 148.096 303.064C147.584 302.6 146.896 302.368 146.032 302.368C145.184 302.368 144.488 302.608 143.944 303.088C143.4 303.552 143.128 304.152 143.128 304.888C143.128 305.624 143.392 306.224 143.92 306.688C144.448 307.152 145.168 307.384 146.08 307.384ZM157.929 302.224C156.761 302.224 155.817 301.8 155.097 300.952C154.377 300.104 154.017 299 154.017 297.64C154.017 296.28 154.377 295.176 155.097 294.328C155.817 293.48 156.761 293.056 157.929 293.056C159.097 293.056 160.033 293.48 160.737 294.328C161.457 295.16 161.817 296.264 161.817 297.64C161.817 299.016 161.457 300.128 160.737 300.976C160.033 301.808 159.097 302.224 157.929 302.224ZM168.057 293.2H169.905L158.433 310H156.585L168.057 293.2ZM157.929 300.856C158.665 300.856 159.241 300.576 159.657 300.016C160.073 299.44 160.281 298.648 160.281 297.64C160.281 296.632 160.073 295.848 159.657 295.288C159.241 294.712 158.665 294.424 157.929 294.424C157.209 294.424 156.633 294.712 156.201 295.288C155.785 295.864 155.577 296.648 155.577 297.64C155.577 298.632 155.785 299.416 156.201 299.992C156.633 300.568 157.209 300.856 157.929 300.856ZM168.561 310.144C167.393 310.144 166.449 309.728 165.729 308.896C165.025 308.048 164.673 306.936 164.673 305.56C164.673 304.184 165.025 303.08 165.729 302.248C166.449 301.4 167.393 300.976 168.561 300.976C169.729 300.976 170.673 301.4 171.393 302.248C172.113 303.096 172.473 304.2 172.473 305.56C172.473 306.92 172.113 308.024 171.393 308.872C170.673 309.72 169.729 310.144 168.561 310.144ZM168.561 308.776C169.281 308.776 169.849 308.488 170.265 307.912C170.697 307.336 170.913 306.552 170.913 305.56C170.913 304.568 170.697 303.784 170.265 303.208C169.849 302.632 169.281 302.344 168.561 302.344C167.825 302.344 167.249 302.632 166.833 303.208C166.417 303.768 166.209 304.552 166.209 305.56C166.209 306.568 166.417 307.36 166.833 307.936C167.249 308.496 167.825 308.776 168.561 308.776Z" fill="white"/>
<rect x="118" y="186.145" width="51.1387" height="175" transform="rotate(-90 118 186.145)" fill="#2A3243"/>
<path d="M131.497 164.464C132.569 164.464 133.545 164.68 134.425 165.112C135.305 165.544 136.001 166.16 136.513 166.96C137.025 167.744 137.281 168.656 137.281 169.696C137.281 170.816 137.001 171.8 136.441 172.648C135.881 173.496 135.113 174.152 134.137 174.616C133.177 175.064 132.105 175.288 130.921 175.288C128.569 175.288 126.729 174.568 125.401 173.128C124.073 171.688 123.409 169.632 123.409 166.96C123.409 165.056 123.769 163.424 124.489 162.064C125.209 160.704 126.209 159.672 127.489 158.968C128.785 158.264 130.281 157.912 131.977 157.912C132.873 157.912 133.729 158.016 134.545 158.224C135.377 158.416 136.081 158.696 136.657 159.064L135.217 161.92C134.385 161.36 133.337 161.08 132.073 161.08C130.649 161.08 129.521 161.496 128.689 162.328C127.857 163.16 127.409 164.368 127.345 165.952C128.337 164.96 129.721 164.464 131.497 164.464ZM130.705 172.384C131.537 172.384 132.209 172.16 132.721 171.712C133.249 171.264 133.513 170.656 133.513 169.888C133.513 169.12 133.249 168.512 132.721 168.064C132.209 167.6 131.521 167.368 130.657 167.368C129.809 167.368 129.113 167.608 128.569 168.088C128.025 168.552 127.753 169.152 127.753 169.888C127.753 170.624 128.017 171.224 128.545 171.688C129.073 172.152 129.793 172.384 130.705 172.384ZM154.074 171.472H151.338V175H147.546V171.472H138.498V168.856L146.418 158.2H150.498L143.154 168.304H147.666V165.16H151.338V168.304H154.074V171.472ZM159.101 167.224C157.933 167.224 156.989 166.8 156.269 165.952C155.549 165.104 155.189 164 155.189 162.64C155.189 161.28 155.549 160.176 156.269 159.328C156.989 158.48 157.933 158.056 159.101 158.056C160.269 158.056 161.205 158.48 161.909 159.328C162.629 160.16 162.989 161.264 162.989 162.64C162.989 164.016 162.629 165.128 161.909 165.976C161.205 166.808 160.269 167.224 159.101 167.224ZM169.229 158.2H171.077L159.605 175H157.757L169.229 158.2ZM159.101 165.856C159.837 165.856 160.413 165.576 160.829 165.016C161.245 164.44 161.453 163.648 161.453 162.64C161.453 161.632 161.245 160.848 160.829 160.288C160.413 159.712 159.837 159.424 159.101 159.424C158.381 159.424 157.805 159.712 157.373 160.288C156.957 160.864 156.749 161.648 156.749 162.64C156.749 163.632 156.957 164.416 157.373 164.992C157.805 165.568 158.381 165.856 159.101 165.856ZM169.733 175.144C168.565 175.144 167.621 174.728 166.901 173.896C166.197 173.048 165.845 171.936 165.845 170.56C165.845 169.184 166.197 168.08 166.901 167.248C167.621 166.4 168.565 165.976 169.733 165.976C170.901 165.976 171.845 166.4 172.565 167.248C173.285 168.096 173.645 169.2 173.645 170.56C173.645 171.92 173.285 173.024 172.565 173.872C171.845 174.72 170.901 175.144 169.733 175.144ZM169.733 173.776C170.453 173.776 171.021 173.488 171.437 172.912C171.869 172.336 172.085 171.552 172.085 170.56C172.085 169.568 171.869 168.784 171.437 168.208C171.021 167.632 170.453 167.344 169.733 167.344C168.997 167.344 168.421 167.632 168.005 168.208C167.589 168.768 167.381 169.552 167.381 170.56C167.381 171.568 167.589 172.36 168.005 172.936C168.421 173.496 168.997 173.776 169.733 173.776Z" fill="white"/>
<path d="M137.592 91.0904V93.6104L131.352 107.89H127.128L133.152 94.2584H127.584V96.9944H124.128V91.0904H137.592ZM152.475 91.0904V93.6104L146.235 107.89H142.011L148.035 94.2584H142.467V96.9944H139.011V91.0904H152.475ZM158.07 100.114C156.902 100.114 155.958 99.6904 155.238 98.8424C154.518 97.9944 154.158 96.8904 154.158 95.5304C154.158 94.1704 154.518 93.0664 155.238 92.2184C155.958 91.3704 156.902 90.9464 158.07 90.9464C159.238 90.9464 160.174 91.3704 160.878 92.2184C161.598 93.0504 161.958 94.1544 161.958 95.5304C161.958 96.9064 161.598 98.0184 160.878 98.8664C160.174 99.6984 159.238 100.114 158.07 100.114ZM168.198 91.0904H170.046L158.574 107.89H156.726L168.198 91.0904ZM158.07 98.7464C158.806 98.7464 159.382 98.4664 159.798 97.9064C160.214 97.3304 160.422 96.5384 160.422 95.5304C160.422 94.5224 160.214 93.7384 159.798 93.1784C159.382 92.6024 158.806 92.3144 158.07 92.3144C157.35 92.3144 156.774 92.6024 156.342 93.1784C155.926 93.7544 155.718 94.5384 155.718 95.5304C155.718 96.5224 155.926 97.3064 156.342 97.8824C156.774 98.4584 157.35 98.7464 158.07 98.7464ZM168.702 108.034C167.534 108.034 166.59 107.618 165.87 106.786C165.166 105.938 164.814 104.826 164.814 103.45C164.814 102.074 165.166 100.97 165.87 100.138C166.59 99.2904 167.534 98.8664 168.702 98.8664C169.87 98.8664 170.814 99.2904 171.534 100.138C172.254 100.986 172.614 102.09 172.614 103.45C172.614 104.81 172.254 105.914 171.534 106.762C170.814 107.61 169.87 108.034 168.702 108.034ZM168.702 106.666C169.422 106.666 169.99 106.378 170.406 105.802C170.838 105.226 171.054 104.442 171.054 103.45C171.054 102.458 170.838 101.674 170.406 101.098C169.99 100.522 169.422 100.234 168.702 100.234C167.966 100.234 167.39 100.522 166.974 101.098C166.558 101.658 166.35 102.442 166.35 103.45C166.35 104.458 166.558 105.25 166.974 105.826C167.39 106.386 167.966 106.666 168.702 106.666Z" fill="white"/>
<path d="M136.319 31.5552C137.151 31.9712 137.783 32.5152 138.215 33.1872C138.663 33.8592 138.887 34.6352 138.887 35.5152C138.887 36.5552 138.591 37.4672 137.999 38.2512C137.407 39.0192 136.575 39.6192 135.503 40.0512C134.431 40.4672 133.191 40.6752 131.783 40.6752C130.375 40.6752 129.135 40.4672 128.063 40.0512C127.007 39.6192 126.183 39.0192 125.591 38.2512C125.015 37.4672 124.727 36.5552 124.727 35.5152C124.727 34.6352 124.943 33.8592 125.375 33.1872C125.823 32.5152 126.455 31.9712 127.271 31.5552C126.647 31.1712 126.167 30.6912 125.831 30.1152C125.495 29.5232 125.327 28.8512 125.327 28.0992C125.327 27.1232 125.599 26.2752 126.143 25.5552C126.687 24.8352 127.447 24.2832 128.423 23.8992C129.399 23.4992 130.519 23.2992 131.783 23.2992C133.063 23.2992 134.191 23.4992 135.167 23.8992C136.159 24.2832 136.927 24.8352 137.471 25.5552C138.015 26.2752 138.287 27.1232 138.287 28.0992C138.287 28.8512 138.119 29.5232 137.783 30.1152C137.447 30.6912 136.959 31.1712 136.319 31.5552ZM131.783 26.1552C130.999 26.1552 130.367 26.3472 129.887 26.7312C129.423 27.0992 129.191 27.6112 129.191 28.2672C129.191 28.9072 129.423 29.4112 129.887 29.7792C130.351 30.1472 130.983 30.3312 131.783 30.3312C132.583 30.3312 133.223 30.1472 133.703 29.7792C134.183 29.4112 134.423 28.9072 134.423 28.2672C134.423 27.6112 134.183 27.0992 133.703 26.7312C133.223 26.3472 132.583 26.1552 131.783 26.1552ZM131.783 37.8192C132.759 37.8192 133.527 37.6032 134.087 37.1712C134.663 36.7232 134.951 36.1312 134.951 35.3952C134.951 34.6592 134.663 34.0752 134.087 33.6432C133.527 33.2112 132.759 32.9952 131.783 32.9952C130.823 32.9952 130.063 33.2112 129.503 33.6432C128.943 34.0752 128.663 34.6592 128.663 35.3952C128.663 36.1472 128.943 36.7392 129.503 37.1712C130.063 37.6032 130.823 37.8192 131.783 37.8192ZM153.218 37.2192V40.3872H140.522V37.8672L147.002 31.7472C147.69 31.0912 148.154 30.5312 148.394 30.0672C148.634 29.5872 148.754 29.1152 148.754 28.6512C148.754 27.9792 148.522 27.4672 148.058 27.1152C147.61 26.7472 146.946 26.5632 146.066 26.5632C145.33 26.5632 144.666 26.7072 144.074 26.9952C143.482 27.2672 142.986 27.6832 142.586 28.2432L139.754 26.4192C140.41 25.4432 141.314 24.6832 142.466 24.1392C143.618 23.5792 144.938 23.2992 146.426 23.2992C147.674 23.2992 148.762 23.5072 149.69 23.9232C150.634 24.3232 151.362 24.8992 151.874 25.6512C152.402 26.3872 152.666 27.2592 152.666 28.2672C152.666 29.1792 152.474 30.0352 152.09 30.8352C151.706 31.6352 150.962 32.5472 149.858 33.5712L145.994 37.2192H153.218ZM158.687 32.6112C157.519 32.6112 156.575 32.1872 155.855 31.3392C155.135 30.4912 154.775 29.3872 154.775 28.0272C154.775 26.6672 155.135 25.5632 155.855 24.7152C156.575 23.8672 157.519 23.4432 158.687 23.4432C159.855 23.4432 160.791 23.8672 161.495 24.7152C162.215 25.5472 162.575 26.6512 162.575 28.0272C162.575 29.4032 162.215 30.5152 161.495 31.3632C160.791 32.1952 159.855 32.6112 158.687 32.6112ZM168.815 23.5872H170.663L159.191 40.3872H157.343L168.815 23.5872ZM158.687 31.2432C159.423 31.2432 159.999 30.9632 160.415 30.4032C160.831 29.8272 161.039 29.0352 161.039 28.0272C161.039 27.0192 160.831 26.2352 160.415 25.6752C159.999 25.0992 159.423 24.8112 158.687 24.8112C157.967 24.8112 157.391 25.0992 156.959 25.6752C156.543 26.2512 156.335 27.0352 156.335 28.0272C156.335 29.0192 156.543 29.8032 156.959 30.3792C157.391 30.9552 157.967 31.2432 158.687 31.2432ZM169.319 40.5312C168.151 40.5312 167.207 40.1152 166.487 39.2832C165.783 38.4352 165.431 37.3232 165.431 35.9472C165.431 34.5712 165.783 33.4672 166.487 32.6352C167.207 31.7872 168.151 31.3632 169.319 31.3632C170.487 31.3632 171.431 31.7872 172.151 32.6352C172.871 33.4832 173.231 34.5872 173.231 35.9472C173.231 37.3072 172.871 38.4112 172.151 39.2592C171.431 40.1072 170.487 40.5312 169.319 40.5312ZM169.319 39.1632C170.039 39.1632 170.607 38.8752 171.023 38.2992C171.455 37.7232 171.671 36.9392 171.671 35.9472C171.671 34.9552 171.455 34.1712 171.023 33.5952C170.607 33.0192 170.039 32.7312 169.319 32.7312C168.583 32.7312 168.007 33.0192 167.591 33.5952C167.175 34.1552 166.967 34.9392 166.967 35.9472C166.967 36.9552 167.175 37.7472 167.591 38.3232C168.007 38.8832 168.583 39.1632 169.319 39.1632Z" fill="white"/>
</svg>
