<svg width="1111" height="103" viewBox="0 0 1111 103" fill="none" xmlns="http://www.w3.org/2000/svg">
<path d="M7.77832 16.6426C7.77832 16.1445 7.60254 15.7637 7.25098 15.5C6.89941 15.2305 6.2666 14.9492 5.35254 14.6562C4.43848 14.3574 3.71484 14.0645 3.18164 13.7773C1.72852 12.9922 1.00195 11.9346 1.00195 10.6045C1.00195 9.91309 1.19531 9.29785 1.58203 8.75879C1.97461 8.21387 2.53418 7.78906 3.26074 7.48438C3.99316 7.17969 4.81348 7.02734 5.72168 7.02734C6.63574 7.02734 7.4502 7.19434 8.16504 7.52832C8.87988 7.85645 9.43359 8.32227 9.82617 8.92578C10.2246 9.5293 10.4238 10.2148 10.4238 10.9824H7.78711C7.78711 10.3965 7.60254 9.94238 7.2334 9.62012C6.86426 9.29199 6.3457 9.12793 5.67773 9.12793C5.0332 9.12793 4.53223 9.26562 4.1748 9.54102C3.81738 9.81055 3.63867 10.168 3.63867 10.6133C3.63867 11.0293 3.84668 11.3779 4.2627 11.6592C4.68457 11.9404 5.30273 12.2041 6.11719 12.4502C7.61719 12.9014 8.70996 13.4609 9.39551 14.1289C10.0811 14.7969 10.4238 15.6289 10.4238 16.625C10.4238 17.7324 10.0049 18.6025 9.16699 19.2354C8.3291 19.8623 7.20117 20.1758 5.7832 20.1758C4.79883 20.1758 3.90234 19.9971 3.09375 19.6396C2.28516 19.2764 1.66699 18.7812 1.23926 18.1543C0.817383 17.5273 0.606445 16.8008 0.606445 15.9746H3.25195C3.25195 17.3867 4.0957 18.0928 5.7832 18.0928C6.41016 18.0928 6.89941 17.9668 7.25098 17.7148C7.60254 17.457 7.77832 17.0996 7.77832 16.6426ZM14.8805 20H12.3316V10.4902H14.8805V20ZM12.1822 8.0293C12.1822 7.64844 12.3082 7.33496 12.5602 7.08887C12.818 6.84277 13.1666 6.71973 13.6061 6.71973C14.0396 6.71973 14.3854 6.84277 14.6432 7.08887C14.901 7.33496 15.0299 7.64844 15.0299 8.0293C15.0299 8.41602 14.898 8.73242 14.6344 8.97852C14.3766 9.22461 14.0338 9.34766 13.6061 9.34766C13.1783 9.34766 12.8326 9.22461 12.5689 8.97852C12.3111 8.73242 12.1822 8.41602 12.1822 8.0293ZM16.7619 15.1748C16.7619 13.7158 17.1076 12.541 17.799 11.6504C18.4963 10.7598 19.4338 10.3145 20.6115 10.3145C21.6545 10.3145 22.466 10.6719 23.0461 11.3867L23.1516 10.4902H25.4543V19.6836C25.4543 20.5156 25.2639 21.2393 24.883 21.8545C24.508 22.4697 23.9777 22.9385 23.2922 23.2607C22.6066 23.583 21.8039 23.7441 20.884 23.7441C20.1867 23.7441 19.507 23.6035 18.8449 23.3223C18.1828 23.0469 17.6818 22.6895 17.342 22.25L18.467 20.7031C19.0998 21.4121 19.8674 21.7666 20.7697 21.7666C21.4436 21.7666 21.968 21.585 22.343 21.2217C22.718 20.8643 22.9055 20.3545 22.9055 19.6924V19.1826C22.3195 19.8447 21.549 20.1758 20.5939 20.1758C19.4514 20.1758 18.5256 19.7305 17.8166 18.8398C17.1135 17.9434 16.7619 16.7568 16.7619 15.2803V15.1748ZM19.302 15.3594C19.302 16.2207 19.4748 16.8975 19.8205 17.3896C20.1662 17.876 20.6408 18.1191 21.2443 18.1191C22.0178 18.1191 22.5715 17.8291 22.9055 17.249V13.25C22.5656 12.6699 22.0178 12.3799 21.2619 12.3799C20.6525 12.3799 20.1721 12.6289 19.8205 13.127C19.4748 13.625 19.302 14.3691 19.302 15.3594ZM29.9021 10.4902L29.9813 11.5889C30.6609 10.7393 31.5721 10.3145 32.7146 10.3145C33.7225 10.3145 34.4725 10.6104 34.9646 11.2021C35.4568 11.7939 35.7088 12.6787 35.7205 13.8564V20H33.1805V13.918C33.1805 13.3789 33.0633 12.9893 32.8289 12.749C32.5945 12.5029 32.2049 12.3799 31.66 12.3799C30.9451 12.3799 30.409 12.6846 30.0516 13.2939V20H27.5115V10.4902H29.9021ZM48.1318 19.0332C47.5049 19.7949 46.6377 20.1758 45.5303 20.1758C44.5107 20.1758 43.7314 19.8828 43.1924 19.2969C42.6592 18.7109 42.3867 17.8525 42.375 16.7217V10.4902H44.915V16.6338C44.915 17.624 45.3662 18.1191 46.2686 18.1191C47.1299 18.1191 47.7217 17.8203 48.0439 17.2227V10.4902H50.5928V20H48.2021L48.1318 19.0332ZM61.2193 15.333C61.2193 16.7979 60.8854 17.9727 60.2174 18.8574C59.5553 19.7363 58.6588 20.1758 57.5279 20.1758C56.567 20.1758 55.7906 19.8418 55.1988 19.1738V23.6562H52.6588V10.4902H55.0143L55.1021 11.4219C55.7174 10.6836 56.5201 10.3145 57.5104 10.3145C58.6822 10.3145 59.5934 10.748 60.2438 11.6152C60.8941 12.4824 61.2193 13.6777 61.2193 15.2012V15.333ZM58.6793 15.1484C58.6793 14.2637 58.5211 13.5811 58.2047 13.1006C57.8941 12.6201 57.44 12.3799 56.8424 12.3799C56.0455 12.3799 55.4977 12.6846 55.1988 13.2939V17.1875C55.5094 17.8145 56.0631 18.1279 56.86 18.1279C58.0729 18.1279 58.6793 17.1348 58.6793 15.1484ZM68.2781 20V12.3535H66.8631V10.4902H68.2781V9.68164C68.2781 8.61523 68.5828 7.78906 69.1922 7.20312C69.8074 6.61133 70.6658 6.31543 71.7674 6.31543C72.1189 6.31543 72.5496 6.37402 73.0594 6.49121L73.033 8.45996C72.8221 8.40723 72.5643 8.38086 72.2596 8.38086C71.3045 8.38086 70.827 8.8291 70.827 9.72559V10.4902H72.7166V12.3535H70.827V20H68.2781ZM73.7895 15.1572C73.7895 14.2139 73.9711 13.373 74.3344 12.6348C74.6977 11.8965 75.2191 11.3252 75.8988 10.9209C76.5844 10.5166 77.3783 10.3145 78.2807 10.3145C79.5639 10.3145 80.6098 10.707 81.4184 11.4922C82.2328 12.2773 82.6869 13.3438 82.7807 14.6914L82.7982 15.3418C82.7982 16.8008 82.391 17.9727 81.5766 18.8574C80.7621 19.7363 79.6693 20.1758 78.2982 20.1758C76.9271 20.1758 75.8314 19.7363 75.0111 18.8574C74.1967 17.9785 73.7895 16.7832 73.7895 15.2715V15.1572ZM76.3295 15.3418C76.3295 16.2441 76.4994 16.9355 76.8393 17.416C77.1791 17.8906 77.6654 18.1279 78.2982 18.1279C78.9135 18.1279 79.3939 17.8936 79.7396 17.4248C80.0854 16.9502 80.2582 16.1943 80.2582 15.1572C80.2582 14.2725 80.0854 13.5869 79.7396 13.1006C79.3939 12.6143 78.9076 12.3711 78.2807 12.3711C77.6596 12.3711 77.1791 12.6143 76.8393 13.1006C76.4994 13.5811 76.3295 14.3281 76.3295 15.3418ZM89.8564 12.8721C89.5107 12.8252 89.2061 12.8018 88.9424 12.8018C87.9814 12.8018 87.3516 13.127 87.0527 13.7773V20H84.5127V10.4902H86.9121L86.9824 11.624C87.4922 10.751 88.1982 10.3145 89.1006 10.3145C89.3818 10.3145 89.6455 10.3525 89.8916 10.4287L89.8564 12.8721ZM101.38 20C101.263 19.7715 101.178 19.4873 101.125 19.1475C100.51 19.833 99.7102 20.1758 98.7258 20.1758C97.7941 20.1758 97.0207 19.9062 96.4055 19.3672C95.7961 18.8281 95.4914 18.1484 95.4914 17.3281C95.4914 16.3203 95.8635 15.5469 96.6076 15.0078C97.3576 14.4688 98.4387 14.1963 99.8508 14.1904H101.02V13.6455C101.02 13.2061 100.905 12.8545 100.677 12.5908C100.454 12.3271 100.1 12.1953 99.6135 12.1953C99.1857 12.1953 98.8488 12.2979 98.6027 12.5029C98.3625 12.708 98.2424 12.9893 98.2424 13.3467H95.7023C95.7023 12.7959 95.8723 12.2861 96.2121 11.8174C96.552 11.3486 97.0324 10.9824 97.6535 10.7188C98.2746 10.4492 98.9719 10.3145 99.7453 10.3145C100.917 10.3145 101.846 10.6104 102.531 11.2021C103.223 11.7881 103.569 12.6143 103.569 13.6807V17.8027C103.574 18.7051 103.7 19.3877 103.946 19.8506V20H101.38ZM99.2795 18.2334C99.6545 18.2334 100 18.1514 100.317 17.9873C100.633 17.8174 100.867 17.5918 101.02 17.3105V15.6758H100.071C98.799 15.6758 98.1223 16.1152 98.0402 16.9941L98.0314 17.1436C98.0314 17.46 98.1428 17.7207 98.3654 17.9258C98.5881 18.1309 98.8928 18.2334 99.2795 18.2334ZM108.008 10.4902L108.087 11.5889C108.766 10.7393 109.678 10.3145 110.82 10.3145C111.828 10.3145 112.578 10.6104 113.07 11.2021C113.562 11.7939 113.814 12.6787 113.826 13.8564V20H111.286V13.918C111.286 13.3789 111.169 12.9893 110.934 12.749C110.7 12.5029 110.31 12.3799 109.765 12.3799C109.051 12.3799 108.514 12.6846 108.157 13.2939V20H105.617V10.4902H108.008ZM124.919 20.1758C123.524 20.1758 122.388 19.748 121.509 18.8926C120.636 18.0371 120.199 16.8975 120.199 15.4736V15.2275C120.199 14.2725 120.384 13.4199 120.753 12.6699C121.122 11.9141 121.644 11.334 122.317 10.9297C122.997 10.5195 123.771 10.3145 124.638 10.3145C125.938 10.3145 126.961 10.7246 127.705 11.5449C128.455 12.3652 128.83 13.5283 128.83 15.0342V16.0713H122.774C122.856 16.6924 123.103 17.1904 123.513 17.5654C123.929 17.9404 124.453 18.1279 125.086 18.1279C126.064 18.1279 126.829 17.7734 127.38 17.0645L128.628 18.4619C128.247 19.001 127.731 19.4229 127.081 19.7275C126.431 20.0264 125.71 20.1758 124.919 20.1758ZM124.629 12.3711C124.125 12.3711 123.715 12.541 123.398 12.8809C123.088 13.2207 122.889 13.707 122.801 14.3398H126.334V14.1377C126.322 13.5752 126.17 13.1416 125.877 12.8369C125.584 12.5264 125.168 12.3711 124.629 12.3711ZM133.867 16.8975L135.633 10.4902H138.288L135.08 20H132.654L129.446 10.4902H132.1L133.867 16.8975ZM143.817 20.1758C142.422 20.1758 141.285 19.748 140.406 18.8926C139.533 18.0371 139.097 16.8975 139.097 15.4736V15.2275C139.097 14.2725 139.281 13.4199 139.651 12.6699C140.02 11.9141 140.541 11.334 141.215 10.9297C141.895 10.5195 142.668 10.3145 143.535 10.3145C144.836 10.3145 145.859 10.7246 146.603 11.5449C147.353 12.3652 147.728 13.5283 147.728 15.0342V16.0713H141.672C141.754 16.6924 142 17.1904 142.41 17.5654C142.826 17.9404 143.351 18.1279 143.984 18.1279C144.962 18.1279 145.727 17.7734 146.278 17.0645L147.526 18.4619C147.145 19.001 146.629 19.4229 145.979 19.7275C145.328 20.0264 144.608 20.1758 143.817 20.1758ZM143.527 12.3711C143.023 12.3711 142.613 12.541 142.296 12.8809C141.986 13.2207 141.786 13.707 141.698 14.3398H145.232V14.1377C145.22 13.5752 145.068 13.1416 144.775 12.8369C144.482 12.5264 144.066 12.3711 143.527 12.3711ZM151.666 10.4902L151.745 11.5889C152.425 10.7393 153.336 10.3145 154.478 10.3145C155.486 10.3145 156.236 10.6104 156.728 11.2021C157.221 11.7939 157.472 12.6787 157.484 13.8564V20H154.944V13.918C154.944 13.3789 154.827 12.9893 154.593 12.749C154.358 12.5029 153.969 12.3799 153.424 12.3799C152.709 12.3799 152.173 12.6846 151.815 13.2939V20H149.275V10.4902H151.666ZM162.609 8.15234V10.4902H164.235V12.3535H162.609V17.0996C162.609 17.4512 162.676 17.7031 162.811 17.8555C162.946 18.0078 163.204 18.084 163.584 18.084C163.866 18.084 164.115 18.0635 164.331 18.0225V19.9473C163.833 20.0996 163.321 20.1758 162.793 20.1758C161.012 20.1758 160.104 19.2764 160.069 17.4775V12.3535H158.68V10.4902H160.069V8.15234H162.609Z" fill="#5E5E5E"/>
<rect x="0.5" y="51.5" width="99" height="39" rx="19.5" fill="#E9E9E9" stroke="#ABABAB"/>
<path d="M39.7766 76H38.0539V71.5771H33.6037V76H31.8742V66.0469H33.6037V70.1895H38.0539V66.0469H39.7766V76ZM41.5723 72.2334C41.5723 71.5088 41.7159 70.8571 42.003 70.2783C42.2901 69.695 42.6934 69.2484 43.213 68.9385C43.7325 68.624 44.3295 68.4668 45.004 68.4668C46.002 68.4668 46.8109 68.7881 47.4307 69.4307C48.0551 70.0732 48.3923 70.9255 48.4424 71.9873L48.4493 72.377C48.4493 73.1061 48.308 73.7578 48.0255 74.332C47.7475 74.9062 47.3464 75.3506 46.8223 75.665C46.3028 75.9795 45.7012 76.1367 45.0176 76.1367C43.974 76.1367 43.1378 75.7904 42.5089 75.0977C41.8845 74.4004 41.5723 73.473 41.5723 72.3154V72.2334ZM43.2335 72.377C43.2335 73.138 43.3907 73.735 43.7051 74.168C44.0196 74.5964 44.4571 74.8105 45.0176 74.8105C45.5782 74.8105 46.0134 74.5918 46.3233 74.1543C46.6378 73.7168 46.795 73.0765 46.795 72.2334C46.795 71.486 46.6332 70.8936 46.3096 70.4561C45.9906 70.0186 45.5554 69.7998 45.004 69.7998C44.4617 69.7998 44.031 70.0163 43.712 70.4492C43.393 70.8776 43.2335 71.5202 43.2335 72.377ZM51.6327 68.6035L51.6806 69.376C52.2001 68.7699 52.9111 68.4668 53.8134 68.4668C54.8023 68.4668 55.4791 68.8451 55.8437 69.6016C56.3814 68.8451 57.138 68.4668 58.1132 68.4668C58.929 68.4668 59.5351 68.6924 59.9316 69.1436C60.3326 69.5947 60.5377 70.2601 60.5468 71.1396V76H58.8857V71.1875C58.8857 70.7181 58.7831 70.374 58.5781 70.1553C58.373 69.9365 58.0335 69.8271 57.5595 69.8271C57.1813 69.8271 56.8714 69.9297 56.6298 70.1348C56.3928 70.3353 56.2265 70.5996 56.1308 70.9277L56.1376 76H54.4765V71.1328C54.4537 70.2624 54.0094 69.8271 53.1435 69.8271C52.4781 69.8271 52.0064 70.0983 51.7285 70.6406V76H50.0673V68.6035H51.6327ZM65.7264 76.1367C64.6736 76.1367 63.8191 75.8063 63.1629 75.1455C62.5112 74.4801 62.1853 73.596 62.1853 72.4932V72.2881C62.1853 71.5498 62.3266 70.8913 62.6092 70.3125C62.8963 69.7292 63.2973 69.2757 63.8123 68.9521C64.3273 68.6286 64.9015 68.4668 65.535 68.4668C66.5421 68.4668 67.3191 68.7881 67.866 69.4307C68.4174 70.0732 68.6932 70.9824 68.6932 72.1582V72.8281H63.8602C63.9103 73.4388 64.1131 73.9219 64.4686 74.2773C64.8286 74.6328 65.2797 74.8105 65.8221 74.8105C66.5831 74.8105 67.2029 74.5029 67.6814 73.8877L68.577 74.7422C68.2807 75.1842 67.8842 75.5283 67.3875 75.7744C66.8953 76.016 66.3416 76.1367 65.7264 76.1367ZM65.5281 69.7998C65.0724 69.7998 64.7033 69.9593 64.4207 70.2783C64.1427 70.5973 63.965 71.0417 63.8875 71.6113H67.0525V71.4883C67.0161 70.9323 66.868 70.513 66.6082 70.2305C66.3484 69.9434 65.9884 69.7998 65.5281 69.7998Z" fill="#383838"/>
<rect x="989.5" y="52.5" width="121" height="39" rx="19.5" fill="#E9E9E9" stroke="#ABABAB"/>
<path d="M1016.65 73.7598C1016.55 74.8216 1016.16 75.651 1015.48 76.248C1014.79 76.8405 1013.88 77.1367 1012.75 77.1367C1011.95 77.1367 1011.26 76.9499 1010.65 76.5762C1010.05 76.1979 1009.58 75.6624 1009.25 74.9697C1008.93 74.277 1008.76 73.4727 1008.74 72.5566V71.627C1008.74 70.6882 1008.91 69.861 1009.24 69.1455C1009.57 68.43 1010.05 67.8786 1010.67 67.4912C1011.29 67.1038 1012.01 66.9102 1012.83 66.9102C1013.93 66.9102 1014.81 67.2087 1015.48 67.8057C1016.15 68.4027 1016.54 69.2458 1016.65 70.335H1014.93C1014.85 69.6195 1014.64 69.1045 1014.3 68.79C1013.97 68.471 1013.48 68.3115 1012.83 68.3115C1012.08 68.3115 1011.5 68.5872 1011.09 69.1387C1010.69 69.6855 1010.49 70.4899 1010.48 71.5518V72.4336C1010.48 73.5091 1010.67 74.3294 1011.05 74.8945C1011.44 75.4596 1012 75.7422 1012.75 75.7422C1013.43 75.7422 1013.94 75.5895 1014.28 75.2842C1014.62 74.9788 1014.84 74.4707 1014.93 73.7598H1016.65ZM1017.95 73.2334C1017.95 72.5088 1018.09 71.8571 1018.38 71.2783C1018.67 70.695 1019.07 70.2484 1019.59 69.9385C1020.11 69.624 1020.7 69.4668 1021.38 69.4668C1022.38 69.4668 1023.19 69.7881 1023.81 70.4307C1024.43 71.0732 1024.77 71.9255 1024.82 72.9873L1024.82 73.377C1024.82 74.1061 1024.68 74.7578 1024.4 75.332C1024.12 75.9062 1023.72 76.3506 1023.2 76.665C1022.68 76.9795 1022.08 77.1367 1021.39 77.1367C1020.35 77.1367 1019.51 76.7904 1018.88 76.0977C1018.26 75.4004 1017.95 74.473 1017.95 73.3154V73.2334ZM1019.61 73.377C1019.61 74.138 1019.77 74.735 1020.08 75.168C1020.4 75.5964 1020.83 75.8105 1021.39 75.8105C1021.95 75.8105 1022.39 75.5918 1022.7 75.1543C1023.01 74.7168 1023.17 74.0765 1023.17 73.2334C1023.17 72.486 1023.01 71.8936 1022.69 71.4561C1022.37 71.0186 1021.93 70.7998 1021.38 70.7998C1020.84 70.7998 1020.41 71.0163 1020.09 71.4492C1019.77 71.8776 1019.61 72.5202 1019.61 73.377ZM1027.99 69.6035L1028.04 70.458C1028.58 69.7972 1029.3 69.4668 1030.19 69.4668C1031.73 69.4668 1032.51 70.3486 1032.54 72.1123V77H1030.88V72.208C1030.88 71.7386 1030.78 71.3923 1030.57 71.1689C1030.37 70.9411 1030.04 70.8271 1029.58 70.8271C1028.91 70.8271 1028.41 71.1302 1028.08 71.7363V77H1026.42V69.6035H1027.99ZM1034.9 77V70.834H1033.77V69.6035H1034.9V69.0977C1034.9 68.5189 1035.02 68.0221 1035.27 67.6074C1035.51 67.1927 1035.85 66.8805 1036.29 66.6709C1036.73 66.4613 1037.26 66.3564 1037.88 66.3564C1038.25 66.3564 1038.6 66.3952 1038.93 66.4727C1039.27 66.5501 1039.62 66.6481 1039.98 66.7666L1039.72 68.1406C1039.09 67.9219 1038.52 67.8125 1038 67.8125C1037.49 67.8125 1037.13 67.9242 1036.9 68.1475C1036.67 68.3662 1036.56 68.6966 1036.56 69.1387V69.6035H1038.01V70.834H1036.56V77H1034.9ZM1040.76 77H1039.1V69.6035H1040.76V77ZM1046.69 71.1211C1046.47 71.0846 1046.25 71.0664 1046.02 71.0664C1045.26 71.0664 1044.74 71.3581 1044.48 71.9414V77H1042.82V69.6035H1044.4L1044.44 70.4307C1044.85 69.7881 1045.4 69.4668 1046.11 69.4668C1046.35 69.4668 1046.55 69.4987 1046.7 69.5625L1046.69 71.1211ZM1049.52 69.6035L1049.57 70.376C1050.09 69.7699 1050.8 69.4668 1051.7 69.4668C1052.69 69.4668 1053.37 69.8451 1053.73 70.6016C1054.27 69.8451 1055.03 69.4668 1056 69.4668C1056.82 69.4668 1057.42 69.6924 1057.82 70.1436C1058.22 70.5947 1058.43 71.2601 1058.44 72.1396V77H1056.77V72.1875C1056.77 71.7181 1056.67 71.374 1056.47 71.1553C1056.26 70.9365 1055.92 70.8271 1055.45 70.8271C1055.07 70.8271 1054.76 70.9297 1054.52 71.1348C1054.28 71.3353 1054.12 71.5996 1054.02 71.9277L1054.03 77H1052.37V72.1328C1052.34 71.2624 1051.9 70.8271 1051.03 70.8271C1050.37 70.8271 1049.9 71.0983 1049.62 71.6406V77H1047.96V69.6035H1049.52ZM1064.78 77C1064.7 76.8587 1064.64 76.6286 1064.59 76.3096C1064.06 76.861 1063.41 77.1367 1062.64 77.1367C1061.9 77.1367 1061.3 76.9248 1060.83 76.501C1060.36 76.0771 1060.12 75.5531 1060.12 74.9287C1060.12 74.1403 1060.41 73.5365 1061 73.1172C1061.58 72.6934 1062.42 72.4814 1063.51 72.4814H1064.53V71.9961C1064.53 71.6133 1064.42 71.3079 1064.21 71.0801C1064 70.8477 1063.67 70.7314 1063.23 70.7314C1062.85 70.7314 1062.54 70.8271 1062.3 71.0186C1062.06 71.2054 1061.94 71.4447 1061.94 71.7363H1060.28C1060.28 71.3307 1060.41 70.9525 1060.68 70.6016C1060.95 70.2461 1061.32 69.9681 1061.78 69.7676C1062.24 69.5671 1062.76 69.4668 1063.33 69.4668C1064.19 69.4668 1064.88 69.6855 1065.4 70.123C1065.91 70.556 1066.18 71.1667 1066.19 71.9551V75.291C1066.19 75.9564 1066.29 76.4873 1066.47 76.8838V77H1064.78ZM1062.95 75.8037C1063.28 75.8037 1063.59 75.724 1063.87 75.5645C1064.17 75.4049 1064.39 75.1908 1064.53 74.9219V73.5273H1063.64C1063.02 73.5273 1062.56 73.6344 1062.25 73.8486C1061.94 74.0628 1061.78 74.3659 1061.78 74.7578C1061.78 75.0768 1061.89 75.332 1062.1 75.5234C1062.31 75.7103 1062.6 75.8037 1062.95 75.8037ZM1070.23 67.8057V69.6035H1071.54V70.834H1070.23V74.9629C1070.23 75.2454 1070.28 75.4505 1070.39 75.5781C1070.51 75.7012 1070.71 75.7627 1071 75.7627C1071.19 75.7627 1071.38 75.7399 1071.58 75.6943V76.9795C1071.2 77.0843 1070.83 77.1367 1070.48 77.1367C1069.21 77.1367 1068.57 76.4326 1068.57 75.0244V70.834H1067.35V69.6035H1068.57V67.8057H1070.23ZM1074.79 77H1073.13V69.6035H1074.79V77ZM1073.03 67.6826C1073.03 67.4274 1073.11 67.2155 1073.27 67.0469C1073.43 66.8783 1073.67 66.7939 1073.97 66.7939C1074.27 66.7939 1074.5 66.8783 1074.66 67.0469C1074.83 67.2155 1074.91 67.4274 1074.91 67.6826C1074.91 67.9333 1074.83 68.1429 1074.66 68.3115C1074.5 68.4756 1074.27 68.5576 1073.97 68.5576C1073.67 68.5576 1073.43 68.4756 1073.27 68.3115C1073.11 68.1429 1073.03 67.9333 1073.03 67.6826ZM1076.52 73.2334C1076.52 72.5088 1076.66 71.8571 1076.95 71.2783C1077.23 70.695 1077.64 70.2484 1078.16 69.9385C1078.68 69.624 1079.27 69.4668 1079.95 69.4668C1080.94 69.4668 1081.75 69.7881 1082.37 70.4307C1083 71.0732 1083.34 71.9255 1083.39 72.9873L1083.39 73.377C1083.39 74.1061 1083.25 74.7578 1082.97 75.332C1082.69 75.9062 1082.29 76.3506 1081.77 76.665C1081.25 76.9795 1080.64 77.1367 1079.96 77.1367C1078.92 77.1367 1078.08 76.7904 1077.45 76.0977C1076.83 75.4004 1076.52 74.473 1076.52 73.3154V73.2334ZM1078.18 73.377C1078.18 74.138 1078.33 74.735 1078.65 75.168C1078.96 75.5964 1079.4 75.8105 1079.96 75.8105C1080.52 75.8105 1080.96 75.5918 1081.27 75.1543C1081.58 74.7168 1081.74 74.0765 1081.74 73.2334C1081.74 72.486 1081.58 71.8936 1081.25 71.4561C1080.93 71.0186 1080.5 70.7998 1079.95 70.7998C1079.4 70.7998 1078.97 71.0163 1078.65 71.4492C1078.34 71.8776 1078.18 72.5202 1078.18 73.377ZM1086.55 69.6035L1086.6 70.458C1087.15 69.7972 1087.87 69.4668 1088.76 69.4668C1090.3 69.4668 1091.08 70.3486 1091.11 72.1123V77H1089.45V72.208C1089.45 71.7386 1089.34 71.3923 1089.14 71.1689C1088.94 70.9411 1088.61 70.8271 1088.15 70.8271C1087.48 70.8271 1086.98 71.1302 1086.65 71.7363V77H1084.99V69.6035H1086.55Z" fill="#383838"/>
<path d="M101 71.5H276.556" stroke="#ABABAB" stroke-linecap="square"/>
<path fill-rule="evenodd" clip-rule="evenodd" d="M102.5 74C103.881 74 105 72.8807 105 71.5C105 70.1193 103.881 69 102.5 69C101.119 69 100 70.1193 100 71.5C100 72.8807 101.119 74 102.5 74Z" fill="white" stroke="#ABABAB"/>
<path fill-rule="evenodd" clip-rule="evenodd" d="M275 74V69L278 71.5L275 74Z" fill="#ABABAB"/>
<path d="M374 71.5H549.556" stroke="#ABABAB" stroke-linecap="square"/>
<path fill-rule="evenodd" clip-rule="evenodd" d="M375.5 74C376.881 74 378 72.8807 378 71.5C378 70.1193 376.881 69 375.5 69C374.119 69 373 70.1193 373 71.5C373 72.8807 374.119 74 375.5 74Z" fill="white" stroke="#ABABAB"/>
<path fill-rule="evenodd" clip-rule="evenodd" d="M548 74V69L551 71.5L548 74Z" fill="#ABABAB"/>
<path d="M148.5 58.5L228.5 58.5C235.127 58.5 240.5 63.8726 240.5 70.5C240.5 77.1274 235.127 82.5 228.5 82.5L148.5 82.5C141.873 82.5 136.5 77.1274 136.5 70.5C136.5 63.8726 141.873 58.5 148.5 58.5Z" fill="white" stroke="#ABABAB"/>
<path d="M172.7 70.3994H168.387V73.9268H173.397V75H167.074V65.0469H173.329V66.127H168.387V69.3262H172.7V70.3994ZM177.246 73.2842L179.078 67.6035H180.37L177.717 75H176.754L174.074 67.6035H175.366L177.246 73.2842ZM184.71 75.1367C183.708 75.1367 182.892 74.8086 182.263 74.1523C181.634 73.4915 181.32 72.6097 181.32 71.5068V71.2744C181.32 70.5407 181.459 69.8867 181.737 69.3125C182.019 68.7337 182.411 68.2826 182.912 67.959C183.418 67.6309 183.965 67.4668 184.553 67.4668C185.515 67.4668 186.262 67.7835 186.795 68.417C187.328 69.0505 187.595 69.9574 187.595 71.1377V71.6641H182.584C182.602 72.3932 182.814 72.9834 183.22 73.4346C183.63 73.8812 184.15 74.1045 184.779 74.1045C185.225 74.1045 185.603 74.0133 185.913 73.8311C186.223 73.6488 186.494 73.4072 186.727 73.1064L187.499 73.708C186.879 74.6605 185.95 75.1367 184.71 75.1367ZM184.553 68.5059C184.043 68.5059 183.614 68.6927 183.268 69.0664C182.921 69.4355 182.707 69.9551 182.625 70.625H186.33V70.5293C186.294 69.8867 186.121 69.39 185.811 69.0391C185.501 68.6836 185.082 68.5059 184.553 68.5059ZM190.411 67.6035L190.452 68.5332C191.017 67.8223 191.755 67.4668 192.667 67.4668C194.23 67.4668 195.018 68.3486 195.032 70.1123V75H193.767V70.1055C193.763 69.5723 193.64 69.1781 193.398 68.9229C193.161 68.6676 192.79 68.54 192.284 68.54C191.874 68.54 191.514 68.6494 191.204 68.8682C190.894 69.0869 190.652 69.374 190.479 69.7295V75H189.215V67.6035H190.411ZM198.805 65.8125V67.6035H200.186V68.5811H198.805V73.168C198.805 73.4642 198.867 73.6875 198.99 73.8379C199.113 73.9837 199.322 74.0566 199.619 74.0566C199.764 74.0566 199.965 74.0293 200.22 73.9746V75C199.887 75.0911 199.564 75.1367 199.249 75.1367C198.684 75.1367 198.258 74.9658 197.971 74.624C197.684 74.2822 197.54 73.7969 197.54 73.168V68.5811H196.194V67.6035H197.54V65.8125H198.805ZM206.126 73.0381C206.126 72.6963 205.996 72.432 205.736 72.2451C205.481 72.0537 205.032 71.8896 204.39 71.7529C203.752 71.6162 203.243 71.4521 202.865 71.2607C202.492 71.0693 202.214 70.8415 202.031 70.5771C201.854 70.3128 201.765 69.9984 201.765 69.6338C201.765 69.0277 202.02 68.515 202.53 68.0957C203.045 67.6764 203.701 67.4668 204.499 67.4668C205.338 67.4668 206.017 67.6833 206.536 68.1162C207.06 68.5492 207.322 69.1029 207.322 69.7773H206.051C206.051 69.431 205.903 69.1325 205.606 68.8818C205.315 68.6312 204.946 68.5059 204.499 68.5059C204.039 68.5059 203.679 68.6061 203.419 68.8066C203.159 69.0072 203.029 69.2692 203.029 69.5928C203.029 69.8981 203.15 70.1283 203.392 70.2832C203.633 70.4382 204.068 70.5863 204.697 70.7275C205.331 70.8688 205.843 71.0374 206.235 71.2334C206.627 71.4294 206.917 71.6663 207.104 71.9443C207.295 72.2178 207.391 72.5527 207.391 72.9492C207.391 73.61 207.126 74.141 206.598 74.542C206.069 74.9385 205.383 75.1367 204.54 75.1367C203.948 75.1367 203.424 75.0319 202.968 74.8223C202.512 74.6126 202.154 74.321 201.895 73.9473C201.639 73.569 201.512 73.1611 201.512 72.7236H202.776C202.799 73.1475 202.968 73.4847 203.282 73.7354C203.601 73.9814 204.021 74.1045 204.54 74.1045C205.019 74.1045 205.401 74.0088 205.688 73.8174C205.98 73.6214 206.126 73.3617 206.126 73.0381Z" fill="black"/>
<path d="M421.5 59.5L501.5 59.5C508.127 59.5 513.5 64.8726 513.5 71.5C513.5 78.1274 508.127 83.5 501.5 83.5L421.5 83.5C414.873 83.5 409.5 78.1274 409.5 71.5C409.5 64.8726 414.873 59.5 421.5 59.5Z" fill="white" stroke="#ABABAB"/>
<path d="M424.128 72.8418C424.004 73.8945 423.615 74.708 422.959 75.2822C422.307 75.8519 421.439 76.1367 420.354 76.1367C419.178 76.1367 418.235 75.7152 417.524 74.8721C416.818 74.029 416.464 72.901 416.464 71.4883V70.5312C416.464 69.6061 416.629 68.7926 416.957 68.0908C417.289 67.389 417.759 66.8512 418.365 66.4775C418.971 66.0993 419.673 65.9102 420.47 65.9102C421.528 65.9102 422.375 66.2064 423.013 66.7988C423.651 67.3867 424.023 68.2025 424.128 69.2461H422.808C422.694 68.4531 422.446 67.8789 422.063 67.5234C421.685 67.168 421.154 66.9902 420.47 66.9902C419.632 66.9902 418.973 67.3001 418.495 67.9199C418.021 68.5397 417.784 69.4215 417.784 70.5654V71.5293C417.784 72.6094 418.009 73.4684 418.461 74.1064C418.912 74.7445 419.543 75.0635 420.354 75.0635C421.083 75.0635 421.642 74.8994 422.029 74.5713C422.421 74.2386 422.681 73.6621 422.808 72.8418H424.128ZM427.251 76H425.987V65.5H427.251V76ZM430.805 76H429.541V68.6035H430.805V76ZM429.438 66.6416C429.438 66.4365 429.5 66.2633 429.623 66.1221C429.75 65.9808 429.937 65.9102 430.183 65.9102C430.429 65.9102 430.616 65.9808 430.744 66.1221C430.872 66.2633 430.935 66.4365 430.935 66.6416C430.935 66.8467 430.872 67.0176 430.744 67.1543C430.616 67.291 430.429 67.3594 430.183 67.3594C429.937 67.3594 429.75 67.291 429.623 67.1543C429.5 67.0176 429.438 66.8467 429.438 66.6416ZM435.953 75.1045C436.404 75.1045 436.798 74.9678 437.135 74.6943C437.472 74.4209 437.659 74.0791 437.696 73.6689H438.892C438.869 74.0928 438.723 74.4961 438.454 74.8789C438.186 75.2617 437.826 75.5671 437.374 75.7949C436.928 76.0228 436.454 76.1367 435.953 76.1367C434.945 76.1367 434.143 75.8018 433.546 75.1318C432.954 74.4574 432.658 73.5368 432.658 72.3701V72.1582C432.658 71.4382 432.79 70.7979 433.054 70.2373C433.318 69.6768 433.697 69.2415 434.189 68.9316C434.686 68.6217 435.271 68.4668 435.946 68.4668C436.775 68.4668 437.463 68.7152 438.01 69.2119C438.562 69.7087 438.856 70.3535 438.892 71.1465H437.696C437.659 70.668 437.477 70.276 437.149 69.9707C436.825 69.6608 436.424 69.5059 435.946 69.5059C435.303 69.5059 434.804 69.7383 434.449 70.2031C434.098 70.6634 433.922 71.3311 433.922 72.2061V72.4453C433.922 73.2975 434.098 73.9538 434.449 74.4141C434.8 74.8743 435.301 75.1045 435.953 75.1045ZM442.528 72.5752L441.735 73.4023V76H440.471V65.5H441.735V71.8506L442.412 71.0371L444.716 68.6035H446.254L443.376 71.6934L446.589 76H445.105L442.528 72.5752ZM450.997 72.2334C450.997 71.5088 451.139 70.8571 451.421 70.2783C451.708 69.6995 452.105 69.2529 452.611 68.9385C453.121 68.624 453.702 68.4668 454.354 68.4668C455.361 68.4668 456.174 68.8154 456.794 69.5127C457.418 70.21 457.731 71.1374 457.731 72.2949V72.3838C457.731 73.1038 457.592 73.751 457.314 74.3252C457.04 74.8949 456.646 75.3392 456.131 75.6582C455.621 75.9772 455.033 76.1367 454.367 76.1367C453.365 76.1367 452.551 75.7881 451.927 75.0908C451.307 74.3936 450.997 73.4707 450.997 72.3223V72.2334ZM452.269 72.3838C452.269 73.2041 452.458 73.8626 452.836 74.3594C453.219 74.8561 453.729 75.1045 454.367 75.1045C455.01 75.1045 455.52 74.8538 455.899 74.3525C456.277 73.8467 456.466 73.1403 456.466 72.2334C456.466 71.4222 456.272 70.766 455.885 70.2646C455.502 69.7588 454.992 69.5059 454.354 69.5059C453.729 69.5059 453.226 69.7542 452.843 70.251C452.46 70.7477 452.269 71.4587 452.269 72.3838ZM460.663 68.6035L460.704 69.5332C461.269 68.8223 462.007 68.4668 462.919 68.4668C464.482 68.4668 465.27 69.3486 465.284 71.1123V76H464.019V71.1055C464.015 70.5723 463.892 70.1781 463.65 69.9229C463.413 69.6676 463.042 69.54 462.536 69.54C462.126 69.54 461.766 69.6494 461.456 69.8682C461.146 70.0869 460.904 70.374 460.731 70.7295V76H459.467V68.6035H460.663ZM474.033 76.1367C473.031 76.1367 472.215 75.8086 471.586 75.1523C470.957 74.4915 470.643 73.6097 470.643 72.5068V72.2744C470.643 71.5407 470.782 70.8867 471.06 70.3125C471.342 69.7337 471.734 69.2826 472.235 68.959C472.741 68.6309 473.288 68.4668 473.876 68.4668C474.838 68.4668 475.585 68.7835 476.118 69.417C476.651 70.0505 476.918 70.9574 476.918 72.1377V72.6641H471.907C471.925 73.3932 472.137 73.9834 472.543 74.4346C472.953 74.8812 473.473 75.1045 474.102 75.1045C474.548 75.1045 474.926 75.0133 475.236 74.8311C475.546 74.6488 475.817 74.4072 476.05 74.1064L476.822 74.708C476.202 75.6605 475.273 76.1367 474.033 76.1367ZM473.876 69.5059C473.366 69.5059 472.937 69.6927 472.591 70.0664C472.244 70.4355 472.03 70.9551 471.948 71.625H475.653V71.5293C475.617 70.8867 475.444 70.39 475.134 70.0391C474.824 69.6836 474.405 69.5059 473.876 69.5059ZM480.882 74.2842L482.714 68.6035H484.006L481.354 76H480.39L477.711 68.6035H479.003L480.882 74.2842ZM488.347 76.1367C487.344 76.1367 486.529 75.8086 485.9 75.1523C485.271 74.4915 484.956 73.6097 484.956 72.5068V72.2744C484.956 71.5407 485.095 70.8867 485.373 70.3125C485.656 69.7337 486.048 69.2826 486.549 68.959C487.055 68.6309 487.602 68.4668 488.19 68.4668C489.151 68.4668 489.899 68.7835 490.432 69.417C490.965 70.0505 491.232 70.9574 491.232 72.1377V72.6641H486.221C486.239 73.3932 486.451 73.9834 486.857 74.4346C487.267 74.8812 487.786 75.1045 488.415 75.1045C488.862 75.1045 489.24 75.0133 489.55 74.8311C489.86 74.6488 490.131 74.4072 490.363 74.1064L491.136 74.708C490.516 75.6605 489.586 76.1367 488.347 76.1367ZM488.19 69.5059C487.679 69.5059 487.251 69.6927 486.904 70.0664C486.558 70.4355 486.344 70.9551 486.262 71.625H489.967V71.5293C489.931 70.8867 489.757 70.39 489.447 70.0391C489.138 69.6836 488.718 69.5059 488.19 69.5059ZM494.048 68.6035L494.089 69.5332C494.654 68.8223 495.392 68.4668 496.304 68.4668C497.867 68.4668 498.655 69.3486 498.669 71.1123V76H497.404V71.1055C497.4 70.5723 497.277 70.1781 497.035 69.9229C496.798 69.6676 496.427 69.54 495.921 69.54C495.511 69.54 495.151 69.6494 494.841 69.8682C494.531 70.0869 494.289 70.374 494.116 70.7295V76H492.851V68.6035H494.048ZM502.442 66.8125V68.6035H503.823V69.5811H502.442V74.168C502.442 74.4642 502.503 74.6875 502.626 74.8379C502.749 74.9837 502.959 75.0566 503.255 75.0566C503.401 75.0566 503.602 75.0293 503.857 74.9746V76C503.524 76.0911 503.201 76.1367 502.886 76.1367C502.321 76.1367 501.895 75.9658 501.608 75.624C501.321 75.2822 501.177 74.7969 501.177 74.168V69.5811H499.83V68.6035H501.177V66.8125H502.442Z" fill="black"/>
<path d="M698 71.5H987.268" stroke="#ABABAB" stroke-linecap="square"/>
<path fill-rule="evenodd" clip-rule="evenodd" d="M699.5 74C700.881 74 702 72.8807 702 71.5C702 70.1193 700.881 69 699.5 69C698.119 69 697 70.1193 697 71.5C697 72.8807 698.119 74 699.5 74Z" fill="white" stroke="#ABABAB"/>
<path fill-rule="evenodd" clip-rule="evenodd" d="M986 74V69L989 71.5L986 74Z" fill="#ABABAB"/>
<path d="M744 52.5L942 52.5C952.77 52.5 961.5 61.2304 961.5 72C961.5 82.7696 952.77 91.5 942 91.5L744 91.5C733.23 91.5 724.5 82.7696 724.5 72C724.5 61.2304 733.23 52.5 744 52.5Z" fill="white" stroke="#ABABAB"/>
<path d="M749.495 64.3994H745.181V67.9268H750.192V69H743.869V59.0469H750.124V60.127H745.181V63.3262H749.495V64.3994ZM752.974 61.6035L753.015 62.5332C753.58 61.8223 754.318 61.4668 755.23 61.4668C756.793 61.4668 757.581 62.3486 757.595 64.1123V69H756.33V64.1055C756.326 63.5723 756.203 63.1781 755.961 62.9229C755.724 62.6676 755.353 62.54 754.847 62.54C754.437 62.54 754.077 62.6494 753.767 62.8682C753.457 63.0869 753.215 63.374 753.042 63.7295V69H751.778V61.6035H752.974ZM761.368 59.8125V61.6035H762.749V62.5811H761.368V67.168C761.368 67.4642 761.429 67.6875 761.553 67.8379C761.676 67.9837 761.885 68.0566 762.181 68.0566C762.327 68.0566 762.528 68.0293 762.783 67.9746V69C762.45 69.0911 762.127 69.1367 761.812 69.1367C761.247 69.1367 760.821 68.9658 760.534 68.624C760.247 68.2822 760.103 67.7969 760.103 67.168V62.5811H758.757V61.6035H760.103V59.8125H761.368ZM767.452 69.1367C766.449 69.1367 765.633 68.8086 765.004 68.1523C764.375 67.4915 764.061 66.6097 764.061 65.5068V65.2744C764.061 64.5407 764.2 63.8867 764.478 63.3125C764.76 62.7337 765.152 62.2826 765.654 61.959C766.16 61.6309 766.706 61.4668 767.294 61.4668C768.256 61.4668 769.003 61.7835 769.537 62.417C770.07 63.0505 770.336 63.9574 770.336 65.1377V65.6641H765.326C765.344 66.3932 765.556 66.9834 765.961 67.4346C766.371 67.8812 766.891 68.1045 767.52 68.1045C767.967 68.1045 768.345 68.0133 768.655 67.8311C768.965 67.6488 769.236 67.4072 769.468 67.1064L770.241 67.708C769.621 68.6605 768.691 69.1367 767.452 69.1367ZM767.294 62.5059C766.784 62.5059 766.356 62.6927 766.009 63.0664C765.663 63.4355 765.449 63.9551 765.367 64.625H769.072V64.5293C769.035 63.8867 768.862 63.39 768.552 63.0391C768.242 62.6836 767.823 62.5059 767.294 62.5059ZM775.531 62.7383C775.34 62.7064 775.132 62.6904 774.909 62.6904C774.08 62.6904 773.517 63.0436 773.221 63.75V69H771.956V61.6035H773.187L773.207 62.458C773.622 61.7972 774.21 61.4668 774.971 61.4668C775.217 61.4668 775.404 61.4987 775.531 61.5625V62.7383ZM784.745 66.1973H782.941L782.394 69H781.416L781.963 66.1973H780.329V65.2607H782.141L782.613 62.8408H780.849V61.8906H782.797L783.358 59.0469H784.335L783.775 61.8906H785.579L786.14 59.0469H787.124L786.564 61.8906H787.958V62.8408H786.379L785.907 65.2607H787.446V66.1973H785.73L785.183 69H784.198L784.745 66.1973ZM783.118 65.2607H784.923L785.395 62.8408H783.59L783.118 65.2607ZM792.572 65.2402C792.572 64.0872 792.838 63.1712 793.371 62.4922C793.905 61.8086 794.611 61.4668 795.491 61.4668C796.393 61.4668 797.097 61.7858 797.603 62.4238L797.664 61.6035H798.82V68.8223C798.82 69.7793 798.535 70.5335 797.965 71.085C797.4 71.6364 796.639 71.9121 795.682 71.9121C795.149 71.9121 794.627 71.7982 794.117 71.5703C793.606 71.3424 793.217 71.0303 792.948 70.6338L793.604 69.875C794.146 70.5449 794.809 70.8799 795.593 70.8799C796.208 70.8799 796.687 70.7067 797.029 70.3604C797.375 70.014 797.548 69.5264 797.548 68.8975V68.2617C797.042 68.8451 796.352 69.1367 795.477 69.1367C794.611 69.1367 793.909 68.7881 793.371 68.0908C792.838 67.3936 792.572 66.4434 792.572 65.2402ZM793.843 65.3838C793.843 66.2178 794.014 66.874 794.356 67.3525C794.698 67.8265 795.176 68.0635 795.791 68.0635C796.589 68.0635 797.175 67.7012 797.548 66.9766V63.5996C797.161 62.8932 796.58 62.54 795.805 62.54C795.19 62.54 794.709 62.7793 794.363 63.2578C794.016 63.7363 793.843 64.445 793.843 65.3838ZM805.45 68.2686C804.958 68.8473 804.236 69.1367 803.283 69.1367C802.495 69.1367 801.893 68.9089 801.479 68.4531C801.068 67.9928 800.861 67.3138 800.856 66.416V61.6035H802.121V66.3818C802.121 67.5029 802.577 68.0635 803.488 68.0635C804.454 68.0635 805.097 67.7035 805.416 66.9834V61.6035H806.681V69H805.478L805.45 68.2686ZM811.828 69.1367C810.825 69.1367 810.009 68.8086 809.38 68.1523C808.752 67.4915 808.437 66.6097 808.437 65.5068V65.2744C808.437 64.5407 808.576 63.8867 808.854 63.3125C809.137 62.7337 809.529 62.2826 810.03 61.959C810.536 61.6309 811.083 61.4668 811.671 61.4668C812.632 61.4668 813.379 61.7835 813.913 62.417C814.446 63.0505 814.713 63.9574 814.713 65.1377V65.6641H809.702C809.72 66.3932 809.932 66.9834 810.338 67.4346C810.748 67.8812 811.267 68.1045 811.896 68.1045C812.343 68.1045 812.721 68.0133 813.031 67.8311C813.341 67.6488 813.612 67.4072 813.844 67.1064L814.617 67.708C813.997 68.6605 813.067 69.1367 811.828 69.1367ZM811.671 62.5059C811.16 62.5059 810.732 62.6927 810.385 63.0664C810.039 63.4355 809.825 63.9551 809.743 64.625H813.448V64.5293C813.411 63.8867 813.238 63.39 812.928 63.0391C812.618 62.6836 812.199 62.5059 811.671 62.5059ZM820.639 67.0381C820.639 66.6963 820.509 66.432 820.249 66.2451C819.994 66.0537 819.545 65.8896 818.903 65.7529C818.265 65.6162 817.756 65.4521 817.378 65.2607C817.004 65.0693 816.726 64.8415 816.544 64.5771C816.366 64.3128 816.278 63.9984 816.278 63.6338C816.278 63.0277 816.533 62.515 817.043 62.0957C817.558 61.6764 818.214 61.4668 819.012 61.4668C819.85 61.4668 820.529 61.6833 821.049 62.1162C821.573 62.5492 821.835 63.1029 821.835 63.7773H820.564C820.564 63.431 820.416 63.1325 820.119 62.8818C819.828 62.6312 819.459 62.5059 819.012 62.5059C818.552 62.5059 818.192 62.6061 817.932 62.8066C817.672 63.0072 817.542 63.2692 817.542 63.5928C817.542 63.8981 817.663 64.1283 817.904 64.2832C818.146 64.4382 818.581 64.5863 819.21 64.7275C819.844 64.8688 820.356 65.0374 820.748 65.2334C821.14 65.4294 821.43 65.6663 821.616 65.9443C821.808 66.2178 821.904 66.5527 821.904 66.9492C821.904 67.61 821.639 68.141 821.111 68.542C820.582 68.9385 819.896 69.1367 819.053 69.1367C818.46 69.1367 817.936 69.0319 817.481 68.8223C817.025 68.6126 816.667 68.321 816.407 67.9473C816.152 67.569 816.025 67.1611 816.025 66.7236H817.289C817.312 67.1475 817.481 67.4847 817.795 67.7354C818.114 67.9814 818.533 68.1045 819.053 68.1045C819.531 68.1045 819.914 68.0088 820.201 67.8174C820.493 67.6214 820.639 67.3617 820.639 67.0381ZM825.417 59.8125V61.6035H826.798V62.5811H825.417V67.168C825.417 67.4642 825.478 67.6875 825.601 67.8379C825.724 67.9837 825.934 68.0566 826.23 68.0566C826.376 68.0566 826.577 68.0293 826.832 67.9746V69C826.499 69.0911 826.176 69.1367 825.861 69.1367C825.296 69.1367 824.87 68.9658 824.583 68.624C824.296 68.2822 824.152 67.7969 824.152 67.168V62.5811H822.805V61.6035H824.152V59.8125H825.417ZM832.738 67.0381C832.738 66.6963 832.608 66.432 832.348 66.2451C832.093 66.0537 831.644 65.8896 831.001 65.7529C830.363 65.6162 829.855 65.4521 829.477 65.2607C829.103 65.0693 828.825 64.8415 828.643 64.5771C828.465 64.3128 828.376 63.9984 828.376 63.6338C828.376 63.0277 828.632 62.515 829.142 62.0957C829.657 61.6764 830.313 61.4668 831.111 61.4668C831.949 61.4668 832.628 61.6833 833.148 62.1162C833.672 62.5492 833.934 63.1029 833.934 63.7773H832.662C832.662 63.431 832.514 63.1325 832.218 62.8818C831.926 62.6312 831.557 62.5059 831.111 62.5059C830.65 62.5059 830.29 62.6061 830.031 62.8066C829.771 63.0072 829.641 63.2692 829.641 63.5928C829.641 63.8981 829.762 64.1283 830.003 64.2832C830.245 64.4382 830.68 64.5863 831.309 64.7275C831.942 64.8688 832.455 65.0374 832.847 65.2334C833.239 65.4294 833.528 65.6663 833.715 65.9443C833.907 66.2178 834.002 66.5527 834.002 66.9492C834.002 67.61 833.738 68.141 833.209 68.542C832.681 68.9385 831.995 69.1367 831.152 69.1367C830.559 69.1367 830.035 69.0319 829.579 68.8223C829.124 68.6126 828.766 68.321 828.506 67.9473C828.251 67.569 828.123 67.1611 828.123 66.7236H829.388C829.411 67.1475 829.579 67.4847 829.894 67.7354C830.213 67.9814 830.632 68.1045 831.152 68.1045C831.63 68.1045 832.013 68.0088 832.3 67.8174C832.592 67.6214 832.738 67.3617 832.738 67.0381ZM843.989 69C843.916 68.8542 843.857 68.5944 843.811 68.2207C843.223 68.8314 842.521 69.1367 841.706 69.1367C840.976 69.1367 840.377 68.9316 839.908 68.5215C839.443 68.1068 839.211 67.5827 839.211 66.9492C839.211 66.179 839.502 65.582 840.086 65.1582C840.673 64.7298 841.498 64.5156 842.56 64.5156H843.791V63.9346C843.791 63.4925 843.658 63.1416 843.394 62.8818C843.13 62.6175 842.74 62.4854 842.225 62.4854C841.774 62.4854 841.396 62.5993 841.09 62.8271C840.785 63.055 840.632 63.3307 840.632 63.6543H839.361C839.361 63.2852 839.491 62.9297 839.751 62.5879C840.015 62.2415 840.37 61.9681 840.817 61.7676C841.268 61.5671 841.763 61.4668 842.3 61.4668C843.153 61.4668 843.82 61.681 844.303 62.1094C844.786 62.5332 845.037 63.1188 845.055 63.8662V67.2705C845.055 67.9495 845.142 68.4896 845.315 68.8906V69H843.989ZM841.89 68.0361C842.287 68.0361 842.663 67.9336 843.018 67.7285C843.374 67.5234 843.631 67.2568 843.791 66.9287V65.4111H842.799C841.25 65.4111 840.475 65.8646 840.475 66.7715C840.475 67.168 840.607 67.4779 840.872 67.7012C841.136 67.9245 841.476 68.0361 841.89 68.0361ZM848.384 61.6035L848.425 62.5332C848.99 61.8223 849.728 61.4668 850.64 61.4668C852.203 61.4668 852.991 62.3486 853.005 64.1123V69H851.74V64.1055C851.736 63.5723 851.613 63.1781 851.371 62.9229C851.134 62.6676 850.763 62.54 850.257 62.54C849.847 62.54 849.487 62.6494 849.177 62.8682C848.867 63.0869 848.626 63.374 848.452 63.7295V69H847.188V61.6035H848.384ZM854.755 65.2402C854.755 64.1055 855.024 63.194 855.561 62.5059C856.099 61.8132 856.803 61.4668 857.674 61.4668C858.54 61.4668 859.225 61.763 859.731 62.3555V58.5H860.996V69H859.834L859.772 68.207C859.266 68.8268 858.562 69.1367 857.66 69.1367C856.803 69.1367 856.104 68.7858 855.561 68.084C855.024 67.3822 854.755 66.4661 854.755 65.3359V65.2402ZM856.019 65.3838C856.019 66.2223 856.193 66.8786 856.539 67.3525C856.885 67.8265 857.364 68.0635 857.974 68.0635C858.777 68.0635 859.362 67.7035 859.731 66.9834V63.5859C859.353 62.8887 858.772 62.54 857.988 62.54C857.368 62.54 856.885 62.7793 856.539 63.2578C856.193 63.7363 856.019 64.445 856.019 65.3838ZM869.807 69.1367C868.804 69.1367 867.988 68.8086 867.359 68.1523C866.73 67.4915 866.416 66.6097 866.416 65.5068V65.2744C866.416 64.5407 866.555 63.8867 866.833 63.3125C867.116 62.7337 867.507 62.2826 868.009 61.959C868.515 61.6309 869.062 61.4668 869.649 61.4668C870.611 61.4668 871.358 61.7835 871.892 62.417C872.425 63.0505 872.691 63.9574 872.691 65.1377V65.6641H867.681C867.699 66.3932 867.911 66.9834 868.316 67.4346C868.727 67.8812 869.246 68.1045 869.875 68.1045C870.322 68.1045 870.7 68.0133 871.01 67.8311C871.32 67.6488 871.591 67.4072 871.823 67.1064L872.596 67.708C871.976 68.6605 871.046 69.1367 869.807 69.1367ZM869.649 62.5059C869.139 62.5059 868.711 62.6927 868.364 63.0664C868.018 63.4355 867.804 63.9551 867.722 64.625H871.427V64.5293C871.39 63.8867 871.217 63.39 870.907 63.0391C870.597 62.6836 870.178 62.5059 869.649 62.5059ZM875.501 61.6035L875.535 62.4238C876.077 61.7858 876.809 61.4668 877.729 61.4668C878.764 61.4668 879.468 61.8633 879.841 62.6562C880.087 62.3008 880.407 62.0137 880.798 61.7949C881.195 61.5762 881.662 61.4668 882.2 61.4668C883.822 61.4668 884.647 62.3258 884.674 64.0439V69H883.41V64.1191C883.41 63.5905 883.289 63.1963 883.047 62.9365C882.806 62.6722 882.4 62.54 881.831 62.54C881.361 62.54 880.972 62.6813 880.662 62.9639C880.352 63.2419 880.172 63.6178 880.122 64.0918V69H878.85V64.1533C878.85 63.0778 878.324 62.54 877.271 62.54C876.442 62.54 875.874 62.8932 875.569 63.5996V69H874.304V61.6035H875.501ZM891.305 69C891.232 68.8542 891.173 68.5944 891.127 68.2207C890.539 68.8314 889.837 69.1367 889.022 69.1367C888.293 69.1367 887.693 68.9316 887.224 68.5215C886.759 68.1068 886.527 67.5827 886.527 66.9492C886.527 66.179 886.818 65.582 887.402 65.1582C887.989 64.7298 888.814 64.5156 889.876 64.5156H891.107V63.9346C891.107 63.4925 890.974 63.1416 890.71 62.8818C890.446 62.6175 890.056 62.4854 889.541 62.4854C889.09 62.4854 888.712 62.5993 888.406 62.8271C888.101 63.055 887.948 63.3307 887.948 63.6543H886.677C886.677 63.2852 886.807 62.9297 887.067 62.5879C887.331 62.2415 887.686 61.9681 888.133 61.7676C888.584 61.5671 889.079 61.4668 889.616 61.4668C890.469 61.4668 891.136 61.681 891.619 62.1094C892.102 62.5332 892.353 63.1188 892.371 63.8662V67.2705C892.371 67.9495 892.458 68.4896 892.631 68.8906V69H891.305ZM889.206 68.0361C889.603 68.0361 889.979 67.9336 890.334 67.7285C890.69 67.5234 890.947 67.2568 891.107 66.9287V65.4111H890.115C888.566 65.4111 887.791 65.8646 887.791 66.7715C887.791 67.168 887.923 67.4779 888.188 67.7012C888.452 67.9245 888.792 68.0361 889.206 68.0361ZM895.878 69H894.613V61.6035H895.878V69ZM894.511 59.6416C894.511 59.4365 894.572 59.2633 894.695 59.1221C894.823 58.9808 895.01 58.9102 895.256 58.9102C895.502 58.9102 895.689 58.9808 895.816 59.1221C895.944 59.2633 896.008 59.4365 896.008 59.6416C896.008 59.8467 895.944 60.0176 895.816 60.1543C895.689 60.291 895.502 60.3594 895.256 60.3594C895.01 60.3594 894.823 60.291 894.695 60.1543C894.572 60.0176 894.511 59.8467 894.511 59.6416ZM899.432 69H898.167V58.5H899.432V69ZM901.571 70.9824L900.854 70.4902C901.282 69.8932 901.505 69.278 901.523 68.6445V67.5029H902.761V68.4941C902.761 68.9544 902.647 69.4147 902.419 69.875C902.196 70.3353 901.913 70.7044 901.571 70.9824ZM911.1 68.1045C911.551 68.1045 911.945 67.9678 912.282 67.6943C912.62 67.4209 912.806 67.0791 912.843 66.6689H914.039C914.016 67.0928 913.871 67.4961 913.602 67.8789C913.333 68.2617 912.973 68.5671 912.522 68.7949C912.075 69.0228 911.601 69.1367 911.1 69.1367C910.093 69.1367 909.291 68.8018 908.694 68.1318C908.101 67.4574 907.805 66.5368 907.805 65.3701V65.1582C907.805 64.4382 907.937 63.7979 908.201 63.2373C908.466 62.6768 908.844 62.2415 909.336 61.9316C909.833 61.6217 910.418 61.4668 911.093 61.4668C911.922 61.4668 912.611 61.7152 913.157 62.2119C913.709 62.7087 914.003 63.3535 914.039 64.1465H912.843C912.806 63.668 912.624 63.276 912.296 62.9707C911.973 62.6608 911.571 62.5059 911.093 62.5059C910.45 62.5059 909.951 62.7383 909.596 63.2031C909.245 63.6634 909.07 64.3311 909.07 65.2061V65.4453C909.07 66.2975 909.245 66.9538 909.596 67.4141C909.947 67.8743 910.448 68.1045 911.1 68.1045ZM916.985 69H915.721V58.5H916.985V69ZM920.539 69H919.275V61.6035H920.539V69ZM919.172 59.6416C919.172 59.4365 919.234 59.2633 919.357 59.1221C919.484 58.9808 919.671 58.9102 919.917 58.9102C920.163 58.9102 920.35 58.9808 920.478 59.1221C920.606 59.2633 920.669 59.4365 920.669 59.6416C920.669 59.8467 920.606 60.0176 920.478 60.1543C920.35 60.291 920.163 60.3594 919.917 60.3594C919.671 60.3594 919.484 60.291 919.357 60.1543C919.234 60.0176 919.172 59.8467 919.172 59.6416ZM925.687 68.1045C926.138 68.1045 926.532 67.9678 926.869 67.6943C927.206 67.4209 927.393 67.0791 927.43 66.6689H928.626C928.603 67.0928 928.457 67.4961 928.188 67.8789C927.92 68.2617 927.56 68.5671 927.108 68.7949C926.662 69.0228 926.188 69.1367 925.687 69.1367C924.679 69.1367 923.877 68.8018 923.28 68.1318C922.688 67.4574 922.392 66.5368 922.392 65.3701V65.1582C922.392 64.4382 922.524 63.7979 922.788 63.2373C923.052 62.6768 923.431 62.2415 923.923 61.9316C924.42 61.6217 925.005 61.4668 925.68 61.4668C926.509 61.4668 927.197 61.7152 927.744 62.2119C928.296 62.7087 928.59 63.3535 928.626 64.1465H927.43C927.393 63.668 927.211 63.276 926.883 62.9707C926.559 62.6608 926.158 62.5059 925.68 62.5059C925.037 62.5059 924.538 62.7383 924.183 63.2031C923.832 63.6634 923.656 64.3311 923.656 65.2061V65.4453C923.656 66.2975 923.832 66.9538 924.183 67.4141C924.534 67.8743 925.035 68.1045 925.687 68.1045ZM932.262 65.5752L931.469 66.4023V69H930.205V58.5H931.469V64.8506L932.146 64.0371L934.45 61.6035H935.988L933.11 64.6934L936.323 69H934.839L932.262 65.5752ZM819.244 84.1045C819.695 84.1045 820.089 83.9678 820.426 83.6943C820.763 83.4209 820.95 83.0791 820.987 82.6689H822.183C822.16 83.0928 822.014 83.4961 821.746 83.8789C821.477 84.2617 821.117 84.5671 820.665 84.7949C820.219 85.0228 819.745 85.1367 819.244 85.1367C818.236 85.1367 817.434 84.8018 816.837 84.1318C816.245 83.4574 815.949 82.5368 815.949 81.3701V81.1582C815.949 80.4382 816.081 79.7979 816.345 79.2373C816.609 78.6768 816.988 78.2415 817.48 77.9316C817.977 77.6217 818.562 77.4668 819.237 77.4668C820.066 77.4668 820.754 77.7152 821.301 78.2119C821.853 78.7087 822.147 79.3535 822.183 80.1465H820.987C820.95 79.668 820.768 79.276 820.44 78.9707C820.116 78.6608 819.715 78.5059 819.237 78.5059C818.594 78.5059 818.095 78.7383 817.74 79.2031C817.389 79.6634 817.213 80.3311 817.213 81.2061V81.4453C817.213 82.2975 817.389 82.9538 817.74 83.4141C818.091 83.8743 818.592 84.1045 819.244 84.1045ZM823.42 81.2334C823.42 80.5088 823.561 79.8571 823.844 79.2783C824.131 78.6995 824.527 78.2529 825.033 77.9385C825.544 77.624 826.125 77.4668 826.776 77.4668C827.784 77.4668 828.597 77.8154 829.217 78.5127C829.841 79.21 830.153 80.1374 830.153 81.2949V81.3838C830.153 82.1038 830.014 82.751 829.736 83.3252C829.463 83.8949 829.069 84.3392 828.554 84.6582C828.043 84.9772 827.455 85.1367 826.79 85.1367C825.787 85.1367 824.974 84.7881 824.35 84.0908C823.73 83.3936 823.42 82.4707 823.42 81.3223V81.2334ZM824.691 81.3838C824.691 82.2041 824.881 82.8626 825.259 83.3594C825.642 83.8561 826.152 84.1045 826.79 84.1045C827.433 84.1045 827.943 83.8538 828.321 83.3525C828.7 82.8467 828.889 82.1403 828.889 81.2334C828.889 80.4222 828.695 79.766 828.308 79.2646C827.925 78.7588 827.414 78.5059 826.776 78.5059C826.152 78.5059 825.648 78.7542 825.266 79.251C824.883 79.7477 824.691 80.4587 824.691 81.3838ZM833.086 77.6035L833.127 78.5332C833.692 77.8223 834.43 77.4668 835.341 77.4668C836.905 77.4668 837.693 78.3486 837.707 80.1123V85H836.442V80.1055C836.437 79.5723 836.314 79.1781 836.073 78.9229C835.836 78.6676 835.464 78.54 834.959 78.54C834.548 78.54 834.188 78.6494 833.879 78.8682C833.569 79.0869 833.327 79.374 833.154 79.7295V85H831.889V77.6035H833.086ZM840.188 85V78.5811H839.019V77.6035H840.188V76.9746C840.188 76.1497 840.422 75.5072 840.892 75.0469C841.366 74.5866 842.033 74.3564 842.895 74.3564C843.405 74.3564 844.05 74.4954 844.829 74.7734L844.617 75.8398C844.048 75.612 843.505 75.498 842.99 75.498C842.448 75.498 842.056 75.6211 841.815 75.8672C841.578 76.1087 841.459 76.4733 841.459 76.9609V77.6035H842.97V78.5811H841.459V85H840.188ZM845.458 85H844.187V77.6035H845.458V85ZM851.241 78.7383C851.05 78.7064 850.842 78.6904 850.619 78.6904C849.79 78.6904 849.227 79.0436 848.93 79.75V85H847.666V77.6035H848.896L848.917 78.458C849.332 77.7972 849.919 77.4668 850.68 77.4668C850.927 77.4668 851.113 77.4987 851.241 77.5625V78.7383ZM853.749 77.6035L853.784 78.4238C854.326 77.7858 855.057 77.4668 855.978 77.4668C857.012 77.4668 857.717 77.8633 858.09 78.6562C858.336 78.3008 858.655 78.0137 859.047 77.7949C859.444 77.5762 859.911 77.4668 860.449 77.4668C862.071 77.4668 862.896 78.3258 862.923 80.0439V85H861.659V80.1191C861.659 79.5905 861.538 79.1963 861.296 78.9365C861.055 78.6722 860.649 78.54 860.079 78.54C859.61 78.54 859.22 78.6813 858.911 78.9639C858.601 79.2419 858.421 79.6178 858.371 80.0918V85H857.099V80.1533C857.099 79.0778 856.573 78.54 855.52 78.54C854.69 78.54 854.123 78.8932 853.818 79.5996V85H852.553V77.6035H853.749Z" fill="black"/>
<rect x="278.5" y="40.5" width="94" height="59" rx="4.5" fill="#E9E9E9" stroke="#ABABAB"/>
<path d="M293.316 70.5566H289.228V73.6191H294.006V75H287.498V65.0469H293.958V66.4414H289.228V69.1895H293.316V70.5566ZM297.867 72.8945L299.433 67.6035H301.149L298.585 75H297.143L294.559 67.6035H296.281L297.867 72.8945ZM305.536 75.1367C304.483 75.1367 303.629 74.8063 302.972 74.1455C302.321 73.4801 301.995 72.596 301.995 71.4932V71.2881C301.995 70.5498 302.136 69.8913 302.419 69.3125C302.706 68.7292 303.107 68.2757 303.622 67.9521C304.137 67.6286 304.711 67.4668 305.345 67.4668C306.352 67.4668 307.129 67.7881 307.676 68.4307C308.227 69.0732 308.503 69.9824 308.503 71.1582V71.8281H303.67C303.72 72.4388 303.923 72.9219 304.278 73.2773C304.638 73.6328 305.089 73.8105 305.632 73.8105C306.393 73.8105 307.012 73.5029 307.491 72.8877L308.387 73.7422C308.09 74.1842 307.694 74.5283 307.197 74.7744C306.705 75.016 306.151 75.1367 305.536 75.1367ZM305.338 68.7998C304.882 68.7998 304.513 68.9593 304.23 69.2783C303.952 69.5973 303.775 70.0417 303.697 70.6113H306.862V70.4883C306.826 69.9323 306.678 69.513 306.418 69.2305C306.158 68.9434 305.798 68.7998 305.338 68.7998ZM311.523 67.6035L311.571 68.458C312.118 67.7972 312.835 67.4668 313.724 67.4668C315.265 67.4668 316.048 68.3486 316.076 70.1123V75H314.415V70.208C314.415 69.7386 314.312 69.3923 314.107 69.1689C313.906 68.9411 313.576 68.8271 313.116 68.8271C312.446 68.8271 311.947 69.1302 311.619 69.7363V75H309.958V67.6035H311.523ZM320.039 65.8057V67.6035H321.345V68.834H320.039V72.9629C320.039 73.2454 320.094 73.4505 320.203 73.5781C320.317 73.7012 320.518 73.7627 320.805 73.7627C320.996 73.7627 321.19 73.7399 321.386 73.6943V74.9795C321.008 75.0843 320.643 75.1367 320.292 75.1367C319.016 75.1367 318.378 74.4326 318.378 73.0244V68.834H317.161V67.6035H318.378V65.8057H320.039ZM326.949 72.9902C326.949 72.694 326.826 72.4684 326.58 72.3135C326.339 72.1585 325.935 72.0218 325.37 71.9033C324.805 71.7848 324.333 71.6344 323.955 71.4521C323.126 71.0511 322.711 70.4701 322.711 69.709C322.711 69.071 322.98 68.5378 323.518 68.1094C324.055 67.681 324.739 67.4668 325.568 67.4668C326.452 67.4668 327.166 67.6855 327.708 68.123C328.255 68.5605 328.528 69.1279 328.528 69.8252H326.867C326.867 69.5062 326.749 69.2419 326.512 69.0322C326.275 68.818 325.96 68.7109 325.568 68.7109C325.204 68.7109 324.905 68.7952 324.673 68.9639C324.445 69.1325 324.331 69.3581 324.331 69.6406C324.331 69.8958 324.438 70.0941 324.652 70.2354C324.867 70.3766 325.299 70.5202 325.951 70.666C326.603 70.8073 327.113 70.9782 327.482 71.1787C327.856 71.3747 328.132 71.6117 328.31 71.8896C328.492 72.1676 328.583 72.5049 328.583 72.9014C328.583 73.5667 328.307 74.1068 327.756 74.5215C327.204 74.9316 326.482 75.1367 325.589 75.1367C324.983 75.1367 324.443 75.0273 323.969 74.8086C323.495 74.5898 323.126 74.2891 322.861 73.9062C322.597 73.5234 322.465 73.111 322.465 72.6689H324.078C324.101 73.0609 324.249 73.3639 324.522 73.5781C324.796 73.7878 325.158 73.8926 325.609 73.8926C326.047 73.8926 326.38 73.8105 326.607 73.6465C326.835 73.4779 326.949 73.2591 326.949 72.9902ZM340.366 71.377C340.366 72.5208 340.106 73.4346 339.586 74.1182C339.067 74.7972 338.37 75.1367 337.495 75.1367C336.683 75.1367 336.034 74.8701 335.546 74.3369V77.8438H333.885V67.6035H335.416L335.485 68.3555C335.972 67.763 336.636 67.4668 337.474 67.4668C338.376 67.4668 339.083 67.804 339.593 68.4785C340.108 69.1484 340.366 70.0804 340.366 71.2744V71.377ZM338.711 71.2334C338.711 70.4951 338.563 69.9095 338.267 69.4766C337.975 69.0436 337.556 68.8271 337.009 68.8271C336.33 68.8271 335.843 69.1074 335.546 69.668V72.9492C335.847 73.5234 336.339 73.8105 337.023 73.8105C337.552 73.8105 337.964 73.5986 338.26 73.1748C338.561 72.7464 338.711 72.0993 338.711 71.2334ZM346.38 75C346.307 74.8587 346.243 74.6286 346.189 74.3096C345.66 74.861 345.013 75.1367 344.247 75.1367C343.504 75.1367 342.898 74.9248 342.429 74.501C341.96 74.0771 341.725 73.5531 341.725 72.9287C341.725 72.1403 342.016 71.5365 342.6 71.1172C343.188 70.6934 344.026 70.4814 345.115 70.4814H346.134V69.9961C346.134 69.6133 346.027 69.3079 345.813 69.0801C345.599 68.8477 345.273 68.7314 344.835 68.7314C344.457 68.7314 344.147 68.8271 343.905 69.0186C343.664 69.2054 343.543 69.4447 343.543 69.7363H341.882C341.882 69.3307 342.016 68.9525 342.285 68.6016C342.554 68.2461 342.919 67.9681 343.379 67.7676C343.844 67.5671 344.361 67.4668 344.931 67.4668C345.797 67.4668 346.487 67.6855 347.002 68.123C347.517 68.556 347.781 69.1667 347.795 69.9551V73.291C347.795 73.9564 347.889 74.4873 348.075 74.8838V75H346.38ZM344.555 73.8037C344.883 73.8037 345.191 73.724 345.478 73.5645C345.769 73.4049 345.988 73.1908 346.134 72.9219V71.5273H345.238C344.623 71.5273 344.161 71.6344 343.851 71.8486C343.541 72.0628 343.386 72.3659 343.386 72.7578C343.386 73.0768 343.491 73.332 343.7 73.5234C343.915 73.7103 344.199 73.8037 344.555 73.8037ZM349.428 71.2471C349.428 70.0986 349.697 69.1826 350.234 68.499C350.777 67.8109 351.494 67.4668 352.388 67.4668C353.231 67.4668 353.894 67.7607 354.377 68.3486L354.452 67.6035H355.949V74.7744C355.949 75.7451 355.646 76.5107 355.04 77.0713C354.438 77.6318 353.625 77.9121 352.6 77.9121C352.057 77.9121 351.526 77.7982 351.007 77.5703C350.492 77.347 350.1 77.0531 349.831 76.6885L350.617 75.6904C351.128 76.2965 351.756 76.5996 352.504 76.5996C353.055 76.5996 353.49 76.4492 353.81 76.1484C354.129 75.8522 354.288 75.4147 354.288 74.8359V74.3369C353.81 74.8701 353.171 75.1367 352.374 75.1367C351.508 75.1367 350.799 74.7926 350.248 74.1045C349.701 73.4163 349.428 72.4639 349.428 71.2471ZM351.082 71.3906C351.082 72.1335 351.232 72.7191 351.533 73.1475C351.838 73.5713 352.26 73.7832 352.798 73.7832C353.468 73.7832 353.964 73.4961 354.288 72.9219V69.668C353.974 69.1074 353.481 68.8271 352.811 68.8271C352.265 68.8271 351.838 69.0436 351.533 69.4766C351.232 69.9095 351.082 70.5475 351.082 71.3906ZM361.102 75.1367C360.049 75.1367 359.195 74.8063 358.539 74.1455C357.887 73.4801 357.561 72.596 357.561 71.4932V71.2881C357.561 70.5498 357.702 69.8913 357.985 69.3125C358.272 68.7292 358.673 68.2757 359.188 67.9521C359.703 67.6286 360.277 67.4668 360.911 67.4668C361.918 67.4668 362.695 67.7881 363.242 68.4307C363.793 69.0732 364.069 69.9824 364.069 71.1582V71.8281H359.236C359.286 72.4388 359.489 72.9219 359.844 73.2773C360.204 73.6328 360.656 73.8105 361.198 73.8105C361.959 73.8105 362.579 73.5029 363.057 72.8877L363.953 73.7422C363.657 74.1842 363.26 74.5283 362.763 74.7744C362.271 75.016 361.717 75.1367 361.102 75.1367ZM360.904 68.7998C360.448 68.7998 360.079 68.9593 359.797 69.2783C359.519 69.5973 359.341 70.0417 359.263 70.6113H362.428V70.4883C362.392 69.9323 362.244 69.513 361.984 69.2305C361.724 68.9434 361.364 68.7998 360.904 68.7998Z" fill="#383838"/>
<rect x="551.5" y="43.5" width="145" height="59" rx="4.5" fill="#E9E9E9" stroke="#ABABAB"/>
<path d="M567.467 75.4365C567.467 74.999 567.312 74.6618 567.002 74.4248C566.697 74.1878 566.143 73.9486 565.341 73.707C564.539 73.4655 563.901 73.1966 563.427 72.9004C562.52 72.3307 562.067 71.5879 562.067 70.6719C562.067 69.8698 562.393 69.209 563.044 68.6895C563.7 68.1699 564.55 67.9102 565.594 67.9102C566.287 67.9102 566.904 68.0378 567.447 68.293C567.989 68.5482 568.415 68.9128 568.725 69.3867C569.035 69.8561 569.19 70.3779 569.19 70.9521H567.467C567.467 70.4326 567.303 70.027 566.975 69.7354C566.651 69.4391 566.186 69.291 565.58 69.291C565.015 69.291 564.575 69.4118 564.261 69.6533C563.951 69.8949 563.796 70.2321 563.796 70.665C563.796 71.0296 563.965 71.335 564.302 71.5811C564.639 71.8226 565.195 72.0596 565.97 72.292C566.745 72.5199 567.367 72.7819 567.836 73.0781C568.306 73.3698 568.65 73.707 568.868 74.0898C569.087 74.4681 569.197 74.9124 569.197 75.4229C569.197 76.2523 568.878 76.9131 568.24 77.4053C567.606 77.8929 566.745 78.1367 565.656 78.1367C564.935 78.1367 564.272 78.0046 563.666 77.7402C563.065 77.4714 562.595 77.1022 562.258 76.6328C561.925 76.1634 561.759 75.6165 561.759 74.9922H563.489C563.489 75.5573 563.675 75.9948 564.049 76.3047C564.423 76.6146 564.958 76.7695 565.656 76.7695C566.257 76.7695 566.708 76.6488 567.009 76.4072C567.314 76.1611 567.467 75.8376 567.467 75.4365ZM577.214 74.377C577.214 75.5208 576.954 76.4346 576.435 77.1182C575.915 77.7972 575.218 78.1367 574.343 78.1367C573.532 78.1367 572.882 77.8701 572.395 77.3369V80.8438H570.733V70.6035H572.265L572.333 71.3555C572.821 70.763 573.484 70.4668 574.322 70.4668C575.225 70.4668 575.931 70.804 576.441 71.4785C576.956 72.1484 577.214 73.0804 577.214 74.2744V74.377ZM575.56 74.2334C575.56 73.4951 575.411 72.9095 575.115 72.4766C574.824 72.0436 574.404 71.8271 573.857 71.8271C573.178 71.8271 572.691 72.1074 572.395 72.668V75.9492C572.695 76.5234 573.187 76.8105 573.871 76.8105C574.4 76.8105 574.812 76.5986 575.108 76.1748C575.409 75.7464 575.56 75.0993 575.56 74.2334ZM582.066 78.1367C581.013 78.1367 580.159 77.8063 579.503 77.1455C578.851 76.4801 578.525 75.596 578.525 74.4932V74.2881C578.525 73.5498 578.666 72.8913 578.949 72.3125C579.236 71.7292 579.637 71.2757 580.152 70.9521C580.667 70.6286 581.241 70.4668 581.875 70.4668C582.882 70.4668 583.659 70.7881 584.206 71.4307C584.757 72.0732 585.033 72.9824 585.033 74.1582V74.8281H580.2C580.25 75.4388 580.453 75.9219 580.808 76.2773C581.168 76.6328 581.62 76.8105 582.162 76.8105C582.923 76.8105 583.543 76.5029 584.021 75.8877L584.917 76.7422C584.621 77.1842 584.224 77.5283 583.727 77.7744C583.235 78.016 582.681 78.1367 582.066 78.1367ZM581.868 71.7998C581.412 71.7998 581.043 71.9593 580.76 72.2783C580.482 72.5973 580.305 73.0417 580.227 73.6113H583.392V73.4883C583.356 72.9323 583.208 72.513 582.948 72.2305C582.688 71.9434 582.328 71.7998 581.868 71.7998ZM589.55 76.8105C589.965 76.8105 590.309 76.6898 590.582 76.4482C590.856 76.2067 591.002 75.9082 591.02 75.5527H592.585C592.567 76.013 592.424 76.4437 592.155 76.8447C591.886 77.2412 591.521 77.5557 591.061 77.7881C590.601 78.0205 590.104 78.1367 589.571 78.1367C588.536 78.1367 587.716 77.8018 587.11 77.1318C586.504 76.4619 586.201 75.5368 586.201 74.3564V74.1855C586.201 73.0599 586.501 72.1598 587.103 71.4854C587.705 70.8063 588.525 70.4668 589.564 70.4668C590.443 70.4668 591.159 70.7243 591.71 71.2393C592.266 71.7497 592.558 72.4219 592.585 73.2559H591.02C591.002 72.832 590.856 72.4834 590.582 72.21C590.314 71.9365 589.97 71.7998 589.55 71.7998C589.012 71.7998 588.598 71.9958 588.306 72.3877C588.014 72.7751 587.866 73.3652 587.862 74.1582V74.4248C587.862 75.2269 588.005 75.8262 588.292 76.2227C588.584 76.6146 589.003 76.8105 589.55 76.8105ZM595.79 78H594.129V70.6035H595.79V78ZM594.027 68.6826C594.027 68.4274 594.106 68.2155 594.266 68.0469C594.43 67.8783 594.662 67.7939 594.963 67.7939C595.264 67.7939 595.496 67.8783 595.66 68.0469C595.824 68.2155 595.906 68.4274 595.906 68.6826C595.906 68.9333 595.824 69.1429 595.66 69.3115C595.496 69.4756 595.264 69.5576 594.963 69.5576C594.662 69.5576 594.43 69.4756 594.266 69.3115C594.106 69.1429 594.027 68.9333 594.027 68.6826ZM598.229 78V71.834H597.101V70.6035H598.229V70.0977C598.234 69.5189 598.357 69.0221 598.599 68.6074C598.84 68.1927 599.182 67.8805 599.624 67.6709C600.066 67.4613 600.597 67.3564 601.217 67.3564C601.581 67.3564 601.93 67.3952 602.263 67.4727C602.6 67.5501 602.949 67.6481 603.309 67.7666L603.056 69.1406C602.427 68.9219 601.852 68.8125 601.333 68.8125C600.827 68.8125 600.46 68.9242 600.232 69.1475C600.004 69.3662 599.891 69.6966 599.891 70.1387V70.6035H601.347V71.834H599.891V78H598.229ZM604.095 78H602.434V70.6035H604.095V78ZM609.159 76.8105C609.574 76.8105 609.918 76.6898 610.191 76.4482C610.465 76.2067 610.61 75.9082 610.629 75.5527H612.194C612.176 76.013 612.032 76.4437 611.763 76.8447C611.494 77.2412 611.13 77.5557 610.67 77.7881C610.209 78.0205 609.713 78.1367 609.179 78.1367C608.145 78.1367 607.325 77.8018 606.718 77.1318C606.112 76.4619 605.809 75.5368 605.809 74.3564V74.1855C605.809 73.0599 606.11 72.1598 606.712 71.4854C607.313 70.8063 608.133 70.4668 609.173 70.4668C610.052 70.4668 610.768 70.7243 611.319 71.2393C611.875 71.7497 612.167 72.4219 612.194 73.2559H610.629C610.61 72.832 610.465 72.4834 610.191 72.21C609.922 71.9365 609.578 71.7998 609.159 71.7998C608.621 71.7998 608.206 71.9958 607.915 72.3877C607.623 72.7751 607.475 73.3652 607.47 74.1582V74.4248C607.47 75.2269 607.614 75.8262 607.901 76.2227C608.193 76.6146 608.612 76.8105 609.159 76.8105ZM620.559 78.1367C619.506 78.1367 618.651 77.8063 617.995 77.1455C617.344 76.4801 617.018 75.596 617.018 74.4932V74.2881C617.018 73.5498 617.159 72.8913 617.442 72.3125C617.729 71.7292 618.13 71.2757 618.645 70.9521C619.16 70.6286 619.734 70.4668 620.367 70.4668C621.374 70.4668 622.151 70.7881 622.698 71.4307C623.25 72.0732 623.526 72.9824 623.526 74.1582V74.8281H618.693C618.743 75.4388 618.945 75.9219 619.301 76.2773C619.661 76.6328 620.112 76.8105 620.654 76.8105C621.415 76.8105 622.035 76.5029 622.514 75.8877L623.409 76.7422C623.113 77.1842 622.717 77.5283 622.22 77.7744C621.728 78.016 621.174 78.1367 620.559 78.1367ZM620.36 71.7998C619.905 71.7998 619.536 71.9593 619.253 72.2783C618.975 72.5973 618.797 73.0417 618.72 73.6113H621.885V73.4883C621.848 72.9323 621.7 72.513 621.441 72.2305C621.181 71.9434 620.821 71.7998 620.36 71.7998ZM627.516 75.8945L629.082 70.6035H630.798L628.234 78H626.792L624.208 70.6035H625.931L627.516 75.8945ZM635.185 78.1367C634.132 78.1367 633.278 77.8063 632.622 77.1455C631.97 76.4801 631.644 75.596 631.644 74.4932V74.2881C631.644 73.5498 631.785 72.8913 632.068 72.3125C632.355 71.7292 632.756 71.2757 633.271 70.9521C633.786 70.6286 634.36 70.4668 634.994 70.4668C636.001 70.4668 636.778 70.7881 637.325 71.4307C637.876 72.0732 638.152 72.9824 638.152 74.1582V74.8281H633.319C633.369 75.4388 633.572 75.9219 633.927 76.2773C634.287 76.6328 634.739 76.8105 635.281 76.8105C636.042 76.8105 636.662 76.5029 637.14 75.8877L638.036 76.7422C637.74 77.1842 637.343 77.5283 636.846 77.7744C636.354 78.016 635.8 78.1367 635.185 78.1367ZM634.987 71.7998C634.531 71.7998 634.162 71.9593 633.879 72.2783C633.601 72.5973 633.424 73.0417 633.346 73.6113H636.511V73.4883C636.475 72.9323 636.327 72.513 636.067 72.2305C635.807 71.9434 635.447 71.7998 634.987 71.7998ZM641.172 70.6035L641.22 71.458C641.767 70.7972 642.485 70.4668 643.373 70.4668C644.914 70.4668 645.698 71.3486 645.725 73.1123V78H644.064V73.208C644.064 72.7386 643.961 72.3923 643.756 72.1689C643.556 71.9411 643.225 71.8271 642.765 71.8271C642.095 71.8271 641.596 72.1302 641.268 72.7363V78H639.607V70.6035H641.172ZM649.689 68.8057V70.6035H650.994V71.834H649.689V75.9629C649.689 76.2454 649.743 76.4505 649.853 76.5781C649.967 76.7012 650.167 76.7627 650.454 76.7627C650.646 76.7627 650.839 76.7399 651.035 76.6943V77.9795C650.657 78.0843 650.292 78.1367 649.941 78.1367C648.665 78.1367 648.027 77.4326 648.027 76.0244V71.834H646.811V70.6035H648.027V68.8057H649.689ZM662.599 74.377C662.599 75.5208 662.339 76.4346 661.82 77.1182C661.3 77.7972 660.603 78.1367 659.728 78.1367C658.917 78.1367 658.267 77.8701 657.78 77.3369V80.8438H656.119V70.6035H657.65L657.718 71.3555C658.206 70.763 658.869 70.4668 659.708 70.4668C660.61 70.4668 661.316 70.804 661.827 71.4785C662.342 72.1484 662.599 73.0804 662.599 74.2744V74.377ZM660.945 74.2334C660.945 73.4951 660.797 72.9095 660.501 72.4766C660.209 72.0436 659.79 71.8271 659.243 71.8271C658.564 71.8271 658.076 72.1074 657.78 72.668V75.9492C658.081 76.5234 658.573 76.8105 659.256 76.8105C659.785 76.8105 660.197 76.5986 660.494 76.1748C660.794 75.7464 660.945 75.0993 660.945 74.2334ZM668.614 78C668.541 77.8587 668.477 77.6286 668.422 77.3096C667.893 77.861 667.246 78.1367 666.481 78.1367C665.738 78.1367 665.132 77.9248 664.662 77.501C664.193 77.0771 663.958 76.5531 663.958 75.9287C663.958 75.1403 664.25 74.5365 664.833 74.1172C665.421 73.6934 666.26 73.4814 667.349 73.4814H668.367V72.9961C668.367 72.6133 668.26 72.3079 668.046 72.0801C667.832 71.8477 667.506 71.7314 667.069 71.7314C666.69 71.7314 666.38 71.8271 666.139 72.0186C665.897 72.2054 665.777 72.4447 665.777 72.7363H664.115C664.115 72.3307 664.25 71.9525 664.519 71.6016C664.788 71.2461 665.152 70.9681 665.613 70.7676C666.077 70.5671 666.595 70.4668 667.164 70.4668C668.03 70.4668 668.721 70.6855 669.236 71.123C669.751 71.556 670.015 72.1667 670.029 72.9551V76.291C670.029 76.9564 670.122 77.4873 670.309 77.8838V78H668.614ZM666.788 76.8037C667.116 76.8037 667.424 76.724 667.711 76.5645C668.003 76.4049 668.222 76.1908 668.367 75.9219V74.5273H667.472C666.857 74.5273 666.394 74.6344 666.084 74.8486C665.774 75.0628 665.619 75.3659 665.619 75.7578C665.619 76.0768 665.724 76.332 665.934 76.5234C666.148 76.7103 666.433 76.8037 666.788 76.8037ZM671.661 74.2471C671.661 73.0986 671.93 72.1826 672.468 71.499C673.01 70.8109 673.728 70.4668 674.621 70.4668C675.464 70.4668 676.127 70.7607 676.61 71.3486L676.686 70.6035H678.183V77.7744C678.183 78.7451 677.88 79.5107 677.273 80.0713C676.672 80.6318 675.858 80.9121 674.833 80.9121C674.291 80.9121 673.76 80.7982 673.24 80.5703C672.725 80.347 672.333 80.0531 672.064 79.6885L672.851 78.6904C673.361 79.2965 673.99 79.5996 674.737 79.5996C675.289 79.5996 675.724 79.4492 676.043 79.1484C676.362 78.8522 676.521 78.4147 676.521 77.8359V77.3369C676.043 77.8701 675.405 78.1367 674.607 78.1367C673.742 78.1367 673.033 77.7926 672.481 77.1045C671.935 76.4163 671.661 75.4639 671.661 74.2471ZM673.315 74.3906C673.315 75.1335 673.466 75.7191 673.767 76.1475C674.072 76.5713 674.493 76.7832 675.031 76.7832C675.701 76.7832 676.198 76.4961 676.521 75.9219V72.668C676.207 72.1074 675.715 71.8271 675.045 71.8271C674.498 71.8271 674.072 72.0436 673.767 72.4766C673.466 72.9095 673.315 73.5475 673.315 74.3906ZM683.336 78.1367C682.283 78.1367 681.428 77.8063 680.772 77.1455C680.121 76.4801 679.795 75.596 679.795 74.4932V74.2881C679.795 73.5498 679.936 72.8913 680.218 72.3125C680.506 71.7292 680.907 71.2757 681.422 70.9521C681.937 70.6286 682.511 70.4668 683.144 70.4668C684.151 70.4668 684.928 70.7881 685.475 71.4307C686.027 72.0732 686.302 72.9824 686.302 74.1582V74.8281H681.469C681.52 75.4388 681.722 75.9219 682.078 76.2773C682.438 76.6328 682.889 76.8105 683.431 76.8105C684.192 76.8105 684.812 76.5029 685.291 75.8877L686.186 76.7422C685.89 77.1842 685.494 77.5283 684.997 77.7744C684.505 78.016 683.951 78.1367 683.336 78.1367ZM683.137 71.7998C682.682 71.7998 682.313 71.9593 682.03 72.2783C681.752 72.5973 681.574 73.0417 681.497 73.6113H684.662V73.4883C684.625 72.9323 684.477 72.513 684.218 72.2305C683.958 71.9434 683.598 71.7998 683.137 71.7998Z" fill="#383838"/>
</svg>
