<svg width="599" height="116" viewBox="0 0 599 116" fill="none" xmlns="http://www.w3.org/2000/svg">
<rect width="586.055" height="104" fill="#2A3243"/>
<rect x="13.945" y="13" width="584.055" height="102" fill="white" stroke="#2A3243" stroke-width="2"/>
<path d="M35.359 50.44H46.543C49.999 50.44 52.575 51.16 54.271 52.6C55.999 54.04 56.863 56.12 56.863 58.84C56.863 60.696 56.351 62.264 55.327 63.544C54.335 64.824 52.911 65.656 51.055 66.04V66.088C53.103 66.408 54.719 67.24 55.903 68.584C57.119 69.928 57.727 71.592 57.727 73.576C57.727 76.296 56.751 78.408 54.799 79.912C52.879 81.384 50.127 82.12 46.543 82.12H35.359V50.44ZM46.591 65.032C51.743 65.032 54.319 62.968 54.319 58.84C54.319 54.712 51.743 52.648 46.591 52.648H37.759V65.032H46.591ZM47.023 79.912C49.711 79.912 51.743 79.368 53.119 78.28C54.495 77.192 55.183 75.624 55.183 73.576C55.183 71.496 54.495 69.928 53.119 68.872C51.743 67.784 49.711 67.24 47.023 67.24H37.759V79.912H47.023ZM90.0333 72.184H74.8653L70.9293 82.12H68.3853L81.0573 50.44H83.8893L96.5613 82.12H94.0173L90.0333 72.184ZM89.1693 69.976L83.6493 56.152L82.4973 52.792H82.4493L81.2973 56.056L75.7773 69.976H89.1693ZM115.648 69.784V82.12H113.248V69.784L102.016 50.44H104.848L114.448 67.288L124.048 50.44H126.88L115.648 69.784ZM169.562 82.12H166.73L154.49 50.44H157.082L166.442 74.968L168.122 79.864L169.802 74.968L179.21 50.44H181.754L169.562 82.12ZM197.462 82.12H195.062V50.44H197.462V82.12ZM237.053 79.912V82.12H214.637V50.44H236.285V52.648H217.037V64.888H232.253V67.144H217.037V79.912H237.053ZM260.54 82.12H257.564L247.676 50.44H250.268L259.052 80.152L267.356 50.44H270.14L278.444 80.2L287.324 50.44H289.772L279.884 82.12H276.908L270.524 59.896L268.748 53.032H268.7L266.924 59.896L260.54 82.12ZM324.175 50.44H335.359C338.815 50.44 341.391 51.16 343.087 52.6C344.815 54.04 345.679 56.12 345.679 58.84C345.679 60.696 345.167 62.264 344.143 63.544C343.151 64.824 341.727 65.656 339.871 66.04V66.088C341.919 66.408 343.535 67.24 344.719 68.584C345.935 69.928 346.543 71.592 346.543 73.576C346.543 76.296 345.567 78.408 343.615 79.912C341.695 81.384 338.943 82.12 335.359 82.12H324.175V50.44ZM335.407 65.032C340.559 65.032 343.135 62.968 343.135 58.84C343.135 54.712 340.559 52.648 335.407 52.648H326.575V65.032H335.407ZM335.839 79.912C338.527 79.912 340.559 79.368 341.935 78.28C343.311 77.192 343.999 75.624 343.999 73.576C343.999 71.496 343.311 69.928 341.935 68.872C340.559 67.784 338.527 67.24 335.839 67.24H326.575V79.912H335.839ZM384.119 79.912V82.12H361.703V50.44H383.351V52.648H364.103V64.888H379.319V67.144H364.103V79.912H384.119ZM420.709 79.912V82.12H398.293V50.44H419.941V52.648H400.693V64.888H415.909V67.144H400.693V79.912H420.709ZM455.86 82.12L446.788 68.392H446.644H437.284V82.12H434.884V50.44H446.644C449.812 50.44 452.324 51.24 454.18 52.84C456.068 54.44 457.012 56.632 457.012 59.416C457.012 61.72 456.34 63.64 454.996 65.176C453.652 66.68 451.812 67.656 449.476 68.104L458.692 82.12H455.86ZM437.284 66.136H446.596C449.156 66.136 451.108 65.56 452.452 64.408C453.828 63.256 454.516 61.592 454.516 59.416C454.516 57.24 453.828 55.576 452.452 54.424C451.108 53.24 449.156 52.648 446.596 52.648H437.284V66.136ZM520.09 74.104C519.194 76.792 517.626 78.888 515.386 80.392C513.178 81.864 510.522 82.6 507.418 82.6C504.538 82.6 502.01 81.944 499.834 80.632C497.658 79.288 495.978 77.384 494.794 74.92C493.61 72.456 493.018 69.576 493.018 66.28C493.018 62.984 493.61 60.104 494.794 57.64C495.978 55.176 497.658 53.288 499.834 51.976C502.01 50.632 504.522 49.96 507.37 49.96C513.706 49.96 517.802 52.568 519.658 57.784L517.306 58.888C516.57 56.648 515.386 54.968 513.754 53.848C512.154 52.728 510.074 52.168 507.514 52.168C505.146 52.168 503.05 52.744 501.226 53.896C499.434 55.016 498.042 56.648 497.05 58.792C496.058 60.904 495.562 63.4 495.562 66.28C495.562 69.16 496.042 71.672 497.002 73.816C497.994 75.928 499.37 77.56 501.13 78.712C502.922 79.832 505.018 80.392 507.418 80.392C509.978 80.392 512.154 79.768 513.946 78.52C515.738 77.272 516.986 75.496 517.69 73.192L520.09 74.104ZM546.919 49.96C549.895 49.96 552.471 50.632 554.647 51.976C556.855 53.288 558.551 55.176 559.735 57.64C560.919 60.072 561.511 62.952 561.511 66.28C561.511 69.608 560.919 72.504 559.735 74.968C558.551 77.4 556.855 79.288 554.647 80.632C552.471 81.944 549.895 82.6 546.919 82.6C543.943 82.6 541.351 81.944 539.143 80.632C536.967 79.288 535.287 77.4 534.103 74.968C532.919 72.504 532.327 69.608 532.327 66.28C532.327 62.952 532.919 60.072 534.103 57.64C535.287 55.176 536.967 53.288 539.143 51.976C541.351 50.632 543.943 49.96 546.919 49.96ZM546.919 52.168C544.455 52.168 542.311 52.744 540.487 53.896C538.695 55.016 537.303 56.648 536.311 58.792C535.351 60.904 534.871 63.4 534.871 66.28C534.871 69.16 535.351 71.672 536.311 73.816C537.303 75.928 538.695 77.56 540.487 78.712C542.311 79.832 544.455 80.392 546.919 80.392C549.383 80.392 551.527 79.832 553.351 78.712C555.175 77.56 556.567 75.928 557.527 73.816C558.519 71.672 559.015 69.16 559.015 66.28C559.015 63.4 558.519 60.904 557.527 58.792C556.567 56.648 555.175 55.016 553.351 53.896C551.527 52.744 549.383 52.168 546.919 52.168ZM575.253 78.184C575.893 78.184 576.405 78.392 576.789 78.808C577.205 79.192 577.413 79.704 577.413 80.344C577.413 80.984 577.205 81.512 576.789 81.928C576.405 82.312 575.893 82.504 575.253 82.504C574.613 82.504 574.085 82.312 573.669 81.928C573.285 81.512 573.093 80.984 573.093 80.344C573.093 79.704 573.285 79.192 573.669 78.808C574.085 78.392 574.613 78.184 575.253 78.184Z" fill="black"/>
</svg>
