<svg width="396" height="390" viewBox="0 0 396 390" fill="none" xmlns="http://www.w3.org/2000/svg">
<path d="M257.5 269.5C257.5 301.533 231.533 327.5 199.5 327.5C167.467 327.5 141.5 301.533 141.5 269.5C141.5 237.467 167.467 211.5 199.5 211.5C231.533 211.5 257.5 237.467 257.5 269.5Z" fill="white" stroke="black"/>
<path d="M61.5 328C93.8087 328 120 301.809 120 269.5C120 237.191 93.8087 211 61.5 211C29.1913 211 3 237.191 3 269.5C3 301.809 29.1913 328 61.5 328Z" fill="#D38038"/>
<path d="M165.023 386.148H163.187V385.068H165.167L165.563 382.152H163.619V381.072H165.725L166.247 377.256H167.345L166.823 381.072H169.217L169.739 377.256H170.837L170.315 381.072H171.935V382.152H170.153L169.757 385.068H171.467V386.148H169.613L169.073 390H167.975L168.515 386.148H166.121L165.581 390H164.483L165.023 386.148ZM166.265 385.068H168.659L169.055 382.152H166.661L166.265 385.068ZM176.087 390H174.791V377.256H182.477V378.408H176.087V382.836H182.027V383.97H176.087V390ZM186.734 390H185.438V377.256H193.124V378.408H186.734V382.836H192.674V383.97H186.734V390ZM197.382 390H196.086V377.256H203.772V378.408H197.382V382.836H203.322V383.97H197.382V390ZM208.029 390H206.733V377.256H214.419V378.408H208.029V382.836H213.969V383.97H208.029V390ZM218.676 390H217.38V377.256H225.066V378.408H218.676V382.836H224.616V383.97H218.676V390ZM229.324 390H228.028V377.256H235.714V378.408H229.324V382.836H235.264V383.97H229.324V390Z" fill="black"/>
<path d="M178.941 356.218H178.977L182.163 345.256H183.711L186.897 356.218H186.933L190.047 345.256H191.415L187.653 358H186.141L182.937 347.056H182.901L179.697 358H178.185L174.423 345.256H175.791L178.941 356.218ZM195.117 350.962C195.345 350.47 195.723 350.08 196.251 349.792C196.779 349.504 197.343 349.36 197.943 349.36C199.011 349.36 199.809 349.678 200.337 350.314C200.877 350.95 201.147 351.79 201.147 352.834V358H199.923V353.338C199.923 352.894 199.887 352.492 199.815 352.132C199.743 351.772 199.617 351.466 199.437 351.214C199.269 350.95 199.035 350.746 198.735 350.602C198.447 350.458 198.081 350.386 197.637 350.386C197.313 350.386 196.995 350.452 196.683 350.584C196.383 350.716 196.113 350.92 195.873 351.196C195.633 351.46 195.441 351.802 195.297 352.222C195.153 352.63 195.081 353.116 195.081 353.68V358H193.857V344.392H195.081V350.962H195.117ZM206.097 358H204.873V349.576H206.097V358ZM206.349 346.336C206.349 346.588 206.259 346.798 206.079 346.966C205.899 347.122 205.701 347.2 205.485 347.2C205.269 347.2 205.071 347.122 204.891 346.966C204.711 346.798 204.621 346.588 204.621 346.336C204.621 346.084 204.711 345.88 204.891 345.724C205.071 345.556 205.269 345.472 205.485 345.472C205.701 345.472 205.899 345.556 206.079 345.724C206.259 345.88 206.349 346.084 206.349 346.336ZM213.693 350.602H211.317V355.516C211.317 355.828 211.347 356.086 211.407 356.29C211.467 356.494 211.551 356.656 211.659 356.776C211.779 356.884 211.917 356.962 212.073 357.01C212.229 357.046 212.397 357.064 212.577 357.064C212.745 357.064 212.919 357.04 213.099 356.992C213.291 356.944 213.471 356.878 213.639 356.794L213.693 357.856C213.477 357.94 213.249 358 213.009 358.036C212.781 358.084 212.529 358.108 212.253 358.108C212.025 358.108 211.785 358.078 211.533 358.018C211.281 357.958 211.047 357.844 210.831 357.676C210.615 357.508 210.435 357.28 210.291 356.992C210.159 356.704 210.093 356.326 210.093 355.858V350.602H208.347V349.576H210.093V347.2H211.317V349.576H213.693V350.602ZM222.574 353.14C222.538 352.348 222.28 351.694 221.8 351.178C221.332 350.65 220.66 350.386 219.784 350.386C219.376 350.386 218.998 350.464 218.65 350.62C218.302 350.764 217.996 350.968 217.732 351.232C217.468 351.484 217.258 351.778 217.102 352.114C216.946 352.438 216.856 352.78 216.832 353.14H222.574ZM223.816 353.536C223.816 353.62 223.816 353.71 223.816 353.806C223.816 353.902 223.81 354.004 223.798 354.112H216.814C216.826 354.532 216.91 354.928 217.066 355.3C217.222 355.672 217.438 355.996 217.714 356.272C217.99 356.548 218.314 356.77 218.686 356.938C219.058 357.094 219.46 357.172 219.892 357.172C220.528 357.172 221.074 357.028 221.53 356.74C221.998 356.44 222.352 356.098 222.592 355.714L223.51 356.434C223.006 357.07 222.448 357.526 221.836 357.802C221.236 358.078 220.588 358.216 219.892 358.216C219.268 358.216 218.686 358.108 218.146 357.892C217.618 357.664 217.162 357.352 216.778 356.956C216.394 356.56 216.088 356.092 215.86 355.552C215.644 355.012 215.536 354.424 215.536 353.788C215.536 353.152 215.644 352.564 215.86 352.024C216.076 351.484 216.376 351.016 216.76 350.62C217.144 350.224 217.594 349.918 218.11 349.702C218.626 349.474 219.184 349.36 219.784 349.36C220.444 349.36 221.026 349.474 221.53 349.702C222.034 349.918 222.454 350.218 222.79 350.602C223.126 350.974 223.378 351.412 223.546 351.916C223.726 352.42 223.816 352.96 223.816 353.536Z" fill="black"/>
<path d="M337.5 328C369.809 328 396 301.809 396 269.5C396 237.191 369.809 211 337.5 211C305.191 211 279 237.191 279 269.5C279 301.809 305.191 328 337.5 328Z" fill="#E1E1E1"/>
<path d="M301.704 386.148H299.868V385.068H301.848L302.244 382.152H300.3V381.072H302.406L302.928 377.256H304.026L303.504 381.072H305.898L306.42 377.256H307.518L306.996 381.072H308.616V382.152H306.834L306.438 385.068H308.148V386.148H306.294L305.754 390H304.656L305.196 386.148H302.802L302.262 390H301.164L301.704 386.148ZM302.946 385.068H305.34L305.736 382.152H303.342L302.946 385.068ZM312.768 388.848H319.59V390H311.472V377.256H319.374V378.408H312.768V382.8H318.942V383.934H312.768V388.848ZM327.417 390H326.121V378.858L323.817 380.82L323.025 379.92L326.265 377.256H327.417V390ZM334.942 388.848H341.764V390H333.646V377.256H341.548V378.408H334.942V382.8H341.116V383.934H334.942V388.848ZM349.59 390H348.294V378.858L345.99 380.82L345.198 379.92L348.438 377.256H349.59V390ZM357.116 388.848H363.938V390H355.82V377.256H363.722V378.408H357.116V382.8H363.29V383.934H357.116V388.848ZM371.764 390H370.468V378.858L368.164 380.82L367.372 379.92L370.612 377.256H371.764V390Z" fill="black"/>
<path d="M328.694 347.542C328.25 347.074 327.722 346.714 327.11 346.462C326.498 346.198 325.796 346.066 325.004 346.066C324.188 346.066 323.45 346.216 322.79 346.516C322.142 346.816 321.59 347.224 321.134 347.74C320.678 348.244 320.324 348.832 320.072 349.504C319.832 350.176 319.712 350.884 319.712 351.628C319.712 352.372 319.832 353.08 320.072 353.752C320.324 354.424 320.678 355.012 321.134 355.516C321.59 356.02 322.142 356.422 322.79 356.722C323.45 357.022 324.188 357.172 325.004 357.172C325.724 357.172 326.384 357.094 326.984 356.938C327.584 356.782 328.07 356.584 328.442 356.344V352.474H325.472V351.34H329.738V357.082C329.042 357.502 328.292 357.814 327.488 358.018C326.684 358.222 325.85 358.324 324.986 358.324C324.026 358.324 323.138 358.156 322.322 357.82C321.506 357.484 320.804 357.022 320.216 356.434C319.628 355.834 319.166 355.126 318.83 354.31C318.506 353.494 318.344 352.6 318.344 351.628C318.344 350.656 318.512 349.762 318.848 348.946C319.184 348.13 319.646 347.428 320.234 346.84C320.834 346.24 321.536 345.772 322.34 345.436C323.156 345.1 324.038 344.932 324.986 344.932C326.006 344.932 326.894 345.082 327.65 345.382C328.406 345.682 329.054 346.102 329.594 346.642L328.694 347.542ZM333.524 351.43C333.524 351.202 333.518 350.908 333.506 350.548C333.494 350.188 333.476 349.864 333.452 349.576H334.622C334.646 349.804 334.664 350.056 334.676 350.332C334.688 350.608 334.694 350.836 334.694 351.016H334.73C334.97 350.524 335.33 350.128 335.81 349.828C336.29 349.516 336.83 349.36 337.43 349.36C337.586 349.36 337.724 349.366 337.844 349.378C337.976 349.39 338.108 349.414 338.24 349.45L338.078 350.602C338.006 350.578 337.886 350.554 337.718 350.53C337.55 350.506 337.382 350.494 337.214 350.494C336.89 350.494 336.578 350.554 336.278 350.674C335.978 350.794 335.714 350.986 335.486 351.25C335.27 351.502 335.09 351.832 334.946 352.24C334.814 352.636 334.748 353.116 334.748 353.68V358H333.524V351.43ZM345.649 352.564C345.649 351.832 345.457 351.286 345.073 350.926C344.689 350.566 344.131 350.386 343.399 350.386C342.895 350.386 342.427 350.476 341.995 350.656C341.563 350.836 341.197 351.076 340.897 351.376L340.213 350.566C340.561 350.218 341.017 349.93 341.581 349.702C342.157 349.474 342.805 349.36 343.525 349.36C343.981 349.36 344.407 349.426 344.803 349.558C345.199 349.678 345.547 349.864 345.847 350.116C346.147 350.368 346.381 350.686 346.549 351.07C346.717 351.454 346.801 351.904 346.801 352.42V356.11C346.801 356.434 346.813 356.77 346.837 357.118C346.861 357.466 346.897 357.76 346.945 358H345.847C345.811 357.796 345.781 357.574 345.757 357.334C345.733 357.094 345.721 356.86 345.721 356.632H345.685C345.301 357.196 344.863 357.604 344.371 357.856C343.891 358.096 343.309 358.216 342.625 358.216C342.301 358.216 341.965 358.168 341.617 358.072C341.281 357.988 340.969 357.844 340.681 357.64C340.405 357.436 340.171 357.172 339.979 356.848C339.799 356.524 339.709 356.128 339.709 355.66C339.709 355.012 339.871 354.502 340.195 354.13C340.531 353.746 340.975 353.464 341.527 353.284C342.079 353.092 342.709 352.972 343.417 352.924C344.137 352.864 344.881 352.834 345.649 352.834V352.564ZM345.289 353.788C344.785 353.788 344.275 353.812 343.759 353.86C343.255 353.896 342.793 353.98 342.373 354.112C341.965 354.232 341.629 354.412 341.365 354.652C341.101 354.892 340.969 355.21 340.969 355.606C340.969 355.906 341.023 356.158 341.131 356.362C341.251 356.566 341.407 356.734 341.599 356.866C341.791 356.986 342.001 357.076 342.229 357.136C342.469 357.184 342.709 357.208 342.949 357.208C343.381 357.208 343.765 357.136 344.101 356.992C344.437 356.836 344.719 356.632 344.947 356.38C345.175 356.116 345.349 355.816 345.469 355.48C345.589 355.144 345.649 354.79 345.649 354.418V353.788H345.289ZM353.392 356.686H353.428L356.038 349.576H357.37L353.176 360.178C352.924 360.826 352.6 361.342 352.204 361.726C351.82 362.122 351.262 362.32 350.53 362.32C350.158 362.32 349.792 362.284 349.432 362.212L349.558 361.096C349.846 361.192 350.146 361.24 350.458 361.24C350.878 361.24 351.208 361.108 351.448 360.844C351.688 360.592 351.898 360.226 352.078 359.746L352.762 357.982L349.162 349.576H350.53L353.392 356.686Z" fill="black"/>
<path d="M42.7838 349.628C42.7838 350.6 42.6158 351.494 42.2798 352.31C41.9438 353.126 41.4758 353.834 40.8758 354.434C40.2878 355.022 39.5858 355.484 38.7698 355.82C37.9658 356.156 37.0898 356.324 36.1418 356.324C35.1938 356.324 34.3118 356.156 33.4958 355.82C32.6918 355.484 31.9898 355.022 31.3898 354.434C30.8018 353.834 30.3398 353.126 30.0038 352.31C29.6678 351.494 29.4998 350.6 29.4998 349.628C29.4998 348.656 29.6678 347.762 30.0038 346.946C30.3398 346.13 30.8018 345.428 31.3898 344.84C31.9898 344.24 32.6918 343.772 33.4958 343.436C34.3118 343.1 35.1938 342.932 36.1418 342.932C37.0898 342.932 37.9658 343.1 38.7698 343.436C39.5858 343.772 40.2878 344.24 40.8758 344.84C41.4758 345.428 41.9438 346.13 42.2798 346.946C42.6158 347.762 42.7838 348.656 42.7838 349.628ZM41.4158 349.628C41.4158 348.884 41.2958 348.176 41.0558 347.504C40.8158 346.832 40.4678 346.244 40.0118 345.74C39.5558 345.224 38.9978 344.816 38.3378 344.516C37.6898 344.216 36.9578 344.066 36.1418 344.066C35.3258 344.066 34.5878 344.216 33.9278 344.516C33.2798 344.816 32.7278 345.224 32.2718 345.74C31.8158 346.244 31.4678 346.832 31.2278 347.504C30.9878 348.176 30.8678 348.884 30.8678 349.628C30.8678 350.372 30.9878 351.08 31.2278 351.752C31.4678 352.424 31.8158 353.012 32.2718 353.516C32.7278 354.02 33.2798 354.422 33.9278 354.722C34.5878 355.022 35.3258 355.172 36.1418 355.172C36.9578 355.172 37.6898 355.022 38.3378 354.722C38.9978 354.422 39.5558 354.02 40.0118 353.516C40.4678 353.012 40.8158 352.424 41.0558 351.752C41.2958 351.08 41.4158 350.372 41.4158 349.628ZM45.9448 349.43C45.9448 349.202 45.9388 348.908 45.9268 348.548C45.9148 348.188 45.8968 347.864 45.8728 347.576H47.0428C47.0668 347.804 47.0848 348.056 47.0968 348.332C47.1088 348.608 47.1148 348.836 47.1148 349.016H47.1508C47.3908 348.524 47.7508 348.128 48.2308 347.828C48.7108 347.516 49.2508 347.36 49.8508 347.36C50.0068 347.36 50.1448 347.366 50.2648 347.378C50.3968 347.39 50.5288 347.414 50.6608 347.45L50.4988 348.602C50.4268 348.578 50.3068 348.554 50.1388 348.53C49.9708 348.506 49.8028 348.494 49.6348 348.494C49.3108 348.494 48.9988 348.554 48.6988 348.674C48.3988 348.794 48.1348 348.986 47.9068 349.25C47.6908 349.502 47.5108 349.832 47.3668 350.24C47.2348 350.636 47.1688 351.116 47.1688 351.68V356H45.9448V349.43ZM58.0702 350.564C58.0702 349.832 57.8782 349.286 57.4942 348.926C57.1102 348.566 56.5522 348.386 55.8202 348.386C55.3162 348.386 54.8482 348.476 54.4162 348.656C53.9842 348.836 53.6182 349.076 53.3182 349.376L52.6342 348.566C52.9822 348.218 53.4382 347.93 54.0022 347.702C54.5782 347.474 55.2262 347.36 55.9462 347.36C56.4022 347.36 56.8282 347.426 57.2242 347.558C57.6202 347.678 57.9682 347.864 58.2682 348.116C58.5682 348.368 58.8022 348.686 58.9702 349.07C59.1382 349.454 59.2222 349.904 59.2222 350.42V354.11C59.2222 354.434 59.2342 354.77 59.2582 355.118C59.2822 355.466 59.3182 355.76 59.3662 356H58.2682C58.2322 355.796 58.2022 355.574 58.1782 355.334C58.1542 355.094 58.1422 354.86 58.1422 354.632H58.1062C57.7222 355.196 57.2842 355.604 56.7922 355.856C56.3122 356.096 55.7302 356.216 55.0462 356.216C54.7222 356.216 54.3862 356.168 54.0382 356.072C53.7022 355.988 53.3902 355.844 53.1022 355.64C52.8262 355.436 52.5922 355.172 52.4002 354.848C52.2202 354.524 52.1302 354.128 52.1302 353.66C52.1302 353.012 52.2922 352.502 52.6162 352.13C52.9522 351.746 53.3962 351.464 53.9482 351.284C54.5002 351.092 55.1302 350.972 55.8382 350.924C56.5582 350.864 57.3022 350.834 58.0702 350.834V350.564ZM57.7102 351.788C57.2062 351.788 56.6962 351.812 56.1802 351.86C55.6762 351.896 55.2142 351.98 54.7942 352.112C54.3862 352.232 54.0502 352.412 53.7862 352.652C53.5222 352.892 53.3902 353.21 53.3902 353.606C53.3902 353.906 53.4442 354.158 53.5522 354.362C53.6722 354.566 53.8282 354.734 54.0202 354.866C54.2122 354.986 54.4222 355.076 54.6502 355.136C54.8902 355.184 55.1302 355.208 55.3702 355.208C55.8022 355.208 56.1862 355.136 56.5222 354.992C56.8582 354.836 57.1402 354.632 57.3682 354.38C57.5962 354.116 57.7702 353.816 57.8902 353.48C58.0102 353.144 58.0702 352.79 58.0702 352.418V351.788H57.7102ZM64.0134 347.576C64.0374 347.804 64.0554 348.056 64.0674 348.332C64.0794 348.608 64.0854 348.836 64.0854 349.016H64.1214C64.3614 348.524 64.7514 348.128 65.2914 347.828C65.8314 347.516 66.4014 347.36 67.0014 347.36C68.0694 347.36 68.8674 347.678 69.3954 348.314C69.9354 348.95 70.2054 349.79 70.2054 350.834V356H68.9814V351.338C68.9814 350.894 68.9454 350.492 68.8734 350.132C68.8014 349.772 68.6754 349.466 68.4954 349.214C68.3274 348.95 68.0934 348.746 67.7934 348.602C67.5054 348.458 67.1394 348.386 66.6954 348.386C66.3714 348.386 66.0534 348.452 65.7414 348.584C65.4414 348.716 65.1714 348.92 64.9314 349.196C64.6914 349.46 64.4994 349.802 64.3554 350.222C64.2114 350.63 64.1394 351.116 64.1394 351.68V356H62.9154V349.43C62.9154 349.202 62.9094 348.908 62.8974 348.548C62.8854 348.188 62.8674 347.864 62.8434 347.576H64.0134ZM74.3644 357.692C74.7004 358.124 75.1564 358.49 75.7324 358.79C76.3204 359.09 76.9384 359.24 77.5864 359.24C78.1864 359.24 78.6964 359.15 79.1164 358.97C79.5364 358.802 79.8724 358.568 80.1244 358.268C80.3884 357.968 80.5804 357.614 80.7004 357.206C80.8204 356.81 80.8804 356.384 80.8804 355.928V354.344H80.8444C80.5204 354.872 80.0584 355.28 79.4584 355.568C78.8704 355.856 78.2704 356 77.6584 356C76.9984 356 76.3984 355.892 75.8584 355.676C75.3304 355.46 74.8744 355.166 74.4904 354.794C74.1184 354.41 73.8244 353.954 73.6084 353.426C73.4044 352.898 73.3024 352.328 73.3024 351.716C73.3024 351.116 73.4044 350.552 73.6084 350.024C73.8244 349.496 74.1184 349.034 74.4904 348.638C74.8744 348.242 75.3304 347.93 75.8584 347.702C76.3984 347.474 76.9984 347.36 77.6584 347.36C78.2704 347.36 78.8704 347.504 79.4584 347.792C80.0464 348.08 80.5084 348.494 80.8444 349.034H80.8804V347.576H82.1044V355.928C82.1044 356.384 82.0384 356.87 81.9064 357.386C81.7864 357.902 81.5524 358.376 81.2044 358.808C80.8684 359.24 80.4064 359.6 79.8184 359.888C79.2304 360.176 78.4684 360.32 77.5324 360.32C76.7524 360.32 76.0084 360.17 75.3004 359.87C74.5924 359.57 73.9864 359.156 73.4824 358.628L74.3644 357.692ZM74.5984 351.68C74.5984 352.124 74.6704 352.544 74.8144 352.94C74.9584 353.336 75.1624 353.684 75.4264 353.984C75.7024 354.284 76.0384 354.524 76.4344 354.704C76.8304 354.872 77.2804 354.956 77.7844 354.956C78.2524 354.956 78.6844 354.878 79.0804 354.722C79.4764 354.566 79.8184 354.344 80.1064 354.056C80.3944 353.768 80.6164 353.426 80.7724 353.03C80.9404 352.622 81.0244 352.172 81.0244 351.68C81.0244 351.236 80.9404 350.816 80.7724 350.42C80.6164 350.024 80.3944 349.676 80.1064 349.376C79.8184 349.076 79.4764 348.836 79.0804 348.656C78.6844 348.476 78.2524 348.386 77.7844 348.386C77.2804 348.386 76.8304 348.476 76.4344 348.656C76.0384 348.836 75.7024 349.076 75.4264 349.376C75.1624 349.676 74.9584 350.024 74.8144 350.42C74.6704 350.816 74.5984 351.236 74.5984 351.68ZM92.2534 351.14C92.2174 350.348 91.9594 349.694 91.4794 349.178C91.0114 348.65 90.3394 348.386 89.4634 348.386C89.0554 348.386 88.6774 348.464 88.3294 348.62C87.9814 348.764 87.6754 348.968 87.4114 349.232C87.1474 349.484 86.9374 349.778 86.7814 350.114C86.6254 350.438 86.5354 350.78 86.5114 351.14H92.2534ZM93.4954 351.536C93.4954 351.62 93.4954 351.71 93.4954 351.806C93.4954 351.902 93.4894 352.004 93.4774 352.112H86.4934C86.5054 352.532 86.5894 352.928 86.7454 353.3C86.9014 353.672 87.1174 353.996 87.3934 354.272C87.6694 354.548 87.9934 354.77 88.3654 354.938C88.7374 355.094 89.1394 355.172 89.5714 355.172C90.2074 355.172 90.7534 355.028 91.2094 354.74C91.6774 354.44 92.0314 354.098 92.2714 353.714L93.1894 354.434C92.6854 355.07 92.1274 355.526 91.5154 355.802C90.9154 356.078 90.2674 356.216 89.5714 356.216C88.9474 356.216 88.3654 356.108 87.8254 355.892C87.2974 355.664 86.8414 355.352 86.4574 354.956C86.0734 354.56 85.7674 354.092 85.5394 353.552C85.3234 353.012 85.2154 352.424 85.2154 351.788C85.2154 351.152 85.3234 350.564 85.5394 350.024C85.7554 349.484 86.0554 349.016 86.4394 348.62C86.8234 348.224 87.2734 347.918 87.7894 347.702C88.3054 347.474 88.8634 347.36 89.4634 347.36C90.1234 347.36 90.7054 347.474 91.2094 347.702C91.7134 347.918 92.1334 348.218 92.4694 348.602C92.8054 348.974 93.0574 349.412 93.2254 349.916C93.4054 350.42 93.4954 350.96 93.4954 351.536Z" fill="black"/>
<path d="M24.43 384.148H22.594V383.068H24.574L24.97 380.152H23.026V379.072H25.132L25.654 375.256H26.752L26.23 379.072H28.624L29.146 375.256H30.244L29.722 379.072H31.342V380.152H29.56L29.164 383.068H30.874V384.148H29.02L28.48 388H27.382L27.922 384.148H25.528L24.988 388H23.89L24.43 384.148ZM25.672 383.068H28.066L28.462 380.152H26.068L25.672 383.068ZM34.1979 375.256H38.4279C39.2199 375.256 40.0119 375.388 40.8039 375.652C41.6079 375.916 42.3279 376.318 42.9639 376.858C43.6119 377.386 44.1339 378.052 44.5299 378.856C44.9259 379.648 45.1239 380.572 45.1239 381.628C45.1239 382.696 44.9259 383.626 44.5299 384.418C44.1339 385.21 43.6119 385.876 42.9639 386.416C42.3279 386.944 41.6079 387.34 40.8039 387.604C40.0119 387.868 39.2199 388 38.4279 388H34.1979V375.256ZM35.4939 386.848H38.0679C39.0279 386.848 39.8619 386.698 40.5699 386.398C41.2899 386.098 41.8839 385.708 42.3519 385.228C42.8199 384.736 43.1679 384.178 43.3959 383.554C43.6359 382.93 43.7559 382.288 43.7559 381.628C43.7559 380.968 43.6359 380.326 43.3959 379.702C43.1679 379.078 42.8199 378.526 42.3519 378.046C41.8839 377.554 41.2899 377.158 40.5699 376.858C39.8619 376.558 39.0279 376.408 38.0679 376.408H35.4939V386.848ZM50.521 380.764H51.079C51.487 380.764 51.871 380.722 52.231 380.638C52.591 380.554 52.903 380.422 53.167 380.242C53.443 380.05 53.659 379.804 53.815 379.504C53.971 379.204 54.049 378.844 54.049 378.424C54.049 378.064 53.983 377.74 53.851 377.452C53.719 377.152 53.533 376.9 53.293 376.696C53.065 376.48 52.795 376.318 52.483 376.21C52.183 376.09 51.865 376.03 51.529 376.03C50.989 376.03 50.509 376.156 50.089 376.408C49.681 376.66 49.351 377.032 49.099 377.524L48.001 376.948C48.397 376.264 48.901 375.76 49.513 375.436C50.125 375.1 50.821 374.932 51.601 374.932C52.105 374.932 52.579 375.01 53.023 375.166C53.479 375.31 53.875 375.526 54.211 375.814C54.559 376.102 54.829 376.462 55.021 376.894C55.225 377.314 55.327 377.8 55.327 378.352C55.327 379.108 55.117 379.744 54.697 380.26C54.277 380.764 53.749 381.1 53.113 381.268V381.304C53.845 381.46 54.457 381.814 54.949 382.366C55.441 382.906 55.687 383.608 55.687 384.472C55.687 385.084 55.573 385.63 55.345 386.11C55.129 386.578 54.835 386.98 54.463 387.316C54.091 387.64 53.653 387.886 53.149 388.054C52.657 388.234 52.135 388.324 51.583 388.324C50.647 388.324 49.831 388.102 49.135 387.658C48.439 387.202 47.911 386.554 47.551 385.714L48.775 385.264C48.991 385.876 49.351 386.356 49.855 386.704C50.359 387.04 50.935 387.208 51.583 387.208C51.943 387.208 52.291 387.148 52.627 387.028C52.975 386.896 53.275 386.716 53.527 386.488C53.791 386.248 54.001 385.96 54.157 385.624C54.313 385.288 54.391 384.904 54.391 384.472C54.391 383.992 54.295 383.59 54.103 383.266C53.923 382.93 53.677 382.66 53.365 382.456C53.053 382.252 52.699 382.108 52.303 382.024C51.907 381.928 51.499 381.88 51.079 381.88H50.521V380.764ZM64.5444 381.25C65.2404 381.454 65.8164 381.856 66.2724 382.456C66.7284 383.056 66.9564 383.788 66.9564 384.652C66.9564 385.216 66.8424 385.726 66.6144 386.182C66.3984 386.626 66.1044 387.01 65.7324 387.334C65.3604 387.646 64.9224 387.886 64.4184 388.054C63.9264 388.234 63.4104 388.324 62.8704 388.324C62.3304 388.324 61.8084 388.234 61.3044 388.054C60.8124 387.886 60.3804 387.646 60.0084 387.334C59.6364 387.01 59.3364 386.626 59.1084 386.182C58.8924 385.726 58.7844 385.216 58.7844 384.652C58.7844 384.22 58.8444 383.824 58.9644 383.464C59.0844 383.092 59.2524 382.762 59.4684 382.474C59.6844 382.174 59.9364 381.922 60.2244 381.718C60.5244 381.514 60.8484 381.358 61.1964 381.25V381.214C60.9084 381.118 60.6444 380.98 60.4044 380.8C60.1764 380.608 59.9784 380.386 59.8104 380.134C59.6424 379.87 59.5104 379.588 59.4144 379.288C59.3184 378.976 59.2704 378.658 59.2704 378.334C59.2704 377.818 59.3664 377.35 59.5584 376.93C59.7504 376.51 60.0084 376.156 60.3324 375.868C60.6684 375.568 61.0524 375.34 61.4844 375.184C61.9164 375.016 62.3784 374.932 62.8704 374.932C63.3504 374.932 63.8064 375.016 64.2384 375.184C64.6824 375.34 65.0664 375.568 65.3904 375.868C65.7264 376.156 65.9904 376.51 66.1824 376.93C66.3744 377.35 66.4704 377.818 66.4704 378.334C66.4704 378.658 66.4224 378.976 66.3264 379.288C66.2304 379.588 66.0984 379.87 65.9304 380.134C65.7624 380.386 65.5584 380.608 65.3184 380.8C65.0904 380.98 64.8324 381.118 64.5444 381.214V381.25ZM60.5304 378.406C60.5304 378.742 60.5904 379.048 60.7104 379.324C60.8304 379.6 60.9984 379.84 61.2144 380.044C61.4304 380.248 61.6764 380.41 61.9524 380.53C62.2404 380.638 62.5464 380.692 62.8704 380.692C63.1944 380.692 63.4944 380.638 63.7704 380.53C64.0584 380.41 64.3104 380.248 64.5264 380.044C64.7424 379.84 64.9104 379.6 65.0304 379.324C65.1504 379.048 65.2104 378.742 65.2104 378.406C65.2104 378.07 65.1504 377.758 65.0304 377.47C64.9104 377.17 64.7424 376.918 64.5264 376.714C64.3224 376.498 64.0764 376.33 63.7884 376.21C63.5124 376.09 63.2064 376.03 62.8704 376.03C62.5344 376.03 62.2224 376.09 61.9344 376.21C61.6584 376.33 61.4124 376.498 61.1964 376.714C60.9924 376.918 60.8304 377.17 60.7104 377.47C60.5904 377.758 60.5304 378.07 60.5304 378.406ZM60.0804 384.508C60.0804 384.892 60.1464 385.252 60.2784 385.588C60.4104 385.924 60.5964 386.212 60.8364 386.452C61.0884 386.692 61.3824 386.884 61.7184 387.028C62.0664 387.16 62.4504 387.226 62.8704 387.226C63.2904 387.226 63.6684 387.16 64.0044 387.028C64.3524 386.884 64.6464 386.692 64.8864 386.452C65.1384 386.212 65.3304 385.924 65.4624 385.588C65.5944 385.252 65.6604 384.892 65.6604 384.508C65.6604 384.124 65.5944 383.77 65.4624 383.446C65.3304 383.122 65.1384 382.84 64.8864 382.6C64.6464 382.36 64.3524 382.174 64.0044 382.042C63.6684 381.91 63.2904 381.844 62.8704 381.844C62.4504 381.844 62.0664 381.91 61.7184 382.042C61.3824 382.174 61.0884 382.36 60.8364 382.6C60.5964 382.84 60.4104 383.122 60.2784 383.446C60.1464 383.77 60.0804 384.124 60.0804 384.508ZM73.8518 374.932C74.6438 374.932 75.3038 375.13 75.8318 375.526C76.3718 375.91 76.8038 376.42 77.1278 377.056C77.4518 377.68 77.6798 378.394 77.8118 379.198C77.9558 380.002 78.0278 380.818 78.0278 381.646C78.0278 382.474 77.9558 383.29 77.8118 384.094C77.6798 384.886 77.4518 385.6 77.1278 386.236C76.8038 386.86 76.3718 387.364 75.8318 387.748C75.3038 388.132 74.6438 388.324 73.8518 388.324C73.0478 388.324 72.3758 388.132 71.8358 387.748C71.3078 387.364 70.8818 386.86 70.5578 386.236C70.2338 385.6 70.0058 384.886 69.8738 384.094C69.7418 383.29 69.6758 382.474 69.6758 381.646C69.6758 380.818 69.7418 380.002 69.8738 379.198C70.0058 378.394 70.2338 377.68 70.5578 377.056C70.8818 376.42 71.3078 375.91 71.8358 375.526C72.3758 375.13 73.0478 374.932 73.8518 374.932ZM73.8518 376.03C73.2878 376.03 72.8198 376.204 72.4478 376.552C72.0758 376.9 71.7818 377.344 71.5658 377.884C71.3498 378.424 71.1998 379.03 71.1158 379.702C71.0318 380.362 70.9898 381.01 70.9898 381.646C70.9898 382.282 71.0318 382.93 71.1158 383.59C71.1998 384.25 71.3498 384.85 71.5658 385.39C71.7818 385.918 72.0758 386.356 72.4478 386.704C72.8198 387.04 73.2878 387.208 73.8518 387.208C74.4038 387.208 74.8658 387.04 75.2378 386.704C75.6098 386.356 75.9038 385.918 76.1198 385.39C76.3358 384.85 76.4858 384.25 76.5698 383.59C76.6658 382.93 76.7138 382.282 76.7138 381.646C76.7138 381.01 76.6658 380.362 76.5698 379.702C76.4858 379.03 76.3358 378.424 76.1198 377.884C75.9038 377.344 75.6098 376.9 75.2378 376.552C74.8658 376.204 74.4038 376.03 73.8518 376.03ZM83.4652 380.764H84.0232C84.4312 380.764 84.8152 380.722 85.1752 380.638C85.5352 380.554 85.8472 380.422 86.1112 380.242C86.3872 380.05 86.6032 379.804 86.7592 379.504C86.9152 379.204 86.9932 378.844 86.9932 378.424C86.9932 378.064 86.9272 377.74 86.7952 377.452C86.6632 377.152 86.4772 376.9 86.2372 376.696C86.0092 376.48 85.7392 376.318 85.4272 376.21C85.1272 376.09 84.8092 376.03 84.4732 376.03C83.9332 376.03 83.4532 376.156 83.0332 376.408C82.6252 376.66 82.2952 377.032 82.0432 377.524L80.9452 376.948C81.3412 376.264 81.8452 375.76 82.4572 375.436C83.0692 375.1 83.7652 374.932 84.5452 374.932C85.0492 374.932 85.5232 375.01 85.9672 375.166C86.4232 375.31 86.8192 375.526 87.1552 375.814C87.5032 376.102 87.7732 376.462 87.9652 376.894C88.1692 377.314 88.2712 377.8 88.2712 378.352C88.2712 379.108 88.0612 379.744 87.6412 380.26C87.2212 380.764 86.6932 381.1 86.0572 381.268V381.304C86.7892 381.46 87.4012 381.814 87.8932 382.366C88.3852 382.906 88.6312 383.608 88.6312 384.472C88.6312 385.084 88.5172 385.63 88.2892 386.11C88.0732 386.578 87.7792 386.98 87.4072 387.316C87.0352 387.64 86.5972 387.886 86.0932 388.054C85.6012 388.234 85.0792 388.324 84.5272 388.324C83.5912 388.324 82.7752 388.102 82.0792 387.658C81.3832 387.202 80.8552 386.554 80.4952 385.714L81.7192 385.264C81.9352 385.876 82.2952 386.356 82.7992 386.704C83.3032 387.04 83.8792 387.208 84.5272 387.208C84.8872 387.208 85.2352 387.148 85.5712 387.028C85.9192 386.896 86.2192 386.716 86.4712 386.488C86.7352 386.248 86.9452 385.96 87.1012 385.624C87.2572 385.288 87.3352 384.904 87.3352 384.472C87.3352 383.992 87.2392 383.59 87.0472 383.266C86.8672 382.93 86.6212 382.66 86.3092 382.456C85.9972 382.252 85.6432 382.108 85.2472 382.024C84.8512 381.928 84.4432 381.88 84.0232 381.88H83.4652V380.764ZM97.4886 381.25C98.1846 381.454 98.7606 381.856 99.2166 382.456C99.6726 383.056 99.9006 383.788 99.9006 384.652C99.9006 385.216 99.7866 385.726 99.5586 386.182C99.3426 386.626 99.0486 387.01 98.6766 387.334C98.3046 387.646 97.8666 387.886 97.3626 388.054C96.8706 388.234 96.3546 388.324 95.8146 388.324C95.2746 388.324 94.7526 388.234 94.2486 388.054C93.7566 387.886 93.3246 387.646 92.9526 387.334C92.5806 387.01 92.2806 386.626 92.0526 386.182C91.8366 385.726 91.7286 385.216 91.7286 384.652C91.7286 384.22 91.7886 383.824 91.9086 383.464C92.0286 383.092 92.1966 382.762 92.4126 382.474C92.6286 382.174 92.8806 381.922 93.1686 381.718C93.4686 381.514 93.7926 381.358 94.1406 381.25V381.214C93.8526 381.118 93.5886 380.98 93.3486 380.8C93.1206 380.608 92.9226 380.386 92.7546 380.134C92.5866 379.87 92.4546 379.588 92.3586 379.288C92.2626 378.976 92.2146 378.658 92.2146 378.334C92.2146 377.818 92.3106 377.35 92.5026 376.93C92.6946 376.51 92.9526 376.156 93.2766 375.868C93.6126 375.568 93.9966 375.34 94.4286 375.184C94.8606 375.016 95.3226 374.932 95.8146 374.932C96.2946 374.932 96.7506 375.016 97.1826 375.184C97.6266 375.34 98.0106 375.568 98.3346 375.868C98.6706 376.156 98.9346 376.51 99.1266 376.93C99.3186 377.35 99.4146 377.818 99.4146 378.334C99.4146 378.658 99.3666 378.976 99.2706 379.288C99.1746 379.588 99.0426 379.87 98.8746 380.134C98.7066 380.386 98.5026 380.608 98.2626 380.8C98.0346 380.98 97.7766 381.118 97.4886 381.214V381.25ZM93.4746 378.406C93.4746 378.742 93.5346 379.048 93.6546 379.324C93.7746 379.6 93.9426 379.84 94.1586 380.044C94.3746 380.248 94.6206 380.41 94.8966 380.53C95.1846 380.638 95.4906 380.692 95.8146 380.692C96.1386 380.692 96.4386 380.638 96.7146 380.53C97.0026 380.41 97.2546 380.248 97.4706 380.044C97.6866 379.84 97.8546 379.6 97.9746 379.324C98.0946 379.048 98.1546 378.742 98.1546 378.406C98.1546 378.07 98.0946 377.758 97.9746 377.47C97.8546 377.17 97.6866 376.918 97.4706 376.714C97.2666 376.498 97.0206 376.33 96.7326 376.21C96.4566 376.09 96.1506 376.03 95.8146 376.03C95.4786 376.03 95.1666 376.09 94.8786 376.21C94.6026 376.33 94.3566 376.498 94.1406 376.714C93.9366 376.918 93.7746 377.17 93.6546 377.47C93.5346 377.758 93.4746 378.07 93.4746 378.406ZM93.0246 384.508C93.0246 384.892 93.0906 385.252 93.2226 385.588C93.3546 385.924 93.5406 386.212 93.7806 386.452C94.0326 386.692 94.3266 386.884 94.6626 387.028C95.0106 387.16 95.3946 387.226 95.8146 387.226C96.2346 387.226 96.6126 387.16 96.9486 387.028C97.2966 386.884 97.5906 386.692 97.8306 386.452C98.0826 386.212 98.2746 385.924 98.4066 385.588C98.5386 385.252 98.6046 384.892 98.6046 384.508C98.6046 384.124 98.5386 383.77 98.4066 383.446C98.2746 383.122 98.0826 382.84 97.8306 382.6C97.5906 382.36 97.2966 382.174 96.9486 382.042C96.6126 381.91 96.2346 381.844 95.8146 381.844C95.3946 381.844 95.0106 381.91 94.6626 382.042C94.3266 382.174 94.0326 382.36 93.7806 382.6C93.5406 382.84 93.3546 383.122 93.2226 383.446C93.0906 383.77 93.0246 384.124 93.0246 384.508Z" fill="black"/>
<path d="M265.5 117C297.809 117 324 90.8087 324 58.5C324 26.1913 297.809 0 265.5 0C233.191 0 207 26.1913 207 58.5C207 90.8087 233.191 117 265.5 117Z" fill="#FECD9B"/>
<path d="M129.5 117C161.809 117 188 90.8087 188 58.5C188 26.1913 161.809 0 129.5 0C97.1913 0 71 26.1913 71 58.5C71 90.8087 97.1913 117 129.5 117Z" fill="#2A3243"/>
<path d="M92.9398 173.148H91.1038V172.068H93.0838L93.4798 169.152H91.5358V168.072H93.6418L94.1638 164.256H95.2618L94.7398 168.072H97.1338L97.6558 164.256H98.7538L98.2318 168.072H99.8518V169.152H98.0698L97.6738 172.068H99.3838V173.148H97.5298L96.9898 177H95.8918L96.4318 173.148H94.0378L93.4978 177H92.3998L92.9398 173.148ZM94.1818 172.068H96.5758L96.9718 169.152H94.5778L94.1818 172.068ZM110.088 177H101.934V175.65L107.154 170.376C107.346 170.184 107.532 169.98 107.712 169.764C107.904 169.536 108.072 169.302 108.216 169.062C108.36 168.822 108.474 168.57 108.558 168.306C108.642 168.03 108.684 167.748 108.684 167.46C108.684 167.088 108.618 166.752 108.486 166.452C108.354 166.152 108.168 165.9 107.928 165.696C107.7 165.48 107.43 165.318 107.118 165.21C106.818 165.09 106.5 165.03 106.164 165.03C105.48 165.03 104.904 165.246 104.436 165.678C103.968 166.098 103.668 166.638 103.536 167.298L102.258 167.046C102.342 166.602 102.498 166.188 102.726 165.804C102.966 165.42 103.254 165.09 103.59 164.814C103.938 164.538 104.328 164.322 104.76 164.166C105.192 164.01 105.66 163.932 106.164 163.932C106.68 163.932 107.166 164.01 107.622 164.166C108.09 164.31 108.498 164.532 108.846 164.832C109.194 165.12 109.47 165.486 109.674 165.93C109.89 166.362 109.998 166.866 109.998 167.442C109.998 167.85 109.938 168.228 109.818 168.576C109.71 168.924 109.56 169.254 109.368 169.566C109.188 169.878 108.972 170.178 108.72 170.466C108.468 170.742 108.204 171.018 107.928 171.294L103.338 175.848H110.088V177ZM113.599 177H112.177L117.685 164.256H118.945L124.417 177H122.977L121.573 173.652H114.985L113.599 177ZM115.471 172.464H121.087L118.279 165.696L115.471 172.464ZM128.993 169.764H129.551C129.959 169.764 130.343 169.722 130.703 169.638C131.063 169.554 131.375 169.422 131.639 169.242C131.915 169.05 132.131 168.804 132.287 168.504C132.443 168.204 132.521 167.844 132.521 167.424C132.521 167.064 132.455 166.74 132.323 166.452C132.191 166.152 132.005 165.9 131.765 165.696C131.537 165.48 131.267 165.318 130.955 165.21C130.655 165.09 130.337 165.03 130.001 165.03C129.461 165.03 128.981 165.156 128.561 165.408C128.153 165.66 127.823 166.032 127.571 166.524L126.473 165.948C126.869 165.264 127.373 164.76 127.985 164.436C128.597 164.1 129.293 163.932 130.073 163.932C130.577 163.932 131.051 164.01 131.495 164.166C131.951 164.31 132.347 164.526 132.683 164.814C133.031 165.102 133.301 165.462 133.493 165.894C133.697 166.314 133.799 166.8 133.799 167.352C133.799 168.108 133.589 168.744 133.169 169.26C132.749 169.764 132.221 170.1 131.585 170.268V170.304C132.317 170.46 132.929 170.814 133.421 171.366C133.913 171.906 134.159 172.608 134.159 173.472C134.159 174.084 134.045 174.63 133.817 175.11C133.601 175.578 133.307 175.98 132.935 176.316C132.563 176.64 132.125 176.886 131.621 177.054C131.129 177.234 130.607 177.324 130.055 177.324C129.119 177.324 128.303 177.102 127.607 176.658C126.911 176.202 126.383 175.554 126.023 174.714L127.247 174.264C127.463 174.876 127.823 175.356 128.327 175.704C128.831 176.04 129.407 176.208 130.055 176.208C130.415 176.208 130.763 176.148 131.099 176.028C131.447 175.896 131.747 175.716 131.999 175.488C132.263 175.248 132.473 174.96 132.629 174.624C132.785 174.288 132.863 173.904 132.863 173.472C132.863 172.992 132.767 172.59 132.575 172.266C132.395 171.93 132.149 171.66 131.837 171.456C131.525 171.252 131.171 171.108 130.775 171.024C130.379 170.928 129.971 170.88 129.551 170.88H128.993V169.764ZM145.194 177H137.04V175.65L142.26 170.376C142.452 170.184 142.638 169.98 142.818 169.764C143.01 169.536 143.178 169.302 143.322 169.062C143.466 168.822 143.58 168.57 143.664 168.306C143.748 168.03 143.79 167.748 143.79 167.46C143.79 167.088 143.724 166.752 143.592 166.452C143.46 166.152 143.274 165.9 143.034 165.696C142.806 165.48 142.536 165.318 142.224 165.21C141.924 165.09 141.606 165.03 141.27 165.03C140.586 165.03 140.01 165.246 139.542 165.678C139.074 166.098 138.774 166.638 138.642 167.298L137.364 167.046C137.448 166.602 137.604 166.188 137.832 165.804C138.072 165.42 138.36 165.09 138.696 164.814C139.044 164.538 139.434 164.322 139.866 164.166C140.298 164.01 140.766 163.932 141.27 163.932C141.786 163.932 142.272 164.01 142.728 164.166C143.196 164.31 143.604 164.532 143.952 164.832C144.3 165.12 144.576 165.486 144.78 165.93C144.996 166.362 145.104 166.866 145.104 167.442C145.104 167.85 145.044 168.228 144.924 168.576C144.816 168.924 144.666 169.254 144.474 169.566C144.294 169.878 144.078 170.178 143.826 170.466C143.574 170.742 143.31 171.018 143.034 171.294L138.444 175.848H145.194V177ZM154.951 172.788H156.823V173.922H154.951V177H153.691V173.922H147.859V172.662L153.259 164.256H154.951V172.788ZM153.691 165.714H153.655L149.209 172.788H153.691V165.714ZM161.937 169.764H162.495C162.903 169.764 163.287 169.722 163.647 169.638C164.007 169.554 164.319 169.422 164.583 169.242C164.859 169.05 165.075 168.804 165.231 168.504C165.387 168.204 165.465 167.844 165.465 167.424C165.465 167.064 165.399 166.74 165.267 166.452C165.135 166.152 164.949 165.9 164.709 165.696C164.481 165.48 164.211 165.318 163.899 165.21C163.599 165.09 163.281 165.03 162.945 165.03C162.405 165.03 161.925 165.156 161.505 165.408C161.097 165.66 160.767 166.032 160.515 166.524L159.417 165.948C159.813 165.264 160.317 164.76 160.929 164.436C161.541 164.1 162.237 163.932 163.017 163.932C163.521 163.932 163.995 164.01 164.439 164.166C164.895 164.31 165.291 164.526 165.627 164.814C165.975 165.102 166.245 165.462 166.437 165.894C166.641 166.314 166.743 166.8 166.743 167.352C166.743 168.108 166.533 168.744 166.113 169.26C165.693 169.764 165.165 170.1 164.529 170.268V170.304C165.261 170.46 165.873 170.814 166.365 171.366C166.857 171.906 167.103 172.608 167.103 173.472C167.103 174.084 166.989 174.63 166.761 175.11C166.545 175.578 166.251 175.98 165.879 176.316C165.507 176.64 165.069 176.886 164.565 177.054C164.073 177.234 163.551 177.324 162.999 177.324C162.063 177.324 161.247 177.102 160.551 176.658C159.855 176.202 159.327 175.554 158.967 174.714L160.191 174.264C160.407 174.876 160.767 175.356 161.271 175.704C161.775 176.04 162.351 176.208 162.999 176.208C163.359 176.208 163.707 176.148 164.043 176.028C164.391 175.896 164.691 175.716 164.943 175.488C165.207 175.248 165.417 174.96 165.573 174.624C165.729 174.288 165.807 173.904 165.807 173.472C165.807 172.992 165.711 172.59 165.519 172.266C165.339 171.93 165.093 171.66 164.781 171.456C164.469 171.252 164.115 171.108 163.719 171.024C163.323 170.928 162.915 170.88 162.495 170.88H161.937V169.764Z" fill="black"/>
<path d="M118.948 143.11H118.984V132.256H120.28V145H118.66L111.244 134.038H111.208V145H109.912V132.256H111.532L118.948 143.11ZM129.436 139.564C129.436 138.832 129.244 138.286 128.86 137.926C128.476 137.566 127.918 137.386 127.186 137.386C126.682 137.386 126.214 137.476 125.782 137.656C125.35 137.836 124.984 138.076 124.684 138.376L124 137.566C124.348 137.218 124.804 136.93 125.368 136.702C125.944 136.474 126.592 136.36 127.312 136.36C127.768 136.36 128.194 136.426 128.59 136.558C128.986 136.678 129.334 136.864 129.634 137.116C129.934 137.368 130.168 137.686 130.336 138.07C130.504 138.454 130.588 138.904 130.588 139.42V143.11C130.588 143.434 130.6 143.77 130.624 144.118C130.648 144.466 130.684 144.76 130.732 145H129.634C129.598 144.796 129.568 144.574 129.544 144.334C129.52 144.094 129.508 143.86 129.508 143.632H129.472C129.088 144.196 128.65 144.604 128.158 144.856C127.678 145.096 127.096 145.216 126.412 145.216C126.088 145.216 125.752 145.168 125.404 145.072C125.068 144.988 124.756 144.844 124.468 144.64C124.192 144.436 123.958 144.172 123.766 143.848C123.586 143.524 123.496 143.128 123.496 142.66C123.496 142.012 123.658 141.502 123.982 141.13C124.318 140.746 124.762 140.464 125.314 140.284C125.866 140.092 126.496 139.972 127.204 139.924C127.924 139.864 128.668 139.834 129.436 139.834V139.564ZM129.076 140.788C128.572 140.788 128.062 140.812 127.546 140.86C127.042 140.896 126.58 140.98 126.16 141.112C125.752 141.232 125.416 141.412 125.152 141.652C124.888 141.892 124.756 142.21 124.756 142.606C124.756 142.906 124.81 143.158 124.918 143.362C125.038 143.566 125.194 143.734 125.386 143.866C125.578 143.986 125.788 144.076 126.016 144.136C126.256 144.184 126.496 144.208 126.736 144.208C127.168 144.208 127.552 144.136 127.888 143.992C128.224 143.836 128.506 143.632 128.734 143.38C128.962 143.116 129.136 142.816 129.256 142.48C129.376 142.144 129.436 141.79 129.436 141.418V140.788H129.076ZM137.738 145H136.388L132.95 136.576H134.318L137.054 143.704H137.09L139.844 136.576H141.158L137.738 145ZM146.509 143.686H146.545L149.155 136.576H150.487L146.293 147.178C146.041 147.826 145.717 148.342 145.321 148.726C144.937 149.122 144.379 149.32 143.647 149.32C143.275 149.32 142.909 149.284 142.549 149.212L142.675 148.096C142.963 148.192 143.263 148.24 143.575 148.24C143.995 148.24 144.325 148.108 144.565 147.844C144.805 147.592 145.015 147.226 145.195 146.746L145.879 144.982L142.279 136.576H143.647L146.509 143.686Z" fill="black"/>
<path d="M250.427 142.948C250.211 143.272 249.947 143.578 249.635 143.866C249.335 144.154 248.981 144.406 248.573 144.622C248.177 144.838 247.733 145.006 247.241 145.126C246.761 145.258 246.233 145.324 245.657 145.324C244.697 145.324 243.809 145.156 242.993 144.82C242.177 144.484 241.475 144.022 240.887 143.434C240.299 142.834 239.837 142.126 239.501 141.31C239.177 140.494 239.015 139.6 239.015 138.628C239.015 137.656 239.183 136.762 239.519 135.946C239.855 135.13 240.317 134.428 240.905 133.84C241.505 133.24 242.207 132.772 243.011 132.436C243.827 132.1 244.709 131.932 245.657 131.932C246.125 131.932 246.581 131.98 247.025 132.076C247.481 132.172 247.907 132.31 248.303 132.49C248.699 132.658 249.059 132.868 249.383 133.12C249.707 133.36 249.977 133.636 250.193 133.948L249.113 134.74C248.981 134.536 248.801 134.332 248.573 134.128C248.357 133.924 248.099 133.744 247.799 133.588C247.499 133.432 247.169 133.306 246.809 133.21C246.461 133.114 246.083 133.066 245.675 133.066C244.847 133.066 244.103 133.216 243.443 133.516C242.795 133.816 242.243 134.224 241.787 134.74C241.331 135.244 240.983 135.832 240.743 136.504C240.503 137.176 240.383 137.884 240.383 138.628C240.383 139.372 240.503 140.08 240.743 140.752C240.995 141.424 241.349 142.018 241.805 142.534C242.261 143.038 242.813 143.44 243.461 143.74C244.121 144.04 244.859 144.19 245.675 144.19C246.407 144.19 247.103 144.04 247.763 143.74C248.423 143.44 248.975 142.96 249.419 142.3L250.427 142.948ZM253.122 138.43C253.122 138.202 253.116 137.908 253.104 137.548C253.092 137.188 253.074 136.864 253.05 136.576H254.22C254.244 136.804 254.262 137.056 254.274 137.332C254.286 137.608 254.292 137.836 254.292 138.016H254.328C254.568 137.524 254.928 137.128 255.408 136.828C255.888 136.516 256.428 136.36 257.028 136.36C257.184 136.36 257.322 136.366 257.442 136.378C257.574 136.39 257.706 136.414 257.838 136.45L257.676 137.602C257.604 137.578 257.484 137.554 257.316 137.53C257.148 137.506 256.98 137.494 256.812 137.494C256.488 137.494 256.176 137.554 255.876 137.674C255.576 137.794 255.312 137.986 255.084 138.25C254.868 138.502 254.688 138.832 254.544 139.24C254.412 139.636 254.346 140.116 254.346 140.68V145H253.122V138.43ZM266.258 140.14C266.222 139.348 265.964 138.694 265.484 138.178C265.016 137.65 264.344 137.386 263.468 137.386C263.06 137.386 262.682 137.464 262.334 137.62C261.986 137.764 261.68 137.968 261.416 138.232C261.152 138.484 260.942 138.778 260.786 139.114C260.63 139.438 260.54 139.78 260.516 140.14H266.258ZM267.5 140.536C267.5 140.62 267.5 140.71 267.5 140.806C267.5 140.902 267.494 141.004 267.482 141.112H260.498C260.51 141.532 260.594 141.928 260.75 142.3C260.906 142.672 261.122 142.996 261.398 143.272C261.674 143.548 261.998 143.77 262.37 143.938C262.742 144.094 263.144 144.172 263.576 144.172C264.212 144.172 264.758 144.028 265.214 143.74C265.682 143.44 266.036 143.098 266.276 142.714L267.194 143.434C266.69 144.07 266.132 144.526 265.52 144.802C264.92 145.078 264.272 145.216 263.576 145.216C262.952 145.216 262.37 145.108 261.83 144.892C261.302 144.664 260.846 144.352 260.462 143.956C260.078 143.56 259.772 143.092 259.544 142.552C259.328 142.012 259.22 141.424 259.22 140.788C259.22 140.152 259.328 139.564 259.544 139.024C259.76 138.484 260.06 138.016 260.444 137.62C260.828 137.224 261.278 136.918 261.794 136.702C262.31 136.474 262.868 136.36 263.468 136.36C264.128 136.36 264.71 136.474 265.214 136.702C265.718 136.918 266.138 137.218 266.474 137.602C266.81 137.974 267.062 138.412 267.23 138.916C267.41 139.42 267.5 139.96 267.5 140.536ZM275.877 139.564C275.877 138.832 275.685 138.286 275.301 137.926C274.917 137.566 274.359 137.386 273.627 137.386C273.123 137.386 272.655 137.476 272.223 137.656C271.791 137.836 271.425 138.076 271.125 138.376L270.441 137.566C270.789 137.218 271.245 136.93 271.809 136.702C272.385 136.474 273.033 136.36 273.753 136.36C274.209 136.36 274.635 136.426 275.031 136.558C275.427 136.678 275.775 136.864 276.075 137.116C276.375 137.368 276.609 137.686 276.777 138.07C276.945 138.454 277.029 138.904 277.029 139.42V143.11C277.029 143.434 277.041 143.77 277.065 144.118C277.089 144.466 277.125 144.76 277.173 145H276.075C276.039 144.796 276.009 144.574 275.985 144.334C275.961 144.094 275.949 143.86 275.949 143.632H275.913C275.529 144.196 275.091 144.604 274.599 144.856C274.119 145.096 273.537 145.216 272.853 145.216C272.529 145.216 272.193 145.168 271.845 145.072C271.509 144.988 271.197 144.844 270.909 144.64C270.633 144.436 270.399 144.172 270.207 143.848C270.027 143.524 269.937 143.128 269.937 142.66C269.937 142.012 270.099 141.502 270.423 141.13C270.759 140.746 271.203 140.464 271.755 140.284C272.307 140.092 272.937 139.972 273.645 139.924C274.365 139.864 275.109 139.834 275.877 139.834V139.564ZM275.517 140.788C275.013 140.788 274.503 140.812 273.987 140.86C273.483 140.896 273.021 140.98 272.601 141.112C272.193 141.232 271.857 141.412 271.593 141.652C271.329 141.892 271.197 142.21 271.197 142.606C271.197 142.906 271.251 143.158 271.359 143.362C271.479 143.566 271.635 143.734 271.827 143.866C272.019 143.986 272.229 144.076 272.457 144.136C272.697 144.184 272.937 144.208 273.177 144.208C273.609 144.208 273.993 144.136 274.329 143.992C274.665 143.836 274.947 143.632 275.175 143.38C275.403 143.116 275.577 142.816 275.697 142.48C275.817 142.144 275.877 141.79 275.877 141.418V140.788H275.517ZM281.928 138.016C282.168 137.524 282.534 137.128 283.026 136.828C283.53 136.516 284.088 136.36 284.7 136.36C284.928 136.36 285.162 136.384 285.402 136.432C285.654 136.48 285.894 136.576 286.122 136.72C286.362 136.852 286.578 137.032 286.77 137.26C286.974 137.488 287.148 137.782 287.292 138.142C287.58 137.566 287.97 137.128 288.462 136.828C288.966 136.516 289.56 136.36 290.244 136.36C291.312 136.36 292.11 136.678 292.638 137.314C293.178 137.95 293.448 138.79 293.448 139.834V145H292.224V140.338C292.224 139.45 292.056 138.736 291.72 138.196C291.396 137.656 290.838 137.386 290.046 137.386C289.602 137.386 289.224 137.476 288.912 137.656C288.612 137.836 288.366 138.076 288.174 138.376C287.994 138.664 287.862 138.994 287.778 139.366C287.694 139.738 287.652 140.122 287.652 140.518V145H286.428V140.086C286.428 139.678 286.398 139.306 286.338 138.97C286.278 138.634 286.17 138.352 286.014 138.124C285.87 137.884 285.666 137.704 285.402 137.584C285.138 137.452 284.802 137.386 284.394 137.386C284.106 137.386 283.812 137.452 283.512 137.584C283.224 137.716 282.96 137.92 282.72 138.196C282.492 138.46 282.306 138.802 282.162 139.222C282.018 139.63 281.946 140.116 281.946 140.68V145H280.722V138.43C280.722 138.202 280.716 137.908 280.704 137.548C280.692 137.188 280.674 136.864 280.65 136.576H281.82C281.844 136.804 281.862 137.056 281.874 137.332C281.886 137.608 281.892 137.836 281.892 138.016H281.928Z" fill="black"/>
<path d="M226.734 173.148H224.898V172.068H226.878L227.274 169.152H225.33V168.072H227.436L227.958 164.256H229.056L228.534 168.072H230.928L231.45 164.256H232.548L232.026 168.072H233.646V169.152H231.864L231.468 172.068H233.178V173.148H231.324L230.784 177H229.686L230.226 173.148H227.832L227.292 177H226.194L226.734 173.148ZM227.976 172.068H230.37L230.766 169.152H228.372L227.976 172.068ZM237.798 177H236.502V164.256H244.188V165.408H237.798V169.836H243.738V170.97H237.798V177ZM248.445 175.848H255.267V177H247.149V164.256H255.051V165.408H248.445V169.8H254.619V170.934H248.445V175.848ZM269.069 174.948C268.853 175.272 268.589 175.578 268.277 175.866C267.977 176.154 267.623 176.406 267.215 176.622C266.819 176.838 266.375 177.006 265.883 177.126C265.403 177.258 264.875 177.324 264.299 177.324C263.339 177.324 262.451 177.156 261.635 176.82C260.819 176.484 260.117 176.022 259.529 175.434C258.941 174.834 258.479 174.126 258.143 173.31C257.819 172.494 257.657 171.6 257.657 170.628C257.657 169.656 257.825 168.762 258.161 167.946C258.497 167.13 258.959 166.428 259.547 165.84C260.147 165.24 260.849 164.772 261.653 164.436C262.469 164.1 263.351 163.932 264.299 163.932C264.767 163.932 265.223 163.98 265.667 164.076C266.123 164.172 266.549 164.31 266.945 164.49C267.341 164.658 267.701 164.868 268.025 165.12C268.349 165.36 268.619 165.636 268.835 165.948L267.755 166.74C267.623 166.536 267.443 166.332 267.215 166.128C266.999 165.924 266.741 165.744 266.441 165.588C266.141 165.432 265.811 165.306 265.451 165.21C265.103 165.114 264.725 165.066 264.317 165.066C263.489 165.066 262.745 165.216 262.085 165.516C261.437 165.816 260.885 166.224 260.429 166.74C259.973 167.244 259.625 167.832 259.385 168.504C259.145 169.176 259.025 169.884 259.025 170.628C259.025 171.372 259.145 172.08 259.385 172.752C259.637 173.424 259.991 174.018 260.447 174.534C260.903 175.038 261.455 175.44 262.103 175.74C262.763 176.04 263.501 176.19 264.317 176.19C265.049 176.19 265.745 176.04 266.405 175.74C267.065 175.44 267.617 174.96 268.061 174.3L269.069 174.948ZM271.836 164.256H276.066C276.858 164.256 277.65 164.388 278.442 164.652C279.246 164.916 279.966 165.318 280.602 165.858C281.25 166.386 281.772 167.052 282.168 167.856C282.564 168.648 282.762 169.572 282.762 170.628C282.762 171.696 282.564 172.626 282.168 173.418C281.772 174.21 281.25 174.876 280.602 175.416C279.966 175.944 279.246 176.34 278.442 176.604C277.65 176.868 276.858 177 276.066 177H271.836V164.256ZM273.132 175.848H275.706C276.666 175.848 277.5 175.698 278.208 175.398C278.928 175.098 279.522 174.708 279.99 174.228C280.458 173.736 280.806 173.178 281.034 172.554C281.274 171.93 281.394 171.288 281.394 170.628C281.394 169.968 281.274 169.326 281.034 168.702C280.806 168.078 280.458 167.526 279.99 167.046C279.522 166.554 278.928 166.158 278.208 165.858C277.5 165.558 276.666 165.408 275.706 165.408H273.132V175.848ZM291.166 171.438L291.13 171.402C290.938 171.546 290.668 171.66 290.32 171.744C289.972 171.828 289.636 171.87 289.312 171.87C288.76 171.87 288.244 171.774 287.764 171.582C287.296 171.39 286.888 171.126 286.54 170.79C286.192 170.442 285.916 170.028 285.712 169.548C285.52 169.056 285.424 168.522 285.424 167.946C285.424 167.358 285.526 166.818 285.73 166.326C285.934 165.822 286.222 165.396 286.594 165.048C286.966 164.7 287.404 164.43 287.908 164.238C288.412 164.034 288.964 163.932 289.564 163.932C290.164 163.932 290.716 164.034 291.22 164.238C291.724 164.43 292.162 164.7 292.534 165.048C292.906 165.396 293.194 165.822 293.398 166.326C293.602 166.818 293.704 167.358 293.704 167.946C293.704 168.606 293.59 169.218 293.362 169.782C293.134 170.346 292.864 170.886 292.552 171.402L289.078 177H287.584L291.166 171.438ZM292.408 167.946C292.408 167.538 292.336 167.154 292.192 166.794C292.06 166.434 291.868 166.128 291.616 165.876C291.364 165.612 291.064 165.408 290.716 165.264C290.368 165.108 289.984 165.03 289.564 165.03C289.144 165.03 288.76 165.108 288.412 165.264C288.064 165.408 287.764 165.612 287.512 165.876C287.26 166.128 287.062 166.434 286.918 166.794C286.786 167.154 286.72 167.538 286.72 167.946C286.72 168.354 286.786 168.738 286.918 169.098C287.05 169.446 287.236 169.752 287.476 170.016C287.728 170.268 288.028 170.466 288.376 170.61C288.736 170.754 289.132 170.826 289.564 170.826C289.996 170.826 290.386 170.754 290.734 170.61C291.094 170.466 291.394 170.268 291.634 170.016C291.886 169.752 292.078 169.446 292.21 169.098C292.342 168.738 292.408 168.354 292.408 167.946ZM296.981 164.256H300.779C301.259 164.256 301.745 164.31 302.237 164.418C302.729 164.514 303.167 164.688 303.551 164.94C303.947 165.18 304.265 165.51 304.505 165.93C304.757 166.35 304.883 166.878 304.883 167.514C304.883 168.186 304.679 168.774 304.271 169.278C303.863 169.77 303.317 170.094 302.633 170.25V170.286C303.461 170.382 304.145 170.706 304.685 171.258C305.237 171.798 305.513 172.536 305.513 173.472C305.513 174 305.399 174.486 305.171 174.93C304.955 175.362 304.643 175.734 304.235 176.046C303.827 176.346 303.329 176.58 302.741 176.748C302.153 176.916 301.493 177 300.761 177H296.981V164.256ZM298.277 169.836H300.887C301.199 169.836 301.511 169.8 301.823 169.728C302.147 169.656 302.441 169.536 302.705 169.368C302.969 169.188 303.179 168.954 303.335 168.666C303.503 168.378 303.587 168.024 303.587 167.604C303.587 167.196 303.503 166.854 303.335 166.578C303.179 166.29 302.963 166.056 302.687 165.876C302.411 165.696 302.087 165.57 301.715 165.498C301.343 165.414 300.947 165.372 300.527 165.372H298.277V169.836ZM298.277 175.884H300.689C301.157 175.884 301.601 175.842 302.021 175.758C302.453 175.662 302.825 175.518 303.137 175.326C303.461 175.122 303.719 174.864 303.911 174.552C304.103 174.228 304.199 173.844 304.199 173.4C304.199 172.56 303.911 171.936 303.335 171.528C302.771 171.108 301.967 170.898 300.923 170.898H298.277V175.884Z" fill="black"/>
</svg>
