<svg width="667" height="179" viewBox="0 0 667 179" fill="none" xmlns="http://www.w3.org/2000/svg">
<path d="M194.5 117C226.809 117 253 90.8087 253 58.5C253 26.1913 226.809 0 194.5 0C162.191 0 136 26.1913 136 58.5C136 90.8087 162.191 117 194.5 117Z" fill="#FECD9B"/>
<path d="M58.5 117C90.8087 117 117 90.8087 117 58.5C117 26.1913 90.8087 0 58.5 0C26.1913 0 0 26.1913 0 58.5C0 90.8087 26.1913 117 58.5 117Z" fill="#2A3243"/>
<path d="M528.5 58.5C528.5 90.5325 502.533 116.5 470.5 116.5C438.467 116.5 412.5 90.5325 412.5 58.5C412.5 26.4675 438.467 0.5 470.5 0.5C502.533 0.5 528.5 26.4675 528.5 58.5Z" fill="white" stroke="black"/>
<path d="M332.5 117C364.809 117 391 90.8087 391 58.5C391 26.1913 364.809 0 332.5 0C300.191 0 274 26.1913 274 58.5C274 90.8087 300.191 117 332.5 117Z" fill="#D38038"/>
<path d="M21.9398 173.148H20.1038V172.068H22.0838L22.4798 169.152H20.5358V168.072H22.6418L23.1638 164.256H24.2618L23.7398 168.072H26.1338L26.6558 164.256H27.7538L27.2318 168.072H28.8518V169.152H27.0698L26.6738 172.068H28.3838V173.148H26.5298L25.9898 177H24.8918L25.4318 173.148H23.0378L22.4978 177H21.3998L21.9398 173.148ZM23.1818 172.068H25.5758L25.9718 169.152H23.5778L23.1818 172.068ZM39.0877 177H30.9337V175.65L36.1537 170.376C36.3457 170.184 36.5317 169.98 36.7117 169.764C36.9037 169.536 37.0717 169.302 37.2157 169.062C37.3597 168.822 37.4737 168.57 37.5577 168.306C37.6417 168.03 37.6837 167.748 37.6837 167.46C37.6837 167.088 37.6177 166.752 37.4857 166.452C37.3537 166.152 37.1677 165.9 36.9277 165.696C36.6997 165.48 36.4297 165.318 36.1177 165.21C35.8177 165.09 35.4997 165.03 35.1637 165.03C34.4797 165.03 33.9037 165.246 33.4357 165.678C32.9677 166.098 32.6677 166.638 32.5357 167.298L31.2577 167.046C31.3417 166.602 31.4977 166.188 31.7257 165.804C31.9657 165.42 32.2537 165.09 32.5897 164.814C32.9377 164.538 33.3277 164.322 33.7597 164.166C34.1917 164.01 34.6597 163.932 35.1637 163.932C35.6797 163.932 36.1657 164.01 36.6217 164.166C37.0897 164.31 37.4977 164.532 37.8457 164.832C38.1937 165.12 38.4697 165.486 38.6737 165.93C38.8897 166.362 38.9977 166.866 38.9977 167.442C38.9977 167.85 38.9377 168.228 38.8177 168.576C38.7097 168.924 38.5597 169.254 38.3677 169.566C38.1877 169.878 37.9717 170.178 37.7197 170.466C37.4677 170.742 37.2037 171.018 36.9277 171.294L32.3377 175.848H39.0877V177ZM42.5991 177H41.1771L46.6851 164.256H47.9451L53.4171 177H51.9771L50.5731 173.652H43.9851L42.5991 177ZM44.4711 172.464H50.0871L47.2791 165.696L44.4711 172.464ZM57.9926 169.764H58.5506C58.9586 169.764 59.3426 169.722 59.7026 169.638C60.0626 169.554 60.3746 169.422 60.6386 169.242C60.9146 169.05 61.1306 168.804 61.2866 168.504C61.4426 168.204 61.5206 167.844 61.5206 167.424C61.5206 167.064 61.4546 166.74 61.3226 166.452C61.1906 166.152 61.0046 165.9 60.7646 165.696C60.5366 165.48 60.2666 165.318 59.9546 165.21C59.6546 165.09 59.3366 165.03 59.0006 165.03C58.4606 165.03 57.9806 165.156 57.5606 165.408C57.1526 165.66 56.8226 166.032 56.5706 166.524L55.4726 165.948C55.8686 165.264 56.3726 164.76 56.9846 164.436C57.5966 164.1 58.2926 163.932 59.0726 163.932C59.5766 163.932 60.0506 164.01 60.4946 164.166C60.9506 164.31 61.3466 164.526 61.6826 164.814C62.0306 165.102 62.3006 165.462 62.4926 165.894C62.6966 166.314 62.7986 166.8 62.7986 167.352C62.7986 168.108 62.5886 168.744 62.1686 169.26C61.7486 169.764 61.2206 170.1 60.5846 170.268V170.304C61.3166 170.46 61.9286 170.814 62.4206 171.366C62.9126 171.906 63.1586 172.608 63.1586 173.472C63.1586 174.084 63.0446 174.63 62.8166 175.11C62.6006 175.578 62.3066 175.98 61.9346 176.316C61.5626 176.64 61.1246 176.886 60.6206 177.054C60.1286 177.234 59.6066 177.324 59.0546 177.324C58.1186 177.324 57.3026 177.102 56.6066 176.658C55.9106 176.202 55.3826 175.554 55.0226 174.714L56.2466 174.264C56.4626 174.876 56.8226 175.356 57.3266 175.704C57.8306 176.04 58.4066 176.208 59.0546 176.208C59.4146 176.208 59.7626 176.148 60.0986 176.028C60.4466 175.896 60.7466 175.716 60.9986 175.488C61.2626 175.248 61.4726 174.96 61.6286 174.624C61.7846 174.288 61.8626 173.904 61.8626 173.472C61.8626 172.992 61.7666 172.59 61.5746 172.266C61.3946 171.93 61.1486 171.66 60.8366 171.456C60.5246 171.252 60.1706 171.108 59.7746 171.024C59.3786 170.928 58.9706 170.88 58.5506 170.88H57.9926V169.764ZM74.194 177H66.04V175.65L71.26 170.376C71.452 170.184 71.638 169.98 71.818 169.764C72.01 169.536 72.178 169.302 72.322 169.062C72.466 168.822 72.58 168.57 72.664 168.306C72.748 168.03 72.79 167.748 72.79 167.46C72.79 167.088 72.724 166.752 72.592 166.452C72.46 166.152 72.274 165.9 72.034 165.696C71.806 165.48 71.536 165.318 71.224 165.21C70.924 165.09 70.606 165.03 70.27 165.03C69.586 165.03 69.01 165.246 68.542 165.678C68.074 166.098 67.774 166.638 67.642 167.298L66.364 167.046C66.448 166.602 66.604 166.188 66.832 165.804C67.072 165.42 67.36 165.09 67.696 164.814C68.044 164.538 68.434 164.322 68.866 164.166C69.298 164.01 69.766 163.932 70.27 163.932C70.786 163.932 71.272 164.01 71.728 164.166C72.196 164.31 72.604 164.532 72.952 164.832C73.3 165.12 73.576 165.486 73.78 165.93C73.996 166.362 74.104 166.866 74.104 167.442C74.104 167.85 74.044 168.228 73.924 168.576C73.816 168.924 73.666 169.254 73.474 169.566C73.294 169.878 73.078 170.178 72.826 170.466C72.574 170.742 72.31 171.018 72.034 171.294L67.444 175.848H74.194V177ZM83.9514 172.788H85.8234V173.922H83.9514V177H82.6914V173.922H76.8594V172.662L82.2594 164.256H83.9514V172.788ZM82.6914 165.714H82.6554L78.2094 172.788H82.6914V165.714ZM90.9368 169.764H91.4948C91.9028 169.764 92.2868 169.722 92.6468 169.638C93.0068 169.554 93.3188 169.422 93.5828 169.242C93.8588 169.05 94.0748 168.804 94.2308 168.504C94.3868 168.204 94.4648 167.844 94.4648 167.424C94.4648 167.064 94.3988 166.74 94.2668 166.452C94.1348 166.152 93.9488 165.9 93.7088 165.696C93.4808 165.48 93.2108 165.318 92.8988 165.21C92.5988 165.09 92.2808 165.03 91.9448 165.03C91.4048 165.03 90.9248 165.156 90.5048 165.408C90.0968 165.66 89.7668 166.032 89.5148 166.524L88.4168 165.948C88.8128 165.264 89.3168 164.76 89.9288 164.436C90.5408 164.1 91.2368 163.932 92.0168 163.932C92.5208 163.932 92.9948 164.01 93.4388 164.166C93.8948 164.31 94.2908 164.526 94.6268 164.814C94.9748 165.102 95.2448 165.462 95.4368 165.894C95.6408 166.314 95.7428 166.8 95.7428 167.352C95.7428 168.108 95.5328 168.744 95.1128 169.26C94.6928 169.764 94.1648 170.1 93.5288 170.268V170.304C94.2608 170.46 94.8728 170.814 95.3648 171.366C95.8568 171.906 96.1028 172.608 96.1028 173.472C96.1028 174.084 95.9888 174.63 95.7608 175.11C95.5448 175.578 95.2508 175.98 94.8788 176.316C94.5068 176.64 94.0688 176.886 93.5648 177.054C93.0728 177.234 92.5508 177.324 91.9988 177.324C91.0628 177.324 90.2468 177.102 89.5508 176.658C88.8548 176.202 88.3268 175.554 87.9668 174.714L89.1908 174.264C89.4068 174.876 89.7668 175.356 90.2708 175.704C90.7748 176.04 91.3508 176.208 91.9988 176.208C92.3588 176.208 92.7068 176.148 93.0428 176.028C93.3908 175.896 93.6908 175.716 93.9428 175.488C94.2068 175.248 94.4168 174.96 94.5728 174.624C94.7288 174.288 94.8068 173.904 94.8068 173.472C94.8068 172.992 94.7108 172.59 94.5188 172.266C94.3388 171.93 94.0928 171.66 93.7808 171.456C93.4688 171.252 93.1148 171.108 92.7188 171.024C92.3228 170.928 91.9148 170.88 91.4948 170.88H90.9368V169.764Z" fill="black"/>
<path d="M47.9483 143.11H47.9843V132.256H49.2803V145H47.6603L40.2443 134.038H40.2083V145H38.9123V132.256H40.5323L47.9483 143.11ZM58.4364 139.564C58.4364 138.832 58.2444 138.286 57.8604 137.926C57.4764 137.566 56.9184 137.386 56.1864 137.386C55.6824 137.386 55.2144 137.476 54.7824 137.656C54.3504 137.836 53.9844 138.076 53.6844 138.376L53.0004 137.566C53.3484 137.218 53.8044 136.93 54.3684 136.702C54.9444 136.474 55.5924 136.36 56.3124 136.36C56.7684 136.36 57.1944 136.426 57.5904 136.558C57.9864 136.678 58.3344 136.864 58.6344 137.116C58.9344 137.368 59.1684 137.686 59.3364 138.07C59.5044 138.454 59.5884 138.904 59.5884 139.42V143.11C59.5884 143.434 59.6004 143.77 59.6244 144.118C59.6484 144.466 59.6844 144.76 59.7324 145H58.6344C58.5984 144.796 58.5684 144.574 58.5444 144.334C58.5204 144.094 58.5084 143.86 58.5084 143.632H58.4724C58.0884 144.196 57.6504 144.604 57.1584 144.856C56.6784 145.096 56.0964 145.216 55.4124 145.216C55.0884 145.216 54.7524 145.168 54.4044 145.072C54.0684 144.988 53.7564 144.844 53.4684 144.64C53.1924 144.436 52.9584 144.172 52.7664 143.848C52.5864 143.524 52.4964 143.128 52.4964 142.66C52.4964 142.012 52.6584 141.502 52.9824 141.13C53.3184 140.746 53.7624 140.464 54.3144 140.284C54.8664 140.092 55.4964 139.972 56.2044 139.924C56.9244 139.864 57.6684 139.834 58.4364 139.834V139.564ZM58.0764 140.788C57.5724 140.788 57.0624 140.812 56.5464 140.86C56.0424 140.896 55.5804 140.98 55.1604 141.112C54.7524 141.232 54.4164 141.412 54.1524 141.652C53.8884 141.892 53.7564 142.21 53.7564 142.606C53.7564 142.906 53.8104 143.158 53.9184 143.362C54.0384 143.566 54.1944 143.734 54.3864 143.866C54.5784 143.986 54.7884 144.076 55.0164 144.136C55.2564 144.184 55.4964 144.208 55.7364 144.208C56.1684 144.208 56.5524 144.136 56.8884 143.992C57.2244 143.836 57.5064 143.632 57.7344 143.38C57.9624 143.116 58.1364 142.816 58.2564 142.48C58.3764 142.144 58.4364 141.79 58.4364 141.418V140.788H58.0764ZM66.7376 145H65.3876L61.9496 136.576H63.3176L66.0536 143.704H66.0896L68.8436 136.576H70.1576L66.7376 145ZM75.5087 143.686H75.5447L78.1547 136.576H79.4867L75.2927 147.178C75.0407 147.826 74.7167 148.342 74.3207 148.726C73.9367 149.122 73.3787 149.32 72.6467 149.32C72.2747 149.32 71.9087 149.284 71.5487 149.212L71.6747 148.096C71.9627 148.192 72.2627 148.24 72.5747 148.24C72.9947 148.24 73.3247 148.108 73.5647 147.844C73.8047 147.592 74.0147 147.226 74.1947 146.746L74.8787 144.982L71.2787 136.576H72.6467L75.5087 143.686Z" fill="black"/>
<path d="M436.023 175.148H434.187V174.068H436.167L436.563 171.152H434.619V170.072H436.725L437.247 166.256H438.345L437.823 170.072H440.217L440.739 166.256H441.837L441.315 170.072H442.935V171.152H441.153L440.757 174.068H442.467V175.148H440.613L440.073 179H438.975L439.515 175.148H437.121L436.581 179H435.483L436.023 175.148ZM437.265 174.068H439.659L440.055 171.152H437.661L437.265 174.068ZM447.087 179H445.791V166.256H453.477V167.408H447.087V171.836H453.027V172.97H447.087V179ZM457.734 179H456.438V166.256H464.124V167.408H457.734V171.836H463.674V172.97H457.734V179ZM468.382 179H467.086V166.256H474.772V167.408H468.382V171.836H474.322V172.97H468.382V179ZM479.029 179H477.733V166.256H485.419V167.408H479.029V171.836H484.969V172.97H479.029V179ZM489.676 179H488.38V166.256H496.066V167.408H489.676V171.836H495.616V172.97H489.676V179ZM500.324 179H499.028V166.256H506.714V167.408H500.324V171.836H506.264V172.97H500.324V179Z" fill="black"/>
<path d="M449.941 145.218H449.977L453.163 134.256H454.711L457.897 145.218H457.933L461.047 134.256H462.415L458.653 147H457.141L453.937 136.056H453.901L450.697 147H449.185L445.423 134.256H446.791L449.941 145.218ZM466.117 139.962C466.345 139.47 466.723 139.08 467.251 138.792C467.779 138.504 468.343 138.36 468.943 138.36C470.011 138.36 470.809 138.678 471.337 139.314C471.877 139.95 472.147 140.79 472.147 141.834V147H470.923V142.338C470.923 141.894 470.887 141.492 470.815 141.132C470.743 140.772 470.617 140.466 470.437 140.214C470.269 139.95 470.035 139.746 469.735 139.602C469.447 139.458 469.081 139.386 468.637 139.386C468.313 139.386 467.995 139.452 467.683 139.584C467.383 139.716 467.113 139.92 466.873 140.196C466.633 140.46 466.441 140.802 466.297 141.222C466.153 141.63 466.081 142.116 466.081 142.68V147H464.857V133.392H466.081V139.962H466.117ZM477.097 147H475.873V138.576H477.097V147ZM477.349 135.336C477.349 135.588 477.259 135.798 477.079 135.966C476.899 136.122 476.701 136.2 476.485 136.2C476.269 136.2 476.071 136.122 475.891 135.966C475.711 135.798 475.621 135.588 475.621 135.336C475.621 135.084 475.711 134.88 475.891 134.724C476.071 134.556 476.269 134.472 476.485 134.472C476.701 134.472 476.899 134.556 477.079 134.724C477.259 134.88 477.349 135.084 477.349 135.336ZM484.693 139.602H482.317V144.516C482.317 144.828 482.347 145.086 482.407 145.29C482.467 145.494 482.551 145.656 482.659 145.776C482.779 145.884 482.917 145.962 483.073 146.01C483.229 146.046 483.397 146.064 483.577 146.064C483.745 146.064 483.919 146.04 484.099 145.992C484.291 145.944 484.471 145.878 484.639 145.794L484.693 146.856C484.477 146.94 484.249 147 484.009 147.036C483.781 147.084 483.529 147.108 483.253 147.108C483.025 147.108 482.785 147.078 482.533 147.018C482.281 146.958 482.047 146.844 481.831 146.676C481.615 146.508 481.435 146.28 481.291 145.992C481.159 145.704 481.093 145.326 481.093 144.858V139.602H479.347V138.576H481.093V136.2H482.317V138.576H484.693V139.602ZM493.574 142.14C493.538 141.348 493.28 140.694 492.8 140.178C492.332 139.65 491.66 139.386 490.784 139.386C490.376 139.386 489.998 139.464 489.65 139.62C489.302 139.764 488.996 139.968 488.732 140.232C488.468 140.484 488.258 140.778 488.102 141.114C487.946 141.438 487.856 141.78 487.832 142.14H493.574ZM494.816 142.536C494.816 142.62 494.816 142.71 494.816 142.806C494.816 142.902 494.81 143.004 494.798 143.112H487.814C487.826 143.532 487.91 143.928 488.066 144.3C488.222 144.672 488.438 144.996 488.714 145.272C488.99 145.548 489.314 145.77 489.686 145.938C490.058 146.094 490.46 146.172 490.892 146.172C491.528 146.172 492.074 146.028 492.53 145.74C492.998 145.44 493.352 145.098 493.592 144.714L494.51 145.434C494.006 146.07 493.448 146.526 492.836 146.802C492.236 147.078 491.588 147.216 490.892 147.216C490.268 147.216 489.686 147.108 489.146 146.892C488.618 146.664 488.162 146.352 487.778 145.956C487.394 145.56 487.088 145.092 486.86 144.552C486.644 144.012 486.536 143.424 486.536 142.788C486.536 142.152 486.644 141.564 486.86 141.024C487.076 140.484 487.376 140.016 487.76 139.62C488.144 139.224 488.594 138.918 489.11 138.702C489.626 138.474 490.184 138.36 490.784 138.36C491.444 138.36 492.026 138.474 492.53 138.702C493.034 138.918 493.454 139.218 493.79 139.602C494.126 139.974 494.378 140.412 494.546 140.916C494.726 141.42 494.816 141.96 494.816 142.536Z" fill="black"/>
<path d="M608.5 117C640.809 117 667 90.8087 667 58.5C667 26.1913 640.809 0 608.5 0C576.191 0 550 26.1913 550 58.5C550 90.8087 576.191 117 608.5 117Z" fill="#E1E1E1"/>
<path d="M572.704 175.148H570.868V174.068H572.848L573.244 171.152H571.3V170.072H573.406L573.928 166.256H575.026L574.504 170.072H576.898L577.42 166.256H578.518L577.996 170.072H579.616V171.152H577.834L577.438 174.068H579.148V175.148H577.294L576.754 179H575.656L576.196 175.148H573.802L573.262 179H572.164L572.704 175.148ZM573.946 174.068H576.34L576.736 171.152H574.342L573.946 174.068ZM583.768 177.848H590.59V179H582.472V166.256H590.374V167.408H583.768V171.8H589.942V172.934H583.768V177.848ZM598.417 179H597.121V167.858L594.817 169.82L594.025 168.92L597.265 166.256H598.417V179ZM605.942 177.848H612.764V179H604.646V166.256H612.548V167.408H605.942V171.8H612.116V172.934H605.942V177.848ZM620.59 179H619.294V167.858L616.99 169.82L616.198 168.92L619.438 166.256H620.59V179ZM628.116 177.848H634.938V179H626.82V166.256H634.722V167.408H628.116V171.8H634.29V172.934H628.116V177.848ZM642.764 179H641.468V167.858L639.164 169.82L638.372 168.92L641.612 166.256H642.764V179Z" fill="black"/>
<path d="M599.694 136.542C599.25 136.074 598.722 135.714 598.11 135.462C597.498 135.198 596.796 135.066 596.004 135.066C595.188 135.066 594.45 135.216 593.79 135.516C593.142 135.816 592.59 136.224 592.134 136.74C591.678 137.244 591.324 137.832 591.072 138.504C590.832 139.176 590.712 139.884 590.712 140.628C590.712 141.372 590.832 142.08 591.072 142.752C591.324 143.424 591.678 144.012 592.134 144.516C592.59 145.02 593.142 145.422 593.79 145.722C594.45 146.022 595.188 146.172 596.004 146.172C596.724 146.172 597.384 146.094 597.984 145.938C598.584 145.782 599.07 145.584 599.442 145.344V141.474H596.472V140.34H600.738V146.082C600.042 146.502 599.292 146.814 598.488 147.018C597.684 147.222 596.85 147.324 595.986 147.324C595.026 147.324 594.138 147.156 593.322 146.82C592.506 146.484 591.804 146.022 591.216 145.434C590.628 144.834 590.166 144.126 589.83 143.31C589.506 142.494 589.344 141.6 589.344 140.628C589.344 139.656 589.512 138.762 589.848 137.946C590.184 137.13 590.646 136.428 591.234 135.84C591.834 135.24 592.536 134.772 593.34 134.436C594.156 134.1 595.038 133.932 595.986 133.932C597.006 133.932 597.894 134.082 598.65 134.382C599.406 134.682 600.054 135.102 600.594 135.642L599.694 136.542ZM604.524 140.43C604.524 140.202 604.518 139.908 604.506 139.548C604.494 139.188 604.476 138.864 604.452 138.576H605.622C605.646 138.804 605.664 139.056 605.676 139.332C605.688 139.608 605.694 139.836 605.694 140.016H605.73C605.97 139.524 606.33 139.128 606.81 138.828C607.29 138.516 607.83 138.36 608.43 138.36C608.586 138.36 608.724 138.366 608.844 138.378C608.976 138.39 609.108 138.414 609.24 138.45L609.078 139.602C609.006 139.578 608.886 139.554 608.718 139.53C608.55 139.506 608.382 139.494 608.214 139.494C607.89 139.494 607.578 139.554 607.278 139.674C606.978 139.794 606.714 139.986 606.486 140.25C606.27 140.502 606.09 140.832 605.946 141.24C605.814 141.636 605.748 142.116 605.748 142.68V147H604.524V140.43ZM616.649 141.564C616.649 140.832 616.457 140.286 616.073 139.926C615.689 139.566 615.131 139.386 614.399 139.386C613.895 139.386 613.427 139.476 612.995 139.656C612.563 139.836 612.197 140.076 611.897 140.376L611.213 139.566C611.561 139.218 612.017 138.93 612.581 138.702C613.157 138.474 613.805 138.36 614.525 138.36C614.981 138.36 615.407 138.426 615.803 138.558C616.199 138.678 616.547 138.864 616.847 139.116C617.147 139.368 617.381 139.686 617.549 140.07C617.717 140.454 617.801 140.904 617.801 141.42V145.11C617.801 145.434 617.813 145.77 617.837 146.118C617.861 146.466 617.897 146.76 617.945 147H616.847C616.811 146.796 616.781 146.574 616.757 146.334C616.733 146.094 616.721 145.86 616.721 145.632H616.685C616.301 146.196 615.863 146.604 615.371 146.856C614.891 147.096 614.309 147.216 613.625 147.216C613.301 147.216 612.965 147.168 612.617 147.072C612.281 146.988 611.969 146.844 611.681 146.64C611.405 146.436 611.171 146.172 610.979 145.848C610.799 145.524 610.709 145.128 610.709 144.66C610.709 144.012 610.871 143.502 611.195 143.13C611.531 142.746 611.975 142.464 612.527 142.284C613.079 142.092 613.709 141.972 614.417 141.924C615.137 141.864 615.881 141.834 616.649 141.834V141.564ZM616.289 142.788C615.785 142.788 615.275 142.812 614.759 142.86C614.255 142.896 613.793 142.98 613.373 143.112C612.965 143.232 612.629 143.412 612.365 143.652C612.101 143.892 611.969 144.21 611.969 144.606C611.969 144.906 612.023 145.158 612.131 145.362C612.251 145.566 612.407 145.734 612.599 145.866C612.791 145.986 613.001 146.076 613.229 146.136C613.469 146.184 613.709 146.208 613.949 146.208C614.381 146.208 614.765 146.136 615.101 145.992C615.437 145.836 615.719 145.632 615.947 145.38C616.175 145.116 616.349 144.816 616.469 144.48C616.589 144.144 616.649 143.79 616.649 143.418V142.788H616.289ZM624.392 145.686H624.428L627.038 138.576H628.37L624.176 149.178C623.924 149.826 623.6 150.342 623.204 150.726C622.82 151.122 622.262 151.32 621.53 151.32C621.158 151.32 620.792 151.284 620.432 151.212L620.558 150.096C620.846 150.192 621.146 150.24 621.458 150.24C621.878 150.24 622.208 150.108 622.448 149.844C622.688 149.592 622.898 149.226 623.078 148.746L623.762 146.982L620.162 138.576H621.53L624.392 145.686Z" fill="black"/>
<path d="M179.427 142.948C179.211 143.272 178.947 143.578 178.635 143.866C178.335 144.154 177.981 144.406 177.573 144.622C177.177 144.838 176.733 145.006 176.241 145.126C175.761 145.258 175.233 145.324 174.657 145.324C173.697 145.324 172.809 145.156 171.993 144.82C171.177 144.484 170.475 144.022 169.887 143.434C169.299 142.834 168.837 142.126 168.501 141.31C168.177 140.494 168.015 139.6 168.015 138.628C168.015 137.656 168.183 136.762 168.519 135.946C168.855 135.13 169.317 134.428 169.905 133.84C170.505 133.24 171.207 132.772 172.011 132.436C172.827 132.1 173.709 131.932 174.657 131.932C175.125 131.932 175.581 131.98 176.025 132.076C176.481 132.172 176.907 132.31 177.303 132.49C177.699 132.658 178.059 132.868 178.383 133.12C178.707 133.36 178.977 133.636 179.193 133.948L178.113 134.74C177.981 134.536 177.801 134.332 177.573 134.128C177.357 133.924 177.099 133.744 176.799 133.588C176.499 133.432 176.169 133.306 175.809 133.21C175.461 133.114 175.083 133.066 174.675 133.066C173.847 133.066 173.103 133.216 172.443 133.516C171.795 133.816 171.243 134.224 170.787 134.74C170.331 135.244 169.983 135.832 169.743 136.504C169.503 137.176 169.383 137.884 169.383 138.628C169.383 139.372 169.503 140.08 169.743 140.752C169.995 141.424 170.349 142.018 170.805 142.534C171.261 143.038 171.813 143.44 172.461 143.74C173.121 144.04 173.859 144.19 174.675 144.19C175.407 144.19 176.103 144.04 176.763 143.74C177.423 143.44 177.975 142.96 178.419 142.3L179.427 142.948ZM182.122 138.43C182.122 138.202 182.116 137.908 182.104 137.548C182.092 137.188 182.074 136.864 182.05 136.576H183.22C183.244 136.804 183.262 137.056 183.274 137.332C183.286 137.608 183.292 137.836 183.292 138.016H183.328C183.568 137.524 183.928 137.128 184.408 136.828C184.888 136.516 185.428 136.36 186.028 136.36C186.184 136.36 186.322 136.366 186.442 136.378C186.574 136.39 186.706 136.414 186.838 136.45L186.676 137.602C186.604 137.578 186.484 137.554 186.316 137.53C186.148 137.506 185.98 137.494 185.812 137.494C185.488 137.494 185.176 137.554 184.876 137.674C184.576 137.794 184.312 137.986 184.084 138.25C183.868 138.502 183.688 138.832 183.544 139.24C183.412 139.636 183.346 140.116 183.346 140.68V145H182.122V138.43ZM195.258 140.14C195.222 139.348 194.964 138.694 194.484 138.178C194.016 137.65 193.344 137.386 192.468 137.386C192.06 137.386 191.682 137.464 191.334 137.62C190.986 137.764 190.68 137.968 190.416 138.232C190.152 138.484 189.942 138.778 189.786 139.114C189.63 139.438 189.54 139.78 189.516 140.14H195.258ZM196.5 140.536C196.5 140.62 196.5 140.71 196.5 140.806C196.5 140.902 196.494 141.004 196.482 141.112H189.498C189.51 141.532 189.594 141.928 189.75 142.3C189.906 142.672 190.122 142.996 190.398 143.272C190.674 143.548 190.998 143.77 191.37 143.938C191.742 144.094 192.144 144.172 192.576 144.172C193.212 144.172 193.758 144.028 194.214 143.74C194.682 143.44 195.036 143.098 195.276 142.714L196.194 143.434C195.69 144.07 195.132 144.526 194.52 144.802C193.92 145.078 193.272 145.216 192.576 145.216C191.952 145.216 191.37 145.108 190.83 144.892C190.302 144.664 189.846 144.352 189.462 143.956C189.078 143.56 188.772 143.092 188.544 142.552C188.328 142.012 188.22 141.424 188.22 140.788C188.22 140.152 188.328 139.564 188.544 139.024C188.76 138.484 189.06 138.016 189.444 137.62C189.828 137.224 190.278 136.918 190.794 136.702C191.31 136.474 191.868 136.36 192.468 136.36C193.128 136.36 193.71 136.474 194.214 136.702C194.718 136.918 195.138 137.218 195.474 137.602C195.81 137.974 196.062 138.412 196.23 138.916C196.41 139.42 196.5 139.96 196.5 140.536ZM204.877 139.564C204.877 138.832 204.685 138.286 204.301 137.926C203.917 137.566 203.359 137.386 202.627 137.386C202.123 137.386 201.655 137.476 201.223 137.656C200.791 137.836 200.425 138.076 200.125 138.376L199.441 137.566C199.789 137.218 200.245 136.93 200.809 136.702C201.385 136.474 202.033 136.36 202.753 136.36C203.209 136.36 203.635 136.426 204.031 136.558C204.427 136.678 204.775 136.864 205.075 137.116C205.375 137.368 205.609 137.686 205.777 138.07C205.945 138.454 206.029 138.904 206.029 139.42V143.11C206.029 143.434 206.041 143.77 206.065 144.118C206.089 144.466 206.125 144.76 206.173 145H205.075C205.039 144.796 205.009 144.574 204.985 144.334C204.961 144.094 204.949 143.86 204.949 143.632H204.913C204.529 144.196 204.091 144.604 203.599 144.856C203.119 145.096 202.537 145.216 201.853 145.216C201.529 145.216 201.193 145.168 200.845 145.072C200.509 144.988 200.197 144.844 199.909 144.64C199.633 144.436 199.399 144.172 199.207 143.848C199.027 143.524 198.937 143.128 198.937 142.66C198.937 142.012 199.099 141.502 199.423 141.13C199.759 140.746 200.203 140.464 200.755 140.284C201.307 140.092 201.937 139.972 202.645 139.924C203.365 139.864 204.109 139.834 204.877 139.834V139.564ZM204.517 140.788C204.013 140.788 203.503 140.812 202.987 140.86C202.483 140.896 202.021 140.98 201.601 141.112C201.193 141.232 200.857 141.412 200.593 141.652C200.329 141.892 200.197 142.21 200.197 142.606C200.197 142.906 200.251 143.158 200.359 143.362C200.479 143.566 200.635 143.734 200.827 143.866C201.019 143.986 201.229 144.076 201.457 144.136C201.697 144.184 201.937 144.208 202.177 144.208C202.609 144.208 202.993 144.136 203.329 143.992C203.665 143.836 203.947 143.632 204.175 143.38C204.403 143.116 204.577 142.816 204.697 142.48C204.817 142.144 204.877 141.79 204.877 141.418V140.788H204.517ZM210.928 138.016C211.168 137.524 211.534 137.128 212.026 136.828C212.53 136.516 213.088 136.36 213.7 136.36C213.928 136.36 214.162 136.384 214.402 136.432C214.654 136.48 214.894 136.576 215.122 136.72C215.362 136.852 215.578 137.032 215.77 137.26C215.974 137.488 216.148 137.782 216.292 138.142C216.58 137.566 216.97 137.128 217.462 136.828C217.966 136.516 218.56 136.36 219.244 136.36C220.312 136.36 221.11 136.678 221.638 137.314C222.178 137.95 222.448 138.79 222.448 139.834V145H221.224V140.338C221.224 139.45 221.056 138.736 220.72 138.196C220.396 137.656 219.838 137.386 219.046 137.386C218.602 137.386 218.224 137.476 217.912 137.656C217.612 137.836 217.366 138.076 217.174 138.376C216.994 138.664 216.862 138.994 216.778 139.366C216.694 139.738 216.652 140.122 216.652 140.518V145H215.428V140.086C215.428 139.678 215.398 139.306 215.338 138.97C215.278 138.634 215.17 138.352 215.014 138.124C214.87 137.884 214.666 137.704 214.402 137.584C214.138 137.452 213.802 137.386 213.394 137.386C213.106 137.386 212.812 137.452 212.512 137.584C212.224 137.716 211.96 137.92 211.72 138.196C211.492 138.46 211.306 138.802 211.162 139.222C211.018 139.63 210.946 140.116 210.946 140.68V145H209.722V138.43C209.722 138.202 209.716 137.908 209.704 137.548C209.692 137.188 209.674 136.864 209.65 136.576H210.82C210.844 136.804 210.862 137.056 210.874 137.332C210.886 137.608 210.892 137.836 210.892 138.016H210.928Z" fill="black"/>
<path d="M313.784 138.628C313.784 139.6 313.616 140.494 313.28 141.31C312.944 142.126 312.476 142.834 311.876 143.434C311.288 144.022 310.586 144.484 309.77 144.82C308.966 145.156 308.09 145.324 307.142 145.324C306.194 145.324 305.312 145.156 304.496 144.82C303.692 144.484 302.99 144.022 302.39 143.434C301.802 142.834 301.34 142.126 301.004 141.31C300.668 140.494 300.5 139.6 300.5 138.628C300.5 137.656 300.668 136.762 301.004 135.946C301.34 135.13 301.802 134.428 302.39 133.84C302.99 133.24 303.692 132.772 304.496 132.436C305.312 132.1 306.194 131.932 307.142 131.932C308.09 131.932 308.966 132.1 309.77 132.436C310.586 132.772 311.288 133.24 311.876 133.84C312.476 134.428 312.944 135.13 313.28 135.946C313.616 136.762 313.784 137.656 313.784 138.628ZM312.416 138.628C312.416 137.884 312.296 137.176 312.056 136.504C311.816 135.832 311.468 135.244 311.012 134.74C310.556 134.224 309.998 133.816 309.338 133.516C308.69 133.216 307.958 133.066 307.142 133.066C306.326 133.066 305.588 133.216 304.928 133.516C304.28 133.816 303.728 134.224 303.272 134.74C302.816 135.244 302.468 135.832 302.228 136.504C301.988 137.176 301.868 137.884 301.868 138.628C301.868 139.372 301.988 140.08 302.228 140.752C302.468 141.424 302.816 142.012 303.272 142.516C303.728 143.02 304.28 143.422 304.928 143.722C305.588 144.022 306.326 144.172 307.142 144.172C307.958 144.172 308.69 144.022 309.338 143.722C309.998 143.422 310.556 143.02 311.012 142.516C311.468 142.012 311.816 141.424 312.056 140.752C312.296 140.08 312.416 139.372 312.416 138.628ZM316.945 138.43C316.945 138.202 316.939 137.908 316.927 137.548C316.915 137.188 316.897 136.864 316.873 136.576H318.043C318.067 136.804 318.085 137.056 318.097 137.332C318.109 137.608 318.115 137.836 318.115 138.016H318.151C318.391 137.524 318.751 137.128 319.231 136.828C319.711 136.516 320.251 136.36 320.851 136.36C321.007 136.36 321.145 136.366 321.265 136.378C321.397 136.39 321.529 136.414 321.661 136.45L321.499 137.602C321.427 137.578 321.307 137.554 321.139 137.53C320.971 137.506 320.803 137.494 320.635 137.494C320.311 137.494 319.999 137.554 319.699 137.674C319.399 137.794 319.135 137.986 318.907 138.25C318.691 138.502 318.511 138.832 318.367 139.24C318.235 139.636 318.169 140.116 318.169 140.68V145H316.945V138.43ZM329.07 139.564C329.07 138.832 328.878 138.286 328.494 137.926C328.11 137.566 327.552 137.386 326.82 137.386C326.316 137.386 325.848 137.476 325.416 137.656C324.984 137.836 324.618 138.076 324.318 138.376L323.634 137.566C323.982 137.218 324.438 136.93 325.002 136.702C325.578 136.474 326.226 136.36 326.946 136.36C327.402 136.36 327.828 136.426 328.224 136.558C328.62 136.678 328.968 136.864 329.268 137.116C329.568 137.368 329.802 137.686 329.97 138.07C330.138 138.454 330.222 138.904 330.222 139.42V143.11C330.222 143.434 330.234 143.77 330.258 144.118C330.282 144.466 330.318 144.76 330.366 145H329.268C329.232 144.796 329.202 144.574 329.178 144.334C329.154 144.094 329.142 143.86 329.142 143.632H329.106C328.722 144.196 328.284 144.604 327.792 144.856C327.312 145.096 326.73 145.216 326.046 145.216C325.722 145.216 325.386 145.168 325.038 145.072C324.702 144.988 324.39 144.844 324.102 144.64C323.826 144.436 323.592 144.172 323.4 143.848C323.22 143.524 323.13 143.128 323.13 142.66C323.13 142.012 323.292 141.502 323.616 141.13C323.952 140.746 324.396 140.464 324.948 140.284C325.5 140.092 326.13 139.972 326.838 139.924C327.558 139.864 328.302 139.834 329.07 139.834V139.564ZM328.71 140.788C328.206 140.788 327.696 140.812 327.18 140.86C326.676 140.896 326.214 140.98 325.794 141.112C325.386 141.232 325.05 141.412 324.786 141.652C324.522 141.892 324.39 142.21 324.39 142.606C324.39 142.906 324.444 143.158 324.552 143.362C324.672 143.566 324.828 143.734 325.02 143.866C325.212 143.986 325.422 144.076 325.65 144.136C325.89 144.184 326.13 144.208 326.37 144.208C326.802 144.208 327.186 144.136 327.522 143.992C327.858 143.836 328.14 143.632 328.368 143.38C328.596 143.116 328.77 142.816 328.89 142.48C329.01 142.144 329.07 141.79 329.07 141.418V140.788H328.71ZM335.013 136.576C335.037 136.804 335.055 137.056 335.067 137.332C335.079 137.608 335.085 137.836 335.085 138.016H335.121C335.361 137.524 335.751 137.128 336.291 136.828C336.831 136.516 337.401 136.36 338.001 136.36C339.069 136.36 339.867 136.678 340.395 137.314C340.935 137.95 341.205 138.79 341.205 139.834V145H339.981V140.338C339.981 139.894 339.945 139.492 339.873 139.132C339.801 138.772 339.675 138.466 339.495 138.214C339.327 137.95 339.093 137.746 338.793 137.602C338.505 137.458 338.139 137.386 337.695 137.386C337.371 137.386 337.053 137.452 336.741 137.584C336.441 137.716 336.171 137.92 335.931 138.196C335.691 138.46 335.499 138.802 335.355 139.222C335.211 139.63 335.139 140.116 335.139 140.68V145H333.915V138.43C333.915 138.202 333.909 137.908 333.897 137.548C333.885 137.188 333.867 136.864 333.843 136.576H335.013ZM345.364 146.692C345.7 147.124 346.156 147.49 346.732 147.79C347.32 148.09 347.938 148.24 348.586 148.24C349.186 148.24 349.696 148.15 350.116 147.97C350.536 147.802 350.872 147.568 351.124 147.268C351.388 146.968 351.58 146.614 351.7 146.206C351.82 145.81 351.88 145.384 351.88 144.928V143.344H351.844C351.52 143.872 351.058 144.28 350.458 144.568C349.87 144.856 349.27 145 348.658 145C347.998 145 347.398 144.892 346.858 144.676C346.33 144.46 345.874 144.166 345.49 143.794C345.118 143.41 344.824 142.954 344.608 142.426C344.404 141.898 344.302 141.328 344.302 140.716C344.302 140.116 344.404 139.552 344.608 139.024C344.824 138.496 345.118 138.034 345.49 137.638C345.874 137.242 346.33 136.93 346.858 136.702C347.398 136.474 347.998 136.36 348.658 136.36C349.27 136.36 349.87 136.504 350.458 136.792C351.046 137.08 351.508 137.494 351.844 138.034H351.88V136.576H353.104V144.928C353.104 145.384 353.038 145.87 352.906 146.386C352.786 146.902 352.552 147.376 352.204 147.808C351.868 148.24 351.406 148.6 350.818 148.888C350.23 149.176 349.468 149.32 348.532 149.32C347.752 149.32 347.008 149.17 346.3 148.87C345.592 148.57 344.986 148.156 344.482 147.628L345.364 146.692ZM345.598 140.68C345.598 141.124 345.67 141.544 345.814 141.94C345.958 142.336 346.162 142.684 346.426 142.984C346.702 143.284 347.038 143.524 347.434 143.704C347.83 143.872 348.28 143.956 348.784 143.956C349.252 143.956 349.684 143.878 350.08 143.722C350.476 143.566 350.818 143.344 351.106 143.056C351.394 142.768 351.616 142.426 351.772 142.03C351.94 141.622 352.024 141.172 352.024 140.68C352.024 140.236 351.94 139.816 351.772 139.42C351.616 139.024 351.394 138.676 351.106 138.376C350.818 138.076 350.476 137.836 350.08 137.656C349.684 137.476 349.252 137.386 348.784 137.386C348.28 137.386 347.83 137.476 347.434 137.656C347.038 137.836 346.702 138.076 346.426 138.376C346.162 138.676 345.958 139.024 345.814 139.42C345.67 139.816 345.598 140.236 345.598 140.68ZM363.253 140.14C363.217 139.348 362.959 138.694 362.479 138.178C362.011 137.65 361.339 137.386 360.463 137.386C360.055 137.386 359.677 137.464 359.329 137.62C358.981 137.764 358.675 137.968 358.411 138.232C358.147 138.484 357.937 138.778 357.781 139.114C357.625 139.438 357.535 139.78 357.511 140.14H363.253ZM364.495 140.536C364.495 140.62 364.495 140.71 364.495 140.806C364.495 140.902 364.489 141.004 364.477 141.112H357.493C357.505 141.532 357.589 141.928 357.745 142.3C357.901 142.672 358.117 142.996 358.393 143.272C358.669 143.548 358.993 143.77 359.365 143.938C359.737 144.094 360.139 144.172 360.571 144.172C361.207 144.172 361.753 144.028 362.209 143.74C362.677 143.44 363.031 143.098 363.271 142.714L364.189 143.434C363.685 144.07 363.127 144.526 362.515 144.802C361.915 145.078 361.267 145.216 360.571 145.216C359.947 145.216 359.365 145.108 358.825 144.892C358.297 144.664 357.841 144.352 357.457 143.956C357.073 143.56 356.767 143.092 356.539 142.552C356.323 142.012 356.215 141.424 356.215 140.788C356.215 140.152 356.323 139.564 356.539 139.024C356.755 138.484 357.055 138.016 357.439 137.62C357.823 137.224 358.273 136.918 358.789 136.702C359.305 136.474 359.863 136.36 360.463 136.36C361.123 136.36 361.705 136.474 362.209 136.702C362.713 136.918 363.133 137.218 363.469 137.602C363.805 137.974 364.057 138.412 364.225 138.916C364.405 139.42 364.495 139.96 364.495 140.536Z" fill="black"/>
<path d="M155.734 173.148H153.898V172.068H155.878L156.274 169.152H154.33V168.072H156.436L156.958 164.256H158.056L157.534 168.072H159.928L160.45 164.256H161.548L161.026 168.072H162.646V169.152H160.864L160.468 172.068H162.178V173.148H160.324L159.784 177H158.686L159.226 173.148H156.832L156.292 177H155.194L155.734 173.148ZM156.976 172.068H159.37L159.766 169.152H157.372L156.976 172.068ZM166.798 177H165.502V164.256H173.188V165.408H166.798V169.836H172.738V170.97H166.798V177ZM177.445 175.848H184.267V177H176.149V164.256H184.051V165.408H177.445V169.8H183.619V170.934H177.445V175.848ZM198.069 174.948C197.853 175.272 197.589 175.578 197.277 175.866C196.977 176.154 196.623 176.406 196.215 176.622C195.819 176.838 195.375 177.006 194.883 177.126C194.403 177.258 193.875 177.324 193.299 177.324C192.339 177.324 191.451 177.156 190.635 176.82C189.819 176.484 189.117 176.022 188.529 175.434C187.941 174.834 187.479 174.126 187.143 173.31C186.819 172.494 186.657 171.6 186.657 170.628C186.657 169.656 186.825 168.762 187.161 167.946C187.497 167.13 187.959 166.428 188.547 165.84C189.147 165.24 189.849 164.772 190.653 164.436C191.469 164.1 192.351 163.932 193.299 163.932C193.767 163.932 194.223 163.98 194.667 164.076C195.123 164.172 195.549 164.31 195.945 164.49C196.341 164.658 196.701 164.868 197.025 165.12C197.349 165.36 197.619 165.636 197.835 165.948L196.755 166.74C196.623 166.536 196.443 166.332 196.215 166.128C195.999 165.924 195.741 165.744 195.441 165.588C195.141 165.432 194.811 165.306 194.451 165.21C194.103 165.114 193.725 165.066 193.317 165.066C192.489 165.066 191.745 165.216 191.085 165.516C190.437 165.816 189.885 166.224 189.429 166.74C188.973 167.244 188.625 167.832 188.385 168.504C188.145 169.176 188.025 169.884 188.025 170.628C188.025 171.372 188.145 172.08 188.385 172.752C188.637 173.424 188.991 174.018 189.447 174.534C189.903 175.038 190.455 175.44 191.103 175.74C191.763 176.04 192.501 176.19 193.317 176.19C194.049 176.19 194.745 176.04 195.405 175.74C196.065 175.44 196.617 174.96 197.061 174.3L198.069 174.948ZM200.836 164.256H205.066C205.858 164.256 206.65 164.388 207.442 164.652C208.246 164.916 208.966 165.318 209.602 165.858C210.25 166.386 210.772 167.052 211.168 167.856C211.564 168.648 211.762 169.572 211.762 170.628C211.762 171.696 211.564 172.626 211.168 173.418C210.772 174.21 210.25 174.876 209.602 175.416C208.966 175.944 208.246 176.34 207.442 176.604C206.65 176.868 205.858 177 205.066 177H200.836V164.256ZM202.132 175.848H204.706C205.666 175.848 206.5 175.698 207.208 175.398C207.928 175.098 208.522 174.708 208.99 174.228C209.458 173.736 209.806 173.178 210.034 172.554C210.274 171.93 210.394 171.288 210.394 170.628C210.394 169.968 210.274 169.326 210.034 168.702C209.806 168.078 209.458 167.526 208.99 167.046C208.522 166.554 207.928 166.158 207.208 165.858C206.5 165.558 205.666 165.408 204.706 165.408H202.132V175.848ZM220.166 171.438L220.13 171.402C219.938 171.546 219.668 171.66 219.32 171.744C218.972 171.828 218.636 171.87 218.312 171.87C217.76 171.87 217.244 171.774 216.764 171.582C216.296 171.39 215.888 171.126 215.54 170.79C215.192 170.442 214.916 170.028 214.712 169.548C214.52 169.056 214.424 168.522 214.424 167.946C214.424 167.358 214.526 166.818 214.73 166.326C214.934 165.822 215.222 165.396 215.594 165.048C215.966 164.7 216.404 164.43 216.908 164.238C217.412 164.034 217.964 163.932 218.564 163.932C219.164 163.932 219.716 164.034 220.22 164.238C220.724 164.43 221.162 164.7 221.534 165.048C221.906 165.396 222.194 165.822 222.398 166.326C222.602 166.818 222.704 167.358 222.704 167.946C222.704 168.606 222.59 169.218 222.362 169.782C222.134 170.346 221.864 170.886 221.552 171.402L218.078 177H216.584L220.166 171.438ZM221.408 167.946C221.408 167.538 221.336 167.154 221.192 166.794C221.06 166.434 220.868 166.128 220.616 165.876C220.364 165.612 220.064 165.408 219.716 165.264C219.368 165.108 218.984 165.03 218.564 165.03C218.144 165.03 217.76 165.108 217.412 165.264C217.064 165.408 216.764 165.612 216.512 165.876C216.26 166.128 216.062 166.434 215.918 166.794C215.786 167.154 215.72 167.538 215.72 167.946C215.72 168.354 215.786 168.738 215.918 169.098C216.05 169.446 216.236 169.752 216.476 170.016C216.728 170.268 217.028 170.466 217.376 170.61C217.736 170.754 218.132 170.826 218.564 170.826C218.996 170.826 219.386 170.754 219.734 170.61C220.094 170.466 220.394 170.268 220.634 170.016C220.886 169.752 221.078 169.446 221.21 169.098C221.342 168.738 221.408 168.354 221.408 167.946ZM225.981 164.256H229.779C230.259 164.256 230.745 164.31 231.237 164.418C231.729 164.514 232.167 164.688 232.551 164.94C232.947 165.18 233.265 165.51 233.505 165.93C233.757 166.35 233.883 166.878 233.883 167.514C233.883 168.186 233.679 168.774 233.271 169.278C232.863 169.77 232.317 170.094 231.633 170.25V170.286C232.461 170.382 233.145 170.706 233.685 171.258C234.237 171.798 234.513 172.536 234.513 173.472C234.513 174 234.399 174.486 234.171 174.93C233.955 175.362 233.643 175.734 233.235 176.046C232.827 176.346 232.329 176.58 231.741 176.748C231.153 176.916 230.493 177 229.761 177H225.981V164.256ZM227.277 169.836H229.887C230.199 169.836 230.511 169.8 230.823 169.728C231.147 169.656 231.441 169.536 231.705 169.368C231.969 169.188 232.179 168.954 232.335 168.666C232.503 168.378 232.587 168.024 232.587 167.604C232.587 167.196 232.503 166.854 232.335 166.578C232.179 166.29 231.963 166.056 231.687 165.876C231.411 165.696 231.087 165.57 230.715 165.498C230.343 165.414 229.947 165.372 229.527 165.372H227.277V169.836ZM227.277 175.884H229.689C230.157 175.884 230.601 175.842 231.021 175.758C231.453 175.662 231.825 175.518 232.137 175.326C232.461 175.122 232.719 174.864 232.911 174.552C233.103 174.228 233.199 173.844 233.199 173.4C233.199 172.56 232.911 171.936 232.335 171.528C231.771 171.108 230.967 170.898 229.923 170.898H227.277V175.884Z" fill="black"/>
<path d="M295.43 173.148H293.594V172.068H295.574L295.97 169.152H294.026V168.072H296.132L296.654 164.256H297.752L297.23 168.072H299.624L300.146 164.256H301.244L300.722 168.072H302.342V169.152H300.56L300.164 172.068H301.874V173.148H300.02L299.48 177H298.382L298.922 173.148H296.528L295.988 177H294.89L295.43 173.148ZM296.672 172.068H299.066L299.462 169.152H297.068L296.672 172.068ZM305.198 164.256H309.428C310.22 164.256 311.012 164.388 311.804 164.652C312.608 164.916 313.328 165.318 313.964 165.858C314.612 166.386 315.134 167.052 315.53 167.856C315.926 168.648 316.124 169.572 316.124 170.628C316.124 171.696 315.926 172.626 315.53 173.418C315.134 174.21 314.612 174.876 313.964 175.416C313.328 175.944 312.608 176.34 311.804 176.604C311.012 176.868 310.22 177 309.428 177H305.198V164.256ZM306.494 175.848H309.068C310.028 175.848 310.862 175.698 311.57 175.398C312.29 175.098 312.884 174.708 313.352 174.228C313.82 173.736 314.168 173.178 314.396 172.554C314.636 171.93 314.756 171.288 314.756 170.628C314.756 169.968 314.636 169.326 314.396 168.702C314.168 168.078 313.82 167.526 313.352 167.046C312.884 166.554 312.29 166.158 311.57 165.858C310.862 165.558 310.028 165.408 309.068 165.408H306.494V175.848ZM321.521 169.764H322.079C322.487 169.764 322.871 169.722 323.231 169.638C323.591 169.554 323.903 169.422 324.167 169.242C324.443 169.05 324.659 168.804 324.815 168.504C324.971 168.204 325.049 167.844 325.049 167.424C325.049 167.064 324.983 166.74 324.851 166.452C324.719 166.152 324.533 165.9 324.293 165.696C324.065 165.48 323.795 165.318 323.483 165.21C323.183 165.09 322.865 165.03 322.529 165.03C321.989 165.03 321.509 165.156 321.089 165.408C320.681 165.66 320.351 166.032 320.099 166.524L319.001 165.948C319.397 165.264 319.901 164.76 320.513 164.436C321.125 164.1 321.821 163.932 322.601 163.932C323.105 163.932 323.579 164.01 324.023 164.166C324.479 164.31 324.875 164.526 325.211 164.814C325.559 165.102 325.829 165.462 326.021 165.894C326.225 166.314 326.327 166.8 326.327 167.352C326.327 168.108 326.117 168.744 325.697 169.26C325.277 169.764 324.749 170.1 324.113 170.268V170.304C324.845 170.46 325.457 170.814 325.949 171.366C326.441 171.906 326.687 172.608 326.687 173.472C326.687 174.084 326.573 174.63 326.345 175.11C326.129 175.578 325.835 175.98 325.463 176.316C325.091 176.64 324.653 176.886 324.149 177.054C323.657 177.234 323.135 177.324 322.583 177.324C321.647 177.324 320.831 177.102 320.135 176.658C319.439 176.202 318.911 175.554 318.551 174.714L319.775 174.264C319.991 174.876 320.351 175.356 320.855 175.704C321.359 176.04 321.935 176.208 322.583 176.208C322.943 176.208 323.291 176.148 323.627 176.028C323.975 175.896 324.275 175.716 324.527 175.488C324.791 175.248 325.001 174.96 325.157 174.624C325.313 174.288 325.391 173.904 325.391 173.472C325.391 172.992 325.295 172.59 325.103 172.266C324.923 171.93 324.677 171.66 324.365 171.456C324.053 171.252 323.699 171.108 323.303 171.024C322.907 170.928 322.499 170.88 322.079 170.88H321.521V169.764ZM335.544 170.25C336.24 170.454 336.816 170.856 337.272 171.456C337.728 172.056 337.956 172.788 337.956 173.652C337.956 174.216 337.842 174.726 337.614 175.182C337.398 175.626 337.104 176.01 336.732 176.334C336.36 176.646 335.922 176.886 335.418 177.054C334.926 177.234 334.41 177.324 333.87 177.324C333.33 177.324 332.808 177.234 332.304 177.054C331.812 176.886 331.38 176.646 331.008 176.334C330.636 176.01 330.336 175.626 330.108 175.182C329.892 174.726 329.784 174.216 329.784 173.652C329.784 173.22 329.844 172.824 329.964 172.464C330.084 172.092 330.252 171.762 330.468 171.474C330.684 171.174 330.936 170.922 331.224 170.718C331.524 170.514 331.848 170.358 332.196 170.25V170.214C331.908 170.118 331.644 169.98 331.404 169.8C331.176 169.608 330.978 169.386 330.81 169.134C330.642 168.87 330.51 168.588 330.414 168.288C330.318 167.976 330.27 167.658 330.27 167.334C330.27 166.818 330.366 166.35 330.558 165.93C330.75 165.51 331.008 165.156 331.332 164.868C331.668 164.568 332.052 164.34 332.484 164.184C332.916 164.016 333.378 163.932 333.87 163.932C334.35 163.932 334.806 164.016 335.238 164.184C335.682 164.34 336.066 164.568 336.39 164.868C336.726 165.156 336.99 165.51 337.182 165.93C337.374 166.35 337.47 166.818 337.47 167.334C337.47 167.658 337.422 167.976 337.326 168.288C337.23 168.588 337.098 168.87 336.93 169.134C336.762 169.386 336.558 169.608 336.318 169.8C336.09 169.98 335.832 170.118 335.544 170.214V170.25ZM331.53 167.406C331.53 167.742 331.59 168.048 331.71 168.324C331.83 168.6 331.998 168.84 332.214 169.044C332.43 169.248 332.676 169.41 332.952 169.53C333.24 169.638 333.546 169.692 333.87 169.692C334.194 169.692 334.494 169.638 334.77 169.53C335.058 169.41 335.31 169.248 335.526 169.044C335.742 168.84 335.91 168.6 336.03 168.324C336.15 168.048 336.21 167.742 336.21 167.406C336.21 167.07 336.15 166.758 336.03 166.47C335.91 166.17 335.742 165.918 335.526 165.714C335.322 165.498 335.076 165.33 334.788 165.21C334.512 165.09 334.206 165.03 333.87 165.03C333.534 165.03 333.222 165.09 332.934 165.21C332.658 165.33 332.412 165.498 332.196 165.714C331.992 165.918 331.83 166.17 331.71 166.47C331.59 166.758 331.53 167.07 331.53 167.406ZM331.08 173.508C331.08 173.892 331.146 174.252 331.278 174.588C331.41 174.924 331.596 175.212 331.836 175.452C332.088 175.692 332.382 175.884 332.718 176.028C333.066 176.16 333.45 176.226 333.87 176.226C334.29 176.226 334.668 176.16 335.004 176.028C335.352 175.884 335.646 175.692 335.886 175.452C336.138 175.212 336.33 174.924 336.462 174.588C336.594 174.252 336.66 173.892 336.66 173.508C336.66 173.124 336.594 172.77 336.462 172.446C336.33 172.122 336.138 171.84 335.886 171.6C335.646 171.36 335.352 171.174 335.004 171.042C334.668 170.91 334.29 170.844 333.87 170.844C333.45 170.844 333.066 170.91 332.718 171.042C332.382 171.174 332.088 171.36 331.836 171.6C331.596 171.84 331.41 172.122 331.278 172.446C331.146 172.77 331.08 173.124 331.08 173.508ZM344.852 163.932C345.644 163.932 346.304 164.13 346.832 164.526C347.372 164.91 347.804 165.42 348.128 166.056C348.452 166.68 348.68 167.394 348.812 168.198C348.956 169.002 349.028 169.818 349.028 170.646C349.028 171.474 348.956 172.29 348.812 173.094C348.68 173.886 348.452 174.6 348.128 175.236C347.804 175.86 347.372 176.364 346.832 176.748C346.304 177.132 345.644 177.324 344.852 177.324C344.048 177.324 343.376 177.132 342.836 176.748C342.308 176.364 341.882 175.86 341.558 175.236C341.234 174.6 341.006 173.886 340.874 173.094C340.742 172.29 340.676 171.474 340.676 170.646C340.676 169.818 340.742 169.002 340.874 168.198C341.006 167.394 341.234 166.68 341.558 166.056C341.882 165.42 342.308 164.91 342.836 164.526C343.376 164.13 344.048 163.932 344.852 163.932ZM344.852 165.03C344.288 165.03 343.82 165.204 343.448 165.552C343.076 165.9 342.782 166.344 342.566 166.884C342.35 167.424 342.2 168.03 342.116 168.702C342.032 169.362 341.99 170.01 341.99 170.646C341.99 171.282 342.032 171.93 342.116 172.59C342.2 173.25 342.35 173.85 342.566 174.39C342.782 174.918 343.076 175.356 343.448 175.704C343.82 176.04 344.288 176.208 344.852 176.208C345.404 176.208 345.866 176.04 346.238 175.704C346.61 175.356 346.904 174.918 347.12 174.39C347.336 173.85 347.486 173.25 347.57 172.59C347.666 171.93 347.714 171.282 347.714 170.646C347.714 170.01 347.666 169.362 347.57 168.702C347.486 168.03 347.336 167.424 347.12 166.884C346.904 166.344 346.61 165.9 346.238 165.552C345.866 165.204 345.404 165.03 344.852 165.03ZM354.465 169.764H355.023C355.431 169.764 355.815 169.722 356.175 169.638C356.535 169.554 356.847 169.422 357.111 169.242C357.387 169.05 357.603 168.804 357.759 168.504C357.915 168.204 357.993 167.844 357.993 167.424C357.993 167.064 357.927 166.74 357.795 166.452C357.663 166.152 357.477 165.9 357.237 165.696C357.009 165.48 356.739 165.318 356.427 165.21C356.127 165.09 355.809 165.03 355.473 165.03C354.933 165.03 354.453 165.156 354.033 165.408C353.625 165.66 353.295 166.032 353.043 166.524L351.945 165.948C352.341 165.264 352.845 164.76 353.457 164.436C354.069 164.1 354.765 163.932 355.545 163.932C356.049 163.932 356.523 164.01 356.967 164.166C357.423 164.31 357.819 164.526 358.155 164.814C358.503 165.102 358.773 165.462 358.965 165.894C359.169 166.314 359.271 166.8 359.271 167.352C359.271 168.108 359.061 168.744 358.641 169.26C358.221 169.764 357.693 170.1 357.057 170.268V170.304C357.789 170.46 358.401 170.814 358.893 171.366C359.385 171.906 359.631 172.608 359.631 173.472C359.631 174.084 359.517 174.63 359.289 175.11C359.073 175.578 358.779 175.98 358.407 176.316C358.035 176.64 357.597 176.886 357.093 177.054C356.601 177.234 356.079 177.324 355.527 177.324C354.591 177.324 353.775 177.102 353.079 176.658C352.383 176.202 351.855 175.554 351.495 174.714L352.719 174.264C352.935 174.876 353.295 175.356 353.799 175.704C354.303 176.04 354.879 176.208 355.527 176.208C355.887 176.208 356.235 176.148 356.571 176.028C356.919 175.896 357.219 175.716 357.471 175.488C357.735 175.248 357.945 174.96 358.101 174.624C358.257 174.288 358.335 173.904 358.335 173.472C358.335 172.992 358.239 172.59 358.047 172.266C357.867 171.93 357.621 171.66 357.309 171.456C356.997 171.252 356.643 171.108 356.247 171.024C355.851 170.928 355.443 170.88 355.023 170.88H354.465V169.764ZM368.489 170.25C369.185 170.454 369.761 170.856 370.217 171.456C370.673 172.056 370.901 172.788 370.901 173.652C370.901 174.216 370.787 174.726 370.559 175.182C370.343 175.626 370.049 176.01 369.677 176.334C369.305 176.646 368.867 176.886 368.363 177.054C367.871 177.234 367.355 177.324 366.815 177.324C366.275 177.324 365.753 177.234 365.249 177.054C364.757 176.886 364.325 176.646 363.953 176.334C363.581 176.01 363.281 175.626 363.053 175.182C362.837 174.726 362.729 174.216 362.729 173.652C362.729 173.22 362.789 172.824 362.909 172.464C363.029 172.092 363.197 171.762 363.413 171.474C363.629 171.174 363.881 170.922 364.169 170.718C364.469 170.514 364.793 170.358 365.141 170.25V170.214C364.853 170.118 364.589 169.98 364.349 169.8C364.121 169.608 363.923 169.386 363.755 169.134C363.587 168.87 363.455 168.588 363.359 168.288C363.263 167.976 363.215 167.658 363.215 167.334C363.215 166.818 363.311 166.35 363.503 165.93C363.695 165.51 363.953 165.156 364.277 164.868C364.613 164.568 364.997 164.34 365.429 164.184C365.861 164.016 366.323 163.932 366.815 163.932C367.295 163.932 367.751 164.016 368.183 164.184C368.627 164.34 369.011 164.568 369.335 164.868C369.671 165.156 369.935 165.51 370.127 165.93C370.319 166.35 370.415 166.818 370.415 167.334C370.415 167.658 370.367 167.976 370.271 168.288C370.175 168.588 370.043 168.87 369.875 169.134C369.707 169.386 369.503 169.608 369.263 169.8C369.035 169.98 368.777 170.118 368.489 170.214V170.25ZM364.475 167.406C364.475 167.742 364.535 168.048 364.655 168.324C364.775 168.6 364.943 168.84 365.159 169.044C365.375 169.248 365.621 169.41 365.897 169.53C366.185 169.638 366.491 169.692 366.815 169.692C367.139 169.692 367.439 169.638 367.715 169.53C368.003 169.41 368.255 169.248 368.471 169.044C368.687 168.84 368.855 168.6 368.975 168.324C369.095 168.048 369.155 167.742 369.155 167.406C369.155 167.07 369.095 166.758 368.975 166.47C368.855 166.17 368.687 165.918 368.471 165.714C368.267 165.498 368.021 165.33 367.733 165.21C367.457 165.09 367.151 165.03 366.815 165.03C366.479 165.03 366.167 165.09 365.879 165.21C365.603 165.33 365.357 165.498 365.141 165.714C364.937 165.918 364.775 166.17 364.655 166.47C364.535 166.758 364.475 167.07 364.475 167.406ZM364.025 173.508C364.025 173.892 364.091 174.252 364.223 174.588C364.355 174.924 364.541 175.212 364.781 175.452C365.033 175.692 365.327 175.884 365.663 176.028C366.011 176.16 366.395 176.226 366.815 176.226C367.235 176.226 367.613 176.16 367.949 176.028C368.297 175.884 368.591 175.692 368.831 175.452C369.083 175.212 369.275 174.924 369.407 174.588C369.539 174.252 369.605 173.892 369.605 173.508C369.605 173.124 369.539 172.77 369.407 172.446C369.275 172.122 369.083 171.84 368.831 171.6C368.591 171.36 368.297 171.174 367.949 171.042C367.613 170.91 367.235 170.844 366.815 170.844C366.395 170.844 366.011 170.91 365.663 171.042C365.327 171.174 365.033 171.36 364.781 171.6C364.541 171.84 364.355 172.122 364.223 172.446C364.091 172.77 364.025 173.124 364.025 173.508Z" fill="black"/>
</svg>
