<svg width="341" height="148" viewBox="0 0 341 148" fill="none" xmlns="http://www.w3.org/2000/svg">
<path d="M241.212 18.074C239.712 18.384 237.002 18.504 235.932 20.434C234.697 22.6082 233.733 24.9254 233.062 27.334C232.632 28.724 234.542 29.084 235.852 28.694C237.322 28.264 240.032 27.554 240.672 26.124C241.56 24.1825 242.186 22.131 242.532 20.024C242.672 19.024 242.532 17.814 241.212 18.024V18.074Z" fill="black"/>
<path d="M69.4729 58.611C66.9329 49.271 54.653 40.301 54.653 40.301C54.653 40.301 61.653 30.561 60.1329 22.621C56.713 10.451 48.9729 7.87104 39.7329 3.26104C37.6629 2.26104 35.953 2.38104 35.283 4.53104C33.463 10.351 25.333 68.431 25.333 68.431C25.333 68.431 19.4329 32.891 15.1729 17.261C12.7829 8.48104 1.73295 18.331 0.0729513 22.791C-0.607049 25.571 3.66293 23.871 4.74293 23.321C7.00293 21.921 7.74292 24.321 8.10292 26.041C12.5929 50.361 16.5329 70.211 21.8029 95.041C22.8529 100.041 26.733 97.701 27.333 94.371C28.553 87.601 29.833 76.011 30.333 72.981C33.553 53.611 35.3329 34.351 38.4329 15.181C38.7929 12.921 39.8229 12.671 41.9329 13.791C57.9329 23.261 52.1229 35.041 44.9329 46.161C43.4529 48.461 50.8629 49.281 58.8629 61.041C68.5929 75.411 47.9729 96.201 39.1629 101.401C37.7229 102.251 37.6529 107.781 39.8629 106.951C54.5529 101.341 75.9329 82.541 69.4129 58.581L69.4729 58.611Z" fill="black"/>
<path d="M88.0531 73.391C88.3231 71.771 90.4631 69.321 91.2931 68.631C95.1431 65.421 97.4631 64.321 100.923 61.881C101.503 61.471 104.493 59.571 104.493 59.571C104.493 59.571 104.493 62.071 104.403 63.841C104.163 70.161 103.113 84.631 102.903 86.511C102.747 87.9509 102.154 89.3084 101.203 90.401C99.641 91.842 97.9693 93.1593 96.2031 94.341C94.2031 95.771 92.3331 95.711 90.0731 94.411C87.5931 92.991 87.3931 90.411 87.1231 87.701C86.5331 81.921 86.8831 80.491 88.0631 73.391H88.0531ZM80.6131 100.251C82.5903 101.348 84.8 101.961 87.0601 102.037C89.3202 102.114 91.5661 101.652 93.6131 100.691C97.1402 99.1447 100.269 96.8159 102.763 93.881C103.089 95.0238 103.518 96.135 104.043 97.201C104.713 98.551 105.343 100.261 106.513 100.981C107.683 101.701 111.633 102.261 114.433 101.521C117.233 100.781 118.833 98.711 118.913 97.411C118.973 96.541 116.773 95.191 115.983 95.411C115.818 95.4658 115.661 95.5397 115.513 95.631C115.323 95.8211 115.086 95.956 114.825 96.0213C114.565 96.0866 114.292 96.0798 114.035 96.0018C113.778 95.9237 113.547 95.7772 113.367 95.578C113.187 95.3788 113.065 95.1345 113.013 94.871C112.493 93.451 111.763 91.871 111.843 90.491C112.103 85.991 113.083 74.691 113.533 65.291C113.903 57.841 113.803 52.991 113.813 50.881C113.813 48.061 113.983 45.151 112.523 43.211C111.033 40.9987 109.149 39.08 106.963 37.551C106.293 37.081 103.333 36.921 100.333 37.691C97.8443 38.4629 95.4336 39.4674 93.1331 40.691C89.9209 42.2731 86.8439 44.1159 83.9331 46.201C79.8831 49.111 76.8631 51.411 76.3731 52.801C75.8831 54.191 78.0731 55.121 78.7931 54.721C82.3331 52.781 85.4631 50.871 88.5031 49.161C91.5431 47.451 97.7031 44.161 101.273 43.861C103.993 43.611 104.733 44.971 105.133 46.721C105.261 48.6615 105.211 50.6097 104.983 52.541C103.153 53.651 98.9831 56.211 95.8331 57.841C92.5025 59.6088 89.3511 61.6952 86.4231 64.071C81.9631 67.631 78.7931 71.881 77.4231 77.511C76.5719 81.6943 76.1398 85.952 76.1331 90.221C75.9731 93.551 77.0331 98.221 80.5631 100.221L80.6131 100.251Z" fill="black"/>
<path d="M270.863 56.5911C270.185 57.6703 269.26 58.572 268.163 59.2211C263.033 61.5787 257.786 63.6747 252.443 65.5011C252.496 64.2032 252.637 62.9103 252.863 61.6311C253.163 59.9111 254.163 53.2411 256.523 48.1311C259.193 42.3311 262.303 38.1311 266.523 37.3811C270.743 36.6311 273.713 41.0311 273.523 46.7011C273.383 51.1711 272.793 52.8311 270.813 56.5911H270.863ZM270.303 34.6511C268.468 34.123 266.544 33.9801 264.651 34.2314C262.758 34.4826 260.937 35.1226 259.303 36.1111C252.843 39.9511 248.303 47.1111 246.443 51.2311C242.593 59.7111 240.623 68.1711 241.593 77.4211C241.834 81.712 242.997 85.9004 245.003 89.7011C247.047 93.3643 250.197 96.287 254.003 98.0511C257.403 99.3111 261.153 99.8511 264.493 98.7911C271.223 96.6511 274.493 90.8811 276.763 84.5411C277.323 82.9911 277.843 82.0811 276.213 82.0911C274.932 82.311 273.73 82.8588 272.723 83.6811C271.983 84.6811 270.143 88.2711 267.953 89.6811C266.153 90.8511 261.523 93.1711 257.053 90.0511C253.933 87.8811 252.673 82.0511 252.363 78.8411C252.102 77.1693 252.082 75.4687 252.303 73.7911C253.103 73.4111 256.393 72.1711 257.213 71.7911C261.373 70.0611 265.623 68.5011 269.663 66.5311C271.583 65.5911 273.603 64.9711 274.983 62.6012C277.263 58.6611 280.273 50.1111 277.983 41.5311C277.203 38.5311 272.923 35.3611 270.263 34.5911L270.303 34.6511Z" fill="black"/>
<path d="M196.283 135.491C195.333 135.431 194.283 135.491 192.973 135.441C189.688 135.405 186.407 135.201 183.143 134.831C177.208 133.977 171.365 132.568 165.693 130.621C162.439 129.302 159.267 127.789 156.193 126.091L153.383 129.461C153.383 129.461 161.313 133.461 165.383 134.831C171.891 137.069 178.68 138.385 185.553 138.741C188.115 138.913 190.689 138.762 193.213 138.291C194.473 138.001 197.213 135.541 196.213 135.491H196.283Z" fill="black"/>
<path d="M111.093 143.001C100.873 144.111 81.9731 141.191 79.4731 131.901C76.1431 119.591 88.6631 114.291 98.2231 113.241C109.853 111.951 126.903 116.541 134.223 119.731C137.882 121.227 141.446 122.947 144.893 124.881C142.451 128.263 139.398 131.159 135.893 133.421C128.893 138.031 118.293 142.211 111.063 143.001H111.093ZM164.093 60.7411C164.163 54.4711 164.173 45.3911 164.553 39.1311C164.843 34.3011 165.003 34.3911 160.243 34.5311C157.243 34.6111 156.793 36.5311 156.613 38.6611C155.853 47.8011 156.173 58.0011 155.733 67.1711C155.563 70.8911 155.393 82.9111 154.423 88.0211C153.993 90.3311 151.063 91.4711 146.883 93.2511C142.073 95.2511 139.133 93.9511 137.073 90.0611C133.483 83.3111 136.343 64.2011 137.183 52.5111C137.803 47.9911 138.523 40.7111 136.653 36.8111C135.043 33.4511 130.323 32.7311 127.553 34.6011C124.762 36.4105 122.499 38.9254 120.993 41.8911C119.723 44.4011 123.993 43.7211 124.993 43.1711C126.453 42.3211 128.213 42.8711 128.323 44.2811C128.703 49.1711 128.023 56.8211 127.563 60.9211C126.923 66.6011 126.043 78.1211 126.563 84.0311C126.813 87.2311 128.723 92.1111 131.483 95.8311C135.003 100.591 137.903 102.721 147.243 99.0111C149.897 97.8034 152.478 96.441 154.973 94.9311C154.973 95.1911 154.713 104.061 152.783 109.721C151.404 113.686 149.558 117.473 147.283 121.001C138.398 116.076 128.74 112.695 118.723 111.001C99.8831 107.841 82.9832 108.351 72.3232 120.061C71.0832 121.471 68.3232 126.261 68.7132 130.821C69.2132 137.001 73.4732 140.461 77.5032 142.451C86.7632 147.041 98.7132 147.581 106.583 147.371C115.243 147.141 123.783 145.791 135.423 140.431C138.873 138.911 150.003 131.851 155.933 121.431C159.403 115.341 161.833 106.991 162.993 94.2411C164.113 81.9311 163.993 65.1911 164.073 60.7111L164.093 60.7411Z" fill="black"/>
<path d="M225.783 0.471095C225.943 -0.438905 221.543 0.151095 220.863 0.721095C220.183 1.2911 219.863 2.58109 219.463 4.07109C218.113 8.80109 213.003 29.7011 212.263 32.5111C209.423 44.9211 207.033 55.5111 204.463 66.0111C203.523 71.1511 201.603 80.5911 200.873 83.5311C200.813 83.8011 200.413 83.7311 200.333 83.4411C196.583 69.7011 194.533 55.8711 191.523 42.1211C189.993 34.2111 186.753 16.3211 183.933 9.2211C182.703 6.1111 179.003 4.68109 176.383 6.77109C174.395 8.3198 172.505 9.98964 170.723 11.7711C169.993 12.5911 167.523 16.7711 170.513 16.3811C172.513 16.5211 175.513 13.2211 176.513 16.3811C177.513 20.3811 179.763 31.8211 181.213 38.0611C184.373 53.2311 195.573 99.9311 196.913 104.691C197.343 106.201 198.313 106.281 199.093 106.021C200.563 105.531 201.823 99.2111 202.523 97.3811C205.523 85.4611 208.523 74.5811 211.413 62.6211C213.763 52.8811 216.063 45.1011 217.733 36.6211C218.373 33.3611 223.163 13.6211 223.953 8.71109C224.303 6.58109 225.463 2.3311 225.803 0.441096L225.783 0.471095Z" fill="black"/>
<path d="M221.433 127.491C223.073 127.491 223.783 126.891 223.763 125.341C223.743 123.791 222.933 123.171 221.383 123.191H219.823L219.883 127.491H221.433ZM221.103 121.281C222.303 121.281 223.373 120.811 223.353 119.281C223.333 117.751 222.193 117.501 221.043 117.511H219.733L219.793 121.321H221.103V121.281ZM217.413 116.181C217.413 115.571 217.743 115.421 218.163 115.411H220.933C224.183 115.411 225.683 116.411 225.723 119.041C225.785 119.675 225.644 120.312 225.321 120.86C224.997 121.408 224.508 121.84 223.923 122.091C224.624 122.307 225.229 122.758 225.635 123.368C226.042 123.979 226.224 124.711 226.153 125.441C226.203 128.731 224.093 129.561 221.323 129.601H218.323C217.903 129.601 217.563 129.471 217.563 128.861L217.363 116.141L217.413 116.181Z" fill="black"/>
<path d="M228.833 116.001C228.833 115.391 229.153 115.241 229.573 115.231L235.333 115.151C235.943 115.151 236.093 115.481 236.093 115.891V116.531C236.093 116.941 235.973 117.281 235.353 117.291L231.203 117.351V121.061H234.113C234.723 121.061 234.873 121.391 234.873 121.801V122.361C234.873 122.771 234.743 123.111 234.133 123.131H231.223L231.283 127.311L235.703 127.241C236.313 127.241 236.453 127.571 236.463 127.981V128.621C236.463 129.031 236.343 129.371 235.723 129.381L229.723 129.471C229.303 129.471 228.973 129.341 228.963 128.731L228.833 116.001Z" fill="black"/>
<path d="M238.853 115.861C238.853 115.241 239.173 115.101 239.593 115.101L245.353 115.011C245.973 115.011 246.113 115.341 246.123 115.751V116.391C246.123 116.801 245.993 117.141 245.383 117.151L241.223 117.211V120.921H244.133C244.235 120.903 244.341 120.909 244.44 120.939C244.54 120.969 244.631 121.023 244.706 121.095C244.781 121.167 244.838 121.256 244.872 121.354C244.907 121.453 244.917 121.558 244.903 121.661V122.221C244.903 122.641 244.773 122.981 244.153 122.981H241.243L241.303 127.151L245.723 127.091C246.333 127.091 246.483 127.421 246.483 127.831V128.471C246.483 128.881 246.363 129.221 245.753 129.231L239.753 129.321C239.343 129.321 239.003 129.191 238.993 128.581L238.803 115.861H238.853Z" fill="black"/>
<path d="M252.663 121.261C252.964 121.301 253.27 121.269 253.557 121.168C253.843 121.067 254.101 120.899 254.31 120.678C254.519 120.457 254.673 120.19 254.758 119.899C254.844 119.607 254.859 119.3 254.803 119.001C254.803 117.001 253.643 116.901 252.573 116.911H251.253L251.313 121.231H252.663V121.261ZM248.873 115.711C248.854 115.609 248.861 115.503 248.891 115.404C248.921 115.304 248.974 115.213 249.047 115.138C249.119 115.063 249.208 115.006 249.306 114.971C249.404 114.937 249.51 114.927 249.613 114.941H252.613C255.613 114.941 257.133 116.041 257.183 118.821C257.255 119.539 257.101 120.261 256.742 120.887C256.383 121.512 255.838 122.01 255.183 122.311L257.493 128.381C257.743 129.031 257.363 129.101 257.003 129.101H255.763C255.323 129.101 255.103 128.821 254.933 128.401L253.073 123.281H251.273L251.353 128.391C251.353 129.001 251.023 129.141 250.613 129.151H249.753C249.343 129.151 249.003 129.021 248.993 128.411L248.803 115.691L248.873 115.711Z" fill="black"/>
<path d="M264.113 121.781C264.053 117.681 265.203 114.541 268.573 114.481C271.063 114.481 272.193 115.841 272.683 118.271C272.773 118.661 272.683 119.021 272.083 119.091L271.293 119.181C270.863 119.181 270.593 118.941 270.473 118.501C270.123 117.221 269.533 116.571 268.643 116.591C267.193 116.591 266.463 118.151 266.513 121.751C266.573 125.691 267.253 127.011 268.773 126.991C269.773 126.991 270.373 126.211 270.703 124.761C270.793 124.321 271.013 124.021 271.453 124.051L272.303 124.121C272.404 124.116 272.506 124.135 272.598 124.178C272.69 124.221 272.77 124.285 272.831 124.366C272.892 124.447 272.933 124.542 272.949 124.642C272.965 124.742 272.956 124.845 272.923 124.941C272.433 127.631 271.123 129.031 268.743 129.071C265.333 129.121 264.183 126.361 264.113 121.781Z" fill="black"/>
<path d="M282.003 121.581C282.003 117.871 281.153 116.341 279.613 116.361C278.073 116.381 277.343 117.941 277.393 121.641C277.443 125.491 278.303 126.901 279.763 126.881C281.223 126.861 282.063 125.421 282.003 121.581ZM275.003 121.681C274.933 116.971 276.263 114.371 279.593 114.321C282.923 114.271 284.343 116.821 284.413 121.541C284.483 126.261 283.073 128.851 279.803 128.901C276.533 128.951 275.073 126.361 275.003 121.681Z" fill="black"/>
<path d="M286.723 126.701C286.723 126.091 287.043 125.941 287.463 125.931H288.353C288.773 125.931 289.103 126.061 289.113 126.671V127.841C289.113 128.451 288.793 128.601 288.373 128.611H287.483C287.38 128.63 287.275 128.623 287.175 128.593C287.075 128.563 286.984 128.51 286.909 128.437C286.834 128.365 286.777 128.276 286.743 128.178C286.709 128.079 286.699 127.974 286.713 127.871V126.701H286.723Z" fill="black"/>
<path d="M285.612 43.4903C286.539 43.4902 291.546 39.957 291.546 43.1691C290.619 55.535 288.579 72.7992 288.579 86.3697C288.579 89.5817 296.04 98.7358 299.374 98.7358C301.927 98.7358 305.029 91.824 307.403 88.0981C309.813 93.3978 313.517 98.7358 315.094 98.7358C319.625 98.7358 321.498 94.7896 324.613 88.4575C331.782 66.6591 333.27 48.9842 338.086 30C336.417 30 332.513 30.3212 331.782 31.9272C329 38.0299 321.27 88.4575 314.763 88.4575C313.306 88.4575 311.662 84.0067 311.662 82.0336C311.641 77.6872 313.24 72.3978 315.094 64.8497C312.869 64.8497 306.263 66.9374 306.008 68.704C305.205 74.2714 302.526 88.4575 299.374 88.4575C298.076 88.4575 296.494 82.835 296.367 81.07C295.625 70.7918 300.446 50.6849 300.446 39.6358C300.446 38.3511 297.85 33.2119 292.102 34.0149C289.173 34.4241 280.421 43.4907 285.612 43.4903Z" fill="black"/>
<path d="M231.705 36.054C232.218 35.2324 233.723 34.1643 238.377 34C236.495 48.7891 228.967 67.2755 236.837 97.4698C235.982 98.9077 232.218 99.9347 230.678 98.0861C222.636 84.5294 220.583 57.8269 231.705 36.054Z" fill="black"/>
</svg>
