<svg width="710" height="167" viewBox="0 0 710 167" fill="none" xmlns="http://www.w3.org/2000/svg">
<rect x="580.306" width="129.533" height="110.891" fill="black"/>
<rect x="435.229" y="1.10938" width="129.533" height="110.891" fill="#82321D"/>
<rect width="129.533" height="110.891" fill="#FFCA62"/>
<rect x="145.576" y="1.60938" width="128.533" height="109.891" fill="white" stroke="black"/>
<rect x="290.153" y="1.10938" width="129.533" height="110.891" fill="#1D1300"/>
<path d="M332.991 133.49C332.991 134.348 332.855 135.13 332.583 135.834C332.311 136.538 331.927 137.14 331.431 137.642C330.935 138.143 330.338 138.532 329.639 138.81C328.946 139.082 328.178 139.218 327.335 139.218H323.055V127.754H327.335C328.178 127.754 328.946 127.892 329.639 128.17C330.338 128.442 330.935 128.831 331.431 129.338C331.927 129.839 332.311 130.442 332.583 131.146C332.855 131.85 332.991 132.631 332.991 133.49ZM331.399 133.49C331.399 132.786 331.303 132.156 331.111 131.602C330.919 131.047 330.647 130.578 330.295 130.194C329.943 129.81 329.516 129.516 329.015 129.314C328.514 129.111 327.954 129.01 327.335 129.01H324.607V137.962H327.335C327.954 137.962 328.514 137.86 329.015 137.658C329.516 137.455 329.943 137.164 330.295 136.786C330.647 136.402 330.919 135.932 331.111 135.378C331.303 134.823 331.399 134.194 331.399 133.49ZM339.08 135.57C338.424 135.591 337.864 135.644 337.4 135.73C336.941 135.81 336.565 135.916 336.272 136.05C335.984 136.183 335.773 136.34 335.64 136.522C335.512 136.703 335.448 136.906 335.448 137.13C335.448 137.343 335.482 137.527 335.552 137.682C335.621 137.836 335.714 137.964 335.832 138.066C335.954 138.162 336.096 138.234 336.256 138.282C336.421 138.324 336.597 138.346 336.784 138.346C337.034 138.346 337.264 138.322 337.472 138.274C337.68 138.22 337.874 138.146 338.056 138.05C338.242 137.954 338.418 137.839 338.584 137.706C338.754 137.572 338.92 137.42 339.08 137.25V135.57ZM334.48 132.258C334.928 131.826 335.41 131.503 335.928 131.29C336.445 131.076 337.018 130.97 337.648 130.97C338.101 130.97 338.504 131.044 338.856 131.194C339.208 131.343 339.504 131.551 339.744 131.818C339.984 132.084 340.165 132.407 340.288 132.786C340.41 133.164 340.472 133.58 340.472 134.034V139.218H339.84C339.701 139.218 339.594 139.196 339.52 139.154C339.445 139.106 339.386 139.015 339.344 138.882L339.184 138.114C338.97 138.311 338.762 138.487 338.56 138.642C338.357 138.791 338.144 138.919 337.92 139.026C337.696 139.127 337.456 139.204 337.2 139.258C336.949 139.316 336.669 139.346 336.36 139.346C336.045 139.346 335.749 139.303 335.472 139.218C335.194 139.127 334.952 138.994 334.744 138.818C334.541 138.642 334.378 138.42 334.256 138.154C334.138 137.882 334.08 137.562 334.08 137.194C334.08 136.874 334.168 136.567 334.344 136.274C334.52 135.975 334.805 135.711 335.2 135.482C335.594 135.252 336.109 135.066 336.744 134.922C337.378 134.772 338.157 134.687 339.08 134.666V134.034C339.08 133.404 338.944 132.93 338.672 132.61C338.4 132.284 338.002 132.122 337.48 132.122C337.128 132.122 336.832 132.167 336.592 132.258C336.357 132.343 336.152 132.442 335.976 132.554C335.805 132.66 335.656 132.759 335.528 132.85C335.405 132.935 335.282 132.978 335.16 132.978C335.064 132.978 334.981 132.954 334.912 132.906C334.842 132.852 334.784 132.788 334.736 132.714L334.48 132.258ZM343.993 132.738C344.249 132.183 344.563 131.751 344.937 131.442C345.31 131.127 345.766 130.97 346.305 130.97C346.475 130.97 346.638 130.988 346.793 131.026C346.953 131.063 347.094 131.122 347.217 131.202L347.113 132.266C347.081 132.399 347.001 132.466 346.873 132.466C346.798 132.466 346.689 132.45 346.545 132.418C346.401 132.386 346.238 132.37 346.057 132.37C345.801 132.37 345.571 132.407 345.369 132.482C345.171 132.556 344.993 132.668 344.833 132.818C344.678 132.962 344.537 133.143 344.409 133.362C344.286 133.575 344.174 133.82 344.073 134.098V139.218H342.641V131.114H343.457C343.611 131.114 343.718 131.143 343.777 131.202C343.835 131.26 343.875 131.362 343.897 131.506L343.993 132.738ZM349.901 127.434V134.37H350.269C350.376 134.37 350.464 134.356 350.533 134.33C350.608 134.298 350.685 134.236 350.765 134.146L353.325 131.402C353.4 131.311 353.477 131.242 353.557 131.194C353.642 131.14 353.754 131.114 353.893 131.114H355.181L352.197 134.29C352.053 134.471 351.898 134.612 351.733 134.714C351.829 134.778 351.914 134.852 351.989 134.938C352.069 135.018 352.144 135.111 352.213 135.218L355.381 139.218H354.109C353.986 139.218 353.88 139.199 353.789 139.162C353.704 139.119 353.629 139.044 353.565 138.938L350.901 135.618C350.821 135.506 350.741 135.434 350.661 135.402C350.586 135.364 350.469 135.346 350.309 135.346H349.901V139.218H348.469V127.434H349.901ZM371.616 133.49C371.616 134.348 371.48 135.138 371.208 135.858C370.936 136.572 370.552 137.188 370.056 137.706C369.56 138.223 368.962 138.626 368.264 138.914C367.57 139.196 366.802 139.338 365.96 139.338C365.117 139.338 364.349 139.196 363.656 138.914C362.962 138.626 362.368 138.223 361.872 137.706C361.376 137.188 360.992 136.572 360.72 135.858C360.448 135.138 360.312 134.348 360.312 133.49C360.312 132.631 360.448 131.844 360.72 131.13C360.992 130.41 361.376 129.791 361.872 129.274C362.368 128.751 362.962 128.346 363.656 128.058C364.349 127.77 365.117 127.626 365.96 127.626C366.802 127.626 367.57 127.77 368.264 128.058C368.962 128.346 369.56 128.751 370.056 129.274C370.552 129.791 370.936 130.41 371.208 131.13C371.48 131.844 371.616 132.631 371.616 133.49ZM370.024 133.49C370.024 132.786 369.928 132.154 369.736 131.594C369.544 131.034 369.272 130.562 368.92 130.178C368.568 129.788 368.141 129.49 367.64 129.282C367.138 129.074 366.578 128.97 365.96 128.97C365.346 128.97 364.789 129.074 364.288 129.282C363.786 129.49 363.357 129.788 363 130.178C362.648 130.562 362.376 131.034 362.184 131.594C361.992 132.154 361.896 132.786 361.896 133.49C361.896 134.194 361.992 134.826 362.184 135.386C362.376 135.94 362.648 136.412 363 136.802C363.357 137.186 363.786 137.482 364.288 137.69C364.789 137.892 365.346 137.994 365.96 137.994C366.578 137.994 367.138 137.892 367.64 137.69C368.141 137.482 368.568 137.186 368.92 136.802C369.272 136.412 369.544 135.94 369.736 135.386C369.928 134.826 370.024 134.194 370.024 133.49ZM377.689 135.57C377.033 135.591 376.473 135.644 376.009 135.73C375.55 135.81 375.174 135.916 374.881 136.05C374.593 136.183 374.382 136.34 374.249 136.522C374.121 136.703 374.057 136.906 374.057 137.13C374.057 137.343 374.092 137.527 374.161 137.682C374.23 137.836 374.324 137.964 374.441 138.066C374.564 138.162 374.705 138.234 374.865 138.282C375.03 138.324 375.206 138.346 375.393 138.346C375.644 138.346 375.873 138.322 376.081 138.274C376.289 138.22 376.484 138.146 376.665 138.05C376.852 137.954 377.028 137.839 377.193 137.706C377.364 137.572 377.529 137.42 377.689 137.25V135.57ZM373.089 132.258C373.537 131.826 374.02 131.503 374.537 131.29C375.054 131.076 375.628 130.97 376.257 130.97C376.71 130.97 377.113 131.044 377.465 131.194C377.817 131.343 378.113 131.551 378.353 131.818C378.593 132.084 378.774 132.407 378.897 132.786C379.02 133.164 379.081 133.58 379.081 134.034V139.218H378.449C378.31 139.218 378.204 139.196 378.129 139.154C378.054 139.106 377.996 139.015 377.953 138.882L377.793 138.114C377.58 138.311 377.372 138.487 377.169 138.642C376.966 138.791 376.753 138.919 376.529 139.026C376.305 139.127 376.065 139.204 375.809 139.258C375.558 139.316 375.278 139.346 374.969 139.346C374.654 139.346 374.358 139.303 374.081 139.218C373.804 139.127 373.561 138.994 373.353 138.818C373.15 138.642 372.988 138.42 372.865 138.154C372.748 137.882 372.689 137.562 372.689 137.194C372.689 136.874 372.777 136.567 372.953 136.274C373.129 135.975 373.414 135.711 373.809 135.482C374.204 135.252 374.718 135.066 375.353 134.922C375.988 134.772 376.766 134.687 377.689 134.666V134.034C377.689 133.404 377.553 132.93 377.281 132.61C377.009 132.284 376.612 132.122 376.089 132.122C375.737 132.122 375.441 132.167 375.201 132.258C374.966 132.343 374.761 132.442 374.585 132.554C374.414 132.66 374.265 132.759 374.137 132.85C374.014 132.935 373.892 132.978 373.769 132.978C373.673 132.978 373.59 132.954 373.521 132.906C373.452 132.852 373.393 132.788 373.345 132.714L373.089 132.258ZM382.682 127.434V134.37H383.05C383.157 134.37 383.245 134.356 383.314 134.33C383.389 134.298 383.466 134.236 383.546 134.146L386.106 131.402C386.181 131.311 386.258 131.242 386.338 131.194C386.424 131.14 386.536 131.114 386.674 131.114H387.962L384.978 134.29C384.834 134.471 384.68 134.612 384.514 134.714C384.61 134.778 384.696 134.852 384.77 134.938C384.85 135.018 384.925 135.111 384.994 135.218L388.162 139.218H386.89C386.768 139.218 386.661 139.199 386.57 139.162C386.485 139.119 386.41 139.044 386.346 138.938L383.682 135.618C383.602 135.506 383.522 135.434 383.442 135.402C383.368 135.364 383.25 135.346 383.09 135.346H382.682V139.218H381.25V127.434H382.682ZM330.341 156.058H328.612L328.157 158.34H329.886L330.341 156.058ZM332.987 155.141L332.896 155.666C332.872 155.801 332.816 155.901 332.728 155.967C332.644 156.027 332.513 156.058 332.336 156.058H331.37L330.915 158.34H332.168C332.303 158.34 332.399 158.379 332.455 158.459C332.515 158.533 332.532 158.666 332.504 158.858L332.441 159.257H330.782L330.194 162.218H329.627C329.566 162.218 329.51 162.204 329.459 162.176C329.407 162.148 329.363 162.11 329.326 162.064C329.293 162.017 329.27 161.961 329.256 161.896C329.242 161.83 329.242 161.758 329.256 161.679L329.753 159.257H328.024L327.527 161.742C327.499 161.914 327.431 162.038 327.324 162.113C327.216 162.183 327.095 162.218 326.96 162.218H326.4L326.995 159.257H325.973C325.842 159.257 325.746 159.219 325.686 159.145C325.63 159.065 325.616 158.93 325.644 158.739L325.7 158.34H327.128L327.583 156.058H325.959L326.05 155.54C326.073 155.404 326.127 155.304 326.211 155.239C326.299 155.173 326.432 155.141 326.61 155.141H327.716L328.22 152.635C328.248 152.495 328.311 152.385 328.409 152.306C328.511 152.226 328.633 152.187 328.773 152.187H329.333L328.745 155.141H330.474L331.062 152.187H331.615C331.75 152.187 331.855 152.231 331.93 152.32C332.009 152.408 332.037 152.52 332.014 152.656L331.503 155.141H332.987ZM340.478 161.266V162.218H335.102V161.266H337.251V154.427C337.251 154.221 337.258 154.014 337.272 153.804L335.487 155.337C335.426 155.388 335.365 155.421 335.305 155.435C335.244 155.444 335.188 155.444 335.137 155.435C335.085 155.425 335.036 155.407 334.99 155.379C334.948 155.351 334.915 155.32 334.892 155.288L334.5 154.749L337.489 152.166H338.504V161.266H340.478ZM351.448 157.206C351.448 157.957 351.329 158.641 351.091 159.257C350.853 159.873 350.517 160.4 350.083 160.839C349.649 161.277 349.126 161.618 348.515 161.861C347.908 162.099 347.236 162.218 346.499 162.218H342.754V152.187H346.499C347.236 152.187 347.908 152.308 348.515 152.551C349.126 152.789 349.649 153.129 350.083 153.573C350.517 154.011 350.853 154.539 351.091 155.155C351.329 155.771 351.448 156.454 351.448 157.206ZM350.055 157.206C350.055 156.59 349.971 156.039 349.803 155.554C349.635 155.068 349.397 154.658 349.089 154.322C348.781 153.986 348.407 153.729 347.969 153.552C347.53 153.374 347.04 153.286 346.499 153.286H344.112V161.119H346.499C347.04 161.119 347.53 161.03 347.969 160.853C348.407 160.675 348.781 160.421 349.089 160.09C349.397 159.754 349.635 159.343 349.803 158.858C349.971 158.372 350.055 157.822 350.055 157.206ZM359.249 161.266V162.218H353.873V161.266H356.022V154.427C356.022 154.221 356.029 154.014 356.043 153.804L354.258 155.337C354.197 155.388 354.137 155.421 354.076 155.435C354.015 155.444 353.959 155.444 353.908 155.435C353.857 155.425 353.808 155.407 353.761 155.379C353.719 155.351 353.686 155.32 353.663 155.288L353.271 154.749L356.26 152.166H357.275V161.266H359.249ZM361.154 154.903C361.22 154.445 361.346 154.042 361.532 153.692C361.719 153.337 361.955 153.041 362.239 152.803C362.529 152.565 362.858 152.385 363.226 152.264C363.6 152.138 364.001 152.075 364.43 152.075C364.855 152.075 365.247 152.135 365.606 152.257C365.966 152.378 366.274 152.551 366.53 152.775C366.792 152.999 366.995 153.269 367.139 153.587C367.284 153.904 367.356 154.256 367.356 154.644C367.356 154.961 367.314 155.246 367.23 155.498C367.151 155.745 367.034 155.962 366.88 156.149C366.731 156.335 366.549 156.494 366.334 156.625C366.12 156.755 365.879 156.863 365.613 156.947C366.267 157.115 366.757 157.404 367.083 157.815C367.415 158.221 367.58 158.729 367.58 159.341C367.58 159.803 367.492 160.218 367.314 160.587C367.142 160.955 366.904 161.27 366.6 161.532C366.297 161.788 365.942 161.987 365.536 162.127C365.135 162.262 364.703 162.33 364.241 162.33C363.709 162.33 363.254 162.264 362.876 162.134C362.498 161.998 362.179 161.814 361.917 161.581C361.656 161.347 361.441 161.072 361.273 160.755C361.105 160.433 360.963 160.085 360.846 159.712L361.385 159.488C361.525 159.427 361.661 159.411 361.791 159.439C361.927 159.467 362.025 159.544 362.085 159.67C362.146 159.8 362.221 159.957 362.309 160.139C362.403 160.321 362.529 160.496 362.687 160.664C362.846 160.832 363.047 160.974 363.289 161.091C363.537 161.207 363.849 161.266 364.227 161.266C364.577 161.266 364.883 161.21 365.144 161.098C365.41 160.981 365.63 160.832 365.802 160.65C365.98 160.468 366.113 160.265 366.201 160.041C366.29 159.817 366.334 159.595 366.334 159.376C366.334 159.105 366.299 158.858 366.229 158.634C366.159 158.41 366.029 158.216 365.837 158.053C365.646 157.889 365.382 157.761 365.046 157.668C364.715 157.574 364.288 157.528 363.765 157.528V156.625C364.195 156.62 364.559 156.573 364.857 156.485C365.161 156.396 365.406 156.275 365.592 156.121C365.784 155.967 365.921 155.782 366.005 155.568C366.094 155.353 366.138 155.115 366.138 154.854C366.138 154.564 366.092 154.312 365.998 154.098C365.91 153.883 365.786 153.706 365.627 153.566C365.469 153.426 365.28 153.321 365.06 153.251C364.846 153.181 364.612 153.146 364.36 153.146C364.108 153.146 363.873 153.183 363.653 153.258C363.439 153.332 363.247 153.437 363.079 153.573C362.916 153.703 362.778 153.86 362.666 154.042C362.554 154.224 362.475 154.424 362.428 154.644C362.368 154.807 362.291 154.917 362.197 154.973C362.109 155.024 361.978 155.038 361.805 155.015L361.154 154.903ZM376.065 157.206C376.065 158.083 375.97 158.844 375.778 159.488C375.592 160.127 375.335 160.657 375.008 161.077C374.682 161.497 374.294 161.809 373.846 162.015C373.403 162.22 372.927 162.323 372.418 162.323C371.905 162.323 371.427 162.22 370.983 162.015C370.545 161.809 370.162 161.497 369.835 161.077C369.509 160.657 369.252 160.127 369.065 159.488C368.879 158.844 368.785 158.083 368.785 157.206C368.785 156.328 368.879 155.568 369.065 154.924C369.252 154.28 369.509 153.748 369.835 153.328C370.162 152.903 370.545 152.588 370.983 152.383C371.427 152.177 371.905 152.075 372.418 152.075C372.927 152.075 373.403 152.177 373.846 152.383C374.294 152.588 374.682 152.903 375.008 153.328C375.335 153.748 375.592 154.28 375.778 154.924C375.97 155.568 376.065 156.328 376.065 157.206ZM374.77 157.206C374.77 156.44 374.705 155.799 374.574 155.281C374.448 154.758 374.276 154.338 374.056 154.021C373.842 153.703 373.592 153.477 373.307 153.342C373.023 153.202 372.726 153.132 372.418 153.132C372.11 153.132 371.814 153.202 371.529 153.342C371.245 153.477 370.995 153.703 370.78 154.021C370.566 154.338 370.393 154.758 370.262 155.281C370.136 155.799 370.073 156.44 370.073 157.206C370.073 157.971 370.136 158.613 370.262 159.131C370.393 159.649 370.566 160.066 370.78 160.384C370.995 160.701 371.245 160.93 371.529 161.07C371.814 161.205 372.11 161.273 372.418 161.273C372.726 161.273 373.023 161.205 373.307 161.07C373.592 160.93 373.842 160.701 374.056 160.384C374.276 160.066 374.448 159.649 374.574 159.131C374.705 158.613 374.77 157.971 374.77 157.206ZM384.186 157.206C384.186 158.083 384.091 158.844 383.899 159.488C383.713 160.127 383.456 160.657 383.129 161.077C382.803 161.497 382.415 161.809 381.967 162.015C381.524 162.22 381.048 162.323 380.539 162.323C380.026 162.323 379.548 162.22 379.104 162.015C378.666 161.809 378.283 161.497 377.956 161.077C377.63 160.657 377.373 160.127 377.186 159.488C377 158.844 376.906 158.083 376.906 157.206C376.906 156.328 377 155.568 377.186 154.924C377.373 154.28 377.63 153.748 377.956 153.328C378.283 152.903 378.666 152.588 379.104 152.383C379.548 152.177 380.026 152.075 380.539 152.075C381.048 152.075 381.524 152.177 381.967 152.383C382.415 152.588 382.803 152.903 383.129 153.328C383.456 153.748 383.713 154.28 383.899 154.924C384.091 155.568 384.186 156.328 384.186 157.206ZM382.891 157.206C382.891 156.44 382.826 155.799 382.695 155.281C382.569 154.758 382.397 154.338 382.177 154.021C381.963 153.703 381.713 153.477 381.428 153.342C381.144 153.202 380.847 153.132 380.539 153.132C380.231 153.132 379.935 153.202 379.65 153.342C379.366 153.477 379.116 153.703 378.901 154.021C378.687 154.338 378.514 154.758 378.383 155.281C378.257 155.799 378.194 156.44 378.194 157.206C378.194 157.971 378.257 158.613 378.383 159.131C378.514 159.649 378.687 160.066 378.901 160.384C379.116 160.701 379.366 160.93 379.65 161.07C379.935 161.205 380.231 161.273 380.539 161.273C380.847 161.273 381.144 161.205 381.428 161.07C381.713 160.93 381.963 160.701 382.177 160.384C382.397 160.066 382.569 159.649 382.695 159.131C382.826 158.613 382.891 157.971 382.891 157.206Z" fill="black"/>
<path d="M204.467 127.754L200.891 139.218H199.499L196.595 130.474C196.569 130.388 196.542 130.298 196.515 130.202C196.494 130.106 196.47 130.004 196.443 129.898C196.417 130.004 196.39 130.106 196.363 130.202C196.337 130.298 196.31 130.388 196.283 130.474L193.363 139.218H191.971L188.395 127.754H189.683C189.822 127.754 189.937 127.788 190.027 127.858C190.123 127.927 190.185 128.015 190.211 128.122L192.579 136.09C192.617 136.234 192.651 136.388 192.683 136.554C192.721 136.719 192.755 136.895 192.787 137.082C192.825 136.895 192.862 136.719 192.899 136.554C192.942 136.383 192.987 136.228 193.035 136.09L195.731 128.122C195.763 128.031 195.825 127.948 195.915 127.874C196.011 127.794 196.126 127.754 196.259 127.754H196.707C196.846 127.754 196.958 127.788 197.043 127.858C197.129 127.927 197.193 128.015 197.235 128.122L199.923 136.09C199.971 136.228 200.014 136.378 200.051 136.538C200.094 136.698 200.134 136.866 200.171 137.042C200.198 136.866 200.227 136.698 200.259 136.538C200.291 136.378 200.326 136.228 200.363 136.09L202.739 128.122C202.766 128.026 202.825 127.94 202.915 127.866C203.011 127.791 203.126 127.754 203.259 127.754H204.467ZM207.192 132.194C207.538 131.826 207.922 131.532 208.344 131.314C208.765 131.095 209.25 130.986 209.8 130.986C210.242 130.986 210.632 131.06 210.968 131.21C211.309 131.354 211.592 131.562 211.816 131.834C212.045 132.1 212.218 132.423 212.336 132.802C212.453 133.18 212.512 133.599 212.512 134.058V139.218H211.08V134.058C211.08 133.444 210.938 132.97 210.656 132.634C210.378 132.292 209.954 132.122 209.384 132.122C208.962 132.122 208.568 132.223 208.2 132.426C207.837 132.628 207.501 132.903 207.192 133.25V139.218H205.76V127.434H207.192V132.194ZM216.186 131.114V139.218H214.762V131.114H216.186ZM216.49 128.57C216.49 128.708 216.46 128.839 216.402 128.962C216.348 129.079 216.274 129.186 216.178 129.282C216.087 129.372 215.978 129.444 215.85 129.498C215.727 129.551 215.596 129.578 215.458 129.578C215.319 129.578 215.188 129.551 215.066 129.498C214.948 129.444 214.844 129.372 214.754 129.282C214.663 129.186 214.591 129.079 214.538 128.962C214.484 128.839 214.458 128.708 214.458 128.57C214.458 128.431 214.484 128.3 214.538 128.178C214.591 128.05 214.663 127.94 214.754 127.85C214.844 127.754 214.948 127.679 215.066 127.626C215.188 127.572 215.319 127.546 215.458 127.546C215.596 127.546 215.727 127.572 215.85 127.626C215.978 127.679 216.087 127.754 216.178 127.85C216.274 127.94 216.348 128.05 216.402 128.178C216.46 128.3 216.49 128.431 216.49 128.57ZM221.013 139.346C220.373 139.346 219.88 139.167 219.533 138.81C219.192 138.452 219.021 137.938 219.021 137.266V132.306H218.045C217.96 132.306 217.888 132.282 217.829 132.234C217.771 132.18 217.741 132.1 217.741 131.994V131.426L219.069 131.258L219.397 128.754C219.413 128.674 219.448 128.61 219.501 128.562C219.56 128.508 219.635 128.482 219.725 128.482H220.445V131.274H222.789V132.306H220.445V137.17C220.445 137.511 220.528 137.764 220.693 137.93C220.859 138.095 221.072 138.178 221.333 138.178C221.483 138.178 221.611 138.159 221.717 138.122C221.829 138.079 221.925 138.034 222.005 137.986C222.085 137.938 222.152 137.895 222.205 137.858C222.264 137.815 222.315 137.794 222.357 137.794C222.432 137.794 222.499 137.839 222.557 137.93L222.973 138.61C222.728 138.839 222.432 139.02 222.085 139.154C221.739 139.282 221.381 139.346 221.013 139.346ZM229.637 134.282C229.637 133.951 229.589 133.65 229.493 133.378C229.402 133.1 229.266 132.863 229.085 132.666C228.909 132.463 228.693 132.308 228.437 132.202C228.181 132.09 227.89 132.034 227.565 132.034C226.882 132.034 226.341 132.234 225.941 132.634C225.546 133.028 225.301 133.578 225.205 134.282H229.637ZM230.789 138.082C230.613 138.295 230.402 138.482 230.157 138.642C229.912 138.796 229.648 138.924 229.365 139.026C229.088 139.127 228.8 139.202 228.501 139.25C228.202 139.303 227.906 139.33 227.613 139.33C227.053 139.33 226.536 139.236 226.061 139.05C225.592 138.858 225.184 138.58 224.837 138.218C224.496 137.85 224.229 137.396 224.037 136.858C223.845 136.319 223.749 135.7 223.749 135.002C223.749 134.436 223.834 133.908 224.005 133.418C224.181 132.927 224.432 132.503 224.757 132.146C225.082 131.783 225.48 131.5 225.949 131.298C226.418 131.09 226.946 130.986 227.533 130.986C228.018 130.986 228.466 131.068 228.877 131.234C229.293 131.394 229.65 131.628 229.949 131.938C230.253 132.242 230.49 132.62 230.661 133.074C230.832 133.522 230.917 134.034 230.917 134.61C230.917 134.834 230.893 134.983 230.845 135.058C230.797 135.132 230.706 135.17 230.573 135.17H225.157C225.173 135.682 225.242 136.127 225.365 136.506C225.493 136.884 225.669 137.202 225.893 137.458C226.117 137.708 226.384 137.898 226.693 138.026C227.002 138.148 227.349 138.21 227.733 138.21C228.09 138.21 228.397 138.17 228.653 138.09C228.914 138.004 229.138 137.914 229.325 137.818C229.512 137.722 229.666 137.634 229.789 137.554C229.917 137.468 230.026 137.426 230.117 137.426C230.234 137.426 230.325 137.471 230.389 137.562L230.789 138.082ZM187.144 156.058H185.415L184.96 158.34H186.689L187.144 156.058ZM189.79 155.141L189.699 155.666C189.676 155.801 189.62 155.901 189.531 155.967C189.447 156.027 189.316 156.058 189.139 156.058H188.173L187.718 158.34H188.971C189.106 158.34 189.202 158.379 189.258 158.459C189.319 158.533 189.335 158.666 189.307 158.858L189.244 159.257H187.585L186.997 162.218H186.43C186.369 162.218 186.313 162.204 186.262 162.176C186.211 162.148 186.166 162.11 186.129 162.064C186.096 162.017 186.073 161.961 186.059 161.896C186.045 161.83 186.045 161.758 186.059 161.679L186.556 159.257H184.827L184.33 161.742C184.302 161.914 184.234 162.038 184.127 162.113C184.02 162.183 183.898 162.218 183.763 162.218H183.203L183.798 159.257H182.776C182.645 159.257 182.55 159.219 182.489 159.145C182.433 159.065 182.419 158.93 182.447 158.739L182.503 158.34H183.931L184.386 156.058H182.762L182.853 155.54C182.876 155.404 182.93 155.304 183.014 155.239C183.103 155.173 183.236 155.141 183.413 155.141H184.519L185.023 152.635C185.051 152.495 185.114 152.385 185.212 152.306C185.315 152.226 185.436 152.187 185.576 152.187H186.136L185.548 155.141H187.277L187.865 152.187H188.418C188.553 152.187 188.658 152.231 188.733 152.32C188.812 152.408 188.84 152.52 188.817 152.656L188.306 155.141H189.79ZM192.794 153.293V156.8H196.917V157.906H192.794V162.218H191.436V152.187H197.617V153.293H192.794ZM200.71 153.293V156.8H204.833V157.906H200.71V162.218H199.352V152.187H205.533V153.293H200.71ZM208.626 153.293V156.8H212.749V157.906H208.626V162.218H207.268V152.187H213.449V153.293H208.626ZM216.542 153.293V156.8H220.665V157.906H216.542V162.218H215.184V152.187H221.365V153.293H216.542ZM224.458 153.293V156.8H228.581V157.906H224.458V162.218H223.1V152.187H229.281V153.293H224.458ZM232.374 153.293V156.8H236.497V157.906H232.374V162.218H231.016V152.187H237.197V153.293H232.374Z" fill="black"/>
<path d="M58.8391 133.379V137.779C58.2631 138.195 57.6471 138.507 56.9911 138.715C56.3405 138.917 55.6258 139.019 54.8471 139.019C53.9245 139.019 53.0925 138.877 52.3511 138.595C51.6098 138.307 50.9751 137.907 50.4471 137.395C49.9245 136.877 49.5218 136.259 49.2391 135.539C48.9565 134.819 48.8151 134.027 48.8151 133.163C48.8151 132.288 48.9511 131.491 49.2231 130.771C49.5005 130.051 49.8925 129.435 50.3991 128.923C50.9058 128.405 51.5218 128.005 52.2471 127.723C52.9725 127.44 53.7831 127.299 54.6791 127.299C55.1325 127.299 55.5538 127.333 55.9431 127.403C56.3325 127.467 56.6925 127.563 57.0231 127.691C57.3538 127.813 57.6605 127.965 57.9431 128.147C58.2258 128.323 58.4898 128.523 58.7351 128.747L58.2951 129.451C58.2258 129.557 58.1351 129.627 58.0231 129.659C57.9165 129.685 57.7965 129.659 57.6631 129.579C57.5351 129.504 57.3885 129.413 57.2231 129.307C57.0578 129.2 56.8551 129.099 56.6151 129.003C56.3805 128.901 56.1005 128.816 55.7751 128.747C55.4551 128.677 55.0738 128.643 54.6311 128.643C53.9858 128.643 53.4018 128.749 52.8791 128.963C52.3565 129.171 51.9111 129.472 51.5431 129.867C51.1751 130.256 50.8925 130.731 50.6951 131.291C50.4978 131.845 50.3991 132.469 50.3991 133.163C50.3991 133.883 50.5005 134.528 50.7031 135.099C50.9111 135.664 51.2045 136.147 51.5831 136.547C51.9671 136.941 52.4311 137.243 52.9751 137.451C53.5191 137.659 54.1298 137.763 54.8071 137.763C55.3405 137.763 55.8125 137.704 56.2231 137.587C56.6391 137.464 57.0445 137.296 57.4391 137.083V134.563H55.6551C55.5538 134.563 55.4711 134.533 55.4071 134.475C55.3485 134.416 55.3191 134.344 55.3191 134.259V133.379H58.8391ZM64.2009 130.659C64.7929 130.659 65.3262 130.757 65.8009 130.955C66.2756 131.152 66.6809 131.432 67.0169 131.795C67.3529 132.157 67.6089 132.597 67.7849 133.115C67.9662 133.627 68.0569 134.2 68.0569 134.835C68.0569 135.475 67.9662 136.051 67.7849 136.563C67.6089 137.075 67.3529 137.512 67.0169 137.875C66.6809 138.237 66.2756 138.517 65.8009 138.715C65.3262 138.907 64.7929 139.003 64.2009 139.003C63.6036 139.003 63.0649 138.907 62.5849 138.715C62.1102 138.517 61.7049 138.237 61.3689 137.875C61.0329 137.512 60.7742 137.075 60.5929 136.563C60.4169 136.051 60.3289 135.475 60.3289 134.835C60.3289 134.2 60.4169 133.627 60.5929 133.115C60.7742 132.597 61.0329 132.157 61.3689 131.795C61.7049 131.432 62.1102 131.152 62.5849 130.955C63.0649 130.757 63.6036 130.659 64.2009 130.659ZM64.2009 137.891C65.0009 137.891 65.5982 137.624 65.9929 137.091C66.3876 136.552 66.5849 135.803 66.5849 134.843C66.5849 133.877 66.3876 133.125 65.9929 132.587C65.5982 132.048 65.0009 131.779 64.2009 131.779C63.7956 131.779 63.4409 131.848 63.1369 131.987C62.8382 132.125 62.5876 132.325 62.3849 132.587C62.1876 132.848 62.0382 133.171 61.9369 133.555C61.8409 133.933 61.7929 134.363 61.7929 134.843C61.7929 135.803 61.9902 136.552 62.3849 137.091C62.7849 137.624 63.3902 137.891 64.2009 137.891ZM71.335 127.107V138.891H69.911V127.107H71.335ZM78.9243 132.715C78.6576 132.357 78.3696 132.109 78.0603 131.971C77.7509 131.827 77.4043 131.755 77.0203 131.755C76.2683 131.755 75.6896 132.024 75.2843 132.563C74.8789 133.101 74.6763 133.869 74.6763 134.867C74.6763 135.395 74.7216 135.848 74.8123 136.227C74.9029 136.6 75.0363 136.909 75.2123 137.155C75.3883 137.395 75.6043 137.571 75.8603 137.683C76.1163 137.795 76.4069 137.851 76.7323 137.851C77.2016 137.851 77.6096 137.744 77.9563 137.531C78.3083 137.317 78.6309 137.016 78.9243 136.627V132.715ZM80.3483 127.107V138.891H79.5003C79.2976 138.891 79.1696 138.792 79.1163 138.595L78.9883 137.611C78.6416 138.027 78.2469 138.363 77.8043 138.619C77.3616 138.875 76.8496 139.003 76.2683 139.003C75.8043 139.003 75.3829 138.915 75.0043 138.739C74.6256 138.557 74.3029 138.293 74.0363 137.947C73.7696 137.6 73.5643 137.168 73.4203 136.651C73.2763 136.133 73.2043 135.539 73.2043 134.867C73.2043 134.269 73.2843 133.715 73.4443 133.203C73.6043 132.685 73.8336 132.237 74.1323 131.859C74.4309 131.48 74.7963 131.184 75.2283 130.971C75.6656 130.752 76.1563 130.643 76.7003 130.643C77.1963 130.643 77.6203 130.728 77.9723 130.899C78.3296 131.064 78.6469 131.296 78.9243 131.595V127.107H80.3483ZM40.4134 155.731H38.6844L38.2294 158.013H39.9584L40.4134 155.731ZM43.0594 154.814L42.9684 155.339C42.945 155.474 42.889 155.574 42.8004 155.64C42.7164 155.7 42.5857 155.731 42.4084 155.731H41.4424L40.9874 158.013H42.2404C42.3757 158.013 42.4714 158.052 42.5274 158.132C42.5881 158.206 42.6044 158.339 42.5764 158.531L42.5134 158.93H40.8544L40.2664 161.891H39.6994C39.6387 161.891 39.5827 161.877 39.5314 161.849C39.48 161.821 39.4357 161.783 39.3984 161.737C39.3657 161.69 39.3424 161.634 39.3284 161.569C39.3144 161.503 39.3144 161.431 39.3284 161.352L39.8254 158.93H38.0964L37.5994 161.415C37.5714 161.587 37.5037 161.711 37.3964 161.786C37.289 161.856 37.1677 161.891 37.0324 161.891H36.4724L37.0674 158.93H36.0454C35.9147 158.93 35.819 158.892 35.7584 158.818C35.7024 158.738 35.6884 158.603 35.7164 158.412L35.7724 158.013H37.2004L37.6554 155.731H36.0314L36.1224 155.213C36.1457 155.077 36.1994 154.977 36.2834 154.912C36.372 154.846 36.505 154.814 36.6824 154.814H37.7884L38.2924 152.308C38.3204 152.168 38.3834 152.058 38.4814 151.979C38.584 151.899 38.7054 151.86 38.8454 151.86H39.4054L38.8174 154.814H40.5464L41.1344 151.86H41.6874C41.8227 151.86 41.9277 151.904 42.0024 151.993C42.0817 152.081 42.1097 152.193 42.0864 152.329L41.5754 154.814H43.0594ZM46.0635 152.966V156.473H50.1865V157.579H46.0635V161.891H44.7055V151.86H50.8865V152.966H46.0635ZM53.9795 152.966V156.473H58.1025V157.579H53.9795V161.891H52.6215V151.86H58.8025V152.966H53.9795ZM67.4838 159.819C67.5585 159.819 67.6238 159.849 67.6798 159.91L68.2188 160.491C67.8081 160.967 67.3088 161.338 66.7208 161.604C66.1375 161.87 65.4305 162.003 64.5998 162.003C63.8811 162.003 63.2278 161.879 62.6398 161.632C62.0518 161.38 61.5501 161.03 61.1348 160.582C60.7195 160.129 60.3975 159.588 60.1688 158.958C59.9401 158.328 59.8258 157.635 59.8258 156.879C59.8258 156.123 59.9448 155.43 60.1828 154.8C60.4208 154.17 60.7545 153.628 61.1838 153.176C61.6178 152.723 62.1358 152.373 62.7378 152.126C63.3398 151.874 64.0048 151.748 64.7328 151.748C65.4468 151.748 66.0768 151.862 66.6228 152.091C67.1688 152.319 67.6495 152.63 68.0648 153.022L67.6168 153.645C67.5888 153.691 67.5515 153.731 67.5048 153.764C67.4628 153.792 67.4045 153.806 67.3298 153.806C67.2458 153.806 67.1431 153.761 67.0218 153.673C66.9005 153.579 66.7418 153.477 66.5458 153.365C66.3498 153.253 66.1048 153.152 65.8108 153.064C65.5168 152.97 65.1551 152.924 64.7258 152.924C64.2078 152.924 63.7341 153.015 63.3048 153.197C62.8755 153.374 62.5045 153.633 62.1918 153.974C61.8838 154.314 61.6435 154.73 61.4708 155.22C61.2981 155.71 61.2118 156.263 61.2118 156.879C61.2118 157.504 61.3005 158.062 61.4778 158.552C61.6598 159.042 61.9048 159.457 62.2128 159.798C62.5255 160.134 62.8918 160.39 63.3118 160.568C63.7365 160.745 64.1938 160.834 64.6838 160.834C64.9825 160.834 65.2508 160.817 65.4888 160.785C65.7315 160.747 65.9531 160.691 66.1538 160.617C66.3591 160.542 66.5481 160.449 66.7208 160.337C66.8981 160.22 67.0731 160.082 67.2458 159.924C67.3251 159.854 67.4045 159.819 67.4838 159.819ZM75.1204 158.167L73.5454 154.086C73.4987 153.964 73.4497 153.824 73.3984 153.666C73.347 153.502 73.298 153.33 73.2514 153.148C73.1534 153.526 73.053 153.841 72.9504 154.093L71.3754 158.167H75.1204ZM77.9484 161.891H76.8984C76.777 161.891 76.679 161.86 76.6044 161.8C76.5297 161.739 76.4737 161.662 76.4364 161.569L75.4984 159.147H70.9974L70.0594 161.569C70.0314 161.653 69.9777 161.727 69.8984 161.793C69.819 161.858 69.721 161.891 69.6044 161.891H68.5544L72.5654 151.86H73.9374L77.9484 161.891ZM82.033 160.967C82.369 160.967 82.6723 160.913 82.943 160.806C83.2183 160.698 83.4516 160.549 83.643 160.358C83.839 160.166 83.9883 159.94 84.091 159.679C84.1983 159.417 84.252 159.133 84.252 158.825C84.252 158.498 84.2006 158.204 84.098 157.943C83.9953 157.677 83.8483 157.453 83.657 157.271C83.4703 157.084 83.2463 156.942 82.985 156.844C82.7236 156.746 82.4366 156.697 82.124 156.697C81.788 156.697 81.4846 156.755 81.214 156.872C80.9433 156.984 80.7123 157.138 80.521 157.334C80.3343 157.525 80.1896 157.749 80.087 158.006C79.989 158.258 79.94 158.521 79.94 158.797C79.94 159.119 79.9866 159.413 80.08 159.679C80.1733 159.945 80.3086 160.173 80.486 160.365C80.668 160.556 80.8873 160.705 81.144 160.813C81.4053 160.915 81.7016 160.967 82.033 160.967ZM81.305 155.619C81.2163 155.731 81.13 155.84 81.046 155.948C80.9666 156.05 80.8896 156.153 80.815 156.256C81.053 156.092 81.3143 155.966 81.599 155.878C81.8836 155.789 82.194 155.745 82.53 155.745C82.936 155.745 83.3186 155.812 83.678 155.948C84.0373 156.078 84.35 156.272 84.616 156.529C84.8866 156.781 85.1013 157.093 85.26 157.467C85.4186 157.835 85.498 158.258 85.498 158.734C85.498 159.196 85.414 159.625 85.246 160.022C85.078 160.418 84.8423 160.764 84.539 161.058C84.2403 161.352 83.8786 161.583 83.454 161.751C83.034 161.919 82.5696 162.003 82.061 162.003C81.557 162.003 81.0996 161.923 80.689 161.765C80.2783 161.601 79.9283 161.373 79.639 161.079C79.3543 160.78 79.1326 160.421 78.974 160.001C78.82 159.576 78.743 159.102 78.743 158.58C78.743 158.141 78.8386 157.674 79.03 157.18C79.226 156.68 79.5363 156.148 79.961 155.584L82.509 152.161C82.5743 152.077 82.663 152.007 82.775 151.951C82.8916 151.89 83.0246 151.86 83.174 151.86H84.28L81.305 155.619ZM93.0171 160.708C93.1524 160.708 93.2597 160.747 93.3391 160.827C93.4184 160.906 93.4581 161.009 93.4581 161.135V161.891H86.7661V161.464C86.7661 161.375 86.7847 161.284 86.8221 161.191C86.8594 161.097 86.9177 161.011 86.9971 160.932L90.2101 157.705C90.4761 157.434 90.7187 157.175 90.9381 156.928C91.1574 156.676 91.3441 156.424 91.4981 156.172C91.6521 155.92 91.7711 155.665 91.8551 155.409C91.9391 155.147 91.9811 154.87 91.9811 154.576C91.9811 154.282 91.9344 154.025 91.8411 153.806C91.7477 153.582 91.6194 153.397 91.4561 153.253C91.2974 153.108 91.1084 153.001 90.8891 152.931C90.6697 152.856 90.4341 152.819 90.1821 152.819C89.9254 152.819 89.6897 152.856 89.4751 152.931C89.2604 153.005 89.0691 153.11 88.9011 153.246C88.7377 153.376 88.6001 153.533 88.4881 153.715C88.3761 153.897 88.2967 154.097 88.2501 154.317C88.1941 154.48 88.1171 154.59 88.0191 154.646C87.9257 154.697 87.7927 154.711 87.6201 154.688L86.9691 154.576C87.0344 154.118 87.1604 153.715 87.3471 153.365C87.5384 153.01 87.7764 152.714 88.0611 152.476C88.3504 152.238 88.6794 152.058 89.0481 151.937C89.4167 151.811 89.8157 151.748 90.2451 151.748C90.6697 151.748 91.0664 151.811 91.4351 151.937C91.8037 152.063 92.1234 152.247 92.3941 152.49C92.6647 152.728 92.8771 153.019 93.0311 153.365C93.1851 153.71 93.2621 154.102 93.2621 154.541C93.2621 154.914 93.2061 155.262 93.0941 155.584C92.9821 155.901 92.8304 156.204 92.6391 156.494C92.4477 156.783 92.2261 157.065 91.9741 157.341C91.7267 157.616 91.4631 157.894 91.1831 158.174L88.5371 160.876C88.7237 160.824 88.9127 160.785 89.1041 160.757C89.2954 160.724 89.4797 160.708 89.6571 160.708H93.0171Z" fill="black"/>
<path d="M479.2 127.754V139.218H477.84V130.794C477.84 130.682 477.842 130.562 477.848 130.434C477.858 130.306 477.869 130.175 477.88 130.042L473.944 137.21C473.821 137.45 473.634 137.57 473.384 137.57H473.16C472.909 137.57 472.722 137.45 472.6 137.21L468.584 130.01C468.616 130.292 468.632 130.554 468.632 130.794V139.218H467.272V127.754H468.416C468.554 127.754 468.661 127.767 468.736 127.794C468.81 127.82 468.882 127.895 468.952 128.018L472.912 135.074C472.976 135.202 473.037 135.335 473.096 135.474C473.16 135.612 473.218 135.754 473.272 135.898C473.325 135.754 473.381 135.612 473.44 135.474C473.498 135.33 473.562 135.194 473.632 135.066L477.52 128.018C477.584 127.895 477.653 127.82 477.728 127.794C477.808 127.767 477.917 127.754 478.056 127.754H479.2ZM485.953 135.57C485.297 135.591 484.737 135.644 484.273 135.73C483.814 135.81 483.438 135.916 483.145 136.05C482.857 136.183 482.646 136.34 482.513 136.522C482.385 136.703 482.321 136.906 482.321 137.13C482.321 137.343 482.355 137.527 482.425 137.682C482.494 137.836 482.587 137.964 482.705 138.066C482.827 138.162 482.969 138.234 483.129 138.282C483.294 138.324 483.47 138.346 483.657 138.346C483.907 138.346 484.137 138.322 484.345 138.274C484.553 138.22 484.747 138.146 484.929 138.05C485.115 137.954 485.291 137.839 485.457 137.706C485.627 137.572 485.793 137.42 485.953 137.25V135.57ZM481.353 132.258C481.801 131.826 482.283 131.503 482.801 131.29C483.318 131.076 483.891 130.97 484.521 130.97C484.974 130.97 485.377 131.044 485.729 131.194C486.081 131.343 486.377 131.551 486.617 131.818C486.857 132.084 487.038 132.407 487.161 132.786C487.283 133.164 487.345 133.58 487.345 134.034V139.218H486.713C486.574 139.218 486.467 139.196 486.393 139.154C486.318 139.106 486.259 139.015 486.217 138.882L486.057 138.114C485.843 138.311 485.635 138.487 485.433 138.642C485.23 138.791 485.017 138.919 484.793 139.026C484.569 139.127 484.329 139.204 484.073 139.258C483.822 139.316 483.542 139.346 483.233 139.346C482.918 139.346 482.622 139.303 482.345 139.218C482.067 139.127 481.825 138.994 481.617 138.818C481.414 138.642 481.251 138.42 481.129 138.154C481.011 137.882 480.953 137.562 480.953 137.194C480.953 136.874 481.041 136.567 481.217 136.274C481.393 135.975 481.678 135.711 482.073 135.482C482.467 135.252 482.982 135.066 483.617 134.922C484.251 134.772 485.03 134.687 485.953 134.666V134.034C485.953 133.404 485.817 132.93 485.545 132.61C485.273 132.284 484.875 132.122 484.353 132.122C484.001 132.122 483.705 132.167 483.465 132.258C483.23 132.343 483.025 132.442 482.849 132.554C482.678 132.66 482.529 132.759 482.401 132.85C482.278 132.935 482.155 132.978 482.033 132.978C481.937 132.978 481.854 132.954 481.785 132.906C481.715 132.852 481.657 132.788 481.609 132.714L481.353 132.258ZM490.946 132.194C491.293 131.826 491.677 131.532 492.098 131.314C492.519 131.095 493.005 130.986 493.554 130.986C493.997 130.986 494.386 131.06 494.722 131.21C495.063 131.354 495.346 131.562 495.57 131.834C495.799 132.1 495.973 132.423 496.09 132.802C496.207 133.18 496.266 133.599 496.266 134.058V139.218H494.834V134.058C494.834 133.444 494.693 132.97 494.41 132.634C494.133 132.292 493.709 132.122 493.138 132.122C492.717 132.122 492.322 132.223 491.954 132.426C491.591 132.628 491.255 132.903 490.946 133.25V139.218H489.514V127.434H490.946V132.194ZM501.852 130.986C502.444 130.986 502.977 131.084 503.452 131.282C503.926 131.479 504.332 131.759 504.668 132.122C505.004 132.484 505.26 132.924 505.436 133.442C505.617 133.954 505.708 134.527 505.708 135.162C505.708 135.802 505.617 136.378 505.436 136.89C505.26 137.402 505.004 137.839 504.668 138.202C504.332 138.564 503.926 138.844 503.452 139.042C502.977 139.234 502.444 139.33 501.852 139.33C501.254 139.33 500.716 139.234 500.236 139.042C499.761 138.844 499.356 138.564 499.02 138.202C498.684 137.839 498.425 137.402 498.244 136.89C498.068 136.378 497.98 135.802 497.98 135.162C497.98 134.527 498.068 133.954 498.244 133.442C498.425 132.924 498.684 132.484 499.02 132.122C499.356 131.759 499.761 131.479 500.236 131.282C500.716 131.084 501.254 130.986 501.852 130.986ZM501.852 138.218C502.652 138.218 503.249 137.951 503.644 137.418C504.038 136.879 504.236 136.13 504.236 135.17C504.236 134.204 504.038 133.452 503.644 132.914C503.249 132.375 502.652 132.106 501.852 132.106C501.446 132.106 501.092 132.175 500.788 132.314C500.489 132.452 500.238 132.652 500.036 132.914C499.838 133.175 499.689 133.498 499.588 133.882C499.492 134.26 499.444 134.69 499.444 135.17C499.444 136.13 499.641 136.879 500.036 137.418C500.436 137.951 501.041 138.218 501.852 138.218ZM510.291 135.258C510.579 135.258 510.832 135.218 511.051 135.138C511.27 135.058 511.454 134.946 511.603 134.802C511.752 134.658 511.864 134.487 511.939 134.29C512.014 134.087 512.051 133.866 512.051 133.626C512.051 133.13 511.899 132.735 511.595 132.442C511.296 132.148 510.862 132.002 510.291 132.002C509.715 132.002 509.275 132.148 508.971 132.442C508.672 132.735 508.523 133.13 508.523 133.626C508.523 133.866 508.56 134.087 508.635 134.29C508.715 134.487 508.83 134.658 508.979 134.802C509.128 134.946 509.312 135.058 509.531 135.138C509.75 135.218 510.003 135.258 510.291 135.258ZM512.859 139.658C512.859 139.46 512.803 139.3 512.691 139.178C512.579 139.055 512.427 138.959 512.235 138.89C512.048 138.82 511.83 138.772 511.579 138.746C511.328 138.714 511.062 138.69 510.779 138.674C510.502 138.658 510.219 138.642 509.931 138.626C509.643 138.61 509.366 138.583 509.099 138.546C508.8 138.684 508.555 138.86 508.363 139.074C508.176 139.282 508.083 139.527 508.083 139.81C508.083 139.991 508.128 140.159 508.219 140.314C508.315 140.474 508.459 140.61 508.651 140.722C508.843 140.839 509.083 140.93 509.371 140.994C509.664 141.063 510.008 141.098 510.403 141.098C510.787 141.098 511.131 141.063 511.435 140.994C511.739 140.924 511.995 140.826 512.203 140.698C512.416 140.57 512.579 140.418 512.691 140.242C512.803 140.066 512.859 139.871 512.859 139.658ZM514.307 131.434V131.962C514.307 132.138 514.195 132.25 513.971 132.298L513.051 132.418C513.232 132.77 513.323 133.159 513.323 133.586C513.323 133.98 513.246 134.34 513.091 134.666C512.942 134.986 512.734 135.26 512.467 135.49C512.2 135.719 511.88 135.895 511.507 136.018C511.134 136.14 510.728 136.202 510.291 136.202C509.912 136.202 509.555 136.156 509.219 136.066C509.048 136.172 508.918 136.287 508.827 136.41C508.736 136.527 508.691 136.647 508.691 136.77C508.691 136.962 508.768 137.108 508.923 137.21C509.083 137.306 509.291 137.375 509.547 137.418C509.803 137.46 510.094 137.487 510.419 137.498C510.75 137.508 511.086 137.527 511.427 137.554C511.774 137.575 512.11 137.615 512.435 137.674C512.766 137.732 513.059 137.828 513.315 137.962C513.571 138.095 513.776 138.279 513.931 138.514C514.091 138.748 514.171 139.052 514.171 139.426C514.171 139.772 514.083 140.108 513.907 140.434C513.736 140.759 513.488 141.047 513.163 141.298C512.838 141.554 512.438 141.756 511.963 141.906C511.494 142.06 510.963 142.138 510.371 142.138C509.779 142.138 509.262 142.079 508.819 141.962C508.376 141.844 508.008 141.687 507.715 141.49C507.422 141.292 507.2 141.063 507.051 140.802C506.907 140.546 506.835 140.276 506.835 139.994C506.835 139.594 506.96 139.255 507.211 138.978C507.462 138.7 507.806 138.479 508.243 138.314C508.003 138.207 507.811 138.066 507.667 137.89C507.528 137.708 507.459 137.466 507.459 137.162C507.459 137.044 507.48 136.924 507.523 136.802C507.566 136.674 507.63 136.548 507.715 136.426C507.806 136.298 507.915 136.178 508.043 136.066C508.171 135.954 508.32 135.855 508.491 135.77C508.091 135.546 507.779 135.25 507.555 134.882C507.331 134.508 507.219 134.076 507.219 133.586C507.219 133.191 507.294 132.834 507.443 132.514C507.598 132.188 507.811 131.914 508.083 131.69C508.355 131.46 508.678 131.284 509.051 131.162C509.43 131.039 509.843 130.978 510.291 130.978C510.643 130.978 510.971 131.018 511.275 131.098C511.579 131.172 511.856 131.284 512.107 131.434H514.307ZM520.171 135.57C519.515 135.591 518.955 135.644 518.491 135.73C518.033 135.81 517.657 135.916 517.363 136.05C517.075 136.183 516.865 136.34 516.731 136.522C516.603 136.703 516.539 136.906 516.539 137.13C516.539 137.343 516.574 137.527 516.643 137.682C516.713 137.836 516.806 137.964 516.923 138.066C517.046 138.162 517.187 138.234 517.347 138.282C517.513 138.324 517.689 138.346 517.875 138.346C518.126 138.346 518.355 138.322 518.563 138.274C518.771 138.22 518.966 138.146 519.147 138.05C519.334 137.954 519.51 137.839 519.675 137.706C519.846 137.572 520.011 137.42 520.171 137.25V135.57ZM515.571 132.258C516.019 131.826 516.502 131.503 517.019 131.29C517.537 131.076 518.11 130.97 518.739 130.97C519.193 130.97 519.595 131.044 519.947 131.194C520.299 131.343 520.595 131.551 520.835 131.818C521.075 132.084 521.257 132.407 521.379 132.786C521.502 133.164 521.563 133.58 521.563 134.034V139.218H520.931C520.793 139.218 520.686 139.196 520.611 139.154C520.537 139.106 520.478 139.015 520.435 138.882L520.275 138.114C520.062 138.311 519.854 138.487 519.651 138.642C519.449 138.791 519.235 138.919 519.011 139.026C518.787 139.127 518.547 139.204 518.291 139.258C518.041 139.316 517.761 139.346 517.451 139.346C517.137 139.346 516.841 139.303 516.563 139.218C516.286 139.127 516.043 138.994 515.835 138.818C515.633 138.642 515.47 138.42 515.347 138.154C515.23 137.882 515.171 137.562 515.171 137.194C515.171 136.874 515.259 136.567 515.435 136.274C515.611 135.975 515.897 135.711 516.291 135.482C516.686 135.252 517.201 135.066 517.835 134.922C518.47 134.772 519.249 134.687 520.171 134.666V134.034C520.171 133.404 520.035 132.93 519.763 132.61C519.491 132.284 519.094 132.122 518.571 132.122C518.219 132.122 517.923 132.167 517.683 132.258C517.449 132.343 517.243 132.442 517.067 132.554C516.897 132.66 516.747 132.759 516.619 132.85C516.497 132.935 516.374 132.978 516.251 132.978C516.155 132.978 516.073 132.954 516.003 132.906C515.934 132.852 515.875 132.788 515.827 132.714L515.571 132.258ZM525.077 132.29C525.253 132.092 525.439 131.914 525.637 131.754C525.834 131.594 526.042 131.458 526.261 131.346C526.485 131.228 526.719 131.14 526.965 131.082C527.215 131.018 527.485 130.986 527.773 130.986C528.215 130.986 528.605 131.06 528.941 131.21C529.282 131.354 529.565 131.562 529.789 131.834C530.018 132.1 530.191 132.423 530.309 132.802C530.426 133.18 530.485 133.599 530.485 134.058V139.218H529.053V134.058C529.053 133.444 528.911 132.97 528.629 132.634C528.351 132.292 527.927 132.122 527.357 132.122C526.935 132.122 526.541 132.223 526.173 132.426C525.81 132.628 525.474 132.903 525.165 133.25V139.218H523.733V131.114H524.589C524.791 131.114 524.917 131.212 524.965 131.41L525.077 132.29ZM539.443 131.114L534.923 141.61C534.875 141.716 534.814 141.802 534.739 141.866C534.67 141.93 534.561 141.962 534.411 141.962H533.355L534.835 138.746L531.491 131.114H532.723C532.846 131.114 532.942 131.146 533.011 131.21C533.086 131.268 533.137 131.335 533.163 131.41L535.331 136.514C535.417 136.738 535.489 136.972 535.547 137.218C535.622 136.967 535.702 136.73 535.787 136.506L537.891 131.41C537.923 131.324 537.977 131.255 538.051 131.202C538.131 131.143 538.219 131.114 538.315 131.114H539.443ZM478.112 156.058H476.383L475.928 158.34H477.657L478.112 156.058ZM480.758 155.141L480.667 155.666C480.644 155.801 480.588 155.901 480.499 155.967C480.415 156.027 480.284 156.058 480.107 156.058H479.141L478.686 158.34H479.939C480.074 158.34 480.17 158.379 480.226 158.459C480.287 158.533 480.303 158.666 480.275 158.858L480.212 159.257H478.553L477.965 162.218H477.398C477.337 162.218 477.281 162.204 477.23 162.176C477.179 162.148 477.134 162.11 477.097 162.064C477.064 162.017 477.041 161.961 477.027 161.896C477.013 161.83 477.013 161.758 477.027 161.679L477.524 159.257H475.795L475.298 161.742C475.27 161.914 475.202 162.038 475.095 162.113C474.988 162.183 474.866 162.218 474.731 162.218H474.171L474.766 159.257H473.744C473.613 159.257 473.518 159.219 473.457 159.145C473.401 159.065 473.387 158.93 473.415 158.739L473.471 158.34H474.899L475.354 156.058H473.73L473.821 155.54C473.844 155.404 473.898 155.304 473.982 155.239C474.071 155.173 474.204 155.141 474.381 155.141H475.487L475.991 152.635C476.019 152.495 476.082 152.385 476.18 152.306C476.283 152.226 476.404 152.187 476.544 152.187H477.104L476.516 155.141H478.245L478.833 152.187H479.386C479.521 152.187 479.626 152.231 479.701 152.32C479.78 152.408 479.808 152.52 479.785 152.656L479.274 155.141H480.758ZM485.183 161.336C485.51 161.336 485.801 161.291 486.058 161.203C486.319 161.109 486.539 160.981 486.716 160.818C486.898 160.65 487.036 160.451 487.129 160.223C487.227 159.989 487.276 159.733 487.276 159.453C487.276 159.107 487.218 158.813 487.101 158.571C486.989 158.323 486.835 158.123 486.639 157.969C486.448 157.815 486.226 157.703 485.974 157.633C485.722 157.558 485.458 157.521 485.183 157.521C484.908 157.521 484.644 157.558 484.392 157.633C484.14 157.703 483.916 157.815 483.72 157.969C483.529 158.123 483.375 158.323 483.258 158.571C483.146 158.813 483.09 159.107 483.09 159.453C483.09 159.733 483.137 159.989 483.23 160.223C483.328 160.451 483.466 160.65 483.643 160.818C483.825 160.981 484.044 161.109 484.301 161.203C484.562 161.291 484.856 161.336 485.183 161.336ZM485.183 153.041C484.884 153.041 484.621 153.085 484.392 153.174C484.168 153.262 483.979 153.384 483.825 153.538C483.676 153.692 483.561 153.871 483.482 154.077C483.407 154.282 483.37 154.501 483.37 154.735C483.37 154.963 483.403 155.185 483.468 155.4C483.533 155.614 483.638 155.806 483.783 155.974C483.928 156.137 484.114 156.27 484.343 156.373C484.576 156.471 484.856 156.52 485.183 156.52C485.51 156.52 485.787 156.471 486.016 156.373C486.249 156.27 486.438 156.137 486.583 155.974C486.728 155.806 486.833 155.614 486.898 155.4C486.963 155.185 486.996 154.963 486.996 154.735C486.996 154.501 486.956 154.282 486.877 154.077C486.802 153.871 486.688 153.692 486.534 153.538C486.385 153.384 486.196 153.262 485.967 153.174C485.743 153.085 485.482 153.041 485.183 153.041ZM486.618 156.989C487.243 157.166 487.724 157.462 488.06 157.878C488.396 158.293 488.564 158.825 488.564 159.474C488.564 159.912 488.48 160.309 488.312 160.664C488.149 161.014 487.918 161.312 487.619 161.56C487.325 161.807 486.97 161.998 486.555 162.134C486.14 162.264 485.682 162.33 485.183 162.33C484.684 162.33 484.226 162.264 483.811 162.134C483.396 161.998 483.039 161.807 482.74 161.56C482.441 161.312 482.21 161.014 482.047 160.664C481.884 160.309 481.802 159.912 481.802 159.474C481.802 158.825 481.97 158.293 482.306 157.878C482.642 157.462 483.123 157.166 483.748 156.989C483.221 156.793 482.822 156.501 482.551 156.114C482.285 155.722 482.152 155.255 482.152 154.714C482.152 154.345 482.224 154 482.369 153.678C482.514 153.356 482.719 153.076 482.985 152.838C483.251 152.6 483.568 152.413 483.937 152.278C484.31 152.142 484.726 152.075 485.183 152.075C485.636 152.075 486.049 152.142 486.422 152.278C486.795 152.413 487.115 152.6 487.381 152.838C487.647 153.076 487.852 153.356 487.997 153.678C488.142 154 488.214 154.345 488.214 154.714C488.214 155.255 488.079 155.722 487.808 156.114C487.542 156.501 487.145 156.793 486.618 156.989ZM496.153 161.035C496.289 161.035 496.396 161.074 496.475 161.154C496.555 161.233 496.594 161.336 496.594 161.462V162.218H489.902V161.791C489.902 161.702 489.921 161.611 489.958 161.518C489.996 161.424 490.054 161.338 490.133 161.259L493.346 158.032C493.612 157.761 493.855 157.502 494.074 157.255C494.294 157.003 494.48 156.751 494.634 156.499C494.788 156.247 494.907 155.992 494.991 155.736C495.075 155.474 495.117 155.197 495.117 154.903C495.117 154.609 495.071 154.352 494.977 154.133C494.884 153.909 494.756 153.724 494.592 153.58C494.434 153.435 494.245 153.328 494.025 153.258C493.806 153.183 493.57 153.146 493.318 153.146C493.062 153.146 492.826 153.183 492.611 153.258C492.397 153.332 492.205 153.437 492.037 153.573C491.874 153.703 491.736 153.86 491.624 154.042C491.512 154.224 491.433 154.424 491.386 154.644C491.33 154.807 491.253 154.917 491.155 154.973C491.062 155.024 490.929 155.038 490.756 155.015L490.105 154.903C490.171 154.445 490.297 154.042 490.483 153.692C490.675 153.337 490.913 153.041 491.197 152.803C491.487 152.565 491.816 152.385 492.184 152.264C492.553 152.138 492.952 152.075 493.381 152.075C493.806 152.075 494.203 152.138 494.571 152.264C494.94 152.39 495.26 152.574 495.53 152.817C495.801 153.055 496.013 153.346 496.167 153.692C496.321 154.037 496.398 154.429 496.398 154.868C496.398 155.241 496.342 155.589 496.23 155.911C496.118 156.228 495.967 156.531 495.775 156.821C495.584 157.11 495.362 157.392 495.11 157.668C494.863 157.943 494.599 158.221 494.319 158.501L491.673 161.203C491.86 161.151 492.049 161.112 492.24 161.084C492.432 161.051 492.616 161.035 492.793 161.035H496.153ZM498.275 154.903C498.341 154.445 498.467 154.042 498.653 153.692C498.84 153.337 499.076 153.041 499.36 152.803C499.65 152.565 499.979 152.385 500.347 152.264C500.721 152.138 501.122 152.075 501.551 152.075C501.976 152.075 502.368 152.135 502.727 152.257C503.087 152.378 503.395 152.551 503.651 152.775C503.913 152.999 504.116 153.269 504.26 153.587C504.405 153.904 504.477 154.256 504.477 154.644C504.477 154.961 504.435 155.246 504.351 155.498C504.272 155.745 504.155 155.962 504.001 156.149C503.852 156.335 503.67 156.494 503.455 156.625C503.241 156.755 503 156.863 502.734 156.947C503.388 157.115 503.878 157.404 504.204 157.815C504.536 158.221 504.701 158.729 504.701 159.341C504.701 159.803 504.613 160.218 504.435 160.587C504.263 160.955 504.025 161.27 503.721 161.532C503.418 161.788 503.063 161.987 502.657 162.127C502.256 162.262 501.824 162.33 501.362 162.33C500.83 162.33 500.375 162.264 499.997 162.134C499.619 161.998 499.3 161.814 499.038 161.581C498.777 161.347 498.562 161.072 498.394 160.755C498.226 160.433 498.084 160.085 497.967 159.712L498.506 159.488C498.646 159.427 498.782 159.411 498.912 159.439C499.048 159.467 499.146 159.544 499.206 159.67C499.267 159.8 499.342 159.957 499.43 160.139C499.524 160.321 499.65 160.496 499.808 160.664C499.967 160.832 500.168 160.974 500.41 161.091C500.658 161.207 500.97 161.266 501.348 161.266C501.698 161.266 502.004 161.21 502.265 161.098C502.531 160.981 502.751 160.832 502.923 160.65C503.101 160.468 503.234 160.265 503.322 160.041C503.411 159.817 503.455 159.595 503.455 159.376C503.455 159.105 503.42 158.858 503.35 158.634C503.28 158.41 503.15 158.216 502.958 158.053C502.767 157.889 502.503 157.761 502.167 157.668C501.836 157.574 501.409 157.528 500.886 157.528V156.625C501.316 156.62 501.68 156.573 501.978 156.485C502.282 156.396 502.527 156.275 502.713 156.121C502.905 155.967 503.042 155.782 503.126 155.568C503.215 155.353 503.259 155.115 503.259 154.854C503.259 154.564 503.213 154.312 503.119 154.098C503.031 153.883 502.907 153.706 502.748 153.566C502.59 153.426 502.401 153.321 502.181 153.251C501.967 153.181 501.733 153.146 501.481 153.146C501.229 153.146 500.994 153.183 500.774 153.258C500.56 153.332 500.368 153.437 500.2 153.573C500.037 153.703 499.899 153.86 499.787 154.042C499.675 154.224 499.596 154.424 499.549 154.644C499.489 154.807 499.412 154.917 499.318 154.973C499.23 155.024 499.099 155.038 498.926 155.015L498.275 154.903ZM512.395 161.035C512.531 161.035 512.638 161.074 512.717 161.154C512.797 161.233 512.836 161.336 512.836 161.462V162.218H506.144V161.791C506.144 161.702 506.163 161.611 506.2 161.518C506.238 161.424 506.296 161.338 506.375 161.259L509.588 158.032C509.854 157.761 510.097 157.502 510.316 157.255C510.536 157.003 510.722 156.751 510.876 156.499C511.03 156.247 511.149 155.992 511.233 155.736C511.317 155.474 511.359 155.197 511.359 154.903C511.359 154.609 511.313 154.352 511.219 154.133C511.126 153.909 510.998 153.724 510.834 153.58C510.676 153.435 510.487 153.328 510.267 153.258C510.048 153.183 509.812 153.146 509.56 153.146C509.304 153.146 509.068 153.183 508.853 153.258C508.639 153.332 508.447 153.437 508.279 153.573C508.116 153.703 507.978 153.86 507.866 154.042C507.754 154.224 507.675 154.424 507.628 154.644C507.572 154.807 507.495 154.917 507.397 154.973C507.304 155.024 507.171 155.038 506.998 155.015L506.347 154.903C506.413 154.445 506.539 154.042 506.725 153.692C506.917 153.337 507.155 153.041 507.439 152.803C507.729 152.565 508.058 152.385 508.426 152.264C508.795 152.138 509.194 152.075 509.623 152.075C510.048 152.075 510.445 152.138 510.813 152.264C511.182 152.39 511.502 152.574 511.772 152.817C512.043 153.055 512.255 153.346 512.409 153.692C512.563 154.037 512.64 154.429 512.64 154.868C512.64 155.241 512.584 155.589 512.472 155.911C512.36 156.228 512.209 156.531 512.017 156.821C511.826 157.11 511.604 157.392 511.352 157.668C511.105 157.943 510.841 158.221 510.561 158.501L507.915 161.203C508.102 161.151 508.291 161.112 508.482 161.084C508.674 161.051 508.858 161.035 509.035 161.035H512.395ZM520.734 161.266V162.218H515.358V161.266H517.507V154.427C517.507 154.221 517.514 154.014 517.528 153.804L515.743 155.337C515.682 155.388 515.621 155.421 515.561 155.435C515.5 155.444 515.444 155.444 515.393 155.435C515.341 155.425 515.292 155.407 515.246 155.379C515.204 155.351 515.171 155.32 515.148 155.288L514.756 154.749L517.745 152.166H518.76V161.266H520.734ZM531.704 157.206C531.704 157.957 531.585 158.641 531.347 159.257C531.109 159.873 530.773 160.4 530.339 160.839C529.905 161.277 529.382 161.618 528.771 161.861C528.164 162.099 527.492 162.218 526.755 162.218H523.01V152.187H526.755C527.492 152.187 528.164 152.308 528.771 152.551C529.382 152.789 529.905 153.129 530.339 153.573C530.773 154.011 531.109 154.539 531.347 155.155C531.585 155.771 531.704 156.454 531.704 157.206ZM530.311 157.206C530.311 156.59 530.227 156.039 530.059 155.554C529.891 155.068 529.653 154.658 529.345 154.322C529.037 153.986 528.663 153.729 528.225 153.552C527.786 153.374 527.296 153.286 526.755 153.286H524.368V161.119H526.755C527.296 161.119 527.786 161.03 528.225 160.853C528.663 160.675 529.037 160.421 529.345 160.09C529.653 159.754 529.891 159.343 530.059 158.858C530.227 158.372 530.311 157.822 530.311 157.206Z" fill="black"/>
<path d="M631.717 135.66C632.159 135.66 632.541 135.609 632.861 135.508C633.181 135.406 633.442 135.265 633.645 135.084C633.853 134.897 634.005 134.678 634.101 134.428C634.197 134.172 634.245 133.892 634.245 133.588C634.245 132.996 634.034 132.529 633.613 132.188C633.191 131.841 632.559 131.668 631.717 131.668H629.237V135.66H631.717ZM629.237 126.652V130.564H631.285C631.722 130.564 632.101 130.516 632.421 130.42C632.746 130.324 633.013 130.19 633.221 130.02C633.434 129.849 633.591 129.644 633.693 129.404C633.794 129.158 633.845 128.892 633.845 128.604C633.845 127.926 633.642 127.433 633.237 127.124C632.831 126.809 632.202 126.652 631.349 126.652H629.237ZM631.349 125.428C632.053 125.428 632.658 125.497 633.165 125.636C633.677 125.774 634.095 125.972 634.421 126.228C634.751 126.484 634.994 126.798 635.149 127.172C635.303 127.54 635.381 127.956 635.381 128.42C635.381 128.702 635.335 128.974 635.245 129.236C635.159 129.492 635.029 129.732 634.853 129.956C634.677 130.18 634.453 130.382 634.181 130.564C633.914 130.74 633.599 130.884 633.237 130.996C634.079 131.156 634.711 131.457 635.133 131.9C635.559 132.337 635.773 132.913 635.773 133.628C635.773 134.113 635.682 134.556 635.501 134.956C635.325 135.356 635.063 135.7 634.717 135.988C634.375 136.276 633.954 136.5 633.453 136.66C632.951 136.814 632.381 136.892 631.741 136.892H627.693V125.428H631.349ZM639.016 125.108V136.892H637.592V125.108H639.016ZM645.717 133.244C645.061 133.265 644.501 133.318 644.037 133.404C643.579 133.484 643.203 133.59 642.909 133.724C642.621 133.857 642.411 134.014 642.277 134.196C642.149 134.377 642.085 134.58 642.085 134.804C642.085 135.017 642.12 135.201 642.189 135.356C642.259 135.51 642.352 135.638 642.469 135.74C642.592 135.836 642.733 135.908 642.893 135.956C643.059 135.998 643.235 136.02 643.421 136.02C643.672 136.02 643.901 135.996 644.109 135.948C644.317 135.894 644.512 135.82 644.693 135.724C644.88 135.628 645.056 135.513 645.221 135.38C645.392 135.246 645.557 135.094 645.717 134.924V133.244ZM641.117 129.932C641.565 129.5 642.048 129.177 642.565 128.964C643.083 128.75 643.656 128.644 644.285 128.644C644.739 128.644 645.141 128.718 645.493 128.868C645.845 129.017 646.141 129.225 646.381 129.492C646.621 129.758 646.803 130.081 646.925 130.46C647.048 130.838 647.109 131.254 647.109 131.708V136.892H646.477C646.339 136.892 646.232 136.87 646.157 136.828C646.083 136.78 646.024 136.689 645.981 136.556L645.821 135.788C645.608 135.985 645.4 136.161 645.197 136.316C644.995 136.465 644.781 136.593 644.557 136.7C644.333 136.801 644.093 136.878 643.837 136.932C643.587 136.99 643.307 137.02 642.997 137.02C642.683 137.02 642.387 136.977 642.109 136.892C641.832 136.801 641.589 136.668 641.381 136.492C641.179 136.316 641.016 136.094 640.893 135.828C640.776 135.556 640.717 135.236 640.717 134.868C640.717 134.548 640.805 134.241 640.981 133.948C641.157 133.649 641.443 133.385 641.837 133.156C642.232 132.926 642.747 132.74 643.381 132.596C644.016 132.446 644.795 132.361 645.717 132.34V131.708C645.717 131.078 645.581 130.604 645.309 130.284C645.037 129.958 644.64 129.796 644.117 129.796C643.765 129.796 643.469 129.841 643.229 129.932C642.995 130.017 642.789 130.116 642.613 130.228C642.443 130.334 642.293 130.433 642.165 130.524C642.043 130.609 641.92 130.652 641.797 130.652C641.701 130.652 641.619 130.628 641.549 130.58C641.48 130.526 641.421 130.462 641.373 130.388L641.117 129.932ZM654.919 130.228C654.876 130.286 654.833 130.332 654.791 130.364C654.748 130.396 654.689 130.412 654.615 130.412C654.535 130.412 654.447 130.38 654.351 130.316C654.255 130.246 654.135 130.172 653.991 130.092C653.852 130.012 653.679 129.94 653.471 129.876C653.268 129.806 653.017 129.772 652.719 129.772C652.319 129.772 651.967 129.844 651.663 129.988C651.359 130.126 651.103 130.329 650.895 130.596C650.692 130.862 650.537 131.185 650.431 131.564C650.329 131.942 650.279 132.366 650.279 132.836C650.279 133.326 650.335 133.764 650.447 134.148C650.559 134.526 650.716 134.846 650.919 135.108C651.127 135.364 651.375 135.561 651.663 135.7C651.956 135.833 652.284 135.9 652.647 135.9C652.993 135.9 653.279 135.86 653.503 135.78C653.727 135.694 653.911 135.601 654.055 135.5C654.204 135.398 654.327 135.308 654.423 135.228C654.524 135.142 654.623 135.1 654.719 135.1C654.836 135.1 654.927 135.145 654.991 135.236L655.391 135.756C655.215 135.974 655.015 136.161 654.791 136.316C654.567 136.47 654.324 136.601 654.063 136.708C653.807 136.809 653.537 136.884 653.255 136.932C652.972 136.98 652.684 137.004 652.391 137.004C651.884 137.004 651.412 136.91 650.975 136.724C650.543 136.537 650.167 136.268 649.847 135.916C649.527 135.558 649.276 135.121 649.095 134.604C648.913 134.086 648.823 133.497 648.823 132.836C648.823 132.233 648.905 131.676 649.071 131.164C649.241 130.652 649.487 130.212 649.807 129.844C650.132 129.47 650.529 129.18 650.999 128.972C651.473 128.764 652.017 128.66 652.631 128.66C653.201 128.66 653.703 128.753 654.135 128.94C654.572 129.121 654.959 129.38 655.295 129.716L654.919 130.228ZM658.351 125.108V132.044H658.719C658.826 132.044 658.914 132.03 658.983 132.004C659.058 131.972 659.135 131.91 659.215 131.82L661.775 129.076C661.85 128.985 661.927 128.916 662.007 128.868C662.093 128.814 662.205 128.788 662.343 128.788H663.631L660.647 131.964C660.503 132.145 660.349 132.286 660.183 132.388C660.279 132.452 660.365 132.526 660.439 132.612C660.519 132.692 660.594 132.785 660.663 132.892L663.831 136.892H662.559C662.437 136.892 662.33 136.873 662.239 136.836C662.154 136.793 662.079 136.718 662.015 136.612L659.351 133.292C659.271 133.18 659.191 133.108 659.111 133.076C659.037 133.038 658.919 133.02 658.759 133.02H658.351V136.892H656.919V125.108H658.351ZM621.759 153.732H620.03L619.575 156.014H621.304L621.759 153.732ZM624.405 152.815L624.314 153.34C624.29 153.475 624.234 153.575 624.146 153.641C624.062 153.701 623.931 153.732 623.754 153.732H622.788L622.333 156.014H623.586C623.721 156.014 623.817 156.053 623.873 156.133C623.933 156.207 623.95 156.34 623.922 156.532L623.859 156.931H622.2L621.612 159.892H621.045C620.984 159.892 620.928 159.878 620.877 159.85C620.825 159.822 620.781 159.784 620.744 159.738C620.711 159.691 620.688 159.635 620.674 159.57C620.66 159.504 620.66 159.432 620.674 159.353L621.171 156.931H619.442L618.945 159.416C618.917 159.588 618.849 159.712 618.742 159.787C618.634 159.857 618.513 159.892 618.378 159.892H617.818L618.413 156.931H617.391C617.26 156.931 617.164 156.893 617.104 156.819C617.048 156.739 617.034 156.604 617.062 156.413L617.118 156.014H618.546L619.001 153.732H617.377L617.468 153.214C617.491 153.078 617.545 152.978 617.629 152.913C617.717 152.847 617.85 152.815 618.028 152.815H619.134L619.638 150.309C619.666 150.169 619.729 150.059 619.827 149.98C619.929 149.9 620.051 149.861 620.191 149.861H620.751L620.163 152.815H621.892L622.48 149.861H623.033C623.168 149.861 623.273 149.905 623.348 149.994C623.427 150.082 623.455 150.194 623.432 150.33L622.921 152.815H624.405ZM632.47 154.88C632.47 155.757 632.374 156.518 632.183 157.162C631.996 157.801 631.739 158.331 631.413 158.751C631.086 159.171 630.699 159.483 630.251 159.689C629.807 159.894 629.331 159.997 628.823 159.997C628.309 159.997 627.831 159.894 627.388 159.689C626.949 159.483 626.566 159.171 626.24 158.751C625.913 158.331 625.656 157.801 625.47 157.162C625.283 156.518 625.19 155.757 625.19 154.88C625.19 154.002 625.283 153.242 625.47 152.598C625.656 151.954 625.913 151.422 626.24 151.002C626.566 150.577 626.949 150.262 627.388 150.057C627.831 149.851 628.309 149.749 628.823 149.749C629.331 149.749 629.807 149.851 630.251 150.057C630.699 150.262 631.086 150.577 631.413 151.002C631.739 151.422 631.996 151.954 632.183 152.598C632.374 153.242 632.47 154.002 632.47 154.88ZM631.175 154.88C631.175 154.114 631.109 153.473 630.979 152.955C630.853 152.432 630.68 152.012 630.461 151.695C630.246 151.377 629.996 151.151 629.712 151.016C629.427 150.876 629.131 150.806 628.823 150.806C628.515 150.806 628.218 150.876 627.934 151.016C627.649 151.151 627.399 151.377 627.185 151.695C626.97 152.012 626.797 152.432 626.667 152.955C626.541 153.473 626.478 154.114 626.478 154.88C626.478 155.645 626.541 156.287 626.667 156.805C626.797 157.323 626.97 157.74 627.185 158.058C627.399 158.375 627.649 158.604 627.934 158.744C628.218 158.879 628.515 158.947 628.823 158.947C629.131 158.947 629.427 158.879 629.712 158.744C629.996 158.604 630.246 158.375 630.461 158.058C630.68 157.74 630.853 157.323 630.979 156.805C631.109 156.287 631.175 155.645 631.175 154.88ZM640.591 154.88C640.591 155.757 640.495 156.518 640.304 157.162C640.117 157.801 639.86 158.331 639.534 158.751C639.207 159.171 638.82 159.483 638.372 159.689C637.928 159.894 637.452 159.997 636.944 159.997C636.43 159.997 635.952 159.894 635.509 159.689C635.07 159.483 634.687 159.171 634.361 158.751C634.034 158.331 633.777 157.801 633.591 157.162C633.404 156.518 633.311 155.757 633.311 154.88C633.311 154.002 633.404 153.242 633.591 152.598C633.777 151.954 634.034 151.422 634.361 151.002C634.687 150.577 635.07 150.262 635.509 150.057C635.952 149.851 636.43 149.749 636.944 149.749C637.452 149.749 637.928 149.851 638.372 150.057C638.82 150.262 639.207 150.577 639.534 151.002C639.86 151.422 640.117 151.954 640.304 152.598C640.495 153.242 640.591 154.002 640.591 154.88ZM639.296 154.88C639.296 154.114 639.23 153.473 639.1 152.955C638.974 152.432 638.801 152.012 638.582 151.695C638.367 151.377 638.117 151.151 637.833 151.016C637.548 150.876 637.252 150.806 636.944 150.806C636.636 150.806 636.339 150.876 636.055 151.016C635.77 151.151 635.52 151.377 635.306 151.695C635.091 152.012 634.918 152.432 634.788 152.955C634.662 153.473 634.599 154.114 634.599 154.88C634.599 155.645 634.662 156.287 634.788 156.805C634.918 157.323 635.091 157.74 635.306 158.058C635.52 158.375 635.77 158.604 636.055 158.744C636.339 158.879 636.636 158.947 636.944 158.947C637.252 158.947 637.548 158.879 637.833 158.744C638.117 158.604 638.367 158.375 638.582 158.058C638.801 157.74 638.974 157.323 639.1 156.805C639.23 156.287 639.296 155.645 639.296 154.88ZM648.712 154.88C648.712 155.757 648.616 156.518 648.425 157.162C648.238 157.801 647.982 158.331 647.655 158.751C647.328 159.171 646.941 159.483 646.493 159.689C646.05 159.894 645.574 159.997 645.065 159.997C644.552 159.997 644.073 159.894 643.63 159.689C643.191 159.483 642.809 159.171 642.482 158.751C642.155 158.331 641.899 157.801 641.712 157.162C641.525 156.518 641.432 155.757 641.432 154.88C641.432 154.002 641.525 153.242 641.712 152.598C641.899 151.954 642.155 151.422 642.482 151.002C642.809 150.577 643.191 150.262 643.63 150.057C644.073 149.851 644.552 149.749 645.065 149.749C645.574 149.749 646.05 149.851 646.493 150.057C646.941 150.262 647.328 150.577 647.655 151.002C647.982 151.422 648.238 151.954 648.425 152.598C648.616 153.242 648.712 154.002 648.712 154.88ZM647.417 154.88C647.417 154.114 647.352 153.473 647.221 152.955C647.095 152.432 646.922 152.012 646.703 151.695C646.488 151.377 646.239 151.151 645.954 151.016C645.669 150.876 645.373 150.806 645.065 150.806C644.757 150.806 644.461 150.876 644.176 151.016C643.891 151.151 643.642 151.377 643.427 151.695C643.212 152.012 643.04 152.432 642.909 152.955C642.783 153.473 642.72 154.114 642.72 154.88C642.72 155.645 642.783 156.287 642.909 156.805C643.04 157.323 643.212 157.74 643.427 158.058C643.642 158.375 643.891 158.604 644.176 158.744C644.461 158.879 644.757 158.947 645.065 158.947C645.373 158.947 645.669 158.879 645.954 158.744C646.239 158.604 646.488 158.375 646.703 158.058C646.922 157.74 647.095 157.323 647.221 156.805C647.352 156.287 647.417 155.645 647.417 154.88ZM656.833 154.88C656.833 155.757 656.737 156.518 656.546 157.162C656.359 157.801 656.103 158.331 655.776 158.751C655.449 159.171 655.062 159.483 654.614 159.689C654.171 159.894 653.695 159.997 653.186 159.997C652.673 159.997 652.194 159.894 651.751 159.689C651.312 159.483 650.93 159.171 650.603 158.751C650.276 158.331 650.02 157.801 649.833 157.162C649.646 156.518 649.553 155.757 649.553 154.88C649.553 154.002 649.646 153.242 649.833 152.598C650.02 151.954 650.276 151.422 650.603 151.002C650.93 150.577 651.312 150.262 651.751 150.057C652.194 149.851 652.673 149.749 653.186 149.749C653.695 149.749 654.171 149.851 654.614 150.057C655.062 150.262 655.449 150.577 655.776 151.002C656.103 151.422 656.359 151.954 656.546 152.598C656.737 153.242 656.833 154.002 656.833 154.88ZM655.538 154.88C655.538 154.114 655.473 153.473 655.342 152.955C655.216 152.432 655.043 152.012 654.824 151.695C654.609 151.377 654.36 151.151 654.075 151.016C653.79 150.876 653.494 150.806 653.186 150.806C652.878 150.806 652.582 150.876 652.297 151.016C652.012 151.151 651.763 151.377 651.548 151.695C651.333 152.012 651.161 152.432 651.03 152.955C650.904 153.473 650.841 154.114 650.841 154.88C650.841 155.645 650.904 156.287 651.03 156.805C651.161 157.323 651.333 157.74 651.548 158.058C651.763 158.375 652.012 158.604 652.297 158.744C652.582 158.879 652.878 158.947 653.186 158.947C653.494 158.947 653.79 158.879 654.075 158.744C654.36 158.604 654.609 158.375 654.824 158.058C655.043 157.74 655.216 157.323 655.342 156.805C655.473 156.287 655.538 155.645 655.538 154.88ZM664.954 154.88C664.954 155.757 664.858 156.518 664.667 157.162C664.48 157.801 664.224 158.331 663.897 158.751C663.57 159.171 663.183 159.483 662.735 159.689C662.292 159.894 661.816 159.997 661.307 159.997C660.794 159.997 660.315 159.894 659.872 159.689C659.433 159.483 659.051 159.171 658.724 158.751C658.397 158.331 658.141 157.801 657.954 157.162C657.767 156.518 657.674 155.757 657.674 154.88C657.674 154.002 657.767 153.242 657.954 152.598C658.141 151.954 658.397 151.422 658.724 151.002C659.051 150.577 659.433 150.262 659.872 150.057C660.315 149.851 660.794 149.749 661.307 149.749C661.816 149.749 662.292 149.851 662.735 150.057C663.183 150.262 663.57 150.577 663.897 151.002C664.224 151.422 664.48 151.954 664.667 152.598C664.858 153.242 664.954 154.002 664.954 154.88ZM663.659 154.88C663.659 154.114 663.594 153.473 663.463 152.955C663.337 152.432 663.164 152.012 662.945 151.695C662.73 151.377 662.481 151.151 662.196 151.016C661.911 150.876 661.615 150.806 661.307 150.806C660.999 150.806 660.703 150.876 660.418 151.016C660.133 151.151 659.884 151.377 659.669 151.695C659.454 152.012 659.282 152.432 659.151 152.955C659.025 153.473 658.962 154.114 658.962 154.88C658.962 155.645 659.025 156.287 659.151 156.805C659.282 157.323 659.454 157.74 659.669 158.058C659.884 158.375 660.133 158.604 660.418 158.744C660.703 158.879 660.999 158.947 661.307 158.947C661.615 158.947 661.911 158.879 662.196 158.744C662.481 158.604 662.73 158.375 662.945 158.058C663.164 157.74 663.337 157.323 663.463 156.805C663.594 156.287 663.659 155.645 663.659 154.88ZM673.075 154.88C673.075 155.757 672.979 156.518 672.788 157.162C672.601 157.801 672.345 158.331 672.018 158.751C671.691 159.171 671.304 159.483 670.856 159.689C670.413 159.894 669.937 159.997 669.428 159.997C668.915 159.997 668.436 159.894 667.993 159.689C667.554 159.483 667.172 159.171 666.845 158.751C666.518 158.331 666.262 157.801 666.075 157.162C665.888 156.518 665.795 155.757 665.795 154.88C665.795 154.002 665.888 153.242 666.075 152.598C666.262 151.954 666.518 151.422 666.845 151.002C667.172 150.577 667.554 150.262 667.993 150.057C668.436 149.851 668.915 149.749 669.428 149.749C669.937 149.749 670.413 149.851 670.856 150.057C671.304 150.262 671.691 150.577 672.018 151.002C672.345 151.422 672.601 151.954 672.788 152.598C672.979 153.242 673.075 154.002 673.075 154.88ZM671.78 154.88C671.78 154.114 671.715 153.473 671.584 152.955C671.458 152.432 671.285 152.012 671.066 151.695C670.851 151.377 670.602 151.151 670.317 151.016C670.032 150.876 669.736 150.806 669.428 150.806C669.12 150.806 668.824 150.876 668.539 151.016C668.254 151.151 668.005 151.377 667.79 151.695C667.575 152.012 667.403 152.432 667.272 152.955C667.146 153.473 667.083 154.114 667.083 154.88C667.083 155.645 667.146 156.287 667.272 156.805C667.403 157.323 667.575 157.74 667.79 158.058C668.005 158.375 668.254 158.604 668.539 158.744C668.824 158.879 669.12 158.947 669.428 158.947C669.736 158.947 670.032 158.879 670.317 158.744C670.602 158.604 670.851 158.375 671.066 158.058C671.285 157.74 671.458 157.323 671.584 156.805C671.715 156.287 671.78 155.645 671.78 154.88Z" fill="black"/>
</svg>
