<svg width="1022" height="232" viewBox="0 0 1022 232" fill="none" xmlns="http://www.w3.org/2000/svg">
<rect x="0.5" y="99.5464" width="109.877" height="38.2615" rx="19.1308" fill="#E9E9E9" stroke="#ABABAB"/>
<path d="M28.0029 119.238H24.499V121.863H28.5947V123.046H23.0166V114.515H28.5537V115.71H24.499V118.066H28.0029V119.238ZM31.9638 121.242L33.3056 116.707H34.7763L32.579 123.046H31.3427L29.1278 116.707H30.6044L31.9638 121.242ZM38.5964 123.164C37.6941 123.164 36.9617 122.88 36.3992 122.314C35.8406 121.744 35.5613 120.986 35.5613 120.041V119.865C35.5613 119.232 35.6824 118.667 35.9246 118.171C36.1707 117.671 36.5144 117.283 36.9558 117.005C37.3972 116.728 37.8894 116.589 38.4324 116.589C39.2957 116.589 39.9617 116.865 40.4304 117.416C40.9031 117.966 41.1394 118.746 41.1394 119.753V120.328H36.9968C37.0398 120.851 37.2136 121.265 37.5183 121.57C37.8269 121.875 38.2136 122.027 38.6785 122.027C39.3308 122.027 39.8621 121.763 40.2722 121.236L41.0398 121.968C40.7859 122.347 40.446 122.642 40.0203 122.853C39.5984 123.06 39.1238 123.164 38.5964 123.164ZM38.4265 117.732C38.0359 117.732 37.7195 117.869 37.4773 118.142C37.239 118.416 37.0867 118.796 37.0203 119.285H39.7332V119.179C39.7019 118.703 39.575 118.343 39.3523 118.101C39.1296 117.855 38.821 117.732 38.4265 117.732ZM43.7877 116.707L43.8287 117.439C44.2975 116.873 44.9127 116.589 45.6744 116.589C46.9947 116.589 47.6666 117.345 47.6901 118.857V123.046H46.2662V118.939C46.2662 118.537 46.1783 118.24 46.0026 118.048C45.8307 117.853 45.5475 117.755 45.1529 117.755C44.5787 117.755 44.151 118.015 43.8697 118.535V123.046H42.4459V116.707H43.7877ZM51.147 115.166V116.707H52.2661V117.761H51.147V121.3C51.147 121.542 51.1938 121.718 51.2876 121.828C51.3852 121.933 51.5571 121.986 51.8032 121.986C51.9673 121.986 52.1333 121.966 52.3013 121.927V123.029C51.977 123.119 51.6645 123.164 51.3638 123.164C50.27 123.164 49.7231 122.56 49.7231 121.353V117.761H48.6802V116.707H49.7231V115.166H51.147ZM57.2815 123.046V117.761H56.3147V116.707H57.2815V116.126C57.2815 115.423 57.4768 114.88 57.8674 114.498C58.258 114.115 58.8049 113.923 59.508 113.923C59.758 113.923 60.0237 113.958 60.3049 114.029L60.2697 115.142C60.1135 115.111 59.9319 115.095 59.7248 115.095C59.0451 115.095 58.7053 115.445 58.7053 116.144V116.707H59.9944V117.761H58.7053V123.046H57.2815ZM60.9845 119.818C60.9845 119.197 61.1075 118.638 61.3536 118.142C61.5997 117.642 61.9454 117.259 62.3907 116.994C62.836 116.724 63.3477 116.589 63.9259 116.589C64.7813 116.589 65.4747 116.865 66.0059 117.416C66.5411 117.966 66.8302 118.697 66.8731 119.607L66.879 119.941C66.879 120.566 66.7579 121.125 66.5157 121.617C66.2774 122.109 65.9337 122.49 65.4845 122.759C65.0391 123.029 64.5235 123.164 63.9376 123.164C63.0431 123.164 62.3263 122.867 61.7872 122.273C61.252 121.675 60.9845 120.88 60.9845 119.888V119.818ZM62.4083 119.941C62.4083 120.593 62.5431 121.105 62.8126 121.476C63.0821 121.843 63.4571 122.027 63.9376 122.027C64.4181 122.027 64.7911 121.839 65.0567 121.464C65.3263 121.089 65.461 120.541 65.461 119.818C65.461 119.177 65.3223 118.669 65.045 118.294C64.7716 117.919 64.3985 117.732 63.9259 117.732C63.461 117.732 63.0919 117.917 62.8184 118.289C62.545 118.656 62.4083 119.207 62.4083 119.941ZM69.8144 123.046H68.3906V114.046H69.8144V123.046ZM71.3201 119.83C71.3201 118.853 71.5467 118.07 71.9998 117.48C72.4529 116.886 73.0604 116.589 73.8221 116.589C74.494 116.589 75.0369 116.824 75.451 117.292V114.046H76.8748V123.046H75.5858L75.5154 122.39C75.0897 122.906 74.5213 123.164 73.8104 123.164C73.0682 123.164 72.4666 122.865 72.0057 122.267C71.5487 121.669 71.3201 120.857 71.3201 119.83ZM72.744 119.953C72.744 120.597 72.867 121.101 73.1131 121.464C73.3631 121.824 73.7166 122.003 74.1737 122.003C74.7557 122.003 75.1815 121.744 75.451 121.224V118.517C75.1893 118.009 74.7674 117.755 74.1854 117.755C73.7244 117.755 73.369 117.939 73.119 118.306C72.869 118.669 72.744 119.218 72.744 119.953ZM81.3688 123.164C80.4665 123.164 79.7341 122.88 79.1716 122.314C78.613 121.744 78.3337 120.986 78.3337 120.041V119.865C78.3337 119.232 78.4548 118.667 78.697 118.171C78.9431 117.671 79.2868 117.283 79.7282 117.005C80.1696 116.728 80.6618 116.589 81.2048 116.589C82.0681 116.589 82.7341 116.865 83.2028 117.416C83.6755 117.966 83.9118 118.746 83.9118 119.753V120.328H79.7692C79.8122 120.851 79.986 121.265 80.2907 121.57C80.5993 121.875 80.986 122.027 81.4509 122.027C82.1032 122.027 82.6345 121.763 83.0446 121.236L83.8122 121.968C83.5583 122.347 83.2184 122.642 82.7927 122.853C82.3708 123.06 81.8962 123.164 81.3688 123.164ZM81.1989 117.732C80.8083 117.732 80.4919 117.869 80.2497 118.142C80.0114 118.416 79.8591 118.796 79.7927 119.285H82.5056V119.179C82.4743 118.703 82.3474 118.343 82.1247 118.101C81.902 117.855 81.5934 117.732 81.1989 117.732ZM88.5582 118.007C88.3707 117.976 88.1773 117.96 87.9781 117.96C87.3257 117.96 86.8863 118.21 86.6597 118.71V123.046H85.2359V116.707H86.5953L86.6304 117.416C86.9742 116.865 87.4507 116.589 88.0601 116.589C88.2632 116.589 88.4312 116.617 88.564 116.671L88.5582 118.007Z" fill="#383838"/>
<rect x="911.623" y="75.4536" width="109.877" height="39.1538" rx="19.5769" fill="#E9E9E9" stroke="#ABABAB"/>
<path d="M951.86 98.9536H950.378L946.575 92.9009V98.9536H945.093V90.4224H946.575L950.39 96.4985V90.4224H951.86V98.9536ZM956.483 99.0708C955.581 99.0708 954.849 98.7876 954.286 98.2212C953.727 97.6509 953.448 96.8931 953.448 95.9478V95.772C953.448 95.1392 953.569 94.5747 953.811 94.0786C954.058 93.5786 954.401 93.1899 954.843 92.9126C955.284 92.6353 955.776 92.4966 956.319 92.4966C957.183 92.4966 957.849 92.772 958.317 93.3228C958.79 93.8735 959.026 94.6528 959.026 95.6606V96.2349H954.884C954.927 96.7583 955.101 97.1724 955.405 97.4771C955.714 97.7817 956.101 97.9341 956.565 97.9341C957.218 97.9341 957.749 97.6704 958.159 97.1431L958.927 97.8755C958.673 98.2544 958.333 98.5493 957.907 98.7603C957.485 98.9673 957.011 99.0708 956.483 99.0708ZM956.313 93.6392C955.923 93.6392 955.606 93.7759 955.364 94.0493C955.126 94.3228 954.974 94.7036 954.907 95.1919H957.62V95.0864C957.589 94.6099 957.462 94.2505 957.239 94.0083C957.017 93.7622 956.708 93.6392 956.313 93.6392ZM965.923 96.9907L966.93 92.6138H968.319L966.591 98.9536H965.419L964.059 94.6001L962.723 98.9536H961.552L959.817 92.6138H961.206L962.231 96.9438L963.532 92.6138H964.604L965.923 96.9907ZM973.071 98.9536V93.6685H972.104V92.6138H973.071V92.1802C973.075 91.6841 973.18 91.2583 973.387 90.9028C973.594 90.5474 973.887 90.2798 974.266 90.1001C974.645 89.9204 975.1 89.8306 975.631 89.8306C975.944 89.8306 976.243 89.8638 976.528 89.9302C976.817 89.9966 977.116 90.0806 977.424 90.1821L977.208 91.3599C976.668 91.1724 976.176 91.0786 975.731 91.0786C975.297 91.0786 974.983 91.1743 974.788 91.3657C974.592 91.5532 974.495 91.8364 974.495 92.2153V92.6138H975.743V93.6685H974.495V98.9536H973.071ZM978.098 98.9536H976.674V92.6138H978.098V98.9536ZM981.409 98.9536H979.985V89.9536H981.409V98.9536ZM985.973 99.0708C985.071 99.0708 984.338 98.7876 983.776 98.2212C983.217 97.6509 982.938 96.8931 982.938 95.9478V95.772C982.938 95.1392 983.059 94.5747 983.301 94.0786C983.547 93.5786 983.891 93.1899 984.332 92.9126C984.774 92.6353 985.266 92.4966 985.809 92.4966C986.672 92.4966 987.338 92.772 987.807 93.3228C988.28 93.8735 988.516 94.6528 988.516 95.6606V96.2349H984.373C984.416 96.7583 984.59 97.1724 984.895 97.4771C985.203 97.7817 985.59 97.9341 986.055 97.9341C986.707 97.9341 987.239 97.6704 987.649 97.1431L988.416 97.8755C988.162 98.2544 987.823 98.5493 987.397 98.7603C986.975 98.9673 986.5 99.0708 985.973 99.0708ZM985.803 93.6392C985.412 93.6392 985.096 93.7759 984.854 94.0493C984.615 94.3228 984.463 94.7036 984.397 95.1919H987.11V95.0864C987.078 94.6099 986.951 94.2505 986.729 94.0083C986.506 93.7622 986.198 93.6392 985.803 93.6392Z" fill="#383838"/>
<rect x="0.744455" width="61.8129" height="61.8129" rx="4.5" transform="matrix(0.744455 -0.667673 0.744455 0.667673 217.124 119.174)" fill="#E9E9E9" stroke="#ABABAB"/>
<path d="M246.54 112.917C246.461 113.751 246.153 114.403 245.616 114.872C245.079 115.337 244.364 115.57 243.473 115.57C242.85 115.57 242.3 115.423 241.824 115.129C241.351 114.832 240.986 114.411 240.728 113.867C240.47 113.323 240.336 112.691 240.325 111.971V111.241C240.325 110.503 240.456 109.853 240.717 109.291C240.979 108.729 241.353 108.296 241.84 107.991C242.33 107.687 242.896 107.535 243.537 107.535C244.4 107.535 245.095 107.769 245.621 108.238C246.147 108.707 246.454 109.37 246.54 110.226H245.186C245.122 109.663 244.957 109.259 244.692 109.012C244.431 108.761 244.046 108.636 243.537 108.636C242.946 108.636 242.492 108.852 242.173 109.286C241.858 109.715 241.697 110.347 241.689 111.182V111.875C241.689 112.72 241.84 113.364 242.141 113.808C242.445 114.252 242.889 114.474 243.473 114.474C244.006 114.474 244.407 114.354 244.676 114.114C244.944 113.874 245.114 113.475 245.186 112.917H246.54ZM250.859 110.843C250.687 110.815 250.51 110.8 250.327 110.8C249.729 110.8 249.326 111.029 249.118 111.488V115.462H247.813V109.651H249.059L249.092 110.301C249.407 109.796 249.843 109.543 250.402 109.543C250.588 109.543 250.742 109.569 250.864 109.619L250.859 110.843ZM254.318 115.57C253.491 115.57 252.82 115.31 252.304 114.791C251.792 114.268 251.536 113.574 251.536 112.707V112.546C251.536 111.966 251.647 111.448 251.869 110.994C252.095 110.535 252.41 110.179 252.814 109.925C253.219 109.671 253.67 109.543 254.168 109.543C254.959 109.543 255.57 109.796 255.999 110.301C256.433 110.806 256.649 111.52 256.649 112.444V112.97H252.852C252.891 113.45 253.051 113.83 253.33 114.109C253.613 114.388 253.967 114.528 254.394 114.528C254.992 114.528 255.478 114.286 255.854 113.803L256.558 114.474C256.325 114.821 256.014 115.092 255.624 115.285C255.237 115.475 254.802 115.57 254.318 115.57ZM254.163 110.591C253.804 110.591 253.514 110.716 253.292 110.967C253.074 111.217 252.934 111.567 252.874 112.014H255.36V111.917C255.332 111.481 255.215 111.151 255.011 110.929C254.807 110.704 254.524 110.591 254.163 110.591ZM261.323 115.462C261.266 115.351 261.216 115.171 261.173 114.92C260.757 115.353 260.249 115.57 259.647 115.57C259.064 115.57 258.587 115.403 258.218 115.07C257.85 114.737 257.665 114.326 257.665 113.835C257.665 113.215 257.894 112.741 258.353 112.412C258.815 112.079 259.474 111.912 260.329 111.912H261.13V111.531C261.13 111.23 261.045 110.99 260.877 110.811C260.709 110.628 260.453 110.537 260.109 110.537C259.812 110.537 259.568 110.612 259.379 110.763C259.189 110.91 259.094 111.097 259.094 111.327H257.789C257.789 111.008 257.894 110.711 258.106 110.435C258.317 110.156 258.603 109.937 258.965 109.78C259.33 109.622 259.737 109.543 260.184 109.543C260.865 109.543 261.407 109.715 261.812 110.059C262.216 110.399 262.424 110.879 262.435 111.499V114.12C262.435 114.642 262.508 115.06 262.655 115.371V115.462H261.323ZM259.889 114.522C260.147 114.522 260.388 114.46 260.614 114.334C260.843 114.209 261.015 114.041 261.13 113.83V112.734H260.426C259.943 112.734 259.579 112.818 259.336 112.986C259.092 113.155 258.97 113.393 258.97 113.701C258.97 113.951 259.053 114.152 259.217 114.302C259.386 114.449 259.61 114.522 259.889 114.522ZM265.621 108.238V109.651H266.646V110.618H265.621V113.862C265.621 114.084 265.664 114.245 265.749 114.345C265.839 114.442 265.997 114.49 266.222 114.49C266.372 114.49 266.525 114.472 266.679 114.437V115.446C266.381 115.529 266.095 115.57 265.819 115.57C264.817 115.57 264.315 115.017 264.315 113.91V110.618H263.359V109.651H264.315V108.238H265.621ZM270.391 115.57C269.564 115.57 268.892 115.31 268.377 114.791C267.865 114.268 267.609 113.574 267.609 112.707V112.546C267.609 111.966 267.72 111.448 267.942 110.994C268.167 110.535 268.482 110.179 268.887 109.925C269.292 109.671 269.743 109.543 270.24 109.543C271.032 109.543 271.642 109.796 272.072 110.301C272.505 110.806 272.722 111.52 272.722 112.444V112.97H268.924C268.964 113.45 269.123 113.83 269.403 114.109C269.685 114.388 270.04 114.528 270.466 114.528C271.064 114.528 271.551 114.286 271.927 113.803L272.631 114.474C272.398 114.821 272.086 115.092 271.696 115.285C271.309 115.475 270.874 115.57 270.391 115.57ZM270.235 110.591C269.877 110.591 269.587 110.716 269.365 110.967C269.146 111.217 269.007 111.567 268.946 112.014H271.433V111.917C271.404 111.481 271.288 111.151 271.084 110.929C270.88 110.704 270.597 110.591 270.235 110.591ZM276.601 112.503C276.601 111.934 276.714 111.422 276.94 110.967C277.165 110.508 277.482 110.158 277.89 109.914C278.298 109.667 278.768 109.543 279.297 109.543C280.082 109.543 280.717 109.796 281.204 110.301C281.695 110.806 281.96 111.475 281.999 112.31L282.005 112.616C282.005 113.189 281.894 113.701 281.672 114.152C281.453 114.603 281.138 114.952 280.726 115.199C280.318 115.446 279.845 115.57 279.308 115.57C278.488 115.57 277.831 115.298 277.337 114.753C276.846 114.206 276.601 113.477 276.601 112.567V112.503ZM277.906 112.616C277.906 113.214 278.03 113.683 278.277 114.023C278.524 114.36 278.868 114.528 279.308 114.528C279.749 114.528 280.091 114.356 280.334 114.012C280.581 113.668 280.705 113.165 280.705 112.503C280.705 111.916 280.578 111.45 280.323 111.106C280.073 110.763 279.731 110.591 279.297 110.591C278.871 110.591 278.533 110.761 278.282 111.101C278.032 111.438 277.906 111.943 277.906 112.616ZM286.334 110.843C286.162 110.815 285.985 110.8 285.803 110.8C285.205 110.8 284.802 111.029 284.594 111.488V115.462H283.289V109.651H284.535L284.567 110.301C284.882 109.796 285.319 109.543 285.878 109.543C286.064 109.543 286.218 109.569 286.34 109.619L286.334 110.843ZM247.416 127.893C247.033 128.344 246.489 128.57 245.783 128.57C245.153 128.57 244.675 128.385 244.349 128.017C244.027 127.648 243.866 127.114 243.866 126.416V122.651H245.171V126.4C245.171 127.138 245.477 127.506 246.089 127.506C246.723 127.506 247.151 127.279 247.373 126.824V122.651H248.678V128.462H247.448L247.416 127.893ZM255.28 125.616C255.28 126.514 255.076 127.232 254.668 127.77C254.26 128.303 253.712 128.57 253.024 128.57C252.387 128.57 251.877 128.36 251.493 127.941V130.697H250.188V122.651H251.391L251.445 123.242C251.828 122.776 252.349 122.543 253.008 122.543C253.717 122.543 254.272 122.808 254.673 123.338C255.078 123.865 255.28 124.597 255.28 125.535V125.616ZM253.98 125.503C253.98 124.923 253.864 124.463 253.631 124.123C253.402 123.782 253.073 123.612 252.643 123.612C252.109 123.612 251.726 123.833 251.493 124.273V126.851C251.73 127.302 252.117 127.528 252.654 127.528C253.069 127.528 253.393 127.361 253.626 127.028C253.862 126.692 253.98 126.183 253.98 125.503ZM257.961 128.462H256.656V120.212H257.961V128.462ZM259.326 125.503C259.326 124.934 259.439 124.422 259.664 123.967C259.89 123.508 260.207 123.158 260.615 122.914C261.023 122.667 261.492 122.543 262.022 122.543C262.806 122.543 263.442 122.796 263.929 123.301C264.42 123.806 264.685 124.475 264.724 125.31L264.729 125.616C264.729 126.189 264.618 126.701 264.396 127.152C264.178 127.603 263.863 127.952 263.451 128.199C263.043 128.446 262.57 128.57 262.033 128.57C261.213 128.57 260.556 128.298 260.062 127.753C259.571 127.206 259.326 126.477 259.326 125.567V125.503ZM260.631 125.616C260.631 126.214 260.755 126.683 261.002 127.023C261.249 127.36 261.593 127.528 262.033 127.528C262.473 127.528 262.815 127.356 263.059 127.012C263.306 126.668 263.429 126.165 263.429 125.503C263.429 124.916 263.302 124.45 263.048 124.106C262.797 123.763 262.456 123.591 262.022 123.591C261.596 123.591 261.258 123.761 261.007 124.101C260.756 124.438 260.631 124.943 260.631 125.616ZM269.489 128.462C269.432 128.351 269.381 128.171 269.338 127.92C268.923 128.353 268.415 128.57 267.813 128.57C267.229 128.57 266.753 128.403 266.384 128.07C266.015 127.737 265.831 127.326 265.831 126.835C265.831 126.215 266.06 125.741 266.519 125.412C266.981 125.079 267.639 124.912 268.495 124.912H269.295V124.531C269.295 124.23 269.211 123.99 269.043 123.811C268.875 123.628 268.619 123.537 268.275 123.537C267.978 123.537 267.734 123.612 267.544 123.763C267.355 123.91 267.26 124.097 267.26 124.327H265.955C265.955 124.008 266.06 123.711 266.272 123.435C266.483 123.156 266.769 122.937 267.131 122.78C267.496 122.622 267.903 122.543 268.35 122.543C269.03 122.543 269.573 122.715 269.978 123.059C270.382 123.399 270.59 123.879 270.601 124.499V127.12C270.601 127.642 270.674 128.06 270.821 128.371V128.462H269.489ZM268.055 127.522C268.313 127.522 268.554 127.46 268.78 127.334C269.009 127.209 269.181 127.041 269.295 126.83V125.734H268.592C268.108 125.734 267.745 125.818 267.501 125.986C267.258 126.155 267.136 126.393 267.136 126.701C267.136 126.951 267.219 127.152 267.383 127.302C267.552 127.449 267.775 127.522 268.055 127.522ZM271.907 125.514C271.907 124.618 272.114 123.901 272.53 123.36C272.945 122.816 273.502 122.543 274.2 122.543C274.816 122.543 275.314 122.758 275.693 123.188V120.212H276.998V128.462H275.817L275.752 127.861C275.362 128.333 274.841 128.57 274.189 128.57C273.509 128.57 272.957 128.296 272.535 127.748C272.116 127.2 271.907 126.455 271.907 125.514ZM273.212 125.626C273.212 126.217 273.324 126.679 273.55 127.012C273.779 127.342 274.103 127.506 274.522 127.506C275.056 127.506 275.446 127.268 275.693 126.792V124.311C275.453 123.845 275.067 123.612 274.533 123.612C274.11 123.612 273.785 123.781 273.555 124.117C273.326 124.45 273.212 124.953 273.212 125.626ZM279.754 126.164C279.754 125.687 279.813 125.308 279.932 125.025C280.05 124.742 280.283 124.432 280.63 124.096C280.981 123.756 281.203 123.514 281.296 123.371C281.439 123.152 281.511 122.916 281.511 122.662C281.511 122.325 281.427 122.069 281.258 121.894C281.094 121.715 280.85 121.625 280.528 121.625C280.22 121.625 279.971 121.713 279.781 121.888C279.595 122.06 279.502 122.295 279.502 122.592H278.197C278.204 121.958 278.419 121.457 278.841 121.088C279.267 120.719 279.83 120.535 280.528 120.535C281.248 120.535 281.808 120.717 282.209 121.083C282.614 121.448 282.816 121.958 282.816 122.613C282.816 123.197 282.544 123.772 282 124.337L281.339 124.987C281.103 125.256 280.981 125.648 280.974 126.164H279.754ZM279.663 127.834C279.663 127.623 279.729 127.453 279.862 127.324C279.994 127.191 280.173 127.125 280.399 127.125C280.628 127.125 280.809 127.193 280.941 127.329C281.074 127.462 281.14 127.63 281.14 127.834C281.14 128.031 281.076 128.196 280.947 128.328C280.818 128.461 280.635 128.527 280.399 128.527C280.163 128.527 279.98 128.461 279.851 128.328C279.726 128.196 279.663 128.031 279.663 127.834Z" fill="#383838"/>
<path d="M629.564 30.6616L382.646 30.6616C377.123 30.6616 372.646 35.1388 372.646 40.6616V195.662C372.646 201.184 377.123 205.662 382.646 205.662H472.02" stroke="#ABABAB"/>
<path d="M373.2 118.662H308.56" stroke="#ABABAB"/>
<path fill-rule="evenodd" clip-rule="evenodd" d="M311.769 121.662C313.538 121.662 314.973 120.318 314.973 118.662C314.973 117.005 313.538 115.662 311.769 115.662C309.999 115.662 308.564 117.005 308.564 118.662C308.564 120.318 309.999 121.662 311.769 121.662Z" fill="white" stroke="#ABABAB"/>
<path fill-rule="evenodd" clip-rule="evenodd" d="M488.585 208.662V202.662L491.789 205.662L488.585 208.662Z" fill="#ABABAB"/>
<path d="M387.064 206.162C387.064 202.848 389.751 200.162 393.064 200.162H426.064C429.378 200.162 432.064 202.848 432.064 206.162C432.064 209.475 429.378 212.162 426.064 212.162H393.064C389.751 212.162 387.064 209.475 387.064 206.162Z" fill="white" stroke="#ABABAB"/>
<path d="M399.268 202.263V206.614C399.265 207.217 399.075 207.711 398.697 208.095C398.322 208.479 397.812 208.694 397.167 208.741L396.943 208.75C396.243 208.75 395.685 208.561 395.269 208.183C394.853 207.805 394.642 207.285 394.636 206.623V202.263H395.471V206.596C395.471 207.059 395.599 207.419 395.853 207.677C396.108 207.932 396.472 208.06 396.943 208.06C397.421 208.06 397.786 207.932 398.038 207.677C398.292 207.422 398.42 207.063 398.42 206.601V202.263H399.268ZM404.639 206.337C404.639 207.061 404.473 207.644 404.142 208.086C403.811 208.528 403.363 208.75 402.797 208.75C402.22 208.75 401.766 208.566 401.435 208.2V210.49H400.622V203.907H401.365L401.404 204.434C401.735 204.024 402.195 203.819 402.784 203.819C403.356 203.819 403.807 204.034 404.138 204.465C404.472 204.896 404.639 205.495 404.639 206.262V206.337ZM403.826 206.245C403.826 205.708 403.711 205.285 403.483 204.975C403.254 204.664 402.941 204.509 402.543 204.509C402.05 204.509 401.681 204.727 401.435 205.164V207.436C401.678 207.869 402.05 208.086 402.551 208.086C402.941 208.086 403.25 207.932 403.479 207.625C403.71 207.314 403.826 206.854 403.826 206.245ZM406.709 208.662H405.896V201.912H406.709V208.662ZM407.949 206.24C407.949 205.774 408.04 205.355 408.221 204.983C408.406 204.611 408.661 204.324 408.986 204.122C409.314 203.92 409.688 203.819 410.107 203.819C410.754 203.819 411.277 204.043 411.676 204.491C412.077 204.939 412.278 205.536 412.278 206.28V206.337C412.278 206.8 412.188 207.216 412.01 207.585C411.834 207.951 411.58 208.237 411.249 208.442C410.921 208.647 410.543 208.75 410.115 208.75C409.471 208.75 408.948 208.525 408.547 208.077C408.148 207.629 407.949 207.036 407.949 206.297V206.24ZM408.766 206.337C408.766 206.864 408.888 207.288 409.131 207.607C409.377 207.926 409.705 208.086 410.115 208.086C410.529 208.086 410.857 207.925 411.1 207.603C411.343 207.277 411.465 206.823 411.465 206.24C411.465 205.719 411.34 205.297 411.091 204.975C410.845 204.649 410.517 204.487 410.107 204.487C409.705 204.487 409.382 204.646 409.135 204.966C408.889 205.285 408.766 205.742 408.766 206.337ZM416.383 208.662C416.336 208.568 416.298 208.401 416.268 208.161C415.89 208.553 415.439 208.75 414.915 208.75C414.446 208.75 414.061 208.618 413.759 208.354C413.46 208.087 413.311 207.75 413.311 207.343C413.311 206.848 413.498 206.464 413.873 206.192C414.251 205.917 414.782 205.779 415.464 205.779H416.255V205.405C416.255 205.121 416.17 204.896 416 204.729C415.83 204.559 415.58 204.474 415.249 204.474C414.959 204.474 414.716 204.547 414.519 204.693C414.323 204.84 414.225 205.017 414.225 205.225H413.408C413.408 204.988 413.491 204.759 413.658 204.54C413.828 204.317 414.056 204.141 414.344 204.012C414.634 203.883 414.952 203.819 415.297 203.819C415.845 203.819 416.274 203.957 416.585 204.232C416.895 204.504 417.056 204.881 417.068 205.361V207.55C417.068 207.986 417.124 208.333 417.235 208.591V208.662H416.383ZM415.034 208.042C415.288 208.042 415.53 207.976 415.759 207.844C415.987 207.712 416.153 207.541 416.255 207.33V206.354H415.618C414.622 206.354 414.124 206.646 414.124 207.229C414.124 207.484 414.209 207.683 414.379 207.827C414.549 207.97 414.767 208.042 415.034 208.042ZM418.295 206.245C418.295 205.515 418.468 204.929 418.813 204.487C419.159 204.042 419.612 203.819 420.171 203.819C420.728 203.819 421.169 204.009 421.494 204.39V201.912H422.307V208.662H421.56L421.52 208.152C421.195 208.55 420.743 208.75 420.163 208.75C419.612 208.75 419.162 208.524 418.813 208.073C418.468 207.622 418.295 207.033 418.295 206.306V206.245ZM419.108 206.337C419.108 206.876 419.219 207.298 419.442 207.603C419.665 207.907 419.972 208.06 420.365 208.06C420.88 208.06 421.257 207.828 421.494 207.365V205.181C421.251 204.733 420.877 204.509 420.373 204.509C419.975 204.509 419.665 204.663 419.442 204.97C419.219 205.278 419.108 205.733 419.108 206.337Z" fill="#383838"/>
<path d="M387.064 30.1616C387.064 26.8479 389.751 24.1616 393.064 24.1616L426.064 24.1616C429.378 24.1616 432.064 26.8479 432.064 30.1616C432.064 33.4753 429.378 36.1616 426.064 36.1616L393.064 36.1616C389.751 36.1616 387.064 33.4753 387.064 30.1616Z" fill="white" stroke="#ABABAB"/>
<path d="M400.459 30.6313C400.38 31.3081 400.129 31.8311 399.707 32.2002C399.289 32.5664 398.73 32.7495 398.033 32.7495C397.277 32.7495 396.671 32.4785 396.214 31.9365C395.76 31.3945 395.533 30.6694 395.533 29.7612V29.146C395.533 28.5513 395.638 28.0283 395.849 27.5771C396.063 27.126 396.365 26.7803 396.754 26.54C397.144 26.2969 397.595 26.1753 398.108 26.1753C398.788 26.1753 399.332 26.3657 399.743 26.7466C400.153 27.1245 400.392 27.6489 400.459 28.3198H399.611C399.538 27.8101 399.378 27.4409 399.132 27.2124C398.889 26.9839 398.547 26.8696 398.108 26.8696C397.569 26.8696 397.145 27.0688 396.838 27.4673C396.533 27.8657 396.381 28.4326 396.381 29.168V29.7876C396.381 30.4819 396.526 31.0342 396.816 31.4443C397.106 31.8545 397.512 32.0596 398.033 32.0596C398.502 32.0596 398.861 31.9541 399.11 31.7432C399.362 31.5293 399.529 31.1587 399.611 30.6313H400.459ZM403.936 28.6362C403.813 28.6157 403.679 28.6055 403.536 28.6055C403.002 28.6055 402.641 28.8325 402.45 29.2866V32.6616H401.637V27.9067H402.428L402.441 28.4561C402.708 28.0312 403.086 27.8188 403.575 27.8188C403.733 27.8188 403.854 27.8394 403.936 27.8804V28.6362ZM406.722 32.7495C406.078 32.7495 405.553 32.5386 405.149 32.1167C404.745 31.6919 404.543 31.125 404.543 30.416V30.2666C404.543 29.7949 404.632 29.3745 404.811 29.0054C404.992 28.6333 405.244 28.3433 405.567 28.1353C405.892 27.9243 406.243 27.8188 406.621 27.8188C407.239 27.8188 407.72 28.0225 408.063 28.4297C408.405 28.8369 408.577 29.4199 408.577 30.1787V30.5171H405.356C405.367 30.9858 405.504 31.3652 405.764 31.6553C406.028 31.9424 406.362 32.0859 406.766 32.0859C407.053 32.0859 407.297 32.0273 407.496 31.9102C407.695 31.793 407.869 31.6377 408.019 31.4443L408.515 31.8311C408.117 32.4434 407.519 32.7495 406.722 32.7495ZM406.621 28.4868C406.293 28.4868 406.018 28.6069 405.795 28.8472C405.572 29.0845 405.435 29.4185 405.382 29.8491H407.764V29.7876C407.74 29.3745 407.629 29.0552 407.43 28.8296C407.231 28.6011 406.961 28.4868 406.621 28.4868ZM412.607 32.6616C412.56 32.5679 412.522 32.4009 412.493 32.1606C412.115 32.5532 411.664 32.7495 411.139 32.7495C410.671 32.7495 410.285 32.6177 409.984 32.354C409.685 32.0874 409.535 31.7505 409.535 31.3433C409.535 30.8481 409.723 30.4644 410.098 30.1919C410.476 29.9165 411.006 29.7788 411.689 29.7788H412.48V29.4053C412.48 29.1211 412.395 28.8955 412.225 28.7285C412.055 28.5586 411.804 28.4736 411.473 28.4736C411.183 28.4736 410.94 28.5469 410.744 28.6934C410.548 28.8398 410.449 29.0171 410.449 29.2251H409.632C409.632 28.9878 409.716 28.7593 409.883 28.5396C410.052 28.3169 410.281 28.1411 410.568 28.0122C410.858 27.8833 411.176 27.8188 411.522 27.8188C412.07 27.8188 412.499 27.9565 412.809 28.2319C413.12 28.5044 413.281 28.8809 413.293 29.3613V31.5498C413.293 31.9863 413.348 32.3335 413.46 32.5913V32.6616L412.607 32.6616ZM411.258 32.042C411.513 32.042 411.755 31.9761 411.983 31.8442C412.212 31.7124 412.377 31.541 412.48 31.3301V30.3545H411.843C410.846 30.3545 410.348 30.646 410.348 31.229C410.348 31.4839 410.433 31.6831 410.603 31.8267C410.773 31.9702 410.991 32.042 411.258 32.042ZM415.82 26.7554V27.9067H416.708V28.5352H415.82V31.4839C415.82 31.6743 415.86 31.8179 415.939 31.9146C416.018 32.0083 416.153 32.0552 416.343 32.0552C416.437 32.0552 416.566 32.0376 416.73 32.0024V32.6616C416.516 32.7202 416.308 32.7495 416.106 32.7495C415.743 32.7495 415.469 32.6396 415.284 32.4199C415.099 32.2002 415.007 31.8882 415.007 31.4839V28.5352H414.141V27.9067H415.007V26.7554L415.82 26.7554ZM419.785 32.7495C419.14 32.7495 418.616 32.5386 418.211 32.1167C417.807 31.6919 417.605 31.125 417.605 30.416V30.2666C417.605 29.7949 417.694 29.3745 417.873 29.0054C418.055 28.6333 418.307 28.3433 418.629 28.1353C418.954 27.9243 419.306 27.8188 419.684 27.8188C420.302 27.8188 420.782 28.0225 421.125 28.4297C421.468 28.8369 421.639 29.4199 421.639 30.1787V30.5171H418.418C418.43 30.9858 418.566 31.3652 418.827 31.6553C419.09 31.9424 419.424 32.0859 419.829 32.0859C420.116 32.0859 420.359 32.0273 420.558 31.9102C420.757 31.793 420.932 31.6377 421.081 31.4443L421.578 31.8311C421.179 32.4434 420.581 32.7495 419.785 32.7495ZM419.684 28.4868C419.355 28.4868 419.08 28.6069 418.857 28.8472C418.635 29.0845 418.497 29.4185 418.444 29.8491H420.826V29.7876C420.803 29.3745 420.691 29.0552 420.492 28.8296C420.293 28.6011 420.023 28.4868 419.684 28.4868Z" fill="#383838"/>
<path d="M558.279 202.377H610.148" stroke="#ABABAB" stroke-linecap="square"/>
<path fill-rule="evenodd" clip-rule="evenodd" d="M559.779 204.877C561.16 204.877 562.279 203.758 562.279 202.377C562.279 200.996 561.16 199.877 559.779 199.877C558.399 199.877 557.279 200.996 557.279 202.377C557.279 203.758 558.399 204.877 559.779 204.877Z" fill="white" stroke="#ABABAB"/>
<path fill-rule="evenodd" clip-rule="evenodd" d="M608.279 204.877V199.877L611.279 202.377L608.279 204.877Z" fill="#ABABAB"/>
<rect x="611.772" y="173.608" width="88.6661" height="57.8923" rx="4.5" fill="#E9E9E9" stroke="#ABABAB"/>
<path d="M623.31 202.524H620.098V204.931H623.852V206.016H618.739V198.195H623.815V199.291H620.098V201.45H623.31V202.524ZM626.227 200.204L626.265 200.875C626.694 200.356 627.258 200.097 627.956 200.097C629.167 200.097 629.783 200.79 629.804 202.175V206.016H628.499V202.25C628.499 201.882 628.418 201.61 628.257 201.434C628.1 201.255 627.84 201.166 627.478 201.166C626.952 201.166 626.56 201.404 626.302 201.88V206.016H624.997V200.204H626.227ZM632.958 198.792V200.204H633.983V201.171H632.958V204.415C632.958 204.637 633.001 204.798 633.087 204.898C633.176 204.995 633.334 205.043 633.559 205.043C633.71 205.043 633.862 205.026 634.016 204.99V206C633.719 206.082 633.432 206.123 633.156 206.123C632.154 206.123 631.652 205.57 631.652 204.463V201.171H630.696V200.204H631.652V198.792H632.958ZM637.728 206.123C636.901 206.123 636.229 205.863 635.714 205.344C635.202 204.821 634.946 204.127 634.946 203.26V203.099C634.946 202.519 635.057 202.002 635.279 201.547C635.504 201.089 635.819 200.732 636.224 200.478C636.629 200.224 637.08 200.097 637.577 200.097C638.369 200.097 638.979 200.349 639.409 200.854C639.842 201.359 640.059 202.073 640.059 202.997V203.523H636.262C636.301 204.003 636.46 204.383 636.74 204.662C637.022 204.941 637.377 205.081 637.803 205.081C638.401 205.081 638.888 204.839 639.264 204.356L639.968 205.027C639.735 205.375 639.423 205.645 639.033 205.838C638.646 206.028 638.211 206.123 637.728 206.123ZM637.572 201.144C637.214 201.144 636.924 201.269 636.702 201.52C636.484 201.771 636.344 202.12 636.283 202.567H638.77V202.471C638.741 202.034 638.625 201.704 638.421 201.482C638.217 201.257 637.934 201.144 637.572 201.144ZM644.303 201.396C644.131 201.368 643.954 201.354 643.771 201.354C643.173 201.354 642.77 201.583 642.563 202.041V206.016H641.257V200.204H642.503L642.536 200.854C642.851 200.349 643.288 200.097 643.846 200.097C644.032 200.097 644.186 200.122 644.308 200.172L644.303 201.396ZM648.58 206.016V201.171H647.693V200.204H648.58V199.807C648.583 199.352 648.68 198.962 648.87 198.636C649.059 198.31 649.328 198.065 649.675 197.9C650.023 197.735 650.44 197.653 650.927 197.653C651.213 197.653 651.487 197.683 651.749 197.744C652.014 197.805 652.287 197.882 652.57 197.975L652.372 199.055C651.877 198.883 651.426 198.797 651.018 198.797C650.621 198.797 650.332 198.885 650.153 199.06C649.974 199.232 649.885 199.492 649.885 199.839V200.204H651.029V201.171H649.885V206.016H648.58ZM653.188 206.016H651.883V200.204H653.188V206.016ZM656.207 206.016H654.902V197.766H656.207V206.016ZM660.376 206.123C659.549 206.123 658.877 205.863 658.362 205.344C657.85 204.821 657.594 204.127 657.594 203.26V203.099C657.594 202.519 657.705 202.002 657.927 201.547C658.152 201.089 658.467 200.732 658.872 200.478C659.277 200.224 659.728 200.097 660.226 200.097C661.017 200.097 661.627 200.349 662.057 200.854C662.49 201.359 662.707 202.073 662.707 202.997V203.523H658.91C658.949 204.003 659.108 204.383 659.388 204.662C659.671 204.941 660.025 205.081 660.451 205.081C661.049 205.081 661.536 204.839 661.912 204.356L662.616 205.027C662.383 205.375 662.071 205.645 661.681 205.838C661.294 206.028 660.859 206.123 660.376 206.123ZM660.22 201.144C659.862 201.144 659.572 201.269 659.35 201.52C659.132 201.771 658.992 202.12 658.931 202.567H661.418V202.471C661.389 202.034 661.273 201.704 661.069 201.482C660.865 201.257 660.582 201.144 660.22 201.144ZM668.042 200.204L668.08 200.875C668.509 200.356 669.073 200.097 669.771 200.097C670.982 200.097 671.598 200.79 671.619 202.175V206.016H670.314V202.25C670.314 201.882 670.233 201.61 670.072 201.434C669.915 201.255 669.655 201.166 669.293 201.166C668.767 201.166 668.375 201.404 668.117 201.88V206.016H666.812V200.204H668.042ZM676.61 206.016C676.552 205.905 676.502 205.724 676.459 205.473C676.044 205.906 675.535 206.123 674.934 206.123C674.35 206.123 673.874 205.957 673.505 205.624C673.136 205.291 672.952 204.879 672.952 204.388C672.952 203.769 673.181 203.294 673.639 202.965C674.101 202.632 674.76 202.465 675.616 202.465H676.416V202.084C676.416 201.783 676.332 201.543 676.164 201.364C675.995 201.182 675.739 201.09 675.396 201.09C675.099 201.09 674.855 201.166 674.665 201.316C674.475 201.463 674.381 201.651 674.381 201.88H673.075C673.075 201.561 673.181 201.264 673.392 200.988C673.604 200.709 673.89 200.491 674.252 200.333C674.617 200.175 675.023 200.097 675.471 200.097C676.151 200.097 676.694 200.269 677.098 200.612C677.503 200.952 677.711 201.432 677.721 202.052V204.673C677.721 205.196 677.795 205.613 677.942 205.924V206.016H676.61ZM675.175 205.076C675.433 205.076 675.675 205.013 675.901 204.888C676.13 204.762 676.302 204.594 676.416 204.383V203.287H675.713C675.229 203.287 674.866 203.371 674.622 203.54C674.379 203.708 674.257 203.946 674.257 204.254C674.257 204.505 674.339 204.705 674.504 204.855C674.672 205.002 674.896 205.076 675.175 205.076ZM680.499 200.204L680.537 200.811C680.945 200.335 681.503 200.097 682.212 200.097C682.989 200.097 683.521 200.394 683.808 200.988C684.23 200.394 684.824 200.097 685.591 200.097C686.232 200.097 686.708 200.274 687.019 200.628C687.335 200.983 687.496 201.506 687.503 202.197V206.016H686.198V202.234C686.198 201.866 686.117 201.595 685.956 201.423C685.795 201.251 685.528 201.166 685.156 201.166C684.858 201.166 684.615 201.246 684.425 201.407C684.239 201.565 684.108 201.772 684.033 202.03L684.039 206.016H682.733V202.191C682.715 201.507 682.366 201.166 681.686 201.166C681.163 201.166 680.793 201.379 680.574 201.805V206.016H679.269V200.204H680.499ZM691.586 206.123C690.758 206.123 690.087 205.863 689.571 205.344C689.059 204.821 688.803 204.127 688.803 203.26V203.099C688.803 202.519 688.914 202.002 689.136 201.547C689.362 201.089 689.677 200.732 690.082 200.478C690.486 200.224 690.937 200.097 691.435 200.097C692.227 200.097 692.837 200.349 693.267 200.854C693.7 201.359 693.917 202.073 693.917 202.997V203.523H690.119C690.159 204.003 690.318 204.383 690.597 204.662C690.88 204.941 691.235 205.081 691.661 205.081C692.259 205.081 692.746 204.839 693.122 204.356L693.825 205.027C693.593 205.375 693.281 205.645 692.891 205.838C692.504 206.028 692.069 206.123 691.586 206.123ZM691.43 201.144C691.072 201.144 690.782 201.269 690.56 201.52C690.341 201.771 690.202 202.12 690.141 202.567H692.628V202.471C692.599 202.034 692.483 201.704 692.278 201.482C692.074 201.257 691.792 201.144 691.43 201.144Z" fill="#383838"/>
<path d="M701.938 202.377H755.801" stroke="#ABABAB" stroke-linecap="square"/>
<path fill-rule="evenodd" clip-rule="evenodd" d="M703.438 204.877C704.818 204.877 705.938 203.758 705.938 202.377C705.938 200.996 704.818 199.877 703.438 199.877C702.057 199.877 700.938 200.996 700.938 202.377C700.938 203.758 702.057 204.877 703.438 204.877Z" fill="white" stroke="#ABABAB"/>
<path fill-rule="evenodd" clip-rule="evenodd" d="M753.938 204.877V199.877L756.938 202.377L753.938 204.877Z" fill="#ABABAB"/>
<rect x="757.358" y="173.608" width="87.7019" height="57.8923" rx="4.5" fill="#E9E9E9" stroke="#ABABAB"/>
<path d="M776.144 202.524H772.932V204.931H776.686V206.016H771.573V198.195H776.649V199.291H772.932V201.45H776.144V202.524ZM779.759 204.361L780.989 200.204H782.338L780.323 206.016H779.19L777.16 200.204H778.513L779.759 204.361ZM785.824 206.123C784.997 206.123 784.326 205.863 783.81 205.344C783.298 204.821 783.042 204.127 783.042 203.26V203.099C783.042 202.519 783.153 202.002 783.375 201.547C783.6 201.089 783.916 200.732 784.32 200.478C784.725 200.224 785.176 200.097 785.674 200.097C786.465 200.097 787.076 200.349 787.505 200.854C787.939 201.359 788.155 202.073 788.155 202.997V203.523H784.358C784.397 204.003 784.557 204.383 784.836 204.662C785.119 204.941 785.473 205.081 785.899 205.081C786.497 205.081 786.984 204.839 787.36 204.356L788.064 205.027C787.831 205.375 787.52 205.645 787.129 205.838C786.743 206.028 786.308 206.123 785.824 206.123ZM785.668 201.144C785.31 201.144 785.02 201.269 784.798 201.52C784.58 201.771 784.44 202.12 784.379 202.567H786.866V202.471C786.837 202.034 786.721 201.704 786.517 201.482C786.313 201.257 786.03 201.144 785.668 201.144ZM790.567 200.204L790.605 200.875C791.035 200.356 791.599 200.097 792.297 200.097C793.507 200.097 794.123 200.79 794.145 202.175V206.016H792.839V202.25C792.839 201.882 792.759 201.61 792.598 201.434C792.44 201.255 792.181 201.166 791.819 201.166C791.293 201.166 790.901 201.404 790.643 201.88V206.016H789.338V200.204H790.567ZM797.298 198.792V200.204H798.324V201.171H797.298V204.415C797.298 204.637 797.341 204.798 797.427 204.898C797.517 204.995 797.674 205.043 797.9 205.043C798.05 205.043 798.202 205.026 798.356 204.99V206C798.059 206.082 797.773 206.123 797.497 206.123C796.494 206.123 795.993 205.57 795.993 204.463V201.171H795.037V200.204H795.993V198.792H797.298ZM802.891 206.016V201.171H802.005V200.204H802.891V199.672C802.891 199.028 803.07 198.53 803.428 198.179C803.786 197.828 804.287 197.653 804.932 197.653C805.161 197.653 805.405 197.685 805.662 197.75L805.63 198.77C805.487 198.741 805.32 198.727 805.131 198.727C804.508 198.727 804.196 199.048 804.196 199.688V200.204H805.378V201.171H804.196V206.016H802.891ZM806.27 203.056C806.27 202.487 806.383 201.975 806.608 201.52C806.834 201.062 807.151 200.711 807.559 200.467C807.967 200.22 808.436 200.097 808.966 200.097C809.751 200.097 810.386 200.349 810.873 200.854C811.364 201.359 811.629 202.028 811.668 202.863L811.673 203.169C811.673 203.742 811.562 204.254 811.34 204.705C811.122 205.156 810.807 205.505 810.395 205.752C809.987 206 809.514 206.123 808.977 206.123C808.157 206.123 807.5 205.851 807.006 205.307C806.515 204.759 806.27 204.03 806.27 203.121V203.056ZM807.575 203.169C807.575 203.767 807.699 204.236 807.946 204.576C808.193 204.913 808.537 205.081 808.977 205.081C809.418 205.081 809.759 204.909 810.003 204.565C810.25 204.222 810.374 203.719 810.374 203.056C810.374 202.469 810.246 202.003 809.992 201.66C809.742 201.316 809.4 201.144 808.966 201.144C808.54 201.144 808.202 201.314 807.951 201.654C807.701 201.991 807.575 202.496 807.575 203.169ZM814.349 206.016H813.044V197.766H814.349V206.016ZM815.714 203.067C815.714 202.172 815.922 201.454 816.337 200.913C816.752 200.369 817.309 200.097 818.007 200.097C818.623 200.097 819.121 200.312 819.501 200.741V197.766H820.806V206.016H819.624L819.56 205.414C819.169 205.887 818.648 206.123 817.997 206.123C817.316 206.123 816.765 205.849 816.342 205.301C815.923 204.753 815.714 204.009 815.714 203.067ZM817.019 203.18C817.019 203.771 817.132 204.232 817.357 204.565C817.587 204.895 817.911 205.06 818.33 205.06C818.863 205.06 819.253 204.821 819.501 204.345V201.864C819.261 201.398 818.874 201.166 818.34 201.166C817.918 201.166 817.592 201.334 817.363 201.67C817.134 202.003 817.019 202.507 817.019 203.18ZM824.91 206.123C824.083 206.123 823.411 205.863 822.896 205.344C822.384 204.821 822.128 204.127 822.128 203.26V203.099C822.128 202.519 822.239 202.002 822.461 201.547C822.686 201.089 823.001 200.732 823.406 200.478C823.811 200.224 824.262 200.097 824.76 200.097C825.551 200.097 826.161 200.349 826.591 200.854C827.024 201.359 827.241 202.073 827.241 202.997V203.523H823.444C823.483 204.003 823.642 204.383 823.922 204.662C824.205 204.941 824.559 205.081 824.985 205.081C825.583 205.081 826.07 204.839 826.446 204.356L827.15 205.027C826.917 205.375 826.605 205.645 826.215 205.838C825.828 206.028 825.393 206.123 824.91 206.123ZM824.754 201.144C824.396 201.144 824.106 201.269 823.884 201.52C823.666 201.771 823.526 202.12 823.465 202.567H825.952V202.471C825.923 202.034 825.807 201.704 825.603 201.482C825.399 201.257 825.116 201.144 824.754 201.144ZM831.485 201.396C831.313 201.368 831.136 201.354 830.953 201.354C830.355 201.354 829.952 201.583 829.745 202.041V206.016H828.439V200.204H829.686L829.718 200.854C830.033 200.349 830.47 200.097 831.028 200.097C831.215 200.097 831.368 200.122 831.49 200.172L831.485 201.396Z" fill="#383838"/>
<rect x="611.772" y="0.5" width="88.6661" height="57.8923" rx="4.5" fill="#E9E9E9" stroke="#ABABAB"/>
<path d="M623.492 30.8936C623.492 30.5498 623.37 30.2848 623.127 30.0986C622.887 29.9124 622.452 29.7244 621.822 29.5347C621.191 29.3449 620.69 29.1336 620.318 28.9009C619.605 28.4533 619.249 27.8696 619.249 27.1499C619.249 26.5197 619.505 26.0005 620.017 25.5923C620.532 25.1841 621.2 24.98 622.02 24.98C622.565 24.98 623.05 25.0802 623.476 25.2808C623.902 25.4813 624.237 25.7677 624.48 26.1401C624.724 26.509 624.845 26.9189 624.845 27.3701H623.492C623.492 26.9619 623.363 26.6432 623.105 26.4141C622.851 26.1813 622.486 26.0649 622.01 26.0649C621.566 26.0649 621.22 26.1598 620.973 26.3496C620.729 26.5394 620.608 26.8044 620.608 27.1445C620.608 27.431 620.74 27.6709 621.005 27.8643C621.27 28.054 621.707 28.2402 622.316 28.4229C622.924 28.6019 623.413 28.8078 623.782 29.0405C624.151 29.2697 624.421 29.5347 624.593 29.8354C624.765 30.1326 624.851 30.4818 624.851 30.8828C624.851 31.5345 624.6 32.0537 624.099 32.4404C623.601 32.8236 622.924 33.0151 622.069 33.0151C621.503 33.0151 620.982 32.9113 620.506 32.7036C620.033 32.4924 619.664 32.2023 619.399 31.8335C619.138 31.4647 619.007 31.035 619.007 30.5444H620.366C620.366 30.9884 620.513 31.3322 620.806 31.5757C621.1 31.8192 621.521 31.9409 622.069 31.9409C622.541 31.9409 622.896 31.846 623.132 31.6562C623.372 31.4629 623.492 31.2087 623.492 30.8936ZM628.66 33.0151C627.833 33.0151 627.161 32.7555 626.646 32.2363C626.133 31.7135 625.877 31.0189 625.877 30.1523V29.9912C625.877 29.4111 625.988 28.8937 626.21 28.439C626.436 27.9806 626.751 27.6243 627.156 27.3701C627.56 27.1159 628.012 26.9888 628.509 26.9888C629.301 26.9888 629.911 27.2412 630.341 27.7461C630.774 28.251 630.991 28.9653 630.991 29.8892V30.4155H627.193C627.233 30.8953 627.392 31.2749 627.671 31.5542C627.954 31.8335 628.309 31.9731 628.735 31.9731C629.333 31.9731 629.82 31.7314 630.196 31.248L630.899 31.9194C630.667 32.2668 630.355 32.5371 629.965 32.7305C629.578 32.9202 629.143 33.0151 628.66 33.0151ZM628.504 28.0361C628.146 28.0361 627.856 28.1615 627.634 28.4121C627.415 28.6628 627.276 29.0119 627.215 29.4595H629.702V29.3628C629.673 28.9259 629.557 28.5965 629.353 28.3745C629.148 28.1489 628.866 28.0361 628.504 28.0361ZM633.58 32.9077H632.275V24.6577H633.58V32.9077ZM637.749 33.0151C636.922 33.0151 636.25 32.7555 635.735 32.2363C635.223 31.7135 634.967 31.0189 634.967 30.1523V29.9912C634.967 29.4111 635.078 28.8937 635.3 28.439C635.525 27.9806 635.84 27.6243 636.245 27.3701C636.65 27.1159 637.101 26.9888 637.599 26.9888C638.39 26.9888 639 27.2412 639.43 27.7461C639.863 28.251 640.08 28.9653 640.08 29.8892V30.4155H636.283C636.322 30.8953 636.481 31.2749 636.761 31.5542C637.044 31.8335 637.398 31.9731 637.824 31.9731C638.422 31.9731 638.909 31.7314 639.285 31.248L639.989 31.9194C639.756 32.2668 639.444 32.5371 639.054 32.7305C638.667 32.9202 638.232 33.0151 637.749 33.0151ZM637.593 28.0361C637.235 28.0361 636.945 28.1615 636.723 28.4121C636.505 28.6628 636.365 29.0119 636.304 29.4595H638.791V29.3628C638.762 28.9259 638.646 28.5965 638.442 28.3745C638.238 28.1489 637.955 28.0361 637.593 28.0361ZM643.669 31.9731C643.994 31.9731 644.265 31.8783 644.48 31.6885C644.695 31.4987 644.809 31.2642 644.823 30.9849H646.053C646.039 31.3465 645.926 31.6849 645.715 32C645.504 32.3115 645.217 32.5586 644.856 32.7412C644.494 32.9238 644.104 33.0151 643.685 33.0151C642.872 33.0151 642.227 32.752 641.751 32.2256C641.275 31.6992 641.037 30.9723 641.037 30.0449V29.9106C641.037 29.0262 641.273 28.319 641.746 27.7891C642.218 27.2555 642.863 26.9888 643.679 26.9888C644.37 26.9888 644.933 27.1911 645.366 27.5957C645.803 27.9967 646.032 28.5249 646.053 29.1802H644.823C644.809 28.8472 644.695 28.5732 644.48 28.3584C644.268 28.1436 643.998 28.0361 643.669 28.0361C643.246 28.0361 642.92 28.1901 642.691 28.498C642.462 28.8024 642.346 29.2661 642.342 29.8892V30.0986C642.342 30.7288 642.455 31.1997 642.68 31.5112C642.91 31.8192 643.239 31.9731 643.669 31.9731ZM648.858 25.6836V27.0962H649.884V28.063H648.858V31.3071C648.858 31.5291 648.901 31.6903 648.987 31.7905C649.076 31.8872 649.234 31.9355 649.459 31.9355C649.61 31.9355 649.762 31.9176 649.916 31.8818V32.8916C649.619 32.974 649.332 33.0151 649.057 33.0151C648.054 33.0151 647.553 32.4619 647.553 31.3555V28.063H646.597V27.0962H647.553V25.6836H648.858ZM654.338 32.9077V28.063H653.452V27.0962H654.338V26.6987C654.341 26.244 654.438 25.8537 654.628 25.5278C654.818 25.202 655.086 24.9567 655.433 24.792C655.781 24.6273 656.198 24.5449 656.685 24.5449C656.971 24.5449 657.245 24.5754 657.507 24.6362C657.772 24.6971 658.046 24.7741 658.329 24.8672L658.13 25.9468C657.636 25.7749 657.184 25.689 656.776 25.689C656.379 25.689 656.091 25.7767 655.912 25.9521C655.732 26.124 655.643 26.3836 655.643 26.731V27.0962H656.787V28.063H655.643V32.9077H654.338ZM658.946 32.9077H657.641V27.0962H658.946V32.9077ZM661.965 32.9077H660.66V24.6577H661.965V32.9077ZM666.134 33.0151C665.307 33.0151 664.636 32.7555 664.12 32.2363C663.608 31.7135 663.352 31.0189 663.352 30.1523V29.9912C663.352 29.4111 663.463 28.8937 663.685 28.439C663.911 27.9806 664.226 27.6243 664.63 27.3701C665.035 27.1159 665.486 26.9888 665.984 26.9888C666.775 26.9888 667.386 27.2412 667.815 27.7461C668.249 28.251 668.465 28.9653 668.465 29.8892V30.4155H664.668C664.707 30.8953 664.867 31.2749 665.146 31.5542C665.429 31.8335 665.783 31.9731 666.209 31.9731C666.807 31.9731 667.294 31.7314 667.67 31.248L668.374 31.9194C668.141 32.2668 667.83 32.5371 667.439 32.7305C667.053 32.9202 666.618 33.0151 666.134 33.0151ZM665.978 28.0361C665.62 28.0361 665.33 28.1615 665.108 28.4121C664.89 28.6628 664.75 29.0119 664.689 29.4595H667.176V29.3628C667.147 28.9259 667.031 28.5965 666.827 28.3745C666.623 28.1489 666.34 28.0361 665.978 28.0361ZM674.224 25.6836V27.0962H675.25V28.063H674.224V31.3071C674.224 31.5291 674.267 31.6903 674.353 31.7905C674.443 31.8872 674.6 31.9355 674.826 31.9355C674.976 31.9355 675.129 31.9176 675.283 31.8818V32.8916C674.985 32.974 674.699 33.0151 674.423 33.0151C673.421 33.0151 672.919 32.4619 672.919 31.3555V28.063H671.963V27.0962H672.919V25.6836H674.224ZM678.468 31.0386L679.65 27.0962H681.041L678.732 33.7886C678.377 34.7661 677.775 35.2549 676.927 35.2549C676.737 35.2549 676.528 35.2227 676.298 35.1582V34.1484L676.545 34.1646C676.875 34.1646 677.122 34.1037 677.287 33.9819C677.455 33.8638 677.587 33.6632 677.684 33.3804L677.872 32.8809L675.831 27.0962H677.238L678.468 31.0386ZM687.068 30.061C687.068 30.9598 686.864 31.6777 686.456 32.2148C686.048 32.7484 685.5 33.0151 684.812 33.0151C684.175 33.0151 683.665 32.8057 683.282 32.3867V35.1421H681.976V27.0962H683.179L683.233 27.687C683.616 27.2215 684.137 26.9888 684.796 26.9888C685.505 26.9888 686.06 27.2537 686.461 27.7837C686.866 28.3101 687.068 29.0423 687.068 29.9805V30.061ZM685.768 29.9482C685.768 29.3682 685.652 28.908 685.419 28.5679C685.19 28.2277 684.861 28.0576 684.431 28.0576C683.897 28.0576 683.514 28.2778 683.282 28.7183V31.2964C683.518 31.7476 683.905 31.9731 684.442 31.9731C684.857 31.9731 685.181 31.8066 685.414 31.4736C685.65 31.137 685.768 30.6286 685.768 29.9482ZM690.92 33.0151C690.093 33.0151 689.421 32.7555 688.906 32.2363C688.394 31.7135 688.138 31.0189 688.138 30.1523V29.9912C688.138 29.4111 688.249 28.8937 688.471 28.439C688.696 27.9806 689.011 27.6243 689.416 27.3701C689.821 27.1159 690.272 26.9888 690.77 26.9888C691.561 26.9888 692.171 27.2412 692.601 27.7461C693.034 28.251 693.251 28.9653 693.251 29.8892V30.4155H689.454C689.493 30.8953 689.652 31.2749 689.932 31.5542C690.215 31.8335 690.569 31.9731 690.995 31.9731C691.593 31.9731 692.08 31.7314 692.456 31.248L693.16 31.9194C692.927 32.2668 692.615 32.5371 692.225 32.7305C691.838 32.9202 691.403 33.0151 690.92 33.0151ZM690.764 28.0361C690.406 28.0361 690.116 28.1615 689.894 28.4121C689.676 28.6628 689.536 29.0119 689.475 29.4595H691.962V29.3628C691.933 28.9259 691.817 28.5965 691.613 28.3745C691.409 28.1489 691.126 28.0361 690.764 28.0361Z" fill="#383838"/>
<rect x="468.113" y="173.608" width="88.6661" height="57.8923" rx="4.5" fill="#E9E9E9" stroke="#ABABAB"/>
<path d="M490.652 197.47C490.574 198.304 490.266 198.956 489.729 199.425C489.191 199.89 488.477 200.123 487.585 200.123C486.962 200.123 486.413 199.976 485.937 199.683C485.464 199.385 485.099 198.965 484.841 198.42C484.583 197.876 484.449 197.244 484.438 196.524V195.794C484.438 195.056 484.569 194.406 484.83 193.844C485.091 193.282 485.466 192.849 485.953 192.544C486.443 192.24 487.009 192.088 487.65 192.088C488.513 192.088 489.208 192.322 489.734 192.792C490.26 193.261 490.566 193.923 490.652 194.779H489.299C489.234 194.217 489.07 193.812 488.805 193.565C488.543 193.314 488.158 193.189 487.65 193.189C487.059 193.189 486.604 193.406 486.286 193.839C485.971 194.269 485.809 194.901 485.802 195.735V196.428C485.802 197.273 485.953 197.917 486.253 198.361C486.558 198.805 487.002 199.027 487.585 199.027C488.119 199.027 488.52 198.907 488.789 198.667C489.057 198.428 489.227 198.028 489.299 197.47H490.652ZM493.215 194.838C493.641 194.344 494.18 194.097 494.832 194.097C496.071 194.097 496.699 194.804 496.717 196.218V200.016H495.412V196.267C495.412 195.866 495.324 195.583 495.149 195.418C494.977 195.25 494.723 195.166 494.386 195.166C493.863 195.166 493.473 195.398 493.215 195.864V200.016H491.91V191.766H493.215V194.838ZM497.98 197.056C497.98 196.487 498.093 195.975 498.318 195.52C498.544 195.062 498.861 194.711 499.269 194.467C499.677 194.22 500.146 194.097 500.676 194.097C501.46 194.097 502.096 194.349 502.583 194.854C503.074 195.359 503.338 196.028 503.378 196.863L503.383 197.169C503.383 197.742 503.272 198.254 503.05 198.705C502.832 199.156 502.517 199.505 502.105 199.752C501.697 200 501.224 200.123 500.687 200.123C499.867 200.123 499.21 199.851 498.716 199.307C498.225 198.759 497.98 198.03 497.98 197.121V197.056ZM499.285 197.169C499.285 197.767 499.409 198.236 499.656 198.576C499.903 198.913 500.247 199.081 500.687 199.081C501.127 199.081 501.469 198.909 501.713 198.565C501.96 198.222 502.083 197.719 502.083 197.056C502.083 196.469 501.956 196.003 501.702 195.66C501.451 195.316 501.109 195.144 500.676 195.144C500.25 195.144 499.912 195.314 499.661 195.654C499.41 195.991 499.285 196.496 499.285 197.169ZM504.426 197.056C504.426 196.487 504.539 195.975 504.764 195.52C504.99 195.062 505.307 194.711 505.715 194.467C506.123 194.22 506.592 194.097 507.122 194.097C507.906 194.097 508.542 194.349 509.029 194.854C509.52 195.359 509.785 196.028 509.824 196.863L509.829 197.169C509.829 197.742 509.718 198.254 509.496 198.705C509.278 199.156 508.963 199.505 508.551 199.752C508.143 200 507.67 200.123 507.133 200.123C506.313 200.123 505.656 199.851 505.162 199.307C504.671 198.759 504.426 198.03 504.426 197.121V197.056ZM505.731 197.169C505.731 197.767 505.855 198.236 506.102 198.576C506.349 198.913 506.693 199.081 507.133 199.081C507.573 199.081 507.915 198.909 508.159 198.565C508.406 198.222 508.529 197.719 508.529 197.056C508.529 196.469 508.402 196.003 508.148 195.66C507.897 195.316 507.556 195.144 507.122 195.144C506.696 195.144 506.358 195.314 506.107 195.654C505.856 195.991 505.731 196.496 505.731 197.169ZM514.374 198.437C514.374 198.204 514.277 198.027 514.084 197.905C513.894 197.783 513.577 197.676 513.133 197.583C512.689 197.489 512.319 197.371 512.021 197.228C511.37 196.913 511.044 196.456 511.044 195.858C511.044 195.357 511.255 194.938 511.678 194.602C512.1 194.265 512.637 194.097 513.289 194.097C513.984 194.097 514.544 194.269 514.97 194.612C515.4 194.956 515.615 195.402 515.615 195.95H514.309C514.309 195.699 514.216 195.491 514.03 195.327C513.844 195.158 513.597 195.074 513.289 195.074C513.003 195.074 512.768 195.14 512.585 195.273C512.406 195.405 512.317 195.583 512.317 195.805C512.317 196.005 512.401 196.161 512.569 196.272C512.738 196.383 513.078 196.496 513.59 196.61C514.102 196.721 514.503 196.856 514.793 197.013C515.087 197.167 515.303 197.353 515.443 197.572C515.586 197.79 515.658 198.055 515.658 198.367C515.658 198.889 515.441 199.314 515.008 199.64C514.574 199.962 514.007 200.123 513.305 200.123C512.829 200.123 512.405 200.037 512.032 199.865C511.66 199.693 511.37 199.457 511.162 199.156C510.954 198.855 510.851 198.531 510.851 198.184H512.118C512.136 198.492 512.252 198.73 512.467 198.898C512.682 199.063 512.967 199.146 513.321 199.146C513.665 199.146 513.926 199.081 514.105 198.952C514.284 198.82 514.374 198.648 514.374 198.437ZM519.542 200.123C518.715 200.123 518.043 199.863 517.527 199.344C517.015 198.821 516.759 198.127 516.759 197.26V197.099C516.759 196.519 516.87 196.002 517.092 195.547C517.318 195.089 517.633 194.732 518.038 194.478C518.442 194.224 518.894 194.097 519.391 194.097C520.183 194.097 520.793 194.349 521.223 194.854C521.656 195.359 521.873 196.073 521.873 196.997V197.523H518.075C518.115 198.003 518.274 198.383 518.553 198.662C518.836 198.941 519.191 199.081 519.617 199.081C520.215 199.081 520.702 198.839 521.078 198.356L521.781 199.027C521.549 199.375 521.237 199.645 520.847 199.838C520.46 200.028 520.025 200.123 519.542 200.123ZM519.386 195.144C519.028 195.144 518.738 195.269 518.516 195.52C518.297 195.771 518.158 196.12 518.097 196.567H520.584V196.471C520.555 196.034 520.439 195.704 520.235 195.482C520.03 195.257 519.748 195.144 519.386 195.144ZM526.343 200.016V195.171H525.457V194.204H526.343V193.807C526.346 193.352 526.443 192.962 526.633 192.636C526.823 192.31 527.091 192.065 527.439 191.9C527.786 191.735 528.203 191.653 528.69 191.653C528.977 191.653 529.25 191.683 529.512 191.744C529.777 191.805 530.051 191.882 530.334 191.975L530.135 193.055C529.641 192.883 529.19 192.797 528.781 192.797C528.384 192.797 528.096 192.885 527.917 193.06C527.738 193.232 527.648 193.492 527.648 193.839V194.204H528.792V195.171H527.648V200.016H526.343ZM530.951 200.016H529.646V194.204H530.951V200.016ZM533.971 200.016H532.665V191.766H533.971V200.016ZM538.139 200.123C537.312 200.123 536.641 199.863 536.125 199.344C535.613 198.821 535.357 198.127 535.357 197.26V197.099C535.357 196.519 535.468 196.002 535.69 195.547C535.916 195.089 536.231 194.732 536.635 194.478C537.04 194.224 537.491 194.097 537.989 194.097C538.78 194.097 539.391 194.349 539.82 194.854C540.254 195.359 540.47 196.073 540.47 196.997V197.523H536.673C536.712 198.003 536.872 198.383 537.151 198.662C537.434 198.941 537.788 199.081 538.214 199.081C538.812 199.081 539.299 198.839 539.675 198.356L540.379 199.027C540.146 199.375 539.835 199.645 539.444 199.838C539.058 200.028 538.623 200.123 538.139 200.123ZM537.983 195.144C537.625 195.144 537.335 195.269 537.113 195.52C536.895 195.771 536.755 196.12 536.694 196.567H539.181V196.471C539.153 196.034 539.036 195.704 538.832 195.482C538.628 195.257 538.345 195.144 537.983 195.144ZM483.6 213.016V208.171H482.714V207.204H483.6V206.672C483.6 206.028 483.779 205.53 484.137 205.179C484.495 204.828 484.997 204.653 485.641 204.653C485.87 204.653 486.114 204.685 486.372 204.75L486.339 205.77C486.196 205.741 486.03 205.727 485.84 205.727C485.217 205.727 484.905 206.048 484.905 206.688V207.204H486.087V208.171H484.905V213.016H483.6ZM490.266 208.396C490.094 208.368 489.917 208.354 489.735 208.354C489.137 208.354 488.734 208.583 488.526 209.041V213.016H487.221V207.204H488.467L488.499 207.854C488.814 207.349 489.251 207.097 489.81 207.097C489.996 207.097 490.15 207.122 490.272 207.172L490.266 208.396ZM490.836 210.056C490.836 209.487 490.949 208.975 491.175 208.52C491.4 208.062 491.717 207.711 492.125 207.467C492.534 207.22 493.003 207.097 493.533 207.097C494.317 207.097 494.952 207.349 495.439 207.854C495.93 208.359 496.195 209.028 496.234 209.863L496.24 210.169C496.24 210.742 496.129 211.254 495.907 211.705C495.688 212.156 495.373 212.505 494.961 212.752C494.553 213 494.081 213.123 493.543 213.123C492.723 213.123 492.066 212.851 491.572 212.307C491.082 211.759 490.836 211.03 490.836 210.121V210.056ZM492.142 210.169C492.142 210.767 492.265 211.236 492.512 211.576C492.759 211.913 493.103 212.081 493.543 212.081C493.984 212.081 494.326 211.909 494.569 211.565C494.816 211.222 494.94 210.719 494.94 210.056C494.94 209.469 494.813 209.003 494.559 208.66C494.308 208.316 493.966 208.144 493.533 208.144C493.107 208.144 492.768 208.314 492.518 208.654C492.267 208.991 492.142 209.496 492.142 210.169ZM498.754 207.204L498.792 207.811C499.2 207.335 499.758 207.097 500.467 207.097C501.244 207.097 501.776 207.394 502.063 207.988C502.485 207.394 503.08 207.097 503.846 207.097C504.487 207.097 504.963 207.274 505.275 207.628C505.59 207.983 505.751 208.506 505.758 209.197V213.016H504.453V209.234C504.453 208.866 504.372 208.595 504.211 208.423C504.05 208.251 503.783 208.166 503.411 208.166C503.114 208.166 502.87 208.246 502.68 208.407C502.494 208.565 502.363 208.772 502.288 209.03L502.294 213.016H500.988V209.191C500.971 208.507 500.621 208.166 499.941 208.166C499.418 208.166 499.048 208.379 498.829 208.805V213.016H497.524V207.204H498.754ZM509.96 210.067C509.96 209.172 510.167 208.454 510.583 207.913C510.998 207.369 511.555 207.097 512.253 207.097C512.869 207.097 513.367 207.312 513.746 207.741V204.766H515.051V213.016H513.87L513.805 212.414C513.415 212.887 512.894 213.123 512.242 213.123C511.562 213.123 511.011 212.849 510.588 212.301C510.169 211.753 509.96 211.009 509.96 210.067ZM511.265 210.18C511.265 210.771 511.378 211.232 511.603 211.565C511.832 211.895 512.156 212.06 512.575 212.06C513.109 212.06 513.499 211.821 513.746 211.345V208.864C513.506 208.398 513.12 208.166 512.586 208.166C512.164 208.166 511.838 208.334 511.609 208.67C511.379 209.003 511.265 209.507 511.265 210.18ZM519.156 213.123C518.328 213.123 517.657 212.863 517.141 212.344C516.629 211.821 516.373 211.127 516.373 210.26V210.099C516.373 209.519 516.484 209.002 516.706 208.547C516.932 208.089 517.247 207.732 517.652 207.478C518.056 207.224 518.508 207.097 519.005 207.097C519.797 207.097 520.407 207.349 520.837 207.854C521.27 208.359 521.487 209.073 521.487 209.997V210.523H517.689C517.729 211.003 517.888 211.383 518.167 211.662C518.45 211.941 518.805 212.081 519.231 212.081C519.829 212.081 520.316 211.839 520.692 211.356L521.395 212.027C521.163 212.375 520.851 212.645 520.461 212.838C520.074 213.028 519.639 213.123 519.156 213.123ZM519 208.144C518.642 208.144 518.352 208.269 518.13 208.52C517.911 208.771 517.772 209.12 517.711 209.567H520.198V209.471C520.169 209.034 520.053 208.704 519.849 208.482C519.644 208.257 519.362 208.144 519 208.144ZM524.662 211.361L525.892 207.204H527.24L525.226 213.016H524.092L522.062 207.204H523.416L524.662 211.361ZM529.631 213.016H528.326V207.204H529.631V213.016ZM528.245 205.695C528.245 205.494 528.308 205.328 528.433 205.195C528.562 205.063 528.744 204.997 528.981 204.997C529.217 204.997 529.4 205.063 529.529 205.195C529.658 205.328 529.722 205.494 529.722 205.695C529.722 205.892 529.658 206.056 529.529 206.189C529.4 206.318 529.217 206.382 528.981 206.382C528.744 206.382 528.562 206.318 528.433 206.189C528.308 206.056 528.245 205.892 528.245 205.695ZM533.628 212.081C533.953 212.081 534.224 211.986 534.439 211.796C534.653 211.607 534.768 211.372 534.782 211.093H536.012C535.998 211.454 535.885 211.793 535.674 212.108C535.463 212.419 535.176 212.667 534.815 212.849C534.453 213.032 534.063 213.123 533.644 213.123C532.831 213.123 532.186 212.86 531.71 212.333C531.234 211.807 530.996 211.08 530.996 210.153V210.019C530.996 209.134 531.232 208.427 531.705 207.897C532.177 207.363 532.822 207.097 533.638 207.097C534.329 207.097 534.892 207.299 535.325 207.704C535.762 208.105 535.991 208.633 536.012 209.288H534.782C534.768 208.955 534.653 208.681 534.439 208.466C534.227 208.251 533.957 208.144 533.628 208.144C533.205 208.144 532.879 208.298 532.65 208.606C532.421 208.91 532.304 209.374 532.301 209.997V210.207C532.301 210.837 532.414 211.308 532.639 211.619C532.868 211.927 533.198 212.081 533.628 212.081ZM539.741 213.123C538.913 213.123 538.242 212.863 537.726 212.344C537.214 211.821 536.958 211.127 536.958 210.26V210.099C536.958 209.519 537.069 209.002 537.291 208.547C537.517 208.089 537.832 207.732 538.237 207.478C538.641 207.224 539.092 207.097 539.59 207.097C540.381 207.097 540.992 207.349 541.422 207.854C541.855 208.359 542.072 209.073 542.072 209.997V210.523H538.274C538.314 211.003 538.473 211.383 538.752 211.662C539.035 211.941 539.39 212.081 539.816 212.081C540.414 212.081 540.901 211.839 541.277 211.356L541.98 212.027C541.748 212.375 541.436 212.645 541.046 212.838C540.659 213.028 540.224 213.123 539.741 213.123ZM539.585 208.144C539.227 208.144 538.937 208.269 538.715 208.52C538.496 208.771 538.357 209.12 538.296 209.567H540.783V209.471C540.754 209.034 540.638 208.704 540.433 208.482C540.229 208.257 539.946 208.144 539.585 208.144Z" fill="#383838"/>
<path d="M111.877 118.5H217.61" stroke="#ABABAB" stroke-linecap="square"/>
<path fill-rule="evenodd" clip-rule="evenodd" d="M113.377 121C114.758 121 115.877 119.881 115.877 118.5C115.877 117.119 114.758 116 113.377 116C111.997 116 110.877 117.119 110.877 118.5C110.877 119.881 111.997 121 113.377 121Z" fill="white" stroke="#ABABAB"/>
<path fill-rule="evenodd" clip-rule="evenodd" d="M215.877 121V116L218.877 118.5L215.877 121Z" fill="#ABABAB"/>
<path d="M134.517 118.677C134.517 115.503 137.09 112.931 140.263 112.931L189.477 112.931C192.65 112.931 195.223 115.503 195.223 118.677C195.223 121.85 192.65 124.423 189.477 124.423L140.263 124.423C137.09 124.423 134.517 121.85 134.517 118.677Z" fill="white" stroke="#ABABAB"/>
<path d="M152.248 119.722H149.568L148.966 121.392H148.096L150.539 114.993H151.277L153.725 121.392H152.859L152.248 119.722ZM149.823 119.027H151.998L150.908 116.035L149.823 119.027ZM154.411 118.975C154.411 118.245 154.584 117.659 154.93 117.217C155.275 116.771 155.728 116.549 156.288 116.549C156.844 116.549 157.285 116.739 157.61 117.12V114.642H158.423V121.392H157.676L157.637 120.882C157.312 121.28 156.859 121.479 156.279 121.479C155.728 121.479 155.278 121.254 154.93 120.803C154.584 120.352 154.411 119.763 154.411 119.036V118.975ZM155.224 119.067C155.224 119.606 155.335 120.028 155.558 120.333C155.781 120.637 156.088 120.79 156.481 120.79C156.997 120.79 157.373 120.558 157.61 120.095V117.911C157.367 117.463 156.994 117.239 156.49 117.239C156.091 117.239 155.781 117.393 155.558 117.7C155.335 118.008 155.224 118.463 155.224 119.067ZM159.641 118.975C159.641 118.245 159.814 117.659 160.16 117.217C160.506 116.771 160.958 116.549 161.518 116.549C162.074 116.549 162.515 116.739 162.84 117.12V114.642H163.653V121.392H162.906L162.867 120.882C162.542 121.28 162.089 121.479 161.509 121.479C160.958 121.479 160.508 121.254 160.16 120.803C159.814 120.352 159.641 119.763 159.641 119.036V118.975ZM160.454 119.067C160.454 119.606 160.566 120.028 160.788 120.333C161.011 120.637 161.319 120.79 161.711 120.79C162.227 120.79 162.603 120.558 162.84 120.095V117.911C162.597 117.463 162.224 117.239 161.72 117.239C161.321 117.239 161.011 117.393 160.788 117.7C160.566 118.008 160.454 118.463 160.454 119.067ZM167.724 121.392V117.265H166.973V116.637H167.724V116.232C167.724 115.702 167.875 115.289 168.177 114.993C168.481 114.697 168.91 114.549 169.464 114.549C169.792 114.549 170.207 114.639 170.708 114.817L170.572 115.503C170.205 115.356 169.857 115.283 169.526 115.283C169.177 115.283 168.925 115.362 168.77 115.521C168.618 115.676 168.541 115.91 168.541 116.224V116.637H169.513V117.265H168.541V121.392H167.724ZM171.112 121.392H170.295V116.637H171.112V121.392ZM173.468 121.392H172.655V114.642H173.468V121.392ZM176.897 121.479C176.252 121.479 175.728 121.269 175.323 120.847C174.919 120.422 174.717 119.855 174.717 119.146V118.997C174.717 118.525 174.806 118.104 174.985 117.735C175.167 117.363 175.419 117.073 175.741 116.865C176.066 116.654 176.418 116.549 176.795 116.549C177.414 116.549 177.894 116.752 178.237 117.16C178.58 117.567 178.751 118.15 178.751 118.909V119.247H175.53C175.542 119.716 175.678 120.095 175.939 120.385C176.202 120.672 176.536 120.816 176.94 120.816C177.228 120.816 177.471 120.757 177.67 120.64C177.869 120.523 178.044 120.368 178.193 120.174L178.69 120.561C178.291 121.173 177.693 121.479 176.897 121.479ZM176.795 117.217C176.467 117.217 176.192 117.337 175.969 117.577C175.747 117.814 175.609 118.148 175.556 118.579H177.938V118.518C177.915 118.104 177.803 117.785 177.604 117.56C177.405 117.331 177.135 117.217 176.795 117.217Z" fill="#383838"/>
<path d="M845.56 203.123H957.56C963.083 203.123 967.56 198.646 967.56 193.123V116.639" stroke="#ABABAB"/>
<path fill-rule="evenodd" clip-rule="evenodd" d="M850.56 202.623C850.56 201.242 849.441 200.123 848.06 200.123C846.68 200.123 845.56 201.242 845.56 202.623C845.56 204.004 846.68 205.123 848.06 205.123C849.441 205.123 850.56 204.004 850.56 202.623Z" fill="white" stroke="#ABABAB"/>
<path fill-rule="evenodd" clip-rule="evenodd" d="M970.56 118.123H964.56L967.56 115.123L970.56 118.123Z" fill="#ABABAB"/>
<path d="M871.06 202.623C871.06 199.309 873.747 196.623 877.06 196.623H927.06C930.374 196.623 933.06 199.309 933.06 202.623C933.06 205.937 930.374 208.623 927.06 208.623H877.06C873.747 208.623 871.06 205.937 871.06 202.623Z" fill="white" stroke="#ABABAB"/>
<path d="M882.687 203.093C882.608 203.77 882.357 204.292 881.935 204.662C881.516 205.028 880.958 205.211 880.261 205.211C879.505 205.211 878.899 204.94 878.442 204.398C877.987 203.856 877.76 203.131 877.76 202.223V201.607C877.76 201.013 877.866 200.49 878.077 200.039C878.291 199.587 878.592 199.242 878.982 199.001C879.372 198.758 879.823 198.637 880.336 198.637C881.015 198.637 881.56 198.827 881.97 199.208C882.381 199.586 882.619 200.11 882.687 200.781H881.839C881.765 200.271 881.606 199.902 881.36 199.674C881.116 199.445 880.775 199.331 880.336 199.331C879.797 199.331 879.373 199.53 879.066 199.929C878.761 200.327 878.609 200.894 878.609 201.629V202.249C878.609 202.943 878.754 203.496 879.044 203.906C879.334 204.316 879.739 204.521 880.261 204.521C880.73 204.521 881.089 204.416 881.338 204.205C881.59 203.991 881.756 203.62 881.839 203.093H882.687ZM884.748 205.123H883.935V198.373H884.748V205.123ZM887.087 205.123H886.274V200.368H887.087V205.123ZM886.208 199.107C886.208 198.975 886.247 198.864 886.327 198.773C886.409 198.682 886.529 198.637 886.687 198.637C886.845 198.637 886.965 198.682 887.047 198.773C887.129 198.864 887.17 198.975 887.17 199.107C887.17 199.239 887.129 199.349 887.047 199.437C886.965 199.524 886.845 199.568 886.687 199.568C886.529 199.568 886.409 199.524 886.327 199.437C886.247 199.349 886.208 199.239 886.208 199.107ZM890.449 204.547C890.739 204.547 890.993 204.459 891.209 204.284C891.426 204.108 891.546 203.888 891.57 203.625H892.339C892.324 203.897 892.23 204.156 892.058 204.402C891.885 204.648 891.653 204.845 891.363 204.991C891.076 205.138 890.771 205.211 890.449 205.211C889.802 205.211 889.286 204.996 888.902 204.565C888.521 204.131 888.331 203.54 888.331 202.79V202.653C888.331 202.19 888.416 201.779 888.586 201.418C888.756 201.058 888.999 200.778 889.315 200.579C889.635 200.38 890.011 200.28 890.445 200.28C890.978 200.28 891.42 200.44 891.772 200.759C892.126 201.079 892.315 201.493 892.339 202.003H891.57C891.546 201.695 891.429 201.443 891.218 201.247C891.01 201.048 890.752 200.948 890.445 200.948C890.032 200.948 889.711 201.098 889.482 201.396C889.257 201.692 889.144 202.122 889.144 202.684V202.838C889.144 203.386 889.257 203.808 889.482 204.104C889.708 204.399 890.03 204.547 890.449 204.547ZM894.73 202.921L894.22 203.453V205.123H893.407V198.373H894.22V202.456L894.655 201.933L896.136 200.368H897.125L895.275 202.354L897.34 205.123H896.387L894.73 202.921ZM900.281 202.702C900.281 202.236 900.372 201.817 900.554 201.445C900.739 201.073 900.993 200.786 901.319 200.583C901.647 200.381 902.02 200.28 902.439 200.28C903.087 200.28 903.61 200.504 904.008 200.953C904.409 201.401 904.61 201.997 904.61 202.741V202.798C904.61 203.261 904.521 203.677 904.342 204.046C904.166 204.413 903.913 204.698 903.582 204.903C903.254 205.108 902.876 205.211 902.448 205.211C901.803 205.211 901.281 204.987 900.879 204.539C900.481 204.09 900.281 203.497 900.281 202.759V202.702ZM901.099 202.798C901.099 203.326 901.22 203.749 901.464 204.068C901.71 204.388 902.038 204.547 902.448 204.547C902.861 204.547 903.189 204.386 903.432 204.064C903.676 203.739 903.797 203.285 903.797 202.702C903.797 202.18 903.673 201.758 903.424 201.436C903.177 201.111 902.849 200.948 902.439 200.948C902.038 200.948 901.714 201.108 901.468 201.427C901.222 201.747 901.099 202.204 901.099 202.798ZM906.549 200.368L906.575 200.966C906.938 200.509 907.413 200.28 907.999 200.28C909.004 200.28 909.511 200.847 909.519 201.981V205.123H908.706V201.977C908.703 201.634 908.624 201.38 908.469 201.216C908.317 201.052 908.078 200.97 907.753 200.97C907.489 200.97 907.258 201.041 907.058 201.181C906.859 201.322 906.704 201.506 906.593 201.735V205.123H905.78V200.368H906.549ZM913.55 205.123V200.997H912.799V200.368H913.55V199.964C913.55 199.434 913.701 199.021 914.003 198.725C914.308 198.429 914.737 198.281 915.291 198.281C915.619 198.281 916.033 198.37 916.534 198.549L916.398 199.234C916.032 199.088 915.683 199.015 915.352 199.015C915.003 199.015 914.752 199.094 914.596 199.252C914.444 199.407 914.368 199.642 914.368 199.955V200.368H915.339V200.997H914.368V205.123H913.55ZM916.939 205.123H916.121V200.368H916.939V205.123ZM919.295 205.123H918.482V198.373H919.295V205.123ZM922.723 205.211C922.078 205.211 921.554 205 921.15 204.578C920.745 204.153 920.543 203.586 920.543 202.877V202.728C920.543 202.256 920.633 201.836 920.811 201.467C920.993 201.095 921.245 200.805 921.567 200.597C921.892 200.386 922.244 200.28 922.622 200.28C923.24 200.28 923.72 200.484 924.063 200.891C924.406 201.298 924.577 201.881 924.577 202.64V202.979H921.356C921.368 203.447 921.504 203.827 921.765 204.117C922.029 204.404 922.363 204.547 922.767 204.547C923.054 204.547 923.297 204.489 923.496 204.372C923.696 204.254 923.87 204.099 924.019 203.906L924.516 204.292C924.117 204.905 923.52 205.211 922.723 205.211ZM922.622 200.948C922.294 200.948 922.018 201.068 921.796 201.309C921.573 201.546 921.435 201.88 921.383 202.311H923.764V202.249C923.741 201.836 923.63 201.517 923.43 201.291C923.231 201.062 922.962 200.948 922.622 200.948Z" fill="#383838"/>
<path d="M700.938 29.769L957.938 29.769C963.461 29.769 967.938 34.2462 967.938 39.769V73.2531" stroke="#ABABAB"/>
<path fill-rule="evenodd" clip-rule="evenodd" d="M705.938 30.269C705.938 31.6498 704.818 32.769 703.438 32.769C702.057 32.769 700.938 31.6498 700.938 30.269C700.938 28.8883 702.057 27.769 703.438 27.769C704.818 27.769 705.938 28.8883 705.938 30.269Z" fill="white" stroke="#ABABAB"/>
<path fill-rule="evenodd" clip-rule="evenodd" d="M970.938 71.769H964.938L967.938 74.769L970.938 71.769Z" fill="#ABABAB"/>
<path d="M263.819 159.359L263.86 174.686C263.874 180.208 259.409 184.695 253.886 184.706L58.9131 185.108C53.38 185.119 48.8867 180.635 48.8867 175.102L48.8863 141.404" stroke="#ABABAB"/>
<path fill-rule="evenodd" clip-rule="evenodd" d="M260.823 160.689C260.819 159.032 262.158 157.686 263.815 157.683C265.472 157.679 266.819 159.019 266.823 160.676C266.827 162.333 265.488 163.679 263.831 163.683C262.174 163.686 260.827 162.346 260.823 160.689Z" fill="white" stroke="#ABABAB"/>
<path fill-rule="evenodd" clip-rule="evenodd" d="M45.8179 141.469L51.8179 141.457L48.81 138.49L45.8179 141.469Z" fill="#ABABAB"/>
<path d="M141.136 184.877C141.135 181.563 143.821 178.877 147.135 178.878L180.135 178.886C183.448 178.887 186.135 181.574 186.136 184.888C186.137 188.202 183.452 190.887 180.138 190.886L147.138 190.878C143.824 190.877 141.137 188.19 141.136 184.877Z" fill="white" stroke="#ABABAB"/>
<path d="M154.438 185.35C154.359 186.026 154.109 186.549 153.687 186.918C153.268 187.284 152.71 187.467 152.013 187.467C151.257 187.467 150.65 187.196 150.193 186.654C149.739 186.112 149.512 185.386 149.511 184.478L149.511 183.863C149.511 183.268 149.616 182.745 149.827 182.294C150.041 181.843 150.343 181.497 150.732 181.257C151.122 181.014 151.573 180.893 152.086 180.893C152.765 180.893 153.31 181.084 153.721 181.465C154.131 181.843 154.37 182.367 154.437 183.038L153.589 183.038C153.516 182.528 153.356 182.159 153.11 181.93C152.867 181.702 152.525 181.587 152.086 181.587C151.547 181.587 151.123 181.786 150.816 182.185C150.511 182.583 150.359 183.15 150.359 183.885L150.36 184.505C150.36 185.199 150.505 185.751 150.795 186.162C151.085 186.572 151.491 186.777 152.013 186.777C152.481 186.777 152.84 186.672 153.089 186.461C153.341 186.247 153.508 185.877 153.59 185.349L154.438 185.35ZM158.552 187.381C158.505 187.287 158.467 187.12 158.438 186.88C158.06 187.272 157.609 187.469 157.085 187.468C156.616 187.468 156.231 187.336 155.929 187.073C155.63 186.806 155.48 186.469 155.48 186.062C155.48 185.567 155.667 185.183 156.042 184.911C156.42 184.635 156.95 184.498 157.633 184.498L158.424 184.498L158.424 184.125C158.424 183.84 158.339 183.615 158.169 183.448C157.999 183.278 157.748 183.193 157.417 183.193C157.127 183.193 156.884 183.266 156.688 183.412C156.492 183.559 156.394 183.736 156.394 183.944L155.576 183.944C155.576 183.706 155.66 183.478 155.827 183.258C155.996 183.036 156.225 182.86 156.512 182.731C156.802 182.602 157.12 182.538 157.466 182.538C158.013 182.538 158.443 182.676 158.753 182.951C159.064 183.224 159.225 183.6 159.237 184.081L159.238 186.269C159.238 186.706 159.293 187.053 159.405 187.311L159.405 187.381L158.552 187.381ZM157.203 186.761C157.458 186.761 157.7 186.695 157.928 186.563C158.157 186.432 158.322 186.26 158.425 186.049L158.424 185.074L157.787 185.074C156.791 185.073 156.293 185.365 156.293 185.948C156.293 186.203 156.378 186.402 156.548 186.545C156.718 186.689 156.936 186.761 157.203 186.761ZM161.43 182.627L161.457 183.224C161.82 182.767 162.294 182.539 162.88 182.539C163.885 182.539 164.392 183.106 164.401 184.24L164.402 187.382L163.589 187.382L163.588 184.236C163.585 183.893 163.506 183.639 163.351 183.475C163.198 183.311 162.959 183.229 162.634 183.229C162.371 183.229 162.139 183.299 161.94 183.44C161.741 183.58 161.586 183.765 161.474 183.993L161.475 187.382L160.662 187.381L160.661 182.627L161.43 182.627ZM167.685 186.808C167.975 186.808 168.229 186.72 168.445 186.544C168.662 186.368 168.782 186.149 168.806 185.885L169.575 185.885C169.56 186.158 169.466 186.417 169.294 186.663C169.121 186.909 168.889 187.105 168.599 187.252C168.312 187.398 168.008 187.471 167.685 187.471C167.038 187.471 166.522 187.255 166.138 186.825C165.757 186.391 165.567 185.799 165.567 185.049L165.567 184.913C165.566 184.45 165.651 184.038 165.821 183.678C165.991 183.318 166.234 183.038 166.55 182.839C166.87 182.64 167.246 182.54 167.68 182.54C168.213 182.541 168.655 182.7 169.007 183.02C169.361 183.339 169.551 183.754 169.574 184.264L168.805 184.263C168.782 183.956 168.664 183.704 168.453 183.507C168.245 183.308 167.987 183.208 167.68 183.208C167.267 183.208 166.946 183.358 166.718 183.656C166.492 183.952 166.379 184.381 166.38 184.944L166.38 185.098C166.38 185.646 166.493 186.067 166.718 186.363C166.944 186.659 167.266 186.807 167.685 186.808ZM172.612 187.472C171.968 187.472 171.443 187.261 171.039 186.839C170.634 186.414 170.432 185.847 170.432 185.138L170.432 184.989C170.432 184.517 170.521 184.097 170.7 183.728C170.881 183.356 171.133 183.066 171.455 182.858C171.78 182.647 172.132 182.542 172.51 182.542C173.128 182.542 173.608 182.746 173.951 183.153C174.294 183.56 174.466 184.143 174.466 184.902L174.466 185.24L171.245 185.24C171.257 185.708 171.393 186.088 171.654 186.378C171.918 186.665 172.252 186.809 172.656 186.809C172.943 186.809 173.186 186.75 173.385 186.633C173.585 186.516 173.759 186.361 173.908 186.167L174.405 186.554C174.007 187.167 173.409 187.473 172.612 187.472ZM172.51 183.21C172.182 183.21 171.907 183.33 171.684 183.57C171.461 183.807 171.324 184.141 171.271 184.572L173.653 184.572L173.653 184.511C173.629 184.098 173.518 183.778 173.319 183.553C173.119 183.324 172.85 183.21 172.51 183.21ZM176.445 187.385L175.632 187.385L175.63 180.635L176.443 180.635L176.445 187.385Z" fill="#383838"/>
</svg>
