<svg width="311" height="86" viewBox="0 0 311 86" fill="none" xmlns="http://www.w3.org/2000/svg">
<rect x="138" width="55" height="55" fill="#C4C4C4"/>
<path d="M151.903 22.6943C151.566 23.1774 151.094 23.5397 150.488 23.7812C149.887 24.0182 149.185 24.1367 148.383 24.1367C147.572 24.1367 146.852 23.9476 146.223 23.5693C145.594 23.1865 145.106 22.6442 144.76 21.9424C144.418 21.2406 144.243 20.4271 144.233 19.502V18.6338C144.233 17.1344 144.582 15.9723 145.279 15.1475C145.981 14.3226 146.966 13.9102 148.232 13.9102C149.272 13.9102 150.108 14.1768 150.741 14.71C151.375 15.2386 151.762 15.9906 151.903 16.9658H150.591C150.345 15.6488 149.561 14.9902 148.239 14.9902C147.36 14.9902 146.692 15.3001 146.236 15.9199C145.785 16.5352 145.557 17.4284 145.553 18.5996V19.4131C145.553 20.5296 145.808 21.4183 146.318 22.0791C146.829 22.7354 147.519 23.0635 148.39 23.0635C148.882 23.0635 149.313 23.0088 149.682 22.8994C150.051 22.79 150.356 22.6055 150.598 22.3457V20.1104H148.294V19.0439H151.903V22.6943ZM153.564 20.2334C153.564 19.5088 153.706 18.8571 153.988 18.2783C154.275 17.6995 154.672 17.2529 155.178 16.9385C155.688 16.624 156.269 16.4668 156.921 16.4668C157.928 16.4668 158.742 16.8154 159.361 17.5127C159.986 18.21 160.298 19.1374 160.298 20.2949V20.3838C160.298 21.1038 160.159 21.751 159.881 22.3252C159.607 22.8949 159.213 23.3392 158.698 23.6582C158.188 23.9772 157.6 24.1367 156.935 24.1367C155.932 24.1367 155.119 23.7881 154.494 23.0908C153.874 22.3936 153.564 21.4707 153.564 20.3223V20.2334ZM154.836 20.3838C154.836 21.2041 155.025 21.8626 155.403 22.3594C155.786 22.8561 156.297 23.1045 156.935 23.1045C157.577 23.1045 158.088 22.8538 158.466 22.3525C158.844 21.8467 159.033 21.1403 159.033 20.2334C159.033 19.4222 158.84 18.766 158.452 18.2646C158.069 17.7588 157.559 17.5059 156.921 17.5059C156.297 17.5059 155.793 17.7542 155.41 18.251C155.027 18.7477 154.836 19.4587 154.836 20.3838ZM161.549 20.2334C161.549 19.5088 161.69 18.8571 161.973 18.2783C162.26 17.6995 162.656 17.2529 163.162 16.9385C163.673 16.624 164.254 16.4668 164.905 16.4668C165.912 16.4668 166.726 16.8154 167.346 17.5127C167.97 18.21 168.282 19.1374 168.282 20.2949V20.3838C168.282 21.1038 168.143 21.751 167.865 22.3252C167.592 22.8949 167.198 23.3392 166.683 23.6582C166.172 23.9772 165.584 24.1367 164.919 24.1367C163.916 24.1367 163.103 23.7881 162.479 23.0908C161.859 22.3936 161.549 21.4707 161.549 20.3223V20.2334ZM162.82 20.3838C162.82 21.2041 163.009 21.8626 163.388 22.3594C163.771 22.8561 164.281 23.1045 164.919 23.1045C165.562 23.1045 166.072 22.8538 166.45 22.3525C166.828 21.8467 167.018 21.1403 167.018 20.2334C167.018 19.4222 166.824 18.766 166.437 18.2646C166.054 17.7588 165.543 17.5059 164.905 17.5059C164.281 17.5059 163.777 17.7542 163.395 18.251C163.012 18.7477 162.82 19.4587 162.82 20.3838ZM169.567 20.2402C169.567 19.0872 169.834 18.1712 170.367 17.4922C170.9 16.8086 171.607 16.4668 172.486 16.4668C173.389 16.4668 174.093 16.7858 174.599 17.4238L174.66 16.6035H175.815V23.8223C175.815 24.7793 175.531 25.5335 174.961 26.085C174.396 26.6364 173.635 26.9121 172.678 26.9121C172.145 26.9121 171.623 26.7982 171.112 26.5703C170.602 26.3424 170.212 26.0303 169.943 25.6338L170.6 24.875C171.142 25.5449 171.805 25.8799 172.589 25.8799C173.204 25.8799 173.683 25.7067 174.024 25.3604C174.371 25.014 174.544 24.5264 174.544 23.8975V23.2617C174.038 23.8451 173.348 24.1367 172.473 24.1367C171.607 24.1367 170.905 23.7881 170.367 23.0908C169.834 22.3936 169.567 21.4434 169.567 20.2402ZM170.839 20.3838C170.839 21.2178 171.01 21.874 171.352 22.3525C171.693 22.8265 172.172 23.0635 172.787 23.0635C173.585 23.0635 174.17 22.7012 174.544 21.9766V18.5996C174.157 17.8932 173.576 17.54 172.801 17.54C172.186 17.54 171.705 17.7793 171.358 18.2578C171.012 18.7363 170.839 19.445 170.839 20.3838ZM179.104 24H177.839V13.5H179.104V24ZM184.203 24.1367C183.201 24.1367 182.385 23.8086 181.756 23.1523C181.127 22.4915 180.813 21.6097 180.813 20.5068V20.2744C180.813 19.5407 180.952 18.8867 181.23 18.3125C181.512 17.7337 181.904 17.2826 182.405 16.959C182.911 16.6309 183.458 16.4668 184.046 16.4668C185.008 16.4668 185.755 16.7835 186.288 17.417C186.821 18.0505 187.088 18.9574 187.088 20.1377V20.6641H182.077C182.095 21.3932 182.307 21.9834 182.713 22.4346C183.123 22.8812 183.643 23.1045 184.272 23.1045C184.718 23.1045 185.096 23.0133 185.406 22.8311C185.716 22.6488 185.987 22.4072 186.22 22.1064L186.992 22.708C186.372 23.6605 185.443 24.1367 184.203 24.1367ZM184.046 17.5059C183.536 17.5059 183.107 17.6927 182.761 18.0664C182.414 18.4355 182.2 18.9551 182.118 19.625H185.823V19.5293C185.787 18.8867 185.614 18.39 185.304 18.0391C184.994 17.6836 184.575 17.5059 184.046 17.5059ZM152.293 38.9268H157.01V40H150.974V30.0469H152.293V38.9268ZM157.974 36.2334C157.974 35.5088 158.115 34.8571 158.397 34.2783C158.685 33.6995 159.081 33.2529 159.587 32.9385C160.097 32.624 160.678 32.4668 161.33 32.4668C162.337 32.4668 163.151 32.8154 163.771 33.5127C164.395 34.21 164.707 35.1374 164.707 36.2949V36.3838C164.707 37.1038 164.568 37.751 164.29 38.3252C164.017 38.8949 163.622 39.3392 163.107 39.6582C162.597 39.9772 162.009 40.1367 161.344 40.1367C160.341 40.1367 159.528 39.7881 158.903 39.0908C158.284 38.3936 157.974 37.4707 157.974 36.3223V36.2334ZM159.245 36.3838C159.245 37.2041 159.434 37.8626 159.813 38.3594C160.195 38.8561 160.706 39.1045 161.344 39.1045C161.986 39.1045 162.497 38.8538 162.875 38.3525C163.253 37.8467 163.442 37.1403 163.442 36.2334C163.442 35.4222 163.249 34.766 162.861 34.2646C162.479 33.7588 161.968 33.5059 161.33 33.5059C160.706 33.5059 160.202 33.7542 159.819 34.251C159.437 34.7477 159.245 35.4587 159.245 36.3838ZM165.992 36.2402C165.992 35.0872 166.259 34.1712 166.792 33.4922C167.325 32.8086 168.032 32.4668 168.911 32.4668C169.814 32.4668 170.518 32.7858 171.023 33.4238L171.085 32.6035H172.24V39.8223C172.24 40.7793 171.955 41.5335 171.386 42.085C170.821 42.6364 170.06 42.9121 169.103 42.9121C168.569 42.9121 168.048 42.7982 167.537 42.5703C167.027 42.3424 166.637 42.0303 166.368 41.6338L167.024 40.875C167.567 41.5449 168.23 41.8799 169.014 41.8799C169.629 41.8799 170.107 41.7067 170.449 41.3604C170.796 41.014 170.969 40.5264 170.969 39.8975V39.2617C170.463 39.8451 169.772 40.1367 168.897 40.1367C168.032 40.1367 167.33 39.7881 166.792 39.0908C166.259 38.3936 165.992 37.4434 165.992 36.2402ZM167.264 36.3838C167.264 37.2178 167.435 37.874 167.776 38.3525C168.118 38.8265 168.597 39.0635 169.212 39.0635C170.009 39.0635 170.595 38.7012 170.969 37.9766V34.5996C170.581 33.8932 170 33.54 169.226 33.54C168.61 33.54 168.13 33.7793 167.783 34.2578C167.437 34.7363 167.264 35.445 167.264 36.3838ZM173.819 36.2334C173.819 35.5088 173.961 34.8571 174.243 34.2783C174.53 33.6995 174.927 33.2529 175.433 32.9385C175.943 32.624 176.524 32.4668 177.176 32.4668C178.183 32.4668 178.996 32.8154 179.616 33.5127C180.241 34.21 180.553 35.1374 180.553 36.2949V36.3838C180.553 37.1038 180.414 37.751 180.136 38.3252C179.862 38.8949 179.468 39.3392 178.953 39.6582C178.443 39.9772 177.855 40.1367 177.189 40.1367C176.187 40.1367 175.373 39.7881 174.749 39.0908C174.129 38.3936 173.819 37.4707 173.819 36.3223V36.2334ZM175.091 36.3838C175.091 37.2041 175.28 37.8626 175.658 38.3594C176.041 38.8561 176.551 39.1045 177.189 39.1045C177.832 39.1045 178.342 38.8538 178.721 38.3525C179.099 37.8467 179.288 37.1403 179.288 36.2334C179.288 35.4222 179.094 34.766 178.707 34.2646C178.324 33.7588 177.814 33.5059 177.176 33.5059C176.551 33.5059 176.048 33.7542 175.665 34.251C175.282 34.7477 175.091 35.4587 175.091 36.3838Z" fill="black"/>
<path d="M29.6094 76.7422H24.6797V80.7734H30.4062V82H23.1797V70.625H30.3281V71.8594H24.6797V75.5156H29.6094V76.7422ZM33.4141 73.5469L33.4609 74.6094C34.1068 73.7969 34.9505 73.3906 35.9922 73.3906C37.7786 73.3906 38.6797 74.3984 38.6953 76.4141V82H37.25V76.4062C37.2448 75.7969 37.1042 75.3464 36.8281 75.0547C36.5573 74.763 36.1328 74.6172 35.5547 74.6172C35.0859 74.6172 34.6745 74.7422 34.3203 74.9922C33.9661 75.2422 33.6901 75.5703 33.4922 75.9766V82H32.0469V73.5469H33.4141ZM42.8359 71.5V73.5469H44.4141V74.6641H42.8359V79.9062C42.8359 80.2448 42.9062 80.5 43.0469 80.6719C43.1875 80.8385 43.4271 80.9219 43.7656 80.9219C43.9323 80.9219 44.1615 80.8906 44.4531 80.8281V82C44.0729 82.1042 43.7031 82.1562 43.3438 82.1562C42.6979 82.1562 42.2109 81.9609 41.8828 81.5703C41.5547 81.1797 41.3906 80.625 41.3906 79.9062V74.6641H39.8516V73.5469H41.3906V71.5H42.8359ZM49.6172 82.1562C48.4714 82.1562 47.5391 81.7812 46.8203 81.0312C46.1016 80.276 45.7422 79.2682 45.7422 78.0078V77.7422C45.7422 76.9036 45.901 76.1562 46.2188 75.5C46.5417 74.8385 46.9896 74.3229 47.5625 73.9531C48.1406 73.5781 48.7656 73.3906 49.4375 73.3906C50.5365 73.3906 51.3906 73.7526 52 74.4766C52.6094 75.2005 52.9141 76.237 52.9141 77.5859V78.1875H47.1875C47.2083 79.0208 47.4505 79.6953 47.9141 80.2109C48.3828 80.7214 48.9766 80.9766 49.6953 80.9766C50.2057 80.9766 50.638 80.8724 50.9922 80.6641C51.3464 80.4557 51.6562 80.1797 51.9219 79.8359L52.8047 80.5234C52.0964 81.612 51.0339 82.1562 49.6172 82.1562ZM49.4375 74.5781C48.8542 74.5781 48.3646 74.7917 47.9688 75.2188C47.5729 75.6406 47.3281 76.2344 47.2344 77H51.4688V76.8906C51.4271 76.1562 51.2292 75.5885 50.875 75.1875C50.5208 74.7812 50.0417 74.5781 49.4375 74.5781ZM58.6797 74.8438C58.4609 74.8073 58.224 74.7891 57.9688 74.7891C57.0208 74.7891 56.3776 75.1927 56.0391 76V82H54.5938V73.5469H56L56.0234 74.5234C56.4974 73.7682 57.1693 73.3906 58.0391 73.3906C58.3203 73.3906 58.5339 73.4271 58.6797 73.5V74.8438ZM65.9453 71.5V73.5469H67.5234V74.6641H65.9453V79.9062C65.9453 80.2448 66.0156 80.5 66.1562 80.6719C66.2969 80.8385 66.5365 80.9219 66.875 80.9219C67.0417 80.9219 67.2708 80.8906 67.5625 80.8281V82C67.1823 82.1042 66.8125 82.1562 66.4531 82.1562C65.8073 82.1562 65.3203 81.9609 64.9922 81.5703C64.6641 81.1797 64.5 80.625 64.5 79.9062V74.6641H62.9609V73.5469H64.5V71.5H65.9453ZM70.6641 74.5703C71.3047 73.7839 72.138 73.3906 73.1641 73.3906C74.9505 73.3906 75.8516 74.3984 75.8672 76.4141V82H74.4219V76.4062C74.4167 75.7969 74.276 75.3464 74 75.0547C73.7292 74.763 73.3047 74.6172 72.7266 74.6172C72.2578 74.6172 71.8464 74.7422 71.4922 74.9922C71.138 75.2422 70.862 75.5703 70.6641 75.9766V82H69.2188V70H70.6641V74.5703ZM81.5391 82.1562C80.3932 82.1562 79.4609 81.7812 78.7422 81.0312C78.0234 80.276 77.6641 79.2682 77.6641 78.0078V77.7422C77.6641 76.9036 77.8229 76.1562 78.1406 75.5C78.4635 74.8385 78.9115 74.3229 79.4844 73.9531C80.0625 73.5781 80.6875 73.3906 81.3594 73.3906C82.4583 73.3906 83.3125 73.7526 83.9219 74.4766C84.5312 75.2005 84.8359 76.237 84.8359 77.5859V78.1875H79.1094C79.1302 79.0208 79.3724 79.6953 79.8359 80.2109C80.3047 80.7214 80.8984 80.9766 81.6172 80.9766C82.1276 80.9766 82.5599 80.8724 82.9141 80.6641C83.2682 80.4557 83.5781 80.1797 83.8438 79.8359L84.7266 80.5234C84.0182 81.612 82.9557 82.1562 81.5391 82.1562ZM81.3594 74.5781C80.776 74.5781 80.2865 74.7917 79.8906 75.2188C79.4948 75.6406 79.25 76.2344 79.1562 77H83.3906V76.8906C83.349 76.1562 83.151 75.5885 82.7969 75.1875C82.4427 74.7812 81.9635 74.5781 81.3594 74.5781ZM93.2734 80.0391L95.3672 73.5469H96.8438L93.8125 82H92.7109L89.6484 73.5469H91.125L93.2734 80.0391ZM101.633 82.1562C100.487 82.1562 99.5547 81.7812 98.8359 81.0312C98.1172 80.276 97.7578 79.2682 97.7578 78.0078V77.7422C97.7578 76.9036 97.9167 76.1562 98.2344 75.5C98.5573 74.8385 99.0052 74.3229 99.5781 73.9531C100.156 73.5781 100.781 73.3906 101.453 73.3906C102.552 73.3906 103.406 73.7526 104.016 74.4766C104.625 75.2005 104.93 76.237 104.93 77.5859V78.1875H99.2031C99.224 79.0208 99.4661 79.6953 99.9297 80.2109C100.398 80.7214 100.992 80.9766 101.711 80.9766C102.221 80.9766 102.654 80.8724 103.008 80.6641C103.362 80.4557 103.672 80.1797 103.938 79.8359L104.82 80.5234C104.112 81.612 103.049 82.1562 101.633 82.1562ZM101.453 74.5781C100.87 74.5781 100.38 74.7917 99.9844 75.2188C99.5885 75.6406 99.3438 76.2344 99.25 77H103.484V76.8906C103.443 76.1562 103.245 75.5885 102.891 75.1875C102.536 74.7812 102.057 74.5781 101.453 74.5781ZM110.695 74.8438C110.477 74.8073 110.24 74.7891 109.984 74.7891C109.036 74.7891 108.393 75.1927 108.055 76V82H106.609V73.5469H108.016L108.039 74.5234C108.513 73.7682 109.185 73.3906 110.055 73.3906C110.336 73.3906 110.549 73.4271 110.695 73.5V74.8438ZM113.602 82H112.156V73.5469H113.602V82ZM112.039 71.3047C112.039 71.0703 112.109 70.8724 112.25 70.7109C112.396 70.5495 112.609 70.4688 112.891 70.4688C113.172 70.4688 113.385 70.5495 113.531 70.7109C113.677 70.8724 113.75 71.0703 113.75 71.3047C113.75 71.5391 113.677 71.7344 113.531 71.8906C113.385 72.0469 113.172 72.125 112.891 72.125C112.609 72.125 112.396 72.0469 112.25 71.8906C112.109 71.7344 112.039 71.5391 112.039 71.3047ZM116.406 82V74.6641H115.07V73.5469H116.406V72.8281C116.406 71.8854 116.674 71.151 117.211 70.625C117.753 70.099 118.516 69.8359 119.5 69.8359C120.083 69.8359 120.82 69.9948 121.711 70.3125L121.469 71.5312C120.818 71.2708 120.198 71.1406 119.609 71.1406C118.99 71.1406 118.542 71.2812 118.266 71.5625C117.995 71.8385 117.859 72.2552 117.859 72.8125V73.5469H119.586V74.6641H117.859V82H116.406ZM122.43 82H120.977V73.5469H122.43V82ZM128.172 80.9766C128.688 80.9766 129.138 80.8203 129.523 80.5078C129.909 80.1953 130.122 79.8047 130.164 79.3359H131.531C131.505 79.8203 131.339 80.2812 131.031 80.7188C130.724 81.1562 130.312 81.5052 129.797 81.7656C129.286 82.026 128.745 82.1562 128.172 82.1562C127.021 82.1562 126.104 81.7734 125.422 81.0078C124.745 80.237 124.406 79.1849 124.406 77.8516V77.6094C124.406 76.7865 124.557 76.0547 124.859 75.4141C125.161 74.7734 125.594 74.276 126.156 73.9219C126.724 73.5677 127.393 73.3906 128.164 73.3906C129.112 73.3906 129.898 73.6745 130.523 74.2422C131.154 74.8099 131.49 75.5469 131.531 76.4531H130.164C130.122 75.9062 129.914 75.4583 129.539 75.1094C129.169 74.7552 128.711 74.5781 128.164 74.5781C127.43 74.5781 126.859 74.8438 126.453 75.375C126.052 75.901 125.852 76.6641 125.852 77.6641V77.9375C125.852 78.9115 126.052 79.6615 126.453 80.1875C126.854 80.7135 127.427 80.9766 128.172 80.9766ZM138.375 82C138.292 81.8333 138.224 81.5365 138.172 81.1094C137.5 81.8073 136.698 82.1562 135.766 82.1562C134.932 82.1562 134.247 81.9219 133.711 81.4531C133.18 80.9792 132.914 80.3802 132.914 79.6562C132.914 78.776 133.247 78.0938 133.914 77.6094C134.586 77.1198 135.529 76.875 136.742 76.875H138.148V76.2109C138.148 75.7057 137.997 75.3047 137.695 75.0078C137.393 74.7057 136.948 74.5547 136.359 74.5547C135.844 74.5547 135.411 74.6849 135.062 74.9453C134.714 75.2057 134.539 75.5208 134.539 75.8906H133.086C133.086 75.4688 133.234 75.0625 133.531 74.6719C133.833 74.276 134.24 73.9635 134.75 73.7344C135.266 73.5052 135.831 73.3906 136.445 73.3906C137.419 73.3906 138.182 73.6354 138.734 74.125C139.286 74.6094 139.573 75.2786 139.594 76.1328V80.0234C139.594 80.7995 139.693 81.4167 139.891 81.875V82H138.375ZM135.977 80.8984C136.43 80.8984 136.859 80.7812 137.266 80.5469C137.672 80.3125 137.966 80.0078 138.148 79.6328V77.8984H137.016C135.245 77.8984 134.359 78.4167 134.359 79.4531C134.359 79.9062 134.51 80.2604 134.812 80.5156C135.115 80.7708 135.503 80.8984 135.977 80.8984ZM143.82 71.5V73.5469H145.398V74.6641H143.82V79.9062C143.82 80.2448 143.891 80.5 144.031 80.6719C144.172 80.8385 144.411 80.9219 144.75 80.9219C144.917 80.9219 145.146 80.8906 145.438 80.8281V82C145.057 82.1042 144.688 82.1562 144.328 82.1562C143.682 82.1562 143.195 81.9609 142.867 81.5703C142.539 81.1797 142.375 80.625 142.375 79.9062V74.6641H140.836V73.5469H142.375V71.5H143.82ZM148.664 82H147.219V73.5469H148.664V82ZM147.102 71.3047C147.102 71.0703 147.172 70.8724 147.312 70.7109C147.458 70.5495 147.672 70.4688 147.953 70.4688C148.234 70.4688 148.448 70.5495 148.594 70.7109C148.74 70.8724 148.812 71.0703 148.812 71.3047C148.812 71.5391 148.74 71.7344 148.594 71.8906C148.448 72.0469 148.234 72.125 147.953 72.125C147.672 72.125 147.458 72.0469 147.312 71.8906C147.172 71.7344 147.102 71.5391 147.102 71.3047ZM150.602 77.6953C150.602 76.8672 150.763 76.1224 151.086 75.4609C151.414 74.7995 151.867 74.2891 152.445 73.9297C153.029 73.5703 153.693 73.3906 154.438 73.3906C155.589 73.3906 156.518 73.7891 157.227 74.5859C157.94 75.3828 158.297 76.4427 158.297 77.7656V77.8672C158.297 78.6901 158.138 79.4297 157.82 80.0859C157.508 80.737 157.057 81.2448 156.469 81.6094C155.885 81.974 155.214 82.1562 154.453 82.1562C153.307 82.1562 152.378 81.7578 151.664 80.9609C150.956 80.1641 150.602 79.1094 150.602 77.7969V77.6953ZM152.055 77.8672C152.055 78.8047 152.271 79.5573 152.703 80.125C153.141 80.6927 153.724 80.9766 154.453 80.9766C155.188 80.9766 155.771 80.6901 156.203 80.1172C156.635 79.5391 156.852 78.7318 156.852 77.6953C156.852 76.7682 156.63 76.0182 156.188 75.4453C155.75 74.8672 155.167 74.5781 154.438 74.5781C153.724 74.5781 153.148 74.862 152.711 75.4297C152.273 75.9974 152.055 76.8099 152.055 77.8672ZM161.477 73.5469L161.523 74.6094C162.169 73.7969 163.013 73.3906 164.055 73.3906C165.841 73.3906 166.742 74.3984 166.758 76.4141V82H165.312V76.4062C165.307 75.7969 165.167 75.3464 164.891 75.0547C164.62 74.763 164.195 74.6172 163.617 74.6172C163.148 74.6172 162.737 74.7422 162.383 74.9922C162.029 75.2422 161.753 75.5703 161.555 75.9766V82H160.109V73.5469H161.477ZM176.297 80.9766C176.812 80.9766 177.263 80.8203 177.648 80.5078C178.034 80.1953 178.247 79.8047 178.289 79.3359H179.656C179.63 79.8203 179.464 80.2812 179.156 80.7188C178.849 81.1562 178.438 81.5052 177.922 81.7656C177.411 82.026 176.87 82.1562 176.297 82.1562C175.146 82.1562 174.229 81.7734 173.547 81.0078C172.87 80.237 172.531 79.1849 172.531 77.8516V77.6094C172.531 76.7865 172.682 76.0547 172.984 75.4141C173.286 74.7734 173.719 74.276 174.281 73.9219C174.849 73.5677 175.518 73.3906 176.289 73.3906C177.237 73.3906 178.023 73.6745 178.648 74.2422C179.279 74.8099 179.615 75.5469 179.656 76.4531H178.289C178.247 75.9062 178.039 75.4583 177.664 75.1094C177.294 74.7552 176.836 74.5781 176.289 74.5781C175.555 74.5781 174.984 74.8438 174.578 75.375C174.177 75.901 173.977 76.6641 173.977 77.6641V77.9375C173.977 78.9115 174.177 79.6615 174.578 80.1875C174.979 80.7135 175.552 80.9766 176.297 80.9766ZM180.898 77.6953C180.898 76.8672 181.06 76.1224 181.383 75.4609C181.711 74.7995 182.164 74.2891 182.742 73.9297C183.326 73.5703 183.99 73.3906 184.734 73.3906C185.885 73.3906 186.815 73.7891 187.523 74.5859C188.237 75.3828 188.594 76.4427 188.594 77.7656V77.8672C188.594 78.6901 188.435 79.4297 188.117 80.0859C187.805 80.737 187.354 81.2448 186.766 81.6094C186.182 81.974 185.51 82.1562 184.75 82.1562C183.604 82.1562 182.674 81.7578 181.961 80.9609C181.253 80.1641 180.898 79.1094 180.898 77.7969V77.6953ZM182.352 77.8672C182.352 78.8047 182.568 79.5573 183 80.125C183.438 80.6927 184.021 80.9766 184.75 80.9766C185.484 80.9766 186.068 80.6901 186.5 80.1172C186.932 79.5391 187.148 78.7318 187.148 77.6953C187.148 76.7682 186.927 76.0182 186.484 75.4453C186.047 74.8672 185.464 74.5781 184.734 74.5781C184.021 74.5781 183.445 74.862 183.008 75.4297C182.57 75.9974 182.352 76.8099 182.352 77.8672ZM190.055 77.7031C190.055 76.4062 190.362 75.3646 190.977 74.5781C191.591 73.7865 192.396 73.3906 193.391 73.3906C194.38 73.3906 195.164 73.7292 195.742 74.4062V70H197.188V82H195.859L195.789 81.0938C195.211 81.8021 194.406 82.1562 193.375 82.1562C192.396 82.1562 191.596 81.7552 190.977 80.9531C190.362 80.151 190.055 79.1042 190.055 77.8125V77.7031ZM191.5 77.8672C191.5 78.8255 191.698 79.5755 192.094 80.1172C192.49 80.6589 193.036 80.9297 193.734 80.9297C194.651 80.9297 195.32 80.5182 195.742 79.6953V75.8125C195.31 75.0156 194.646 74.6172 193.75 74.6172C193.042 74.6172 192.49 74.8906 192.094 75.4375C191.698 75.9844 191.5 76.7943 191.5 77.8672ZM202.945 82.1562C201.799 82.1562 200.867 81.7812 200.148 81.0312C199.43 80.276 199.07 79.2682 199.07 78.0078V77.7422C199.07 76.9036 199.229 76.1562 199.547 75.5C199.87 74.8385 200.318 74.3229 200.891 73.9531C201.469 73.5781 202.094 73.3906 202.766 73.3906C203.865 73.3906 204.719 73.7526 205.328 74.4766C205.938 75.2005 206.242 76.237 206.242 77.5859V78.1875H200.516C200.536 79.0208 200.779 79.6953 201.242 80.2109C201.711 80.7214 202.305 80.9766 203.023 80.9766C203.534 80.9766 203.966 80.8724 204.32 80.6641C204.674 80.4557 204.984 80.1797 205.25 79.8359L206.133 80.5234C205.424 81.612 204.362 82.1562 202.945 82.1562ZM202.766 74.5781C202.182 74.5781 201.693 74.7917 201.297 75.2188C200.901 75.6406 200.656 76.2344 200.562 77H204.797V76.8906C204.755 76.1562 204.557 75.5885 204.203 75.1875C203.849 74.7812 203.37 74.5781 202.766 74.5781ZM216.812 79.7578C216.812 79.3672 216.664 79.0651 216.367 78.8516C216.076 78.6328 215.562 78.4453 214.828 78.2891C214.099 78.1328 213.518 77.9453 213.086 77.7266C212.659 77.5078 212.341 77.2474 212.133 76.9453C211.93 76.6432 211.828 76.2839 211.828 75.8672C211.828 75.1745 212.12 74.5885 212.703 74.1094C213.292 73.6302 214.042 73.3906 214.953 73.3906C215.911 73.3906 216.688 73.638 217.281 74.1328C217.88 74.6276 218.18 75.2604 218.18 76.0312H216.727C216.727 75.6354 216.557 75.2943 216.219 75.0078C215.885 74.7214 215.464 74.5781 214.953 74.5781C214.427 74.5781 214.016 74.6927 213.719 74.9219C213.422 75.151 213.273 75.4505 213.273 75.8203C213.273 76.1693 213.411 76.4323 213.688 76.6094C213.964 76.7865 214.461 76.9557 215.18 77.1172C215.904 77.2786 216.49 77.4714 216.938 77.6953C217.385 77.9193 217.716 78.1901 217.93 78.5078C218.148 78.8203 218.258 79.2031 218.258 79.6562C218.258 80.4115 217.956 81.0182 217.352 81.4766C216.747 81.9297 215.964 82.1562 215 82.1562C214.323 82.1562 213.724 82.0365 213.203 81.7969C212.682 81.5573 212.273 81.224 211.977 80.7969C211.685 80.3646 211.539 79.8984 211.539 79.3984H212.984C213.01 79.8828 213.203 80.2682 213.562 80.5547C213.927 80.8359 214.406 80.9766 215 80.9766C215.547 80.9766 215.984 80.8672 216.312 80.6484C216.646 80.4245 216.812 80.1276 216.812 79.7578ZM223.648 82.1562C222.503 82.1562 221.57 81.7812 220.852 81.0312C220.133 80.276 219.773 79.2682 219.773 78.0078V77.7422C219.773 76.9036 219.932 76.1562 220.25 75.5C220.573 74.8385 221.021 74.3229 221.594 73.9531C222.172 73.5781 222.797 73.3906 223.469 73.3906C224.568 73.3906 225.422 73.7526 226.031 74.4766C226.641 75.2005 226.945 76.237 226.945 77.5859V78.1875H221.219C221.24 79.0208 221.482 79.6953 221.945 80.2109C222.414 80.7214 223.008 80.9766 223.727 80.9766C224.237 80.9766 224.669 80.8724 225.023 80.6641C225.378 80.4557 225.688 80.1797 225.953 79.8359L226.836 80.5234C226.128 81.612 225.065 82.1562 223.648 82.1562ZM223.469 74.5781C222.885 74.5781 222.396 74.7917 222 75.2188C221.604 75.6406 221.359 76.2344 221.266 77H225.5V76.8906C225.458 76.1562 225.26 75.5885 224.906 75.1875C224.552 74.7812 224.073 74.5781 223.469 74.5781ZM229.992 73.5469L230.039 74.6094C230.685 73.7969 231.529 73.3906 232.57 73.3906C234.357 73.3906 235.258 74.3984 235.273 76.4141V82H233.828V76.4062C233.823 75.7969 233.682 75.3464 233.406 75.0547C233.135 74.763 232.711 74.6172 232.133 74.6172C231.664 74.6172 231.253 74.7422 230.898 74.9922C230.544 75.2422 230.268 75.5703 230.07 75.9766V82H228.625V73.5469H229.992ZM239.414 71.5V73.5469H240.992V74.6641H239.414V79.9062C239.414 80.2448 239.484 80.5 239.625 80.6719C239.766 80.8385 240.005 80.9219 240.344 80.9219C240.51 80.9219 240.74 80.8906 241.031 80.8281V82C240.651 82.1042 240.281 82.1562 239.922 82.1562C239.276 82.1562 238.789 81.9609 238.461 81.5703C238.133 81.1797 237.969 80.625 237.969 79.9062V74.6641H236.43V73.5469H237.969V71.5H239.414ZM248.617 71.5V73.5469H250.195V74.6641H248.617V79.9062C248.617 80.2448 248.688 80.5 248.828 80.6719C248.969 80.8385 249.208 80.9219 249.547 80.9219C249.714 80.9219 249.943 80.8906 250.234 80.8281V82C249.854 82.1042 249.484 82.1562 249.125 82.1562C248.479 82.1562 247.992 81.9609 247.664 81.5703C247.336 81.1797 247.172 80.625 247.172 79.9062V74.6641H245.633V73.5469H247.172V71.5H248.617ZM251.352 77.6953C251.352 76.8672 251.513 76.1224 251.836 75.4609C252.164 74.7995 252.617 74.2891 253.195 73.9297C253.779 73.5703 254.443 73.3906 255.188 73.3906C256.339 73.3906 257.268 73.7891 257.977 74.5859C258.69 75.3828 259.047 76.4427 259.047 77.7656V77.8672C259.047 78.6901 258.888 79.4297 258.57 80.0859C258.258 80.737 257.807 81.2448 257.219 81.6094C256.635 81.974 255.964 82.1562 255.203 82.1562C254.057 82.1562 253.128 81.7578 252.414 80.9609C251.706 80.1641 251.352 79.1094 251.352 77.7969V77.6953ZM252.805 77.8672C252.805 78.8047 253.021 79.5573 253.453 80.125C253.891 80.6927 254.474 80.9766 255.203 80.9766C255.938 80.9766 256.521 80.6901 256.953 80.1172C257.385 79.5391 257.602 78.7318 257.602 77.6953C257.602 76.7682 257.38 76.0182 256.938 75.4453C256.5 74.8672 255.917 74.5781 255.188 74.5781C254.474 74.5781 253.898 74.862 253.461 75.4297C253.023 75.9974 252.805 76.8099 252.805 77.8672Z" fill="black"/>
<path d="M267.594 79.8828L269.562 73.5469H271.109L267.711 83.3047C267.185 84.7109 266.349 85.4141 265.203 85.4141L264.93 85.3906L264.391 85.2891V84.1172L264.781 84.1484C265.271 84.1484 265.651 84.0495 265.922 83.8516C266.198 83.6536 266.424 83.2917 266.602 82.7656L266.922 81.9062L263.906 73.5469H265.484L267.594 79.8828ZM271.898 77.6953C271.898 76.8672 272.06 76.1224 272.383 75.4609C272.711 74.7995 273.164 74.2891 273.742 73.9297C274.326 73.5703 274.99 73.3906 275.734 73.3906C276.885 73.3906 277.815 73.7891 278.523 74.5859C279.237 75.3828 279.594 76.4427 279.594 77.7656V77.8672C279.594 78.6901 279.435 79.4297 279.117 80.0859C278.805 80.737 278.354 81.2448 277.766 81.6094C277.182 81.974 276.51 82.1562 275.75 82.1562C274.604 82.1562 273.674 81.7578 272.961 80.9609C272.253 80.1641 271.898 79.1094 271.898 77.7969V77.6953ZM273.352 77.8672C273.352 78.8047 273.568 79.5573 274 80.125C274.438 80.6927 275.021 80.9766 275.75 80.9766C276.484 80.9766 277.068 80.6901 277.5 80.1172C277.932 79.5391 278.148 78.7318 278.148 77.6953C278.148 76.7682 277.927 76.0182 277.484 75.4453C277.047 74.8672 276.464 74.5781 275.734 74.5781C275.021 74.5781 274.445 74.862 274.008 75.4297C273.57 75.9974 273.352 76.8099 273.352 77.8672ZM286.625 81.1641C286.062 81.8255 285.237 82.1562 284.148 82.1562C283.247 82.1562 282.56 81.8958 282.086 81.375C281.617 80.849 281.38 80.0729 281.375 79.0469V73.5469H282.82V79.0078C282.82 80.2891 283.341 80.9297 284.383 80.9297C285.487 80.9297 286.221 80.5182 286.586 79.6953V73.5469H288.031V82H286.656L286.625 81.1641Z" fill="#FF0000"/>
</svg>
