<svg width="119" height="55" viewBox="0 0 119 55" fill="none" xmlns="http://www.w3.org/2000/svg">
<rect x="0.5" y="21.5" width="118" height="24" rx="4.5" fill="white" stroke="#C4C4C4"/>
<path d="M13.8485 13.736L13.8405 15H6.7765V3.536H13.8405V4.8H8.3285V8.608H12.7925V9.824H8.3285V13.736H13.8485ZM15.4561 15V6.896H16.3121C16.5148 6.896 16.6401 6.99467 16.6881 7.192L16.7921 8.024C17.0908 7.656 17.4268 7.35467 17.8001 7.12C18.1735 6.88533 18.6055 6.768 19.0961 6.768C19.6401 6.768 20.0801 6.92 20.4161 7.224C20.7575 7.528 21.0028 7.93867 21.1521 8.456C21.2695 8.16267 21.4188 7.90933 21.6001 7.696C21.7868 7.48267 21.9948 7.30667 22.2241 7.168C22.4535 7.02933 22.6961 6.928 22.9521 6.864C23.2135 6.8 23.4775 6.768 23.7441 6.768C24.1708 6.768 24.5495 6.83733 24.8801 6.976C25.2161 7.10933 25.4988 7.30667 25.7281 7.568C25.9628 7.82933 26.1415 8.152 26.2641 8.536C26.3868 8.91467 26.4481 9.34933 26.4481 9.84V15H25.0161V9.84C25.0161 9.20533 24.8775 8.72533 24.6001 8.4C24.3228 8.06933 23.9228 7.904 23.4001 7.904C23.1655 7.904 22.9415 7.94667 22.7281 8.032C22.5201 8.112 22.3361 8.232 22.1761 8.392C22.0161 8.552 21.8881 8.75467 21.7921 9C21.7015 9.24 21.6561 9.52 21.6561 9.84V15H20.2241V9.84C20.2241 9.18933 20.0935 8.704 19.8321 8.384C19.5708 8.064 19.1895 7.904 18.6881 7.904C18.3361 7.904 18.0108 8 17.7121 8.192C17.4135 8.37867 17.1388 8.63467 16.8881 8.96V15H15.4561ZM33.0044 11.352C32.3484 11.3733 31.7884 11.4267 31.3244 11.512C30.8657 11.592 30.4897 11.6987 30.1964 11.832C29.9084 11.9653 29.6977 12.1227 29.5644 12.304C29.4364 12.4853 29.3724 12.688 29.3724 12.912C29.3724 13.1253 29.407 13.3093 29.4764 13.464C29.5457 13.6187 29.639 13.7467 29.7564 13.848C29.879 13.944 30.0204 14.016 30.1804 14.064C30.3457 14.1067 30.5217 14.128 30.7084 14.128C30.959 14.128 31.1884 14.104 31.3964 14.056C31.6044 14.0027 31.799 13.928 31.9804 13.832C32.167 13.736 32.343 13.6213 32.5084 13.488C32.679 13.3547 32.8444 13.2027 33.0044 13.032V11.352ZM28.4044 8.04C28.8524 7.608 29.335 7.28533 29.8524 7.072C30.3697 6.85867 30.943 6.752 31.5724 6.752C32.0257 6.752 32.4284 6.82667 32.7804 6.976C33.1324 7.12533 33.4284 7.33333 33.6684 7.6C33.9084 7.86667 34.0897 8.18933 34.2124 8.568C34.335 8.94667 34.3964 9.36267 34.3964 9.816V15H33.7644C33.6257 15 33.519 14.9787 33.4444 14.936C33.3697 14.888 33.311 14.7973 33.2684 14.664L33.1084 13.896C32.895 14.0933 32.687 14.2693 32.4844 14.424C32.2817 14.5733 32.0684 14.7013 31.8444 14.808C31.6204 14.9093 31.3804 14.9867 31.1244 15.04C30.8737 15.0987 30.5937 15.128 30.2844 15.128C29.9697 15.128 29.6737 15.0853 29.3964 15C29.119 14.9093 28.8764 14.776 28.6684 14.6C28.4657 14.424 28.303 14.2027 28.1804 13.936C28.063 13.664 28.0044 13.344 28.0044 12.976C28.0044 12.656 28.0924 12.3493 28.2684 12.056C28.4444 11.7573 28.7297 11.4933 29.1244 11.264C29.519 11.0347 30.0337 10.848 30.6684 10.704C31.303 10.5547 32.0817 10.4693 33.0044 10.448V9.816C33.0044 9.18667 32.8684 8.712 32.5964 8.392C32.3244 8.06667 31.927 7.904 31.4044 7.904C31.0524 7.904 30.7564 7.94933 30.5164 8.04C30.2817 8.12533 30.0764 8.224 29.9004 8.336C29.7297 8.44267 29.5804 8.54133 29.4524 8.632C29.3297 8.71733 29.207 8.76 29.0844 8.76C28.9884 8.76 28.9057 8.736 28.8364 8.688C28.767 8.63467 28.7084 8.57067 28.6604 8.496L28.4044 8.04ZM38.0695 6.896V15H36.6455V6.896H38.0695ZM38.3735 4.352C38.3735 4.49067 38.3442 4.62133 38.2855 4.744C38.2322 4.86133 38.1575 4.968 38.0615 5.064C37.9708 5.15467 37.8615 5.22667 37.7335 5.28C37.6108 5.33333 37.4802 5.36 37.3415 5.36C37.2028 5.36 37.0722 5.33333 36.9495 5.28C36.8322 5.22667 36.7282 5.15467 36.6375 5.064C36.5468 4.968 36.4748 4.86133 36.4215 4.744C36.3682 4.62133 36.3415 4.49067 36.3415 4.352C36.3415 4.21333 36.3682 4.08267 36.4215 3.96C36.4748 3.832 36.5468 3.72267 36.6375 3.632C36.7282 3.536 36.8322 3.46133 36.9495 3.408C37.0722 3.35467 37.2028 3.328 37.3415 3.328C37.4802 3.328 37.6108 3.35467 37.7335 3.408C37.8615 3.46133 37.9708 3.536 38.0615 3.632C38.1575 3.72267 38.2322 3.832 38.2855 3.96C38.3442 4.08267 38.3735 4.21333 38.3735 4.352ZM41.8813 3.216V15H40.4572V3.216H41.8813Z" fill="#C4C4C4"/>
</svg>
