<svg width="601" height="77" viewBox="0 0 601 77" fill="none" xmlns="http://www.w3.org/2000/svg">
<path d="M183 75C189.233 64.05 189.233 12.9502 183 2.00022L370 2C363.767 12.9499 363.767 64.0498 370 75H183Z" stroke="black" stroke-width="3.5"/>
<ellipse cx="276.5" cy="38.4998" rx="11.4507" ry="10.95" fill="black"/>
<path d="M3.68438 56.16L7.04438 55.32V19.48L3.68438 18.64V17.8H33.6444V27.88H31.9644C31.255 27.32 30.639 26.6107 30.1164 25.752C28.9217 23.736 28.3244 21.552 28.3244 19.2H16.2844V36.84H22.7244C22.9857 35.4213 23.471 34.096 24.1804 32.864C24.479 32.304 24.8337 31.7627 25.2444 31.24H26.9244V43.84H25.2444C24.8337 43.3173 24.479 42.776 24.1804 42.216C23.471 40.984 22.9857 39.6587 22.7244 38.24H16.2844V55.6H29.4444C29.4444 53.248 30.0417 51.064 31.2364 49.048C31.759 48.1893 32.375 47.48 33.0844 46.92H34.7644V57H3.68438V56.16ZM38.4044 30.68L35.6044 29.84V29H42.6044C44.5457 29 46.0764 29.4107 47.1964 30.232C48.3537 31.016 49.343 32.192 50.1644 33.76L56.8284 46.696L63.0444 31.52L58.8444 29.84V29H69.2044V29.84L64.7244 31.52L54.0844 57.56H52.4044L38.4044 30.68ZM85.1666 57.84C80.3879 57.84 76.6732 56.5333 74.0226 53.92C71.3719 51.2693 70.0466 47.6293 70.0466 43C70.0466 39.976 70.6252 37.344 71.7826 35.104C72.9399 32.864 74.5452 31.1467 76.5986 29.952C78.6892 28.7573 81.0786 28.16 83.7666 28.16C86.4546 28.16 88.8066 28.664 90.8226 29.672C92.8759 30.68 94.4439 32.0427 95.5266 33.76C96.6466 35.44 97.2066 37.3067 97.2066 39.36C97.2066 40.2933 97.1132 41.096 96.9266 41.768L96.6466 42.72C95.0412 43.056 93.3052 43.336 91.4386 43.56C87.5186 44.12 83.5612 44.4 79.5666 44.4C79.5666 48.7307 80.1639 51.8293 81.3586 53.696C82.5532 55.5253 84.1959 56.44 86.2866 56.44C87.7426 56.44 89.0866 56.104 90.3186 55.432C91.5879 54.7227 92.5772 53.808 93.2866 52.688C94.0332 51.5307 94.4066 50.3547 94.4066 49.16H95.8066C95.8066 50.6533 95.3586 52.072 94.4626 53.416C93.5666 54.76 92.3159 55.8427 90.7106 56.664C89.1052 57.448 87.2572 57.84 85.1666 57.84ZM79.5666 43C81.9559 43 83.8972 42.9067 85.3906 42.72C86.0252 42.6827 86.6972 42.5893 87.4066 42.44C87.4439 42.2533 87.5372 41.8427 87.6866 41.208C87.8732 40.2747 87.9666 39.2853 87.9666 38.24C87.9666 35.1413 87.5559 32.8827 86.7346 31.464C85.9132 30.008 84.9239 29.28 83.7666 29.28C80.9666 29.28 79.5666 33.8533 79.5666 43ZM102.222 56.16L105.582 55.32V30.68L102.222 29.84V29H107.262C109.465 29 111.201 29.7093 112.47 31.128C112.956 31.688 113.366 32.3787 113.702 33.2C114.225 32.2293 114.841 31.3893 115.55 30.68C117.23 29 119.321 28.16 121.822 28.16C123.913 28.16 125.78 28.608 127.422 29.504C129.102 30.3627 130.409 31.5013 131.342 32.92C132.276 34.3387 132.743 35.832 132.743 37.4V55.32L136.103 56.16V57H128.823C125.462 57 123.782 55.32 123.782 51.96V37.4C123.782 35.048 123.353 33.256 122.494 32.024C121.673 30.7547 120.702 30.12 119.582 30.12C118.164 30.12 116.894 30.8667 115.774 32.36C115.289 32.9947 114.878 33.7413 114.542 34.6V55.32L117.902 56.16V57H102.222V56.16ZM154.865 57.84C152.401 57.84 150.254 57.392 148.425 56.496C146.633 55.6 145.251 54.368 144.281 52.8C143.31 51.232 142.825 49.4587 142.825 47.48V30.4H138.905V29H142.825V26.2C142.825 22.84 144.505 21.16 147.865 21.16H151.785V29H159.625V30.4H151.785V47.48C151.785 50.9147 152.139 53.2667 152.849 54.536C153.558 55.8053 154.603 56.44 155.985 56.44C157.329 56.44 158.505 55.7867 159.513 54.48C160.521 53.1733 161.025 51.4 161.025 49.16H162.425C162.425 51.9227 161.734 54.0693 160.353 55.6C158.971 57.0933 157.142 57.84 154.865 57.84Z" fill="black"/>
<path d="M390.552 56.16L393.912 55.32V19.48L390.552 18.64V17.8H404.832C411.514 17.8 416.629 19.5173 420.176 22.952C423.76 26.3867 425.552 31.2027 425.552 37.4C425.552 43.5973 423.76 48.4133 420.176 51.848C416.629 55.2827 411.514 57 404.832 57H390.552V56.16ZM404.832 55.6C408.304 55.6 410.992 54.2 412.896 51.4C414.8 48.5627 415.752 43.896 415.752 37.4C415.752 30.904 414.8 26.256 412.896 23.456C410.992 20.6187 408.304 19.2 404.832 19.2H403.152V55.6H404.832ZM430.863 56.16L434.223 55.32V30.68L430.863 29.84V29H435.903C438.105 29 439.841 29.7093 441.111 31.128C441.596 31.688 442.007 32.3787 442.343 33.2C442.903 32.3787 443.593 31.632 444.415 30.96C446.281 29.4667 448.372 28.72 450.687 28.72C452.665 28.72 454.14 29.1867 455.111 30.12C456.119 31.016 456.623 32.3227 456.623 34.04C456.623 35.3093 456.231 36.336 455.447 37.12C454.7 37.8667 453.692 38.24 452.423 38.24C451.9 38.24 451.377 38.2027 450.855 38.128L450.183 37.96V30.12C448.279 30.12 446.543 30.8667 444.975 32.36C444.228 33.1067 443.631 33.8533 443.183 34.6V55.32L446.543 56.16V57H430.863V56.16ZM469.803 57.84C466.48 57.84 463.923 57.1307 462.131 55.712C460.339 54.2933 459.443 52.4827 459.443 50.28C459.443 48.824 459.76 47.3867 460.395 45.968C460.656 45.296 460.992 44.68 461.403 44.12C462.933 43.7467 464.595 43.4107 466.387 43.112C470.419 42.44 473.984 42.0293 477.083 41.88V40.2C477.083 36.056 476.579 33.2 475.571 31.632C474.563 30.064 473.013 29.28 470.923 29.28C470.139 29.28 469.467 29.3733 468.907 29.56L468.123 29.84V38.24L467.395 38.408C466.797 38.4827 466.293 38.52 465.883 38.52C464.613 38.52 463.587 38.1467 462.803 37.4C462.056 36.616 461.683 35.5893 461.683 34.32C461.683 32.6027 462.541 31.1467 464.259 29.952C466.013 28.7573 468.608 28.16 472.043 28.16C474.955 28.16 477.456 28.6827 479.547 29.728C481.675 30.736 483.28 32.1547 484.363 33.984C485.483 35.776 486.043 37.848 486.043 40.2V55.32L489.403 56.16V57H484.363C482.123 57 480.387 56.3093 479.155 54.928C478.632 54.368 478.221 53.6587 477.923 52.8C477.4 53.7333 476.784 54.5733 476.075 55.32C474.395 57 472.304 57.84 469.803 57.84ZM472.043 55.88C473.424 55.88 474.675 55.1333 475.795 53.64C476.205 53.08 476.635 52.3333 477.083 51.4V43.28C475.365 43.28 473.723 43.3733 472.155 43.56C470.997 43.7093 470.213 43.8027 469.803 43.84C469.616 44.2507 469.429 44.8107 469.243 45.52C468.869 46.9387 468.683 48.3387 468.683 49.72C468.683 51.8107 469 53.36 469.635 54.368C470.269 55.376 471.072 55.88 472.043 55.88ZM491.975 30.68L489.175 29.84V29H495.615C497.594 29 499.162 29.4107 500.319 30.232C501.476 31.0533 502.428 32.2293 503.175 33.76L509.335 46.64L512.527 38.464L508.775 30.68L505.975 29.84V29H512.415C514.394 29 515.962 29.4107 517.119 30.232C518.276 31.0533 519.228 32.2293 519.975 33.76L526.135 46.64L532.015 31.52L527.815 29.84V29H538.175V29.84L533.695 31.52L523.335 57.56H521.655L513.367 40.312L506.535 57.56H504.855L491.975 30.68ZM554.159 57.84C549.38 57.84 545.666 56.5333 543.015 53.92C540.364 51.2693 539.039 47.6293 539.039 43C539.039 39.976 539.618 37.344 540.775 35.104C541.932 32.864 543.538 31.1467 545.591 29.952C547.682 28.7573 550.071 28.16 552.759 28.16C555.447 28.16 557.799 28.664 559.815 29.672C561.868 30.68 563.436 32.0427 564.519 33.76C565.639 35.44 566.199 37.3067 566.199 39.36C566.199 40.2933 566.106 41.096 565.919 41.768L565.639 42.72C564.034 43.056 562.298 43.336 560.431 43.56C556.511 44.12 552.554 44.4 548.559 44.4C548.559 48.7307 549.156 51.8293 550.351 53.696C551.546 55.5253 553.188 56.44 555.279 56.44C556.735 56.44 558.079 56.104 559.311 55.432C560.58 54.7227 561.57 53.808 562.279 52.688C563.026 51.5307 563.399 50.3547 563.399 49.16H564.799C564.799 50.6533 564.351 52.072 563.455 53.416C562.559 54.76 561.308 55.8427 559.703 56.664C558.098 57.448 556.25 57.84 554.159 57.84ZM548.559 43C550.948 43 552.89 42.9067 554.383 42.72C555.018 42.6827 555.69 42.5893 556.399 42.44C556.436 42.2533 556.53 41.8427 556.679 41.208C556.866 40.2747 556.959 39.2853 556.959 38.24C556.959 35.1413 556.548 32.8827 555.727 31.464C554.906 30.008 553.916 29.28 552.759 29.28C549.959 29.28 548.559 33.8533 548.559 43ZM571.215 56.16L574.575 55.32V30.68L571.215 29.84V29H576.255C578.458 29 580.194 29.7093 581.463 31.128C581.948 31.688 582.359 32.3787 582.695 33.2C583.255 32.3787 583.946 31.632 584.767 30.96C586.634 29.4667 588.724 28.72 591.039 28.72C593.018 28.72 594.492 29.1867 595.463 30.12C596.471 31.016 596.975 32.3227 596.975 34.04C596.975 35.3093 596.583 36.336 595.799 37.12C595.052 37.8667 594.044 38.24 592.775 38.24C592.252 38.24 591.73 38.2027 591.207 38.128L590.535 37.96V30.12C588.631 30.12 586.895 30.8667 585.327 32.36C584.58 33.1067 583.983 33.8533 583.535 34.6V55.32L586.895 56.16V57H571.215V56.16Z" fill="black"/>
</svg>
