<svg width="237" height="98" viewBox="0 0 237 98" fill="none" xmlns="http://www.w3.org/2000/svg">
<rect x="1" y="26" width="37" height="35" fill="#C4C4C4"/>
<path d="M20.6733 42.7036H26.0259V45.0107H20.6733V51.0752H18.2212V45.0107H12.8687V42.7036H18.2212V37.1006H20.6733V42.7036Z" fill="black"/>
<rect x="84" y="26" width="36" height="35" fill="#C4C4C4"/>
<path d="M106.018 45.9854H97.916V43.4785H106.018V45.9854Z" fill="black"/>
<rect x="166" y="26" width="37" height="35" fill="#C4C4C4"/>
<path d="M13.6826 78.4023H9.5127L8.57617 81H7.22266L11.0234 71.0469H12.1719L15.9795 81H14.6328L13.6826 78.4023ZM9.90918 77.3223H13.293L11.5977 72.667L9.90918 77.3223ZM16.8135 77.2402C16.8135 76.1055 17.0824 75.194 17.6201 74.5059C18.1579 73.8132 18.862 73.4668 19.7324 73.4668C20.5983 73.4668 21.2842 73.763 21.79 74.3555V70.5H23.0547V81H21.8926L21.8311 80.207C21.3252 80.8268 20.6211 81.1367 19.7188 81.1367C18.862 81.1367 18.1624 80.7858 17.6201 80.084C17.0824 79.3822 16.8135 78.4661 16.8135 77.3359V77.2402ZM18.0781 77.3838C18.0781 78.2223 18.2513 78.8786 18.5977 79.3525C18.944 79.8265 19.4225 80.0635 20.0332 80.0635C20.8353 80.0635 21.4209 79.7035 21.79 78.9834V75.5859C21.4118 74.8887 20.8307 74.54 20.0469 74.54C19.4271 74.54 18.944 74.7793 18.5977 75.2578C18.2513 75.7363 18.0781 76.445 18.0781 77.3838ZM24.7158 77.2402C24.7158 76.1055 24.9847 75.194 25.5225 74.5059C26.0602 73.8132 26.7643 73.4668 27.6348 73.4668C28.5007 73.4668 29.1865 73.763 29.6924 74.3555V70.5H30.957V81H29.7949L29.7334 80.207C29.2275 80.8268 28.5234 81.1367 27.6211 81.1367C26.7643 81.1367 26.0648 80.7858 25.5225 80.084C24.9847 79.3822 24.7158 78.4661 24.7158 77.3359V77.2402ZM25.9805 77.3838C25.9805 78.2223 26.1536 78.8786 26.5 79.3525C26.8464 79.8265 27.3249 80.0635 27.9355 80.0635C28.7376 80.0635 29.3232 79.7035 29.6924 78.9834V75.5859C29.3141 74.8887 28.7331 74.54 27.9492 74.54C27.3294 74.54 26.8464 74.7793 26.5 75.2578C26.1536 75.7363 25.9805 76.445 25.9805 77.3838Z" fill="black"/>
<path d="M81.6494 76.9736H79.3115V81H77.9922V71.0469H81.2871C82.4082 71.0469 83.2695 71.3021 83.8711 71.8125C84.4772 72.3229 84.7803 73.0658 84.7803 74.041C84.7803 74.6608 84.6117 75.2008 84.2744 75.6611C83.9417 76.1214 83.4769 76.4655 82.8799 76.6934L85.2178 80.918V81H83.8096L81.6494 76.9736ZM79.3115 75.9004H81.3281C81.9798 75.9004 82.4971 75.7318 82.8799 75.3945C83.2673 75.0573 83.4609 74.6061 83.4609 74.041C83.4609 73.4258 83.2764 72.9541 82.9072 72.626C82.5426 72.2979 82.014 72.1315 81.3213 72.127H79.3115V75.9004ZM89.4971 81.1367C88.4945 81.1367 87.6787 80.8086 87.0498 80.1523C86.4209 79.4915 86.1064 78.6097 86.1064 77.5068V77.2744C86.1064 76.5407 86.2454 75.8867 86.5234 75.3125C86.806 74.7337 87.1979 74.2826 87.6992 73.959C88.2051 73.6309 88.752 73.4668 89.3398 73.4668C90.3014 73.4668 91.0488 73.7835 91.582 74.417C92.1152 75.0505 92.3818 75.9574 92.3818 77.1377V77.6641H87.3711C87.3893 78.3932 87.6012 78.9834 88.0068 79.4346C88.417 79.8812 88.9365 80.1045 89.5654 80.1045C90.012 80.1045 90.3903 80.0133 90.7002 79.8311C91.0101 79.6488 91.2812 79.4072 91.5137 79.1064L92.2861 79.708C91.6663 80.6605 90.7367 81.1367 89.4971 81.1367ZM89.3398 74.5059C88.8294 74.5059 88.401 74.6927 88.0547 75.0664C87.7083 75.4355 87.4941 75.9551 87.4121 76.625H91.1172V76.5293C91.0807 75.8867 90.9076 75.39 90.5977 75.0391C90.2878 74.6836 89.8685 74.5059 89.3398 74.5059ZM95.041 73.6035L95.0752 74.4238C95.6175 73.7858 96.349 73.4668 97.2695 73.4668C98.304 73.4668 99.0081 73.8633 99.3818 74.6562C99.6279 74.3008 99.9469 74.0137 100.339 73.7949C100.735 73.5762 101.202 73.4668 101.74 73.4668C103.363 73.4668 104.188 74.3258 104.215 76.0439V81H102.95V76.1191C102.95 75.5905 102.829 75.1963 102.588 74.9365C102.346 74.6722 101.941 74.54 101.371 74.54C100.902 74.54 100.512 74.6813 100.202 74.9639C99.8923 75.2419 99.7122 75.6178 99.6621 76.0918V81H98.3906V76.1533C98.3906 75.0778 97.8643 74.54 96.8115 74.54C95.9821 74.54 95.4147 74.8932 95.1094 75.5996V81H93.8447V73.6035H95.041ZM105.794 77.2334C105.794 76.5088 105.935 75.8571 106.218 75.2783C106.505 74.6995 106.901 74.2529 107.407 73.9385C107.918 73.624 108.499 73.4668 109.15 73.4668C110.158 73.4668 110.971 73.8154 111.591 74.5127C112.215 75.21 112.527 76.1374 112.527 77.2949V77.3838C112.527 78.1038 112.388 78.751 112.11 79.3252C111.837 79.8949 111.443 80.3392 110.928 80.6582C110.417 80.9772 109.829 81.1367 109.164 81.1367C108.161 81.1367 107.348 80.7881 106.724 80.0908C106.104 79.3936 105.794 78.4707 105.794 77.3223V77.2334ZM107.065 77.3838C107.065 78.2041 107.255 78.8626 107.633 79.3594C108.016 79.8561 108.526 80.1045 109.164 80.1045C109.807 80.1045 110.317 79.8538 110.695 79.3525C111.074 78.8467 111.263 78.1403 111.263 77.2334C111.263 76.4222 111.069 75.766 110.682 75.2646C110.299 74.7588 109.788 74.5059 109.15 74.5059C108.526 74.5059 108.022 74.7542 107.64 75.251C107.257 75.7477 107.065 76.4587 107.065 77.3838ZM116.444 79.2842L118.276 73.6035H119.568L116.916 81H115.952L113.272 73.6035H114.564L116.444 79.2842ZM123.759 81.1367C122.756 81.1367 121.94 80.8086 121.312 80.1523C120.683 79.4915 120.368 78.6097 120.368 77.5068V77.2744C120.368 76.5407 120.507 75.8867 120.785 75.3125C121.068 74.7337 121.46 74.2826 121.961 73.959C122.467 73.6309 123.014 73.4668 123.602 73.4668C124.563 73.4668 125.311 73.7835 125.844 74.417C126.377 75.0505 126.644 75.9574 126.644 77.1377V77.6641H121.633C121.651 78.3932 121.863 78.9834 122.269 79.4346C122.679 79.8812 123.198 80.1045 123.827 80.1045C124.274 80.1045 124.652 80.0133 124.962 79.8311C125.272 79.6488 125.543 79.4072 125.775 79.1064L126.548 79.708C125.928 80.6605 124.998 81.1367 123.759 81.1367ZM123.602 74.5059C123.091 74.5059 122.663 74.6927 122.316 75.0664C121.97 75.4355 121.756 75.9551 121.674 76.625H125.379V76.5293C125.342 75.8867 125.169 75.39 124.859 75.0391C124.549 74.6836 124.13 74.5059 123.602 74.5059Z" fill="black"/>
<path d="M170.747 71.0469L174.001 79.168L177.255 71.0469H178.957V81H177.645V77.124L177.768 72.9404L174.5 81H173.495L170.234 72.9609L170.364 77.124V81H169.052V71.0469H170.747ZM180.741 77.2334C180.741 76.5088 180.882 75.8571 181.165 75.2783C181.452 74.6995 181.849 74.2529 182.354 73.9385C182.865 73.624 183.446 73.4668 184.098 73.4668C185.105 73.4668 185.918 73.8154 186.538 74.5127C187.162 75.21 187.475 76.1374 187.475 77.2949V77.3838C187.475 78.1038 187.336 78.751 187.058 79.3252C186.784 79.8949 186.39 80.3392 185.875 80.6582C185.365 80.9772 184.777 81.1367 184.111 81.1367C183.109 81.1367 182.295 80.7881 181.671 80.0908C181.051 79.3936 180.741 78.4707 180.741 77.3223V77.2334ZM182.013 77.3838C182.013 78.2041 182.202 78.8626 182.58 79.3594C182.963 79.8561 183.473 80.1045 184.111 80.1045C184.754 80.1045 185.264 79.8538 185.643 79.3525C186.021 78.8467 186.21 78.1403 186.21 77.2334C186.21 76.4222 186.016 75.766 185.629 75.2646C185.246 74.7588 184.736 74.5059 184.098 74.5059C183.473 74.5059 182.97 74.7542 182.587 75.251C182.204 75.7477 182.013 76.4587 182.013 77.3838ZM191.392 79.2842L193.224 73.6035H194.516L191.863 81H190.899L188.22 73.6035H189.512L191.392 79.2842ZM198.706 81.1367C197.703 81.1367 196.888 80.8086 196.259 80.1523C195.63 79.4915 195.315 78.6097 195.315 77.5068V77.2744C195.315 76.5407 195.454 75.8867 195.732 75.3125C196.015 74.7337 196.407 74.2826 196.908 73.959C197.414 73.6309 197.961 73.4668 198.549 73.4668C199.51 73.4668 200.258 73.7835 200.791 74.417C201.324 75.0505 201.591 75.9574 201.591 77.1377V77.6641H196.58C196.598 78.3932 196.81 78.9834 197.216 79.4346C197.626 79.8812 198.146 80.1045 198.774 80.1045C199.221 80.1045 199.599 80.0133 199.909 79.8311C200.219 79.6488 200.49 79.4072 200.723 79.1064L201.495 79.708C200.875 80.6605 199.946 81.1367 198.706 81.1367ZM198.549 74.5059C198.038 74.5059 197.61 74.6927 197.264 75.0664C196.917 75.4355 196.703 75.9551 196.621 76.625H200.326V76.5293C200.29 75.8867 200.117 75.39 199.807 75.0391C199.497 74.6836 199.077 74.5059 198.549 74.5059Z" fill="black"/>
<path d="M236 49C236 75.4545 213.223 97 185 97C156.777 97 134 75.4545 134 49C134 22.5455 156.777 1 185 1C213.223 1 236 22.5455 236 49Z" stroke="#FF0000" stroke-width="2"/>
<rect x="1" y="26" width="37" height="35" fill="#C4C4C4"/>
<path d="M20.6733 42.7036H26.0259V45.0107H20.6733V51.0752H18.2212V45.0107H12.8687V42.7036H18.2212V37.1006H20.6733V42.7036Z" fill="black"/>
<rect x="84" y="26" width="36" height="35" fill="#C4C4C4"/>
<path d="M106.018 45.9854H97.916V43.4785H106.018V45.9854Z" fill="black"/>
<rect x="166" y="26" width="37" height="35" fill="#C4C4C4"/>
<path d="M194.354 44.3536C194.549 44.1583 194.549 43.8417 194.354 43.6464L191.172 40.4645C190.976 40.2692 190.66 40.2692 190.464 40.4645C190.269 40.6597 190.269 40.9763 190.464 41.1716L193.293 44L190.464 46.8284C190.269 47.0237 190.269 47.3403 190.464 47.5355C190.66 47.7308 190.976 47.7308 191.172 47.5355L194.354 44.3536ZM173 44.5H194V43.5H173V44.5Z" fill="black"/>
<path d="M13.6826 78.4023H9.5127L8.57617 81H7.22266L11.0234 71.0469H12.1719L15.9795 81H14.6328L13.6826 78.4023ZM9.90918 77.3223H13.293L11.5977 72.667L9.90918 77.3223ZM16.8135 77.2402C16.8135 76.1055 17.0824 75.194 17.6201 74.5059C18.1579 73.8132 18.862 73.4668 19.7324 73.4668C20.5983 73.4668 21.2842 73.763 21.79 74.3555V70.5H23.0547V81H21.8926L21.8311 80.207C21.3252 80.8268 20.6211 81.1367 19.7188 81.1367C18.862 81.1367 18.1624 80.7858 17.6201 80.084C17.0824 79.3822 16.8135 78.4661 16.8135 77.3359V77.2402ZM18.0781 77.3838C18.0781 78.2223 18.2513 78.8786 18.5977 79.3525C18.944 79.8265 19.4225 80.0635 20.0332 80.0635C20.8353 80.0635 21.4209 79.7035 21.79 78.9834V75.5859C21.4118 74.8887 20.8307 74.54 20.0469 74.54C19.4271 74.54 18.944 74.7793 18.5977 75.2578C18.2513 75.7363 18.0781 76.445 18.0781 77.3838ZM24.7158 77.2402C24.7158 76.1055 24.9847 75.194 25.5225 74.5059C26.0602 73.8132 26.7643 73.4668 27.6348 73.4668C28.5007 73.4668 29.1865 73.763 29.6924 74.3555V70.5H30.957V81H29.7949L29.7334 80.207C29.2275 80.8268 28.5234 81.1367 27.6211 81.1367C26.7643 81.1367 26.0648 80.7858 25.5225 80.084C24.9847 79.3822 24.7158 78.4661 24.7158 77.3359V77.2402ZM25.9805 77.3838C25.9805 78.2223 26.1536 78.8786 26.5 79.3525C26.8464 79.8265 27.3249 80.0635 27.9355 80.0635C28.7376 80.0635 29.3232 79.7035 29.6924 78.9834V75.5859C29.3141 74.8887 28.7331 74.54 27.9492 74.54C27.3294 74.54 26.8464 74.7793 26.5 75.2578C26.1536 75.7363 25.9805 76.445 25.9805 77.3838Z" fill="black"/>
<path d="M81.6494 76.9736H79.3115V81H77.9922V71.0469H81.2871C82.4082 71.0469 83.2695 71.3021 83.8711 71.8125C84.4772 72.3229 84.7803 73.0658 84.7803 74.041C84.7803 74.6608 84.6117 75.2008 84.2744 75.6611C83.9417 76.1214 83.4769 76.4655 82.8799 76.6934L85.2178 80.918V81H83.8096L81.6494 76.9736ZM79.3115 75.9004H81.3281C81.9798 75.9004 82.4971 75.7318 82.8799 75.3945C83.2673 75.0573 83.4609 74.6061 83.4609 74.041C83.4609 73.4258 83.2764 72.9541 82.9072 72.626C82.5426 72.2979 82.014 72.1315 81.3213 72.127H79.3115V75.9004ZM89.4971 81.1367C88.4945 81.1367 87.6787 80.8086 87.0498 80.1523C86.4209 79.4915 86.1064 78.6097 86.1064 77.5068V77.2744C86.1064 76.5407 86.2454 75.8867 86.5234 75.3125C86.806 74.7337 87.1979 74.2826 87.6992 73.959C88.2051 73.6309 88.752 73.4668 89.3398 73.4668C90.3014 73.4668 91.0488 73.7835 91.582 74.417C92.1152 75.0505 92.3818 75.9574 92.3818 77.1377V77.6641H87.3711C87.3893 78.3932 87.6012 78.9834 88.0068 79.4346C88.417 79.8812 88.9365 80.1045 89.5654 80.1045C90.012 80.1045 90.3903 80.0133 90.7002 79.8311C91.0101 79.6488 91.2812 79.4072 91.5137 79.1064L92.2861 79.708C91.6663 80.6605 90.7367 81.1367 89.4971 81.1367ZM89.3398 74.5059C88.8294 74.5059 88.401 74.6927 88.0547 75.0664C87.7083 75.4355 87.4941 75.9551 87.4121 76.625H91.1172V76.5293C91.0807 75.8867 90.9076 75.39 90.5977 75.0391C90.2878 74.6836 89.8685 74.5059 89.3398 74.5059ZM95.041 73.6035L95.0752 74.4238C95.6175 73.7858 96.349 73.4668 97.2695 73.4668C98.304 73.4668 99.0081 73.8633 99.3818 74.6562C99.6279 74.3008 99.9469 74.0137 100.339 73.7949C100.735 73.5762 101.202 73.4668 101.74 73.4668C103.363 73.4668 104.188 74.3258 104.215 76.0439V81H102.95V76.1191C102.95 75.5905 102.829 75.1963 102.588 74.9365C102.346 74.6722 101.941 74.54 101.371 74.54C100.902 74.54 100.512 74.6813 100.202 74.9639C99.8923 75.2419 99.7122 75.6178 99.6621 76.0918V81H98.3906V76.1533C98.3906 75.0778 97.8643 74.54 96.8115 74.54C95.9821 74.54 95.4147 74.8932 95.1094 75.5996V81H93.8447V73.6035H95.041ZM105.794 77.2334C105.794 76.5088 105.935 75.8571 106.218 75.2783C106.505 74.6995 106.901 74.2529 107.407 73.9385C107.918 73.624 108.499 73.4668 109.15 73.4668C110.158 73.4668 110.971 73.8154 111.591 74.5127C112.215 75.21 112.527 76.1374 112.527 77.2949V77.3838C112.527 78.1038 112.388 78.751 112.11 79.3252C111.837 79.8949 111.443 80.3392 110.928 80.6582C110.417 80.9772 109.829 81.1367 109.164 81.1367C108.161 81.1367 107.348 80.7881 106.724 80.0908C106.104 79.3936 105.794 78.4707 105.794 77.3223V77.2334ZM107.065 77.3838C107.065 78.2041 107.255 78.8626 107.633 79.3594C108.016 79.8561 108.526 80.1045 109.164 80.1045C109.807 80.1045 110.317 79.8538 110.695 79.3525C111.074 78.8467 111.263 78.1403 111.263 77.2334C111.263 76.4222 111.069 75.766 110.682 75.2646C110.299 74.7588 109.788 74.5059 109.15 74.5059C108.526 74.5059 108.022 74.7542 107.64 75.251C107.257 75.7477 107.065 76.4587 107.065 77.3838ZM116.444 79.2842L118.276 73.6035H119.568L116.916 81H115.952L113.272 73.6035H114.564L116.444 79.2842ZM123.759 81.1367C122.756 81.1367 121.94 80.8086 121.312 80.1523C120.683 79.4915 120.368 78.6097 120.368 77.5068V77.2744C120.368 76.5407 120.507 75.8867 120.785 75.3125C121.068 74.7337 121.46 74.2826 121.961 73.959C122.467 73.6309 123.014 73.4668 123.602 73.4668C124.563 73.4668 125.311 73.7835 125.844 74.417C126.377 75.0505 126.644 75.9574 126.644 77.1377V77.6641H121.633C121.651 78.3932 121.863 78.9834 122.269 79.4346C122.679 79.8812 123.198 80.1045 123.827 80.1045C124.274 80.1045 124.652 80.0133 124.962 79.8311C125.272 79.6488 125.543 79.4072 125.775 79.1064L126.548 79.708C125.928 80.6605 124.998 81.1367 123.759 81.1367ZM123.602 74.5059C123.091 74.5059 122.663 74.6927 122.316 75.0664C121.97 75.4355 121.756 75.9551 121.674 76.625H125.379V76.5293C125.342 75.8867 125.169 75.39 124.859 75.0391C124.549 74.6836 124.13 74.5059 123.602 74.5059Z" fill="black"/>
<path d="M170.747 71.0469L174.001 79.168L177.255 71.0469H178.957V81H177.645V77.124L177.768 72.9404L174.5 81H173.495L170.234 72.9609L170.364 77.124V81H169.052V71.0469H170.747ZM180.741 77.2334C180.741 76.5088 180.882 75.8571 181.165 75.2783C181.452 74.6995 181.849 74.2529 182.354 73.9385C182.865 73.624 183.446 73.4668 184.098 73.4668C185.105 73.4668 185.918 73.8154 186.538 74.5127C187.162 75.21 187.475 76.1374 187.475 77.2949V77.3838C187.475 78.1038 187.336 78.751 187.058 79.3252C186.784 79.8949 186.39 80.3392 185.875 80.6582C185.365 80.9772 184.777 81.1367 184.111 81.1367C183.109 81.1367 182.295 80.7881 181.671 80.0908C181.051 79.3936 180.741 78.4707 180.741 77.3223V77.2334ZM182.013 77.3838C182.013 78.2041 182.202 78.8626 182.58 79.3594C182.963 79.8561 183.473 80.1045 184.111 80.1045C184.754 80.1045 185.264 79.8538 185.643 79.3525C186.021 78.8467 186.21 78.1403 186.21 77.2334C186.21 76.4222 186.016 75.766 185.629 75.2646C185.246 74.7588 184.736 74.5059 184.098 74.5059C183.473 74.5059 182.97 74.7542 182.587 75.251C182.204 75.7477 182.013 76.4587 182.013 77.3838ZM191.392 79.2842L193.224 73.6035H194.516L191.863 81H190.899L188.22 73.6035H189.512L191.392 79.2842ZM198.706 81.1367C197.703 81.1367 196.888 80.8086 196.259 80.1523C195.63 79.4915 195.315 78.6097 195.315 77.5068V77.2744C195.315 76.5407 195.454 75.8867 195.732 75.3125C196.015 74.7337 196.407 74.2826 196.908 73.959C197.414 73.6309 197.961 73.4668 198.549 73.4668C199.51 73.4668 200.258 73.7835 200.791 74.417C201.324 75.0505 201.591 75.9574 201.591 77.1377V77.6641H196.58C196.598 78.3932 196.81 78.9834 197.216 79.4346C197.626 79.8812 198.146 80.1045 198.774 80.1045C199.221 80.1045 199.599 80.0133 199.909 79.8311C200.219 79.6488 200.49 79.4072 200.723 79.1064L201.495 79.708C200.875 80.6605 199.946 81.1367 198.706 81.1367ZM198.549 74.5059C198.038 74.5059 197.61 74.6927 197.264 75.0664C196.917 75.4355 196.703 75.9551 196.621 76.625H200.326V76.5293C200.29 75.8867 200.117 75.39 199.807 75.0391C199.497 74.6836 199.077 74.5059 198.549 74.5059Z" fill="black"/>
<path d="M236 49C236 75.4545 213.223 97 185 97C156.777 97 134 75.4545 134 49C134 22.5455 156.777 1 185 1C213.223 1 236 22.5455 236 49Z" stroke="#FF0000" stroke-width="2"/>
</svg>
