<svg width="312" height="307" viewBox="0 0 312 307" fill="none" xmlns="http://www.w3.org/2000/svg">
<rect x="172" y="175" width="82.3" height="82.3" fill="black"/>
<rect x="61" y="175" width="82.3" height="82.3" fill="#82321D"/>
<rect width="82.3" height="82.3" fill="#FFCA62"/>
<rect x="114.5" y="0.5" width="81.3" height="81.3" fill="white" stroke="black"/>
<rect x="229" width="82.3" height="82.3" fill="#1D1300"/>
<path d="M248.072 100.272C248.072 101.131 247.936 101.912 247.664 102.616C247.392 103.32 247.008 103.923 246.512 104.424C246.016 104.925 245.419 105.315 244.72 105.592C244.027 105.864 243.259 106 242.416 106H238.136V94.536H242.416C243.259 94.536 244.027 94.6747 244.72 94.952C245.419 95.224 246.016 95.6133 246.512 96.12C247.008 96.6213 247.392 97.224 247.664 97.928C247.936 98.632 248.072 99.4133 248.072 100.272ZM246.48 100.272C246.48 99.568 246.384 98.9387 246.192 98.384C246 97.8293 245.728 97.36 245.376 96.976C245.024 96.592 244.597 96.2987 244.096 96.096C243.595 95.8933 243.035 95.792 242.416 95.792H239.688V104.744H242.416C243.035 104.744 243.595 104.643 244.096 104.44C244.597 104.237 245.024 103.947 245.376 103.568C245.728 103.184 246 102.715 246.192 102.16C246.384 101.605 246.48 100.976 246.48 100.272ZM254.161 102.352C253.505 102.373 252.945 102.427 252.481 102.512C252.022 102.592 251.646 102.699 251.353 102.832C251.065 102.965 250.854 103.123 250.721 103.304C250.593 103.485 250.529 103.688 250.529 103.912C250.529 104.125 250.563 104.309 250.633 104.464C250.702 104.619 250.795 104.747 250.913 104.848C251.035 104.944 251.177 105.016 251.337 105.064C251.502 105.107 251.678 105.128 251.865 105.128C252.115 105.128 252.345 105.104 252.553 105.056C252.761 105.003 252.955 104.928 253.137 104.832C253.323 104.736 253.499 104.621 253.665 104.488C253.835 104.355 254.001 104.203 254.161 104.032V102.352ZM249.561 99.04C250.009 98.608 250.491 98.2853 251.009 98.072C251.526 97.8587 252.099 97.752 252.729 97.752C253.182 97.752 253.585 97.8267 253.937 97.976C254.289 98.1253 254.585 98.3333 254.825 98.6C255.065 98.8667 255.246 99.1893 255.369 99.568C255.491 99.9467 255.553 100.363 255.553 100.816V106H254.921C254.782 106 254.675 105.979 254.601 105.936C254.526 105.888 254.467 105.797 254.425 105.664L254.265 104.896C254.051 105.093 253.843 105.269 253.641 105.424C253.438 105.573 253.225 105.701 253.001 105.808C252.777 105.909 252.537 105.987 252.281 106.04C252.03 106.099 251.75 106.128 251.441 106.128C251.126 106.128 250.83 106.085 250.553 106C250.275 105.909 250.033 105.776 249.825 105.6C249.622 105.424 249.459 105.203 249.337 104.936C249.219 104.664 249.161 104.344 249.161 103.976C249.161 103.656 249.249 103.349 249.425 103.056C249.601 102.757 249.886 102.493 250.281 102.264C250.675 102.035 251.19 101.848 251.825 101.704C252.459 101.555 253.238 101.469 254.161 101.448V100.816C254.161 100.187 254.025 99.712 253.753 99.392C253.481 99.0667 253.083 98.904 252.561 98.904C252.209 98.904 251.913 98.9493 251.673 99.04C251.438 99.1253 251.233 99.224 251.057 99.336C250.886 99.4427 250.737 99.5413 250.609 99.632C250.486 99.7173 250.363 99.76 250.241 99.76C250.145 99.76 250.062 99.736 249.993 99.688C249.923 99.6347 249.865 99.5707 249.817 99.496L249.561 99.04ZM259.074 99.52C259.33 98.9653 259.644 98.5333 260.018 98.224C260.391 97.9093 260.847 97.752 261.386 97.752C261.556 97.752 261.719 97.7707 261.874 97.808C262.034 97.8453 262.175 97.904 262.298 97.984L262.194 99.048C262.162 99.1813 262.082 99.248 261.954 99.248C261.879 99.248 261.77 99.232 261.626 99.2C261.482 99.168 261.319 99.152 261.138 99.152C260.882 99.152 260.652 99.1893 260.45 99.264C260.252 99.3387 260.074 99.4507 259.914 99.6C259.759 99.744 259.618 99.9253 259.49 100.144C259.367 100.357 259.255 100.603 259.154 100.88V106H257.722V97.896H258.538C258.692 97.896 258.799 97.9253 258.858 97.984C258.916 98.0427 258.956 98.144 258.978 98.288L259.074 99.52ZM264.982 94.216V101.152H265.35C265.457 101.152 265.545 101.139 265.614 101.112C265.689 101.08 265.766 101.019 265.846 100.928L268.406 98.184C268.481 98.0933 268.558 98.024 268.638 97.976C268.723 97.9227 268.835 97.896 268.974 97.896H270.262L267.278 101.072C267.134 101.253 266.979 101.395 266.814 101.496C266.91 101.56 266.995 101.635 267.07 101.72C267.15 101.8 267.225 101.893 267.294 102L270.462 106H269.19C269.067 106 268.961 105.981 268.87 105.944C268.785 105.901 268.71 105.827 268.646 105.72L265.982 102.4C265.902 102.288 265.822 102.216 265.742 102.184C265.667 102.147 265.55 102.128 265.39 102.128H264.982V106H263.55V94.216H264.982ZM286.697 100.272C286.697 101.131 286.561 101.92 286.289 102.64C286.017 103.355 285.633 103.971 285.137 104.488C284.641 105.005 284.043 105.408 283.345 105.696C282.651 105.979 281.883 106.12 281.041 106.12C280.198 106.12 279.43 105.979 278.737 105.696C278.043 105.408 277.449 105.005 276.953 104.488C276.457 103.971 276.073 103.355 275.801 102.64C275.529 101.92 275.393 101.131 275.393 100.272C275.393 99.4133 275.529 98.6267 275.801 97.912C276.073 97.192 276.457 96.5733 276.953 96.056C277.449 95.5333 278.043 95.128 278.737 94.84C279.43 94.552 280.198 94.408 281.041 94.408C281.883 94.408 282.651 94.552 283.345 94.84C284.043 95.128 284.641 95.5333 285.137 96.056C285.633 96.5733 286.017 97.192 286.289 97.912C286.561 98.6267 286.697 99.4133 286.697 100.272ZM285.105 100.272C285.105 99.568 285.009 98.936 284.817 98.376C284.625 97.816 284.353 97.344 284.001 96.96C283.649 96.5707 283.222 96.272 282.721 96.064C282.219 95.856 281.659 95.752 281.041 95.752C280.427 95.752 279.87 95.856 279.369 96.064C278.867 96.272 278.438 96.5707 278.081 96.96C277.729 97.344 277.457 97.816 277.265 98.376C277.073 98.936 276.977 99.568 276.977 100.272C276.977 100.976 277.073 101.608 277.265 102.168C277.457 102.723 277.729 103.195 278.081 103.584C278.438 103.968 278.867 104.264 279.369 104.472C279.87 104.675 280.427 104.776 281.041 104.776C281.659 104.776 282.219 104.675 282.721 104.472C283.222 104.264 283.649 103.968 284.001 103.584C284.353 103.195 284.625 102.723 284.817 102.168C285.009 101.608 285.105 100.976 285.105 100.272ZM292.77 102.352C292.114 102.373 291.554 102.427 291.09 102.512C290.631 102.592 290.255 102.699 289.962 102.832C289.674 102.965 289.463 103.123 289.33 103.304C289.202 103.485 289.138 103.688 289.138 103.912C289.138 104.125 289.173 104.309 289.242 104.464C289.311 104.619 289.405 104.747 289.522 104.848C289.645 104.944 289.786 105.016 289.946 105.064C290.111 105.107 290.287 105.128 290.474 105.128C290.725 105.128 290.954 105.104 291.162 105.056C291.37 105.003 291.565 104.928 291.746 104.832C291.933 104.736 292.109 104.621 292.274 104.488C292.445 104.355 292.61 104.203 292.77 104.032V102.352ZM288.17 99.04C288.618 98.608 289.101 98.2853 289.618 98.072C290.135 97.8587 290.709 97.752 291.338 97.752C291.791 97.752 292.194 97.8267 292.546 97.976C292.898 98.1253 293.194 98.3333 293.434 98.6C293.674 98.8667 293.855 99.1893 293.978 99.568C294.101 99.9467 294.162 100.363 294.162 100.816V106H293.53C293.391 106 293.285 105.979 293.21 105.936C293.135 105.888 293.077 105.797 293.034 105.664L292.874 104.896C292.661 105.093 292.453 105.269 292.25 105.424C292.047 105.573 291.834 105.701 291.61 105.808C291.386 105.909 291.146 105.987 290.89 106.04C290.639 106.099 290.359 106.128 290.05 106.128C289.735 106.128 289.439 106.085 289.162 106C288.885 105.909 288.642 105.776 288.434 105.6C288.231 105.424 288.069 105.203 287.946 104.936C287.829 104.664 287.77 104.344 287.77 103.976C287.77 103.656 287.858 103.349 288.034 103.056C288.21 102.757 288.495 102.493 288.89 102.264C289.285 102.035 289.799 101.848 290.434 101.704C291.069 101.555 291.847 101.469 292.77 101.448V100.816C292.77 100.187 292.634 99.712 292.362 99.392C292.09 99.0667 291.693 98.904 291.17 98.904C290.818 98.904 290.522 98.9493 290.282 99.04C290.047 99.1253 289.842 99.224 289.666 99.336C289.495 99.4427 289.346 99.5413 289.218 99.632C289.095 99.7173 288.973 99.76 288.85 99.76C288.754 99.76 288.671 99.736 288.602 99.688C288.533 99.6347 288.474 99.5707 288.426 99.496L288.17 99.04ZM297.763 94.216V101.152H298.131C298.238 101.152 298.326 101.139 298.395 101.112C298.47 101.08 298.547 101.019 298.627 100.928L301.187 98.184C301.262 98.0933 301.339 98.024 301.419 97.976C301.504 97.9227 301.616 97.896 301.755 97.896H303.043L300.059 101.072C299.915 101.253 299.76 101.395 299.595 101.496C299.691 101.56 299.776 101.635 299.851 101.72C299.931 101.8 300.006 101.893 300.075 102L303.243 106H301.971C301.848 106 301.742 105.981 301.651 105.944C301.566 105.901 301.491 105.827 301.427 105.72L298.763 102.4C298.683 102.288 298.603 102.216 298.523 102.184C298.448 102.147 298.331 102.128 298.171 102.128H297.763V106H296.331V94.216H297.763ZM241.91 123.96H239.934L239.414 126.568H241.39L241.91 123.96ZM244.934 122.912L244.83 123.512C244.804 123.667 244.74 123.781 244.638 123.856C244.542 123.925 244.393 123.96 244.19 123.96H243.086L242.566 126.568H243.998C244.153 126.568 244.262 126.613 244.326 126.704C244.396 126.789 244.414 126.941 244.382 127.16L244.31 127.616H242.414L241.742 131H241.094C241.025 131 240.961 130.984 240.902 130.952C240.844 130.92 240.793 130.877 240.75 130.824C240.713 130.771 240.686 130.707 240.67 130.632C240.654 130.557 240.654 130.475 240.67 130.384L241.238 127.616H239.262L238.694 130.456C238.662 130.653 238.585 130.795 238.462 130.88C238.34 130.96 238.201 131 238.046 131H237.406L238.086 127.616H236.918C236.769 127.616 236.66 127.573 236.59 127.488C236.526 127.397 236.51 127.243 236.542 127.024L236.606 126.568H238.238L238.758 123.96H236.902L237.006 123.368C237.033 123.213 237.094 123.099 237.19 123.024C237.292 122.949 237.444 122.912 237.646 122.912H238.91L239.486 120.048C239.518 119.888 239.59 119.763 239.702 119.672C239.82 119.581 239.958 119.536 240.118 119.536H240.758L240.086 122.912H242.062L242.734 119.536H243.366C243.521 119.536 243.641 119.587 243.726 119.688C243.817 119.789 243.849 119.917 243.822 120.072L243.238 122.912H244.934ZM253.496 129.912V131H247.352V129.912H249.808V122.096C249.808 121.861 249.816 121.624 249.832 121.384L247.792 123.136C247.722 123.195 247.653 123.232 247.584 123.248C247.514 123.259 247.45 123.259 247.392 123.248C247.333 123.237 247.277 123.216 247.224 123.184C247.176 123.152 247.138 123.117 247.112 123.08L246.664 122.464L250.08 119.512H251.24V129.912H253.496ZM266.033 125.272C266.033 126.131 265.897 126.912 265.625 127.616C265.353 128.32 264.969 128.923 264.473 129.424C263.977 129.925 263.379 130.315 262.681 130.592C261.987 130.864 261.219 131 260.377 131H256.097V119.536H260.377C261.219 119.536 261.987 119.675 262.681 119.952C263.379 120.224 263.977 120.613 264.473 121.12C264.969 121.621 265.353 122.224 265.625 122.928C265.897 123.632 266.033 124.413 266.033 125.272ZM264.441 125.272C264.441 124.568 264.345 123.939 264.153 123.384C263.961 122.829 263.689 122.36 263.337 121.976C262.985 121.592 262.558 121.299 262.057 121.096C261.555 120.893 260.995 120.792 260.377 120.792H257.649V129.744H260.377C260.995 129.744 261.555 129.643 262.057 129.44C262.558 129.237 262.985 128.947 263.337 128.568C263.689 128.184 263.961 127.715 264.153 127.16C264.345 126.605 264.441 125.976 264.441 125.272ZM274.949 129.912V131H268.805V129.912H271.261V122.096C271.261 121.861 271.269 121.624 271.285 121.384L269.245 123.136C269.175 123.195 269.106 123.232 269.037 123.248C268.967 123.259 268.903 123.259 268.845 123.248C268.786 123.237 268.73 123.216 268.677 123.184C268.629 123.152 268.591 123.117 268.565 123.08L268.117 122.464L271.533 119.512H272.693V129.912H274.949ZM277.126 122.64C277.201 122.117 277.345 121.656 277.558 121.256C277.771 120.851 278.041 120.512 278.366 120.24C278.697 119.968 279.073 119.763 279.494 119.624C279.921 119.48 280.379 119.408 280.87 119.408C281.355 119.408 281.803 119.477 282.214 119.616C282.625 119.755 282.977 119.952 283.27 120.208C283.569 120.464 283.801 120.773 283.966 121.136C284.131 121.499 284.214 121.901 284.214 122.344C284.214 122.707 284.166 123.032 284.07 123.32C283.979 123.603 283.846 123.851 283.67 124.064C283.499 124.277 283.291 124.459 283.046 124.608C282.801 124.757 282.526 124.88 282.222 124.976C282.969 125.168 283.529 125.499 283.902 125.968C284.281 126.432 284.47 127.013 284.47 127.712C284.47 128.24 284.369 128.715 284.166 129.136C283.969 129.557 283.697 129.917 283.35 130.216C283.003 130.509 282.598 130.736 282.134 130.896C281.675 131.051 281.182 131.128 280.654 131.128C280.046 131.128 279.526 131.053 279.094 130.904C278.662 130.749 278.297 130.539 277.998 130.272C277.699 130.005 277.454 129.691 277.262 129.328C277.07 128.96 276.907 128.563 276.774 128.136L277.39 127.88C277.55 127.811 277.705 127.792 277.854 127.824C278.009 127.856 278.121 127.944 278.19 128.088C278.259 128.237 278.345 128.416 278.446 128.624C278.553 128.832 278.697 129.032 278.878 129.224C279.059 129.416 279.289 129.579 279.566 129.712C279.849 129.845 280.206 129.912 280.638 129.912C281.038 129.912 281.387 129.848 281.686 129.72C281.99 129.587 282.241 129.416 282.438 129.208C282.641 129 282.793 128.768 282.894 128.512C282.995 128.256 283.046 128.003 283.046 127.752C283.046 127.443 283.006 127.16 282.926 126.904C282.846 126.648 282.697 126.427 282.478 126.24C282.259 126.053 281.958 125.907 281.574 125.8C281.195 125.693 280.707 125.64 280.11 125.64V124.608C280.601 124.603 281.017 124.549 281.358 124.448C281.705 124.347 281.985 124.208 282.198 124.032C282.417 123.856 282.574 123.645 282.67 123.4C282.771 123.155 282.822 122.883 282.822 122.584C282.822 122.253 282.769 121.965 282.662 121.72C282.561 121.475 282.419 121.272 282.238 121.112C282.057 120.952 281.841 120.832 281.59 120.752C281.345 120.672 281.078 120.632 280.79 120.632C280.502 120.632 280.233 120.675 279.982 120.76C279.737 120.845 279.518 120.965 279.326 121.12C279.139 121.269 278.982 121.448 278.854 121.656C278.726 121.864 278.635 122.093 278.582 122.344C278.513 122.531 278.425 122.656 278.318 122.72C278.217 122.779 278.067 122.795 277.87 122.768L277.126 122.64ZM294.167 125.272C294.167 126.275 294.058 127.144 293.839 127.88C293.626 128.611 293.333 129.216 292.959 129.696C292.586 130.176 292.143 130.533 291.631 130.768C291.125 131.003 290.581 131.12 289.999 131.12C289.413 131.12 288.866 131.003 288.359 130.768C287.858 130.533 287.421 130.176 287.047 129.696C286.674 129.216 286.381 128.611 286.167 127.88C285.954 127.144 285.847 126.275 285.847 125.272C285.847 124.269 285.954 123.4 286.167 122.664C286.381 121.928 286.674 121.32 287.047 120.84C287.421 120.355 287.858 119.995 288.359 119.76C288.866 119.525 289.413 119.408 289.999 119.408C290.581 119.408 291.125 119.525 291.631 119.76C292.143 119.995 292.586 120.355 292.959 120.84C293.333 121.32 293.626 121.928 293.839 122.664C294.058 123.4 294.167 124.269 294.167 125.272ZM292.687 125.272C292.687 124.397 292.613 123.664 292.463 123.072C292.319 122.475 292.122 121.995 291.871 121.632C291.626 121.269 291.341 121.011 291.015 120.856C290.69 120.696 290.351 120.616 289.999 120.616C289.647 120.616 289.309 120.696 288.983 120.856C288.658 121.011 288.373 121.269 288.127 121.632C287.882 121.995 287.685 122.475 287.535 123.072C287.391 123.664 287.319 124.397 287.319 125.272C287.319 126.147 287.391 126.88 287.535 127.472C287.685 128.064 287.882 128.541 288.127 128.904C288.373 129.267 288.658 129.528 288.983 129.688C289.309 129.843 289.647 129.92 289.999 129.92C290.351 129.92 290.69 129.843 291.015 129.688C291.341 129.528 291.626 129.267 291.871 128.904C292.122 128.541 292.319 128.064 292.463 127.472C292.613 126.88 292.687 126.147 292.687 125.272ZM303.448 125.272C303.448 126.275 303.339 127.144 303.12 127.88C302.907 128.611 302.614 129.216 302.24 129.696C301.867 130.176 301.424 130.533 300.912 130.768C300.406 131.003 299.862 131.12 299.28 131.12C298.694 131.12 298.147 131.003 297.64 130.768C297.139 130.533 296.702 130.176 296.328 129.696C295.955 129.216 295.662 128.611 295.448 127.88C295.235 127.144 295.128 126.275 295.128 125.272C295.128 124.269 295.235 123.4 295.448 122.664C295.662 121.928 295.955 121.32 296.328 120.84C296.702 120.355 297.139 119.995 297.64 119.76C298.147 119.525 298.694 119.408 299.28 119.408C299.862 119.408 300.406 119.525 300.912 119.76C301.424 119.995 301.867 120.355 302.24 120.84C302.614 121.32 302.907 121.928 303.12 122.664C303.339 123.4 303.448 124.269 303.448 125.272ZM301.968 125.272C301.968 124.397 301.894 123.664 301.744 123.072C301.6 122.475 301.403 121.995 301.152 121.632C300.907 121.269 300.622 121.011 300.296 120.856C299.971 120.696 299.632 120.616 299.28 120.616C298.928 120.616 298.59 120.696 298.264 120.856C297.939 121.011 297.654 121.269 297.408 121.632C297.163 121.995 296.966 122.475 296.816 123.072C296.672 123.664 296.6 124.397 296.6 125.272C296.6 126.147 296.672 126.88 296.816 127.472C296.966 128.064 297.163 128.541 297.408 128.904C297.654 129.267 297.939 129.528 298.264 129.688C298.59 129.843 298.928 129.92 299.28 129.92C299.632 129.92 299.971 129.843 300.296 129.688C300.622 129.528 300.907 129.267 301.152 128.904C301.403 128.541 301.6 128.064 301.744 127.472C301.894 126.88 301.968 126.147 301.968 125.272Z" fill="black"/>
<path d="M149.625 94.536L146.049 106H144.657L141.753 97.256C141.726 97.1707 141.699 97.08 141.673 96.984C141.651 96.888 141.627 96.7867 141.601 96.68C141.574 96.7867 141.547 96.888 141.521 96.984C141.494 97.08 141.467 97.1707 141.441 97.256L138.521 106H137.129L133.553 94.536H134.841C134.979 94.536 135.094 94.5707 135.185 94.64C135.281 94.7093 135.342 94.7973 135.369 94.904L137.737 102.872C137.774 103.016 137.809 103.171 137.841 103.336C137.878 103.501 137.913 103.677 137.945 103.864C137.982 103.677 138.019 103.501 138.057 103.336C138.099 103.165 138.145 103.011 138.193 102.872L140.889 94.904C140.921 94.8133 140.982 94.7307 141.073 94.656C141.169 94.576 141.283 94.536 141.417 94.536H141.865C142.003 94.536 142.115 94.5707 142.201 94.64C142.286 94.7093 142.35 94.7973 142.393 94.904L145.081 102.872C145.129 103.011 145.171 103.16 145.209 103.32C145.251 103.48 145.291 103.648 145.329 103.824C145.355 103.648 145.385 103.48 145.417 103.32C145.449 103.16 145.483 103.011 145.521 102.872L147.897 94.904C147.923 94.808 147.982 94.7227 148.073 94.648C148.169 94.5733 148.283 94.536 148.417 94.536H149.625ZM152.349 98.976C152.696 98.608 153.08 98.3147 153.501 98.096C153.922 97.8773 154.408 97.768 154.957 97.768C155.4 97.768 155.789 97.8427 156.125 97.992C156.466 98.136 156.749 98.344 156.973 98.616C157.202 98.8827 157.376 99.2053 157.493 99.584C157.61 99.9627 157.669 100.381 157.669 100.84V106H156.237V100.84C156.237 100.227 156.096 99.752 155.813 99.416C155.536 99.0747 155.112 98.904 154.541 98.904C154.12 98.904 153.725 99.0053 153.357 99.208C152.994 99.4107 152.658 99.6853 152.349 100.032V106H150.917V94.216H152.349V98.976ZM161.343 97.896V106H159.919V97.896H161.343ZM161.647 95.352C161.647 95.4907 161.618 95.6213 161.559 95.744C161.506 95.8613 161.431 95.968 161.335 96.064C161.244 96.1547 161.135 96.2267 161.007 96.28C160.884 96.3333 160.754 96.36 160.615 96.36C160.476 96.36 160.346 96.3333 160.223 96.28C160.106 96.2267 160.002 96.1547 159.911 96.064C159.82 95.968 159.748 95.8613 159.695 95.744C159.642 95.6213 159.615 95.4907 159.615 95.352C159.615 95.2133 159.642 95.0827 159.695 94.96C159.748 94.832 159.82 94.7227 159.911 94.632C160.002 94.536 160.106 94.4613 160.223 94.408C160.346 94.3547 160.476 94.328 160.615 94.328C160.754 94.328 160.884 94.3547 161.007 94.408C161.135 94.4613 161.244 94.536 161.335 94.632C161.431 94.7227 161.506 94.832 161.559 94.96C161.618 95.0827 161.647 95.2133 161.647 95.352ZM166.171 106.128C165.531 106.128 165.037 105.949 164.691 105.592C164.349 105.235 164.179 104.72 164.179 104.048V99.088H163.203C163.117 99.088 163.045 99.064 162.987 99.016C162.928 98.9627 162.899 98.8827 162.899 98.776V98.208L164.227 98.04L164.555 95.536C164.571 95.456 164.605 95.392 164.659 95.344C164.717 95.2907 164.792 95.264 164.883 95.264H165.603V98.056H167.947V99.088H165.603V103.952C165.603 104.293 165.685 104.547 165.851 104.712C166.016 104.877 166.229 104.96 166.491 104.96C166.64 104.96 166.768 104.941 166.875 104.904C166.987 104.861 167.083 104.816 167.163 104.768C167.243 104.72 167.309 104.677 167.363 104.64C167.421 104.597 167.472 104.576 167.515 104.576C167.589 104.576 167.656 104.621 167.715 104.712L168.131 105.392C167.885 105.621 167.589 105.803 167.243 105.936C166.896 106.064 166.539 106.128 166.171 106.128ZM174.794 101.064C174.794 100.733 174.746 100.432 174.65 100.16C174.56 99.8827 174.424 99.6453 174.242 99.448C174.066 99.2453 173.85 99.0907 173.594 98.984C173.338 98.872 173.048 98.816 172.722 98.816C172.04 98.816 171.498 99.016 171.098 99.416C170.704 99.8107 170.458 100.36 170.362 101.064H174.794ZM175.946 104.864C175.77 105.077 175.56 105.264 175.314 105.424C175.069 105.579 174.805 105.707 174.522 105.808C174.245 105.909 173.957 105.984 173.658 106.032C173.36 106.085 173.064 106.112 172.77 106.112C172.21 106.112 171.693 106.019 171.218 105.832C170.749 105.64 170.341 105.363 169.994 105C169.653 104.632 169.386 104.179 169.194 103.64C169.002 103.101 168.906 102.483 168.906 101.784C168.906 101.219 168.992 100.691 169.162 100.2C169.338 99.7093 169.589 99.2853 169.914 98.928C170.24 98.5653 170.637 98.2827 171.106 98.08C171.576 97.872 172.104 97.768 172.69 97.768C173.176 97.768 173.624 97.8507 174.034 98.016C174.45 98.176 174.808 98.4107 175.106 98.72C175.41 99.024 175.648 99.4027 175.818 99.856C175.989 100.304 176.074 100.816 176.074 101.392C176.074 101.616 176.05 101.765 176.002 101.84C175.954 101.915 175.864 101.952 175.73 101.952H170.314C170.33 102.464 170.4 102.909 170.522 103.288C170.65 103.667 170.826 103.984 171.05 104.24C171.274 104.491 171.541 104.68 171.85 104.808C172.16 104.931 172.506 104.992 172.89 104.992C173.248 104.992 173.554 104.952 173.81 104.872C174.072 104.787 174.296 104.696 174.482 104.6C174.669 104.504 174.824 104.416 174.946 104.336C175.074 104.251 175.184 104.208 175.274 104.208C175.392 104.208 175.482 104.253 175.546 104.344L175.946 104.864ZM129.059 123.96H127.083L126.563 126.568H128.539L129.059 123.96ZM132.083 122.912L131.979 123.512C131.952 123.667 131.888 123.781 131.787 123.856C131.691 123.925 131.541 123.96 131.339 123.96H130.235L129.715 126.568H131.147C131.301 126.568 131.411 126.613 131.475 126.704C131.544 126.789 131.563 126.941 131.531 127.16L131.459 127.616H129.563L128.891 131H128.243C128.173 131 128.109 130.984 128.051 130.952C127.992 130.92 127.941 130.877 127.899 130.824C127.861 130.771 127.835 130.707 127.819 130.632C127.803 130.557 127.803 130.475 127.819 130.384L128.387 127.616H126.411L125.843 130.456C125.811 130.653 125.733 130.795 125.611 130.88C125.488 130.96 125.349 131 125.195 131H124.555L125.235 127.616H124.067C123.917 127.616 123.808 127.573 123.739 127.488C123.675 127.397 123.659 127.243 123.691 127.024L123.755 126.568H125.387L125.907 123.96H124.051L124.155 123.368C124.181 123.213 124.243 123.099 124.339 123.024C124.44 122.949 124.592 122.912 124.795 122.912H126.059L126.635 120.048C126.667 119.888 126.739 119.763 126.851 119.672C126.968 119.581 127.107 119.536 127.267 119.536H127.907L127.235 122.912H129.211L129.883 119.536H130.515C130.669 119.536 130.789 119.587 130.875 119.688C130.965 119.789 130.997 119.917 130.971 120.072L130.387 122.912H132.083ZM135.516 120.8V124.808H140.228V126.072H135.516V131H133.964V119.536H141.028V120.8H135.516ZM144.563 120.8V124.808H149.275V126.072H144.563V131H143.011V119.536H150.075V120.8H144.563ZM153.61 120.8V124.808H158.322V126.072H153.61V131H152.058V119.536H159.122V120.8H153.61ZM162.657 120.8V124.808H167.369V126.072H162.657V131H161.105V119.536H168.169V120.8H162.657ZM171.704 120.8V124.808H176.416V126.072H171.704V131H170.152V119.536H177.216V120.8H171.704ZM180.75 120.8V124.808H185.462V126.072H180.75V131H179.198V119.536H186.262V120.8H180.75Z" fill="black"/>
<path d="M35.0729 100.488V104.888C34.4969 105.304 33.8809 105.616 33.2249 105.824C32.5742 106.027 31.8595 106.128 31.0809 106.128C30.1582 106.128 29.3262 105.987 28.5849 105.704C27.8435 105.416 27.2089 105.016 26.6809 104.504C26.1582 103.987 25.7555 103.368 25.4729 102.648C25.1902 101.928 25.0489 101.136 25.0489 100.272C25.0489 99.3973 25.1849 98.6 25.4569 97.88C25.7342 97.16 26.1262 96.544 26.6329 96.032C27.1395 95.5147 27.7555 95.1147 28.4809 94.832C29.2062 94.5493 30.0169 94.408 30.9129 94.408C31.3662 94.408 31.7875 94.4427 32.1769 94.512C32.5662 94.576 32.9262 94.672 33.2569 94.8C33.5875 94.9227 33.8942 95.0747 34.1769 95.256C34.4595 95.432 34.7235 95.632 34.9689 95.856L34.5289 96.56C34.4595 96.6667 34.3689 96.736 34.2569 96.768C34.1502 96.7947 34.0302 96.768 33.8969 96.688C33.7689 96.6133 33.6222 96.5227 33.4569 96.416C33.2915 96.3093 33.0889 96.208 32.8489 96.112C32.6142 96.0107 32.3342 95.9253 32.0089 95.856C31.6889 95.7867 31.3075 95.752 30.8649 95.752C30.2195 95.752 29.6355 95.8587 29.1129 96.072C28.5902 96.28 28.1449 96.5813 27.7769 96.976C27.4089 97.3653 27.1262 97.84 26.9289 98.4C26.7315 98.9547 26.6329 99.5787 26.6329 100.272C26.6329 100.992 26.7342 101.637 26.9369 102.208C27.1449 102.773 27.4382 103.256 27.8169 103.656C28.2009 104.051 28.6649 104.352 29.2089 104.56C29.7529 104.768 30.3635 104.872 31.0409 104.872C31.5742 104.872 32.0462 104.813 32.4569 104.696C32.8729 104.573 33.2782 104.405 33.6729 104.192V101.672H31.8889C31.7875 101.672 31.7049 101.643 31.6409 101.584C31.5822 101.525 31.5529 101.453 31.5529 101.368V100.488H35.0729ZM40.4346 97.768C41.0266 97.768 41.56 97.8667 42.0346 98.064C42.5093 98.2613 42.9146 98.5413 43.2506 98.904C43.5866 99.2667 43.8426 99.7067 44.0186 100.224C44.2 100.736 44.2906 101.309 44.2906 101.944C44.2906 102.584 44.2 103.16 44.0186 103.672C43.8426 104.184 43.5866 104.621 43.2506 104.984C42.9146 105.347 42.5093 105.627 42.0346 105.824C41.56 106.016 41.0266 106.112 40.4346 106.112C39.8373 106.112 39.2986 106.016 38.8186 105.824C38.344 105.627 37.9386 105.347 37.6026 104.984C37.2666 104.621 37.008 104.184 36.8266 103.672C36.6506 103.16 36.5626 102.584 36.5626 101.944C36.5626 101.309 36.6506 100.736 36.8266 100.224C37.008 99.7067 37.2666 99.2667 37.6026 98.904C37.9386 98.5413 38.344 98.2613 38.8186 98.064C39.2986 97.8667 39.8373 97.768 40.4346 97.768ZM40.4346 105C41.2346 105 41.832 104.733 42.2266 104.2C42.6213 103.661 42.8186 102.912 42.8186 101.952C42.8186 100.987 42.6213 100.235 42.2266 99.696C41.832 99.1573 41.2346 98.888 40.4346 98.888C40.0293 98.888 39.6746 98.9573 39.3706 99.096C39.072 99.2347 38.8213 99.4347 38.6186 99.696C38.4213 99.9573 38.272 100.28 38.1706 100.664C38.0746 101.043 38.0266 101.472 38.0266 101.952C38.0266 102.912 38.224 103.661 38.6186 104.2C39.0186 104.733 39.624 105 40.4346 105ZM47.5688 94.216V106H46.1447V94.216H47.5688ZM55.158 99.824C54.8913 99.4667 54.6033 99.2187 54.294 99.08C53.9847 98.936 53.638 98.864 53.254 98.864C52.502 98.864 51.9233 99.1333 51.518 99.672C51.1127 100.211 50.91 100.979 50.91 101.976C50.91 102.504 50.9553 102.957 51.046 103.336C51.1367 103.709 51.27 104.019 51.446 104.264C51.622 104.504 51.838 104.68 52.094 104.792C52.35 104.904 52.6407 104.96 52.966 104.96C53.4353 104.96 53.8433 104.853 54.19 104.64C54.542 104.427 54.8647 104.125 55.158 103.736V99.824ZM56.582 94.216V106H55.734C55.5313 106 55.4033 105.901 55.35 105.704L55.222 104.72C54.8753 105.136 54.4807 105.472 54.038 105.728C53.5953 105.984 53.0833 106.112 52.502 106.112C52.038 106.112 51.6167 106.024 51.238 105.848C50.8593 105.667 50.5367 105.403 50.27 105.056C50.0033 104.709 49.798 104.277 49.654 103.76C49.51 103.243 49.438 102.648 49.438 101.976C49.438 101.379 49.518 100.824 49.678 100.312C49.838 99.7947 50.0673 99.3467 50.366 98.968C50.6647 98.5893 51.03 98.2933 51.462 98.08C51.8993 97.8613 52.39 97.752 52.934 97.752C53.43 97.752 53.854 97.8373 54.206 98.008C54.5633 98.1733 54.8807 98.4053 55.158 98.704V94.216H56.582ZM13.1681 123.96H11.1921L10.6721 126.568H12.6481L13.1681 123.96ZM16.1921 122.912L16.0881 123.512C16.0615 123.667 15.9975 123.781 15.8961 123.856C15.8001 123.925 15.6508 123.96 15.4481 123.96H14.3441L13.8241 126.568H15.2561C15.4108 126.568 15.5201 126.613 15.5841 126.704C15.6535 126.789 15.6721 126.941 15.6401 127.16L15.5681 127.616H13.6721L13.0001 131H12.3521C12.2828 131 12.2188 130.984 12.1601 130.952C12.1015 130.92 12.0508 130.877 12.0081 130.824C11.9708 130.771 11.9441 130.707 11.9281 130.632C11.9121 130.557 11.9121 130.475 11.9281 130.384L12.4961 127.616H10.5201L9.95213 130.456C9.92013 130.653 9.84279 130.795 9.72013 130.88C9.59746 130.96 9.45879 131 9.30413 131H8.66413L9.34413 127.616H8.17613C8.02679 127.616 7.91746 127.573 7.84813 127.488C7.78413 127.397 7.76813 127.243 7.80013 127.024L7.86413 126.568H9.49613L10.0161 123.96H8.16013L8.26413 123.368C8.29079 123.213 8.35213 123.099 8.44813 123.024C8.54946 122.949 8.70146 122.912 8.90413 122.912H10.1681L10.7441 120.048C10.7761 119.888 10.8481 119.763 10.9601 119.672C11.0775 119.581 11.2161 119.536 11.3761 119.536H12.0161L11.3441 122.912H13.3201L13.9921 119.536H14.6241C14.7788 119.536 14.8988 119.587 14.9841 119.688C15.0748 119.789 15.1068 119.917 15.0801 120.072L14.4961 122.912H16.1921ZM19.6254 120.8V124.808H24.3374V126.072H19.6254V131H18.0734V119.536H25.1374V120.8H19.6254ZM28.6723 120.8V124.808H33.3843V126.072H28.6723V131H27.1203V119.536H34.1843V120.8H28.6723ZM44.1058 128.632C44.1911 128.632 44.2658 128.667 44.3298 128.736L44.9458 129.4C44.4764 129.944 43.9058 130.368 43.2338 130.672C42.5671 130.976 41.7591 131.128 40.8098 131.128C39.9884 131.128 39.2418 130.987 38.5698 130.704C37.8978 130.416 37.3244 130.016 36.8498 129.504C36.3751 128.987 36.0071 128.368 35.7458 127.648C35.4844 126.928 35.3538 126.136 35.3538 125.272C35.3538 124.408 35.4898 123.616 35.7618 122.896C36.0338 122.176 36.4151 121.557 36.9058 121.04C37.4018 120.523 37.9938 120.123 38.6818 119.84C39.3698 119.552 40.1298 119.408 40.9618 119.408C41.7778 119.408 42.4978 119.539 43.1218 119.8C43.7458 120.061 44.2951 120.416 44.7698 120.864L44.2578 121.576C44.2258 121.629 44.1831 121.675 44.1298 121.712C44.0818 121.744 44.0151 121.76 43.9298 121.76C43.8338 121.76 43.7164 121.709 43.5778 121.608C43.4391 121.501 43.2578 121.384 43.0338 121.256C42.8098 121.128 42.5298 121.013 42.1938 120.912C41.8578 120.805 41.4444 120.752 40.9538 120.752C40.3618 120.752 39.8204 120.856 39.3298 121.064C38.8391 121.267 38.4151 121.563 38.0578 121.952C37.7058 122.341 37.4311 122.816 37.2338 123.376C37.0364 123.936 36.9378 124.568 36.9378 125.272C36.9378 125.987 37.0391 126.624 37.2418 127.184C37.4498 127.744 37.7298 128.219 38.0818 128.608C38.4391 128.992 38.8578 129.285 39.3378 129.488C39.8231 129.691 40.3458 129.792 40.9058 129.792C41.2471 129.792 41.5538 129.773 41.8258 129.736C42.1031 129.693 42.3564 129.629 42.5858 129.544C42.8204 129.459 43.0364 129.352 43.2338 129.224C43.4364 129.091 43.6364 128.933 43.8338 128.752C43.9244 128.672 44.0151 128.632 44.1058 128.632ZM52.8333 126.744L51.0333 122.08C50.9799 121.941 50.9239 121.781 50.8653 121.6C50.8066 121.413 50.7506 121.216 50.6973 121.008C50.5853 121.44 50.4706 121.8 50.3533 122.088L48.5533 126.744H52.8333ZM56.0653 131H54.8653C54.7266 131 54.6146 130.965 54.5293 130.896C54.4439 130.827 54.3799 130.739 54.3373 130.632L53.2653 127.864H48.1213L47.0493 130.632C47.0173 130.728 46.9559 130.813 46.8653 130.888C46.7746 130.963 46.6626 131 46.5293 131H45.3293L49.9133 119.536H51.4813L56.0653 131ZM60.7334 129.944C61.1174 129.944 61.464 129.883 61.7734 129.76C62.088 129.637 62.3547 129.467 62.5734 129.248C62.7974 129.029 62.968 128.771 63.0854 128.472C63.208 128.173 63.2694 127.848 63.2694 127.496C63.2694 127.123 63.2107 126.787 63.0934 126.488C62.976 126.184 62.808 125.928 62.5894 125.72C62.376 125.507 62.12 125.344 61.8214 125.232C61.5227 125.12 61.1947 125.064 60.8374 125.064C60.4534 125.064 60.1067 125.131 59.7974 125.264C59.488 125.392 59.224 125.568 59.0054 125.792C58.792 126.011 58.6267 126.267 58.5094 126.56C58.3974 126.848 58.3414 127.149 58.3414 127.464C58.3414 127.832 58.3947 128.168 58.5014 128.472C58.608 128.776 58.7627 129.037 58.9654 129.256C59.1734 129.475 59.424 129.645 59.7174 129.768C60.016 129.885 60.3547 129.944 60.7334 129.944ZM59.9014 123.832C59.8 123.96 59.7014 124.085 59.6054 124.208C59.5147 124.325 59.4267 124.443 59.3414 124.56C59.6134 124.373 59.912 124.229 60.2374 124.128C60.5627 124.027 60.9174 123.976 61.3014 123.976C61.7654 123.976 62.2027 124.053 62.6134 124.208C63.024 124.357 63.3814 124.579 63.6854 124.872C63.9947 125.16 64.24 125.517 64.4214 125.944C64.6027 126.365 64.6934 126.848 64.6934 127.392C64.6934 127.92 64.5974 128.411 64.4054 128.864C64.2134 129.317 63.944 129.712 63.5974 130.048C63.256 130.384 62.8427 130.648 62.3574 130.84C61.8774 131.032 61.3467 131.128 60.7654 131.128C60.1894 131.128 59.6667 131.037 59.1974 130.856C58.728 130.669 58.328 130.408 57.9974 130.072C57.672 129.731 57.4187 129.32 57.2374 128.84C57.0614 128.355 56.9734 127.813 56.9734 127.216C56.9734 126.715 57.0827 126.181 57.3014 125.616C57.5254 125.045 57.88 124.437 58.3654 123.792L61.2774 119.88C61.352 119.784 61.4534 119.704 61.5814 119.64C61.7147 119.571 61.8667 119.536 62.0374 119.536H63.3014L59.9014 123.832ZM73.2866 129.648C73.4413 129.648 73.564 129.693 73.6546 129.784C73.7453 129.875 73.7906 129.992 73.7906 130.136V131H66.1426V130.512C66.1426 130.411 66.164 130.307 66.2066 130.2C66.2493 130.093 66.316 129.995 66.4066 129.904L70.0786 126.216C70.3826 125.907 70.66 125.611 70.9106 125.328C71.1613 125.04 71.3746 124.752 71.5506 124.464C71.7266 124.176 71.8626 123.885 71.9586 123.592C72.0546 123.293 72.1026 122.976 72.1026 122.64C72.1026 122.304 72.0493 122.011 71.9426 121.76C71.836 121.504 71.6893 121.293 71.5026 121.128C71.3213 120.963 71.1053 120.84 70.8546 120.76C70.604 120.675 70.3346 120.632 70.0466 120.632C69.7533 120.632 69.484 120.675 69.2386 120.76C68.9933 120.845 68.7746 120.965 68.5826 121.12C68.396 121.269 68.2386 121.448 68.1106 121.656C67.9826 121.864 67.892 122.093 67.8386 122.344C67.7746 122.531 67.6866 122.656 67.5746 122.72C67.468 122.779 67.316 122.795 67.1186 122.768L66.3746 122.64C66.4493 122.117 66.5933 121.656 66.8066 121.256C67.0253 120.851 67.2973 120.512 67.6226 120.24C67.9533 119.968 68.3293 119.763 68.7506 119.624C69.172 119.48 69.628 119.408 70.1186 119.408C70.604 119.408 71.0573 119.48 71.4786 119.624C71.9 119.768 72.2653 119.979 72.5746 120.256C72.884 120.528 73.1266 120.861 73.3026 121.256C73.4786 121.651 73.5666 122.099 73.5666 122.6C73.5666 123.027 73.5026 123.424 73.3746 123.792C73.2466 124.155 73.0733 124.501 72.8546 124.832C72.636 125.163 72.3826 125.485 72.0946 125.8C71.812 126.115 71.5106 126.432 71.1906 126.752L68.1666 129.84C68.38 129.781 68.596 129.736 68.8146 129.704C69.0333 129.667 69.244 129.648 69.4466 129.648H73.2866Z" fill="black"/>
<path d="M78.5092 269.536V281H77.1492V272.576C77.1492 272.464 77.1519 272.344 77.1572 272.216C77.1679 272.088 77.1785 271.957 77.1892 271.824L73.2532 278.992C73.1305 279.232 72.9439 279.352 72.6932 279.352H72.4692C72.2185 279.352 72.0319 279.232 71.9092 278.992L67.8932 271.792C67.9252 272.075 67.9412 272.336 67.9412 272.576V281H66.5812V269.536H67.7252C67.8639 269.536 67.9705 269.549 68.0452 269.576C68.1199 269.603 68.1919 269.677 68.2612 269.8L72.2212 276.856C72.2852 276.984 72.3465 277.117 72.4052 277.256C72.4692 277.395 72.5279 277.536 72.5812 277.68C72.6345 277.536 72.6905 277.395 72.7492 277.256C72.8079 277.112 72.8719 276.976 72.9412 276.848L76.8292 269.8C76.8932 269.677 76.9625 269.603 77.0372 269.576C77.1172 269.549 77.2265 269.536 77.3652 269.536H78.5092ZM85.2622 277.352C84.6062 277.373 84.0462 277.427 83.5822 277.512C83.1235 277.592 82.7475 277.699 82.4542 277.832C82.1662 277.965 81.9555 278.123 81.8222 278.304C81.6942 278.485 81.6302 278.688 81.6302 278.912C81.6302 279.125 81.6649 279.309 81.7342 279.464C81.8035 279.619 81.8969 279.747 82.0142 279.848C82.1369 279.944 82.2782 280.016 82.4382 280.064C82.6035 280.107 82.7795 280.128 82.9662 280.128C83.2169 280.128 83.4462 280.104 83.6542 280.056C83.8622 280.003 84.0569 279.928 84.2382 279.832C84.4249 279.736 84.6009 279.621 84.7662 279.488C84.9369 279.355 85.1022 279.203 85.2622 279.032V277.352ZM80.6622 274.04C81.1102 273.608 81.5929 273.285 82.1102 273.072C82.6275 272.859 83.2009 272.752 83.8302 272.752C84.2835 272.752 84.6862 272.827 85.0382 272.976C85.3902 273.125 85.6862 273.333 85.9262 273.6C86.1662 273.867 86.3475 274.189 86.4702 274.568C86.5929 274.947 86.6542 275.363 86.6542 275.816V281H86.0222C85.8835 281 85.7769 280.979 85.7022 280.936C85.6275 280.888 85.5689 280.797 85.5262 280.664L85.3662 279.896C85.1529 280.093 84.9449 280.269 84.7422 280.424C84.5395 280.573 84.3262 280.701 84.1022 280.808C83.8782 280.909 83.6382 280.987 83.3822 281.04C83.1315 281.099 82.8515 281.128 82.5422 281.128C82.2275 281.128 81.9315 281.085 81.6542 281C81.3769 280.909 81.1342 280.776 80.9262 280.6C80.7235 280.424 80.5609 280.203 80.4382 279.936C80.3209 279.664 80.2622 279.344 80.2622 278.976C80.2622 278.656 80.3502 278.349 80.5262 278.056C80.7022 277.757 80.9875 277.493 81.3822 277.264C81.7769 277.035 82.2915 276.848 82.9262 276.704C83.5609 276.555 84.3395 276.469 85.2622 276.448V275.816C85.2622 275.187 85.1262 274.712 84.8542 274.392C84.5822 274.067 84.1849 273.904 83.6622 273.904C83.3102 273.904 83.0142 273.949 82.7742 274.04C82.5395 274.125 82.3342 274.224 82.1582 274.336C81.9875 274.443 81.8382 274.541 81.7102 274.632C81.5875 274.717 81.4649 274.76 81.3422 274.76C81.2462 274.76 81.1635 274.736 81.0942 274.688C81.0249 274.635 80.9662 274.571 80.9182 274.496L80.6622 274.04ZM90.2553 273.976C90.602 273.608 90.986 273.315 91.4073 273.096C91.8286 272.877 92.314 272.768 92.8633 272.768C93.306 272.768 93.6953 272.843 94.0313 272.992C94.3726 273.136 94.6553 273.344 94.8793 273.616C95.1086 273.883 95.282 274.205 95.3993 274.584C95.5166 274.963 95.5753 275.381 95.5753 275.84V281H94.1433V275.84C94.1433 275.227 94.002 274.752 93.7193 274.416C93.442 274.075 93.018 273.904 92.4473 273.904C92.026 273.904 91.6313 274.005 91.2633 274.208C90.9006 274.411 90.5646 274.685 90.2553 275.032V281H88.8233V269.216H90.2553V273.976ZM101.161 272.768C101.753 272.768 102.287 272.867 102.761 273.064C103.236 273.261 103.641 273.541 103.977 273.904C104.313 274.267 104.569 274.707 104.745 275.224C104.927 275.736 105.017 276.309 105.017 276.944C105.017 277.584 104.927 278.16 104.745 278.672C104.569 279.184 104.313 279.621 103.977 279.984C103.641 280.347 103.236 280.627 102.761 280.824C102.287 281.016 101.753 281.112 101.161 281.112C100.564 281.112 100.025 281.016 99.5452 280.824C99.0705 280.627 98.6652 280.347 98.3292 279.984C97.9932 279.621 97.7345 279.184 97.5532 278.672C97.3772 278.16 97.2892 277.584 97.2892 276.944C97.2892 276.309 97.3772 275.736 97.5532 275.224C97.7345 274.707 97.9932 274.267 98.3292 273.904C98.6652 273.541 99.0705 273.261 99.5452 273.064C100.025 272.867 100.564 272.768 101.161 272.768ZM101.161 280C101.961 280 102.559 279.733 102.953 279.2C103.348 278.661 103.545 277.912 103.545 276.952C103.545 275.987 103.348 275.235 102.953 274.696C102.559 274.157 101.961 273.888 101.161 273.888C100.756 273.888 100.401 273.957 100.097 274.096C99.7985 274.235 99.5479 274.435 99.3452 274.696C99.1479 274.957 98.9985 275.28 98.8972 275.664C98.8012 276.043 98.7532 276.472 98.7532 276.952C98.7532 277.912 98.9505 278.661 99.3452 279.2C99.7452 279.733 100.351 280 101.161 280ZM109.6 277.04C109.888 277.04 110.142 277 110.36 276.92C110.579 276.84 110.763 276.728 110.912 276.584C111.062 276.44 111.174 276.269 111.248 276.072C111.323 275.869 111.36 275.648 111.36 275.408C111.36 274.912 111.208 274.517 110.904 274.224C110.606 273.931 110.171 273.784 109.6 273.784C109.024 273.784 108.584 273.931 108.28 274.224C107.982 274.517 107.832 274.912 107.832 275.408C107.832 275.648 107.87 275.869 107.944 276.072C108.024 276.269 108.139 276.44 108.288 276.584C108.438 276.728 108.622 276.84 108.84 276.92C109.059 277 109.312 277.04 109.6 277.04ZM112.168 281.44C112.168 281.243 112.112 281.083 112 280.96C111.888 280.837 111.736 280.741 111.544 280.672C111.358 280.603 111.139 280.555 110.888 280.528C110.638 280.496 110.371 280.472 110.088 280.456C109.811 280.44 109.528 280.424 109.24 280.408C108.952 280.392 108.675 280.365 108.408 280.328C108.11 280.467 107.864 280.643 107.672 280.856C107.486 281.064 107.392 281.309 107.392 281.592C107.392 281.773 107.438 281.941 107.528 282.096C107.624 282.256 107.768 282.392 107.96 282.504C108.152 282.621 108.392 282.712 108.68 282.776C108.974 282.845 109.318 282.88 109.712 282.88C110.096 282.88 110.44 282.845 110.744 282.776C111.048 282.707 111.304 282.608 111.512 282.48C111.726 282.352 111.888 282.2 112 282.024C112.112 281.848 112.168 281.653 112.168 281.44ZM113.616 273.216V273.744C113.616 273.92 113.504 274.032 113.28 274.08L112.36 274.2C112.542 274.552 112.632 274.941 112.632 275.368C112.632 275.763 112.555 276.123 112.4 276.448C112.251 276.768 112.043 277.043 111.776 277.272C111.51 277.501 111.19 277.677 110.816 277.8C110.443 277.923 110.038 277.984 109.6 277.984C109.222 277.984 108.864 277.939 108.528 277.848C108.358 277.955 108.227 278.069 108.136 278.192C108.046 278.309 108 278.429 108 278.552C108 278.744 108.078 278.891 108.232 278.992C108.392 279.088 108.6 279.157 108.856 279.2C109.112 279.243 109.403 279.269 109.728 279.28C110.059 279.291 110.395 279.309 110.736 279.336C111.083 279.357 111.419 279.397 111.744 279.456C112.075 279.515 112.368 279.611 112.624 279.744C112.88 279.877 113.086 280.061 113.24 280.296C113.4 280.531 113.48 280.835 113.48 281.208C113.48 281.555 113.392 281.891 113.216 282.216C113.046 282.541 112.798 282.829 112.472 283.08C112.147 283.336 111.747 283.539 111.272 283.688C110.803 283.843 110.272 283.92 109.68 283.92C109.088 283.92 108.571 283.861 108.128 283.744C107.686 283.627 107.318 283.469 107.024 283.272C106.731 283.075 106.51 282.845 106.36 282.584C106.216 282.328 106.144 282.059 106.144 281.776C106.144 281.376 106.27 281.037 106.52 280.76C106.771 280.483 107.115 280.261 107.552 280.096C107.312 279.989 107.12 279.848 106.976 279.672C106.838 279.491 106.768 279.248 106.768 278.944C106.768 278.827 106.79 278.707 106.832 278.584C106.875 278.456 106.939 278.331 107.024 278.208C107.115 278.08 107.224 277.96 107.352 277.848C107.48 277.736 107.63 277.637 107.8 277.552C107.4 277.328 107.088 277.032 106.864 276.664C106.64 276.291 106.528 275.859 106.528 275.368C106.528 274.973 106.603 274.616 106.752 274.296C106.907 273.971 107.12 273.696 107.392 273.472C107.664 273.243 107.987 273.067 108.36 272.944C108.739 272.821 109.152 272.76 109.6 272.76C109.952 272.76 110.28 272.8 110.584 272.88C110.888 272.955 111.166 273.067 111.416 273.216H113.616ZM119.481 277.352C118.825 277.373 118.265 277.427 117.801 277.512C117.342 277.592 116.966 277.699 116.673 277.832C116.385 277.965 116.174 278.123 116.041 278.304C115.913 278.485 115.849 278.688 115.849 278.912C115.849 279.125 115.884 279.309 115.953 279.464C116.022 279.619 116.116 279.747 116.233 279.848C116.356 279.944 116.497 280.016 116.657 280.064C116.822 280.107 116.998 280.128 117.185 280.128C117.436 280.128 117.665 280.104 117.873 280.056C118.081 280.003 118.276 279.928 118.457 279.832C118.644 279.736 118.82 279.621 118.985 279.488C119.156 279.355 119.321 279.203 119.481 279.032V277.352ZM114.881 274.04C115.329 273.608 115.812 273.285 116.329 273.072C116.846 272.859 117.42 272.752 118.049 272.752C118.502 272.752 118.905 272.827 119.257 272.976C119.609 273.125 119.905 273.333 120.145 273.6C120.385 273.867 120.566 274.189 120.689 274.568C120.812 274.947 120.873 275.363 120.873 275.816V281H120.241C120.102 281 119.996 280.979 119.921 280.936C119.846 280.888 119.788 280.797 119.745 280.664L119.585 279.896C119.372 280.093 119.164 280.269 118.961 280.424C118.758 280.573 118.545 280.701 118.321 280.808C118.097 280.909 117.857 280.987 117.601 281.04C117.35 281.099 117.07 281.128 116.761 281.128C116.446 281.128 116.15 281.085 115.873 281C115.596 280.909 115.353 280.776 115.145 280.6C114.942 280.424 114.78 280.203 114.657 279.936C114.54 279.664 114.481 279.344 114.481 278.976C114.481 278.656 114.569 278.349 114.745 278.056C114.921 277.757 115.206 277.493 115.601 277.264C115.996 277.035 116.51 276.848 117.145 276.704C117.78 276.555 118.558 276.469 119.481 276.448V275.816C119.481 275.187 119.345 274.712 119.073 274.392C118.801 274.067 118.404 273.904 117.881 273.904C117.529 273.904 117.233 273.949 116.993 274.04C116.758 274.125 116.553 274.224 116.377 274.336C116.206 274.443 116.057 274.541 115.929 274.632C115.806 274.717 115.684 274.76 115.561 274.76C115.465 274.76 115.382 274.736 115.313 274.688C115.244 274.635 115.185 274.571 115.137 274.496L114.881 274.04ZM124.386 274.072C124.562 273.875 124.749 273.696 124.946 273.536C125.143 273.376 125.351 273.24 125.57 273.128C125.794 273.011 126.029 272.923 126.274 272.864C126.525 272.8 126.794 272.768 127.082 272.768C127.525 272.768 127.914 272.843 128.25 272.992C128.591 273.136 128.874 273.344 129.098 273.616C129.327 273.883 129.501 274.205 129.618 274.584C129.735 274.963 129.794 275.381 129.794 275.84V281H128.362V275.84C128.362 275.227 128.221 274.752 127.938 274.416C127.661 274.075 127.237 273.904 126.666 273.904C126.245 273.904 125.85 274.005 125.482 274.208C125.119 274.411 124.783 274.685 124.474 275.032V281H123.042V272.896H123.898C124.101 272.896 124.226 272.995 124.274 273.192L124.386 274.072ZM138.753 272.896L134.233 283.392C134.185 283.499 134.123 283.584 134.049 283.648C133.979 283.712 133.87 283.744 133.721 283.744H132.665L134.145 280.528L130.801 272.896H132.033C132.155 272.896 132.251 272.928 132.321 272.992C132.395 273.051 132.446 273.117 132.473 273.192L134.641 278.296C134.726 278.52 134.798 278.755 134.857 279C134.931 278.749 135.011 278.512 135.097 278.288L137.201 273.192C137.233 273.107 137.286 273.037 137.361 272.984C137.441 272.925 137.529 272.896 137.625 272.896H138.753ZM73.9103 298.96H71.9343L71.4143 301.568H73.3903L73.9103 298.96ZM76.9343 297.912L76.8303 298.512C76.8036 298.667 76.7396 298.781 76.6383 298.856C76.5423 298.925 76.393 298.96 76.1903 298.96H75.0863L74.5663 301.568H75.9983C76.153 301.568 76.2623 301.613 76.3263 301.704C76.3956 301.789 76.4143 301.941 76.3823 302.16L76.3103 302.616H74.4143L73.7423 306H73.0943C73.025 306 72.961 305.984 72.9023 305.952C72.8436 305.92 72.793 305.877 72.7503 305.824C72.713 305.771 72.6863 305.707 72.6703 305.632C72.6543 305.557 72.6543 305.475 72.6703 305.384L73.2383 302.616H71.2623L70.6943 305.456C70.6623 305.653 70.585 305.795 70.4623 305.88C70.3396 305.96 70.201 306 70.0463 306H69.4063L70.0863 302.616H68.9183C68.769 302.616 68.6596 302.573 68.5903 302.488C68.5263 302.397 68.5103 302.243 68.5423 302.024L68.6063 301.568H70.2383L70.7583 298.96H68.9023L69.0063 298.368C69.033 298.213 69.0943 298.099 69.1903 298.024C69.2916 297.949 69.4436 297.912 69.6463 297.912H70.9103L71.4863 295.048C71.5183 294.888 71.5903 294.763 71.7023 294.672C71.8196 294.581 71.9583 294.536 72.1183 294.536H72.7583L72.0863 297.912H74.0623L74.7343 294.536H75.3663C75.521 294.536 75.641 294.587 75.7263 294.688C75.817 294.789 75.849 294.917 75.8223 295.072L75.2383 297.912H76.9343ZM81.9916 304.992C82.3649 304.992 82.6982 304.941 82.9916 304.84C83.2902 304.733 83.5409 304.587 83.7436 304.4C83.9516 304.208 84.1089 303.981 84.2156 303.72C84.3276 303.453 84.3836 303.16 84.3836 302.84C84.3836 302.445 84.3169 302.109 84.1836 301.832C84.0556 301.549 83.8796 301.32 83.6556 301.144C83.4369 300.968 83.1836 300.84 82.8956 300.76C82.6076 300.675 82.3062 300.632 81.9916 300.632C81.6769 300.632 81.3756 300.675 81.0876 300.76C80.7996 300.84 80.5436 300.968 80.3196 301.144C80.1009 301.32 79.9249 301.549 79.7916 301.832C79.6636 302.109 79.5996 302.445 79.5996 302.84C79.5996 303.16 79.6529 303.453 79.7596 303.72C79.8716 303.981 80.0289 304.208 80.2316 304.4C80.4396 304.587 80.6902 304.733 80.9836 304.84C81.2822 304.941 81.6182 304.992 81.9916 304.992ZM81.9916 295.512C81.6502 295.512 81.3489 295.563 81.0876 295.664C80.8316 295.765 80.6156 295.904 80.4396 296.08C80.2689 296.256 80.1382 296.461 80.0476 296.696C79.9622 296.931 79.9196 297.181 79.9196 297.448C79.9196 297.709 79.9569 297.963 80.0316 298.208C80.1062 298.453 80.2262 298.672 80.3916 298.864C80.5569 299.051 80.7702 299.203 81.0316 299.32C81.2982 299.432 81.6182 299.488 81.9916 299.488C82.3649 299.488 82.6822 299.432 82.9436 299.32C83.2102 299.203 83.4262 299.051 83.5916 298.864C83.7569 298.672 83.8769 298.453 83.9516 298.208C84.0262 297.963 84.0636 297.709 84.0636 297.448C84.0636 297.181 84.0182 296.931 83.9276 296.696C83.8422 296.461 83.7116 296.256 83.5356 296.08C83.3649 295.904 83.1489 295.765 82.8876 295.664C82.6316 295.563 82.3329 295.512 81.9916 295.512ZM83.6316 300.024C84.3462 300.227 84.8956 300.565 85.2796 301.04C85.6636 301.515 85.8556 302.123 85.8556 302.864C85.8556 303.365 85.7596 303.819 85.5676 304.224C85.3809 304.624 85.1169 304.965 84.7756 305.248C84.4396 305.531 84.0342 305.749 83.5596 305.904C83.0849 306.053 82.5622 306.128 81.9916 306.128C81.4209 306.128 80.8982 306.053 80.4236 305.904C79.9489 305.749 79.5409 305.531 79.1996 305.248C78.8582 304.965 78.5942 304.624 78.4076 304.224C78.2209 303.819 78.1276 303.365 78.1276 302.864C78.1276 302.123 78.3196 301.515 78.7036 301.04C79.0876 300.565 79.6369 300.227 80.3516 300.024C79.7489 299.8 79.2929 299.467 78.9836 299.024C78.6796 298.576 78.5276 298.043 78.5276 297.424C78.5276 297.003 78.6102 296.608 78.7756 296.24C78.9409 295.872 79.1756 295.552 79.4796 295.28C79.7836 295.008 80.1462 294.795 80.5676 294.64C80.9942 294.485 81.4689 294.408 81.9916 294.408C82.5089 294.408 82.9809 294.485 83.4076 294.64C83.8342 294.795 84.1996 295.008 84.5036 295.28C84.8076 295.552 85.0422 295.872 85.2076 296.24C85.3729 296.608 85.4556 297.003 85.4556 297.424C85.4556 298.043 85.3009 298.576 84.9916 299.024C84.6876 299.467 84.2342 299.8 83.6316 300.024ZM94.5288 304.648C94.6835 304.648 94.8061 304.693 94.8968 304.784C94.9875 304.875 95.0328 304.992 95.0328 305.136V306H87.3848V305.512C87.3848 305.411 87.4061 305.307 87.4488 305.2C87.4915 305.093 87.5581 304.995 87.6488 304.904L91.3208 301.216C91.6248 300.907 91.9021 300.611 92.1528 300.328C92.4035 300.04 92.6168 299.752 92.7928 299.464C92.9688 299.176 93.1048 298.885 93.2008 298.592C93.2968 298.293 93.3448 297.976 93.3448 297.64C93.3448 297.304 93.2915 297.011 93.1848 296.76C93.0781 296.504 92.9315 296.293 92.7448 296.128C92.5635 295.963 92.3475 295.84 92.0968 295.76C91.8461 295.675 91.5768 295.632 91.2888 295.632C90.9955 295.632 90.7261 295.675 90.4808 295.76C90.2355 295.845 90.0168 295.965 89.8248 296.12C89.6381 296.269 89.4808 296.448 89.3528 296.656C89.2248 296.864 89.1341 297.093 89.0808 297.344C89.0168 297.531 88.9288 297.656 88.8168 297.72C88.7101 297.779 88.5581 297.795 88.3608 297.768L87.6168 297.64C87.6915 297.117 87.8355 296.656 88.0488 296.256C88.2675 295.851 88.5395 295.512 88.8648 295.24C89.1955 294.968 89.5715 294.763 89.9928 294.624C90.4141 294.48 90.8701 294.408 91.3608 294.408C91.8461 294.408 92.2995 294.48 92.7208 294.624C93.1421 294.768 93.5075 294.979 93.8168 295.256C94.1261 295.528 94.3688 295.861 94.5448 296.256C94.7208 296.651 94.8088 297.099 94.8088 297.6C94.8088 298.027 94.7448 298.424 94.6168 298.792C94.4888 299.155 94.3155 299.501 94.0968 299.832C93.8781 300.163 93.6248 300.485 93.3368 300.8C93.0541 301.115 92.7528 301.432 92.4328 301.752L89.4088 304.84C89.6221 304.781 89.8381 304.736 90.0568 304.704C90.2755 304.667 90.4861 304.648 90.6888 304.648H94.5288ZM96.9541 297.64C97.0287 297.117 97.1727 296.656 97.3861 296.256C97.5994 295.851 97.8687 295.512 98.1941 295.24C98.5247 294.968 98.9007 294.763 99.3221 294.624C99.7487 294.48 100.207 294.408 100.698 294.408C101.183 294.408 101.631 294.477 102.042 294.616C102.453 294.755 102.805 294.952 103.098 295.208C103.397 295.464 103.629 295.773 103.794 296.136C103.959 296.499 104.042 296.901 104.042 297.344C104.042 297.707 103.994 298.032 103.898 298.32C103.807 298.603 103.674 298.851 103.498 299.064C103.327 299.277 103.119 299.459 102.874 299.608C102.629 299.757 102.354 299.88 102.05 299.976C102.797 300.168 103.357 300.499 103.73 300.968C104.109 301.432 104.298 302.013 104.298 302.712C104.298 303.24 104.197 303.715 103.994 304.136C103.797 304.557 103.525 304.917 103.178 305.216C102.831 305.509 102.426 305.736 101.962 305.896C101.503 306.051 101.01 306.128 100.482 306.128C99.8741 306.128 99.3541 306.053 98.9221 305.904C98.4901 305.749 98.1247 305.539 97.8261 305.272C97.5274 305.005 97.2821 304.691 97.0901 304.328C96.8981 303.96 96.7354 303.563 96.6021 303.136L97.2181 302.88C97.3781 302.811 97.5327 302.792 97.6821 302.824C97.8367 302.856 97.9487 302.944 98.0181 303.088C98.0874 303.237 98.1727 303.416 98.2741 303.624C98.3807 303.832 98.5247 304.032 98.7061 304.224C98.8874 304.416 99.1167 304.579 99.3941 304.712C99.6767 304.845 100.034 304.912 100.466 304.912C100.866 304.912 101.215 304.848 101.514 304.72C101.818 304.587 102.069 304.416 102.266 304.208C102.469 304 102.621 303.768 102.722 303.512C102.823 303.256 102.874 303.003 102.874 302.752C102.874 302.443 102.834 302.16 102.754 301.904C102.674 301.648 102.525 301.427 102.306 301.24C102.087 301.053 101.786 300.907 101.402 300.8C101.023 300.693 100.535 300.64 99.9381 300.64V299.608C100.429 299.603 100.845 299.549 101.186 299.448C101.533 299.347 101.813 299.208 102.026 299.032C102.245 298.856 102.402 298.645 102.498 298.4C102.599 298.155 102.65 297.883 102.65 297.584C102.65 297.253 102.597 296.965 102.49 296.72C102.389 296.475 102.247 296.272 102.066 296.112C101.885 295.952 101.669 295.832 101.418 295.752C101.173 295.672 100.906 295.632 100.618 295.632C100.33 295.632 100.061 295.675 99.8101 295.76C99.5647 295.845 99.3461 295.965 99.1541 296.12C98.9674 296.269 98.8101 296.448 98.6821 296.656C98.5541 296.864 98.4634 297.093 98.4101 297.344C98.3407 297.531 98.2527 297.656 98.1461 297.72C98.0447 297.779 97.8954 297.795 97.6981 297.768L96.9541 297.64ZM113.091 304.648C113.246 304.648 113.369 304.693 113.459 304.784C113.55 304.875 113.595 304.992 113.595 305.136V306H105.947V305.512C105.947 305.411 105.969 305.307 106.011 305.2C106.054 305.093 106.121 304.995 106.211 304.904L109.883 301.216C110.187 300.907 110.465 300.611 110.715 300.328C110.966 300.04 111.179 299.752 111.355 299.464C111.531 299.176 111.667 298.885 111.763 298.592C111.859 298.293 111.907 297.976 111.907 297.64C111.907 297.304 111.854 297.011 111.747 296.76C111.641 296.504 111.494 296.293 111.307 296.128C111.126 295.963 110.91 295.84 110.659 295.76C110.409 295.675 110.139 295.632 109.851 295.632C109.558 295.632 109.289 295.675 109.043 295.76C108.798 295.845 108.579 295.965 108.387 296.12C108.201 296.269 108.043 296.448 107.915 296.656C107.787 296.864 107.697 297.093 107.643 297.344C107.579 297.531 107.491 297.656 107.379 297.72C107.273 297.779 107.121 297.795 106.923 297.768L106.179 297.64C106.254 297.117 106.398 296.656 106.611 296.256C106.83 295.851 107.102 295.512 107.427 295.24C107.758 294.968 108.134 294.763 108.555 294.624C108.977 294.48 109.433 294.408 109.923 294.408C110.409 294.408 110.862 294.48 111.283 294.624C111.705 294.768 112.07 294.979 112.379 295.256C112.689 295.528 112.931 295.861 113.107 296.256C113.283 296.651 113.371 297.099 113.371 297.6C113.371 298.027 113.307 298.424 113.179 298.792C113.051 299.155 112.878 299.501 112.659 299.832C112.441 300.163 112.187 300.485 111.899 300.8C111.617 301.115 111.315 301.432 110.995 301.752L107.971 304.84C108.185 304.781 108.401 304.736 108.619 304.704C108.838 304.667 109.049 304.648 109.251 304.648H113.091ZM122.621 304.912V306H116.477V304.912H118.933V297.096C118.933 296.861 118.941 296.624 118.957 296.384L116.917 298.136C116.847 298.195 116.778 298.232 116.709 298.248C116.639 298.259 116.575 298.259 116.517 298.248C116.458 298.237 116.402 298.216 116.349 298.184C116.301 298.152 116.263 298.117 116.237 298.08L115.789 297.464L119.205 294.512H120.365V304.912H122.621ZM135.158 300.272C135.158 301.131 135.022 301.912 134.75 302.616C134.478 303.32 134.094 303.923 133.598 304.424C133.102 304.925 132.504 305.315 131.806 305.592C131.112 305.864 130.344 306 129.502 306H125.222V294.536H129.502C130.344 294.536 131.112 294.675 131.806 294.952C132.504 295.224 133.102 295.613 133.598 296.12C134.094 296.621 134.478 297.224 134.75 297.928C135.022 298.632 135.158 299.413 135.158 300.272ZM133.566 300.272C133.566 299.568 133.47 298.939 133.278 298.384C133.086 297.829 132.814 297.36 132.462 296.976C132.11 296.592 131.683 296.299 131.182 296.096C130.68 295.893 130.12 295.792 129.502 295.792H126.774V304.744H129.502C130.12 304.744 130.68 304.643 131.182 304.44C131.683 304.237 132.11 303.947 132.462 303.568C132.814 303.184 133.086 302.715 133.278 302.16C133.47 301.605 133.566 300.976 133.566 300.272Z" fill="black"/>
<path d="M199.644 279.768C200.087 279.768 200.468 279.717 200.788 279.616C201.108 279.515 201.37 279.373 201.572 279.192C201.78 279.005 201.932 278.787 202.028 278.536C202.124 278.28 202.172 278 202.172 277.696C202.172 277.104 201.962 276.637 201.54 276.296C201.119 275.949 200.487 275.776 199.644 275.776H197.164V279.768H199.644ZM197.164 270.76V274.672H199.212C199.65 274.672 200.028 274.624 200.348 274.528C200.674 274.432 200.94 274.299 201.148 274.128C201.362 273.957 201.519 273.752 201.62 273.512C201.722 273.267 201.772 273 201.772 272.712C201.772 272.035 201.57 271.541 201.164 271.232C200.759 270.917 200.13 270.76 199.276 270.76H197.164ZM199.276 269.536C199.98 269.536 200.586 269.605 201.092 269.744C201.604 269.883 202.023 270.08 202.348 270.336C202.679 270.592 202.922 270.907 203.076 271.28C203.231 271.648 203.308 272.064 203.308 272.528C203.308 272.811 203.263 273.083 203.172 273.344C203.087 273.6 202.956 273.84 202.78 274.064C202.604 274.288 202.38 274.491 202.108 274.672C201.842 274.848 201.527 274.992 201.164 275.104C202.007 275.264 202.639 275.565 203.06 276.008C203.487 276.445 203.7 277.021 203.7 277.736C203.7 278.221 203.61 278.664 203.428 279.064C203.252 279.464 202.991 279.808 202.644 280.096C202.303 280.384 201.882 280.608 201.38 280.768C200.879 280.923 200.308 281 199.668 281H195.62V269.536H199.276ZM206.944 269.216V281H205.52V269.216H206.944ZM213.645 277.352C212.989 277.373 212.429 277.427 211.965 277.512C211.506 277.592 211.13 277.699 210.837 277.832C210.549 277.965 210.338 278.123 210.205 278.304C210.077 278.485 210.013 278.688 210.013 278.912C210.013 279.125 210.048 279.309 210.117 279.464C210.186 279.619 210.28 279.747 210.397 279.848C210.52 279.944 210.661 280.016 210.821 280.064C210.986 280.107 211.162 280.128 211.349 280.128C211.6 280.128 211.829 280.104 212.037 280.056C212.245 280.003 212.44 279.928 212.621 279.832C212.808 279.736 212.984 279.621 213.149 279.488C213.32 279.355 213.485 279.203 213.645 279.032V277.352ZM209.045 274.04C209.493 273.608 209.976 273.285 210.493 273.072C211.01 272.859 211.584 272.752 212.213 272.752C212.666 272.752 213.069 272.827 213.421 272.976C213.773 273.125 214.069 273.333 214.309 273.6C214.549 273.867 214.73 274.189 214.853 274.568C214.976 274.947 215.037 275.363 215.037 275.816V281H214.405C214.266 281 214.16 280.979 214.085 280.936C214.01 280.888 213.952 280.797 213.909 280.664L213.749 279.896C213.536 280.093 213.328 280.269 213.125 280.424C212.922 280.573 212.709 280.701 212.485 280.808C212.261 280.909 212.021 280.987 211.765 281.04C211.514 281.099 211.234 281.128 210.925 281.128C210.61 281.128 210.314 281.085 210.037 281C209.76 280.909 209.517 280.776 209.309 280.6C209.106 280.424 208.944 280.203 208.821 279.936C208.704 279.664 208.645 279.344 208.645 278.976C208.645 278.656 208.733 278.349 208.909 278.056C209.085 277.757 209.37 277.493 209.765 277.264C210.16 277.035 210.674 276.848 211.309 276.704C211.944 276.555 212.722 276.469 213.645 276.448V275.816C213.645 275.187 213.509 274.712 213.237 274.392C212.965 274.067 212.568 273.904 212.045 273.904C211.693 273.904 211.397 273.949 211.157 274.04C210.922 274.125 210.717 274.224 210.541 274.336C210.37 274.443 210.221 274.541 210.093 274.632C209.97 274.717 209.848 274.76 209.725 274.76C209.629 274.76 209.546 274.736 209.477 274.688C209.408 274.635 209.349 274.571 209.301 274.496L209.045 274.04ZM222.846 274.336C222.803 274.395 222.761 274.44 222.718 274.472C222.675 274.504 222.617 274.52 222.542 274.52C222.462 274.52 222.374 274.488 222.278 274.424C222.182 274.355 222.062 274.28 221.918 274.2C221.779 274.12 221.606 274.048 221.398 273.984C221.195 273.915 220.945 273.88 220.646 273.88C220.246 273.88 219.894 273.952 219.59 274.096C219.286 274.235 219.03 274.437 218.822 274.704C218.619 274.971 218.465 275.293 218.358 275.672C218.257 276.051 218.206 276.475 218.206 276.944C218.206 277.435 218.262 277.872 218.374 278.256C218.486 278.635 218.643 278.955 218.846 279.216C219.054 279.472 219.302 279.669 219.59 279.808C219.883 279.941 220.211 280.008 220.574 280.008C220.921 280.008 221.206 279.968 221.43 279.888C221.654 279.803 221.838 279.709 221.982 279.608C222.131 279.507 222.254 279.416 222.35 279.336C222.451 279.251 222.55 279.208 222.646 279.208C222.763 279.208 222.854 279.253 222.918 279.344L223.318 279.864C223.142 280.083 222.942 280.269 222.718 280.424C222.494 280.579 222.251 280.709 221.99 280.816C221.734 280.917 221.465 280.992 221.182 281.04C220.899 281.088 220.611 281.112 220.318 281.112C219.811 281.112 219.339 281.019 218.902 280.832C218.47 280.645 218.094 280.376 217.774 280.024C217.454 279.667 217.203 279.229 217.022 278.712C216.841 278.195 216.75 277.605 216.75 276.944C216.75 276.341 216.833 275.784 216.998 275.272C217.169 274.76 217.414 274.32 217.734 273.952C218.059 273.579 218.457 273.288 218.926 273.08C219.401 272.872 219.945 272.768 220.558 272.768C221.129 272.768 221.63 272.861 222.062 273.048C222.499 273.229 222.886 273.488 223.222 273.824L222.846 274.336ZM226.279 269.216V276.152H226.647C226.753 276.152 226.841 276.139 226.911 276.112C226.985 276.08 227.063 276.019 227.143 275.928L229.703 273.184C229.777 273.093 229.855 273.024 229.935 272.976C230.02 272.923 230.132 272.896 230.271 272.896H231.559L228.575 276.072C228.431 276.253 228.276 276.395 228.111 276.496C228.207 276.56 228.292 276.635 228.367 276.72C228.447 276.8 228.521 276.893 228.591 277L231.759 281H230.487C230.364 281 230.257 280.981 230.167 280.944C230.081 280.901 230.007 280.827 229.943 280.72L227.279 277.4C227.199 277.288 227.119 277.216 227.039 277.184C226.964 277.147 226.847 277.128 226.687 277.128H226.279V281H224.847V269.216H226.279ZM186.356 298.96H184.38L183.86 301.568H185.836L186.356 298.96ZM189.38 297.912L189.276 298.512C189.249 298.667 189.185 298.781 189.084 298.856C188.988 298.925 188.838 298.96 188.636 298.96H187.532L187.012 301.568H188.444C188.598 301.568 188.708 301.613 188.772 301.704C188.841 301.789 188.86 301.941 188.828 302.16L188.756 302.616H186.86L186.188 306H185.54C185.47 306 185.406 305.984 185.348 305.952C185.289 305.92 185.238 305.877 185.196 305.824C185.158 305.771 185.132 305.707 185.116 305.632C185.1 305.557 185.1 305.475 185.116 305.384L185.684 302.616H183.708L183.14 305.456C183.108 305.653 183.03 305.795 182.908 305.88C182.785 305.96 182.646 306 182.492 306H181.852L182.532 302.616H181.364C181.214 302.616 181.105 302.573 181.036 302.488C180.972 302.397 180.956 302.243 180.988 302.024L181.052 301.568H182.684L183.204 298.96H181.348L181.452 298.368C181.478 298.213 181.54 298.099 181.636 298.024C181.737 297.949 181.889 297.912 182.092 297.912H183.356L183.932 295.048C183.964 294.888 184.036 294.763 184.148 294.672C184.265 294.581 184.404 294.536 184.564 294.536H185.204L184.532 297.912H186.508L187.18 294.536H187.812C187.966 294.536 188.086 294.587 188.172 294.688C188.262 294.789 188.294 294.917 188.268 295.072L187.684 297.912H189.38ZM198.597 300.272C198.597 301.275 198.488 302.144 198.269 302.88C198.056 303.611 197.762 304.216 197.389 304.696C197.016 305.176 196.573 305.533 196.061 305.768C195.554 306.003 195.01 306.12 194.429 306.12C193.842 306.12 193.296 306.003 192.789 305.768C192.288 305.533 191.85 305.176 191.477 304.696C191.104 304.216 190.81 303.611 190.597 302.88C190.384 302.144 190.277 301.275 190.277 300.272C190.277 299.269 190.384 298.4 190.597 297.664C190.81 296.928 191.104 296.32 191.477 295.84C191.85 295.355 192.288 294.995 192.789 294.76C193.296 294.525 193.842 294.408 194.429 294.408C195.01 294.408 195.554 294.525 196.061 294.76C196.573 294.995 197.016 295.355 197.389 295.84C197.762 296.32 198.056 296.928 198.269 297.664C198.488 298.4 198.597 299.269 198.597 300.272ZM197.117 300.272C197.117 299.397 197.042 298.664 196.893 298.072C196.749 297.475 196.552 296.995 196.301 296.632C196.056 296.269 195.77 296.011 195.445 295.856C195.12 295.696 194.781 295.616 194.429 295.616C194.077 295.616 193.738 295.696 193.413 295.856C193.088 296.011 192.802 296.269 192.557 296.632C192.312 296.995 192.114 297.475 191.965 298.072C191.821 298.664 191.749 299.397 191.749 300.272C191.749 301.147 191.821 301.88 191.965 302.472C192.114 303.064 192.312 303.541 192.557 303.904C192.802 304.267 193.088 304.528 193.413 304.688C193.738 304.843 194.077 304.92 194.429 304.92C194.781 304.92 195.12 304.843 195.445 304.688C195.77 304.528 196.056 304.267 196.301 303.904C196.552 303.541 196.749 303.064 196.893 302.472C197.042 301.88 197.117 301.147 197.117 300.272ZM207.878 300.272C207.878 301.275 207.769 302.144 207.55 302.88C207.337 303.611 207.043 304.216 206.67 304.696C206.297 305.176 205.854 305.533 205.342 305.768C204.835 306.003 204.291 306.12 203.71 306.12C203.123 306.12 202.577 306.003 202.07 305.768C201.569 305.533 201.131 305.176 200.758 304.696C200.385 304.216 200.091 303.611 199.878 302.88C199.665 302.144 199.558 301.275 199.558 300.272C199.558 299.269 199.665 298.4 199.878 297.664C200.091 296.928 200.385 296.32 200.758 295.84C201.131 295.355 201.569 294.995 202.07 294.76C202.577 294.525 203.123 294.408 203.71 294.408C204.291 294.408 204.835 294.525 205.342 294.76C205.854 294.995 206.297 295.355 206.67 295.84C207.043 296.32 207.337 296.928 207.55 297.664C207.769 298.4 207.878 299.269 207.878 300.272ZM206.398 300.272C206.398 299.397 206.323 298.664 206.174 298.072C206.03 297.475 205.833 296.995 205.582 296.632C205.337 296.269 205.051 296.011 204.726 295.856C204.401 295.696 204.062 295.616 203.71 295.616C203.358 295.616 203.019 295.696 202.694 295.856C202.369 296.011 202.083 296.269 201.838 296.632C201.593 296.995 201.395 297.475 201.246 298.072C201.102 298.664 201.03 299.397 201.03 300.272C201.03 301.147 201.102 301.88 201.246 302.472C201.395 303.064 201.593 303.541 201.838 303.904C202.083 304.267 202.369 304.528 202.694 304.688C203.019 304.843 203.358 304.92 203.71 304.92C204.062 304.92 204.401 304.843 204.726 304.688C205.051 304.528 205.337 304.267 205.582 303.904C205.833 303.541 206.03 303.064 206.174 302.472C206.323 301.88 206.398 301.147 206.398 300.272ZM217.159 300.272C217.159 301.275 217.05 302.144 216.831 302.88C216.618 303.611 216.325 304.216 215.951 304.696C215.578 305.176 215.135 305.533 214.623 305.768C214.117 306.003 213.573 306.12 212.991 306.12C212.405 306.12 211.858 306.003 211.351 305.768C210.85 305.533 210.413 305.176 210.039 304.696C209.666 304.216 209.373 303.611 209.159 302.88C208.946 302.144 208.839 301.275 208.839 300.272C208.839 299.269 208.946 298.4 209.159 297.664C209.373 296.928 209.666 296.32 210.039 295.84C210.413 295.355 210.85 294.995 211.351 294.76C211.858 294.525 212.405 294.408 212.991 294.408C213.573 294.408 214.117 294.525 214.623 294.76C215.135 294.995 215.578 295.355 215.951 295.84C216.325 296.32 216.618 296.928 216.831 297.664C217.05 298.4 217.159 299.269 217.159 300.272ZM215.679 300.272C215.679 299.397 215.605 298.664 215.455 298.072C215.311 297.475 215.114 296.995 214.863 296.632C214.618 296.269 214.333 296.011 214.007 295.856C213.682 295.696 213.343 295.616 212.991 295.616C212.639 295.616 212.301 295.696 211.975 295.856C211.65 296.011 211.365 296.269 211.119 296.632C210.874 296.995 210.677 297.475 210.527 298.072C210.383 298.664 210.311 299.397 210.311 300.272C210.311 301.147 210.383 301.88 210.527 302.472C210.677 303.064 210.874 303.541 211.119 303.904C211.365 304.267 211.65 304.528 211.975 304.688C212.301 304.843 212.639 304.92 212.991 304.92C213.343 304.92 213.682 304.843 214.007 304.688C214.333 304.528 214.618 304.267 214.863 303.904C215.114 303.541 215.311 303.064 215.455 302.472C215.605 301.88 215.679 301.147 215.679 300.272ZM226.441 300.272C226.441 301.275 226.331 302.144 226.113 302.88C225.899 303.611 225.606 304.216 225.233 304.696C224.859 305.176 224.417 305.533 223.905 305.768C223.398 306.003 222.854 306.12 222.273 306.12C221.686 306.12 221.139 306.003 220.633 305.768C220.131 305.533 219.694 305.176 219.321 304.696C218.947 304.216 218.654 303.611 218.441 302.88C218.227 302.144 218.121 301.275 218.121 300.272C218.121 299.269 218.227 298.4 218.441 297.664C218.654 296.928 218.947 296.32 219.321 295.84C219.694 295.355 220.131 294.995 220.633 294.76C221.139 294.525 221.686 294.408 222.273 294.408C222.854 294.408 223.398 294.525 223.905 294.76C224.417 294.995 224.859 295.355 225.233 295.84C225.606 296.32 225.899 296.928 226.113 297.664C226.331 298.4 226.441 299.269 226.441 300.272ZM224.961 300.272C224.961 299.397 224.886 298.664 224.737 298.072C224.593 297.475 224.395 296.995 224.145 296.632C223.899 296.269 223.614 296.011 223.289 295.856C222.963 295.696 222.625 295.616 222.273 295.616C221.921 295.616 221.582 295.696 221.257 295.856C220.931 296.011 220.646 296.269 220.401 296.632C220.155 296.995 219.958 297.475 219.809 298.072C219.665 298.664 219.593 299.397 219.593 300.272C219.593 301.147 219.665 301.88 219.809 302.472C219.958 303.064 220.155 303.541 220.401 303.904C220.646 304.267 220.931 304.528 221.257 304.688C221.582 304.843 221.921 304.92 222.273 304.92C222.625 304.92 222.963 304.843 223.289 304.688C223.614 304.528 223.899 304.267 224.145 303.904C224.395 303.541 224.593 303.064 224.737 302.472C224.886 301.88 224.961 301.147 224.961 300.272ZM235.722 300.272C235.722 301.275 235.613 302.144 235.394 302.88C235.181 303.611 234.887 304.216 234.514 304.696C234.141 305.176 233.698 305.533 233.186 305.768C232.679 306.003 232.135 306.12 231.554 306.12C230.967 306.12 230.421 306.003 229.914 305.768C229.413 305.533 228.975 305.176 228.602 304.696C228.229 304.216 227.935 303.611 227.722 302.88C227.509 302.144 227.402 301.275 227.402 300.272C227.402 299.269 227.509 298.4 227.722 297.664C227.935 296.928 228.229 296.32 228.602 295.84C228.975 295.355 229.413 294.995 229.914 294.76C230.421 294.525 230.967 294.408 231.554 294.408C232.135 294.408 232.679 294.525 233.186 294.76C233.698 294.995 234.141 295.355 234.514 295.84C234.887 296.32 235.181 296.928 235.394 297.664C235.613 298.4 235.722 299.269 235.722 300.272ZM234.242 300.272C234.242 299.397 234.167 298.664 234.018 298.072C233.874 297.475 233.677 296.995 233.426 296.632C233.181 296.269 232.895 296.011 232.57 295.856C232.245 295.696 231.906 295.616 231.554 295.616C231.202 295.616 230.863 295.696 230.538 295.856C230.213 296.011 229.927 296.269 229.682 296.632C229.437 296.995 229.239 297.475 229.09 298.072C228.946 298.664 228.874 299.397 228.874 300.272C228.874 301.147 228.946 301.88 229.09 302.472C229.239 303.064 229.437 303.541 229.682 303.904C229.927 304.267 230.213 304.528 230.538 304.688C230.863 304.843 231.202 304.92 231.554 304.92C231.906 304.92 232.245 304.843 232.57 304.688C232.895 304.528 233.181 304.267 233.426 303.904C233.677 303.541 233.874 303.064 234.018 302.472C234.167 301.88 234.242 301.147 234.242 300.272ZM245.003 300.272C245.003 301.275 244.894 302.144 244.675 302.88C244.462 303.611 244.168 304.216 243.795 304.696C243.422 305.176 242.979 305.533 242.467 305.768C241.96 306.003 241.416 306.12 240.835 306.12C240.248 306.12 239.702 306.003 239.195 305.768C238.694 305.533 238.256 305.176 237.883 304.696C237.51 304.216 237.216 303.611 237.003 302.88C236.79 302.144 236.683 301.275 236.683 300.272C236.683 299.269 236.79 298.4 237.003 297.664C237.216 296.928 237.51 296.32 237.883 295.84C238.256 295.355 238.694 294.995 239.195 294.76C239.702 294.525 240.248 294.408 240.835 294.408C241.416 294.408 241.96 294.525 242.467 294.76C242.979 294.995 243.422 295.355 243.795 295.84C244.168 296.32 244.462 296.928 244.675 297.664C244.894 298.4 245.003 299.269 245.003 300.272ZM243.523 300.272C243.523 299.397 243.448 298.664 243.299 298.072C243.155 297.475 242.958 296.995 242.707 296.632C242.462 296.269 242.176 296.011 241.851 295.856C241.526 295.696 241.187 295.616 240.835 295.616C240.483 295.616 240.144 295.696 239.819 295.856C239.494 296.011 239.208 296.269 238.963 296.632C238.718 296.995 238.52 297.475 238.371 298.072C238.227 298.664 238.155 299.397 238.155 300.272C238.155 301.147 238.227 301.88 238.371 302.472C238.52 303.064 238.718 303.541 238.963 303.904C239.208 304.267 239.494 304.528 239.819 304.688C240.144 304.843 240.483 304.92 240.835 304.92C241.187 304.92 241.526 304.843 241.851 304.688C242.176 304.528 242.462 304.267 242.707 303.904C242.958 303.541 243.155 303.064 243.299 302.472C243.448 301.88 243.523 301.147 243.523 300.272Z" fill="black"/>
</svg>
