<svg width="311" height="102" viewBox="0 0 311 102" fill="none" xmlns="http://www.w3.org/2000/svg">
<rect x="128" width="55" height="55" fill="#C4C4C4"/>
<path d="M141.903 22.6943C141.566 23.1774 141.094 23.5397 140.488 23.7812C139.887 24.0182 139.185 24.1367 138.383 24.1367C137.572 24.1367 136.852 23.9476 136.223 23.5693C135.594 23.1865 135.106 22.6442 134.76 21.9424C134.418 21.2406 134.243 20.4271 134.233 19.502V18.6338C134.233 17.1344 134.582 15.9723 135.279 15.1475C135.981 14.3226 136.966 13.9102 138.232 13.9102C139.272 13.9102 140.108 14.1768 140.741 14.71C141.375 15.2386 141.762 15.9906 141.903 16.9658H140.591C140.345 15.6488 139.561 14.9902 138.239 14.9902C137.36 14.9902 136.692 15.3001 136.236 15.9199C135.785 16.5352 135.557 17.4284 135.553 18.5996V19.4131C135.553 20.5296 135.808 21.4183 136.318 22.0791C136.829 22.7354 137.519 23.0635 138.39 23.0635C138.882 23.0635 139.313 23.0088 139.682 22.8994C140.051 22.79 140.356 22.6055 140.598 22.3457V20.1104H138.294V19.0439H141.903V22.6943ZM143.564 20.2334C143.564 19.5088 143.706 18.8571 143.988 18.2783C144.275 17.6995 144.672 17.2529 145.178 16.9385C145.688 16.624 146.269 16.4668 146.921 16.4668C147.928 16.4668 148.742 16.8154 149.361 17.5127C149.986 18.21 150.298 19.1374 150.298 20.2949V20.3838C150.298 21.1038 150.159 21.751 149.881 22.3252C149.607 22.8949 149.213 23.3392 148.698 23.6582C148.188 23.9772 147.6 24.1367 146.935 24.1367C145.932 24.1367 145.119 23.7881 144.494 23.0908C143.874 22.3936 143.564 21.4707 143.564 20.3223V20.2334ZM144.836 20.3838C144.836 21.2041 145.025 21.8626 145.403 22.3594C145.786 22.8561 146.297 23.1045 146.935 23.1045C147.577 23.1045 148.088 22.8538 148.466 22.3525C148.844 21.8467 149.033 21.1403 149.033 20.2334C149.033 19.4222 148.84 18.766 148.452 18.2646C148.069 17.7588 147.559 17.5059 146.921 17.5059C146.297 17.5059 145.793 17.7542 145.41 18.251C145.027 18.7477 144.836 19.4587 144.836 20.3838ZM151.549 20.2334C151.549 19.5088 151.69 18.8571 151.973 18.2783C152.26 17.6995 152.656 17.2529 153.162 16.9385C153.673 16.624 154.254 16.4668 154.905 16.4668C155.912 16.4668 156.726 16.8154 157.346 17.5127C157.97 18.21 158.282 19.1374 158.282 20.2949V20.3838C158.282 21.1038 158.143 21.751 157.865 22.3252C157.592 22.8949 157.198 23.3392 156.683 23.6582C156.172 23.9772 155.584 24.1367 154.919 24.1367C153.916 24.1367 153.103 23.7881 152.479 23.0908C151.859 22.3936 151.549 21.4707 151.549 20.3223V20.2334ZM152.82 20.3838C152.82 21.2041 153.009 21.8626 153.388 22.3594C153.771 22.8561 154.281 23.1045 154.919 23.1045C155.562 23.1045 156.072 22.8538 156.45 22.3525C156.828 21.8467 157.018 21.1403 157.018 20.2334C157.018 19.4222 156.824 18.766 156.437 18.2646C156.054 17.7588 155.543 17.5059 154.905 17.5059C154.281 17.5059 153.777 17.7542 153.395 18.251C153.012 18.7477 152.82 19.4587 152.82 20.3838ZM159.567 20.2402C159.567 19.0872 159.834 18.1712 160.367 17.4922C160.9 16.8086 161.607 16.4668 162.486 16.4668C163.389 16.4668 164.093 16.7858 164.599 17.4238L164.66 16.6035H165.815V23.8223C165.815 24.7793 165.531 25.5335 164.961 26.085C164.396 26.6364 163.635 26.9121 162.678 26.9121C162.145 26.9121 161.623 26.7982 161.112 26.5703C160.602 26.3424 160.212 26.0303 159.943 25.6338L160.6 24.875C161.142 25.5449 161.805 25.8799 162.589 25.8799C163.204 25.8799 163.683 25.7067 164.024 25.3604C164.371 25.014 164.544 24.5264 164.544 23.8975V23.2617C164.038 23.8451 163.348 24.1367 162.473 24.1367C161.607 24.1367 160.905 23.7881 160.367 23.0908C159.834 22.3936 159.567 21.4434 159.567 20.2402ZM160.839 20.3838C160.839 21.2178 161.01 21.874 161.352 22.3525C161.693 22.8265 162.172 23.0635 162.787 23.0635C163.585 23.0635 164.17 22.7012 164.544 21.9766V18.5996C164.157 17.8932 163.576 17.54 162.801 17.54C162.186 17.54 161.705 17.7793 161.358 18.2578C161.012 18.7363 160.839 19.445 160.839 20.3838ZM169.104 24H167.839V13.5H169.104V24ZM174.203 24.1367C173.201 24.1367 172.385 23.8086 171.756 23.1523C171.127 22.4915 170.813 21.6097 170.813 20.5068V20.2744C170.813 19.5407 170.952 18.8867 171.23 18.3125C171.512 17.7337 171.904 17.2826 172.405 16.959C172.911 16.6309 173.458 16.4668 174.046 16.4668C175.008 16.4668 175.755 16.7835 176.288 17.417C176.821 18.0505 177.088 18.9574 177.088 20.1377V20.6641H172.077C172.095 21.3932 172.307 21.9834 172.713 22.4346C173.123 22.8812 173.643 23.1045 174.272 23.1045C174.718 23.1045 175.096 23.0133 175.406 22.8311C175.716 22.6488 175.987 22.4072 176.22 22.1064L176.992 22.708C176.372 23.6605 175.443 24.1367 174.203 24.1367ZM174.046 17.5059C173.536 17.5059 173.107 17.6927 172.761 18.0664C172.414 18.4355 172.2 18.9551 172.118 19.625H175.823V19.5293C175.787 18.8867 175.614 18.39 175.304 18.0391C174.994 17.6836 174.575 17.5059 174.046 17.5059ZM142.293 38.9268H147.01V40H140.974V30.0469H142.293V38.9268ZM147.974 36.2334C147.974 35.5088 148.115 34.8571 148.397 34.2783C148.685 33.6995 149.081 33.2529 149.587 32.9385C150.097 32.624 150.678 32.4668 151.33 32.4668C152.337 32.4668 153.151 32.8154 153.771 33.5127C154.395 34.21 154.707 35.1374 154.707 36.2949V36.3838C154.707 37.1038 154.568 37.751 154.29 38.3252C154.017 38.8949 153.622 39.3392 153.107 39.6582C152.597 39.9772 152.009 40.1367 151.344 40.1367C150.341 40.1367 149.528 39.7881 148.903 39.0908C148.284 38.3936 147.974 37.4707 147.974 36.3223V36.2334ZM149.245 36.3838C149.245 37.2041 149.434 37.8626 149.813 38.3594C150.195 38.8561 150.706 39.1045 151.344 39.1045C151.986 39.1045 152.497 38.8538 152.875 38.3525C153.253 37.8467 153.442 37.1403 153.442 36.2334C153.442 35.4222 153.249 34.766 152.861 34.2646C152.479 33.7588 151.968 33.5059 151.33 33.5059C150.706 33.5059 150.202 33.7542 149.819 34.251C149.437 34.7477 149.245 35.4587 149.245 36.3838ZM155.992 36.2402C155.992 35.0872 156.259 34.1712 156.792 33.4922C157.325 32.8086 158.032 32.4668 158.911 32.4668C159.814 32.4668 160.518 32.7858 161.023 33.4238L161.085 32.6035H162.24V39.8223C162.24 40.7793 161.955 41.5335 161.386 42.085C160.821 42.6364 160.06 42.9121 159.103 42.9121C158.569 42.9121 158.048 42.7982 157.537 42.5703C157.027 42.3424 156.637 42.0303 156.368 41.6338L157.024 40.875C157.567 41.5449 158.23 41.8799 159.014 41.8799C159.629 41.8799 160.107 41.7067 160.449 41.3604C160.796 41.014 160.969 40.5264 160.969 39.8975V39.2617C160.463 39.8451 159.772 40.1367 158.897 40.1367C158.032 40.1367 157.33 39.7881 156.792 39.0908C156.259 38.3936 155.992 37.4434 155.992 36.2402ZM157.264 36.3838C157.264 37.2178 157.435 37.874 157.776 38.3525C158.118 38.8265 158.597 39.0635 159.212 39.0635C160.009 39.0635 160.595 38.7012 160.969 37.9766V34.5996C160.581 33.8932 160 33.54 159.226 33.54C158.61 33.54 158.13 33.7793 157.783 34.2578C157.437 34.7363 157.264 35.445 157.264 36.3838ZM163.819 36.2334C163.819 35.5088 163.961 34.8571 164.243 34.2783C164.53 33.6995 164.927 33.2529 165.433 32.9385C165.943 32.624 166.524 32.4668 167.176 32.4668C168.183 32.4668 168.996 32.8154 169.616 33.5127C170.241 34.21 170.553 35.1374 170.553 36.2949V36.3838C170.553 37.1038 170.414 37.751 170.136 38.3252C169.862 38.8949 169.468 39.3392 168.953 39.6582C168.443 39.9772 167.855 40.1367 167.189 40.1367C166.187 40.1367 165.373 39.7881 164.749 39.0908C164.129 38.3936 163.819 37.4707 163.819 36.3223V36.2334ZM165.091 36.3838C165.091 37.2041 165.28 37.8626 165.658 38.3594C166.041 38.8561 166.551 39.1045 167.189 39.1045C167.832 39.1045 168.342 38.8538 168.721 38.3525C169.099 37.8467 169.288 37.1403 169.288 36.2334C169.288 35.4222 169.094 34.766 168.707 34.2646C168.324 33.7588 167.814 33.5059 167.176 33.5059C166.551 33.5059 166.048 33.7542 165.665 34.251C165.282 34.7477 165.091 35.4587 165.091 36.3838Z" fill="black"/>
<path d="M26.8984 76.7422H21.9688V80.7734H27.6953V82H20.4688V70.625H27.6172V71.8594H21.9688V75.5156H26.8984V76.7422ZM30.7031 73.5469L30.75 74.6094C31.3958 73.7969 32.2396 73.3906 33.2812 73.3906C35.0677 73.3906 35.9688 74.3984 35.9844 76.4141V82H34.5391V76.4062C34.5339 75.7969 34.3932 75.3464 34.1172 75.0547C33.8464 74.763 33.4219 74.6172 32.8438 74.6172C32.375 74.6172 31.9635 74.7422 31.6094 74.9922C31.2552 75.2422 30.9792 75.5703 30.7812 75.9766V82H29.3359V73.5469H30.7031ZM40.125 71.5V73.5469H41.7031V74.6641H40.125V79.9062C40.125 80.2448 40.1953 80.5 40.3359 80.6719C40.4766 80.8385 40.7161 80.9219 41.0547 80.9219C41.2214 80.9219 41.4505 80.8906 41.7422 80.8281V82C41.362 82.1042 40.9922 82.1562 40.6328 82.1562C39.987 82.1562 39.5 81.9609 39.1719 81.5703C38.8438 81.1797 38.6797 80.625 38.6797 79.9062V74.6641H37.1406V73.5469H38.6797V71.5H40.125ZM46.9062 82.1562C45.7604 82.1562 44.8281 81.7812 44.1094 81.0312C43.3906 80.276 43.0312 79.2682 43.0312 78.0078V77.7422C43.0312 76.9036 43.1901 76.1562 43.5078 75.5C43.8307 74.8385 44.2786 74.3229 44.8516 73.9531C45.4297 73.5781 46.0547 73.3906 46.7266 73.3906C47.8255 73.3906 48.6797 73.7526 49.2891 74.4766C49.8984 75.2005 50.2031 76.237 50.2031 77.5859V78.1875H44.4766C44.4974 79.0208 44.7396 79.6953 45.2031 80.2109C45.6719 80.7214 46.2656 80.9766 46.9844 80.9766C47.4948 80.9766 47.9271 80.8724 48.2812 80.6641C48.6354 80.4557 48.9453 80.1797 49.2109 79.8359L50.0938 80.5234C49.3854 81.612 48.3229 82.1562 46.9062 82.1562ZM46.7266 74.5781C46.1432 74.5781 45.6536 74.7917 45.2578 75.2188C44.862 75.6406 44.6172 76.2344 44.5234 77H48.7578V76.8906C48.7161 76.1562 48.5182 75.5885 48.1641 75.1875C47.8099 74.7812 47.3307 74.5781 46.7266 74.5781ZM55.9688 74.8438C55.75 74.8073 55.513 74.7891 55.2578 74.7891C54.3099 74.7891 53.6667 75.1927 53.3281 76V82H51.8828V73.5469H53.2891L53.3125 74.5234C53.7865 73.7682 54.4583 73.3906 55.3281 73.3906C55.6094 73.3906 55.8229 73.4271 55.9688 73.5V74.8438ZM63.2344 71.5V73.5469H64.8125V74.6641H63.2344V79.9062C63.2344 80.2448 63.3047 80.5 63.4453 80.6719C63.5859 80.8385 63.8255 80.9219 64.1641 80.9219C64.3307 80.9219 64.5599 80.8906 64.8516 80.8281V82C64.4714 82.1042 64.1016 82.1562 63.7422 82.1562C63.0964 82.1562 62.6094 81.9609 62.2812 81.5703C61.9531 81.1797 61.7891 80.625 61.7891 79.9062V74.6641H60.25V73.5469H61.7891V71.5H63.2344ZM67.9531 74.5703C68.5938 73.7839 69.4271 73.3906 70.4531 73.3906C72.2396 73.3906 73.1406 74.3984 73.1562 76.4141V82H71.7109V76.4062C71.7057 75.7969 71.5651 75.3464 71.2891 75.0547C71.0182 74.763 70.5938 74.6172 70.0156 74.6172C69.5469 74.6172 69.1354 74.7422 68.7812 74.9922C68.4271 75.2422 68.151 75.5703 67.9531 75.9766V82H66.5078V70H67.9531V74.5703ZM78.8281 82.1562C77.6823 82.1562 76.75 81.7812 76.0312 81.0312C75.3125 80.276 74.9531 79.2682 74.9531 78.0078V77.7422C74.9531 76.9036 75.112 76.1562 75.4297 75.5C75.7526 74.8385 76.2005 74.3229 76.7734 73.9531C77.3516 73.5781 77.9766 73.3906 78.6484 73.3906C79.7474 73.3906 80.6016 73.7526 81.2109 74.4766C81.8203 75.2005 82.125 76.237 82.125 77.5859V78.1875H76.3984C76.4193 79.0208 76.6615 79.6953 77.125 80.2109C77.5938 80.7214 78.1875 80.9766 78.9062 80.9766C79.4167 80.9766 79.849 80.8724 80.2031 80.6641C80.5573 80.4557 80.8672 80.1797 81.1328 79.8359L82.0156 80.5234C81.3073 81.612 80.2448 82.1562 78.8281 82.1562ZM78.6484 74.5781C78.0651 74.5781 77.5755 74.7917 77.1797 75.2188C76.7839 75.6406 76.5391 76.2344 76.4453 77H80.6797V76.8906C80.638 76.1562 80.4401 75.5885 80.0859 75.1875C79.7318 74.7812 79.2526 74.5781 78.6484 74.5781ZM90.5625 80.0391L92.6562 73.5469H94.1328L91.1016 82H90L86.9375 73.5469H88.4141L90.5625 80.0391ZM98.9219 82.1562C97.776 82.1562 96.8438 81.7812 96.125 81.0312C95.4062 80.276 95.0469 79.2682 95.0469 78.0078V77.7422C95.0469 76.9036 95.2057 76.1562 95.5234 75.5C95.8464 74.8385 96.2943 74.3229 96.8672 73.9531C97.4453 73.5781 98.0703 73.3906 98.7422 73.3906C99.8411 73.3906 100.695 73.7526 101.305 74.4766C101.914 75.2005 102.219 76.237 102.219 77.5859V78.1875H96.4922C96.513 79.0208 96.7552 79.6953 97.2188 80.2109C97.6875 80.7214 98.2812 80.9766 99 80.9766C99.5104 80.9766 99.9427 80.8724 100.297 80.6641C100.651 80.4557 100.961 80.1797 101.227 79.8359L102.109 80.5234C101.401 81.612 100.339 82.1562 98.9219 82.1562ZM98.7422 74.5781C98.1589 74.5781 97.6693 74.7917 97.2734 75.2188C96.8776 75.6406 96.6328 76.2344 96.5391 77H100.773V76.8906C100.732 76.1562 100.534 75.5885 100.18 75.1875C99.8255 74.7812 99.3464 74.5781 98.7422 74.5781ZM107.984 74.8438C107.766 74.8073 107.529 74.7891 107.273 74.7891C106.326 74.7891 105.682 75.1927 105.344 76V82H103.898V73.5469H105.305L105.328 74.5234C105.802 73.7682 106.474 73.3906 107.344 73.3906C107.625 73.3906 107.839 73.4271 107.984 73.5V74.8438ZM110.891 82H109.445V73.5469H110.891V82ZM109.328 71.3047C109.328 71.0703 109.398 70.8724 109.539 70.7109C109.685 70.5495 109.898 70.4688 110.18 70.4688C110.461 70.4688 110.674 70.5495 110.82 70.7109C110.966 70.8724 111.039 71.0703 111.039 71.3047C111.039 71.5391 110.966 71.7344 110.82 71.8906C110.674 72.0469 110.461 72.125 110.18 72.125C109.898 72.125 109.685 72.0469 109.539 71.8906C109.398 71.7344 109.328 71.5391 109.328 71.3047ZM113.695 82V74.6641H112.359V73.5469H113.695V72.8281C113.695 71.8854 113.964 71.151 114.5 70.625C115.042 70.099 115.805 69.8359 116.789 69.8359C117.372 69.8359 118.109 69.9948 119 70.3125L118.758 71.5312C118.107 71.2708 117.487 71.1406 116.898 71.1406C116.279 71.1406 115.831 71.2812 115.555 71.5625C115.284 71.8385 115.148 72.2552 115.148 72.8125V73.5469H116.875V74.6641H115.148V82H113.695ZM119.719 82H118.266V73.5469H119.719V82ZM125.461 80.9766C125.977 80.9766 126.427 80.8203 126.812 80.5078C127.198 80.1953 127.411 79.8047 127.453 79.3359H128.82C128.794 79.8203 128.628 80.2812 128.32 80.7188C128.013 81.1562 127.602 81.5052 127.086 81.7656C126.576 82.026 126.034 82.1562 125.461 82.1562C124.31 82.1562 123.393 81.7734 122.711 81.0078C122.034 80.237 121.695 79.1849 121.695 77.8516V77.6094C121.695 76.7865 121.846 76.0547 122.148 75.4141C122.451 74.7734 122.883 74.276 123.445 73.9219C124.013 73.5677 124.682 73.3906 125.453 73.3906C126.401 73.3906 127.188 73.6745 127.812 74.2422C128.443 74.8099 128.779 75.5469 128.82 76.4531H127.453C127.411 75.9062 127.203 75.4583 126.828 75.1094C126.458 74.7552 126 74.5781 125.453 74.5781C124.719 74.5781 124.148 74.8438 123.742 75.375C123.341 75.901 123.141 76.6641 123.141 77.6641V77.9375C123.141 78.9115 123.341 79.6615 123.742 80.1875C124.143 80.7135 124.716 80.9766 125.461 80.9766ZM135.664 82C135.581 81.8333 135.513 81.5365 135.461 81.1094C134.789 81.8073 133.987 82.1562 133.055 82.1562C132.221 82.1562 131.536 81.9219 131 81.4531C130.469 80.9792 130.203 80.3802 130.203 79.6562C130.203 78.776 130.536 78.0938 131.203 77.6094C131.875 77.1198 132.818 76.875 134.031 76.875H135.438V76.2109C135.438 75.7057 135.286 75.3047 134.984 75.0078C134.682 74.7057 134.237 74.5547 133.648 74.5547C133.133 74.5547 132.701 74.6849 132.352 74.9453C132.003 75.2057 131.828 75.5208 131.828 75.8906H130.375C130.375 75.4688 130.523 75.0625 130.82 74.6719C131.122 74.276 131.529 73.9635 132.039 73.7344C132.555 73.5052 133.12 73.3906 133.734 73.3906C134.708 73.3906 135.471 73.6354 136.023 74.125C136.576 74.6094 136.862 75.2786 136.883 76.1328V80.0234C136.883 80.7995 136.982 81.4167 137.18 81.875V82H135.664ZM133.266 80.8984C133.719 80.8984 134.148 80.7812 134.555 80.5469C134.961 80.3125 135.255 80.0078 135.438 79.6328V77.8984H134.305C132.534 77.8984 131.648 78.4167 131.648 79.4531C131.648 79.9062 131.799 80.2604 132.102 80.5156C132.404 80.7708 132.792 80.8984 133.266 80.8984ZM141.109 71.5V73.5469H142.688V74.6641H141.109V79.9062C141.109 80.2448 141.18 80.5 141.32 80.6719C141.461 80.8385 141.701 80.9219 142.039 80.9219C142.206 80.9219 142.435 80.8906 142.727 80.8281V82C142.346 82.1042 141.977 82.1562 141.617 82.1562C140.971 82.1562 140.484 81.9609 140.156 81.5703C139.828 81.1797 139.664 80.625 139.664 79.9062V74.6641H138.125V73.5469H139.664V71.5H141.109ZM145.953 82H144.508V73.5469H145.953V82ZM144.391 71.3047C144.391 71.0703 144.461 70.8724 144.602 70.7109C144.747 70.5495 144.961 70.4688 145.242 70.4688C145.523 70.4688 145.737 70.5495 145.883 70.7109C146.029 70.8724 146.102 71.0703 146.102 71.3047C146.102 71.5391 146.029 71.7344 145.883 71.8906C145.737 72.0469 145.523 72.125 145.242 72.125C144.961 72.125 144.747 72.0469 144.602 71.8906C144.461 71.7344 144.391 71.5391 144.391 71.3047ZM147.891 77.6953C147.891 76.8672 148.052 76.1224 148.375 75.4609C148.703 74.7995 149.156 74.2891 149.734 73.9297C150.318 73.5703 150.982 73.3906 151.727 73.3906C152.878 73.3906 153.807 73.7891 154.516 74.5859C155.229 75.3828 155.586 76.4427 155.586 77.7656V77.8672C155.586 78.6901 155.427 79.4297 155.109 80.0859C154.797 80.737 154.346 81.2448 153.758 81.6094C153.174 81.974 152.503 82.1562 151.742 82.1562C150.596 82.1562 149.667 81.7578 148.953 80.9609C148.245 80.1641 147.891 79.1094 147.891 77.7969V77.6953ZM149.344 77.8672C149.344 78.8047 149.56 79.5573 149.992 80.125C150.43 80.6927 151.013 80.9766 151.742 80.9766C152.477 80.9766 153.06 80.6901 153.492 80.1172C153.924 79.5391 154.141 78.7318 154.141 77.6953C154.141 76.7682 153.919 76.0182 153.477 75.4453C153.039 74.8672 152.456 74.5781 151.727 74.5781C151.013 74.5781 150.438 74.862 150 75.4297C149.562 75.9974 149.344 76.8099 149.344 77.8672ZM158.766 73.5469L158.812 74.6094C159.458 73.7969 160.302 73.3906 161.344 73.3906C163.13 73.3906 164.031 74.3984 164.047 76.4141V82H162.602V76.4062C162.596 75.7969 162.456 75.3464 162.18 75.0547C161.909 74.763 161.484 74.6172 160.906 74.6172C160.438 74.6172 160.026 74.7422 159.672 74.9922C159.318 75.2422 159.042 75.5703 158.844 75.9766V82H157.398V73.5469H158.766ZM173.586 80.9766C174.102 80.9766 174.552 80.8203 174.938 80.5078C175.323 80.1953 175.536 79.8047 175.578 79.3359H176.945C176.919 79.8203 176.753 80.2812 176.445 80.7188C176.138 81.1562 175.727 81.5052 175.211 81.7656C174.701 82.026 174.159 82.1562 173.586 82.1562C172.435 82.1562 171.518 81.7734 170.836 81.0078C170.159 80.237 169.82 79.1849 169.82 77.8516V77.6094C169.82 76.7865 169.971 76.0547 170.273 75.4141C170.576 74.7734 171.008 74.276 171.57 73.9219C172.138 73.5677 172.807 73.3906 173.578 73.3906C174.526 73.3906 175.312 73.6745 175.938 74.2422C176.568 74.8099 176.904 75.5469 176.945 76.4531H175.578C175.536 75.9062 175.328 75.4583 174.953 75.1094C174.583 74.7552 174.125 74.5781 173.578 74.5781C172.844 74.5781 172.273 74.8438 171.867 75.375C171.466 75.901 171.266 76.6641 171.266 77.6641V77.9375C171.266 78.9115 171.466 79.6615 171.867 80.1875C172.268 80.7135 172.841 80.9766 173.586 80.9766ZM178.188 77.6953C178.188 76.8672 178.349 76.1224 178.672 75.4609C179 74.7995 179.453 74.2891 180.031 73.9297C180.615 73.5703 181.279 73.3906 182.023 73.3906C183.174 73.3906 184.104 73.7891 184.812 74.5859C185.526 75.3828 185.883 76.4427 185.883 77.7656V77.8672C185.883 78.6901 185.724 79.4297 185.406 80.0859C185.094 80.737 184.643 81.2448 184.055 81.6094C183.471 81.974 182.799 82.1562 182.039 82.1562C180.893 82.1562 179.964 81.7578 179.25 80.9609C178.542 80.1641 178.188 79.1094 178.188 77.7969V77.6953ZM179.641 77.8672C179.641 78.8047 179.857 79.5573 180.289 80.125C180.727 80.6927 181.31 80.9766 182.039 80.9766C182.773 80.9766 183.357 80.6901 183.789 80.1172C184.221 79.5391 184.438 78.7318 184.438 77.6953C184.438 76.7682 184.216 76.0182 183.773 75.4453C183.336 74.8672 182.753 74.5781 182.023 74.5781C181.31 74.5781 180.734 74.862 180.297 75.4297C179.859 75.9974 179.641 76.8099 179.641 77.8672ZM187.344 77.7031C187.344 76.4062 187.651 75.3646 188.266 74.5781C188.88 73.7865 189.685 73.3906 190.68 73.3906C191.669 73.3906 192.453 73.7292 193.031 74.4062V70H194.477V82H193.148L193.078 81.0938C192.5 81.8021 191.695 82.1562 190.664 82.1562C189.685 82.1562 188.885 81.7552 188.266 80.9531C187.651 80.151 187.344 79.1042 187.344 77.8125V77.7031ZM188.789 77.8672C188.789 78.8255 188.987 79.5755 189.383 80.1172C189.779 80.6589 190.326 80.9297 191.023 80.9297C191.94 80.9297 192.609 80.5182 193.031 79.6953V75.8125C192.599 75.0156 191.935 74.6172 191.039 74.6172C190.331 74.6172 189.779 74.8906 189.383 75.4375C188.987 75.9844 188.789 76.7943 188.789 77.8672ZM200.234 82.1562C199.089 82.1562 198.156 81.7812 197.438 81.0312C196.719 80.276 196.359 79.2682 196.359 78.0078V77.7422C196.359 76.9036 196.518 76.1562 196.836 75.5C197.159 74.8385 197.607 74.3229 198.18 73.9531C198.758 73.5781 199.383 73.3906 200.055 73.3906C201.154 73.3906 202.008 73.7526 202.617 74.4766C203.227 75.2005 203.531 76.237 203.531 77.5859V78.1875H197.805C197.826 79.0208 198.068 79.6953 198.531 80.2109C199 80.7214 199.594 80.9766 200.312 80.9766C200.823 80.9766 201.255 80.8724 201.609 80.6641C201.964 80.4557 202.273 80.1797 202.539 79.8359L203.422 80.5234C202.714 81.612 201.651 82.1562 200.234 82.1562ZM200.055 74.5781C199.471 74.5781 198.982 74.7917 198.586 75.2188C198.19 75.6406 197.945 76.2344 197.852 77H202.086V76.8906C202.044 76.1562 201.846 75.5885 201.492 75.1875C201.138 74.7812 200.659 74.5781 200.055 74.5781ZM214.102 79.7578C214.102 79.3672 213.953 79.0651 213.656 78.8516C213.365 78.6328 212.852 78.4453 212.117 78.2891C211.388 78.1328 210.807 77.9453 210.375 77.7266C209.948 77.5078 209.63 77.2474 209.422 76.9453C209.219 76.6432 209.117 76.2839 209.117 75.8672C209.117 75.1745 209.409 74.5885 209.992 74.1094C210.581 73.6302 211.331 73.3906 212.242 73.3906C213.201 73.3906 213.977 73.638 214.57 74.1328C215.169 74.6276 215.469 75.2604 215.469 76.0312H214.016C214.016 75.6354 213.846 75.2943 213.508 75.0078C213.174 74.7214 212.753 74.5781 212.242 74.5781C211.716 74.5781 211.305 74.6927 211.008 74.9219C210.711 75.151 210.562 75.4505 210.562 75.8203C210.562 76.1693 210.701 76.4323 210.977 76.6094C211.253 76.7865 211.75 76.9557 212.469 77.1172C213.193 77.2786 213.779 77.4714 214.227 77.6953C214.674 77.9193 215.005 78.1901 215.219 78.5078C215.438 78.8203 215.547 79.2031 215.547 79.6562C215.547 80.4115 215.245 81.0182 214.641 81.4766C214.036 81.9297 213.253 82.1562 212.289 82.1562C211.612 82.1562 211.013 82.0365 210.492 81.7969C209.971 81.5573 209.562 81.224 209.266 80.7969C208.974 80.3646 208.828 79.8984 208.828 79.3984H210.273C210.299 79.8828 210.492 80.2682 210.852 80.5547C211.216 80.8359 211.695 80.9766 212.289 80.9766C212.836 80.9766 213.273 80.8672 213.602 80.6484C213.935 80.4245 214.102 80.1276 214.102 79.7578ZM220.938 82.1562C219.792 82.1562 218.859 81.7812 218.141 81.0312C217.422 80.276 217.062 79.2682 217.062 78.0078V77.7422C217.062 76.9036 217.221 76.1562 217.539 75.5C217.862 74.8385 218.31 74.3229 218.883 73.9531C219.461 73.5781 220.086 73.3906 220.758 73.3906C221.857 73.3906 222.711 73.7526 223.32 74.4766C223.93 75.2005 224.234 76.237 224.234 77.5859V78.1875H218.508C218.529 79.0208 218.771 79.6953 219.234 80.2109C219.703 80.7214 220.297 80.9766 221.016 80.9766C221.526 80.9766 221.958 80.8724 222.312 80.6641C222.667 80.4557 222.977 80.1797 223.242 79.8359L224.125 80.5234C223.417 81.612 222.354 82.1562 220.938 82.1562ZM220.758 74.5781C220.174 74.5781 219.685 74.7917 219.289 75.2188C218.893 75.6406 218.648 76.2344 218.555 77H222.789V76.8906C222.747 76.1562 222.549 75.5885 222.195 75.1875C221.841 74.7812 221.362 74.5781 220.758 74.5781ZM227.281 73.5469L227.328 74.6094C227.974 73.7969 228.818 73.3906 229.859 73.3906C231.646 73.3906 232.547 74.3984 232.562 76.4141V82H231.117V76.4062C231.112 75.7969 230.971 75.3464 230.695 75.0547C230.424 74.763 230 74.6172 229.422 74.6172C228.953 74.6172 228.542 74.7422 228.188 74.9922C227.833 75.2422 227.557 75.5703 227.359 75.9766V82H225.914V73.5469H227.281ZM236.703 71.5V73.5469H238.281V74.6641H236.703V79.9062C236.703 80.2448 236.773 80.5 236.914 80.6719C237.055 80.8385 237.294 80.9219 237.633 80.9219C237.799 80.9219 238.029 80.8906 238.32 80.8281V82C237.94 82.1042 237.57 82.1562 237.211 82.1562C236.565 82.1562 236.078 81.9609 235.75 81.5703C235.422 81.1797 235.258 80.625 235.258 79.9062V74.6641H233.719V73.5469H235.258V71.5H236.703ZM245.906 71.5V73.5469H247.484V74.6641H245.906V79.9062C245.906 80.2448 245.977 80.5 246.117 80.6719C246.258 80.8385 246.497 80.9219 246.836 80.9219C247.003 80.9219 247.232 80.8906 247.523 80.8281V82C247.143 82.1042 246.773 82.1562 246.414 82.1562C245.768 82.1562 245.281 81.9609 244.953 81.5703C244.625 81.1797 244.461 80.625 244.461 79.9062V74.6641H242.922V73.5469H244.461V71.5H245.906ZM248.641 77.6953C248.641 76.8672 248.802 76.1224 249.125 75.4609C249.453 74.7995 249.906 74.2891 250.484 73.9297C251.068 73.5703 251.732 73.3906 252.477 73.3906C253.628 73.3906 254.557 73.7891 255.266 74.5859C255.979 75.3828 256.336 76.4427 256.336 77.7656V77.8672C256.336 78.6901 256.177 79.4297 255.859 80.0859C255.547 80.737 255.096 81.2448 254.508 81.6094C253.924 81.974 253.253 82.1562 252.492 82.1562C251.346 82.1562 250.417 81.7578 249.703 80.9609C248.995 80.1641 248.641 79.1094 248.641 77.7969V77.6953ZM250.094 77.8672C250.094 78.8047 250.31 79.5573 250.742 80.125C251.18 80.6927 251.763 80.9766 252.492 80.9766C253.227 80.9766 253.81 80.6901 254.242 80.1172C254.674 79.5391 254.891 78.7318 254.891 77.6953C254.891 76.7682 254.669 76.0182 254.227 75.4453C253.789 74.8672 253.206 74.5781 252.477 74.5781C251.763 74.5781 251.188 74.862 250.75 75.4297C250.312 75.9974 250.094 76.8099 250.094 77.8672Z" fill="black"/>
<path d="M264.883 79.8828L266.852 73.5469H268.398L265 83.3047C264.474 84.7109 263.638 85.4141 262.492 85.4141L262.219 85.3906L261.68 85.2891V84.1172L262.07 84.1484C262.56 84.1484 262.94 84.0495 263.211 83.8516C263.487 83.6536 263.714 83.2917 263.891 82.7656L264.211 81.9062L261.195 73.5469H262.773L264.883 79.8828ZM269.188 77.6953C269.188 76.8672 269.349 76.1224 269.672 75.4609C270 74.7995 270.453 74.2891 271.031 73.9297C271.615 73.5703 272.279 73.3906 273.023 73.3906C274.174 73.3906 275.104 73.7891 275.812 74.5859C276.526 75.3828 276.883 76.4427 276.883 77.7656V77.8672C276.883 78.6901 276.724 79.4297 276.406 80.0859C276.094 80.737 275.643 81.2448 275.055 81.6094C274.471 81.974 273.799 82.1562 273.039 82.1562C271.893 82.1562 270.964 81.7578 270.25 80.9609C269.542 80.1641 269.188 79.1094 269.188 77.7969V77.6953ZM270.641 77.8672C270.641 78.8047 270.857 79.5573 271.289 80.125C271.727 80.6927 272.31 80.9766 273.039 80.9766C273.773 80.9766 274.357 80.6901 274.789 80.1172C275.221 79.5391 275.438 78.7318 275.438 77.6953C275.438 76.7682 275.216 76.0182 274.773 75.4453C274.336 74.8672 273.753 74.5781 273.023 74.5781C272.31 74.5781 271.734 74.862 271.297 75.4297C270.859 75.9974 270.641 76.8099 270.641 77.8672ZM283.914 81.1641C283.352 81.8255 282.526 82.1562 281.438 82.1562C280.536 82.1562 279.849 81.8958 279.375 81.375C278.906 80.849 278.669 80.0729 278.664 79.0469V73.5469H280.109V79.0078C280.109 80.2891 280.63 80.9297 281.672 80.9297C282.776 80.9297 283.51 80.5182 283.875 79.6953V73.5469H285.32V82H283.945L283.914 81.1641ZM291.609 74.8438C291.391 74.8073 291.154 74.7891 290.898 74.7891C289.951 74.7891 289.307 75.1927 288.969 76V82H287.523V73.5469H288.93L288.953 74.5234C289.427 73.7682 290.099 73.3906 290.969 73.3906C291.25 73.3906 291.464 73.4271 291.609 73.5V74.8438ZM140.602 101.156C139.456 101.156 138.523 100.781 137.805 100.031C137.086 99.276 136.727 98.2682 136.727 97.0078V96.7422C136.727 95.9036 136.885 95.1562 137.203 94.5C137.526 93.8385 137.974 93.3229 138.547 92.9531C139.125 92.5781 139.75 92.3906 140.422 92.3906C141.521 92.3906 142.375 92.7526 142.984 93.4766C143.594 94.2005 143.898 95.237 143.898 96.5859V97.1875H138.172C138.193 98.0208 138.435 98.6953 138.898 99.2109C139.367 99.7214 139.961 99.9766 140.68 99.9766C141.19 99.9766 141.622 99.8724 141.977 99.6641C142.331 99.4557 142.641 99.1797 142.906 98.8359L143.789 99.5234C143.081 100.612 142.018 101.156 140.602 101.156ZM140.422 93.5781C139.839 93.5781 139.349 93.7917 138.953 94.2188C138.557 94.6406 138.312 95.2344 138.219 96H142.453V95.8906C142.411 95.1562 142.214 94.5885 141.859 94.1875C141.505 93.7812 141.026 93.5781 140.422 93.5781ZM146.938 92.5469L146.977 93.4844C147.596 92.7552 148.432 92.3906 149.484 92.3906C150.667 92.3906 151.471 92.8438 151.898 93.75C152.18 93.3438 152.544 93.0156 152.992 92.7656C153.445 92.5156 153.979 92.3906 154.594 92.3906C156.448 92.3906 157.391 93.3724 157.422 95.3359V101H155.977V95.4219C155.977 94.8177 155.839 94.3672 155.562 94.0703C155.286 93.7682 154.823 93.6172 154.172 93.6172C153.635 93.6172 153.19 93.7786 152.836 94.1016C152.482 94.4193 152.276 94.849 152.219 95.3906V101H150.766V95.4609C150.766 94.2318 150.164 93.6172 148.961 93.6172C148.013 93.6172 147.365 94.0208 147.016 94.8281V101H145.57V92.5469H146.938ZM164.828 101C164.745 100.833 164.677 100.536 164.625 100.109C163.953 100.807 163.151 101.156 162.219 101.156C161.385 101.156 160.701 100.922 160.164 100.453C159.633 99.9792 159.367 99.3802 159.367 98.6562C159.367 97.776 159.701 97.0938 160.367 96.6094C161.039 96.1198 161.982 95.875 163.195 95.875H164.602V95.2109C164.602 94.7057 164.451 94.3047 164.148 94.0078C163.846 93.7057 163.401 93.5547 162.812 93.5547C162.297 93.5547 161.865 93.6849 161.516 93.9453C161.167 94.2057 160.992 94.5208 160.992 94.8906H159.539C159.539 94.4688 159.688 94.0625 159.984 93.6719C160.286 93.276 160.693 92.9635 161.203 92.7344C161.719 92.5052 162.284 92.3906 162.898 92.3906C163.872 92.3906 164.635 92.6354 165.188 93.125C165.74 93.6094 166.026 94.2786 166.047 95.1328V99.0234C166.047 99.7995 166.146 100.417 166.344 100.875V101H164.828ZM162.43 99.8984C162.883 99.8984 163.312 99.7812 163.719 99.5469C164.125 99.3125 164.419 99.0078 164.602 98.6328V96.8984H163.469C161.698 96.8984 160.812 97.4167 160.812 98.4531C160.812 98.9062 160.964 99.2604 161.266 99.5156C161.568 99.7708 161.956 99.8984 162.43 99.8984ZM169.883 101H168.438V92.5469H169.883V101ZM168.32 90.3047C168.32 90.0703 168.391 89.8724 168.531 89.7109C168.677 89.5495 168.891 89.4688 169.172 89.4688C169.453 89.4688 169.667 89.5495 169.812 89.7109C169.958 89.8724 170.031 90.0703 170.031 90.3047C170.031 90.5391 169.958 90.7344 169.812 90.8906C169.667 91.0469 169.453 91.125 169.172 91.125C168.891 91.125 168.677 91.0469 168.531 90.8906C168.391 90.7344 168.32 90.5391 168.32 90.3047ZM173.773 101H172.328V89H173.773V101Z" fill="#FF0000"/>
</svg>
