<svg width="127" height="58" viewBox="0 0 127 58" fill="none" xmlns="http://www.w3.org/2000/svg">
<g filter="url(#filter0_d)">
<rect x="4.75" y="0.765625" width="117.5" height="48.4835" rx="9.25" fill="white" stroke="black" stroke-width="1.5"/>
<path d="M21.3005 29.736L21.2925 31H14.2285V19.536H21.2925V20.8H15.7805V24.608H20.2445V25.824H15.7805V29.736H21.3005ZM22.9082 31V22.896H23.7642C23.9668 22.896 24.0922 22.9947 24.1402 23.192L24.2442 24.024C24.5428 23.656 24.8788 23.3547 25.2522 23.12C25.6255 22.8853 26.0575 22.768 26.5482 22.768C27.0922 22.768 27.5322 22.92 27.8682 23.224C28.2095 23.528 28.4548 23.9387 28.6042 24.456C28.7215 24.1627 28.8708 23.9093 29.0522 23.696C29.2388 23.4827 29.4468 23.3067 29.6762 23.168C29.9055 23.0293 30.1482 22.928 30.4042 22.864C30.6655 22.8 30.9295 22.768 31.1962 22.768C31.6228 22.768 32.0015 22.8373 32.3322 22.976C32.6682 23.1093 32.9508 23.3067 33.1802 23.568C33.4148 23.8293 33.5935 24.152 33.7162 24.536C33.8388 24.9147 33.9002 25.3493 33.9002 25.84V31H32.4682V25.84C32.4682 25.2053 32.3295 24.7253 32.0522 24.4C31.7748 24.0693 31.3748 23.904 30.8522 23.904C30.6175 23.904 30.3935 23.9467 30.1802 24.032C29.9722 24.112 29.7882 24.232 29.6282 24.392C29.4682 24.552 29.3402 24.7547 29.2442 25C29.1535 25.24 29.1082 25.52 29.1082 25.84V31H27.6762V25.84C27.6762 25.1893 27.5455 24.704 27.2842 24.384C27.0228 24.064 26.6415 23.904 26.1402 23.904C25.7882 23.904 25.4628 24 25.1642 24.192C24.8655 24.3787 24.5908 24.6347 24.3402 24.96V31H22.9082ZM40.4564 27.352C39.8004 27.3733 39.2404 27.4267 38.7764 27.512C38.3177 27.592 37.9417 27.6987 37.6484 27.832C37.3604 27.9653 37.1497 28.1227 37.0164 28.304C36.8884 28.4853 36.8244 28.688 36.8244 28.912C36.8244 29.1253 36.8591 29.3093 36.9284 29.464C36.9977 29.6187 37.0911 29.7467 37.2084 29.848C37.3311 29.944 37.4724 30.016 37.6324 30.064C37.7977 30.1067 37.9737 30.128 38.1604 30.128C38.4111 30.128 38.6404 30.104 38.8484 30.056C39.0564 30.0027 39.2511 29.928 39.4324 29.832C39.6191 29.736 39.7951 29.6213 39.9604 29.488C40.1311 29.3547 40.2964 29.2027 40.4564 29.032V27.352ZM35.8564 24.04C36.3044 23.608 36.7871 23.2853 37.3044 23.072C37.8217 22.8587 38.3951 22.752 39.0244 22.752C39.4777 22.752 39.8804 22.8267 40.2324 22.976C40.5844 23.1253 40.8804 23.3333 41.1204 23.6C41.3604 23.8667 41.5417 24.1893 41.6644 24.568C41.7871 24.9467 41.8484 25.3627 41.8484 25.816V31H41.2164C41.0777 31 40.9711 30.9787 40.8964 30.936C40.8217 30.888 40.7631 30.7973 40.7204 30.664L40.5604 29.896C40.3471 30.0933 40.1391 30.2693 39.9364 30.424C39.7337 30.5733 39.5204 30.7013 39.2964 30.808C39.0724 30.9093 38.8324 30.9867 38.5764 31.04C38.3257 31.0987 38.0457 31.128 37.7364 31.128C37.4217 31.128 37.1257 31.0853 36.8484 31C36.5711 30.9093 36.3284 30.776 36.1204 30.6C35.9177 30.424 35.7551 30.2027 35.6324 29.936C35.5151 29.664 35.4564 29.344 35.4564 28.976C35.4564 28.656 35.5444 28.3493 35.7204 28.056C35.8964 27.7573 36.1817 27.4933 36.5764 27.264C36.9711 27.0347 37.4857 26.848 38.1204 26.704C38.7551 26.5547 39.5337 26.4693 40.4564 26.448V25.816C40.4564 25.1867 40.3204 24.712 40.0484 24.392C39.7764 24.0667 39.3791 23.904 38.8564 23.904C38.5044 23.904 38.2084 23.9493 37.9684 24.04C37.7337 24.1253 37.5284 24.224 37.3524 24.336C37.1817 24.4427 37.0324 24.5413 36.9044 24.632C36.7817 24.7173 36.6591 24.76 36.5364 24.76C36.4404 24.76 36.3577 24.736 36.2884 24.688C36.2191 24.6347 36.1604 24.5707 36.1124 24.496L35.8564 24.04ZM45.5215 22.896V31H44.0975V22.896H45.5215ZM45.8255 20.352C45.8255 20.4907 45.7962 20.6213 45.7375 20.744C45.6842 20.8613 45.6095 20.968 45.5135 21.064C45.4229 21.1547 45.3135 21.2267 45.1855 21.28C45.0629 21.3333 44.9322 21.36 44.7935 21.36C44.6549 21.36 44.5242 21.3333 44.4015 21.28C44.2842 21.2267 44.1802 21.1547 44.0895 21.064C43.9989 20.968 43.9269 20.8613 43.8735 20.744C43.8202 20.6213 43.7935 20.4907 43.7935 20.352C43.7935 20.2133 43.8202 20.0827 43.8735 19.96C43.9269 19.832 43.9989 19.7227 44.0895 19.632C44.1802 19.536 44.2842 19.4613 44.4015 19.408C44.5242 19.3547 44.6549 19.328 44.7935 19.328C44.9322 19.328 45.0629 19.3547 45.1855 19.408C45.3135 19.4613 45.4229 19.536 45.5135 19.632C45.6095 19.7227 45.6842 19.832 45.7375 19.96C45.7962 20.0827 45.8255 20.2133 45.8255 20.352ZM49.3333 19.216V31H47.9093V19.216H49.3333Z" fill="black"/>
</g>
<defs>
<filter id="filter0_d" x="0" y="0" width="127" height="58" filterUnits="userSpaceOnUse" color-interpolation-filters="sRGB">
<feFlood flood-opacity="0" result="BackgroundImageFix"/>
<feColorMatrix in="SourceAlpha" type="matrix" values="0 0 0 0 0 0 0 0 0 0 0 0 0 0 0 0 0 0 127 0"/>
<feOffset dy="4"/>
<feGaussianBlur stdDeviation="2"/>
<feColorMatrix type="matrix" values="0 0 0 0 0 0 0 0 0 0 0 0 0 0 0 0 0 0 0.05 0"/>
<feBlend mode="normal" in2="BackgroundImageFix" result="effect1_dropShadow"/>
<feBlend mode="normal" in="SourceGraphic" in2="effect1_dropShadow" result="shape"/>
</filter>
</defs>
</svg>
