<svg width="311" height="90" viewBox="0 0 311 90" fill="none" xmlns="http://www.w3.org/2000/svg">
<g filter="url(#filter0_d)">
<path d="M109 81C112.1 75.3 112.1 48.7001 109 43.0001L202 43C198.9 48.7 198.9 75.2999 202 81H109Z" fill="white" stroke="black" stroke-width="2"/>
<path d="M114.928 56.8516C115.181 65.2568 113.888 75.4493 113.213 77.9553C125.472 77.9553 149.375 78.1316 158.275 78.1316C163.776 78.1316 121.214 73.84 114.928 56.8516Z" fill="black"/>
<path d="M196.072 67.1484C195.819 58.7432 197.112 48.5507 197.787 46.0447C185.528 46.0447 161.625 45.8684 152.725 45.8684C147.224 45.8684 189.786 50.16 196.072 67.1484Z" fill="black"/>
<path d="M147.57 65.9424C138.266 65.9424 142.918 55.2725 147.57 61.3696C149.74 60.455 145.089 56.7967 142.918 58.9307C142.918 53.7482 134.855 56.4918 137.956 58.9307C139.196 59.2356 139.506 57.7113 138.731 57.4065C141.057 56.187 142.297 58.321 141.677 59.8453C139.196 65.9424 144.158 67.1618 147.57 67.1618H163.076C165.867 67.1618 171.449 65.9424 168.968 59.8453C168.658 59.2356 169.588 56.1871 171.914 57.4065C171.139 57.7113 171.449 59.2356 172.689 58.9307C175.79 56.4919 169.278 53.7482 167.727 58.9307C165.557 56.7967 160.905 60.455 163.076 61.3696C167.727 55.2725 172.379 65.9424 163.076 65.9424H147.57Z" fill="black" stroke="black" stroke-width="0.5"/>
<path fill-rule="evenodd" clip-rule="evenodd" d="M155.642 57.5742C155.827 57.4088 156.067 57.3649 156.378 57.5055C156.651 57.6297 156.803 57.8174 156.865 58.0448C157.129 57.8924 157.407 57.9024 157.685 58.173C157.899 58.3808 157.975 58.6079 157.953 58.8425C158.255 58.787 158.512 58.8884 158.678 59.235C158.806 59.5006 158.798 59.739 158.695 59.9518C158.998 59.9998 159.204 60.1804 159.238 60.5612C159.397 62.3475 155.153 61.4917 155.082 61.4359C155.081 61.4357 155.08 61.4354 155.08 61.4351L155.081 61.4345L155.08 61.4344C155.08 61.4346 155.079 61.4346 155.079 61.4345C155.079 61.4345 155.076 61.3925 155.071 61.3172C154.582 61.4353 150.448 62.3892 150.904 60.7474C150.983 60.4619 151.149 60.2836 151.372 60.1853C151.176 59.9607 151.141 59.696 151.365 59.3858C151.556 59.1218 151.799 59.0121 152.07 59.0102C151.98 58.7445 152.046 58.4942 152.356 58.2843C152.601 58.118 152.842 58.0834 153.074 58.1425C152.993 57.7449 153.111 57.4323 153.575 57.312C153.878 57.2334 154.127 57.2896 154.329 57.4374C154.45 57.2555 154.652 57.1573 154.963 57.184C155.287 57.2118 155.504 57.3557 155.642 57.5742Z" fill="black"/>
<path d="M156.378 57.5055L156.274 57.7332L156.274 57.7332L156.378 57.5055ZM155.642 57.5742L155.431 57.7075L155.588 57.9576L155.809 57.7607L155.642 57.5742ZM156.865 58.0448L156.624 58.1107L156.71 58.4233L156.99 58.2614L156.865 58.0448ZM157.685 58.173L157.511 58.3523L157.511 58.3523L157.685 58.173ZM157.953 58.8425L157.704 58.819L157.673 59.1481L157.998 59.0883L157.953 58.8425ZM158.678 59.235L158.904 59.1269L158.904 59.1269L158.678 59.235ZM158.695 59.9518L158.47 59.843L158.323 60.1461L158.656 60.1987L158.695 59.9518ZM159.238 60.5612L158.989 60.5834L158.989 60.5834L159.238 60.5612ZM155.082 61.4359L155.236 61.2392L155.198 61.2092L155.151 61.1957L155.082 61.4359ZM155.08 61.4351L154.879 61.2871L154.782 61.4191L154.864 61.5607L155.08 61.4351ZM155.081 61.4345L155.282 61.5825L155.482 61.3101L155.163 61.1985L155.081 61.4345ZM155.08 61.4344L155.163 61.1984L155.085 61.1711L155.005 61.1959L155.08 61.4344ZM155.079 61.4345L154.83 61.4551L154.843 61.6147L154.994 61.6694L155.079 61.4345ZM155.071 61.3172L155.32 61.3011L155.301 61.0043L155.012 61.0742L155.071 61.3172ZM150.904 60.7474L150.663 60.6806L150.663 60.6806L150.904 60.7474ZM151.372 60.1853L151.473 60.414L151.784 60.2769L151.56 60.0209L151.372 60.1853ZM151.365 59.3858L151.568 59.5323L151.568 59.5323L151.365 59.3858ZM152.07 59.0102L152.072 59.2602L152.419 59.2579L152.307 58.9295L152.07 59.0102ZM152.356 58.2843L152.215 58.0774L152.215 58.0774L152.356 58.2843ZM153.074 58.1425L153.013 58.3847L153.399 58.4832L153.319 58.0925L153.074 58.1425ZM153.575 57.312L153.512 57.07L153.512 57.07L153.575 57.312ZM154.329 57.4374L154.182 57.6393L154.393 57.7932L154.537 57.5758L154.329 57.4374ZM154.963 57.184L154.942 57.4331L154.942 57.4331L154.963 57.184ZM156.481 57.2779C156.295 57.1936 156.112 57.1563 155.934 57.1767C155.755 57.1975 155.602 57.2752 155.476 57.3877L155.809 57.7607C155.868 57.7078 155.927 57.6809 155.992 57.6734C156.058 57.6658 156.15 57.6768 156.274 57.7332L156.481 57.2779ZM157.107 57.9789C157.023 57.6743 156.817 57.4303 156.481 57.2779L156.274 57.7332C156.486 57.8291 156.583 57.9606 156.624 58.1107L157.107 57.9789ZM157.859 57.9937C157.691 57.8304 157.505 57.7279 157.301 57.7023C157.098 57.6766 156.908 57.7318 156.74 57.8283L156.99 58.2614C157.087 58.2055 157.168 58.1894 157.239 58.1983C157.309 58.2073 157.401 58.245 157.511 58.3523L157.859 57.9937ZM158.202 58.8659C158.232 58.5508 158.124 58.2506 157.859 57.9937L157.511 58.3523C157.674 58.511 157.719 58.6649 157.704 58.819L158.202 58.8659ZM158.904 59.1269C158.803 58.9165 158.662 58.7569 158.479 58.6646C158.296 58.5725 158.098 58.5616 157.908 58.5966L157.998 59.0883C158.11 59.0678 158.192 59.0799 158.254 59.1113C158.316 59.1425 158.388 59.2069 158.453 59.3431L158.904 59.1269ZM158.92 60.0606C159.058 59.7759 159.062 59.4576 158.904 59.1269L158.453 59.3431C158.549 59.5437 158.538 59.7021 158.47 59.843L158.92 60.0606ZM159.487 60.5389C159.466 60.3071 159.39 60.1089 159.249 59.9597C159.108 59.811 158.925 59.7351 158.734 59.7049L158.656 60.1987C158.768 60.2166 158.839 60.2549 158.886 60.3036C158.931 60.352 158.975 60.4344 158.989 60.5834L159.487 60.5389ZM154.927 61.6326C154.959 61.6578 154.992 61.6699 154.995 61.6711C155.006 61.6756 155.017 61.6792 155.025 61.6817C155.041 61.687 155.061 61.6922 155.08 61.6972C155.12 61.7073 155.173 61.7194 155.237 61.7325C155.364 61.7587 155.54 61.7905 155.747 61.8213C156.16 61.8825 156.705 61.9405 157.247 61.9393C157.781 61.9381 158.342 61.8795 158.768 61.6871C158.984 61.5895 159.18 61.4513 159.314 61.2551C159.451 61.055 159.511 60.8139 159.487 60.5389L158.989 60.5834C159.004 60.755 158.966 60.878 158.901 60.9727C158.834 61.0714 158.723 61.159 158.563 61.2315C158.235 61.3793 157.761 61.4382 157.245 61.4393C156.737 61.4405 156.218 61.3857 155.82 61.3267C155.622 61.2972 155.455 61.267 155.338 61.2427C155.279 61.2306 155.233 61.2203 155.203 61.2126C155.188 61.2087 155.179 61.2062 155.176 61.205C155.174 61.2044 155.176 61.2051 155.181 61.207C155.184 61.208 155.189 61.2103 155.196 61.2139C155.201 61.2165 155.217 61.2247 155.236 61.2392L154.927 61.6326ZM154.864 61.5607C154.896 61.6149 154.938 61.6423 154.959 61.6537C154.981 61.6664 155.001 61.6729 155.012 61.6761L155.151 61.1957C155.161 61.1987 155.18 61.2049 155.203 61.2173C155.223 61.2284 155.265 61.2556 155.296 61.3094L154.864 61.5607ZM154.879 61.2865L154.879 61.2871L155.282 61.583L155.282 61.5825L154.879 61.2865ZM154.998 61.6704L154.998 61.6705L155.163 61.1985L155.163 61.1984L154.998 61.6704ZM154.994 61.6694C155.074 61.6985 155.141 61.6775 155.155 61.6729L155.005 61.1959C155.017 61.1922 155.036 61.1872 155.06 61.1853C155.084 61.1835 155.122 61.184 155.165 61.1996L154.994 61.6694ZM154.821 61.3333C154.824 61.3718 154.826 61.4019 154.827 61.4226C154.828 61.4329 154.829 61.4409 154.829 61.4464C154.829 61.4491 154.83 61.4512 154.83 61.4527C154.83 61.4534 154.83 61.454 154.83 61.4544C154.83 61.4546 154.83 61.4548 154.83 61.4549C154.83 61.455 154.83 61.455 154.83 61.4551C154.83 61.4551 154.83 61.4551 154.83 61.4551C154.83 61.4551 154.83 61.4551 154.83 61.4551C154.83 61.4551 154.83 61.4551 154.83 61.4551C154.83 61.4551 154.83 61.4551 155.079 61.4345C155.328 61.4139 155.328 61.4139 155.328 61.4139C155.328 61.4139 155.328 61.4139 155.328 61.4139C155.328 61.4139 155.328 61.4139 155.328 61.4139C155.328 61.4139 155.328 61.4139 155.328 61.4139C155.328 61.4139 155.328 61.4139 155.328 61.4139C155.328 61.4139 155.328 61.4138 155.328 61.4137C155.328 61.4134 155.328 61.413 155.328 61.4125C155.328 61.4113 155.328 61.4096 155.328 61.4072C155.327 61.4024 155.327 61.3952 155.326 61.3856C155.325 61.3665 155.323 61.3379 155.32 61.3011L154.821 61.3333ZM155.012 61.0742C154.769 61.1328 153.634 61.3957 152.622 61.4425C152.108 61.4663 151.667 61.4318 151.391 61.3153C151.258 61.259 151.186 61.1936 151.152 61.1296C151.12 61.0696 151.1 60.9745 151.145 60.8142L150.663 60.6806C150.593 60.9308 150.603 61.1651 150.712 61.3666C150.818 61.5643 150.999 61.6927 151.197 61.7761C151.583 61.9388 152.121 61.9663 152.645 61.942C153.708 61.8928 154.883 61.6197 155.13 61.5602L155.012 61.0742ZM151.145 60.8142C151.204 60.5994 151.32 60.4815 151.473 60.414L151.271 59.9566C150.978 60.0857 150.761 60.3243 150.663 60.6806L151.145 60.8142ZM151.162 59.2393C151.027 59.4266 150.953 59.6243 150.961 59.8276C150.969 60.0314 151.058 60.2061 151.184 60.3497L151.56 60.0209C151.49 59.9398 151.463 59.8699 151.461 59.8077C151.458 59.745 151.479 59.6552 151.568 59.5323L151.162 59.2393ZM152.069 58.7602C151.719 58.7626 151.401 58.9099 151.162 59.2393L151.568 59.5323C151.711 59.3337 151.88 59.2615 152.072 59.2602L152.069 58.7602ZM152.215 58.0774C152.03 58.2032 151.894 58.3569 151.828 58.5415C151.761 58.7279 151.774 58.9165 151.834 59.091L152.307 58.9295C152.276 58.8382 152.277 58.7687 152.298 58.7111C152.32 58.6517 152.372 58.5753 152.496 58.4913L152.215 58.0774ZM153.136 57.9002C152.832 57.8227 152.517 57.8728 152.215 58.0774L152.496 58.4913C152.685 58.3632 152.853 58.3441 153.013 58.3847L153.136 57.9002ZM153.512 57.07C153.233 57.1423 153.019 57.284 152.9 57.5043C152.784 57.7182 152.782 57.9623 152.829 58.1925L153.319 58.0925C153.285 57.9251 153.301 57.814 153.34 57.7422C153.375 57.6767 153.452 57.602 153.638 57.554L153.512 57.07ZM154.476 57.2354C154.211 57.0415 153.885 56.9735 153.512 57.07L153.638 57.554C153.872 57.4933 154.042 57.5377 154.182 57.6393L154.476 57.2354ZM154.985 56.9349C154.603 56.9022 154.303 57.0252 154.121 57.2989L154.537 57.5758C154.597 57.4858 154.701 57.4125 154.942 57.4331L154.985 56.9349ZM155.854 57.4409C155.672 57.1531 155.383 56.9691 154.985 56.9349L154.942 57.4331C155.191 57.4545 155.337 57.5582 155.431 57.7075L155.854 57.4409Z" fill="black"/>
</g>
<g filter="url(#filter1_d)">
<path d="M35.1496 25.46L37.3096 24.92V1.88L35.1496 1.34V0.799998H54.4096V7.28H53.3296C52.8736 6.92 52.4776 6.464 52.1416 5.912C51.3736 4.616 50.9896 3.212 50.9896 1.7H43.2496V13.04H47.3896C47.5576 12.128 47.8696 11.276 48.3256 10.484C48.5176 10.124 48.7456 9.776 49.0096 9.44H50.0896V17.54H49.0096C48.7456 17.204 48.5176 16.856 48.3256 16.496C47.8696 15.704 47.5576 14.852 47.3896 13.94H43.2496V25.1H51.7096C51.7096 23.588 52.0936 22.184 52.8616 20.888C53.1976 20.336 53.5936 19.88 54.0496 19.52H55.1296V26H35.1496V25.46ZM56.9296 9.08L55.1296 8.54V8H59.6296C60.8776 8 61.8616 8.264 62.5816 8.792C63.3256 9.296 63.9616 10.052 64.4896 11.06L68.7736 19.376L72.7696 9.62L70.0696 8.54V8H76.7296V8.54L73.8496 9.62L67.0096 26.36H65.9296L56.9296 9.08ZM86.451 26.54C83.379 26.54 80.991 25.7 79.287 24.02C77.583 22.316 76.731 19.976 76.731 17C76.731 15.056 77.103 13.364 77.847 11.924C78.591 10.484 79.623 9.38 80.943 8.612C82.287 7.844 83.823 7.46 85.551 7.46C87.279 7.46 88.791 7.784 90.087 8.432C91.407 9.08 92.415 9.956 93.111 11.06C93.831 12.14 94.191 13.34 94.191 14.66C94.191 15.26 94.131 15.776 94.011 16.208L93.831 16.82C92.799 17.036 91.683 17.216 90.483 17.36C87.963 17.72 85.419 17.9 82.851 17.9C82.851 20.684 83.235 22.676 84.003 23.876C84.771 25.052 85.827 25.64 87.171 25.64C88.107 25.64 88.971 25.424 89.763 24.992C90.579 24.536 91.215 23.948 91.671 23.228C92.151 22.484 92.391 21.728 92.391 20.96H93.291C93.291 21.92 93.003 22.832 92.427 23.696C91.851 24.56 91.047 25.256 90.015 25.784C88.983 26.288 87.795 26.54 86.451 26.54ZM82.851 17C84.387 17 85.635 16.94 86.595 16.82C87.003 16.796 87.435 16.736 87.891 16.64C87.915 16.52 87.975 16.256 88.071 15.848C88.191 15.248 88.251 14.612 88.251 13.94C88.251 11.948 87.987 10.496 87.459 9.584C86.931 8.648 86.295 8.18 85.551 8.18C83.751 8.18 82.851 11.12 82.851 17ZM96.8755 25.46L99.0355 24.92V9.08L96.8755 8.54V8H100.116C101.532 8 102.648 8.456 103.464 9.368C103.776 9.728 104.04 10.172 104.256 10.7C104.592 10.076 104.988 9.536 105.444 9.08C106.524 8 107.868 7.46 109.476 7.46C110.82 7.46 112.02 7.748 113.076 8.324C114.156 8.876 114.996 9.608 115.596 10.52C116.196 11.432 116.496 12.392 116.496 13.4V24.92L118.656 25.46V26H113.976C111.816 26 110.736 24.92 110.736 22.76V13.4C110.736 11.888 110.46 10.736 109.908 9.944C109.38 9.128 108.756 8.72 108.036 8.72C107.124 8.72 106.308 9.2 105.588 10.16C105.276 10.568 105.012 11.048 104.796 11.6V24.92L106.956 25.46V26H96.8755V25.46ZM130.177 26.54C128.593 26.54 127.213 26.252 126.037 25.676C124.885 25.1 123.997 24.308 123.373 23.3C122.749 22.292 122.437 21.152 122.437 19.88V8.9H119.917V8H122.437V6.2C122.437 4.04 123.517 2.96 125.677 2.96H128.197V8H133.237V8.9H128.197V19.88C128.197 22.088 128.425 23.6 128.881 24.416C129.337 25.232 130.009 25.64 130.897 25.64C131.761 25.64 132.517 25.22 133.165 24.38C133.813 23.54 134.137 22.4 134.137 20.96H135.037C135.037 22.736 134.593 24.116 133.705 25.1C132.817 26.06 131.641 26.54 130.177 26.54ZM147.474 25.46L149.634 24.92V1.88L147.474 1.34V0.799998H156.654C160.95 0.799998 164.238 1.904 166.518 4.112C168.822 6.32 169.974 9.416 169.974 13.4C169.974 17.384 168.822 20.48 166.518 22.688C164.238 24.896 160.95 26 156.654 26H147.474V25.46ZM156.654 25.1C158.886 25.1 160.614 24.2 161.838 22.4C163.062 20.576 163.674 17.576 163.674 13.4C163.674 9.224 163.062 6.236 161.838 4.436C160.614 2.612 158.886 1.7 156.654 1.7H155.574V25.1H156.654ZM172.848 25.46L175.008 24.92V9.08L172.848 8.54V8H176.088C177.504 8 178.62 8.456 179.436 9.368C179.748 9.728 180.012 10.172 180.228 10.7C180.588 10.172 181.032 9.692 181.56 9.26C182.76 8.3 184.104 7.82 185.592 7.82C186.864 7.82 187.812 8.12 188.436 8.72C189.084 9.296 189.408 10.136 189.408 11.24C189.408 12.056 189.156 12.716 188.652 13.22C188.172 13.7 187.524 13.94 186.708 13.94C186.372 13.94 186.036 13.916 185.7 13.868L185.268 13.76V8.72C184.044 8.72 182.928 9.2 181.92 10.16C181.44 10.64 181.056 11.12 180.768 11.6V24.92L182.928 25.46V26H172.848V25.46ZM197.341 26.54C195.205 26.54 193.561 26.084 192.409 25.172C191.257 24.26 190.681 23.096 190.681 21.68C190.681 20.744 190.885 19.82 191.293 18.908C191.461 18.476 191.677 18.08 191.941 17.72C192.925 17.48 193.993 17.264 195.145 17.072C197.737 16.64 200.029 16.376 202.021 16.28V15.2C202.021 12.536 201.697 10.7 201.049 9.692C200.401 8.684 199.405 8.18 198.061 8.18C197.557 8.18 197.125 8.24 196.765 8.36L196.261 8.54V13.94L195.793 14.048C195.409 14.096 195.085 14.12 194.821 14.12C194.005 14.12 193.345 13.88 192.841 13.4C192.361 12.896 192.121 12.236 192.121 11.42C192.121 10.316 192.673 9.38 193.777 8.612C194.905 7.844 196.573 7.46 198.781 7.46C200.653 7.46 202.261 7.796 203.605 8.468C204.973 9.116 206.005 10.028 206.701 11.204C207.421 12.356 207.781 13.688 207.781 15.2V24.92L209.941 25.46V26H206.701C205.261 26 204.145 25.556 203.353 24.668C203.017 24.308 202.753 23.852 202.561 23.3C202.225 23.9 201.829 24.44 201.373 24.92C200.293 26 198.949 26.54 197.341 26.54ZM198.781 25.28C199.669 25.28 200.473 24.8 201.193 23.84C201.457 23.48 201.733 23 202.021 22.4V17.18C200.917 17.18 199.861 17.24 198.853 17.36C198.109 17.456 197.605 17.516 197.341 17.54C197.221 17.804 197.101 18.164 196.981 18.62C196.741 19.532 196.621 20.432 196.621 21.32C196.621 22.664 196.825 23.66 197.233 24.308C197.641 24.956 198.157 25.28 198.781 25.28ZM211.055 9.08L209.255 8.54V8H213.395C214.667 8 215.675 8.264 216.419 8.792C217.163 9.32 217.775 10.076 218.255 11.06L222.215 19.34L224.267 14.084L221.855 9.08L220.055 8.54V8H224.195C225.467 8 226.475 8.264 227.219 8.792C227.963 9.32 228.575 10.076 229.055 11.06L233.015 19.34L236.795 9.62L234.095 8.54V8H240.755V8.54L237.875 9.62L231.215 26.36H230.135L224.807 15.272L220.415 26.36H219.335L211.055 9.08ZM250.49 26.54C247.418 26.54 245.03 25.7 243.326 24.02C241.622 22.316 240.77 19.976 240.77 17C240.77 15.056 241.142 13.364 241.886 11.924C242.63 10.484 243.662 9.38 244.982 8.612C246.326 7.844 247.862 7.46 249.59 7.46C251.318 7.46 252.83 7.784 254.126 8.432C255.446 9.08 256.454 9.956 257.15 11.06C257.87 12.14 258.23 13.34 258.23 14.66C258.23 15.26 258.17 15.776 258.05 16.208L257.87 16.82C256.838 17.036 255.722 17.216 254.522 17.36C252.002 17.72 249.458 17.9 246.89 17.9C246.89 20.684 247.274 22.676 248.042 23.876C248.81 25.052 249.866 25.64 251.21 25.64C252.146 25.64 253.01 25.424 253.802 24.992C254.618 24.536 255.254 23.948 255.71 23.228C256.19 22.484 256.43 21.728 256.43 20.96H257.33C257.33 21.92 257.042 22.832 256.466 23.696C255.89 24.56 255.086 25.256 254.054 25.784C253.022 26.288 251.834 26.54 250.49 26.54ZM246.89 17C248.426 17 249.674 16.94 250.634 16.82C251.042 16.796 251.474 16.736 251.93 16.64C251.954 16.52 252.014 16.256 252.11 15.848C252.23 15.248 252.29 14.612 252.29 13.94C252.29 11.948 252.026 10.496 251.498 9.584C250.97 8.648 250.334 8.18 249.59 8.18C247.79 8.18 246.89 11.12 246.89 17ZM260.915 25.46L263.075 24.92V9.08L260.915 8.54V8H264.155C265.571 8 266.687 8.456 267.503 9.368C267.815 9.728 268.079 10.172 268.295 10.7C268.655 10.172 269.099 9.692 269.627 9.26C270.827 8.3 272.171 7.82 273.659 7.82C274.931 7.82 275.879 8.12 276.503 8.72C277.151 9.296 277.475 10.136 277.475 11.24C277.475 12.056 277.223 12.716 276.719 13.22C276.239 13.7 275.591 13.94 274.775 13.94C274.439 13.94 274.103 13.916 273.767 13.868L273.335 13.76V8.72C272.111 8.72 270.995 9.2 269.987 10.16C269.507 10.64 269.123 11.12 268.835 11.6V24.92L270.995 25.46V26H260.915V25.46Z" fill="black"/>
</g>
<defs>
<filter id="filter0_d" x="103.318" y="42" width="104.364" height="48" filterUnits="userSpaceOnUse" color-interpolation-filters="sRGB">
<feFlood flood-opacity="0" result="BackgroundImageFix"/>
<feColorMatrix in="SourceAlpha" type="matrix" values="0 0 0 0 0 0 0 0 0 0 0 0 0 0 0 0 0 0 127 0"/>
<feOffset dy="4"/>
<feGaussianBlur stdDeviation="2"/>
<feColorMatrix type="matrix" values="0 0 0 0 0 0 0 0 0 0 0 0 0 0 0 0 0 0 0.05 0"/>
<feBlend mode="normal" in2="BackgroundImageFix" result="effect1_dropShadow"/>
<feBlend mode="normal" in="SourceGraphic" in2="effect1_dropShadow" result="shape"/>
</filter>
<filter id="filter1_d" x="33.1497" y="0.799805" width="246.325" height="31.74" filterUnits="userSpaceOnUse" color-interpolation-filters="sRGB">
<feFlood flood-opacity="0" result="BackgroundImageFix"/>
<feColorMatrix in="SourceAlpha" type="matrix" values="0 0 0 0 0 0 0 0 0 0 0 0 0 0 0 0 0 0 127 0"/>
<feOffset dy="4"/>
<feGaussianBlur stdDeviation="1"/>
<feColorMatrix type="matrix" values="0 0 0 0 0 0 0 0 0 0 0 0 0 0 0 0 0 0 0.05 0"/>
<feBlend mode="normal" in2="BackgroundImageFix" result="effect1_dropShadow"/>
<feBlend mode="normal" in="SourceGraphic" in2="effect1_dropShadow" result="shape"/>
</filter>
</defs>
</svg>
