<svg width="311" height="81" viewBox="0 0 311 81" fill="none" xmlns="http://www.w3.org/2000/svg">
<g filter="url(#filter0_d)">
<path d="M35.1496 25.46L37.3096 24.92V1.88L35.1496 1.34V0.799998H54.4096V7.28H53.3296C52.8736 6.92 52.4776 6.464 52.1416 5.912C51.3736 4.616 50.9896 3.212 50.9896 1.7H43.2496V13.04H47.3896C47.5576 12.128 47.8696 11.276 48.3256 10.484C48.5176 10.124 48.7456 9.776 49.0096 9.44H50.0896V17.54H49.0096C48.7456 17.204 48.5176 16.856 48.3256 16.496C47.8696 15.704 47.5576 14.852 47.3896 13.94H43.2496V25.1H51.7096C51.7096 23.588 52.0936 22.184 52.8616 20.888C53.1976 20.336 53.5936 19.88 54.0496 19.52H55.1296V26H35.1496V25.46ZM56.9296 9.08L55.1296 8.54V8H59.6296C60.8776 8 61.8616 8.264 62.5816 8.792C63.3256 9.296 63.9616 10.052 64.4896 11.06L68.7736 19.376L72.7696 9.62L70.0696 8.54V8H76.7296V8.54L73.8496 9.62L67.0096 26.36H65.9296L56.9296 9.08ZM86.451 26.54C83.379 26.54 80.991 25.7 79.287 24.02C77.583 22.316 76.731 19.976 76.731 17C76.731 15.056 77.103 13.364 77.847 11.924C78.591 10.484 79.623 9.38 80.943 8.612C82.287 7.844 83.823 7.46 85.551 7.46C87.279 7.46 88.791 7.784 90.087 8.432C91.407 9.08 92.415 9.956 93.111 11.06C93.831 12.14 94.191 13.34 94.191 14.66C94.191 15.26 94.131 15.776 94.011 16.208L93.831 16.82C92.799 17.036 91.683 17.216 90.483 17.36C87.963 17.72 85.419 17.9 82.851 17.9C82.851 20.684 83.235 22.676 84.003 23.876C84.771 25.052 85.827 25.64 87.171 25.64C88.107 25.64 88.971 25.424 89.763 24.992C90.579 24.536 91.215 23.948 91.671 23.228C92.151 22.484 92.391 21.728 92.391 20.96H93.291C93.291 21.92 93.003 22.832 92.427 23.696C91.851 24.56 91.047 25.256 90.015 25.784C88.983 26.288 87.795 26.54 86.451 26.54ZM82.851 17C84.387 17 85.635 16.94 86.595 16.82C87.003 16.796 87.435 16.736 87.891 16.64C87.915 16.52 87.975 16.256 88.071 15.848C88.191 15.248 88.251 14.612 88.251 13.94C88.251 11.948 87.987 10.496 87.459 9.584C86.931 8.648 86.295 8.18 85.551 8.18C83.751 8.18 82.851 11.12 82.851 17ZM96.8755 25.46L99.0355 24.92V9.08L96.8755 8.54V8H100.116C101.532 8 102.648 8.456 103.464 9.368C103.776 9.728 104.04 10.172 104.256 10.7C104.592 10.076 104.988 9.536 105.444 9.08C106.524 8 107.868 7.46 109.476 7.46C110.82 7.46 112.02 7.748 113.076 8.324C114.156 8.876 114.996 9.608 115.596 10.52C116.196 11.432 116.496 12.392 116.496 13.4V24.92L118.656 25.46V26H113.976C111.816 26 110.736 24.92 110.736 22.76V13.4C110.736 11.888 110.46 10.736 109.908 9.944C109.38 9.128 108.756 8.72 108.036 8.72C107.124 8.72 106.308 9.2 105.588 10.16C105.276 10.568 105.012 11.048 104.796 11.6V24.92L106.956 25.46V26H96.8755V25.46ZM130.177 26.54C128.593 26.54 127.213 26.252 126.037 25.676C124.885 25.1 123.997 24.308 123.373 23.3C122.749 22.292 122.437 21.152 122.437 19.88V8.9H119.917V8H122.437V6.2C122.437 4.04 123.517 2.96 125.677 2.96H128.197V8H133.237V8.9H128.197V19.88C128.197 22.088 128.425 23.6 128.881 24.416C129.337 25.232 130.009 25.64 130.897 25.64C131.761 25.64 132.517 25.22 133.165 24.38C133.813 23.54 134.137 22.4 134.137 20.96H135.037C135.037 22.736 134.593 24.116 133.705 25.1C132.817 26.06 131.641 26.54 130.177 26.54ZM147.474 25.46L149.634 24.92V1.88L147.474 1.34V0.799998H156.654C160.95 0.799998 164.238 1.904 166.518 4.112C168.822 6.32 169.974 9.416 169.974 13.4C169.974 17.384 168.822 20.48 166.518 22.688C164.238 24.896 160.95 26 156.654 26H147.474V25.46ZM156.654 25.1C158.886 25.1 160.614 24.2 161.838 22.4C163.062 20.576 163.674 17.576 163.674 13.4C163.674 9.224 163.062 6.236 161.838 4.436C160.614 2.612 158.886 1.7 156.654 1.7H155.574V25.1H156.654ZM172.848 25.46L175.008 24.92V9.08L172.848 8.54V8H176.088C177.504 8 178.62 8.456 179.436 9.368C179.748 9.728 180.012 10.172 180.228 10.7C180.588 10.172 181.032 9.692 181.56 9.26C182.76 8.3 184.104 7.82 185.592 7.82C186.864 7.82 187.812 8.12 188.436 8.72C189.084 9.296 189.408 10.136 189.408 11.24C189.408 12.056 189.156 12.716 188.652 13.22C188.172 13.7 187.524 13.94 186.708 13.94C186.372 13.94 186.036 13.916 185.7 13.868L185.268 13.76V8.72C184.044 8.72 182.928 9.2 181.92 10.16C181.44 10.64 181.056 11.12 180.768 11.6V24.92L182.928 25.46V26H172.848V25.46ZM197.341 26.54C195.205 26.54 193.561 26.084 192.409 25.172C191.257 24.26 190.681 23.096 190.681 21.68C190.681 20.744 190.885 19.82 191.293 18.908C191.461 18.476 191.677 18.08 191.941 17.72C192.925 17.48 193.993 17.264 195.145 17.072C197.737 16.64 200.029 16.376 202.021 16.28V15.2C202.021 12.536 201.697 10.7 201.049 9.692C200.401 8.684 199.405 8.18 198.061 8.18C197.557 8.18 197.125 8.24 196.765 8.36L196.261 8.54V13.94L195.793 14.048C195.409 14.096 195.085 14.12 194.821 14.12C194.005 14.12 193.345 13.88 192.841 13.4C192.361 12.896 192.121 12.236 192.121 11.42C192.121 10.316 192.673 9.38 193.777 8.612C194.905 7.844 196.573 7.46 198.781 7.46C200.653 7.46 202.261 7.796 203.605 8.468C204.973 9.116 206.005 10.028 206.701 11.204C207.421 12.356 207.781 13.688 207.781 15.2V24.92L209.941 25.46V26H206.701C205.261 26 204.145 25.556 203.353 24.668C203.017 24.308 202.753 23.852 202.561 23.3C202.225 23.9 201.829 24.44 201.373 24.92C200.293 26 198.949 26.54 197.341 26.54ZM198.781 25.28C199.669 25.28 200.473 24.8 201.193 23.84C201.457 23.48 201.733 23 202.021 22.4V17.18C200.917 17.18 199.861 17.24 198.853 17.36C198.109 17.456 197.605 17.516 197.341 17.54C197.221 17.804 197.101 18.164 196.981 18.62C196.741 19.532 196.621 20.432 196.621 21.32C196.621 22.664 196.825 23.66 197.233 24.308C197.641 24.956 198.157 25.28 198.781 25.28ZM211.055 9.08L209.255 8.54V8H213.395C214.667 8 215.675 8.264 216.419 8.792C217.163 9.32 217.775 10.076 218.255 11.06L222.215 19.34L224.267 14.084L221.855 9.08L220.055 8.54V8H224.195C225.467 8 226.475 8.264 227.219 8.792C227.963 9.32 228.575 10.076 229.055 11.06L233.015 19.34L236.795 9.62L234.095 8.54V8H240.755V8.54L237.875 9.62L231.215 26.36H230.135L224.807 15.272L220.415 26.36H219.335L211.055 9.08ZM250.49 26.54C247.418 26.54 245.03 25.7 243.326 24.02C241.622 22.316 240.77 19.976 240.77 17C240.77 15.056 241.142 13.364 241.886 11.924C242.63 10.484 243.662 9.38 244.982 8.612C246.326 7.844 247.862 7.46 249.59 7.46C251.318 7.46 252.83 7.784 254.126 8.432C255.446 9.08 256.454 9.956 257.15 11.06C257.87 12.14 258.23 13.34 258.23 14.66C258.23 15.26 258.17 15.776 258.05 16.208L257.87 16.82C256.838 17.036 255.722 17.216 254.522 17.36C252.002 17.72 249.458 17.9 246.89 17.9C246.89 20.684 247.274 22.676 248.042 23.876C248.81 25.052 249.866 25.64 251.21 25.64C252.146 25.64 253.01 25.424 253.802 24.992C254.618 24.536 255.254 23.948 255.71 23.228C256.19 22.484 256.43 21.728 256.43 20.96H257.33C257.33 21.92 257.042 22.832 256.466 23.696C255.89 24.56 255.086 25.256 254.054 25.784C253.022 26.288 251.834 26.54 250.49 26.54ZM246.89 17C248.426 17 249.674 16.94 250.634 16.82C251.042 16.796 251.474 16.736 251.93 16.64C251.954 16.52 252.014 16.256 252.11 15.848C252.23 15.248 252.29 14.612 252.29 13.94C252.29 11.948 252.026 10.496 251.498 9.584C250.97 8.648 250.334 8.18 249.59 8.18C247.79 8.18 246.89 11.12 246.89 17ZM260.915 25.46L263.075 24.92V9.08L260.915 8.54V8H264.155C265.571 8 266.687 8.456 267.503 9.368C267.815 9.728 268.079 10.172 268.295 10.7C268.655 10.172 269.099 9.692 269.627 9.26C270.827 8.3 272.171 7.82 273.659 7.82C274.931 7.82 275.879 8.12 276.503 8.72C277.151 9.296 277.475 10.136 277.475 11.24C277.475 12.056 277.223 12.716 276.719 13.22C276.239 13.7 275.591 13.94 274.775 13.94C274.439 13.94 274.103 13.916 273.767 13.868L273.335 13.76V8.72C272.111 8.72 270.995 9.2 269.987 10.16C269.507 10.64 269.123 11.12 268.835 11.6V24.92L270.995 25.46V26H260.915V25.46Z" fill="black"/>
</g>
<path d="M109 80C112.1 74.45 112.1 48.5501 109 43.0001L202 43C198.9 48.55 198.9 74.4499 202 80H109Z" stroke="black" stroke-width="2"/>
<ellipse cx="155.5" cy="61.5002" rx="5.69472" ry="5.54998" fill="black"/>
<defs>
<filter id="filter0_d" x="33.1497" y="0.799805" width="246.325" height="31.74" filterUnits="userSpaceOnUse" color-interpolation-filters="sRGB">
<feFlood flood-opacity="0" result="BackgroundImageFix"/>
<feColorMatrix in="SourceAlpha" type="matrix" values="0 0 0 0 0 0 0 0 0 0 0 0 0 0 0 0 0 0 127 0"/>
<feOffset dy="4"/>
<feGaussianBlur stdDeviation="1"/>
<feColorMatrix type="matrix" values="0 0 0 0 0 0 0 0 0 0 0 0 0 0 0 0 0 0 0.05 0"/>
<feBlend mode="normal" in2="BackgroundImageFix" result="effect1_dropShadow"/>
<feBlend mode="normal" in="SourceGraphic" in2="effect1_dropShadow" result="shape"/>
</filter>
</defs>
</svg>
