<svg width="155" height="151" viewBox="0 0 155 151" fill="none" xmlns="http://www.w3.org/2000/svg">
<path d="M75.6854 3.04036V148M75.6854 3.04036C46.0179 4.13302 35.6343 13.967 24.509 23.0725M75.6854 3.04036C90.8159 2.45761 110.174 8.13954 126.491 23.0725M75.6854 148C101.274 148 139.471 131.974 148 89.3606H113.141M75.6854 148C44.1637 148 10.4169 127.604 3.00001 89.3606" stroke="#FFAE11" stroke-width="4.5"/>
<path d="M79.6854 3.04036V148M79.6854 3.04036C50.0179 4.13302 39.6343 13.967 28.509 23.0725M79.6854 3.04036C94.8159 2.45761 114.174 8.13954 130.491 23.0725M79.6854 148C105.274 148 143.471 131.974 152 89.3606H117.141M79.6854 148C48.1637 148 14.4169 127.604 7 89.3606" stroke="black" stroke-width="4.5"/>
</svg>
