<svg width="289" height="322" viewBox="0 0 289 322" fill="none" xmlns="http://www.w3.org/2000/svg">
<rect x="108" y="51.1387" width="51.1387" height="181" transform="rotate(-90 108 51.1387)" fill="#82321D"/>
<rect x="108" y="321.151" width="51.1387" height="48.8212" transform="rotate(-90 108 321.151)" fill="#82321D"/>
<rect x="108" y="253.648" width="51.1387" height="120.426" transform="rotate(-90 108 253.648)" fill="#82321D"/>
<rect x="108" y="118.642" width="51.1389" height="150.803" transform="rotate(-90 108 118.642)" fill="#82321D"/>
<path d="M120.904 282.349V299.149H117.016V285.469H113.656V282.349H120.904ZM130.303 282.349V299.149H126.415V285.469H123.055V282.349H130.303ZM137.085 291.373C135.917 291.373 134.973 290.949 134.253 290.101C133.533 289.253 133.173 288.149 133.173 286.789C133.173 285.429 133.533 284.325 134.253 283.477C134.973 282.629 135.917 282.205 137.085 282.205C138.253 282.205 139.189 282.629 139.893 283.477C140.613 284.309 140.973 285.413 140.973 286.789C140.973 288.165 140.613 289.277 139.893 290.125C139.189 290.957 138.253 291.373 137.085 291.373ZM147.213 282.349H149.061L137.589 299.149H135.741L147.213 282.349ZM137.085 290.005C137.821 290.005 138.397 289.725 138.813 289.165C139.229 288.589 139.437 287.797 139.437 286.789C139.437 285.781 139.229 284.997 138.813 284.437C138.397 283.861 137.821 283.573 137.085 283.573C136.365 283.573 135.789 283.861 135.357 284.437C134.941 285.013 134.733 285.797 134.733 286.789C134.733 287.781 134.941 288.565 135.357 289.141C135.789 289.717 136.365 290.005 137.085 290.005ZM147.717 299.293C146.549 299.293 145.605 298.877 144.885 298.045C144.181 297.197 143.829 296.085 143.829 294.709C143.829 293.333 144.181 292.229 144.885 291.397C145.605 290.549 146.549 290.125 147.717 290.125C148.885 290.125 149.829 290.549 150.549 291.397C151.269 292.245 151.629 293.349 151.629 294.709C151.629 296.069 151.269 297.173 150.549 298.021C149.829 298.869 148.885 299.293 147.717 299.293ZM147.717 297.925C148.437 297.925 149.005 297.637 149.421 297.061C149.853 296.485 150.069 295.701 150.069 294.709C150.069 293.717 149.853 292.933 149.421 292.357C149.005 291.781 148.437 291.493 147.717 291.493C146.981 291.493 146.405 291.781 145.989 292.357C145.573 292.917 145.365 293.701 145.365 294.709C145.365 295.717 145.573 296.509 145.989 297.085C146.405 297.645 146.981 297.925 147.717 297.925Z" fill="white"/>
<path d="M130.16 239.369H127.424V242.897H123.632V239.369H114.584V236.753L122.504 226.097H126.584L119.24 236.201H123.752V233.057H127.424V236.201H130.16V239.369ZM146.707 239.369H143.971V242.897H140.179V239.369H131.131V236.753L139.051 226.097H143.131L135.787 236.201H140.299V233.057H143.971V236.201H146.707V239.369ZM151.734 235.121C150.566 235.121 149.622 234.697 148.902 233.849C148.182 233.001 147.822 231.897 147.822 230.537C147.822 229.177 148.182 228.073 148.902 227.225C149.622 226.377 150.566 225.953 151.734 225.953C152.902 225.953 153.838 226.377 154.542 227.225C155.262 228.057 155.622 229.161 155.622 230.537C155.622 231.913 155.262 233.025 154.542 233.873C153.838 234.705 152.902 235.121 151.734 235.121ZM161.862 226.097H163.71L152.238 242.897H150.39L161.862 226.097ZM151.734 233.753C152.47 233.753 153.046 233.473 153.462 232.913C153.878 232.337 154.086 231.545 154.086 230.537C154.086 229.529 153.878 228.745 153.462 228.185C153.046 227.609 152.47 227.321 151.734 227.321C151.014 227.321 150.438 227.609 150.006 228.185C149.59 228.761 149.382 229.545 149.382 230.537C149.382 231.529 149.59 232.313 150.006 232.889C150.438 233.465 151.014 233.753 151.734 233.753ZM162.366 243.041C161.198 243.041 160.254 242.625 159.534 241.793C158.83 240.945 158.478 239.833 158.478 238.457C158.478 237.081 158.83 235.977 159.534 235.145C160.254 234.297 161.198 233.873 162.366 233.873C163.534 233.873 164.478 234.297 165.198 235.145C165.918 235.993 166.278 237.097 166.278 238.457C166.278 239.817 165.918 240.921 165.198 241.769C164.478 242.617 163.534 243.041 162.366 243.041ZM162.366 241.673C163.086 241.673 163.654 241.385 164.07 240.809C164.502 240.233 164.718 239.449 164.718 238.457C164.718 237.465 164.502 236.681 164.07 236.105C163.654 235.529 163.086 235.241 162.366 235.241C161.63 235.241 161.054 235.529 160.638 236.105C160.222 236.665 160.014 237.449 160.014 238.457C160.014 239.465 160.222 240.257 160.638 240.833C161.054 241.393 161.63 241.673 162.366 241.673Z" fill="white"/>
<rect x="108" y="186.145" width="51.1387" height="120.426" transform="rotate(-90 108 186.145)" fill="#82321D"/>
<path d="M130.16 171.866H127.424V175.394H123.632V171.866H114.584V169.25L122.504 158.594H126.584L119.24 168.698H123.752V165.554H127.424V168.698H130.16V171.866ZM146.707 171.866H143.971V175.394H140.179V171.866H131.131V169.25L139.051 158.594H143.131L135.787 168.698H140.299V165.554H143.971V168.698H146.707V171.866ZM151.734 167.618C150.566 167.618 149.622 167.194 148.902 166.346C148.182 165.498 147.822 164.394 147.822 163.034C147.822 161.674 148.182 160.57 148.902 159.722C149.622 158.874 150.566 158.45 151.734 158.45C152.902 158.45 153.838 158.874 154.542 159.722C155.262 160.554 155.622 161.658 155.622 163.034C155.622 164.41 155.262 165.522 154.542 166.37C153.838 167.202 152.902 167.618 151.734 167.618ZM161.862 158.594H163.71L152.238 175.394H150.39L161.862 158.594ZM151.734 166.25C152.47 166.25 153.046 165.97 153.462 165.41C153.878 164.834 154.086 164.042 154.086 163.034C154.086 162.026 153.878 161.242 153.462 160.682C153.046 160.106 152.47 159.818 151.734 159.818C151.014 159.818 150.438 160.106 150.006 160.682C149.59 161.258 149.382 162.042 149.382 163.034C149.382 164.026 149.59 164.81 150.006 165.386C150.438 165.962 151.014 166.25 151.734 166.25ZM162.366 175.538C161.198 175.538 160.254 175.122 159.534 174.29C158.83 173.442 158.478 172.33 158.478 170.954C158.478 169.578 158.83 168.474 159.534 167.642C160.254 166.794 161.198 166.37 162.366 166.37C163.534 166.37 164.478 166.794 165.198 167.642C165.918 168.49 166.278 169.594 166.278 170.954C166.278 172.314 165.918 173.418 165.198 174.266C164.478 175.114 163.534 175.538 162.366 175.538ZM162.366 174.17C163.086 174.17 163.654 173.882 164.07 173.306C164.502 172.73 164.718 171.946 164.718 170.954C164.718 169.962 164.502 169.178 164.07 168.602C163.654 168.026 163.086 167.738 162.366 167.738C161.63 167.738 161.054 168.026 160.638 168.602C160.222 169.162 160.014 169.946 160.014 170.954C160.014 171.962 160.222 172.754 160.638 173.33C161.054 173.89 161.63 174.17 162.366 174.17Z" fill="white"/>
<path d="M120.305 97.4024C122.673 97.4024 124.417 97.8744 125.537 98.8184C126.673 99.7624 127.241 101.026 127.241 102.61C127.241 103.634 126.985 104.57 126.473 105.418C125.961 106.25 125.177 106.922 124.121 107.434C123.081 107.93 121.793 108.178 120.257 108.178C119.073 108.178 117.905 108.026 116.753 107.722C115.617 107.402 114.649 106.954 113.849 106.378L115.385 103.402C116.025 103.882 116.761 104.258 117.593 104.53C118.425 104.786 119.281 104.914 120.161 104.914C121.137 104.914 121.905 104.722 122.465 104.338C123.025 103.954 123.305 103.418 123.305 102.73C123.305 102.01 123.009 101.466 122.417 101.098C121.841 100.73 120.833 100.546 119.393 100.546H115.097L115.961 91.0904H126.209V94.2104H119.201L118.937 97.4024H120.305ZM136.907 97.3544C137.979 97.3544 138.955 97.5704 139.835 98.0024C140.715 98.4344 141.411 99.0504 141.923 99.8504C142.435 100.634 142.691 101.546 142.691 102.586C142.691 103.706 142.411 104.69 141.851 105.538C141.291 106.386 140.523 107.042 139.547 107.506C138.587 107.954 137.515 108.178 136.331 108.178C133.979 108.178 132.139 107.458 130.811 106.018C129.483 104.578 128.819 102.522 128.819 99.8504C128.819 97.9464 129.179 96.3144 129.899 94.9544C130.619 93.5944 131.619 92.5624 132.899 91.8584C134.195 91.1544 135.691 90.8024 137.387 90.8024C138.283 90.8024 139.139 90.9064 139.955 91.1144C140.787 91.3064 141.491 91.5864 142.067 91.9544L140.627 94.8104C139.795 94.2504 138.747 93.9704 137.483 93.9704C136.059 93.9704 134.931 94.3864 134.099 95.2184C133.267 96.0504 132.819 97.2584 132.755 98.8424C133.747 97.8504 135.131 97.3544 136.907 97.3544ZM136.115 105.274C136.947 105.274 137.619 105.05 138.131 104.602C138.659 104.154 138.923 103.546 138.923 102.778C138.923 102.01 138.659 101.402 138.131 100.954C137.619 100.49 136.931 100.258 136.067 100.258C135.219 100.258 134.523 100.498 133.979 100.978C133.435 101.442 133.163 102.042 133.163 102.778C133.163 103.514 133.427 104.114 133.955 104.578C134.483 105.042 135.203 105.274 136.115 105.274ZM147.964 100.114C146.796 100.114 145.852 99.6904 145.132 98.8424C144.412 97.9944 144.052 96.8904 144.052 95.5304C144.052 94.1704 144.412 93.0664 145.132 92.2184C145.852 91.3704 146.796 90.9464 147.964 90.9464C149.132 90.9464 150.068 91.3704 150.772 92.2184C151.492 93.0504 151.852 94.1544 151.852 95.5304C151.852 96.9064 151.492 98.0184 150.772 98.8664C150.068 99.6984 149.132 100.114 147.964 100.114ZM158.092 91.0904H159.94L148.468 107.89H146.62L158.092 91.0904ZM147.964 98.7464C148.7 98.7464 149.276 98.4664 149.692 97.9064C150.108 97.3304 150.316 96.5384 150.316 95.5304C150.316 94.5224 150.108 93.7384 149.692 93.1784C149.276 92.6024 148.7 92.3144 147.964 92.3144C147.244 92.3144 146.668 92.6024 146.236 93.1784C145.82 93.7544 145.612 94.5384 145.612 95.5304C145.612 96.5224 145.82 97.3064 146.236 97.8824C146.668 98.4584 147.244 98.7464 147.964 98.7464ZM158.596 108.034C157.428 108.034 156.484 107.618 155.764 106.786C155.06 105.938 154.708 104.826 154.708 103.45C154.708 102.074 155.06 100.97 155.764 100.138C156.484 99.2904 157.428 98.8664 158.596 98.8664C159.764 98.8664 160.708 99.2904 161.428 100.138C162.148 100.986 162.508 102.09 162.508 103.45C162.508 104.81 162.148 105.914 161.428 106.762C160.708 107.61 159.764 108.034 158.596 108.034ZM158.596 106.666C159.316 106.666 159.884 106.378 160.3 105.802C160.732 105.226 160.948 104.442 160.948 103.45C160.948 102.458 160.732 101.674 160.3 101.098C159.884 100.522 159.316 100.234 158.596 100.234C157.86 100.234 157.284 100.522 156.868 101.098C156.452 101.658 156.244 102.442 156.244 103.45C156.244 104.458 156.452 105.25 156.868 105.826C157.284 106.386 157.86 106.666 158.596 106.666Z" fill="white"/>
<path d="M122.876 29.8512C123.948 29.8512 124.924 30.0672 125.804 30.4992C126.684 30.9312 127.38 31.5472 127.892 32.3472C128.404 33.1312 128.66 34.0432 128.66 35.0832C128.66 36.2032 128.38 37.1872 127.82 38.0352C127.26 38.8832 126.492 39.5392 125.516 40.0032C124.556 40.4512 123.484 40.6752 122.3 40.6752C119.948 40.6752 118.108 39.9552 116.78 38.5152C115.452 37.0752 114.788 35.0192 114.788 32.3472C114.788 30.4432 115.148 28.8112 115.868 27.4512C116.588 26.0912 117.588 25.0592 118.868 24.3552C120.164 23.6512 121.66 23.2992 123.356 23.2992C124.252 23.2992 125.108 23.4032 125.924 23.6112C126.756 23.8032 127.46 24.0832 128.036 24.4512L126.596 27.3072C125.764 26.7472 124.716 26.4672 123.452 26.4672C122.028 26.4672 120.9 26.8832 120.068 27.7152C119.236 28.5472 118.788 29.7552 118.724 31.3392C119.716 30.3472 121.1 29.8512 122.876 29.8512ZM122.084 37.7712C122.916 37.7712 123.588 37.5472 124.1 37.0992C124.628 36.6512 124.892 36.0432 124.892 35.2752C124.892 34.5072 124.628 33.8992 124.1 33.4512C123.588 32.9872 122.9 32.7552 122.036 32.7552C121.188 32.7552 120.492 32.9952 119.948 33.4752C119.404 33.9392 119.132 34.5392 119.132 35.2752C119.132 36.0112 119.396 36.6112 119.924 37.0752C120.452 37.5392 121.172 37.7712 122.084 37.7712ZM143.127 23.5872V26.1072L136.887 40.3872H132.663L138.687 26.7552H133.119V29.4912H129.663V23.5872H143.127ZM148.722 32.6112C147.554 32.6112 146.61 32.1872 145.89 31.3392C145.17 30.4912 144.81 29.3872 144.81 28.0272C144.81 26.6672 145.17 25.5632 145.89 24.7152C146.61 23.8672 147.554 23.4432 148.722 23.4432C149.89 23.4432 150.826 23.8672 151.53 24.7152C152.25 25.5472 152.61 26.6512 152.61 28.0272C152.61 29.4032 152.25 30.5152 151.53 31.3632C150.826 32.1952 149.89 32.6112 148.722 32.6112ZM158.85 23.5872H160.698L149.226 40.3872H147.378L158.85 23.5872ZM148.722 31.2432C149.458 31.2432 150.034 30.9632 150.45 30.4032C150.866 29.8272 151.074 29.0352 151.074 28.0272C151.074 27.0192 150.866 26.2352 150.45 25.6752C150.034 25.0992 149.458 24.8112 148.722 24.8112C148.002 24.8112 147.426 25.0992 146.994 25.6752C146.578 26.2512 146.37 27.0352 146.37 28.0272C146.37 29.0192 146.578 29.8032 146.994 30.3792C147.426 30.9552 148.002 31.2432 148.722 31.2432ZM159.354 40.5312C158.186 40.5312 157.242 40.1152 156.522 39.2832C155.818 38.4352 155.466 37.3232 155.466 35.9472C155.466 34.5712 155.818 33.4672 156.522 32.6352C157.242 31.7872 158.186 31.3632 159.354 31.3632C160.522 31.3632 161.466 31.7872 162.186 32.6352C162.906 33.4832 163.266 34.5872 163.266 35.9472C163.266 37.3072 162.906 38.4112 162.186 39.2592C161.466 40.1072 160.522 40.5312 159.354 40.5312ZM159.354 39.1632C160.074 39.1632 160.642 38.8752 161.058 38.2992C161.49 37.7232 161.706 36.9392 161.706 35.9472C161.706 34.9552 161.49 34.1712 161.058 33.5952C160.642 33.0192 160.074 32.7312 159.354 32.7312C158.618 32.7312 158.042 33.0192 157.626 33.5952C157.21 34.1552 157.002 34.9392 157.002 35.9472C157.002 36.9552 157.21 37.7472 157.626 38.3232C158.042 38.8832 158.618 39.1632 159.354 39.1632Z" fill="white"/>
<path d="M1.11719 22V11.0703H4.57812C5.61979 11.0703 6.45052 11.3516 7.07031 11.9141C7.6901 12.4766 8 13.2318 8 14.1797C8 14.8151 7.84115 15.3776 7.52344 15.8672C7.20573 16.3568 6.77083 16.7135 6.21875 16.9375C5.66667 17.1562 4.875 17.2656 3.84375 17.2656H2.6875V22H1.11719ZM4.30469 12.4609H2.6875V15.875H4.39844C5.03385 15.875 5.52344 15.7266 5.86719 15.4297C6.21094 15.1276 6.38281 14.6979 6.38281 14.1406C6.38281 13.0208 5.6901 12.4609 4.30469 12.4609ZM11.0075 14.8125V16.4609L11.0856 16.3359C11.7731 15.2266 12.4606 14.6719 13.1481 14.6719C13.6846 14.6719 14.2445 14.9427 14.8278 15.4844L14.0778 16.7344C13.583 16.2656 13.1247 16.0312 12.7028 16.0312C12.2445 16.0312 11.846 16.25 11.5075 16.6875C11.1742 17.125 11.0075 17.6432 11.0075 18.2422V22H9.57781V14.8125H11.0075ZM22.2728 18.5312H17.2181C17.2546 19.2188 17.4838 19.7656 17.9056 20.1719C18.3327 20.5781 18.8822 20.7812 19.5541 20.7812C20.4916 20.7812 21.3561 20.4896 22.1478 19.9062V21.2969C21.7103 21.5885 21.2754 21.7969 20.8431 21.9219C20.416 22.0469 19.9134 22.1094 19.3353 22.1094C18.5436 22.1094 17.903 21.9453 17.4134 21.6172C16.9239 21.2891 16.5306 20.849 16.2338 20.2969C15.9421 19.7396 15.7963 19.0964 15.7963 18.3672C15.7963 17.2734 16.1061 16.3854 16.7259 15.7031C17.3457 15.0156 18.1504 14.6719 19.14 14.6719C20.0931 14.6719 20.8535 15.0052 21.4213 15.6719C21.989 16.3385 22.2728 17.2318 22.2728 18.3516V18.5312ZM17.2494 17.6797H20.8666C20.8301 17.112 20.6608 16.6745 20.3588 16.3672C20.0567 16.0599 19.6504 15.9062 19.14 15.9062C18.6296 15.9062 18.2103 16.0599 17.8822 16.3672C17.5593 16.6745 17.3483 17.112 17.2494 17.6797ZM28.9366 11.0859H30.3662V22H27.3272C26.2647 22 25.4157 21.6641 24.7803 20.9922C24.1501 20.3203 23.835 19.4193 23.835 18.2891C23.835 17.2318 24.1657 16.362 24.8272 15.6797C25.4939 14.9974 26.3428 14.6562 27.3741 14.6562C27.8532 14.6562 28.3741 14.7578 28.9366 14.9609V11.0859ZM28.9366 20.7812V16.2266C28.4939 16.0026 28.0459 15.8906 27.5928 15.8906C26.8845 15.8906 26.3194 16.1224 25.8975 16.5859C25.4808 17.0495 25.2725 17.6745 25.2725 18.4609C25.2725 19.2005 25.4548 19.7708 25.8194 20.1719C26.0381 20.4115 26.2699 20.5729 26.5147 20.6562C26.7595 20.7396 27.1996 20.7812 27.835 20.7812H28.9366ZM33.3503 11.7891C33.5847 11.7891 33.7852 11.8698 33.9519 12.0312C34.1185 12.1927 34.2019 12.3906 34.2019 12.625C34.2019 12.8542 34.1185 13.0521 33.9519 13.2188C33.7852 13.3854 33.5847 13.4688 33.3503 13.4688C33.1316 13.4688 32.9389 13.3854 32.7722 13.2188C32.6055 13.0469 32.5222 12.849 32.5222 12.625C32.5222 12.4062 32.6055 12.2135 32.7722 12.0469C32.9389 11.875 33.1316 11.7891 33.3503 11.7891ZM32.6472 14.8125H34.0691V22H32.6472V14.8125ZM41.8422 20.3203V21.7266C41.1286 21.9922 40.4307 22.125 39.7484 22.125C38.6234 22.125 37.725 21.7917 37.0531 21.125C36.3865 20.4583 36.0531 19.5651 36.0531 18.4453C36.0531 17.3151 36.3786 16.4036 37.0297 15.7109C37.6807 15.0182 38.5375 14.6719 39.6 14.6719C39.9698 14.6719 40.3005 14.7083 40.5922 14.7812C40.8891 14.849 41.2536 14.9792 41.6859 15.1719V16.6875C40.9672 16.2292 40.3005 16 39.6859 16C39.0453 16 38.5193 16.2266 38.1078 16.6797C37.6964 17.1276 37.4906 17.7005 37.4906 18.3984C37.4906 19.1328 37.712 19.7161 38.1547 20.1484C38.6026 20.5807 39.2042 20.7969 39.9594 20.7969C40.5062 20.7969 41.1339 20.638 41.8422 20.3203ZM42.7794 15.9531L45.4512 13.3281V14.8125H47.7247V16.0938H45.4512V19.6172C45.4512 20.4401 45.7924 20.8516 46.4747 20.8516C46.9851 20.8516 47.5242 20.6797 48.0919 20.3359V21.6641C47.545 21.9714 46.9486 22.125 46.3028 22.125C45.6518 22.125 45.1101 21.9349 44.6778 21.5547C44.5424 21.4401 44.4304 21.3125 44.3419 21.1719C44.2533 21.026 44.1778 20.8385 44.1153 20.6094C44.058 20.375 44.0294 19.9323 44.0294 19.2812V16.0938H42.7794V15.9531ZM50.1697 11.7891C50.4041 11.7891 50.6046 11.8698 50.7713 12.0312C50.9379 12.1927 51.0213 12.3906 51.0213 12.625C51.0213 12.8542 50.9379 13.0521 50.7713 13.2188C50.6046 13.3854 50.4041 13.4688 50.1697 13.4688C49.9509 13.4688 49.7582 13.3854 49.5916 13.2188C49.4249 13.0469 49.3416 12.849 49.3416 12.625C49.3416 12.4062 49.4249 12.2135 49.5916 12.0469C49.7582 11.875 49.9509 11.7891 50.1697 11.7891ZM49.4666 14.8125H50.8884V22H49.4666V14.8125ZM54.6928 14.8125V15.7266C55.3282 15.0234 56.0496 14.6719 56.8569 14.6719C57.3048 14.6719 57.7215 14.7891 58.1069 15.0234C58.4923 15.2526 58.784 15.5703 58.9819 15.9766C59.185 16.3776 59.2866 17.0156 59.2866 17.8906V22H57.8647V17.9062C57.8647 17.1719 57.7527 16.6484 57.5288 16.3359C57.3048 16.0182 56.9298 15.8594 56.4038 15.8594C55.7319 15.8594 55.1616 16.1953 54.6928 16.8672V22H53.2397V14.8125H54.6928ZM61.2238 17.2969C61.2238 16.5312 61.5024 15.9271 62.0597 15.4844C62.6222 15.0365 63.3878 14.8125 64.3566 14.8125H67.3175V15.9219H65.8644C66.1456 16.2083 66.3409 16.4688 66.4503 16.7031C66.5597 16.9375 66.6144 17.2057 66.6144 17.5078C66.6144 17.8828 66.5076 18.2526 66.2941 18.6172C66.0805 18.9766 65.8045 19.2526 65.4659 19.4453C65.1326 19.638 64.5831 19.7917 63.8175 19.9062C63.281 19.9844 63.0128 20.1693 63.0128 20.4609C63.0128 20.6276 63.1118 20.7656 63.3097 20.875C63.5128 20.9792 63.8774 21.0885 64.4034 21.2031C65.2836 21.3958 65.8488 21.5469 66.0988 21.6562C66.354 21.7656 66.5831 21.9219 66.7863 22.125C67.13 22.4688 67.3019 22.901 67.3019 23.4219C67.3019 24.1042 66.9972 24.6484 66.3878 25.0547C65.7836 25.4609 64.9738 25.6641 63.9581 25.6641C62.9321 25.6641 62.1118 25.4583 61.4972 25.0469C60.8878 24.6406 60.5831 24.0938 60.5831 23.4062C60.5831 22.4323 61.1847 21.8047 62.3878 21.5234C61.9086 21.2161 61.6691 20.9115 61.6691 20.6094C61.6691 20.3802 61.7706 20.1719 61.9738 19.9844C62.1821 19.7969 62.4607 19.6589 62.8097 19.5703C61.7524 19.1016 61.2238 18.3438 61.2238 17.2969ZM63.8956 16.0469C63.5102 16.0469 63.1821 16.1771 62.9113 16.4375C62.6404 16.6979 62.505 17.0104 62.505 17.375C62.505 17.7448 62.6378 18.0521 62.9034 18.2969C63.1691 18.5365 63.505 18.6562 63.9113 18.6562C64.3123 18.6562 64.6456 18.5339 64.9113 18.2891C65.1821 18.0391 65.3175 17.7292 65.3175 17.3594C65.3175 16.9844 65.1821 16.6719 64.9113 16.4219C64.6404 16.1719 64.3019 16.0469 63.8956 16.0469ZM63.5597 22.3359C63.0805 22.3359 62.6873 22.4375 62.38 22.6406C62.0779 22.8438 61.9269 23.1042 61.9269 23.4219C61.9269 24.1615 62.5935 24.5312 63.9269 24.5312C64.5571 24.5312 65.0441 24.4375 65.3878 24.25C65.7368 24.0677 65.9113 23.8073 65.9113 23.4688C65.9113 23.1354 65.6925 22.862 65.255 22.6484C64.8175 22.4401 64.2524 22.3359 63.5597 22.3359ZM5.52344 35.6797V38.7344C5.52344 38.9792 5.60677 39.1016 5.77344 39.1016C5.94531 39.1016 6.21354 38.974 6.57812 38.7188V39.5859C6.25521 39.7943 5.99479 39.9349 5.79688 40.0078C5.60417 40.0859 5.40104 40.125 5.1875 40.125C4.57812 40.125 4.21875 39.8854 4.10938 39.4062C3.50521 39.875 2.86198 40.1094 2.17969 40.1094C1.67969 40.1094 1.26302 39.9453 0.929688 39.6172C0.596354 39.2839 0.429688 38.8672 0.429688 38.3672C0.429688 37.9141 0.591146 37.5104 0.914062 37.1562C1.24219 36.7969 1.70573 36.513 2.30469 36.3047L4.125 35.6797V35.2969C4.125 34.4323 3.69271 34 2.82812 34C2.05208 34 1.29688 34.401 0.5625 35.2031V33.6484C1.11458 32.9974 1.90885 32.6719 2.94531 32.6719C3.72135 32.6719 4.34375 32.875 4.8125 33.2812C4.96875 33.4115 5.10938 33.5859 5.23438 33.8047C5.35938 34.0182 5.4375 34.2344 5.46875 34.4531C5.50521 34.6667 5.52344 35.0755 5.52344 35.6797ZM4.125 38.5781V36.4453L3.17188 36.8125C2.6875 37.0052 2.34375 37.2005 2.14062 37.3984C1.94271 37.5911 1.84375 37.8333 1.84375 38.125C1.84375 38.4219 1.9375 38.6641 2.125 38.8516C2.31771 39.0391 2.5651 39.1328 2.86719 39.1328C3.32031 39.1328 3.73958 38.9479 4.125 38.5781ZM7.14813 33.9531L9.82 31.3281V32.8125H12.0934V34.0938H9.82V37.6172C9.82 38.4401 10.1611 38.8516 10.8434 38.8516C11.3539 38.8516 11.8929 38.6797 12.4606 38.3359V39.6641C11.9138 39.9714 11.3174 40.125 10.6716 40.125C10.0205 40.125 9.47885 39.9349 9.04656 39.5547C8.91115 39.4401 8.79917 39.3125 8.71063 39.1719C8.62208 39.026 8.54656 38.8385 8.48406 38.6094C8.42677 38.375 8.39813 37.9323 8.39813 37.2812V34.0938H7.14813V33.9531ZM12.7963 33.9531L15.4681 31.3281V32.8125H17.7416V34.0938H15.4681V37.6172C15.4681 38.4401 15.8093 38.8516 16.4916 38.8516C17.002 38.8516 17.541 38.6797 18.1088 38.3359V39.6641C17.5619 39.9714 16.9655 40.125 16.3197 40.125C15.6686 40.125 15.127 39.9349 14.6947 39.5547C14.5593 39.4401 14.4473 39.3125 14.3588 39.1719C14.2702 39.026 14.1947 38.8385 14.1322 38.6094C14.0749 38.375 14.0463 37.9323 14.0463 37.2812V34.0938H12.7963V33.9531ZM25.5772 36.5312H20.5225C20.559 37.2188 20.7881 37.7656 21.21 38.1719C21.6371 38.5781 22.1866 38.7812 22.8584 38.7812C23.7959 38.7812 24.6605 38.4896 25.4522 37.9062V39.2969C25.0147 39.5885 24.5798 39.7969 24.1475 39.9219C23.7204 40.0469 23.2178 40.1094 22.6397 40.1094C21.848 40.1094 21.2074 39.9453 20.7178 39.6172C20.2282 39.2891 19.835 38.849 19.5381 38.2969C19.2465 37.7396 19.1006 37.0964 19.1006 36.3672C19.1006 35.2734 19.4105 34.3854 20.0303 33.7031C20.6501 33.0156 21.4548 32.6719 22.4444 32.6719C23.3975 32.6719 24.1579 33.0052 24.7256 33.6719C25.2933 34.3385 25.5772 35.2318 25.5772 36.3516V36.5312ZM20.5537 35.6797H24.1709C24.1345 35.112 23.9652 34.6745 23.6631 34.3672C23.361 34.0599 22.9548 33.9062 22.4444 33.9062C21.934 33.9062 21.5147 34.0599 21.1866 34.3672C20.8636 34.6745 20.6527 35.112 20.5537 35.6797ZM28.8659 32.8125V33.7266C29.5014 33.0234 30.2227 32.6719 31.03 32.6719C31.4779 32.6719 31.8946 32.7891 32.28 33.0234C32.6654 33.2526 32.9571 33.5703 33.155 33.9766C33.3581 34.3776 33.4597 35.0156 33.4597 35.8906V40H32.0378V35.9062C32.0378 35.1719 31.9258 34.6484 31.7019 34.3359C31.4779 34.0182 31.1029 33.8594 30.5769 33.8594C29.905 33.8594 29.3347 34.1953 28.8659 34.8672V40H27.4128V32.8125H28.8659ZM40.5609 29.0859H41.9906V40H38.9516C37.8891 40 37.0401 39.6641 36.4047 38.9922C35.7745 38.3203 35.4594 37.4193 35.4594 36.2891C35.4594 35.2318 35.7901 34.362 36.4516 33.6797C37.1182 32.9974 37.9672 32.6562 38.9984 32.6562C39.4776 32.6562 39.9984 32.7578 40.5609 32.9609V29.0859ZM40.5609 38.7812V34.2266C40.1182 34.0026 39.6703 33.8906 39.2172 33.8906C38.5089 33.8906 37.9437 34.1224 37.5219 34.5859C37.1052 35.0495 36.8969 35.6745 36.8969 36.4609C36.8969 37.2005 37.0792 37.7708 37.4437 38.1719C37.6625 38.4115 37.8943 38.5729 38.1391 38.6562C38.3839 38.7396 38.824 38.7812 39.4594 38.7812H40.5609ZM48.7559 35.6797V38.7344C48.7559 38.9792 48.8393 39.1016 49.0059 39.1016C49.1778 39.1016 49.446 38.974 49.8106 38.7188V39.5859C49.4877 39.7943 49.2273 39.9349 49.0294 40.0078C48.8367 40.0859 48.6335 40.125 48.42 40.125C47.8106 40.125 47.4512 39.8854 47.3419 39.4062C46.7377 39.875 46.0945 40.1094 45.4122 40.1094C44.9122 40.1094 44.4955 39.9453 44.1622 39.6172C43.8289 39.2839 43.6622 38.8672 43.6622 38.3672C43.6622 37.9141 43.8236 37.5104 44.1466 37.1562C44.4747 36.7969 44.9382 36.513 45.5372 36.3047L47.3575 35.6797V35.2969C47.3575 34.4323 46.9252 34 46.0606 34C45.2846 34 44.5294 34.401 43.795 35.2031V33.6484C44.3471 32.9974 45.1414 32.6719 46.1778 32.6719C46.9539 32.6719 47.5762 32.875 48.045 33.2812C48.2012 33.4115 48.3419 33.5859 48.4669 33.8047C48.5919 34.0182 48.67 34.2344 48.7012 34.4531C48.7377 34.6667 48.7559 35.0755 48.7559 35.6797ZM47.3575 38.5781V36.4453L46.4044 36.8125C45.92 37.0052 45.5762 37.2005 45.3731 37.3984C45.1752 37.5911 45.0762 37.8333 45.0762 38.125C45.0762 38.4219 45.17 38.6641 45.3575 38.8516C45.5502 39.0391 45.7976 39.1328 46.0997 39.1328C46.5528 39.1328 46.9721 38.9479 47.3575 38.5781ZM52.8103 32.8125V33.7266C53.4457 33.0234 54.1671 32.6719 54.9744 32.6719C55.4223 32.6719 55.839 32.7891 56.2244 33.0234C56.6098 33.2526 56.9015 33.5703 57.0994 33.9766C57.3025 34.3776 57.4041 35.0156 57.4041 35.8906V40H55.9822V35.9062C55.9822 35.1719 55.8702 34.6484 55.6463 34.3359C55.4223 34.0182 55.0473 33.8594 54.5213 33.8594C53.8494 33.8594 53.2791 34.1953 52.8103 34.8672V40H51.3572V32.8125H52.8103ZM65.0991 38.3203V39.7266C64.3855 39.9922 63.6876 40.125 63.0053 40.125C61.8803 40.125 60.9819 39.7917 60.31 39.125C59.6433 38.4583 59.31 37.5651 59.31 36.4453C59.31 35.3151 59.6355 34.4036 60.2866 33.7109C60.9376 33.0182 61.7944 32.6719 62.8569 32.6719C63.2267 32.6719 63.5574 32.7083 63.8491 32.7812C64.1459 32.849 64.5105 32.9792 64.9428 33.1719V34.6875C64.2241 34.2292 63.5574 34 62.9428 34C62.3022 34 61.7761 34.2266 61.3647 34.6797C60.9532 35.1276 60.7475 35.7005 60.7475 36.3984C60.7475 37.1328 60.9689 37.7161 61.4116 38.1484C61.8595 38.5807 62.461 38.7969 63.2163 38.7969C63.7631 38.7969 64.3907 38.638 65.0991 38.3203ZM73.1691 36.5312H68.1144C68.1508 37.2188 68.38 37.7656 68.8019 38.1719C69.229 38.5781 69.7784 38.7812 70.4503 38.7812C71.3878 38.7812 72.2524 38.4896 73.0441 37.9062V39.2969C72.6066 39.5885 72.1717 39.7969 71.7394 39.9219C71.3123 40.0469 70.8097 40.1094 70.2316 40.1094C69.4399 40.1094 68.7993 39.9453 68.3097 39.6172C67.8201 39.2891 67.4269 38.849 67.13 38.2969C66.8383 37.7396 66.6925 37.0964 66.6925 36.3672C66.6925 35.2734 67.0024 34.3854 67.6222 33.7031C68.242 33.0156 69.0467 32.6719 70.0362 32.6719C70.9894 32.6719 71.7498 33.0052 72.3175 33.6719C72.8852 34.3385 73.1691 35.2318 73.1691 36.3516V36.5312ZM68.1456 35.6797H71.7628C71.7264 35.112 71.5571 34.6745 71.255 34.3672C70.9529 34.0599 70.5467 33.9062 70.0362 33.9062C69.5258 33.9062 69.1066 34.0599 68.7784 34.3672C68.4555 34.6745 68.2446 35.112 68.1456 35.6797Z" fill="black"/>
<path d="M1.21875 78.5891H7.03906V79.9797H2.78125V83.0266H7.03906V84.4172H2.78125V89.5032H1.21875V78.5891ZM14.9684 86.0344H9.91375C9.95021 86.7219 10.1794 87.2688 10.6013 87.675C11.0283 88.0813 11.5778 88.2844 12.2497 88.2844C13.1872 88.2844 14.0518 87.9928 14.8434 87.4094V88.8C14.4059 89.0917 13.971 89.3 13.5388 89.425C13.1117 89.55 12.6091 89.6125 12.0309 89.6125C11.2393 89.6125 10.5986 89.4485 10.1091 89.1204C9.61948 88.7922 9.22625 88.3521 8.92938 87.8C8.63771 87.2428 8.49188 86.5995 8.49188 85.8704C8.49188 84.7766 8.80177 83.8886 9.42156 83.2063C10.0414 82.5188 10.846 82.175 11.8356 82.175C12.7888 82.175 13.5492 82.5084 14.1169 83.175C14.6846 83.8417 14.9684 84.7349 14.9684 85.8547V86.0344ZM9.945 85.1829H13.5622C13.5257 84.6152 13.3565 84.1777 13.0544 83.8704C12.7523 83.5631 12.346 83.4094 11.8356 83.4094C11.3252 83.4094 10.9059 83.5631 10.5778 83.8704C10.2549 84.1777 10.044 84.6152 9.945 85.1829ZM22.9603 86.0344H17.9056C17.9421 86.7219 18.1713 87.2688 18.5931 87.675C19.0202 88.0813 19.5697 88.2844 20.2416 88.2844C21.1791 88.2844 22.0436 87.9928 22.8353 87.4094V88.8C22.3978 89.0917 21.9629 89.3 21.5306 89.425C21.1035 89.55 20.6009 89.6125 20.0228 89.6125C19.2311 89.6125 18.5905 89.4485 18.1009 89.1204C17.6114 88.7922 17.2181 88.3521 16.9213 87.8C16.6296 87.2428 16.4838 86.5995 16.4838 85.8704C16.4838 84.7766 16.7936 83.8886 17.4134 83.2063C18.0332 82.5188 18.8379 82.175 19.8275 82.175C20.7806 82.175 21.541 82.5084 22.1088 83.175C22.6765 83.8417 22.9603 84.7349 22.9603 85.8547V86.0344ZM17.9369 85.1829H21.5541C21.5176 84.6152 21.3483 84.1777 21.0463 83.8704C20.7442 83.5631 20.3379 83.4094 19.8275 83.4094C19.3171 83.4094 18.8978 83.5631 18.5697 83.8704C18.2468 84.1777 18.0358 84.6152 17.9369 85.1829ZM24.8584 78.5891H26.2803V89.5032H24.8584V78.5891ZM29.3972 79.2922C29.6316 79.2922 29.8321 79.373 29.9988 79.5344C30.1654 79.6959 30.2488 79.8938 30.2488 80.1282C30.2488 80.3573 30.1654 80.5553 29.9988 80.7219C29.8321 80.8886 29.6316 80.9719 29.3972 80.9719C29.1784 80.9719 28.9857 80.8886 28.8191 80.7219C28.6524 80.55 28.5691 80.3521 28.5691 80.1282C28.5691 79.9094 28.6524 79.7167 28.8191 79.55C28.9857 79.3782 29.1784 79.2922 29.3972 79.2922ZM28.6941 82.3157H30.1159V89.5032H28.6941V82.3157ZM33.9203 82.3157V83.2297C34.5557 82.5266 35.2771 82.175 36.0844 82.175C36.5323 82.175 36.949 82.2922 37.3344 82.5266C37.7198 82.7558 38.0115 83.0735 38.2094 83.4797C38.4125 83.8808 38.5141 84.5188 38.5141 85.3938V89.5032H37.0922V85.4094C37.0922 84.675 36.9802 84.1516 36.7563 83.8391C36.5323 83.5214 36.1573 83.3625 35.6313 83.3625C34.9594 83.3625 34.3891 83.6985 33.9203 84.3704V89.5032H32.4672V82.3157H33.9203ZM40.4512 84.8C40.4512 84.0344 40.7299 83.4303 41.2872 82.9875C41.8497 82.5396 42.6153 82.3157 43.5841 82.3157H46.545V83.425H45.0919C45.3731 83.7115 45.5684 83.9719 45.6778 84.2063C45.7872 84.4407 45.8419 84.7089 45.8419 85.011C45.8419 85.386 45.7351 85.7558 45.5216 86.1204C45.308 86.4797 45.032 86.7558 44.6934 86.9485C44.3601 87.1412 43.8106 87.2948 43.045 87.4094C42.5085 87.4875 42.2403 87.6724 42.2403 87.9641C42.2403 88.1308 42.3393 88.2688 42.5372 88.3782C42.7403 88.4823 43.1049 88.5917 43.6309 88.7063C44.5111 88.899 45.0762 89.05 45.3262 89.1594C45.5815 89.2688 45.8106 89.425 46.0137 89.6282C46.3575 89.9719 46.5294 90.4042 46.5294 90.925C46.5294 91.6073 46.2247 92.1516 45.6153 92.5579C45.0111 92.9641 44.2012 93.1672 43.1856 93.1672C42.1596 93.1672 41.3393 92.9615 40.7247 92.55C40.1153 92.1438 39.8106 91.5969 39.8106 90.9094C39.8106 89.9355 40.4122 89.3079 41.6153 89.0266C41.1361 88.7193 40.8966 88.4146 40.8966 88.1125C40.8966 87.8834 40.9981 87.675 41.2012 87.4875C41.4096 87.3 41.6882 87.162 42.0372 87.0735C40.9799 86.6047 40.4512 85.8469 40.4512 84.8ZM43.1231 83.55C42.7377 83.55 42.4096 83.6803 42.1387 83.9407C41.8679 84.2011 41.7325 84.5136 41.7325 84.8782C41.7325 85.248 41.8653 85.5553 42.1309 85.8C42.3966 86.0396 42.7325 86.1594 43.1387 86.1594C43.5398 86.1594 43.8731 86.037 44.1387 85.7922C44.4096 85.5422 44.545 85.2323 44.545 84.8625C44.545 84.4875 44.4096 84.175 44.1387 83.925C43.8679 83.675 43.5294 83.55 43.1231 83.55ZM42.7872 89.8391C42.308 89.8391 41.9148 89.9407 41.6075 90.1438C41.3054 90.3469 41.1544 90.6073 41.1544 90.925C41.1544 91.6646 41.821 92.0344 43.1544 92.0344C43.7846 92.0344 44.2716 91.9407 44.6153 91.7532C44.9643 91.5709 45.1387 91.3105 45.1387 90.9719C45.1387 90.6386 44.92 90.3652 44.4825 90.1516C44.045 89.9433 43.4799 89.8391 42.7872 89.8391ZM5.80469 96.5891H7.23438V107.503H4.19531C3.13281 107.503 2.28385 107.167 1.64844 106.495C1.01823 105.823 0.703125 104.922 0.703125 103.792C0.703125 102.735 1.03385 101.865 1.69531 101.183C2.36198 100.501 3.21094 100.159 4.24219 100.159C4.72135 100.159 5.24219 100.261 5.80469 100.464V96.5891ZM5.80469 106.284V101.73C5.36198 101.506 4.91406 101.394 4.46094 101.394C3.7526 101.394 3.1875 101.626 2.76562 102.089C2.34896 102.553 2.14062 103.178 2.14062 103.964C2.14062 104.704 2.32292 105.274 2.6875 105.675C2.90625 105.915 3.13802 106.076 3.38281 106.159C3.6276 106.243 4.06771 106.284 4.70312 106.284H5.80469ZM10.2184 97.2922C10.4528 97.2922 10.6533 97.373 10.82 97.5344C10.9867 97.6959 11.07 97.8938 11.07 98.1282C11.07 98.3573 10.9867 98.5553 10.82 98.7219C10.6533 98.8886 10.4528 98.9719 10.2184 98.9719C9.99969 98.9719 9.80698 98.8886 9.64031 98.7219C9.47365 98.55 9.39031 98.3521 9.39031 98.1282C9.39031 97.9094 9.47365 97.7167 9.64031 97.55C9.80698 97.3782 9.99969 97.2922 10.2184 97.2922ZM9.51531 100.316H10.9372V107.503H9.51531V100.316ZM12.9681 106.988V105.456C13.3692 105.738 13.778 105.967 14.1947 106.144C14.6166 106.316 14.9707 106.402 15.2572 106.402C15.5541 106.402 15.8093 106.329 16.0228 106.183C16.2364 106.037 16.3431 105.863 16.3431 105.659C16.3431 105.451 16.2728 105.279 16.1322 105.144C15.9968 105.003 15.6999 104.803 15.2416 104.542C14.3249 104.032 13.7233 103.597 13.4369 103.238C13.1556 102.873 13.015 102.477 13.015 102.05C13.015 101.498 13.2285 101.047 13.6556 100.698C14.0879 100.35 14.6426 100.175 15.3197 100.175C16.0228 100.175 16.7442 100.373 17.4838 100.769V102.175C16.64 101.665 15.9499 101.409 15.4134 101.409C15.1374 101.409 14.9134 101.469 14.7416 101.589C14.5749 101.704 14.4916 101.857 14.4916 102.05C14.4916 102.217 14.5671 102.376 14.7181 102.527C14.8744 102.678 15.1452 102.86 15.5306 103.073L16.0384 103.363C17.2364 104.04 17.8353 104.79 17.8353 105.613C17.8353 106.201 17.6035 106.685 17.14 107.066C16.6817 107.441 16.0905 107.628 15.3666 107.628C14.9395 107.628 14.5593 107.584 14.2259 107.495C13.8926 107.402 13.4733 107.232 12.9681 106.988ZM23.2334 100.3C24.3272 100.3 25.236 100.654 25.96 101.363C26.684 102.066 27.0459 102.951 27.0459 104.019C27.0459 105.055 26.6787 105.917 25.9444 106.605C25.21 107.287 24.2855 107.628 23.1709 107.628C22.0928 107.628 21.1918 107.282 20.4678 106.589C19.7439 105.891 19.3819 105.021 19.3819 103.98C19.3819 102.928 19.7465 102.053 20.4756 101.355C21.21 100.652 22.1293 100.3 23.2334 100.3ZM23.1553 101.581C22.473 101.581 21.9131 101.805 21.4756 102.253C21.0381 102.701 20.8194 103.271 20.8194 103.964C20.8194 104.652 21.0433 105.214 21.4912 105.652C21.9392 106.084 22.5147 106.3 23.2178 106.3C23.9157 106.3 24.486 106.081 24.9287 105.644C25.3767 105.201 25.6006 104.636 25.6006 103.948C25.6006 103.266 25.3689 102.701 24.9053 102.253C24.4418 101.805 23.8584 101.581 23.1553 101.581ZM30.4675 100.316V101.964L30.5456 101.839C31.2331 100.73 31.9206 100.175 32.6081 100.175C33.1446 100.175 33.7045 100.446 34.2878 100.988L33.5378 102.238C33.043 101.769 32.5847 101.534 32.1628 101.534C31.7045 101.534 31.306 101.753 30.9675 102.191C30.6342 102.628 30.4675 103.146 30.4675 103.745V107.503H29.0378V100.316H30.4675ZM35.2406 102.8C35.2406 102.034 35.5193 101.43 36.0766 100.988C36.6391 100.54 37.4047 100.316 38.3734 100.316H41.3344V101.425H39.8812C40.1625 101.712 40.3578 101.972 40.4672 102.206C40.5766 102.441 40.6312 102.709 40.6312 103.011C40.6312 103.386 40.5245 103.756 40.3109 104.12C40.0974 104.48 39.8214 104.756 39.4828 104.948C39.1495 105.141 38.6 105.295 37.8344 105.409C37.2979 105.488 37.0297 105.672 37.0297 105.964C37.0297 106.131 37.1286 106.269 37.3266 106.378C37.5297 106.482 37.8943 106.592 38.4203 106.706C39.3005 106.899 39.8656 107.05 40.1156 107.159C40.3708 107.269 40.6 107.425 40.8031 107.628C41.1469 107.972 41.3187 108.404 41.3187 108.925C41.3187 109.607 41.0141 110.152 40.4047 110.558C39.8005 110.964 38.9906 111.167 37.975 111.167C36.949 111.167 36.1286 110.962 35.5141 110.55C34.9047 110.144 34.6 109.597 34.6 108.909C34.6 107.935 35.2016 107.308 36.4047 107.027C35.9255 106.719 35.6859 106.415 35.6859 106.113C35.6859 105.883 35.7875 105.675 35.9906 105.488C36.199 105.3 36.4776 105.162 36.8266 105.073C35.7693 104.605 35.2406 103.847 35.2406 102.8ZM37.9125 101.55C37.5271 101.55 37.199 101.68 36.9281 101.941C36.6573 102.201 36.5219 102.514 36.5219 102.878C36.5219 103.248 36.6547 103.555 36.9203 103.8C37.1859 104.04 37.5219 104.159 37.9281 104.159C38.3292 104.159 38.6625 104.037 38.9281 103.792C39.199 103.542 39.3344 103.232 39.3344 102.863C39.3344 102.488 39.199 102.175 38.9281 101.925C38.6573 101.675 38.3187 101.55 37.9125 101.55ZM37.5766 107.839C37.0974 107.839 36.7042 107.941 36.3969 108.144C36.0948 108.347 35.9437 108.607 35.9437 108.925C35.9437 109.665 36.6104 110.034 37.9437 110.034C38.574 110.034 39.0609 109.941 39.4047 109.753C39.7536 109.571 39.9281 109.31 39.9281 108.972C39.9281 108.639 39.7094 108.365 39.2719 108.152C38.8344 107.943 38.2693 107.839 37.5766 107.839ZM47.2716 103.183V106.238C47.2716 106.482 47.3549 106.605 47.5216 106.605C47.6934 106.605 47.9617 106.477 48.3262 106.222V107.089C48.0033 107.297 47.7429 107.438 47.545 107.511C47.3523 107.589 47.1492 107.628 46.9356 107.628C46.3262 107.628 45.9669 107.389 45.8575 106.909C45.2533 107.378 44.6101 107.613 43.9278 107.613C43.4278 107.613 43.0111 107.448 42.6778 107.12C42.3445 106.787 42.1778 106.37 42.1778 105.87C42.1778 105.417 42.3393 105.014 42.6622 104.659C42.9903 104.3 43.4539 104.016 44.0528 103.808L45.8731 103.183V102.8C45.8731 101.935 45.4408 101.503 44.5762 101.503C43.8002 101.503 43.045 101.904 42.3106 102.706V101.152C42.8627 100.501 43.657 100.175 44.6934 100.175C45.4695 100.175 46.0919 100.378 46.5606 100.784C46.7169 100.915 46.8575 101.089 46.9825 101.308C47.1075 101.521 47.1856 101.738 47.2169 101.956C47.2533 102.17 47.2716 102.579 47.2716 103.183ZM45.8731 106.081V103.948L44.92 104.316C44.4356 104.508 44.0919 104.704 43.8887 104.902C43.6908 105.094 43.5919 105.337 43.5919 105.628C43.5919 105.925 43.6856 106.167 43.8731 106.355C44.0658 106.542 44.3132 106.636 44.6153 106.636C45.0684 106.636 45.4877 106.451 45.8731 106.081ZM51.3259 100.316V101.23C51.9614 100.527 52.6827 100.175 53.49 100.175C53.9379 100.175 54.3546 100.292 54.74 100.527C55.1254 100.756 55.4171 101.073 55.615 101.48C55.8181 101.881 55.9197 102.519 55.9197 103.394V107.503H54.4978V103.409C54.4978 102.675 54.3858 102.152 54.1619 101.839C53.9379 101.521 53.5629 101.363 53.0369 101.363C52.365 101.363 51.7947 101.698 51.3259 102.37V107.503H49.8728V100.316H51.3259ZM58.9584 97.2922C59.1928 97.2922 59.3933 97.373 59.56 97.5344C59.7267 97.6959 59.81 97.8938 59.81 98.1282C59.81 98.3573 59.7267 98.5553 59.56 98.7219C59.3933 98.8886 59.1928 98.9719 58.9584 98.9719C58.7397 98.9719 58.547 98.8886 58.3803 98.7219C58.2136 98.55 58.1303 98.3521 58.1303 98.1282C58.1303 97.9094 58.2136 97.7167 58.3803 97.55C58.547 97.3782 58.7397 97.2922 58.9584 97.2922ZM58.2553 100.316H59.6772V107.503H58.2553V100.316ZM61.3878 100.316H67.5284L63.7238 106.175H67.5284V107.503H61.2316L65.005 101.644H61.3878V100.316ZM75.1766 104.034H70.1219C70.1583 104.722 70.3875 105.269 70.8094 105.675C71.2365 106.081 71.7859 106.284 72.4578 106.284C73.3953 106.284 74.2599 105.993 75.0516 105.409V106.8C74.6141 107.092 74.1792 107.3 73.7469 107.425C73.3198 107.55 72.8172 107.613 72.2391 107.613C71.4474 107.613 70.8068 107.448 70.3172 107.12C69.8276 106.792 69.4344 106.352 69.1375 105.8C68.8458 105.243 68.7 104.6 68.7 103.87C68.7 102.777 69.0099 101.889 69.6297 101.206C70.2495 100.519 71.0542 100.175 72.0437 100.175C72.9969 100.175 73.7573 100.508 74.325 101.175C74.8927 101.842 75.1766 102.735 75.1766 103.855V104.034ZM70.1531 103.183H73.7703C73.7339 102.615 73.5646 102.178 73.2625 101.87C72.9604 101.563 72.5542 101.409 72.0437 101.409C71.5333 101.409 71.1141 101.563 70.7859 101.87C70.463 102.178 70.2521 102.615 70.1531 103.183ZM81.8403 96.5891H83.27V107.503H80.2309C79.1684 107.503 78.3195 107.167 77.6841 106.495C77.0539 105.823 76.7387 104.922 76.7387 103.792C76.7387 102.735 77.0695 101.865 77.7309 101.183C78.3976 100.501 79.2466 100.159 80.2778 100.159C80.757 100.159 81.2778 100.261 81.8403 100.464V96.5891ZM81.8403 106.284V101.73C81.3976 101.506 80.9497 101.394 80.4966 101.394C79.7882 101.394 79.2231 101.626 78.8012 102.089C78.3846 102.553 78.1762 103.178 78.1762 103.964C78.1762 104.704 78.3585 105.274 78.7231 105.675C78.9419 105.915 79.1736 106.076 79.4184 106.159C79.6632 106.243 80.1033 106.284 80.7387 106.284H81.8403Z" fill="black"/>
<path d="M3.90625 152.428L2.71875 151.709C1.97396 151.256 1.44271 150.811 1.125 150.374C0.8125 149.931 0.65625 149.423 0.65625 148.85C0.65625 147.991 0.953125 147.293 1.54688 146.756C2.14583 146.22 2.92188 145.952 3.875 145.952C4.78646 145.952 5.6224 146.207 6.38281 146.717V148.491C5.59635 147.736 4.75 147.358 3.84375 147.358C3.33333 147.358 2.91406 147.478 2.58594 147.717C2.25781 147.952 2.09375 148.254 2.09375 148.624C2.09375 148.952 2.21354 149.259 2.45312 149.545C2.69271 149.832 3.08073 150.131 3.61719 150.444L4.8125 151.147C6.14583 151.939 6.8125 152.949 6.8125 154.178C6.8125 155.053 6.51823 155.764 5.92969 156.311C5.34635 156.858 4.58594 157.131 3.64844 157.131C2.57031 157.131 1.58854 156.801 0.703125 156.139V154.155C1.54688 155.222 2.52344 155.756 3.63281 155.756C4.1224 155.756 4.52865 155.621 4.85156 155.35C5.17969 155.074 5.34375 154.73 5.34375 154.319C5.34375 153.652 4.86458 153.022 3.90625 152.428ZM14.7809 153.538H9.72625C9.76271 154.225 9.99188 154.772 10.4138 155.178C10.8408 155.584 11.3903 155.788 12.0622 155.788C12.9997 155.788 13.8643 155.496 14.6559 154.913V156.303C14.2184 156.595 13.7835 156.803 13.3513 156.928C12.9242 157.053 12.4216 157.116 11.8434 157.116C11.0518 157.116 10.4111 156.952 9.92156 156.624C9.43198 156.295 9.03875 155.855 8.74188 155.303C8.45021 154.746 8.30438 154.103 8.30438 153.374C8.30438 152.28 8.61427 151.392 9.23406 150.709C9.85385 150.022 10.6585 149.678 11.6481 149.678C12.6013 149.678 13.3617 150.012 13.9294 150.678C14.4971 151.345 14.7809 152.238 14.7809 153.358V153.538ZM9.7575 152.686H13.3747C13.3382 152.118 13.169 151.681 12.8669 151.374C12.5648 151.066 12.1585 150.913 11.6481 150.913C11.1377 150.913 10.7184 151.066 10.3903 151.374C10.0674 151.681 9.85646 152.118 9.7575 152.686ZM18.0697 149.819V150.733C18.7051 150.03 19.4265 149.678 20.2338 149.678C20.6817 149.678 21.0983 149.795 21.4838 150.03C21.8692 150.259 22.1608 150.577 22.3588 150.983C22.5619 151.384 22.6634 152.022 22.6634 152.897V157.006H21.2416V152.913C21.2416 152.178 21.1296 151.655 20.9056 151.342C20.6817 151.025 20.3067 150.866 19.7806 150.866C19.1088 150.866 18.5384 151.202 18.0697 151.874V157.006H16.6166V149.819H18.0697ZM29.7647 146.092H31.1944V157.006H28.1553C27.0928 157.006 26.2439 156.67 25.6084 155.999C24.9782 155.327 24.6631 154.426 24.6631 153.295C24.6631 152.238 24.9939 151.368 25.6553 150.686C26.322 150.004 27.1709 149.663 28.2022 149.663C28.6814 149.663 29.2022 149.764 29.7647 149.967V146.092ZM29.7647 155.788V151.233C29.322 151.009 28.8741 150.897 28.4209 150.897C27.7126 150.897 27.1475 151.129 26.7256 151.592C26.309 152.056 26.1006 152.681 26.1006 153.467C26.1006 154.207 26.2829 154.777 26.6475 155.178C26.8662 155.418 27.098 155.579 27.3428 155.663C27.5876 155.746 28.0277 155.788 28.6631 155.788H29.7647ZM34.1784 146.795C34.4128 146.795 34.6133 146.876 34.78 147.038C34.9467 147.199 35.03 147.397 35.03 147.631C35.03 147.861 34.9467 148.058 34.78 148.225C34.6133 148.392 34.4128 148.475 34.1784 148.475C33.9597 148.475 33.767 148.392 33.6003 148.225C33.4336 148.053 33.3503 147.855 33.3503 147.631C33.3503 147.413 33.4336 147.22 33.6003 147.053C33.767 146.881 33.9597 146.795 34.1784 146.795ZM33.4753 149.819H34.8972V157.006H33.4753V149.819ZM38.7016 149.819V150.733C39.337 150.03 40.0583 149.678 40.8656 149.678C41.3135 149.678 41.7302 149.795 42.1156 150.03C42.501 150.259 42.7927 150.577 42.9906 150.983C43.1937 151.384 43.2953 152.022 43.2953 152.897V157.006H41.8734V152.913C41.8734 152.178 41.7615 151.655 41.5375 151.342C41.3135 151.025 40.9385 150.866 40.4125 150.866C39.7406 150.866 39.1703 151.202 38.7016 151.874V157.006H37.2484V149.819H38.7016ZM45.2325 152.303C45.2325 151.538 45.5111 150.933 46.0684 150.491C46.6309 150.043 47.3966 149.819 48.3653 149.819H51.3262V150.928H49.8731C50.1544 151.215 50.3497 151.475 50.4591 151.709C50.5684 151.944 50.6231 152.212 50.6231 152.514C50.6231 152.889 50.5164 153.259 50.3028 153.624C50.0893 153.983 49.8132 154.259 49.4747 154.452C49.1414 154.644 48.5919 154.798 47.8262 154.913C47.2898 154.991 47.0216 155.176 47.0216 155.467C47.0216 155.634 47.1205 155.772 47.3184 155.881C47.5216 155.986 47.8861 156.095 48.4122 156.209C49.2924 156.402 49.8575 156.553 50.1075 156.663C50.3627 156.772 50.5919 156.928 50.795 157.131C51.1387 157.475 51.3106 157.907 51.3106 158.428C51.3106 159.111 51.0059 159.655 50.3966 160.061C49.7924 160.467 48.9825 160.67 47.9669 160.67C46.9408 160.67 46.1205 160.465 45.5059 160.053C44.8966 159.647 44.5919 159.1 44.5919 158.413C44.5919 157.439 45.1934 156.811 46.3966 156.53C45.9174 156.222 45.6778 155.918 45.6778 155.616C45.6778 155.387 45.7794 155.178 45.9825 154.991C46.1908 154.803 46.4695 154.665 46.8184 154.577C45.7611 154.108 45.2325 153.35 45.2325 152.303ZM47.9044 151.053C47.519 151.053 47.1908 151.183 46.92 151.444C46.6492 151.704 46.5137 152.017 46.5137 152.381C46.5137 152.751 46.6466 153.058 46.9122 153.303C47.1778 153.543 47.5137 153.663 47.92 153.663C48.321 153.663 48.6544 153.54 48.92 153.295C49.1908 153.045 49.3262 152.736 49.3262 152.366C49.3262 151.991 49.1908 151.678 48.92 151.428C48.6492 151.178 48.3106 151.053 47.9044 151.053ZM47.5684 157.342C47.0893 157.342 46.696 157.444 46.3887 157.647C46.0867 157.85 45.9356 158.111 45.9356 158.428C45.9356 159.168 46.6023 159.538 47.9356 159.538C48.5658 159.538 49.0528 159.444 49.3966 159.256C49.7455 159.074 49.92 158.814 49.92 158.475C49.92 158.142 49.7012 157.868 49.2637 157.655C48.8262 157.446 48.2611 157.342 47.5684 157.342ZM1.74219 164.795C1.97656 164.795 2.17708 164.876 2.34375 165.038C2.51042 165.199 2.59375 165.397 2.59375 165.631C2.59375 165.861 2.51042 166.058 2.34375 166.225C2.17708 166.392 1.97656 166.475 1.74219 166.475C1.52344 166.475 1.33073 166.392 1.16406 166.225C0.997396 166.053 0.914062 165.855 0.914062 165.631C0.914062 165.413 0.997396 165.22 1.16406 165.053C1.33073 164.881 1.52344 164.795 1.74219 164.795ZM1.03906 167.819H2.46094V175.006H1.03906V167.819ZM6.26531 167.819V168.733C6.90073 168.03 7.62208 167.678 8.42937 167.678C8.87729 167.678 9.29396 167.795 9.67937 168.03C10.0648 168.259 10.3565 168.577 10.5544 168.983C10.7575 169.384 10.8591 170.022 10.8591 170.897V175.006H9.43719V170.913C9.43719 170.178 9.32521 169.655 9.10125 169.342C8.87729 169.025 8.50229 168.866 7.97625 168.866C7.30437 168.866 6.73406 169.202 6.26531 169.874V175.006H4.81219V167.819H6.26531ZM17.5619 167.819H19.1009L15.9291 175.131H15.4525L12.2025 167.819H13.7572L15.6947 172.241L17.5619 167.819ZM21.2334 164.795C21.4678 164.795 21.6683 164.876 21.835 165.038C22.0017 165.199 22.085 165.397 22.085 165.631C22.085 165.861 22.0017 166.058 21.835 166.225C21.6683 166.392 21.4678 166.475 21.2334 166.475C21.0147 166.475 20.822 166.392 20.6553 166.225C20.4886 166.053 20.4053 165.855 20.4053 165.631C20.4053 165.413 20.4886 165.22 20.6553 165.053C20.822 164.881 21.0147 164.795 21.2334 164.795ZM20.5303 167.819H21.9522V175.006H20.5303V167.819ZM23.3269 168.959L25.9988 166.334V167.819H28.2722V169.1H25.9988V172.624C25.9988 173.446 26.3399 173.858 27.0222 173.858C27.5326 173.858 28.0717 173.686 28.6394 173.342V174.67C28.0925 174.978 27.4961 175.131 26.8503 175.131C26.1993 175.131 25.6576 174.941 25.2253 174.561C25.0899 174.446 24.9779 174.319 24.8894 174.178C24.8008 174.032 24.7253 173.845 24.6628 173.616C24.6055 173.381 24.5769 172.939 24.5769 172.288V169.1H23.3269V168.959ZM36.1078 171.538H31.0531C31.0896 172.225 31.3188 172.772 31.7406 173.178C32.1677 173.584 32.7172 173.788 33.3891 173.788C34.3266 173.788 35.1911 173.496 35.9828 172.913V174.303C35.5453 174.595 35.1104 174.803 34.6781 174.928C34.251 175.053 33.7484 175.116 33.1703 175.116C32.3786 175.116 31.738 174.952 31.2484 174.624C30.7589 174.295 30.3656 173.855 30.0688 173.303C29.7771 172.746 29.6313 172.103 29.6313 171.374C29.6313 170.28 29.9411 169.392 30.5609 168.709C31.1807 168.022 31.9854 167.678 32.975 167.678C33.9281 167.678 34.6885 168.012 35.2563 168.678C35.824 169.345 36.1078 170.238 36.1078 171.358V171.538ZM31.0844 170.686H34.7016C34.6651 170.118 34.4958 169.681 34.1938 169.374C33.8917 169.066 33.4854 168.913 32.975 168.913C32.4646 168.913 32.0453 169.066 31.7172 169.374C31.3943 169.681 31.1833 170.118 31.0844 170.686ZM37.6231 174.491V172.959C38.0242 173.241 38.433 173.47 38.8497 173.647C39.2716 173.819 39.6257 173.905 39.9122 173.905C40.2091 173.905 40.4643 173.832 40.6778 173.686C40.8914 173.54 40.9981 173.366 40.9981 173.163C40.9981 172.954 40.9278 172.782 40.7872 172.647C40.6518 172.506 40.3549 172.306 39.8966 172.045C38.9799 171.535 38.3783 171.1 38.0919 170.741C37.8106 170.376 37.67 169.98 37.67 169.553C37.67 169.001 37.8835 168.551 38.3106 168.202C38.7429 167.853 39.2976 167.678 39.9747 167.678C40.6778 167.678 41.3992 167.876 42.1387 168.272V169.678C41.295 169.168 40.6049 168.913 40.0684 168.913C39.7924 168.913 39.5684 168.972 39.3966 169.092C39.2299 169.207 39.1466 169.361 39.1466 169.553C39.1466 169.72 39.2221 169.879 39.3731 170.03C39.5294 170.181 39.8002 170.363 40.1856 170.577L40.6934 170.866C41.8914 171.543 42.4903 172.293 42.4903 173.116C42.4903 173.704 42.2585 174.189 41.795 174.569C41.3367 174.944 40.7455 175.131 40.0216 175.131C39.5945 175.131 39.2143 175.087 38.8809 174.999C38.5476 174.905 38.1283 174.736 37.6231 174.491Z" fill="black"/>
<path d="M0.273438 213.58H9.39062V214.971H5.58594V224.51H4.01562V214.971H0.273438V213.58ZM12.5231 217.322V218.971L12.6012 218.846C13.2887 217.736 13.9762 217.182 14.6637 217.182C15.2002 217.182 15.7601 217.452 16.3434 217.994L15.5934 219.244C15.0986 218.775 14.6403 218.541 14.2184 218.541C13.7601 218.541 13.3617 218.76 13.0231 219.197C12.6898 219.635 12.5231 220.153 12.5231 220.752V224.51H11.0934V217.322H12.5231ZM22.1791 220.189V223.244C22.1791 223.489 22.2624 223.611 22.4291 223.611C22.6009 223.611 22.8692 223.484 23.2337 223.229V224.096C22.9108 224.304 22.6504 224.445 22.4525 224.518C22.2598 224.596 22.0567 224.635 21.8431 224.635C21.2337 224.635 20.8744 224.395 20.765 223.916C20.1608 224.385 19.5176 224.619 18.8353 224.619C18.3353 224.619 17.9186 224.455 17.5853 224.127C17.252 223.794 17.0853 223.377 17.0853 222.877C17.0853 222.424 17.2468 222.02 17.5697 221.666C17.8978 221.307 18.3614 221.023 18.9603 220.814L20.7806 220.189V219.807C20.7806 218.942 20.3483 218.51 19.4837 218.51C18.7077 218.51 17.9525 218.911 17.2181 219.713V218.158C17.7702 217.507 18.5645 217.182 19.6009 217.182C20.377 217.182 20.9994 217.385 21.4681 217.791C21.6244 217.921 21.765 218.096 21.89 218.314C22.015 218.528 22.0931 218.744 22.1244 218.963C22.1608 219.176 22.1791 219.585 22.1791 220.189ZM20.7806 223.088V220.955L19.8275 221.322C19.3431 221.515 18.9994 221.71 18.7962 221.908C18.5983 222.101 18.4994 222.343 18.4994 222.635C18.4994 222.932 18.5931 223.174 18.7806 223.361C18.9733 223.549 19.2207 223.643 19.5228 223.643C19.9759 223.643 20.3952 223.458 20.7806 223.088ZM30.2022 222.83V224.236C29.4886 224.502 28.7907 224.635 28.1084 224.635C26.9834 224.635 26.085 224.301 25.4131 223.635C24.7465 222.968 24.4131 222.075 24.4131 220.955C24.4131 219.825 24.7386 218.913 25.3897 218.221C26.0407 217.528 26.8975 217.182 27.96 217.182C28.3298 217.182 28.6605 217.218 28.9522 217.291C29.2491 217.359 29.6136 217.489 30.0459 217.682V219.197C29.3272 218.739 28.6605 218.51 28.0459 218.51C27.4053 218.51 26.8793 218.736 26.4678 219.189C26.0564 219.637 25.8506 220.21 25.8506 220.908C25.8506 221.643 26.072 222.226 26.5147 222.658C26.9626 223.09 27.5642 223.307 28.3194 223.307C28.8662 223.307 29.4939 223.148 30.2022 222.83ZM36.8191 217.322H38.5144L35.4441 220.846L39.1394 224.51H37.2331L33.6316 220.846L36.8191 217.322ZM32.1472 213.596H33.5691V224.51H32.1472V213.596ZM40.8734 214.299C41.1078 214.299 41.3083 214.38 41.475 214.541C41.6417 214.702 41.725 214.9 41.725 215.135C41.725 215.364 41.6417 215.562 41.475 215.729C41.3083 215.895 41.1078 215.979 40.8734 215.979C40.6547 215.979 40.462 215.895 40.2953 215.729C40.1286 215.557 40.0453 215.359 40.0453 215.135C40.0453 214.916 40.1286 214.723 40.2953 214.557C40.462 214.385 40.6547 214.299 40.8734 214.299ZM40.1703 217.322H41.5922V224.51H40.1703V217.322ZM45.3966 217.322V218.236C46.032 217.533 46.7533 217.182 47.5606 217.182C48.0085 217.182 48.4252 217.299 48.8106 217.533C49.196 217.762 49.4877 218.08 49.6856 218.486C49.8887 218.887 49.9903 219.525 49.9903 220.4V224.51H48.5684V220.416C48.5684 219.682 48.4565 219.158 48.2325 218.846C48.0085 218.528 47.6335 218.369 47.1075 218.369C46.4356 218.369 45.8653 218.705 45.3966 219.377V224.51H43.9434V217.322H45.3966ZM51.9275 219.807C51.9275 219.041 52.2061 218.437 52.7634 217.994C53.3259 217.546 54.0916 217.322 55.0603 217.322H58.0213V218.432H56.5681C56.8494 218.718 57.0447 218.979 57.1541 219.213C57.2634 219.447 57.3181 219.715 57.3181 220.018C57.3181 220.393 57.2114 220.762 56.9978 221.127C56.7843 221.486 56.5082 221.762 56.1697 221.955C55.8364 222.148 55.2869 222.301 54.5213 222.416C53.9848 222.494 53.7166 222.679 53.7166 222.971C53.7166 223.137 53.8155 223.275 54.0134 223.385C54.2166 223.489 54.5811 223.598 55.1072 223.713C55.9874 223.906 56.5525 224.057 56.8025 224.166C57.0577 224.275 57.2869 224.432 57.49 224.635C57.8338 224.979 58.0056 225.411 58.0056 225.932C58.0056 226.614 57.7009 227.158 57.0916 227.564C56.4874 227.971 55.6775 228.174 54.6619 228.174C53.6358 228.174 52.8155 227.968 52.2009 227.557C51.5916 227.15 51.2869 226.604 51.2869 225.916C51.2869 224.942 51.8884 224.314 53.0916 224.033C52.6124 223.726 52.3728 223.421 52.3728 223.119C52.3728 222.89 52.4744 222.682 52.6775 222.494C52.8858 222.307 53.1645 222.169 53.5134 222.08C52.4561 221.611 51.9275 220.854 51.9275 219.807ZM54.5994 218.557C54.214 218.557 53.8858 218.687 53.615 218.947C53.3442 219.208 53.2088 219.52 53.2088 219.885C53.2088 220.255 53.3416 220.562 53.6072 220.807C53.8728 221.046 54.2088 221.166 54.615 221.166C55.016 221.166 55.3494 221.044 55.615 220.799C55.8858 220.549 56.0213 220.239 56.0213 219.869C56.0213 219.494 55.8858 219.182 55.615 218.932C55.3442 218.682 55.0056 218.557 54.5994 218.557ZM54.2634 224.846C53.7843 224.846 53.391 224.947 53.0838 225.15C52.7817 225.354 52.6306 225.614 52.6306 225.932C52.6306 226.671 53.2973 227.041 54.6306 227.041C55.2608 227.041 55.7478 226.947 56.0916 226.76C56.4405 226.577 56.615 226.317 56.615 225.979C56.615 225.645 56.3963 225.372 55.9588 225.158C55.5213 224.95 54.9561 224.846 54.2634 224.846ZM6.39844 240.83V242.236C5.6849 242.502 4.98698 242.635 4.30469 242.635C3.17969 242.635 2.28125 242.301 1.60938 241.635C0.942708 240.968 0.609375 240.075 0.609375 238.955C0.609375 237.825 0.934896 236.913 1.58594 236.221C2.23698 235.528 3.09375 235.182 4.15625 235.182C4.52604 235.182 4.85677 235.218 5.14844 235.291C5.44531 235.359 5.8099 235.489 6.24219 235.682V237.197C5.52344 236.739 4.85677 236.51 4.24219 236.51C3.60156 236.51 3.07552 236.736 2.66406 237.189C2.2526 237.637 2.04688 238.21 2.04688 238.908C2.04688 239.643 2.26823 240.226 2.71094 240.658C3.15885 241.09 3.76042 241.307 4.51562 241.307C5.0625 241.307 5.6901 241.148 6.39844 240.83ZM11.7809 235.307C12.8747 235.307 13.7835 235.661 14.5075 236.369C15.2315 237.072 15.5934 237.958 15.5934 239.025C15.5934 240.062 15.2263 240.924 14.4919 241.611C13.7575 242.294 12.833 242.635 11.7184 242.635C10.6403 242.635 9.73927 242.288 9.01531 241.596C8.29135 240.898 7.92938 240.028 7.92938 238.986C7.92938 237.934 8.29396 237.059 9.02313 236.361C9.7575 235.658 10.6768 235.307 11.7809 235.307ZM11.7028 236.588C11.0205 236.588 10.4606 236.812 10.0231 237.26C9.58563 237.708 9.36688 238.278 9.36688 238.971C9.36688 239.658 9.59083 240.221 10.0388 240.658C10.4867 241.09 11.0622 241.307 11.7653 241.307C12.4632 241.307 13.0335 241.088 13.4763 240.65C13.9242 240.208 14.1481 239.643 14.1481 238.955C14.1481 238.273 13.9164 237.708 13.4528 237.26C12.9893 236.812 12.4059 236.588 11.7028 236.588ZM17.14 241.994V240.463C17.541 240.744 17.9499 240.973 18.3666 241.15C18.7884 241.322 19.1426 241.408 19.4291 241.408C19.7259 241.408 19.9811 241.335 20.1947 241.189C20.4082 241.044 20.515 240.869 20.515 240.666C20.515 240.458 20.4447 240.286 20.3041 240.15C20.1686 240.01 19.8718 239.809 19.4134 239.549C18.4968 239.038 17.8952 238.604 17.6087 238.244C17.3275 237.88 17.1869 237.484 17.1869 237.057C17.1869 236.505 17.4004 236.054 17.8275 235.705C18.2598 235.356 18.8145 235.182 19.4916 235.182C20.1947 235.182 20.916 235.38 21.6556 235.775V237.182C20.8119 236.671 20.1218 236.416 19.5853 236.416C19.3093 236.416 19.0853 236.476 18.9134 236.596C18.7468 236.71 18.6634 236.864 18.6634 237.057C18.6634 237.223 18.739 237.382 18.89 237.533C19.0462 237.684 19.3171 237.867 19.7025 238.08L20.2103 238.369C21.4082 239.046 22.0072 239.796 22.0072 240.619C22.0072 241.208 21.7754 241.692 21.3119 242.072C20.8535 242.447 20.2624 242.635 19.5384 242.635C19.1114 242.635 18.7311 242.59 18.3978 242.502C18.0645 242.408 17.6452 242.239 17.14 241.994ZM22.96 236.463L25.6319 233.838V235.322H27.9053V236.604H25.6319V240.127C25.6319 240.95 25.973 241.361 26.6553 241.361C27.1657 241.361 27.7048 241.189 28.2725 240.846V242.174C27.7256 242.481 27.1293 242.635 26.4834 242.635C25.8324 242.635 25.2907 242.445 24.8584 242.064C24.723 241.95 24.611 241.822 24.5225 241.682C24.434 241.536 24.3584 241.348 24.2959 241.119C24.2386 240.885 24.21 240.442 24.21 239.791V236.604H22.96V236.463ZM29.2644 241.994V240.463C29.6654 240.744 30.0743 240.973 30.4909 241.15C30.9128 241.322 31.267 241.408 31.5534 241.408C31.8503 241.408 32.1055 241.335 32.3191 241.189C32.5326 241.044 32.6394 240.869 32.6394 240.666C32.6394 240.458 32.5691 240.286 32.4284 240.15C32.293 240.01 31.9961 239.809 31.5378 239.549C30.6211 239.038 30.0196 238.604 29.7331 238.244C29.4519 237.88 29.3113 237.484 29.3113 237.057C29.3113 236.505 29.5248 236.054 29.9519 235.705C30.3842 235.356 30.9389 235.182 31.6159 235.182C32.3191 235.182 33.0404 235.38 33.78 235.775V237.182C32.9363 236.671 32.2461 236.416 31.7097 236.416C31.4336 236.416 31.2097 236.476 31.0378 236.596C30.8711 236.71 30.7878 236.864 30.7878 237.057C30.7878 237.223 30.8633 237.382 31.0144 237.533C31.1706 237.684 31.4415 237.867 31.8269 238.08L32.3347 238.369C33.5326 239.046 34.1316 239.796 34.1316 240.619C34.1316 241.208 33.8998 241.692 33.4363 242.072C32.9779 242.447 32.3868 242.635 31.6628 242.635C31.2357 242.635 30.8555 242.59 30.5222 242.502C30.1889 242.408 29.7696 242.239 29.2644 241.994Z" fill="black"/>
<path d="M10.6094 298.482V300.2C9.46354 300.825 8.14062 301.138 6.64062 301.138C5.42188 301.138 4.38802 300.893 3.53906 300.404C2.6901 299.914 2.01823 299.24 1.52344 298.38C1.02865 297.521 0.78125 296.591 0.78125 295.591C0.78125 294.003 1.34635 292.667 2.47656 291.583C3.61198 290.5 5.01042 289.958 6.67188 289.958C7.81771 289.958 9.09115 290.258 10.4922 290.857V292.536C9.21615 291.807 7.96875 291.443 6.75 291.443C5.5 291.443 4.46094 291.838 3.63281 292.63C2.8099 293.417 2.39844 294.404 2.39844 295.591C2.39844 296.789 2.80469 297.773 3.61719 298.544C4.42969 299.315 5.46875 299.7 6.73438 299.7C8.05729 299.7 9.34896 299.294 10.6094 298.482ZM16.0934 293.81C17.1872 293.81 18.096 294.164 18.82 294.872C19.544 295.575 19.9059 296.461 19.9059 297.529C19.9059 298.565 19.5387 299.427 18.8044 300.115C18.07 300.797 17.1455 301.138 16.0309 301.138C14.9528 301.138 14.0518 300.792 13.3278 300.099C12.6039 299.401 12.2419 298.531 12.2419 297.49C12.2419 296.437 12.6065 295.562 13.3356 294.865C14.07 294.161 14.9893 293.81 16.0934 293.81ZM16.0153 295.091C15.333 295.091 14.7731 295.315 14.3356 295.763C13.8981 296.211 13.6794 296.781 13.6794 297.474C13.6794 298.161 13.9033 298.724 14.3512 299.161C14.7992 299.594 15.3747 299.81 16.0778 299.81C16.7757 299.81 17.346 299.591 17.7887 299.154C18.2367 298.711 18.4606 298.146 18.4606 297.458C18.4606 296.776 18.2289 296.211 17.7653 295.763C17.3018 295.315 16.7184 295.091 16.0153 295.091ZM21.8353 290.099H23.2572V301.013H21.8353V290.099ZM25.6709 290.099H27.0928V301.013H25.6709V290.099ZM33.9909 296.693V299.747C33.9909 299.992 34.0743 300.115 34.2409 300.115C34.4128 300.115 34.681 299.987 35.0456 299.732V300.599C34.7227 300.807 34.4623 300.948 34.2644 301.021C34.0717 301.099 33.8685 301.138 33.655 301.138C33.0456 301.138 32.6863 300.898 32.5769 300.419C31.9727 300.888 31.3295 301.122 30.6472 301.122C30.1472 301.122 29.7305 300.958 29.3972 300.63C29.0639 300.297 28.8972 299.88 28.8972 299.38C28.8972 298.927 29.0586 298.523 29.3816 298.169C29.7097 297.81 30.1732 297.526 30.7722 297.318L32.5925 296.693V296.31C32.5925 295.445 32.1602 295.013 31.2956 295.013C30.5196 295.013 29.7644 295.414 29.03 296.216V294.661C29.5821 294.01 30.3764 293.685 31.4128 293.685C32.1889 293.685 32.8113 293.888 33.28 294.294C33.4363 294.424 33.5769 294.599 33.7019 294.818C33.8269 295.031 33.905 295.247 33.9363 295.466C33.9727 295.68 33.9909 296.088 33.9909 296.693ZM32.5925 299.591V297.458L31.6394 297.825C31.155 298.018 30.8113 298.213 30.6081 298.411C30.4102 298.604 30.3113 298.846 30.3113 299.138C30.3113 299.435 30.405 299.677 30.5925 299.865C30.7852 300.052 31.0326 300.146 31.3347 300.146C31.7878 300.146 32.2071 299.961 32.5925 299.591ZM36.5609 290.099H37.9828V294.341C38.5974 293.893 39.2536 293.669 39.9516 293.669C40.863 293.669 41.6078 294.013 42.1859 294.7C42.7641 295.388 43.0531 296.271 43.0531 297.349C43.0531 298.505 42.7068 299.427 42.0141 300.115C41.3266 300.797 40.4047 301.138 39.2484 301.138C38.7849 301.138 38.2953 301.088 37.7797 300.99C37.2693 300.891 36.863 300.766 36.5609 300.615V290.099ZM37.9828 295.7V299.591C38.4672 299.737 38.9646 299.81 39.475 299.81C40.1052 299.81 40.6182 299.586 41.0141 299.138C41.4151 298.69 41.6156 298.115 41.6156 297.411C41.6156 296.698 41.4281 296.117 41.0531 295.669C40.6833 295.221 40.199 294.997 39.6 294.997C39.0687 294.997 38.5297 295.232 37.9828 295.7ZM48.3809 293.81C49.4747 293.81 50.3835 294.164 51.1075 294.872C51.8315 295.575 52.1934 296.461 52.1934 297.529C52.1934 298.565 51.8262 299.427 51.0919 300.115C50.3575 300.797 49.433 301.138 48.3184 301.138C47.2403 301.138 46.3393 300.792 45.6153 300.099C44.8914 299.401 44.5294 298.531 44.5294 297.49C44.5294 296.437 44.894 295.562 45.6231 294.865C46.3575 294.161 47.2768 293.81 48.3809 293.81ZM48.3028 295.091C47.6205 295.091 47.0606 295.315 46.6231 295.763C46.1856 296.211 45.9669 296.781 45.9669 297.474C45.9669 298.161 46.1908 298.724 46.6387 299.161C47.0867 299.594 47.6622 299.81 48.3653 299.81C49.0632 299.81 49.6335 299.591 50.0762 299.154C50.5242 298.711 50.7481 298.146 50.7481 297.458C50.7481 296.776 50.5164 296.211 50.0528 295.763C49.5893 295.315 49.0059 295.091 48.3028 295.091ZM55.615 293.825V295.474L55.6931 295.349C56.3806 294.24 57.0681 293.685 57.7556 293.685C58.2921 293.685 58.852 293.956 59.4353 294.497L58.6853 295.747C58.1905 295.279 57.7322 295.044 57.3103 295.044C56.852 295.044 56.4535 295.263 56.115 295.7C55.7817 296.138 55.615 296.656 55.615 297.255V301.013H54.1853V293.825H55.615ZM65.2709 296.693V299.747C65.2709 299.992 65.3543 300.115 65.5209 300.115C65.6928 300.115 65.961 299.987 66.3256 299.732V300.599C66.0027 300.807 65.7423 300.948 65.5444 301.021C65.3517 301.099 65.1485 301.138 64.935 301.138C64.3256 301.138 63.9663 300.898 63.8569 300.419C63.2527 300.888 62.6095 301.122 61.9272 301.122C61.4272 301.122 61.0105 300.958 60.6772 300.63C60.3439 300.297 60.1772 299.88 60.1772 299.38C60.1772 298.927 60.3386 298.523 60.6616 298.169C60.9897 297.81 61.4532 297.526 62.0522 297.318L63.8725 296.693V296.31C63.8725 295.445 63.4402 295.013 62.5756 295.013C61.7996 295.013 61.0444 295.414 60.31 296.216V294.661C60.8621 294.01 61.6564 293.685 62.6928 293.685C63.4689 293.685 64.0913 293.888 64.56 294.294C64.7163 294.424 64.8569 294.599 64.9819 294.818C65.1069 295.031 65.185 295.247 65.2163 295.466C65.2527 295.68 65.2709 296.088 65.2709 296.693ZM63.8725 299.591V297.458L62.9194 297.825C62.435 298.018 62.0913 298.213 61.8881 298.411C61.6902 298.604 61.5913 298.846 61.5913 299.138C61.5913 299.435 61.685 299.677 61.8725 299.865C62.0652 300.052 62.3126 300.146 62.6147 300.146C63.0678 300.146 63.4871 299.961 63.8725 299.591ZM66.8956 294.966L69.5675 292.341V293.825H71.8409V295.107H69.5675V298.63C69.5675 299.453 69.9086 299.865 70.5909 299.865C71.1014 299.865 71.6404 299.693 72.2081 299.349V300.677C71.6612 300.984 71.0649 301.138 70.4191 301.138C69.768 301.138 69.2264 300.948 68.7941 300.568C68.6586 300.453 68.5467 300.325 68.4581 300.185C68.3696 300.039 68.2941 299.851 68.2316 299.622C68.1743 299.388 68.1456 298.945 68.1456 298.294V295.107H66.8956V294.966ZM74.2859 290.802C74.5203 290.802 74.7208 290.883 74.8875 291.044C75.0542 291.206 75.1375 291.404 75.1375 291.638C75.1375 291.867 75.0542 292.065 74.8875 292.232C74.7208 292.398 74.5203 292.482 74.2859 292.482C74.0672 292.482 73.8745 292.398 73.7078 292.232C73.5411 292.06 73.4578 291.862 73.4578 291.638C73.4578 291.419 73.5411 291.226 73.7078 291.06C73.8745 290.888 74.0672 290.802 74.2859 290.802ZM73.5828 293.825H75.0047V301.013H73.5828V293.825ZM80.8247 293.81C81.9184 293.81 82.8273 294.164 83.5512 294.872C84.2752 295.575 84.6372 296.461 84.6372 297.529C84.6372 298.565 84.27 299.427 83.5356 300.115C82.8012 300.797 81.8768 301.138 80.7622 301.138C79.6841 301.138 78.783 300.792 78.0591 300.099C77.3351 299.401 76.9731 298.531 76.9731 297.49C76.9731 296.437 77.3377 295.562 78.0669 294.865C78.8012 294.161 79.7205 293.81 80.8247 293.81ZM80.7466 295.091C80.0643 295.091 79.5044 295.315 79.0669 295.763C78.6294 296.211 78.4106 296.781 78.4106 297.474C78.4106 298.161 78.6346 298.724 79.0825 299.161C79.5304 299.594 80.1059 299.81 80.8091 299.81C81.507 299.81 82.0773 299.591 82.52 299.154C82.9679 298.711 83.1919 298.146 83.1919 297.458C83.1919 296.776 82.9601 296.211 82.4966 295.763C82.033 295.315 81.4497 295.091 80.7466 295.091ZM87.9572 293.825V294.74C88.5926 294.036 89.314 293.685 90.1212 293.685C90.5692 293.685 90.9858 293.802 91.3712 294.036C91.7567 294.266 92.0483 294.583 92.2462 294.99C92.4494 295.391 92.5509 296.029 92.5509 296.904V301.013H91.1291V296.919C91.1291 296.185 91.0171 295.661 90.7931 295.349C90.5692 295.031 90.1942 294.872 89.6681 294.872C88.9962 294.872 88.4259 295.208 87.9572 295.88V301.013H86.5041V293.825H87.9572Z" fill="black"/>
</svg>
