<svg width="119" height="53" viewBox="0 0 119 53" fill="none" xmlns="http://www.w3.org/2000/svg">
<rect width="119" height="53" fill="#C4C4C4"/>
<path d="M10.7439 31V21.0469H13.9978C15.0779 21.0469 15.8891 21.2702 16.4314 21.7168C16.9783 22.1634 17.2517 22.8242 17.2517 23.6992C17.2517 24.1641 17.1196 24.5765 16.8552 24.9365C16.5909 25.292 16.2309 25.5677 15.7752 25.7637C16.3129 25.9141 16.7367 26.2012 17.0466 26.625C17.3611 27.0443 17.5183 27.5456 17.5183 28.1289C17.5183 29.0221 17.2289 29.724 16.6502 30.2344C16.0714 30.7448 15.2533 31 14.1961 31H10.7439ZM12.0564 26.3447V29.9268H14.2234C14.8341 29.9268 15.3149 29.7695 15.6658 29.4551C16.0213 29.1361 16.199 28.6986 16.199 28.1426C16.199 26.944 15.5473 26.3447 14.2439 26.3447H12.0564ZM12.0564 25.292H14.0388C14.613 25.292 15.0711 25.1484 15.4129 24.8613C15.7592 24.5742 15.9324 24.1846 15.9324 23.6924C15.9324 23.1455 15.7729 22.749 15.4539 22.5029C15.1349 22.2523 14.6495 22.127 13.9978 22.127H12.0564V25.292ZM26.6834 21.0469V27.8145C26.6788 28.7533 26.3826 29.5212 25.7947 30.1182C25.2114 30.7152 24.4184 31.0501 23.4158 31.123L23.0672 31.1367C21.978 31.1367 21.1098 30.8428 20.4627 30.2549C19.8156 29.667 19.4874 28.8581 19.4783 27.8281V21.0469H20.7771V27.7871C20.7771 28.5072 20.9754 29.0677 21.3719 29.4688C21.7684 29.8652 22.3335 30.0635 23.0672 30.0635C23.81 30.0635 24.3774 29.8652 24.7693 29.4688C25.1658 29.0723 25.3641 28.514 25.3641 27.7939V21.0469H26.6834ZM35.8416 22.127H32.6424V31H31.3368V22.127H28.1444V21.0469H35.8416V22.127ZM44.5145 22.127H41.3153V31H40.0097V22.127H36.8173V21.0469H44.5145V22.127ZM53.6659 26.3447C53.6659 27.32 53.5019 28.1722 53.1738 28.9014C52.8456 29.626 52.3808 30.1797 51.7792 30.5625C51.1777 30.9453 50.4758 31.1367 49.6738 31.1367C48.8899 31.1367 48.1949 30.9453 47.5888 30.5625C46.9827 30.1751 46.511 29.626 46.1738 28.915C45.8411 28.1995 45.6702 27.3724 45.6611 26.4336V25.7158C45.6611 24.7588 45.8274 23.9134 46.1601 23.1797C46.4928 22.446 46.9622 21.8854 47.5683 21.498C48.179 21.1061 48.8762 20.9102 49.6601 20.9102C50.4576 20.9102 51.1594 21.1038 51.7655 21.4912C52.3762 21.874 52.8456 22.4323 53.1738 23.166C53.5019 23.8952 53.6659 24.7451 53.6659 25.7158V26.3447ZM52.3603 25.7021C52.3603 24.5218 52.1233 23.6172 51.6493 22.9883C51.1754 22.3548 50.5123 22.0381 49.6601 22.0381C48.8307 22.0381 48.1767 22.3548 47.6982 22.9883C47.2242 23.6172 46.9804 24.4922 46.9667 25.6133V26.3447C46.9667 27.4886 47.206 28.3887 47.6845 29.0449C48.1676 29.6966 48.8307 30.0225 49.6738 30.0225C50.5214 30.0225 51.1777 29.7148 51.6425 29.0996C52.1073 28.4798 52.3466 27.5934 52.3603 26.4404V25.7021ZM63.4941 31H62.1748L57.164 23.3301V31H55.8447V21.0469H57.164L62.1884 28.751V21.0469H63.4941V31ZM72.6504 26.5635C71.5248 26.2399 70.7045 25.8434 70.1895 25.374C69.6791 24.9001 69.4239 24.3167 69.4239 23.624C69.4239 22.8402 69.736 22.193 70.3604 21.6826C70.9893 21.1676 71.8051 20.9102 72.8077 20.9102C73.4913 20.9102 74.0997 21.0423 74.6329 21.3066C75.1706 21.571 75.5853 21.9355 75.877 22.4004C76.1732 22.8652 76.3213 23.3734 76.3213 23.9248H75.002C75.002 23.3232 74.8106 22.8516 74.4278 22.5098C74.045 22.1634 73.5049 21.9902 72.8077 21.9902C72.1605 21.9902 71.6547 22.1338 71.2901 22.4209C70.9301 22.7035 70.75 23.0977 70.75 23.6035C70.75 24.0091 70.9209 24.3532 71.2627 24.6357C71.6091 24.9137 72.1947 25.1689 73.0196 25.4014C73.849 25.6338 74.4961 25.8913 74.961 26.1738C75.4304 26.4518 75.7767 26.7777 76 27.1514C76.2279 27.5251 76.3418 27.9648 76.3418 28.4707C76.3418 29.2773 76.0274 29.9245 75.3985 30.4121C74.7696 30.8952 73.9288 31.1367 72.876 31.1367C72.1924 31.1367 71.5544 31.0068 70.962 30.7471C70.3695 30.4827 69.9115 30.1227 69.5879 29.667C69.2689 29.2113 69.1094 28.694 69.1094 28.1152H70.4288C70.4288 28.7168 70.6498 29.193 71.0918 29.5439C71.5385 29.8903 72.1332 30.0635 72.876 30.0635C73.5687 30.0635 74.0997 29.9222 74.4688 29.6396C74.8379 29.3571 75.0225 28.972 75.0225 28.4844C75.0225 27.9967 74.8516 27.6208 74.5098 27.3564C74.168 27.0876 73.5482 26.8232 72.6504 26.5635ZM79.6485 31H78.336V21.0469H79.6485V31ZM83.2491 29.9268H88.9435V31H81.6974V30.0156L87.1525 22.127H81.7863V21.0469H88.7247V22.0107L83.2491 29.9268ZM96.4816 26.3994H92.1681V29.9268H97.1789V31H90.8556V21.0469H97.1105V22.127H92.1681V25.3262H96.4816V26.3994ZM108.899 31H102.377V30.0908L105.822 26.2627C106.333 25.6839 106.684 25.2145 106.875 24.8545C107.071 24.4899 107.169 24.1139 107.169 23.7266C107.169 23.207 107.012 22.7809 106.697 22.4482C106.383 22.1156 105.964 21.9492 105.44 21.9492C104.811 21.9492 104.321 22.1292 103.97 22.4893C103.624 22.8447 103.45 23.3415 103.45 23.9795H102.186C102.186 23.0635 102.48 22.3229 103.068 21.7578C103.66 21.1927 104.451 20.9102 105.44 20.9102C106.365 20.9102 107.096 21.154 107.634 21.6416C108.172 22.1247 108.441 22.7695 108.441 23.5762C108.441 24.556 107.816 25.7227 106.568 27.0762L103.902 29.9678H108.899V31Z" fill="black"/>
</svg>
