<svg width="247" height="50" viewBox="0 0 247 50" fill="none" xmlns="http://www.w3.org/2000/svg">
<rect width="247" height="50" fill="#C4C4C4"/>
<path d="M74.7439 30V20.0469H77.9978C79.0779 20.0469 79.8891 20.2702 80.4314 20.7168C80.9783 21.1634 81.2517 21.8242 81.2517 22.6992C81.2517 23.1641 81.1196 23.5765 80.8552 23.9365C80.5909 24.292 80.2309 24.5677 79.7752 24.7637C80.3129 24.9141 80.7368 25.2012 81.0466 25.625C81.3611 26.0443 81.5183 26.5456 81.5183 27.1289C81.5183 28.0221 81.2289 28.724 80.6502 29.2344C80.0714 29.7448 79.2534 30 78.1961 30H74.7439ZM76.0564 25.3447V28.9268H78.2234C78.8341 28.9268 79.3149 28.7695 79.6658 28.4551C80.0213 28.1361 80.199 27.6986 80.199 27.1426C80.199 25.944 79.5473 25.3447 78.2439 25.3447H76.0564ZM76.0564 24.292H78.0388C78.6131 24.292 79.0711 24.1484 79.4129 23.8613C79.7592 23.5742 79.9324 23.1846 79.9324 22.6924C79.9324 22.1455 79.7729 21.749 79.4539 21.5029C79.1349 21.2523 78.6495 21.127 77.9978 21.127H76.0564V24.292ZM90.6834 20.0469V26.8145C90.6788 27.7533 90.3826 28.5212 89.7947 29.1182C89.2114 29.7152 88.4184 30.0501 87.4158 30.123L87.0672 30.1367C85.978 30.1367 85.1098 29.8428 84.4627 29.2549C83.8156 28.667 83.4874 27.8581 83.4783 26.8281V20.0469H84.7772V26.7871C84.7772 27.5072 84.9754 28.0677 85.3719 28.4688C85.7684 28.8652 86.3335 29.0635 87.0672 29.0635C87.81 29.0635 88.3774 28.8652 88.7693 28.4688C89.1658 28.0723 89.3641 27.514 89.3641 26.7939V20.0469H90.6834ZM99.8416 21.127H96.6424V30H95.3368V21.127H92.1444V20.0469H99.8416V21.127ZM108.515 21.127H105.315V30H104.01V21.127H100.817V20.0469H108.515V21.127ZM117.666 25.3447C117.666 26.32 117.502 27.1722 117.174 27.9014C116.846 28.626 116.381 29.1797 115.779 29.5625C115.178 29.9453 114.476 30.1367 113.674 30.1367C112.89 30.1367 112.195 29.9453 111.589 29.5625C110.983 29.1751 110.511 28.626 110.174 27.915C109.841 27.1995 109.67 26.3724 109.661 25.4336V24.7158C109.661 23.7588 109.827 22.9134 110.16 22.1797C110.493 21.446 110.962 20.8854 111.568 20.498C112.179 20.1061 112.876 19.9102 113.66 19.9102C114.458 19.9102 115.159 20.1038 115.766 20.4912C116.376 20.874 116.846 21.4323 117.174 22.166C117.502 22.8952 117.666 23.7451 117.666 24.7158V25.3447ZM116.36 24.7021C116.36 23.5218 116.123 22.6172 115.649 21.9883C115.175 21.3548 114.512 21.0381 113.66 21.0381C112.831 21.0381 112.177 21.3548 111.698 21.9883C111.224 22.6172 110.98 23.4922 110.967 24.6133V25.3447C110.967 26.4886 111.206 27.3887 111.684 28.0449C112.168 28.6966 112.831 29.0225 113.674 29.0225C114.521 29.0225 115.178 28.7148 115.643 28.0996C116.107 27.4798 116.347 26.5934 116.36 25.4404V24.7021ZM127.494 30H126.175L121.164 22.3301V30H119.845V20.0469H121.164L126.188 27.751V20.0469H127.494V30ZM136.65 25.5635C135.525 25.2399 134.704 24.8434 134.189 24.374C133.679 23.9001 133.424 23.3167 133.424 22.624C133.424 21.8402 133.736 21.193 134.36 20.6826C134.989 20.1676 135.805 19.9102 136.808 19.9102C137.491 19.9102 138.1 20.0423 138.633 20.3066C139.171 20.571 139.585 20.9355 139.877 21.4004C140.173 21.8652 140.321 22.3734 140.321 22.9248H139.002C139.002 22.3232 138.811 21.8516 138.428 21.5098C138.045 21.1634 137.505 20.9902 136.808 20.9902C136.161 20.9902 135.655 21.1338 135.29 21.4209C134.93 21.7035 134.75 22.0977 134.75 22.6035C134.75 23.0091 134.921 23.3532 135.263 23.6357C135.609 23.9137 136.195 24.1689 137.02 24.4014C137.849 24.6338 138.496 24.8913 138.961 25.1738C139.43 25.4518 139.777 25.7777 140 26.1514C140.228 26.5251 140.342 26.9648 140.342 27.4707C140.342 28.2773 140.027 28.9245 139.398 29.4121C138.77 29.8952 137.929 30.1367 136.876 30.1367C136.192 30.1367 135.554 30.0068 134.962 29.7471C134.37 29.4827 133.912 29.1227 133.588 28.667C133.269 28.2113 133.109 27.694 133.109 27.1152H134.429C134.429 27.7168 134.65 28.193 135.092 28.5439C135.538 28.8903 136.133 29.0635 136.876 29.0635C137.569 29.0635 138.1 28.9222 138.469 28.6396C138.838 28.3571 139.023 27.972 139.023 27.4844C139.023 26.9967 138.852 26.6208 138.51 26.3564C138.168 26.0876 137.548 25.8232 136.65 25.5635ZM143.649 30H142.336V20.0469H143.649V30ZM147.249 28.9268H152.943V30H145.697V29.0156L151.152 21.127H145.786V20.0469H152.725V21.0107L147.249 28.9268ZM160.482 25.3994H156.168V28.9268H161.179V30H154.856V20.0469H161.111V21.127H156.168V24.3262H160.482V25.3994ZM170.533 30H169.262V21.5713L166.712 22.5078V21.3594L170.335 19.999H170.533V30Z" fill="black"/>
</svg>
