<svg width="509" height="116" viewBox="0 0 509 116" fill="none" xmlns="http://www.w3.org/2000/svg">
<rect width="498" height="104" fill="#82321D"/>
<rect x="12" y="13" width="496" height="102" fill="white" stroke="#82321D" stroke-width="2"/>
<path d="M53.2123 79.912V82.12H30.7963V50.44H52.4443V52.648H33.1963V64.888H48.4123V67.144H33.1963V79.912H53.2123ZM78.5709 82.12H75.7389L63.4989 50.44H66.0909L75.4509 74.968L77.1309 79.864L78.8109 74.968L88.2189 50.44H90.7629L78.5709 82.12ZM126.487 79.912V82.12H104.071V50.44H125.719V52.648H106.471V64.888H121.687V67.144H106.471V79.912H126.487ZM164.998 82.12H162.022L145.222 57.256L142.87 53.032H142.822L142.966 57.016V82.12H140.662V50.44H143.686L160.438 75.256L162.838 79.528L162.742 75.544V50.44H164.998V82.12ZM203.774 52.648H192.206V82.12H189.806V52.648H178.238V50.44H203.774V52.648ZM247.949 50.44C253.005 50.44 256.893 51.784 259.613 54.472C262.365 57.128 263.741 60.984 263.741 66.04C263.741 71.224 262.365 75.208 259.613 77.992C256.893 80.744 253.005 82.12 247.949 82.12H237.965V50.44H247.949ZM248.141 79.912C252.365 79.912 255.597 78.728 257.837 76.36C260.109 73.96 261.245 70.52 261.245 66.04C261.245 61.752 260.109 58.456 257.837 56.152C255.597 53.816 252.365 52.648 248.141 52.648H240.365V79.912H248.141ZM299.938 82.12L290.866 68.392H290.722H281.362V82.12H278.962V50.44H290.722C293.89 50.44 296.402 51.24 298.258 52.84C300.146 54.44 301.09 56.632 301.09 59.416C301.09 61.72 300.418 63.64 299.074 65.176C297.73 66.68 295.89 67.656 293.554 68.104L302.77 82.12H299.938ZM281.362 66.136H290.674C293.234 66.136 295.186 65.56 296.53 64.408C297.906 63.256 298.594 61.592 298.594 59.416C298.594 57.24 297.906 55.576 296.53 54.424C295.186 53.24 293.234 52.648 290.674 52.648H281.362V66.136ZM334.433 72.184H319.265L315.329 82.12H312.785L325.457 50.44H328.289L340.961 82.12H338.417L334.433 72.184ZM333.569 69.976L328.049 56.152L326.897 52.792H326.849L325.697 56.056L320.177 69.976H333.569ZM361.549 82.12H358.573L348.685 50.44H351.277L360.061 80.152L368.365 50.44H371.149L379.453 80.2L388.333 50.44H390.781L380.893 82.12H377.917L371.533 59.896L369.757 53.032H369.709L367.933 59.896L361.549 82.12ZM426.806 79.912V82.12H404.39V50.44H426.038V52.648H406.79V64.888H422.006V67.144H406.79V79.912H426.806ZM461.957 82.12L452.885 68.392H452.741H443.381V82.12H440.981V50.44H452.741C455.909 50.44 458.421 51.24 460.277 52.84C462.165 54.44 463.109 56.632 463.109 59.416C463.109 61.72 462.437 63.64 461.093 65.176C459.749 66.68 457.909 67.656 455.573 68.104L464.789 82.12H461.957ZM443.381 66.136H452.693C455.253 66.136 457.205 65.56 458.549 64.408C459.925 63.256 460.613 61.592 460.613 59.416C460.613 57.24 459.925 55.576 458.549 54.424C457.205 53.24 455.253 52.648 452.693 52.648H443.381V66.136Z" fill="black"/>
</svg>
