<svg width="311" height="78" viewBox="0 0 311 78" fill="none" xmlns="http://www.w3.org/2000/svg">
<rect width="304" height="70" fill="#82321D"/>
<rect x="8" y="9" width="302" height="68" fill="white" stroke="#82321D" stroke-width="2"/>
<path d="M36.1027 51.76V53.14H22.0927V33.34H35.6227V34.72H23.5927V42.37H33.1027V43.78H23.5927V51.76H36.1027ZM51.9518 53.14H50.1818L42.5318 33.34H44.1518L50.0018 48.67L51.0518 51.73L52.1018 48.67L57.9818 33.34H59.5718L51.9518 53.14ZM81.8995 51.76V53.14H67.8895V33.34H81.4195V34.72H69.3895V42.37H78.8995V43.78H69.3895V51.76H81.8995ZM105.969 53.14H104.109L93.6087 37.6L92.1387 34.96H92.1087L92.1987 37.45V53.14H90.7587V33.34H92.6487L103.119 48.85L104.619 51.52L104.559 49.03V33.34H105.969V53.14ZM130.204 34.72H122.974V53.14H121.474V34.72H114.244V33.34H130.204V34.72ZM157.813 33.34C160.973 33.34 163.403 34.18 165.103 35.86C166.823 37.52 167.683 39.93 167.683 43.09C167.683 46.33 166.823 48.82 165.103 50.56C163.403 52.28 160.973 53.14 157.813 53.14H151.573V33.34H157.813ZM157.933 51.76C160.573 51.76 162.593 51.02 163.993 49.54C165.413 48.04 166.123 45.89 166.123 43.09C166.123 40.41 165.413 38.35 163.993 36.91C162.593 35.45 160.573 34.72 157.933 34.72H153.073V51.76H157.933ZM190.306 53.14L184.636 44.56H184.546H178.696V53.14H177.196V33.34H184.546C186.526 33.34 188.096 33.84 189.256 34.84C190.436 35.84 191.026 37.21 191.026 38.95C191.026 40.39 190.606 41.59 189.766 42.55C188.926 43.49 187.776 44.1 186.316 44.38L192.076 53.14H190.306ZM178.696 43.15H184.516C186.116 43.15 187.336 42.79 188.176 42.07C189.036 41.35 189.466 40.31 189.466 38.95C189.466 37.59 189.036 36.55 188.176 35.83C187.336 35.09 186.116 34.72 184.516 34.72H178.696V43.15ZM211.866 46.93H202.386L199.926 53.14H198.336L206.256 33.34H208.026L215.946 53.14H214.356L211.866 46.93ZM211.326 45.55L207.876 36.91L207.156 34.81H207.126L206.406 36.85L202.956 45.55H211.326ZM228.813 53.14H226.953L220.773 33.34H222.393L227.883 51.91L233.073 33.34H234.813L240.003 51.94L245.553 33.34H247.083L240.903 53.14H239.043L235.053 39.25L233.943 34.96H233.913L232.803 39.25L228.813 53.14ZM269.599 51.76V53.14H255.589V33.34H269.119V34.72H257.089V42.37H266.599V43.78H257.089V51.76H269.599ZM291.568 53.14L285.898 44.56H285.808H279.958V53.14H278.458V33.34H285.808C287.788 33.34 289.358 33.84 290.518 34.84C291.698 35.84 292.288 37.21 292.288 38.95C292.288 40.39 291.868 41.59 291.028 42.55C290.188 43.49 289.038 44.1 287.578 44.38L293.338 53.14H291.568ZM279.958 43.15H285.778C287.378 43.15 288.598 42.79 289.438 42.07C290.298 41.35 290.728 40.31 290.728 38.95C290.728 37.59 290.298 36.55 289.438 35.83C288.598 35.09 287.378 34.72 285.778 34.72H279.958V43.15Z" fill="black"/>
</svg>
