<svg width="323" height="216" viewBox="0 0 323 216" fill="none" xmlns="http://www.w3.org/2000/svg">
<rect x="138" width="55" height="55" fill="#C4C4C4"/>
<path d="M151.903 22.6943C151.566 23.1774 151.094 23.5397 150.488 23.7812C149.887 24.0182 149.185 24.1367 148.383 24.1367C147.572 24.1367 146.852 23.9476 146.223 23.5693C145.594 23.1865 145.106 22.6442 144.76 21.9424C144.418 21.2406 144.243 20.4271 144.233 19.502V18.6338C144.233 17.1344 144.582 15.9723 145.279 15.1475C145.981 14.3226 146.966 13.9102 148.232 13.9102C149.272 13.9102 150.108 14.1768 150.741 14.71C151.375 15.2386 151.762 15.9906 151.903 16.9658H150.591C150.345 15.6488 149.561 14.9902 148.239 14.9902C147.36 14.9902 146.692 15.3001 146.236 15.9199C145.785 16.5352 145.557 17.4284 145.553 18.5996V19.4131C145.553 20.5296 145.808 21.4183 146.318 22.0791C146.829 22.7354 147.519 23.0635 148.39 23.0635C148.882 23.0635 149.313 23.0088 149.682 22.8994C150.051 22.79 150.356 22.6055 150.598 22.3457V20.1104H148.294V19.0439H151.903V22.6943ZM153.564 20.2334C153.564 19.5088 153.706 18.8571 153.988 18.2783C154.275 17.6995 154.672 17.2529 155.178 16.9385C155.688 16.624 156.269 16.4668 156.921 16.4668C157.928 16.4668 158.742 16.8154 159.361 17.5127C159.986 18.21 160.298 19.1374 160.298 20.2949V20.3838C160.298 21.1038 160.159 21.751 159.881 22.3252C159.607 22.8949 159.213 23.3392 158.698 23.6582C158.188 23.9772 157.6 24.1367 156.935 24.1367C155.932 24.1367 155.119 23.7881 154.494 23.0908C153.874 22.3936 153.564 21.4707 153.564 20.3223V20.2334ZM154.836 20.3838C154.836 21.2041 155.025 21.8626 155.403 22.3594C155.786 22.8561 156.297 23.1045 156.935 23.1045C157.577 23.1045 158.088 22.8538 158.466 22.3525C158.844 21.8467 159.033 21.1403 159.033 20.2334C159.033 19.4222 158.84 18.766 158.452 18.2646C158.069 17.7588 157.559 17.5059 156.921 17.5059C156.297 17.5059 155.793 17.7542 155.41 18.251C155.027 18.7477 154.836 19.4587 154.836 20.3838ZM161.549 20.2334C161.549 19.5088 161.69 18.8571 161.973 18.2783C162.26 17.6995 162.656 17.2529 163.162 16.9385C163.673 16.624 164.254 16.4668 164.905 16.4668C165.912 16.4668 166.726 16.8154 167.346 17.5127C167.97 18.21 168.282 19.1374 168.282 20.2949V20.3838C168.282 21.1038 168.143 21.751 167.865 22.3252C167.592 22.8949 167.198 23.3392 166.683 23.6582C166.172 23.9772 165.584 24.1367 164.919 24.1367C163.916 24.1367 163.103 23.7881 162.479 23.0908C161.859 22.3936 161.549 21.4707 161.549 20.3223V20.2334ZM162.82 20.3838C162.82 21.2041 163.009 21.8626 163.388 22.3594C163.771 22.8561 164.281 23.1045 164.919 23.1045C165.562 23.1045 166.072 22.8538 166.45 22.3525C166.828 21.8467 167.018 21.1403 167.018 20.2334C167.018 19.4222 166.824 18.766 166.437 18.2646C166.054 17.7588 165.543 17.5059 164.905 17.5059C164.281 17.5059 163.777 17.7542 163.395 18.251C163.012 18.7477 162.82 19.4587 162.82 20.3838ZM169.567 20.2402C169.567 19.0872 169.834 18.1712 170.367 17.4922C170.9 16.8086 171.607 16.4668 172.486 16.4668C173.389 16.4668 174.093 16.7858 174.599 17.4238L174.66 16.6035H175.815V23.8223C175.815 24.7793 175.531 25.5335 174.961 26.085C174.396 26.6364 173.635 26.9121 172.678 26.9121C172.145 26.9121 171.623 26.7982 171.112 26.5703C170.602 26.3424 170.212 26.0303 169.943 25.6338L170.6 24.875C171.142 25.5449 171.805 25.8799 172.589 25.8799C173.204 25.8799 173.683 25.7067 174.024 25.3604C174.371 25.014 174.544 24.5264 174.544 23.8975V23.2617C174.038 23.8451 173.348 24.1367 172.473 24.1367C171.607 24.1367 170.905 23.7881 170.367 23.0908C169.834 22.3936 169.567 21.4434 169.567 20.2402ZM170.839 20.3838C170.839 21.2178 171.01 21.874 171.352 22.3525C171.693 22.8265 172.172 23.0635 172.787 23.0635C173.585 23.0635 174.17 22.7012 174.544 21.9766V18.5996C174.157 17.8932 173.576 17.54 172.801 17.54C172.186 17.54 171.705 17.7793 171.358 18.2578C171.012 18.7363 170.839 19.445 170.839 20.3838ZM179.104 24H177.839V13.5H179.104V24ZM184.203 24.1367C183.201 24.1367 182.385 23.8086 181.756 23.1523C181.127 22.4915 180.813 21.6097 180.813 20.5068V20.2744C180.813 19.5407 180.952 18.8867 181.23 18.3125C181.512 17.7337 181.904 17.2826 182.405 16.959C182.911 16.6309 183.458 16.4668 184.046 16.4668C185.008 16.4668 185.755 16.7835 186.288 17.417C186.821 18.0505 187.088 18.9574 187.088 20.1377V20.6641H182.077C182.095 21.3932 182.307 21.9834 182.713 22.4346C183.123 22.8812 183.643 23.1045 184.272 23.1045C184.718 23.1045 185.096 23.0133 185.406 22.8311C185.716 22.6488 185.987 22.4072 186.22 22.1064L186.992 22.708C186.372 23.6605 185.443 24.1367 184.203 24.1367ZM184.046 17.5059C183.536 17.5059 183.107 17.6927 182.761 18.0664C182.414 18.4355 182.2 18.9551 182.118 19.625H185.823V19.5293C185.787 18.8867 185.614 18.39 185.304 18.0391C184.994 17.6836 184.575 17.5059 184.046 17.5059ZM152.293 38.9268H157.01V40H150.974V30.0469H152.293V38.9268ZM157.974 36.2334C157.974 35.5088 158.115 34.8571 158.397 34.2783C158.685 33.6995 159.081 33.2529 159.587 32.9385C160.097 32.624 160.678 32.4668 161.33 32.4668C162.337 32.4668 163.151 32.8154 163.771 33.5127C164.395 34.21 164.707 35.1374 164.707 36.2949V36.3838C164.707 37.1038 164.568 37.751 164.29 38.3252C164.017 38.8949 163.622 39.3392 163.107 39.6582C162.597 39.9772 162.009 40.1367 161.344 40.1367C160.341 40.1367 159.528 39.7881 158.903 39.0908C158.284 38.3936 157.974 37.4707 157.974 36.3223V36.2334ZM159.245 36.3838C159.245 37.2041 159.434 37.8626 159.813 38.3594C160.195 38.8561 160.706 39.1045 161.344 39.1045C161.986 39.1045 162.497 38.8538 162.875 38.3525C163.253 37.8467 163.442 37.1403 163.442 36.2334C163.442 35.4222 163.249 34.766 162.861 34.2646C162.479 33.7588 161.968 33.5059 161.33 33.5059C160.706 33.5059 160.202 33.7542 159.819 34.251C159.437 34.7477 159.245 35.4587 159.245 36.3838ZM165.992 36.2402C165.992 35.0872 166.259 34.1712 166.792 33.4922C167.325 32.8086 168.032 32.4668 168.911 32.4668C169.814 32.4668 170.518 32.7858 171.023 33.4238L171.085 32.6035H172.24V39.8223C172.24 40.7793 171.955 41.5335 171.386 42.085C170.821 42.6364 170.06 42.9121 169.103 42.9121C168.569 42.9121 168.048 42.7982 167.537 42.5703C167.027 42.3424 166.637 42.0303 166.368 41.6338L167.024 40.875C167.567 41.5449 168.23 41.8799 169.014 41.8799C169.629 41.8799 170.107 41.7067 170.449 41.3604C170.796 41.014 170.969 40.5264 170.969 39.8975V39.2617C170.463 39.8451 169.772 40.1367 168.897 40.1367C168.032 40.1367 167.33 39.7881 166.792 39.0908C166.259 38.3936 165.992 37.4434 165.992 36.2402ZM167.264 36.3838C167.264 37.2178 167.435 37.874 167.776 38.3525C168.118 38.8265 168.597 39.0635 169.212 39.0635C170.009 39.0635 170.595 38.7012 170.969 37.9766V34.5996C170.581 33.8932 170 33.54 169.226 33.54C168.61 33.54 168.13 33.7793 167.783 34.2578C167.437 34.7363 167.264 35.445 167.264 36.3838ZM173.819 36.2334C173.819 35.5088 173.961 34.8571 174.243 34.2783C174.53 33.6995 174.927 33.2529 175.433 32.9385C175.943 32.624 176.524 32.4668 177.176 32.4668C178.183 32.4668 178.996 32.8154 179.616 33.5127C180.241 34.21 180.553 35.1374 180.553 36.2949V36.3838C180.553 37.1038 180.414 37.751 180.136 38.3252C179.862 38.8949 179.468 39.3392 178.953 39.6582C178.443 39.9772 177.855 40.1367 177.189 40.1367C176.187 40.1367 175.373 39.7881 174.749 39.0908C174.129 38.3936 173.819 37.4707 173.819 36.3223V36.2334ZM175.091 36.3838C175.091 37.2041 175.28 37.8626 175.658 38.3594C176.041 38.8561 176.551 39.1045 177.189 39.1045C177.832 39.1045 178.342 38.8538 178.721 38.3525C179.099 37.8467 179.288 37.1403 179.288 36.2334C179.288 35.4222 179.094 34.766 178.707 34.2646C178.324 33.7588 177.814 33.5059 177.176 33.5059C176.551 33.5059 176.048 33.7542 175.665 34.251C175.282 34.7477 175.091 35.4587 175.091 36.3838Z" fill="black"/>
<path d="M40.1094 76.7422H35.1797V80.7734H40.9062V82H33.6797V70.625H40.8281V71.8594H35.1797V75.5156H40.1094V76.7422ZM43.9141 73.5469L43.9609 74.6094C44.6068 73.7969 45.4505 73.3906 46.4922 73.3906C48.2786 73.3906 49.1797 74.3984 49.1953 76.4141V82H47.75V76.4062C47.7448 75.7969 47.6042 75.3464 47.3281 75.0547C47.0573 74.763 46.6328 74.6172 46.0547 74.6172C45.5859 74.6172 45.1745 74.7422 44.8203 74.9922C44.4661 75.2422 44.1901 75.5703 43.9922 75.9766V82H42.5469V73.5469H43.9141ZM53.3359 71.5V73.5469H54.9141V74.6641H53.3359V79.9062C53.3359 80.2448 53.4062 80.5 53.5469 80.6719C53.6875 80.8385 53.9271 80.9219 54.2656 80.9219C54.4323 80.9219 54.6615 80.8906 54.9531 80.8281V82C54.5729 82.1042 54.2031 82.1562 53.8438 82.1562C53.1979 82.1562 52.7109 81.9609 52.3828 81.5703C52.0547 81.1797 51.8906 80.625 51.8906 79.9062V74.6641H50.3516V73.5469H51.8906V71.5H53.3359ZM60.1172 82.1562C58.9714 82.1562 58.0391 81.7812 57.3203 81.0312C56.6016 80.276 56.2422 79.2682 56.2422 78.0078V77.7422C56.2422 76.9036 56.401 76.1562 56.7188 75.5C57.0417 74.8385 57.4896 74.3229 58.0625 73.9531C58.6406 73.5781 59.2656 73.3906 59.9375 73.3906C61.0365 73.3906 61.8906 73.7526 62.5 74.4766C63.1094 75.2005 63.4141 76.237 63.4141 77.5859V78.1875H57.6875C57.7083 79.0208 57.9505 79.6953 58.4141 80.2109C58.8828 80.7214 59.4766 80.9766 60.1953 80.9766C60.7057 80.9766 61.138 80.8724 61.4922 80.6641C61.8464 80.4557 62.1562 80.1797 62.4219 79.8359L63.3047 80.5234C62.5964 81.612 61.5339 82.1562 60.1172 82.1562ZM59.9375 74.5781C59.3542 74.5781 58.8646 74.7917 58.4688 75.2188C58.0729 75.6406 57.8281 76.2344 57.7344 77H61.9688V76.8906C61.9271 76.1562 61.7292 75.5885 61.375 75.1875C61.0208 74.7812 60.5417 74.5781 59.9375 74.5781ZM69.1797 74.8438C68.9609 74.8073 68.724 74.7891 68.4688 74.7891C67.5208 74.7891 66.8776 75.1927 66.5391 76V82H65.0938V73.5469H66.5L66.5234 74.5234C66.9974 73.7682 67.6693 73.3906 68.5391 73.3906C68.8203 73.3906 69.0339 73.4271 69.1797 73.5V74.8438ZM76.4453 71.5V73.5469H78.0234V74.6641H76.4453V79.9062C76.4453 80.2448 76.5156 80.5 76.6562 80.6719C76.7969 80.8385 77.0365 80.9219 77.375 80.9219C77.5417 80.9219 77.7708 80.8906 78.0625 80.8281V82C77.6823 82.1042 77.3125 82.1562 76.9531 82.1562C76.3073 82.1562 75.8203 81.9609 75.4922 81.5703C75.1641 81.1797 75 80.625 75 79.9062V74.6641H73.4609V73.5469H75V71.5H76.4453ZM81.1641 74.5703C81.8047 73.7839 82.638 73.3906 83.6641 73.3906C85.4505 73.3906 86.3516 74.3984 86.3672 76.4141V82H84.9219V76.4062C84.9167 75.7969 84.776 75.3464 84.5 75.0547C84.2292 74.763 83.8047 74.6172 83.2266 74.6172C82.7578 74.6172 82.3464 74.7422 81.9922 74.9922C81.638 75.2422 81.362 75.5703 81.1641 75.9766V82H79.7188V70H81.1641V74.5703ZM92.0391 82.1562C90.8932 82.1562 89.9609 81.7812 89.2422 81.0312C88.5234 80.276 88.1641 79.2682 88.1641 78.0078V77.7422C88.1641 76.9036 88.3229 76.1562 88.6406 75.5C88.9635 74.8385 89.4115 74.3229 89.9844 73.9531C90.5625 73.5781 91.1875 73.3906 91.8594 73.3906C92.9583 73.3906 93.8125 73.7526 94.4219 74.4766C95.0312 75.2005 95.3359 76.237 95.3359 77.5859V78.1875H89.6094C89.6302 79.0208 89.8724 79.6953 90.3359 80.2109C90.8047 80.7214 91.3984 80.9766 92.1172 80.9766C92.6276 80.9766 93.0599 80.8724 93.4141 80.6641C93.7682 80.4557 94.0781 80.1797 94.3438 79.8359L95.2266 80.5234C94.5182 81.612 93.4557 82.1562 92.0391 82.1562ZM91.8594 74.5781C91.276 74.5781 90.7865 74.7917 90.3906 75.2188C89.9948 75.6406 89.75 76.2344 89.6562 77H93.8906V76.8906C93.849 76.1562 93.651 75.5885 93.2969 75.1875C92.9427 74.7812 92.4635 74.5781 91.8594 74.5781ZM103.773 80.0391L105.867 73.5469H107.344L104.312 82H103.211L100.148 73.5469H101.625L103.773 80.0391ZM112.133 82.1562C110.987 82.1562 110.055 81.7812 109.336 81.0312C108.617 80.276 108.258 79.2682 108.258 78.0078V77.7422C108.258 76.9036 108.417 76.1562 108.734 75.5C109.057 74.8385 109.505 74.3229 110.078 73.9531C110.656 73.5781 111.281 73.3906 111.953 73.3906C113.052 73.3906 113.906 73.7526 114.516 74.4766C115.125 75.2005 115.43 76.237 115.43 77.5859V78.1875H109.703C109.724 79.0208 109.966 79.6953 110.43 80.2109C110.898 80.7214 111.492 80.9766 112.211 80.9766C112.721 80.9766 113.154 80.8724 113.508 80.6641C113.862 80.4557 114.172 80.1797 114.438 79.8359L115.32 80.5234C114.612 81.612 113.549 82.1562 112.133 82.1562ZM111.953 74.5781C111.37 74.5781 110.88 74.7917 110.484 75.2188C110.089 75.6406 109.844 76.2344 109.75 77H113.984V76.8906C113.943 76.1562 113.745 75.5885 113.391 75.1875C113.036 74.7812 112.557 74.5781 111.953 74.5781ZM121.195 74.8438C120.977 74.8073 120.74 74.7891 120.484 74.7891C119.536 74.7891 118.893 75.1927 118.555 76V82H117.109V73.5469H118.516L118.539 74.5234C119.013 73.7682 119.685 73.3906 120.555 73.3906C120.836 73.3906 121.049 73.4271 121.195 73.5V74.8438ZM124.102 82H122.656V73.5469H124.102V82ZM122.539 71.3047C122.539 71.0703 122.609 70.8724 122.75 70.7109C122.896 70.5495 123.109 70.4688 123.391 70.4688C123.672 70.4688 123.885 70.5495 124.031 70.7109C124.177 70.8724 124.25 71.0703 124.25 71.3047C124.25 71.5391 124.177 71.7344 124.031 71.8906C123.885 72.0469 123.672 72.125 123.391 72.125C123.109 72.125 122.896 72.0469 122.75 71.8906C122.609 71.7344 122.539 71.5391 122.539 71.3047ZM126.906 82V74.6641H125.57V73.5469H126.906V72.8281C126.906 71.8854 127.174 71.151 127.711 70.625C128.253 70.099 129.016 69.8359 130 69.8359C130.583 69.8359 131.32 69.9948 132.211 70.3125L131.969 71.5312C131.318 71.2708 130.698 71.1406 130.109 71.1406C129.49 71.1406 129.042 71.2812 128.766 71.5625C128.495 71.8385 128.359 72.2552 128.359 72.8125V73.5469H130.086V74.6641H128.359V82H126.906ZM132.93 82H131.477V73.5469H132.93V82ZM138.672 80.9766C139.188 80.9766 139.638 80.8203 140.023 80.5078C140.409 80.1953 140.622 79.8047 140.664 79.3359H142.031C142.005 79.8203 141.839 80.2812 141.531 80.7188C141.224 81.1562 140.812 81.5052 140.297 81.7656C139.786 82.026 139.245 82.1562 138.672 82.1562C137.521 82.1562 136.604 81.7734 135.922 81.0078C135.245 80.237 134.906 79.1849 134.906 77.8516V77.6094C134.906 76.7865 135.057 76.0547 135.359 75.4141C135.661 74.7734 136.094 74.276 136.656 73.9219C137.224 73.5677 137.893 73.3906 138.664 73.3906C139.612 73.3906 140.398 73.6745 141.023 74.2422C141.654 74.8099 141.99 75.5469 142.031 76.4531H140.664C140.622 75.9062 140.414 75.4583 140.039 75.1094C139.669 74.7552 139.211 74.5781 138.664 74.5781C137.93 74.5781 137.359 74.8438 136.953 75.375C136.552 75.901 136.352 76.6641 136.352 77.6641V77.9375C136.352 78.9115 136.552 79.6615 136.953 80.1875C137.354 80.7135 137.927 80.9766 138.672 80.9766ZM148.875 82C148.792 81.8333 148.724 81.5365 148.672 81.1094C148 81.8073 147.198 82.1562 146.266 82.1562C145.432 82.1562 144.747 81.9219 144.211 81.4531C143.68 80.9792 143.414 80.3802 143.414 79.6562C143.414 78.776 143.747 78.0938 144.414 77.6094C145.086 77.1198 146.029 76.875 147.242 76.875H148.648V76.2109C148.648 75.7057 148.497 75.3047 148.195 75.0078C147.893 74.7057 147.448 74.5547 146.859 74.5547C146.344 74.5547 145.911 74.6849 145.562 74.9453C145.214 75.2057 145.039 75.5208 145.039 75.8906H143.586C143.586 75.4688 143.734 75.0625 144.031 74.6719C144.333 74.276 144.74 73.9635 145.25 73.7344C145.766 73.5052 146.331 73.3906 146.945 73.3906C147.919 73.3906 148.682 73.6354 149.234 74.125C149.786 74.6094 150.073 75.2786 150.094 76.1328V80.0234C150.094 80.7995 150.193 81.4167 150.391 81.875V82H148.875ZM146.477 80.8984C146.93 80.8984 147.359 80.7812 147.766 80.5469C148.172 80.3125 148.466 80.0078 148.648 79.6328V77.8984H147.516C145.745 77.8984 144.859 78.4167 144.859 79.4531C144.859 79.9062 145.01 80.2604 145.312 80.5156C145.615 80.7708 146.003 80.8984 146.477 80.8984ZM154.32 71.5V73.5469H155.898V74.6641H154.32V79.9062C154.32 80.2448 154.391 80.5 154.531 80.6719C154.672 80.8385 154.911 80.9219 155.25 80.9219C155.417 80.9219 155.646 80.8906 155.938 80.8281V82C155.557 82.1042 155.188 82.1562 154.828 82.1562C154.182 82.1562 153.695 81.9609 153.367 81.5703C153.039 81.1797 152.875 80.625 152.875 79.9062V74.6641H151.336V73.5469H152.875V71.5H154.32ZM159.164 82H157.719V73.5469H159.164V82ZM157.602 71.3047C157.602 71.0703 157.672 70.8724 157.812 70.7109C157.958 70.5495 158.172 70.4688 158.453 70.4688C158.734 70.4688 158.948 70.5495 159.094 70.7109C159.24 70.8724 159.312 71.0703 159.312 71.3047C159.312 71.5391 159.24 71.7344 159.094 71.8906C158.948 72.0469 158.734 72.125 158.453 72.125C158.172 72.125 157.958 72.0469 157.812 71.8906C157.672 71.7344 157.602 71.5391 157.602 71.3047ZM161.102 77.6953C161.102 76.8672 161.263 76.1224 161.586 75.4609C161.914 74.7995 162.367 74.2891 162.945 73.9297C163.529 73.5703 164.193 73.3906 164.938 73.3906C166.089 73.3906 167.018 73.7891 167.727 74.5859C168.44 75.3828 168.797 76.4427 168.797 77.7656V77.8672C168.797 78.6901 168.638 79.4297 168.32 80.0859C168.008 80.737 167.557 81.2448 166.969 81.6094C166.385 81.974 165.714 82.1562 164.953 82.1562C163.807 82.1562 162.878 81.7578 162.164 80.9609C161.456 80.1641 161.102 79.1094 161.102 77.7969V77.6953ZM162.555 77.8672C162.555 78.8047 162.771 79.5573 163.203 80.125C163.641 80.6927 164.224 80.9766 164.953 80.9766C165.688 80.9766 166.271 80.6901 166.703 80.1172C167.135 79.5391 167.352 78.7318 167.352 77.6953C167.352 76.7682 167.13 76.0182 166.688 75.4453C166.25 74.8672 165.667 74.5781 164.938 74.5781C164.224 74.5781 163.648 74.862 163.211 75.4297C162.773 75.9974 162.555 76.8099 162.555 77.8672ZM171.977 73.5469L172.023 74.6094C172.669 73.7969 173.513 73.3906 174.555 73.3906C176.341 73.3906 177.242 74.3984 177.258 76.4141V82H175.812V76.4062C175.807 75.7969 175.667 75.3464 175.391 75.0547C175.12 74.763 174.695 74.6172 174.117 74.6172C173.648 74.6172 173.237 74.7422 172.883 74.9922C172.529 75.2422 172.253 75.5703 172.055 75.9766V82H170.609V73.5469H171.977ZM186.797 80.9766C187.312 80.9766 187.763 80.8203 188.148 80.5078C188.534 80.1953 188.747 79.8047 188.789 79.3359H190.156C190.13 79.8203 189.964 80.2812 189.656 80.7188C189.349 81.1562 188.938 81.5052 188.422 81.7656C187.911 82.026 187.37 82.1562 186.797 82.1562C185.646 82.1562 184.729 81.7734 184.047 81.0078C183.37 80.237 183.031 79.1849 183.031 77.8516V77.6094C183.031 76.7865 183.182 76.0547 183.484 75.4141C183.786 74.7734 184.219 74.276 184.781 73.9219C185.349 73.5677 186.018 73.3906 186.789 73.3906C187.737 73.3906 188.523 73.6745 189.148 74.2422C189.779 74.8099 190.115 75.5469 190.156 76.4531H188.789C188.747 75.9062 188.539 75.4583 188.164 75.1094C187.794 74.7552 187.336 74.5781 186.789 74.5781C186.055 74.5781 185.484 74.8438 185.078 75.375C184.677 75.901 184.477 76.6641 184.477 77.6641V77.9375C184.477 78.9115 184.677 79.6615 185.078 80.1875C185.479 80.7135 186.052 80.9766 186.797 80.9766ZM191.398 77.6953C191.398 76.8672 191.56 76.1224 191.883 75.4609C192.211 74.7995 192.664 74.2891 193.242 73.9297C193.826 73.5703 194.49 73.3906 195.234 73.3906C196.385 73.3906 197.315 73.7891 198.023 74.5859C198.737 75.3828 199.094 76.4427 199.094 77.7656V77.8672C199.094 78.6901 198.935 79.4297 198.617 80.0859C198.305 80.737 197.854 81.2448 197.266 81.6094C196.682 81.974 196.01 82.1562 195.25 82.1562C194.104 82.1562 193.174 81.7578 192.461 80.9609C191.753 80.1641 191.398 79.1094 191.398 77.7969V77.6953ZM192.852 77.8672C192.852 78.8047 193.068 79.5573 193.5 80.125C193.938 80.6927 194.521 80.9766 195.25 80.9766C195.984 80.9766 196.568 80.6901 197 80.1172C197.432 79.5391 197.648 78.7318 197.648 77.6953C197.648 76.7682 197.427 76.0182 196.984 75.4453C196.547 74.8672 195.964 74.5781 195.234 74.5781C194.521 74.5781 193.945 74.862 193.508 75.4297C193.07 75.9974 192.852 76.8099 192.852 77.8672ZM200.555 77.7031C200.555 76.4062 200.862 75.3646 201.477 74.5781C202.091 73.7865 202.896 73.3906 203.891 73.3906C204.88 73.3906 205.664 73.7292 206.242 74.4062V70H207.688V82H206.359L206.289 81.0938C205.711 81.8021 204.906 82.1562 203.875 82.1562C202.896 82.1562 202.096 81.7552 201.477 80.9531C200.862 80.151 200.555 79.1042 200.555 77.8125V77.7031ZM202 77.8672C202 78.8255 202.198 79.5755 202.594 80.1172C202.99 80.6589 203.536 80.9297 204.234 80.9297C205.151 80.9297 205.82 80.5182 206.242 79.6953V75.8125C205.81 75.0156 205.146 74.6172 204.25 74.6172C203.542 74.6172 202.99 74.8906 202.594 75.4375C202.198 75.9844 202 76.7943 202 77.8672ZM213.445 82.1562C212.299 82.1562 211.367 81.7812 210.648 81.0312C209.93 80.276 209.57 79.2682 209.57 78.0078V77.7422C209.57 76.9036 209.729 76.1562 210.047 75.5C210.37 74.8385 210.818 74.3229 211.391 73.9531C211.969 73.5781 212.594 73.3906 213.266 73.3906C214.365 73.3906 215.219 73.7526 215.828 74.4766C216.438 75.2005 216.742 76.237 216.742 77.5859V78.1875H211.016C211.036 79.0208 211.279 79.6953 211.742 80.2109C212.211 80.7214 212.805 80.9766 213.523 80.9766C214.034 80.9766 214.466 80.8724 214.82 80.6641C215.174 80.4557 215.484 80.1797 215.75 79.8359L216.633 80.5234C215.924 81.612 214.862 82.1562 213.445 82.1562ZM213.266 74.5781C212.682 74.5781 212.193 74.7917 211.797 75.2188C211.401 75.6406 211.156 76.2344 211.062 77H215.297V76.8906C215.255 76.1562 215.057 75.5885 214.703 75.1875C214.349 74.7812 213.87 74.5781 213.266 74.5781ZM227.312 79.7578C227.312 79.3672 227.164 79.0651 226.867 78.8516C226.576 78.6328 226.062 78.4453 225.328 78.2891C224.599 78.1328 224.018 77.9453 223.586 77.7266C223.159 77.5078 222.841 77.2474 222.633 76.9453C222.43 76.6432 222.328 76.2839 222.328 75.8672C222.328 75.1745 222.62 74.5885 223.203 74.1094C223.792 73.6302 224.542 73.3906 225.453 73.3906C226.411 73.3906 227.188 73.638 227.781 74.1328C228.38 74.6276 228.68 75.2604 228.68 76.0312H227.227C227.227 75.6354 227.057 75.2943 226.719 75.0078C226.385 74.7214 225.964 74.5781 225.453 74.5781C224.927 74.5781 224.516 74.6927 224.219 74.9219C223.922 75.151 223.773 75.4505 223.773 75.8203C223.773 76.1693 223.911 76.4323 224.188 76.6094C224.464 76.7865 224.961 76.9557 225.68 77.1172C226.404 77.2786 226.99 77.4714 227.438 77.6953C227.885 77.9193 228.216 78.1901 228.43 78.5078C228.648 78.8203 228.758 79.2031 228.758 79.6562C228.758 80.4115 228.456 81.0182 227.852 81.4766C227.247 81.9297 226.464 82.1562 225.5 82.1562C224.823 82.1562 224.224 82.0365 223.703 81.7969C223.182 81.5573 222.773 81.224 222.477 80.7969C222.185 80.3646 222.039 79.8984 222.039 79.3984H223.484C223.51 79.8828 223.703 80.2682 224.062 80.5547C224.427 80.8359 224.906 80.9766 225.5 80.9766C226.047 80.9766 226.484 80.8672 226.812 80.6484C227.146 80.4245 227.312 80.1276 227.312 79.7578ZM234.148 82.1562C233.003 82.1562 232.07 81.7812 231.352 81.0312C230.633 80.276 230.273 79.2682 230.273 78.0078V77.7422C230.273 76.9036 230.432 76.1562 230.75 75.5C231.073 74.8385 231.521 74.3229 232.094 73.9531C232.672 73.5781 233.297 73.3906 233.969 73.3906C235.068 73.3906 235.922 73.7526 236.531 74.4766C237.141 75.2005 237.445 76.237 237.445 77.5859V78.1875H231.719C231.74 79.0208 231.982 79.6953 232.445 80.2109C232.914 80.7214 233.508 80.9766 234.227 80.9766C234.737 80.9766 235.169 80.8724 235.523 80.6641C235.878 80.4557 236.188 80.1797 236.453 79.8359L237.336 80.5234C236.628 81.612 235.565 82.1562 234.148 82.1562ZM233.969 74.5781C233.385 74.5781 232.896 74.7917 232.5 75.2188C232.104 75.6406 231.859 76.2344 231.766 77H236V76.8906C235.958 76.1562 235.76 75.5885 235.406 75.1875C235.052 74.7812 234.573 74.5781 233.969 74.5781ZM240.492 73.5469L240.539 74.6094C241.185 73.7969 242.029 73.3906 243.07 73.3906C244.857 73.3906 245.758 74.3984 245.773 76.4141V82H244.328V76.4062C244.323 75.7969 244.182 75.3464 243.906 75.0547C243.635 74.763 243.211 74.6172 242.633 74.6172C242.164 74.6172 241.753 74.7422 241.398 74.9922C241.044 75.2422 240.768 75.5703 240.57 75.9766V82H239.125V73.5469H240.492ZM249.914 71.5V73.5469H251.492V74.6641H249.914V79.9062C249.914 80.2448 249.984 80.5 250.125 80.6719C250.266 80.8385 250.505 80.9219 250.844 80.9219C251.01 80.9219 251.24 80.8906 251.531 80.8281V82C251.151 82.1042 250.781 82.1562 250.422 82.1562C249.776 82.1562 249.289 81.9609 248.961 81.5703C248.633 81.1797 248.469 80.625 248.469 79.9062V74.6641H246.93V73.5469H248.469V71.5H249.914ZM259.117 71.5V73.5469H260.695V74.6641H259.117V79.9062C259.117 80.2448 259.188 80.5 259.328 80.6719C259.469 80.8385 259.708 80.9219 260.047 80.9219C260.214 80.9219 260.443 80.8906 260.734 80.8281V82C260.354 82.1042 259.984 82.1562 259.625 82.1562C258.979 82.1562 258.492 81.9609 258.164 81.5703C257.836 81.1797 257.672 80.625 257.672 79.9062V74.6641H256.133V73.5469H257.672V71.5H259.117ZM261.852 77.6953C261.852 76.8672 262.013 76.1224 262.336 75.4609C262.664 74.7995 263.117 74.2891 263.695 73.9297C264.279 73.5703 264.943 73.3906 265.688 73.3906C266.839 73.3906 267.768 73.7891 268.477 74.5859C269.19 75.3828 269.547 76.4427 269.547 77.7656V77.8672C269.547 78.6901 269.388 79.4297 269.07 80.0859C268.758 80.737 268.307 81.2448 267.719 81.6094C267.135 81.974 266.464 82.1562 265.703 82.1562C264.557 82.1562 263.628 81.7578 262.914 80.9609C262.206 80.1641 261.852 79.1094 261.852 77.7969V77.6953ZM263.305 77.8672C263.305 78.8047 263.521 79.5573 263.953 80.125C264.391 80.6927 264.974 80.9766 265.703 80.9766C266.438 80.9766 267.021 80.6901 267.453 80.1172C267.885 79.5391 268.102 78.7318 268.102 77.6953C268.102 76.7682 267.88 76.0182 267.438 75.4453C267 74.8672 266.417 74.5781 265.688 74.5781C264.974 74.5781 264.398 74.862 263.961 75.4297C263.523 75.9974 263.305 76.8099 263.305 77.8672Z" fill="black"/>
<path d="M278.094 79.8828L280.062 73.5469H281.609L278.211 83.3047C277.685 84.7109 276.849 85.4141 275.703 85.4141L275.43 85.3906L274.891 85.2891V84.1172L275.281 84.1484C275.771 84.1484 276.151 84.0495 276.422 83.8516C276.698 83.6536 276.924 83.2917 277.102 82.7656L277.422 81.9062L274.406 73.5469H275.984L278.094 79.8828ZM282.398 77.6953C282.398 76.8672 282.56 76.1224 282.883 75.4609C283.211 74.7995 283.664 74.2891 284.242 73.9297C284.826 73.5703 285.49 73.3906 286.234 73.3906C287.385 73.3906 288.315 73.7891 289.023 74.5859C289.737 75.3828 290.094 76.4427 290.094 77.7656V77.8672C290.094 78.6901 289.935 79.4297 289.617 80.0859C289.305 80.737 288.854 81.2448 288.266 81.6094C287.682 81.974 287.01 82.1562 286.25 82.1562C285.104 82.1562 284.174 81.7578 283.461 80.9609C282.753 80.1641 282.398 79.1094 282.398 77.7969V77.6953ZM283.852 77.8672C283.852 78.8047 284.068 79.5573 284.5 80.125C284.938 80.6927 285.521 80.9766 286.25 80.9766C286.984 80.9766 287.568 80.6901 288 80.1172C288.432 79.5391 288.648 78.7318 288.648 77.6953C288.648 76.7682 288.427 76.0182 287.984 75.4453C287.547 74.8672 286.964 74.5781 286.234 74.5781C285.521 74.5781 284.945 74.862 284.508 75.4297C284.07 75.9974 283.852 76.8099 283.852 77.8672ZM297.125 81.1641C296.562 81.8255 295.737 82.1562 294.648 82.1562C293.747 82.1562 293.06 81.8958 292.586 81.375C292.117 80.849 291.88 80.0729 291.875 79.0469V73.5469H293.32V79.0078C293.32 80.2891 293.841 80.9297 294.883 80.9297C295.987 80.9297 296.721 80.5182 297.086 79.6953V73.5469H298.531V82H297.156L297.125 81.1641Z" fill="#FF0000"/>
<rect x="138" y="114" width="55" height="55" fill="#C4C4C4"/>
<path d="M151.903 136.694C151.566 137.177 151.094 137.54 150.488 137.781C149.887 138.018 149.185 138.137 148.383 138.137C147.572 138.137 146.852 137.948 146.223 137.569C145.594 137.187 145.106 136.644 144.76 135.942C144.418 135.241 144.243 134.427 144.233 133.502V132.634C144.233 131.134 144.582 129.972 145.279 129.147C145.981 128.323 146.966 127.91 148.232 127.91C149.272 127.91 150.108 128.177 150.741 128.71C151.375 129.239 151.762 129.991 151.903 130.966H150.591C150.345 129.649 149.561 128.99 148.239 128.99C147.36 128.99 146.692 129.3 146.236 129.92C145.785 130.535 145.557 131.428 145.553 132.6V133.413C145.553 134.53 145.808 135.418 146.318 136.079C146.829 136.735 147.519 137.063 148.39 137.063C148.882 137.063 149.313 137.009 149.682 136.899C150.051 136.79 150.356 136.605 150.598 136.346V134.11H148.294V133.044H151.903V136.694ZM153.564 134.233C153.564 133.509 153.706 132.857 153.988 132.278C154.275 131.7 154.672 131.253 155.178 130.938C155.688 130.624 156.269 130.467 156.921 130.467C157.928 130.467 158.742 130.815 159.361 131.513C159.986 132.21 160.298 133.137 160.298 134.295V134.384C160.298 135.104 160.159 135.751 159.881 136.325C159.607 136.895 159.213 137.339 158.698 137.658C158.188 137.977 157.6 138.137 156.935 138.137C155.932 138.137 155.119 137.788 154.494 137.091C153.874 136.394 153.564 135.471 153.564 134.322V134.233ZM154.836 134.384C154.836 135.204 155.025 135.863 155.403 136.359C155.786 136.856 156.297 137.104 156.935 137.104C157.577 137.104 158.088 136.854 158.466 136.353C158.844 135.847 159.033 135.14 159.033 134.233C159.033 133.422 158.84 132.766 158.452 132.265C158.069 131.759 157.559 131.506 156.921 131.506C156.297 131.506 155.793 131.754 155.41 132.251C155.027 132.748 154.836 133.459 154.836 134.384ZM161.549 134.233C161.549 133.509 161.69 132.857 161.973 132.278C162.26 131.7 162.656 131.253 163.162 130.938C163.673 130.624 164.254 130.467 164.905 130.467C165.912 130.467 166.726 130.815 167.346 131.513C167.97 132.21 168.282 133.137 168.282 134.295V134.384C168.282 135.104 168.143 135.751 167.865 136.325C167.592 136.895 167.198 137.339 166.683 137.658C166.172 137.977 165.584 138.137 164.919 138.137C163.916 138.137 163.103 137.788 162.479 137.091C161.859 136.394 161.549 135.471 161.549 134.322V134.233ZM162.82 134.384C162.82 135.204 163.009 135.863 163.388 136.359C163.771 136.856 164.281 137.104 164.919 137.104C165.562 137.104 166.072 136.854 166.45 136.353C166.828 135.847 167.018 135.14 167.018 134.233C167.018 133.422 166.824 132.766 166.437 132.265C166.054 131.759 165.543 131.506 164.905 131.506C164.281 131.506 163.777 131.754 163.395 132.251C163.012 132.748 162.82 133.459 162.82 134.384ZM169.567 134.24C169.567 133.087 169.834 132.171 170.367 131.492C170.9 130.809 171.607 130.467 172.486 130.467C173.389 130.467 174.093 130.786 174.599 131.424L174.66 130.604H175.815V137.822C175.815 138.779 175.531 139.534 174.961 140.085C174.396 140.636 173.635 140.912 172.678 140.912C172.145 140.912 171.623 140.798 171.112 140.57C170.602 140.342 170.212 140.03 169.943 139.634L170.6 138.875C171.142 139.545 171.805 139.88 172.589 139.88C173.204 139.88 173.683 139.707 174.024 139.36C174.371 139.014 174.544 138.526 174.544 137.897V137.262C174.038 137.845 173.348 138.137 172.473 138.137C171.607 138.137 170.905 137.788 170.367 137.091C169.834 136.394 169.567 135.443 169.567 134.24ZM170.839 134.384C170.839 135.218 171.01 135.874 171.352 136.353C171.693 136.826 172.172 137.063 172.787 137.063C173.585 137.063 174.17 136.701 174.544 135.977V132.6C174.157 131.893 173.576 131.54 172.801 131.54C172.186 131.54 171.705 131.779 171.358 132.258C171.012 132.736 170.839 133.445 170.839 134.384ZM179.104 138H177.839V127.5H179.104V138ZM184.203 138.137C183.201 138.137 182.385 137.809 181.756 137.152C181.127 136.492 180.813 135.61 180.813 134.507V134.274C180.813 133.541 180.952 132.887 181.23 132.312C181.512 131.734 181.904 131.283 182.405 130.959C182.911 130.631 183.458 130.467 184.046 130.467C185.008 130.467 185.755 130.784 186.288 131.417C186.821 132.05 187.088 132.957 187.088 134.138V134.664H182.077C182.095 135.393 182.307 135.983 182.713 136.435C183.123 136.881 183.643 137.104 184.272 137.104C184.718 137.104 185.096 137.013 185.406 136.831C185.716 136.649 185.987 136.407 186.22 136.106L186.992 136.708C186.372 137.66 185.443 138.137 184.203 138.137ZM184.046 131.506C183.536 131.506 183.107 131.693 182.761 132.066C182.414 132.436 182.2 132.955 182.118 133.625H185.823V133.529C185.787 132.887 185.614 132.39 185.304 132.039C184.994 131.684 184.575 131.506 184.046 131.506ZM152.293 152.927H157.01V154H150.974V144.047H152.293V152.927ZM157.974 150.233C157.974 149.509 158.115 148.857 158.397 148.278C158.685 147.7 159.081 147.253 159.587 146.938C160.097 146.624 160.678 146.467 161.33 146.467C162.337 146.467 163.151 146.815 163.771 147.513C164.395 148.21 164.707 149.137 164.707 150.295V150.384C164.707 151.104 164.568 151.751 164.29 152.325C164.017 152.895 163.622 153.339 163.107 153.658C162.597 153.977 162.009 154.137 161.344 154.137C160.341 154.137 159.528 153.788 158.903 153.091C158.284 152.394 157.974 151.471 157.974 150.322V150.233ZM159.245 150.384C159.245 151.204 159.434 151.863 159.813 152.359C160.195 152.856 160.706 153.104 161.344 153.104C161.986 153.104 162.497 152.854 162.875 152.353C163.253 151.847 163.442 151.14 163.442 150.233C163.442 149.422 163.249 148.766 162.861 148.265C162.479 147.759 161.968 147.506 161.33 147.506C160.706 147.506 160.202 147.754 159.819 148.251C159.437 148.748 159.245 149.459 159.245 150.384ZM165.992 150.24C165.992 149.087 166.259 148.171 166.792 147.492C167.325 146.809 168.032 146.467 168.911 146.467C169.814 146.467 170.518 146.786 171.023 147.424L171.085 146.604H172.24V153.822C172.24 154.779 171.955 155.534 171.386 156.085C170.821 156.636 170.06 156.912 169.103 156.912C168.569 156.912 168.048 156.798 167.537 156.57C167.027 156.342 166.637 156.03 166.368 155.634L167.024 154.875C167.567 155.545 168.23 155.88 169.014 155.88C169.629 155.88 170.107 155.707 170.449 155.36C170.796 155.014 170.969 154.526 170.969 153.897V153.262C170.463 153.845 169.772 154.137 168.897 154.137C168.032 154.137 167.33 153.788 166.792 153.091C166.259 152.394 165.992 151.443 165.992 150.24ZM167.264 150.384C167.264 151.218 167.435 151.874 167.776 152.353C168.118 152.826 168.597 153.063 169.212 153.063C170.009 153.063 170.595 152.701 170.969 151.977V148.6C170.581 147.893 170 147.54 169.226 147.54C168.61 147.54 168.13 147.779 167.783 148.258C167.437 148.736 167.264 149.445 167.264 150.384ZM173.819 150.233C173.819 149.509 173.961 148.857 174.243 148.278C174.53 147.7 174.927 147.253 175.433 146.938C175.943 146.624 176.524 146.467 177.176 146.467C178.183 146.467 178.996 146.815 179.616 147.513C180.241 148.21 180.553 149.137 180.553 150.295V150.384C180.553 151.104 180.414 151.751 180.136 152.325C179.862 152.895 179.468 153.339 178.953 153.658C178.443 153.977 177.855 154.137 177.189 154.137C176.187 154.137 175.373 153.788 174.749 153.091C174.129 152.394 173.819 151.471 173.819 150.322V150.233ZM175.091 150.384C175.091 151.204 175.28 151.863 175.658 152.359C176.041 152.856 176.551 153.104 177.189 153.104C177.832 153.104 178.342 152.854 178.721 152.353C179.099 151.847 179.288 151.14 179.288 150.233C179.288 149.422 179.094 148.766 178.707 148.265C178.324 147.759 177.814 147.506 177.176 147.506C176.551 147.506 176.048 147.754 175.665 148.251C175.282 148.748 175.091 149.459 175.091 150.384Z" fill="black"/>
<path d="M36.8984 190.742H31.9688V194.773H37.6953V196H30.4688V184.625H37.6172V185.859H31.9688V189.516H36.8984V190.742ZM40.7031 187.547L40.75 188.609C41.3958 187.797 42.2396 187.391 43.2812 187.391C45.0677 187.391 45.9688 188.398 45.9844 190.414V196H44.5391V190.406C44.5339 189.797 44.3932 189.346 44.1172 189.055C43.8464 188.763 43.4219 188.617 42.8438 188.617C42.375 188.617 41.9635 188.742 41.6094 188.992C41.2552 189.242 40.9792 189.57 40.7812 189.977V196H39.3359V187.547H40.7031ZM50.125 185.5V187.547H51.7031V188.664H50.125V193.906C50.125 194.245 50.1953 194.5 50.3359 194.672C50.4766 194.839 50.7161 194.922 51.0547 194.922C51.2214 194.922 51.4505 194.891 51.7422 194.828V196C51.362 196.104 50.9922 196.156 50.6328 196.156C49.987 196.156 49.5 195.961 49.1719 195.57C48.8438 195.18 48.6797 194.625 48.6797 193.906V188.664H47.1406V187.547H48.6797V185.5H50.125ZM56.9062 196.156C55.7604 196.156 54.8281 195.781 54.1094 195.031C53.3906 194.276 53.0312 193.268 53.0312 192.008V191.742C53.0312 190.904 53.1901 190.156 53.5078 189.5C53.8307 188.839 54.2786 188.323 54.8516 187.953C55.4297 187.578 56.0547 187.391 56.7266 187.391C57.8255 187.391 58.6797 187.753 59.2891 188.477C59.8984 189.201 60.2031 190.237 60.2031 191.586V192.188H54.4766C54.4974 193.021 54.7396 193.695 55.2031 194.211C55.6719 194.721 56.2656 194.977 56.9844 194.977C57.4948 194.977 57.9271 194.872 58.2812 194.664C58.6354 194.456 58.9453 194.18 59.2109 193.836L60.0938 194.523C59.3854 195.612 58.3229 196.156 56.9062 196.156ZM56.7266 188.578C56.1432 188.578 55.6536 188.792 55.2578 189.219C54.862 189.641 54.6172 190.234 54.5234 191H58.7578V190.891C58.7161 190.156 58.5182 189.589 58.1641 189.188C57.8099 188.781 57.3307 188.578 56.7266 188.578ZM65.9688 188.844C65.75 188.807 65.513 188.789 65.2578 188.789C64.3099 188.789 63.6667 189.193 63.3281 190V196H61.8828V187.547H63.2891L63.3125 188.523C63.7865 187.768 64.4583 187.391 65.3281 187.391C65.6094 187.391 65.8229 187.427 65.9688 187.5V188.844ZM73.2344 185.5V187.547H74.8125V188.664H73.2344V193.906C73.2344 194.245 73.3047 194.5 73.4453 194.672C73.5859 194.839 73.8255 194.922 74.1641 194.922C74.3307 194.922 74.5599 194.891 74.8516 194.828V196C74.4714 196.104 74.1016 196.156 73.7422 196.156C73.0964 196.156 72.6094 195.961 72.2812 195.57C71.9531 195.18 71.7891 194.625 71.7891 193.906V188.664H70.25V187.547H71.7891V185.5H73.2344ZM77.9531 188.57C78.5938 187.784 79.4271 187.391 80.4531 187.391C82.2396 187.391 83.1406 188.398 83.1562 190.414V196H81.7109V190.406C81.7057 189.797 81.5651 189.346 81.2891 189.055C81.0182 188.763 80.5938 188.617 80.0156 188.617C79.5469 188.617 79.1354 188.742 78.7812 188.992C78.4271 189.242 78.151 189.57 77.9531 189.977V196H76.5078V184H77.9531V188.57ZM88.8281 196.156C87.6823 196.156 86.75 195.781 86.0312 195.031C85.3125 194.276 84.9531 193.268 84.9531 192.008V191.742C84.9531 190.904 85.112 190.156 85.4297 189.5C85.7526 188.839 86.2005 188.323 86.7734 187.953C87.3516 187.578 87.9766 187.391 88.6484 187.391C89.7474 187.391 90.6016 187.753 91.2109 188.477C91.8203 189.201 92.125 190.237 92.125 191.586V192.188H86.3984C86.4193 193.021 86.6615 193.695 87.125 194.211C87.5938 194.721 88.1875 194.977 88.9062 194.977C89.4167 194.977 89.849 194.872 90.2031 194.664C90.5573 194.456 90.8672 194.18 91.1328 193.836L92.0156 194.523C91.3073 195.612 90.2448 196.156 88.8281 196.156ZM88.6484 188.578C88.0651 188.578 87.5755 188.792 87.1797 189.219C86.7839 189.641 86.5391 190.234 86.4453 191H90.6797V190.891C90.638 190.156 90.4401 189.589 90.0859 189.188C89.7318 188.781 89.2526 188.578 88.6484 188.578ZM100.562 194.039L102.656 187.547H104.133L101.102 196H100L96.9375 187.547H98.4141L100.562 194.039ZM108.922 196.156C107.776 196.156 106.844 195.781 106.125 195.031C105.406 194.276 105.047 193.268 105.047 192.008V191.742C105.047 190.904 105.206 190.156 105.523 189.5C105.846 188.839 106.294 188.323 106.867 187.953C107.445 187.578 108.07 187.391 108.742 187.391C109.841 187.391 110.695 187.753 111.305 188.477C111.914 189.201 112.219 190.237 112.219 191.586V192.188H106.492C106.513 193.021 106.755 193.695 107.219 194.211C107.688 194.721 108.281 194.977 109 194.977C109.51 194.977 109.943 194.872 110.297 194.664C110.651 194.456 110.961 194.18 111.227 193.836L112.109 194.523C111.401 195.612 110.339 196.156 108.922 196.156ZM108.742 188.578C108.159 188.578 107.669 188.792 107.273 189.219C106.878 189.641 106.633 190.234 106.539 191H110.773V190.891C110.732 190.156 110.534 189.589 110.18 189.188C109.826 188.781 109.346 188.578 108.742 188.578ZM117.984 188.844C117.766 188.807 117.529 188.789 117.273 188.789C116.326 188.789 115.682 189.193 115.344 190V196H113.898V187.547H115.305L115.328 188.523C115.802 187.768 116.474 187.391 117.344 187.391C117.625 187.391 117.839 187.427 117.984 187.5V188.844ZM120.891 196H119.445V187.547H120.891V196ZM119.328 185.305C119.328 185.07 119.398 184.872 119.539 184.711C119.685 184.549 119.898 184.469 120.18 184.469C120.461 184.469 120.674 184.549 120.82 184.711C120.966 184.872 121.039 185.07 121.039 185.305C121.039 185.539 120.966 185.734 120.82 185.891C120.674 186.047 120.461 186.125 120.18 186.125C119.898 186.125 119.685 186.047 119.539 185.891C119.398 185.734 119.328 185.539 119.328 185.305ZM123.695 196V188.664H122.359V187.547H123.695V186.828C123.695 185.885 123.964 185.151 124.5 184.625C125.042 184.099 125.805 183.836 126.789 183.836C127.372 183.836 128.109 183.995 129 184.312L128.758 185.531C128.107 185.271 127.487 185.141 126.898 185.141C126.279 185.141 125.831 185.281 125.555 185.562C125.284 185.839 125.148 186.255 125.148 186.812V187.547H126.875V188.664H125.148V196H123.695ZM129.719 196H128.266V187.547H129.719V196ZM135.461 194.977C135.977 194.977 136.427 194.82 136.812 194.508C137.198 194.195 137.411 193.805 137.453 193.336H138.82C138.794 193.82 138.628 194.281 138.32 194.719C138.013 195.156 137.602 195.505 137.086 195.766C136.576 196.026 136.034 196.156 135.461 196.156C134.31 196.156 133.393 195.773 132.711 195.008C132.034 194.237 131.695 193.185 131.695 191.852V191.609C131.695 190.786 131.846 190.055 132.148 189.414C132.451 188.773 132.883 188.276 133.445 187.922C134.013 187.568 134.682 187.391 135.453 187.391C136.401 187.391 137.188 187.674 137.812 188.242C138.443 188.81 138.779 189.547 138.82 190.453H137.453C137.411 189.906 137.203 189.458 136.828 189.109C136.458 188.755 136 188.578 135.453 188.578C134.719 188.578 134.148 188.844 133.742 189.375C133.341 189.901 133.141 190.664 133.141 191.664V191.938C133.141 192.911 133.341 193.661 133.742 194.188C134.143 194.714 134.716 194.977 135.461 194.977ZM145.664 196C145.581 195.833 145.513 195.536 145.461 195.109C144.789 195.807 143.987 196.156 143.055 196.156C142.221 196.156 141.536 195.922 141 195.453C140.469 194.979 140.203 194.38 140.203 193.656C140.203 192.776 140.536 192.094 141.203 191.609C141.875 191.12 142.818 190.875 144.031 190.875H145.438V190.211C145.438 189.706 145.286 189.305 144.984 189.008C144.682 188.706 144.237 188.555 143.648 188.555C143.133 188.555 142.701 188.685 142.352 188.945C142.003 189.206 141.828 189.521 141.828 189.891H140.375C140.375 189.469 140.523 189.062 140.82 188.672C141.122 188.276 141.529 187.964 142.039 187.734C142.555 187.505 143.12 187.391 143.734 187.391C144.708 187.391 145.471 187.635 146.023 188.125C146.576 188.609 146.862 189.279 146.883 190.133V194.023C146.883 194.799 146.982 195.417 147.18 195.875V196H145.664ZM143.266 194.898C143.719 194.898 144.148 194.781 144.555 194.547C144.961 194.312 145.255 194.008 145.438 193.633V191.898H144.305C142.534 191.898 141.648 192.417 141.648 193.453C141.648 193.906 141.799 194.26 142.102 194.516C142.404 194.771 142.792 194.898 143.266 194.898ZM151.109 185.5V187.547H152.688V188.664H151.109V193.906C151.109 194.245 151.18 194.5 151.32 194.672C151.461 194.839 151.701 194.922 152.039 194.922C152.206 194.922 152.435 194.891 152.727 194.828V196C152.346 196.104 151.977 196.156 151.617 196.156C150.971 196.156 150.484 195.961 150.156 195.57C149.828 195.18 149.664 194.625 149.664 193.906V188.664H148.125V187.547H149.664V185.5H151.109ZM155.953 196H154.508V187.547H155.953V196ZM154.391 185.305C154.391 185.07 154.461 184.872 154.602 184.711C154.747 184.549 154.961 184.469 155.242 184.469C155.523 184.469 155.737 184.549 155.883 184.711C156.029 184.872 156.102 185.07 156.102 185.305C156.102 185.539 156.029 185.734 155.883 185.891C155.737 186.047 155.523 186.125 155.242 186.125C154.961 186.125 154.747 186.047 154.602 185.891C154.461 185.734 154.391 185.539 154.391 185.305ZM157.891 191.695C157.891 190.867 158.052 190.122 158.375 189.461C158.703 188.799 159.156 188.289 159.734 187.93C160.318 187.57 160.982 187.391 161.727 187.391C162.878 187.391 163.807 187.789 164.516 188.586C165.229 189.383 165.586 190.443 165.586 191.766V191.867C165.586 192.69 165.427 193.43 165.109 194.086C164.797 194.737 164.346 195.245 163.758 195.609C163.174 195.974 162.503 196.156 161.742 196.156C160.596 196.156 159.667 195.758 158.953 194.961C158.245 194.164 157.891 193.109 157.891 191.797V191.695ZM159.344 191.867C159.344 192.805 159.56 193.557 159.992 194.125C160.43 194.693 161.013 194.977 161.742 194.977C162.477 194.977 163.06 194.69 163.492 194.117C163.924 193.539 164.141 192.732 164.141 191.695C164.141 190.768 163.919 190.018 163.477 189.445C163.039 188.867 162.456 188.578 161.727 188.578C161.013 188.578 160.438 188.862 160 189.43C159.562 189.997 159.344 190.81 159.344 191.867ZM168.766 187.547L168.812 188.609C169.458 187.797 170.302 187.391 171.344 187.391C173.13 187.391 174.031 188.398 174.047 190.414V196H172.602V190.406C172.596 189.797 172.456 189.346 172.18 189.055C171.909 188.763 171.484 188.617 170.906 188.617C170.438 188.617 170.026 188.742 169.672 188.992C169.318 189.242 169.042 189.57 168.844 189.977V196H167.398V187.547H168.766ZM183.586 194.977C184.102 194.977 184.552 194.82 184.938 194.508C185.323 194.195 185.536 193.805 185.578 193.336H186.945C186.919 193.82 186.753 194.281 186.445 194.719C186.138 195.156 185.727 195.505 185.211 195.766C184.701 196.026 184.159 196.156 183.586 196.156C182.435 196.156 181.518 195.773 180.836 195.008C180.159 194.237 179.82 193.185 179.82 191.852V191.609C179.82 190.786 179.971 190.055 180.273 189.414C180.576 188.773 181.008 188.276 181.57 187.922C182.138 187.568 182.807 187.391 183.578 187.391C184.526 187.391 185.312 187.674 185.938 188.242C186.568 188.81 186.904 189.547 186.945 190.453H185.578C185.536 189.906 185.328 189.458 184.953 189.109C184.583 188.755 184.125 188.578 183.578 188.578C182.844 188.578 182.273 188.844 181.867 189.375C181.466 189.901 181.266 190.664 181.266 191.664V191.938C181.266 192.911 181.466 193.661 181.867 194.188C182.268 194.714 182.841 194.977 183.586 194.977ZM188.188 191.695C188.188 190.867 188.349 190.122 188.672 189.461C189 188.799 189.453 188.289 190.031 187.93C190.615 187.57 191.279 187.391 192.023 187.391C193.174 187.391 194.104 187.789 194.812 188.586C195.526 189.383 195.883 190.443 195.883 191.766V191.867C195.883 192.69 195.724 193.43 195.406 194.086C195.094 194.737 194.643 195.245 194.055 195.609C193.471 195.974 192.799 196.156 192.039 196.156C190.893 196.156 189.964 195.758 189.25 194.961C188.542 194.164 188.188 193.109 188.188 191.797V191.695ZM189.641 191.867C189.641 192.805 189.857 193.557 190.289 194.125C190.727 194.693 191.31 194.977 192.039 194.977C192.773 194.977 193.357 194.69 193.789 194.117C194.221 193.539 194.438 192.732 194.438 191.695C194.438 190.768 194.216 190.018 193.773 189.445C193.336 188.867 192.753 188.578 192.023 188.578C191.31 188.578 190.734 188.862 190.297 189.43C189.859 189.997 189.641 190.81 189.641 191.867ZM197.344 191.703C197.344 190.406 197.651 189.365 198.266 188.578C198.88 187.786 199.685 187.391 200.68 187.391C201.669 187.391 202.453 187.729 203.031 188.406V184H204.477V196H203.148L203.078 195.094C202.5 195.802 201.695 196.156 200.664 196.156C199.685 196.156 198.885 195.755 198.266 194.953C197.651 194.151 197.344 193.104 197.344 191.812V191.703ZM198.789 191.867C198.789 192.826 198.987 193.576 199.383 194.117C199.779 194.659 200.326 194.93 201.023 194.93C201.94 194.93 202.609 194.518 203.031 193.695V189.812C202.599 189.016 201.935 188.617 201.039 188.617C200.331 188.617 199.779 188.891 199.383 189.438C198.987 189.984 198.789 190.794 198.789 191.867ZM210.234 196.156C209.089 196.156 208.156 195.781 207.438 195.031C206.719 194.276 206.359 193.268 206.359 192.008V191.742C206.359 190.904 206.518 190.156 206.836 189.5C207.159 188.839 207.607 188.323 208.18 187.953C208.758 187.578 209.383 187.391 210.055 187.391C211.154 187.391 212.008 187.753 212.617 188.477C213.227 189.201 213.531 190.237 213.531 191.586V192.188H207.805C207.826 193.021 208.068 193.695 208.531 194.211C209 194.721 209.594 194.977 210.312 194.977C210.823 194.977 211.255 194.872 211.609 194.664C211.964 194.456 212.273 194.18 212.539 193.836L213.422 194.523C212.714 195.612 211.651 196.156 210.234 196.156ZM210.055 188.578C209.471 188.578 208.982 188.792 208.586 189.219C208.19 189.641 207.945 190.234 207.852 191H212.086V190.891C212.044 190.156 211.846 189.589 211.492 189.188C211.138 188.781 210.659 188.578 210.055 188.578ZM224.102 193.758C224.102 193.367 223.953 193.065 223.656 192.852C223.365 192.633 222.852 192.445 222.117 192.289C221.388 192.133 220.807 191.945 220.375 191.727C219.948 191.508 219.63 191.247 219.422 190.945C219.219 190.643 219.117 190.284 219.117 189.867C219.117 189.174 219.409 188.589 219.992 188.109C220.581 187.63 221.331 187.391 222.242 187.391C223.201 187.391 223.977 187.638 224.57 188.133C225.169 188.628 225.469 189.26 225.469 190.031H224.016C224.016 189.635 223.846 189.294 223.508 189.008C223.174 188.721 222.753 188.578 222.242 188.578C221.716 188.578 221.305 188.693 221.008 188.922C220.711 189.151 220.562 189.451 220.562 189.82C220.562 190.169 220.701 190.432 220.977 190.609C221.253 190.786 221.75 190.956 222.469 191.117C223.193 191.279 223.779 191.471 224.227 191.695C224.674 191.919 225.005 192.19 225.219 192.508C225.438 192.82 225.547 193.203 225.547 193.656C225.547 194.411 225.245 195.018 224.641 195.477C224.036 195.93 223.253 196.156 222.289 196.156C221.612 196.156 221.013 196.036 220.492 195.797C219.971 195.557 219.562 195.224 219.266 194.797C218.974 194.365 218.828 193.898 218.828 193.398H220.273C220.299 193.883 220.492 194.268 220.852 194.555C221.216 194.836 221.695 194.977 222.289 194.977C222.836 194.977 223.273 194.867 223.602 194.648C223.935 194.424 224.102 194.128 224.102 193.758ZM230.938 196.156C229.792 196.156 228.859 195.781 228.141 195.031C227.422 194.276 227.062 193.268 227.062 192.008V191.742C227.062 190.904 227.221 190.156 227.539 189.5C227.862 188.839 228.31 188.323 228.883 187.953C229.461 187.578 230.086 187.391 230.758 187.391C231.857 187.391 232.711 187.753 233.32 188.477C233.93 189.201 234.234 190.237 234.234 191.586V192.188H228.508C228.529 193.021 228.771 193.695 229.234 194.211C229.703 194.721 230.297 194.977 231.016 194.977C231.526 194.977 231.958 194.872 232.312 194.664C232.667 194.456 232.977 194.18 233.242 193.836L234.125 194.523C233.417 195.612 232.354 196.156 230.938 196.156ZM230.758 188.578C230.174 188.578 229.685 188.792 229.289 189.219C228.893 189.641 228.648 190.234 228.555 191H232.789V190.891C232.747 190.156 232.549 189.589 232.195 189.188C231.841 188.781 231.362 188.578 230.758 188.578ZM237.281 187.547L237.328 188.609C237.974 187.797 238.818 187.391 239.859 187.391C241.646 187.391 242.547 188.398 242.562 190.414V196H241.117V190.406C241.112 189.797 240.971 189.346 240.695 189.055C240.424 188.763 240 188.617 239.422 188.617C238.953 188.617 238.542 188.742 238.188 188.992C237.833 189.242 237.557 189.57 237.359 189.977V196H235.914V187.547H237.281ZM246.703 185.5V187.547H248.281V188.664H246.703V193.906C246.703 194.245 246.773 194.5 246.914 194.672C247.055 194.839 247.294 194.922 247.633 194.922C247.799 194.922 248.029 194.891 248.32 194.828V196C247.94 196.104 247.57 196.156 247.211 196.156C246.565 196.156 246.078 195.961 245.75 195.57C245.422 195.18 245.258 194.625 245.258 193.906V188.664H243.719V187.547H245.258V185.5H246.703ZM255.906 185.5V187.547H257.484V188.664H255.906V193.906C255.906 194.245 255.977 194.5 256.117 194.672C256.258 194.839 256.497 194.922 256.836 194.922C257.003 194.922 257.232 194.891 257.523 194.828V196C257.143 196.104 256.773 196.156 256.414 196.156C255.768 196.156 255.281 195.961 254.953 195.57C254.625 195.18 254.461 194.625 254.461 193.906V188.664H252.922V187.547H254.461V185.5H255.906ZM258.641 191.695C258.641 190.867 258.802 190.122 259.125 189.461C259.453 188.799 259.906 188.289 260.484 187.93C261.068 187.57 261.732 187.391 262.477 187.391C263.628 187.391 264.557 187.789 265.266 188.586C265.979 189.383 266.336 190.443 266.336 191.766V191.867C266.336 192.69 266.177 193.43 265.859 194.086C265.547 194.737 265.096 195.245 264.508 195.609C263.924 195.974 263.253 196.156 262.492 196.156C261.346 196.156 260.417 195.758 259.703 194.961C258.995 194.164 258.641 193.109 258.641 191.797V191.695ZM260.094 191.867C260.094 192.805 260.31 193.557 260.742 194.125C261.18 194.693 261.763 194.977 262.492 194.977C263.227 194.977 263.81 194.69 264.242 194.117C264.674 193.539 264.891 192.732 264.891 191.695C264.891 190.768 264.669 190.018 264.227 189.445C263.789 188.867 263.206 188.578 262.477 188.578C261.763 188.578 261.188 188.862 260.75 189.43C260.312 189.997 260.094 190.81 260.094 191.867Z" fill="black"/>
<path d="M274.883 193.883L276.852 187.547H278.398L275 197.305C274.474 198.711 273.638 199.414 272.492 199.414L272.219 199.391L271.68 199.289V198.117L272.07 198.148C272.56 198.148 272.94 198.049 273.211 197.852C273.487 197.654 273.714 197.292 273.891 196.766L274.211 195.906L271.195 187.547H272.773L274.883 193.883ZM279.188 191.695C279.188 190.867 279.349 190.122 279.672 189.461C280 188.799 280.453 188.289 281.031 187.93C281.615 187.57 282.279 187.391 283.023 187.391C284.174 187.391 285.104 187.789 285.812 188.586C286.526 189.383 286.883 190.443 286.883 191.766V191.867C286.883 192.69 286.724 193.43 286.406 194.086C286.094 194.737 285.643 195.245 285.055 195.609C284.471 195.974 283.799 196.156 283.039 196.156C281.893 196.156 280.964 195.758 280.25 194.961C279.542 194.164 279.188 193.109 279.188 191.797V191.695ZM280.641 191.867C280.641 192.805 280.857 193.557 281.289 194.125C281.727 194.693 282.31 194.977 283.039 194.977C283.773 194.977 284.357 194.69 284.789 194.117C285.221 193.539 285.438 192.732 285.438 191.695C285.438 190.768 285.216 190.018 284.773 189.445C284.336 188.867 283.753 188.578 283.023 188.578C282.31 188.578 281.734 188.862 281.297 189.43C280.859 189.997 280.641 190.81 280.641 191.867ZM293.914 195.164C293.352 195.826 292.526 196.156 291.438 196.156C290.536 196.156 289.849 195.896 289.375 195.375C288.906 194.849 288.669 194.073 288.664 193.047V187.547H290.109V193.008C290.109 194.289 290.63 194.93 291.672 194.93C292.776 194.93 293.51 194.518 293.875 193.695V187.547H295.32V196H293.945L293.914 195.164ZM301.609 188.844C301.391 188.807 301.154 188.789 300.898 188.789C299.951 188.789 299.307 189.193 298.969 190V196H297.523V187.547H298.93L298.953 188.523C299.427 187.768 300.099 187.391 300.969 187.391C301.25 187.391 301.464 187.427 301.609 187.5V188.844ZM150.602 215.156C149.456 215.156 148.523 214.781 147.805 214.031C147.086 213.276 146.727 212.268 146.727 211.008V210.742C146.727 209.904 146.885 209.156 147.203 208.5C147.526 207.839 147.974 207.323 148.547 206.953C149.125 206.578 149.75 206.391 150.422 206.391C151.521 206.391 152.375 206.753 152.984 207.477C153.594 208.201 153.898 209.237 153.898 210.586V211.188H148.172C148.193 212.021 148.435 212.695 148.898 213.211C149.367 213.721 149.961 213.977 150.68 213.977C151.19 213.977 151.622 213.872 151.977 213.664C152.331 213.456 152.641 213.18 152.906 212.836L153.789 213.523C153.081 214.612 152.018 215.156 150.602 215.156ZM150.422 207.578C149.839 207.578 149.349 207.792 148.953 208.219C148.557 208.641 148.312 209.234 148.219 210H152.453V209.891C152.411 209.156 152.214 208.589 151.859 208.188C151.505 207.781 151.026 207.578 150.422 207.578ZM156.938 206.547L156.977 207.484C157.596 206.755 158.432 206.391 159.484 206.391C160.667 206.391 161.471 206.844 161.898 207.75C162.18 207.344 162.544 207.016 162.992 206.766C163.445 206.516 163.979 206.391 164.594 206.391C166.448 206.391 167.391 207.372 167.422 209.336V215H165.977V209.422C165.977 208.818 165.839 208.367 165.562 208.07C165.286 207.768 164.823 207.617 164.172 207.617C163.635 207.617 163.19 207.779 162.836 208.102C162.482 208.419 162.276 208.849 162.219 209.391V215H160.766V209.461C160.766 208.232 160.164 207.617 158.961 207.617C158.013 207.617 157.365 208.021 157.016 208.828V215H155.57V206.547H156.938ZM174.828 215C174.745 214.833 174.677 214.536 174.625 214.109C173.953 214.807 173.151 215.156 172.219 215.156C171.385 215.156 170.701 214.922 170.164 214.453C169.633 213.979 169.367 213.38 169.367 212.656C169.367 211.776 169.701 211.094 170.367 210.609C171.039 210.12 171.982 209.875 173.195 209.875H174.602V209.211C174.602 208.706 174.451 208.305 174.148 208.008C173.846 207.706 173.401 207.555 172.812 207.555C172.297 207.555 171.865 207.685 171.516 207.945C171.167 208.206 170.992 208.521 170.992 208.891H169.539C169.539 208.469 169.688 208.062 169.984 207.672C170.286 207.276 170.693 206.964 171.203 206.734C171.719 206.505 172.284 206.391 172.898 206.391C173.872 206.391 174.635 206.635 175.188 207.125C175.74 207.609 176.026 208.279 176.047 209.133V213.023C176.047 213.799 176.146 214.417 176.344 214.875V215H174.828ZM172.43 213.898C172.883 213.898 173.312 213.781 173.719 213.547C174.125 213.312 174.419 213.008 174.602 212.633V210.898H173.469C171.698 210.898 170.812 211.417 170.812 212.453C170.812 212.906 170.964 213.26 171.266 213.516C171.568 213.771 171.956 213.898 172.43 213.898ZM179.883 215H178.438V206.547H179.883V215ZM178.32 204.305C178.32 204.07 178.391 203.872 178.531 203.711C178.677 203.549 178.891 203.469 179.172 203.469C179.453 203.469 179.667 203.549 179.812 203.711C179.958 203.872 180.031 204.07 180.031 204.305C180.031 204.539 179.958 204.734 179.812 204.891C179.667 205.047 179.453 205.125 179.172 205.125C178.891 205.125 178.677 205.047 178.531 204.891C178.391 204.734 178.32 204.539 178.32 204.305ZM183.773 215H182.328V203H183.773V215Z" fill="#FF0000"/>
</svg>
