<svg width="601" height="77" viewBox="0 0 601 77" fill="none" xmlns="http://www.w3.org/2000/svg">
<path d="M184 75C190.233 64.05 190.233 12.9502 184 2.00022L371 2C364.767 12.9499 364.767 64.0498 371 75H184Z" stroke="black" stroke-width="3.5"/>
<path d="M258.272 48.9621C235.371 48.9621 246.821 23.4123 258.272 38.0122C263.616 35.822 252.165 27.0621 246.821 32.172C246.821 19.7621 226.973 26.3319 234.607 32.1721C237.661 32.9021 238.424 29.2521 236.516 28.5221C242.241 25.6021 245.295 30.7121 243.768 34.3621C237.661 48.9621 249.875 51.882 258.272 51.882H296.441C303.311 51.882 317.052 48.9621 310.945 34.3621C310.182 32.9021 312.472 25.6021 318.197 28.5221C316.289 29.2521 317.052 32.9021 320.106 32.1721C327.74 26.3321 311.708 19.7621 307.892 32.1721C302.548 27.0621 291.097 35.822 296.441 38.0122C307.892 23.4123 319.342 48.9621 296.441 48.9621H258.272Z" fill="black" stroke="black" stroke-width="2"/>
<path d="M192.938 41.9043C193.385 53.342 191.095 67.212 189.899 70.6222C211.615 70.6222 253.956 70.862 269.723 70.862C279.466 70.862 204.072 65.022 192.938 41.9043Z" fill="black" stroke="black" stroke-width="2"/>
<path d="M361.444 35.1104C360.997 23.6726 363.287 9.80268 364.482 6.39247C342.767 6.39247 300.425 6.15268 284.659 6.15268C274.915 6.15268 350.309 11.9927 361.444 35.1104Z" fill="black" stroke="black" stroke-width="2"/>
<path fill-rule="evenodd" clip-rule="evenodd" d="M278.142 28.9758C278.598 28.5744 279.189 28.4677 279.953 28.8091C280.627 29.1104 281.001 29.5659 281.154 30.1176C281.804 29.748 282.486 29.7724 283.171 30.4289C283.697 30.9325 283.885 31.4829 283.832 32.0513C284.575 31.9166 285.207 32.1627 285.616 33.0037C285.93 33.6486 285.91 34.2273 285.657 34.7439C286.403 34.8603 286.909 35.2984 286.993 36.2225C287.387 40.5706 276.873 38.4676 276.762 38.3439L276.76 38.3431L276.759 38.3429C276.758 38.3431 276.757 38.3431 276.757 38.3429C276.757 38.3429 276.748 38.2406 276.736 38.0569C275.531 38.3439 265.358 40.6578 266.479 36.6743C266.673 35.9819 267.083 35.5494 267.631 35.3108C267.149 34.766 267.062 34.124 267.614 33.3717C268.084 32.7308 268.684 32.4647 269.351 32.4604C269.127 31.815 269.291 31.2071 270.053 30.6977C270.657 30.2942 271.251 30.21 271.822 30.3533C271.622 29.389 271.912 28.6309 273.054 28.3392C273.801 28.1485 274.412 28.2848 274.911 28.6434C275.209 28.2024 275.706 27.9643 276.471 28.0291C277.269 28.0965 277.804 28.4456 278.142 28.9758Z" fill="black"/>
<path d="M279.953 28.8091L279.545 29.722L279.953 28.8091ZM278.142 28.9758L277.3 29.5143L277.928 30.4973L278.803 29.7263L278.142 28.9758ZM281.154 30.1176L280.19 30.3846L280.533 31.621L281.648 30.9869L281.154 30.1176ZM283.171 30.4289L282.48 31.151L282.48 31.151L283.171 30.4289ZM283.832 32.0513L282.836 31.9573L282.712 33.2706L284.01 33.0353L283.832 32.0513ZM285.616 33.0037L284.717 33.4411V33.4412L285.616 33.0037ZM285.657 34.7439L284.759 34.3031L284.16 35.5225L285.503 35.7319L285.657 34.7439ZM286.993 36.2225L285.997 36.3127L286.993 36.2225ZM276.762 38.3439L277.504 37.6741L277.385 37.5424L277.229 37.4596L276.762 38.3439ZM276.76 38.3431L277.227 37.4587L277.088 37.3855L276.934 37.3582L276.76 38.3431ZM276.759 38.3429L276.933 37.358L276.729 37.3222L276.529 37.3698L276.759 38.3429ZM276.757 38.3429L275.76 38.4266L275.814 39.0667L276.419 39.284L276.757 38.3429ZM276.736 38.0569L277.734 37.9916L277.657 36.8096L276.504 37.0841L276.736 38.0569ZM266.479 36.6743L265.516 36.4035H265.516L266.479 36.6743ZM267.631 35.3108L268.03 36.2276L269.291 35.6786L268.38 34.6484L267.631 35.3108ZM267.614 33.3717L266.808 32.7801L266.808 32.7801L267.614 33.3717ZM269.351 32.4604L269.358 33.4604L270.753 33.4515L270.296 32.1327L269.351 32.4604ZM270.053 30.6977L269.498 29.8663V29.8663L270.053 30.6977ZM271.822 30.3533L271.578 31.3232L273.124 31.7111L272.801 30.1508L271.822 30.3533ZM273.054 28.3392L272.807 27.3703H272.807L273.054 28.3392ZM274.911 28.6434L274.327 29.4553L275.163 30.0568L275.74 29.2029L274.911 28.6434ZM276.471 28.0291L276.556 27.0326H276.555L276.471 28.0291ZM280.361 27.8962C279.857 27.671 279.338 27.5613 278.819 27.6203C278.292 27.6803 277.844 27.9062 277.482 28.2254L278.803 29.7263C278.897 29.644 278.972 29.6158 279.045 29.6075C279.127 29.5981 279.285 29.6058 279.545 29.722L280.361 27.8962ZM282.117 29.8505C281.878 28.986 281.282 28.3079 280.361 27.8962L279.545 29.722C279.972 29.9128 280.124 30.1458 280.19 30.3846L282.117 29.8505ZM283.863 29.7068C283.404 29.2671 282.872 28.9706 282.273 28.8961C281.674 28.8216 281.125 28.9837 280.66 29.2483L281.648 30.9869C281.833 30.8819 281.95 30.8714 282.026 30.8808C282.102 30.8903 282.253 30.9343 282.48 31.151L283.863 29.7068ZM284.827 32.1454C284.912 31.2495 284.592 30.4051 283.863 29.7068L282.48 31.151C282.802 31.4599 282.859 31.7162 282.836 31.9573L284.827 32.1454ZM286.516 32.5663C286.238 31.9955 285.837 31.5354 285.293 31.2657C284.752 30.9972 284.179 30.9721 283.653 31.0674L284.01 33.0353C284.228 32.9958 284.342 33.0263 284.405 33.0575C284.465 33.0874 284.586 33.1708 284.717 33.4411L286.516 32.5663ZM286.554 35.1846C286.951 34.3772 286.957 33.4741 286.516 32.5663L284.717 33.4412C284.903 33.8232 284.87 34.0775 284.759 34.3031L286.554 35.1846ZM287.989 36.1324C287.932 35.5015 287.718 34.928 287.294 34.4873C286.874 34.0496 286.337 33.8379 285.811 33.7558L285.503 35.7319C285.723 35.7662 285.813 35.8318 285.853 35.8734C285.89 35.9118 285.971 36.0195 285.997 36.3127L287.989 36.1324ZM276.019 39.0138C276.131 39.1373 276.246 39.2021 276.274 39.2179C276.321 39.2441 276.361 39.2618 276.383 39.2714C276.429 39.2911 276.471 39.3049 276.495 39.3127C276.547 39.3295 276.603 39.3446 276.653 39.3574C276.757 39.3838 276.892 39.4141 277.049 39.4463C277.366 39.5112 277.803 39.5896 278.317 39.6654C279.342 39.8164 280.706 39.9613 282.068 39.9601C283.402 39.9589 284.853 39.8189 285.981 39.3202C286.556 39.0656 287.106 38.6921 287.491 38.1393C287.889 37.5692 288.057 36.8869 287.989 36.1324L285.997 36.3127C286.027 36.6452 285.953 36.8483 285.851 36.9949C285.737 37.1589 285.528 37.3335 285.172 37.4912C284.435 37.8172 283.325 37.959 282.066 37.9601C280.834 37.9612 279.574 37.829 278.609 37.6867C278.128 37.6159 277.728 37.5437 277.45 37.4869C277.31 37.4582 277.208 37.435 277.146 37.4191C277.113 37.4107 277.103 37.4075 277.109 37.4094C277.11 37.4098 277.133 37.4169 277.166 37.4309C277.182 37.4376 277.216 37.4527 277.258 37.4764C277.282 37.4899 277.395 37.5525 277.504 37.6741L276.019 39.0138ZM276.293 39.2274L276.295 39.2283L277.229 37.4596L277.227 37.4587L276.293 39.2274ZM276.585 39.3277L276.587 39.3279L276.934 37.3582L276.933 37.358L276.585 39.3277ZM276.419 39.284C276.686 39.3799 276.911 39.3345 276.989 39.316L276.529 37.3698C276.579 37.3579 276.652 37.3447 276.741 37.3432C276.829 37.3417 276.955 37.3514 277.095 37.4018L276.419 39.284ZM275.738 38.1222C275.745 38.2174 275.75 38.2922 275.754 38.3438C275.756 38.3696 275.757 38.3896 275.758 38.4035C275.759 38.4105 275.759 38.4159 275.76 38.4198C275.76 38.4217 275.76 38.4232 275.76 38.4244C275.76 38.4249 275.76 38.4254 275.76 38.4258C275.76 38.426 275.76 38.4261 275.76 38.4263C275.76 38.4263 275.76 38.4264 275.76 38.4264C275.76 38.4265 275.76 38.4265 275.76 38.4265C275.76 38.4265 275.76 38.4266 275.76 38.4266C275.76 38.4266 275.76 38.4266 276.757 38.3429C277.753 38.2592 277.753 38.2592 277.753 38.2592C277.753 38.2592 277.753 38.2593 277.753 38.2593C277.753 38.2593 277.753 38.2593 277.753 38.2593C277.753 38.2594 277.753 38.2594 277.753 38.2594C277.753 38.2594 277.753 38.2594 277.753 38.2594C277.753 38.2594 277.753 38.2593 277.753 38.2591C277.753 38.2586 277.753 38.2578 277.753 38.2565C277.753 38.2541 277.753 38.2501 277.752 38.2446C277.751 38.2336 277.75 38.2165 277.748 38.1938C277.745 38.1483 277.74 38.08 277.734 37.9916L275.738 38.1222ZM276.504 37.0841C275.909 37.2259 273.143 37.8562 270.69 37.968C269.434 38.0253 268.421 37.9361 267.823 37.6878C267.542 37.5708 267.453 37.4597 267.426 37.4099C267.409 37.378 267.353 37.2606 267.441 36.945L265.516 36.4035C265.325 37.0838 265.342 37.7655 265.671 38.3684C265.99 38.9534 266.522 39.3128 267.056 39.5346C268.088 39.9638 269.483 40.0251 270.781 39.966C273.436 39.845 276.358 39.1749 276.968 39.0296L276.504 37.0841ZM267.441 36.945C267.555 36.5393 267.759 36.3454 268.03 36.2276L267.231 34.3939C266.406 34.7534 265.791 35.4245 265.516 36.4035L267.441 36.945ZM266.808 32.7801C266.438 33.2847 266.211 33.851 266.236 34.4589C266.26 35.0689 266.531 35.5766 266.881 35.9731L268.38 34.6484C268.249 34.5001 268.235 34.4145 268.234 34.3792C268.232 34.3419 268.239 34.211 268.42 33.9632L266.808 32.7801ZM269.345 31.4604C268.369 31.4666 267.47 31.8779 266.808 32.7801L268.42 33.9632C268.699 33.5837 268.998 33.4627 269.358 33.4604L269.345 31.4604ZM269.498 29.8663C268.994 30.203 268.593 30.6361 268.393 31.1852C268.19 31.7423 268.236 32.2974 268.406 32.7881L270.296 32.1327C270.242 31.9779 270.259 31.9064 270.272 31.871C270.288 31.8274 270.35 31.7019 270.609 31.5291L269.498 29.8663ZM272.065 29.3834C271.209 29.1686 270.327 29.3122 269.498 29.8663L270.609 31.5291C270.987 31.2761 271.292 31.2515 271.578 31.3232L272.065 29.3834ZM272.807 27.3703C272.052 27.563 271.418 27.9565 271.058 28.6127C270.711 29.2456 270.716 29.9458 270.842 30.5559L272.801 30.1508C272.728 29.7965 272.778 29.6355 272.811 29.5754C272.831 29.5386 272.914 29.4071 273.302 29.3082L272.807 27.3703ZM275.495 27.8316C274.744 27.2917 273.826 27.1101 272.807 27.3703L273.302 29.3082C273.777 29.1869 274.08 29.278 274.327 29.4553L275.495 27.8316ZM276.555 27.0326C275.515 26.9447 274.627 27.277 274.082 28.084L275.74 29.2029C275.785 29.1361 275.832 29.0979 275.898 29.0705C275.974 29.0391 276.123 29.0031 276.387 29.0255L276.555 27.0326ZM278.985 28.4374C278.469 27.6297 277.645 27.1247 276.556 27.0326L276.387 29.0255C276.892 29.0682 277.138 29.2615 277.3 29.5143L278.985 28.4374Z" fill="black"/>
<path d="M3.68438 56.16L7.04438 55.32V19.48L3.68438 18.64V17.8H33.6444V27.88H31.9644C31.255 27.32 30.639 26.6107 30.1164 25.752C28.9217 23.736 28.3244 21.552 28.3244 19.2H16.2844V36.84H22.7244C22.9857 35.4213 23.471 34.096 24.1804 32.864C24.479 32.304 24.8337 31.7627 25.2444 31.24H26.9244V43.84H25.2444C24.8337 43.3173 24.479 42.776 24.1804 42.216C23.471 40.984 22.9857 39.6587 22.7244 38.24H16.2844V55.6H29.4444C29.4444 53.248 30.0417 51.064 31.2364 49.048C31.759 48.1893 32.375 47.48 33.0844 46.92H34.7644V57H3.68438V56.16ZM38.4044 30.68L35.6044 29.84V29H42.6044C44.5457 29 46.0764 29.4107 47.1964 30.232C48.3537 31.016 49.343 32.192 50.1644 33.76L56.8284 46.696L63.0444 31.52L58.8444 29.84V29H69.2044V29.84L64.7244 31.52L54.0844 57.56H52.4044L38.4044 30.68ZM85.1666 57.84C80.3879 57.84 76.6732 56.5333 74.0226 53.92C71.3719 51.2693 70.0466 47.6293 70.0466 43C70.0466 39.976 70.6252 37.344 71.7826 35.104C72.9399 32.864 74.5452 31.1467 76.5986 29.952C78.6892 28.7573 81.0786 28.16 83.7666 28.16C86.4546 28.16 88.8066 28.664 90.8226 29.672C92.8759 30.68 94.4439 32.0427 95.5266 33.76C96.6466 35.44 97.2066 37.3067 97.2066 39.36C97.2066 40.2933 97.1132 41.096 96.9266 41.768L96.6466 42.72C95.0412 43.056 93.3052 43.336 91.4386 43.56C87.5186 44.12 83.5612 44.4 79.5666 44.4C79.5666 48.7307 80.1639 51.8293 81.3586 53.696C82.5532 55.5253 84.1959 56.44 86.2866 56.44C87.7426 56.44 89.0866 56.104 90.3186 55.432C91.5879 54.7227 92.5772 53.808 93.2866 52.688C94.0332 51.5307 94.4066 50.3547 94.4066 49.16H95.8066C95.8066 50.6533 95.3586 52.072 94.4626 53.416C93.5666 54.76 92.3159 55.8427 90.7106 56.664C89.1052 57.448 87.2572 57.84 85.1666 57.84ZM79.5666 43C81.9559 43 83.8972 42.9067 85.3906 42.72C86.0252 42.6827 86.6972 42.5893 87.4066 42.44C87.4439 42.2533 87.5372 41.8427 87.6866 41.208C87.8732 40.2747 87.9666 39.2853 87.9666 38.24C87.9666 35.1413 87.5559 32.8827 86.7346 31.464C85.9132 30.008 84.9239 29.28 83.7666 29.28C80.9666 29.28 79.5666 33.8533 79.5666 43ZM102.222 56.16L105.582 55.32V30.68L102.222 29.84V29H107.262C109.465 29 111.201 29.7093 112.47 31.128C112.956 31.688 113.366 32.3787 113.702 33.2C114.225 32.2293 114.841 31.3893 115.55 30.68C117.23 29 119.321 28.16 121.822 28.16C123.913 28.16 125.78 28.608 127.422 29.504C129.102 30.3627 130.409 31.5013 131.342 32.92C132.276 34.3387 132.743 35.832 132.743 37.4V55.32L136.103 56.16V57H128.823C125.462 57 123.782 55.32 123.782 51.96V37.4C123.782 35.048 123.353 33.256 122.494 32.024C121.673 30.7547 120.702 30.12 119.582 30.12C118.164 30.12 116.894 30.8667 115.774 32.36C115.289 32.9947 114.878 33.7413 114.542 34.6V55.32L117.902 56.16V57H102.222V56.16ZM154.865 57.84C152.401 57.84 150.254 57.392 148.425 56.496C146.633 55.6 145.251 54.368 144.281 52.8C143.31 51.232 142.825 49.4587 142.825 47.48V30.4H138.905V29H142.825V26.2C142.825 22.84 144.505 21.16 147.865 21.16H151.785V29H159.625V30.4H151.785V47.48C151.785 50.9147 152.139 53.2667 152.849 54.536C153.558 55.8053 154.603 56.44 155.985 56.44C157.329 56.44 158.505 55.7867 159.513 54.48C160.521 53.1733 161.025 51.4 161.025 49.16H162.425C162.425 51.9227 161.734 54.0693 160.353 55.6C158.971 57.0933 157.142 57.84 154.865 57.84Z" fill="black"/>
<path d="M390.552 56.16L393.912 55.32V19.48L390.552 18.64V17.8H404.832C411.514 17.8 416.629 19.5173 420.176 22.952C423.76 26.3867 425.552 31.2027 425.552 37.4C425.552 43.5973 423.76 48.4133 420.176 51.848C416.629 55.2827 411.514 57 404.832 57H390.552V56.16ZM404.832 55.6C408.304 55.6 410.992 54.2 412.896 51.4C414.8 48.5627 415.752 43.896 415.752 37.4C415.752 30.904 414.8 26.256 412.896 23.456C410.992 20.6187 408.304 19.2 404.832 19.2H403.152V55.6H404.832ZM430.863 56.16L434.223 55.32V30.68L430.863 29.84V29H435.903C438.105 29 439.841 29.7093 441.111 31.128C441.596 31.688 442.007 32.3787 442.343 33.2C442.903 32.3787 443.593 31.632 444.415 30.96C446.281 29.4667 448.372 28.72 450.687 28.72C452.665 28.72 454.14 29.1867 455.111 30.12C456.119 31.016 456.623 32.3227 456.623 34.04C456.623 35.3093 456.231 36.336 455.447 37.12C454.7 37.8667 453.692 38.24 452.423 38.24C451.9 38.24 451.377 38.2027 450.855 38.128L450.183 37.96V30.12C448.279 30.12 446.543 30.8667 444.975 32.36C444.228 33.1067 443.631 33.8533 443.183 34.6V55.32L446.543 56.16V57H430.863V56.16ZM469.803 57.84C466.48 57.84 463.923 57.1307 462.131 55.712C460.339 54.2933 459.443 52.4827 459.443 50.28C459.443 48.824 459.76 47.3867 460.395 45.968C460.656 45.296 460.992 44.68 461.403 44.12C462.933 43.7467 464.595 43.4107 466.387 43.112C470.419 42.44 473.984 42.0293 477.083 41.88V40.2C477.083 36.056 476.579 33.2 475.571 31.632C474.563 30.064 473.013 29.28 470.923 29.28C470.139 29.28 469.467 29.3733 468.907 29.56L468.123 29.84V38.24L467.395 38.408C466.797 38.4827 466.293 38.52 465.883 38.52C464.613 38.52 463.587 38.1467 462.803 37.4C462.056 36.616 461.683 35.5893 461.683 34.32C461.683 32.6027 462.541 31.1467 464.259 29.952C466.013 28.7573 468.608 28.16 472.043 28.16C474.955 28.16 477.456 28.6827 479.547 29.728C481.675 30.736 483.28 32.1547 484.363 33.984C485.483 35.776 486.043 37.848 486.043 40.2V55.32L489.403 56.16V57H484.363C482.123 57 480.387 56.3093 479.155 54.928C478.632 54.368 478.221 53.6587 477.923 52.8C477.4 53.7333 476.784 54.5733 476.075 55.32C474.395 57 472.304 57.84 469.803 57.84ZM472.043 55.88C473.424 55.88 474.675 55.1333 475.795 53.64C476.205 53.08 476.635 52.3333 477.083 51.4V43.28C475.365 43.28 473.723 43.3733 472.155 43.56C470.997 43.7093 470.213 43.8027 469.803 43.84C469.616 44.2507 469.429 44.8107 469.243 45.52C468.869 46.9387 468.683 48.3387 468.683 49.72C468.683 51.8107 469 53.36 469.635 54.368C470.269 55.376 471.072 55.88 472.043 55.88ZM491.975 30.68L489.175 29.84V29H495.615C497.594 29 499.162 29.4107 500.319 30.232C501.476 31.0533 502.428 32.2293 503.175 33.76L509.335 46.64L512.527 38.464L508.775 30.68L505.975 29.84V29H512.415C514.394 29 515.962 29.4107 517.119 30.232C518.276 31.0533 519.228 32.2293 519.975 33.76L526.135 46.64L532.015 31.52L527.815 29.84V29H538.175V29.84L533.695 31.52L523.335 57.56H521.655L513.367 40.312L506.535 57.56H504.855L491.975 30.68ZM554.159 57.84C549.38 57.84 545.666 56.5333 543.015 53.92C540.364 51.2693 539.039 47.6293 539.039 43C539.039 39.976 539.618 37.344 540.775 35.104C541.932 32.864 543.538 31.1467 545.591 29.952C547.682 28.7573 550.071 28.16 552.759 28.16C555.447 28.16 557.799 28.664 559.815 29.672C561.868 30.68 563.436 32.0427 564.519 33.76C565.639 35.44 566.199 37.3067 566.199 39.36C566.199 40.2933 566.106 41.096 565.919 41.768L565.639 42.72C564.034 43.056 562.298 43.336 560.431 43.56C556.511 44.12 552.554 44.4 548.559 44.4C548.559 48.7307 549.156 51.8293 550.351 53.696C551.546 55.5253 553.188 56.44 555.279 56.44C556.735 56.44 558.079 56.104 559.311 55.432C560.58 54.7227 561.57 53.808 562.279 52.688C563.026 51.5307 563.399 50.3547 563.399 49.16H564.799C564.799 50.6533 564.351 52.072 563.455 53.416C562.559 54.76 561.308 55.8427 559.703 56.664C558.098 57.448 556.25 57.84 554.159 57.84ZM548.559 43C550.948 43 552.89 42.9067 554.383 42.72C555.018 42.6827 555.69 42.5893 556.399 42.44C556.436 42.2533 556.53 41.8427 556.679 41.208C556.866 40.2747 556.959 39.2853 556.959 38.24C556.959 35.1413 556.548 32.8827 555.727 31.464C554.906 30.008 553.916 29.28 552.759 29.28C549.959 29.28 548.559 33.8533 548.559 43ZM571.215 56.16L574.575 55.32V30.68L571.215 29.84V29H576.255C578.458 29 580.194 29.7093 581.463 31.128C581.948 31.688 582.359 32.3787 582.695 33.2C583.255 32.3787 583.946 31.632 584.767 30.96C586.634 29.4667 588.724 28.72 591.039 28.72C593.018 28.72 594.492 29.1867 595.463 30.12C596.471 31.016 596.975 32.3227 596.975 34.04C596.975 35.3093 596.583 36.336 595.799 37.12C595.052 37.8667 594.044 38.24 592.775 38.24C592.252 38.24 591.73 38.2027 591.207 38.128L590.535 37.96V30.12C588.631 30.12 586.895 30.8667 585.327 32.36C584.58 33.1067 583.983 33.8533 583.535 34.6V55.32L586.895 56.16V57H571.215V56.16Z" fill="black"/>
</svg>
