<svg width="607" height="289" viewBox="0 0 607 289" fill="none" xmlns="http://www.w3.org/2000/svg">
<rect x="1" y="1" width="110.714" height="287" fill="#F3EAEA" stroke="#82321D" stroke-width="2"/>
<rect x="124.517" y="48.6372" width="110.714" height="238.785" fill="#F3EAEA" stroke="#82321D" stroke-width="2"/>
<rect x="248.034" y="97.7183" width="110.714" height="190.282" fill="#F3EAEA" stroke="#82321D" stroke-width="2"/>
<path d="M18.3575 256.425C19.4295 256.425 20.4055 256.641 21.2855 257.073C22.1655 257.505 22.8615 258.121 23.3735 258.921C23.8855 259.705 24.1415 260.617 24.1415 261.657C24.1415 262.777 23.8615 263.761 23.3015 264.609C22.7415 265.457 21.9735 266.113 20.9975 266.577C20.0375 267.025 18.9655 267.249 17.7815 267.249C15.4295 267.249 13.5895 266.529 12.2615 265.089C10.9335 263.649 10.2695 261.593 10.2695 258.921C10.2695 257.017 10.6295 255.385 11.3495 254.025C12.0695 252.665 13.0695 251.633 14.3495 250.929C15.6455 250.225 17.1415 249.873 18.8375 249.873C19.7335 249.873 20.5895 249.977 21.4055 250.185C22.2375 250.377 22.9415 250.657 23.5175 251.025L22.0775 253.881C21.2455 253.321 20.1975 253.041 18.9335 253.041C17.5095 253.041 16.3815 253.457 15.5495 254.289C14.7175 255.121 14.2695 256.329 14.2055 257.913C15.1975 256.921 16.5815 256.425 18.3575 256.425ZM17.5655 264.345C18.3975 264.345 19.0695 264.121 19.5815 263.673C20.1095 263.225 20.3735 262.617 20.3735 261.849C20.3735 261.081 20.1095 260.473 19.5815 260.025C19.0695 259.561 18.3815 259.329 17.5175 259.329C16.6695 259.329 15.9735 259.569 15.4295 260.049C14.8855 260.513 14.6135 261.113 14.6135 261.849C14.6135 262.585 14.8775 263.185 15.4055 263.649C15.9335 264.113 16.6535 264.345 17.5655 264.345ZM38.609 250.161V252.681L32.369 266.961H28.145L34.169 253.329H28.601V256.065H25.145V250.161H38.609ZM44.2038 259.185C43.0358 259.185 42.0918 258.761 41.3718 257.913C40.6518 257.065 40.2918 255.961 40.2918 254.601C40.2918 253.241 40.6518 252.137 41.3718 251.289C42.0918 250.441 43.0358 250.017 44.2038 250.017C45.3718 250.017 46.3078 250.441 47.0118 251.289C47.7318 252.121 48.0918 253.225 48.0918 254.601C48.0918 255.977 47.7318 257.089 47.0118 257.937C46.3078 258.769 45.3718 259.185 44.2038 259.185ZM54.3318 250.161H56.1798L44.7078 266.961H42.8598L54.3318 250.161ZM44.2038 257.817C44.9398 257.817 45.5158 257.537 45.9318 256.977C46.3478 256.401 46.5558 255.609 46.5558 254.601C46.5558 253.593 46.3478 252.809 45.9318 252.249C45.5158 251.673 44.9398 251.385 44.2038 251.385C43.4838 251.385 42.9078 251.673 42.4758 252.249C42.0598 252.825 41.8518 253.609 41.8518 254.601C41.8518 255.593 42.0598 256.377 42.4758 256.953C42.9078 257.529 43.4838 257.817 44.2038 257.817ZM54.8358 267.105C53.6678 267.105 52.7238 266.689 52.0038 265.857C51.2998 265.009 50.9478 263.897 50.9478 262.521C50.9478 261.145 51.2998 260.041 52.0038 259.209C52.7238 258.361 53.6678 257.937 54.8358 257.937C56.0038 257.937 56.9478 258.361 57.6678 259.209C58.3878 260.057 58.7478 261.161 58.7478 262.521C58.7478 263.881 58.3878 264.985 57.6678 265.833C56.9478 266.681 56.0038 267.105 54.8358 267.105ZM54.8358 265.737C55.5558 265.737 56.1238 265.449 56.5398 264.873C56.9718 264.297 57.1878 263.513 57.1878 262.521C57.1878 261.529 56.9718 260.745 56.5398 260.169C56.1238 259.593 55.5558 259.305 54.8358 259.305C54.0998 259.305 53.5238 259.593 53.1078 260.169C52.6918 260.729 52.4838 261.513 52.4838 262.521C52.4838 263.529 52.6918 264.321 53.1078 264.897C53.5238 265.457 54.0998 265.737 54.8358 265.737Z" fill="#82321D"/>
<path d="M139.29 256.473C141.658 256.473 143.402 256.945 144.522 257.889C145.658 258.833 146.226 260.097 146.226 261.681C146.226 262.705 145.97 263.641 145.458 264.489C144.946 265.321 144.162 265.993 143.106 266.505C142.066 267.001 140.778 267.249 139.242 267.249C138.058 267.249 136.89 267.097 135.738 266.793C134.602 266.473 133.634 266.025 132.834 265.449L134.37 262.473C135.01 262.953 135.746 263.329 136.578 263.601C137.41 263.857 138.266 263.985 139.146 263.985C140.122 263.985 140.89 263.793 141.45 263.409C142.01 263.025 142.29 262.489 142.29 261.801C142.29 261.081 141.994 260.537 141.402 260.169C140.826 259.801 139.818 259.617 138.378 259.617H134.082L134.946 250.161H145.194V253.281H138.186L137.922 256.473H139.29ZM155.891 256.425C156.963 256.425 157.939 256.641 158.819 257.073C159.699 257.505 160.395 258.121 160.907 258.921C161.419 259.705 161.675 260.617 161.675 261.657C161.675 262.777 161.395 263.761 160.835 264.609C160.275 265.457 159.507 266.113 158.531 266.577C157.571 267.025 156.499 267.249 155.315 267.249C152.963 267.249 151.123 266.529 149.795 265.089C148.467 263.649 147.803 261.593 147.803 258.921C147.803 257.017 148.163 255.385 148.883 254.025C149.603 252.665 150.603 251.633 151.883 250.929C153.179 250.225 154.675 249.873 156.371 249.873C157.267 249.873 158.123 249.977 158.939 250.185C159.771 250.377 160.475 250.657 161.051 251.025L159.611 253.881C158.779 253.321 157.731 253.041 156.467 253.041C155.043 253.041 153.915 253.457 153.083 254.289C152.251 255.121 151.803 256.329 151.739 257.913C152.731 256.921 154.115 256.425 155.891 256.425ZM155.099 264.345C155.931 264.345 156.603 264.121 157.115 263.673C157.643 263.225 157.907 262.617 157.907 261.849C157.907 261.081 157.643 260.473 157.115 260.025C156.603 259.561 155.915 259.329 155.051 259.329C154.203 259.329 153.507 259.569 152.963 260.049C152.419 260.513 152.147 261.113 152.147 261.849C152.147 262.585 152.411 263.185 152.939 263.649C153.467 264.113 154.187 264.345 155.099 264.345ZM166.949 259.185C165.781 259.185 164.837 258.761 164.117 257.913C163.397 257.065 163.037 255.961 163.037 254.601C163.037 253.241 163.397 252.137 164.117 251.289C164.837 250.441 165.781 250.017 166.949 250.017C168.117 250.017 169.053 250.441 169.757 251.289C170.477 252.121 170.837 253.225 170.837 254.601C170.837 255.977 170.477 257.089 169.757 257.937C169.053 258.769 168.117 259.185 166.949 259.185ZM177.077 250.161H178.925L167.453 266.961H165.605L177.077 250.161ZM166.949 257.817C167.685 257.817 168.261 257.537 168.677 256.977C169.093 256.401 169.301 255.609 169.301 254.601C169.301 253.593 169.093 252.809 168.677 252.249C168.261 251.673 167.685 251.385 166.949 251.385C166.229 251.385 165.653 251.673 165.221 252.249C164.805 252.825 164.597 253.609 164.597 254.601C164.597 255.593 164.805 256.377 165.221 256.953C165.653 257.529 166.229 257.817 166.949 257.817ZM177.581 267.105C176.413 267.105 175.469 266.689 174.749 265.857C174.045 265.009 173.693 263.897 173.693 262.521C173.693 261.145 174.045 260.041 174.749 259.209C175.469 258.361 176.413 257.937 177.581 257.937C178.749 257.937 179.693 258.361 180.413 259.209C181.133 260.057 181.493 261.161 181.493 262.521C181.493 263.881 181.133 264.985 180.413 265.833C179.693 266.681 178.749 267.105 177.581 267.105ZM177.581 265.737C178.301 265.737 178.869 265.449 179.285 264.873C179.717 264.297 179.933 263.513 179.933 262.521C179.933 261.529 179.717 260.745 179.285 260.169C178.869 259.593 178.301 259.305 177.581 259.305C176.845 259.305 176.269 259.593 175.853 260.169C175.437 260.729 175.229 261.513 175.229 262.521C175.229 263.529 175.437 264.321 175.853 264.897C176.269 265.457 176.845 265.737 177.581 265.737Z" fill="#82321D"/>
<path d="M272.72 263.433H269.984V266.961H266.192V263.433H257.144V260.817L265.064 250.161H269.144L261.8 260.265H266.312V257.121H269.984V260.265H272.72V263.433ZM289.267 263.433H286.531V266.961H282.739V263.433H273.691V260.817L281.611 250.161H285.691L278.347 260.265H282.859V257.121H286.531V260.265H289.267V263.433ZM294.294 259.185C293.126 259.185 292.182 258.761 291.462 257.913C290.742 257.065 290.382 255.961 290.382 254.601C290.382 253.241 290.742 252.137 291.462 251.289C292.182 250.441 293.126 250.017 294.294 250.017C295.462 250.017 296.398 250.441 297.102 251.289C297.822 252.121 298.182 253.225 298.182 254.601C298.182 255.977 297.822 257.089 297.102 257.937C296.398 258.769 295.462 259.185 294.294 259.185ZM304.422 250.161H306.27L294.798 266.961H292.95L304.422 250.161ZM294.294 257.817C295.03 257.817 295.606 257.537 296.022 256.977C296.438 256.401 296.646 255.609 296.646 254.601C296.646 253.593 296.438 252.809 296.022 252.249C295.606 251.673 295.03 251.385 294.294 251.385C293.574 251.385 292.998 251.673 292.566 252.249C292.15 252.825 291.942 253.609 291.942 254.601C291.942 255.593 292.15 256.377 292.566 256.953C292.998 257.529 293.574 257.817 294.294 257.817ZM304.926 267.105C303.758 267.105 302.814 266.689 302.094 265.857C301.39 265.009 301.038 263.897 301.038 262.521C301.038 261.145 301.39 260.041 302.094 259.209C302.814 258.361 303.758 257.937 304.926 257.937C306.094 257.937 307.038 258.361 307.758 259.209C308.478 260.057 308.838 261.161 308.838 262.521C308.838 263.881 308.478 264.985 307.758 265.833C307.038 266.681 306.094 267.105 304.926 267.105ZM304.926 265.737C305.646 265.737 306.214 265.449 306.63 264.873C307.062 264.297 307.278 263.513 307.278 262.521C307.278 261.529 307.062 260.745 306.63 260.169C306.214 259.593 305.646 259.305 304.926 259.305C304.19 259.305 303.614 259.593 303.198 260.169C302.782 260.729 302.574 261.513 302.574 262.521C302.574 263.529 302.782 264.321 303.198 264.897C303.614 265.457 304.19 265.737 304.926 265.737Z" fill="#82321D"/>
<rect x="495.069" y="211.759" width="110.714" height="75.952" fill="#F3EAEA" stroke="#82321D" stroke-width="2"/>
<path d="M510.794 250.161V266.961H506.906V253.281H503.546V250.161H510.794ZM520.192 250.161V266.961H516.304V253.281H512.944V250.161H520.192ZM526.975 259.185C525.807 259.185 524.863 258.761 524.143 257.913C523.423 257.065 523.063 255.961 523.063 254.601C523.063 253.241 523.423 252.137 524.143 251.289C524.863 250.441 525.807 250.017 526.975 250.017C528.143 250.017 529.079 250.441 529.783 251.289C530.503 252.121 530.863 253.225 530.863 254.601C530.863 255.977 530.503 257.089 529.783 257.937C529.079 258.769 528.143 259.185 526.975 259.185ZM537.103 250.161H538.951L527.479 266.961H525.631L537.103 250.161ZM526.975 257.817C527.711 257.817 528.287 257.537 528.703 256.977C529.119 256.401 529.327 255.609 529.327 254.601C529.327 253.593 529.119 252.809 528.703 252.249C528.287 251.673 527.711 251.385 526.975 251.385C526.255 251.385 525.679 251.673 525.247 252.249C524.831 252.825 524.623 253.609 524.623 254.601C524.623 255.593 524.831 256.377 525.247 256.953C525.679 257.529 526.255 257.817 526.975 257.817ZM537.607 267.105C536.439 267.105 535.495 266.689 534.775 265.857C534.071 265.009 533.719 263.897 533.719 262.521C533.719 261.145 534.071 260.041 534.775 259.209C535.495 258.361 536.439 257.937 537.607 257.937C538.775 257.937 539.719 258.361 540.439 259.209C541.159 260.057 541.519 261.161 541.519 262.521C541.519 263.881 541.159 264.985 540.439 265.833C539.719 266.681 538.775 267.105 537.607 267.105ZM537.607 265.737C538.327 265.737 538.895 265.449 539.311 264.873C539.743 264.297 539.959 263.513 539.959 262.521C539.959 261.529 539.743 260.745 539.311 260.169C538.895 259.593 538.327 259.305 537.607 259.305C536.871 259.305 536.295 259.593 535.879 260.169C535.463 260.729 535.255 261.513 535.255 262.521C535.255 263.529 535.463 264.321 535.879 264.897C536.295 265.457 536.871 265.737 537.607 265.737Z" fill="#82321D"/>
<path d="M22.3329 16.2916C23.4742 16.2916 24.3755 16.5849 25.0369 17.1716C25.7089 17.7582 26.0449 18.5636 26.0449 19.5876C26.0449 20.6116 25.7089 21.4169 25.0369 22.0036C24.3755 22.5796 23.4742 22.8676 22.3329 22.8676H19.9809V26.8516H18.2689V16.2916H22.3329ZM22.0609 21.4116C22.8075 21.4116 23.3622 21.2622 23.7249 20.9636C24.0875 20.6542 24.2689 20.1956 24.2689 19.5876C24.2689 18.3609 23.5329 17.7476 22.0609 17.7476H19.9809V21.4116H22.0609ZM32.1881 18.6916C32.5615 18.6916 32.8548 18.7449 33.0681 18.8516L32.7961 20.4196C32.5508 20.2809 32.2148 20.2116 31.7881 20.2116C31.4468 20.2116 31.1215 20.3022 30.8121 20.4836C30.5135 20.6649 30.2628 20.9369 30.0601 21.2996C29.8681 21.6622 29.7721 22.0996 29.7721 22.6116V26.8516H28.0601V18.8516H29.5161L29.6601 20.2916C30.1081 19.2249 30.9508 18.6916 32.1881 18.6916ZM41.634 22.6116C41.634 22.9209 41.6127 23.2142 41.57 23.4916H35.714C35.81 24.1956 36.0607 24.7342 36.466 25.1076C36.8713 25.4702 37.394 25.6516 38.034 25.6516C38.5567 25.6516 38.9887 25.5609 39.33 25.3796C39.682 25.1876 39.922 24.9156 40.05 24.5636L41.474 25.1556C40.8767 26.3929 39.73 27.0116 38.034 27.0116C36.7753 27.0116 35.7887 26.6436 35.074 25.9076C34.37 25.1716 34.018 24.1529 34.018 22.8516C34.018 21.5396 34.3593 20.5209 35.042 19.7956C35.7247 19.0596 36.6847 18.6916 37.922 18.6916C39.0953 18.6916 40.0073 19.0489 40.658 19.7636C41.3087 20.4782 41.634 21.4276 41.634 22.6116ZM37.922 20.0516C37.3033 20.0516 36.802 20.2329 36.418 20.5956C36.0447 20.9582 35.81 21.4862 35.714 22.1796H40.034C39.9487 21.5076 39.7193 20.9849 39.346 20.6116C38.9833 20.2382 38.5087 20.0516 37.922 20.0516ZM51.1869 15.2516V26.8516H49.6829L49.5869 25.4276C49.3522 25.9076 48.9949 26.2916 48.5149 26.5796C48.0455 26.8676 47.5069 27.0116 46.8989 27.0116C45.8002 27.0116 44.9309 26.6489 44.2909 25.9236C43.6615 25.1876 43.3469 24.1689 43.3469 22.8676C43.3469 21.5662 43.6615 20.5476 44.2909 19.8116C44.9309 19.0649 45.8002 18.6916 46.8989 18.6916C47.4855 18.6916 48.0029 18.8249 48.4509 19.0916C48.8989 19.3476 49.2402 19.6996 49.4749 20.1476V15.2516H51.1869ZM47.2829 25.6356C47.9549 25.6356 48.4882 25.3956 48.8829 24.9156C49.2775 24.4356 49.4749 23.7796 49.4749 22.9476V22.7556C49.4749 21.9236 49.2775 21.2729 48.8829 20.8036C48.4882 20.3236 47.9549 20.0836 47.2829 20.0836C46.5895 20.0836 46.0455 20.3289 45.6509 20.8196C45.2669 21.2996 45.0749 21.9769 45.0749 22.8516C45.0749 23.7262 45.2669 24.4089 45.6509 24.8996C46.0455 25.3902 46.5895 25.6356 47.2829 25.6356ZM54.7054 17.5076C54.3427 17.5076 54.06 17.4169 53.8574 17.2356C53.6547 17.0436 53.5534 16.7769 53.5534 16.4356C53.5534 16.0942 53.6547 15.8329 53.8574 15.6516C54.06 15.4702 54.3427 15.3796 54.7054 15.3796C55.068 15.3796 55.3454 15.4702 55.5374 15.6516C55.74 15.8329 55.8414 16.0942 55.8414 16.4356C55.8414 16.7769 55.74 17.0436 55.5374 17.2356C55.3454 17.4169 55.068 17.5076 54.7054 17.5076ZM55.5534 26.8516H53.8414V18.8516H55.5534V26.8516ZM61.752 18.6916C63.5013 18.6916 64.6587 19.4382 65.224 20.9316L63.624 21.5716C63.3467 20.5582 62.7227 20.0516 61.752 20.0516C61.0373 20.0516 60.4827 20.2969 60.088 20.7876C59.6933 21.2782 59.496 21.9716 59.496 22.8676C59.496 23.7636 59.6933 24.4516 60.088 24.9316C60.4827 25.4116 61.0373 25.6516 61.752 25.6516C62.296 25.6516 62.7333 25.5182 63.064 25.2516C63.3947 24.9849 63.6133 24.6009 63.72 24.0996L65.288 24.6276C65.0533 25.3742 64.6373 25.9609 64.04 26.3876C63.4427 26.8036 62.6907 27.0116 61.784 27.0116C60.5253 27.0116 59.5387 26.6436 58.824 25.9076C58.12 25.1716 57.768 24.1529 57.768 22.8516C57.768 21.5502 58.12 20.5316 58.824 19.7956C59.528 19.0596 60.504 18.6916 61.752 18.6916ZM72.4785 26.3236C72.2225 26.5369 71.9078 26.7076 71.5345 26.8356C71.1718 26.9529 70.7772 27.0116 70.3505 27.0116C69.6145 27.0116 69.0225 26.8302 68.5745 26.4676C68.1372 26.0942 67.9132 25.5182 67.9025 24.7396V20.1956H66.3825V18.8516H67.9025V16.9796L69.6145 16.4996V18.8516H72.4145V20.1956H69.6145V24.4516C69.6145 24.8356 69.7158 25.1236 69.9185 25.3156C70.1318 25.4969 70.4198 25.5876 70.7825 25.5876C71.2732 25.5876 71.7052 25.4169 72.0785 25.0756L72.4785 26.3236ZM74.9397 17.5076C74.5771 17.5076 74.2944 17.4169 74.0917 17.2356C73.8891 17.0436 73.7877 16.7769 73.7877 16.4356C73.7877 16.0942 73.8891 15.8329 74.0917 15.6516C74.2944 15.4702 74.5771 15.3796 74.9397 15.3796C75.3024 15.3796 75.5797 15.4702 75.7717 15.6516C75.9744 15.8329 76.0757 16.0942 76.0757 16.4356C76.0757 16.7769 75.9744 17.0436 75.7717 17.2356C75.5797 17.4169 75.3024 17.5076 74.9397 17.5076ZM75.7877 26.8516H74.0757V18.8516H75.7877V26.8516ZM82.7704 18.6916C83.6557 18.6916 84.3757 18.9476 84.9304 19.4596C85.4957 19.9716 85.7784 20.7076 85.7784 21.6676V26.8516H84.0664V22.2116C84.0664 20.8036 83.4957 20.0996 82.3544 20.0996C81.757 20.0996 81.245 20.3076 80.8184 20.7236C80.3917 21.1289 80.1784 21.7582 80.1784 22.6116V26.8516H78.4664V18.8516H79.9864L80.0664 20.1796C80.333 19.6782 80.701 19.3049 81.1704 19.0596C81.6397 18.8142 82.173 18.6916 82.7704 18.6916ZM93.0286 25.6036C93.8393 25.6036 94.4686 25.7849 94.9166 26.1476C95.3646 26.5102 95.5886 27.0116 95.5886 27.6516C95.5886 28.1956 95.4073 28.6649 95.0446 29.0596C94.6926 29.4542 94.202 29.7582 93.5726 29.9716C92.954 30.1849 92.2553 30.2916 91.4766 30.2916C90.2073 30.2916 89.2526 30.1049 88.6126 29.7316C87.9833 29.3582 87.6686 28.8622 87.6686 28.2436C87.6686 27.8809 87.7913 27.5609 88.0366 27.2836C88.2926 27.0169 88.6446 26.8249 89.0926 26.7076C88.7513 26.5476 88.4793 26.3449 88.2766 26.0996C88.074 25.8436 87.9726 25.5396 87.9726 25.1876C87.9726 24.4089 88.3886 23.8756 89.2206 23.5876C88.8153 23.3529 88.506 23.0489 88.2926 22.6756C88.09 22.3022 87.9886 21.8756 87.9886 21.3956C87.9886 20.8622 88.1326 20.3929 88.4206 19.9876C88.7086 19.5716 89.114 19.2516 89.6366 19.0276C90.17 18.8036 90.778 18.6916 91.4606 18.6916C92.0473 18.6916 92.586 18.7769 93.0766 18.9476C93.226 18.3609 93.4926 17.9182 93.8766 17.6196C94.2713 17.3102 94.7886 17.1609 95.4286 17.1716L95.7166 18.4996C95.2046 18.4889 94.7886 18.5529 94.4686 18.6916C94.1593 18.8302 93.946 19.0382 93.8286 19.3156C94.1806 19.5609 94.4526 19.8596 94.6446 20.2116C94.8366 20.5636 94.9326 20.9582 94.9326 21.3956C94.9326 22.2169 94.6126 22.8729 93.9726 23.3636C93.3433 23.8542 92.506 24.0996 91.4606 24.0996C90.97 24.0996 90.5273 24.0516 90.1326 23.9556C89.866 24.0196 89.6686 24.1262 89.5406 24.2756C89.4233 24.4142 89.3646 24.6009 89.3646 24.8356C89.3646 25.0809 89.45 25.2729 89.6206 25.4116C89.802 25.5396 90.0473 25.6036 90.3566 25.6036H93.0286ZM91.4606 19.8916C90.97 19.8916 90.5593 20.0356 90.2286 20.3236C89.898 20.6009 89.7326 20.9582 89.7326 21.3956C89.7326 21.8436 89.898 22.2116 90.2286 22.4996C90.5593 22.7769 90.97 22.9156 91.4606 22.9156C91.962 22.9156 92.3726 22.7769 92.6926 22.4996C93.0233 22.2116 93.1886 21.8436 93.1886 21.3956C93.1886 20.9476 93.0233 20.5849 92.6926 20.3076C92.3726 20.0302 91.962 19.8916 91.4606 19.8916ZM91.6366 29.0116C92.4153 29.0116 93.0233 28.8996 93.4606 28.6756C93.898 28.4516 94.1166 28.1742 94.1166 27.8436C94.1166 27.5769 94.01 27.3742 93.7966 27.2356C93.5833 27.0969 93.226 27.0276 92.7246 27.0276H90.5646C90.0846 27.0276 89.722 27.1022 89.4766 27.2516C89.242 27.4009 89.1246 27.6089 89.1246 27.8756C89.1246 28.2382 89.3326 28.5156 89.7486 28.7076C90.1753 28.9102 90.8046 29.0116 91.6366 29.0116ZM20.519 44.7316C20.7537 44.7316 20.951 44.7102 21.111 44.6676L20.999 45.8196C20.711 45.9476 20.3803 46.0116 20.007 46.0116C19.5483 46.0116 19.1803 45.9209 18.903 45.7396C18.6363 45.5582 18.4603 45.2542 18.375 44.8276C18.1297 45.2009 17.767 45.4942 17.287 45.7076C16.807 45.9102 16.2683 46.0116 15.671 46.0116C14.8923 46.0116 14.263 45.8302 13.783 45.4676C13.303 45.1049 13.063 44.5876 13.063 43.9156C13.063 43.2862 13.3243 42.7582 13.847 42.3316C14.3697 41.8942 15.1483 41.5849 16.183 41.4036L18.215 41.0516V40.6196C18.215 40.1289 18.071 39.7449 17.783 39.4676C17.495 39.1796 17.095 39.0356 16.583 39.0356C15.527 39.0356 14.839 39.5156 14.519 40.4756L13.191 39.7716C13.383 39.1316 13.7723 38.6249 14.359 38.2516C14.9563 37.8782 15.687 37.6916 16.551 37.6916C17.5857 37.6916 18.407 37.9316 19.015 38.4116C19.623 38.8916 19.927 39.5956 19.927 40.5236V44.1396C19.927 44.3422 19.9697 44.4916 20.055 44.5876C20.151 44.6836 20.3057 44.7316 20.519 44.7316ZM16.039 44.7156C16.615 44.7156 17.1217 44.5769 17.559 44.2996C17.9963 44.0222 18.215 43.6542 18.215 43.1956V42.2356L16.471 42.5876C15.9163 42.6942 15.5057 42.8436 15.239 43.0356C14.9723 43.2276 14.839 43.4836 14.839 43.8036C14.839 44.1022 14.9403 44.3316 15.143 44.4916C15.3563 44.6409 15.655 44.7156 16.039 44.7156ZM33.3955 45.3236C33.1395 45.5369 32.8248 45.7076 32.4515 45.8356C32.0888 45.9529 31.6942 46.0116 31.2675 46.0116C30.5315 46.0116 29.9448 45.8302 29.5075 45.4676C29.0702 45.0942 28.8462 44.5182 28.8355 43.7396V39.1956H24.7395V43.4516C24.7395 43.8356 24.8355 44.1236 25.0275 44.3156C25.2302 44.4969 25.5075 44.5876 25.8595 44.5876C26.3502 44.5876 26.7715 44.4116 27.1235 44.0596L27.5395 45.3236C27.2942 45.5369 26.9848 45.7076 26.6115 45.8356C26.2488 45.9529 25.8595 46.0116 25.4435 46.0116C24.7182 46.0116 24.1368 45.8302 23.6995 45.4676C23.2622 45.0942 23.0382 44.5182 23.0275 43.7396V39.1956H21.5075V37.8516H23.0275V35.9796L24.7395 35.4996V37.8516H28.8355V35.9796L30.5475 35.4996V37.8516H33.3315V39.1956H30.5475V43.4516C30.5475 43.8356 30.6488 44.1236 30.8515 44.3156C31.0542 44.4969 31.3368 44.5876 31.6995 44.5876C31.9662 44.5876 32.2008 44.5449 32.4035 44.4596C32.6168 44.3742 32.8142 44.2462 32.9955 44.0756L33.3955 45.3236ZM42.1496 41.6116C42.1496 41.9209 42.1283 42.2142 42.0856 42.4916H36.2296C36.3256 43.1956 36.5763 43.7342 36.9816 44.1076C37.387 44.4702 37.9096 44.6516 38.5496 44.6516C39.0723 44.6516 39.5043 44.5609 39.8456 44.3796C40.1976 44.1876 40.4376 43.9156 40.5656 43.5636L41.9896 44.1556C41.3923 45.3929 40.2456 46.0116 38.5496 46.0116C37.291 46.0116 36.3043 45.6436 35.5896 44.9076C34.8856 44.1716 34.5336 43.1529 34.5336 41.8516C34.5336 40.5396 34.875 39.5209 35.5576 38.7956C36.2403 38.0596 37.2003 37.6916 38.4376 37.6916C39.611 37.6916 40.523 38.0489 41.1736 38.7636C41.8243 39.4782 42.1496 40.4276 42.1496 41.6116ZM38.4376 39.0516C37.819 39.0516 37.3176 39.2329 36.9336 39.5956C36.5603 39.9582 36.3256 40.4862 36.2296 41.1796H40.5496C40.4643 40.5076 40.235 39.9849 39.8616 39.6116C39.499 39.2382 39.0243 39.0516 38.4376 39.0516ZM48.5985 37.6916C49.4838 37.6916 50.2038 37.9476 50.7585 38.4596C51.3238 38.9716 51.6065 39.7076 51.6065 40.6676V45.8516H49.8945V41.2116C49.8945 39.8036 49.3238 39.0996 48.1825 39.0996C47.5852 39.0996 47.0732 39.3076 46.6465 39.7236C46.2198 40.1289 46.0065 40.7582 46.0065 41.6116V45.8516H44.2945V37.8516H45.8145L45.8945 39.1796C46.1612 38.6782 46.5292 38.3049 46.9985 38.0596C47.4678 37.8142 48.0012 37.6916 48.5985 37.6916ZM61.6087 34.2516V45.8516H60.1047L60.0087 44.4276C59.7741 44.9076 59.4167 45.2916 58.9367 45.5796C58.4674 45.8676 57.9287 46.0116 57.3207 46.0116C56.2221 46.0116 55.3527 45.6489 54.7127 44.9236C54.0834 44.1876 53.7687 43.1689 53.7687 41.8676C53.7687 40.5662 54.0834 39.5476 54.7127 38.8116C55.3527 38.0649 56.2221 37.6916 57.3207 37.6916C57.9074 37.6916 58.4247 37.8249 58.8727 38.0916C59.3207 38.3476 59.6621 38.6996 59.8967 39.1476V34.2516H61.6087ZM57.7047 44.6356C58.3767 44.6356 58.9101 44.3956 59.3047 43.9156C59.6994 43.4356 59.8967 42.7796 59.8967 41.9476V41.7556C59.8967 40.9236 59.6994 40.2729 59.3047 39.8036C58.9101 39.3236 58.3767 39.0836 57.7047 39.0836C57.0114 39.0836 56.4674 39.3289 56.0727 39.8196C55.6887 40.2996 55.4967 40.9769 55.4967 41.8516C55.4967 42.7262 55.6887 43.4089 56.0727 43.8996C56.4674 44.3902 57.0114 44.6356 57.7047 44.6356ZM71.1753 44.7316C71.4099 44.7316 71.6072 44.7102 71.7673 44.6676L71.6552 45.8196C71.3672 45.9476 71.0366 46.0116 70.6632 46.0116C70.2046 46.0116 69.8366 45.9209 69.5592 45.7396C69.2926 45.5582 69.1166 45.2542 69.0312 44.8276C68.7859 45.2009 68.4232 45.4942 67.9432 45.7076C67.4632 45.9102 66.9246 46.0116 66.3272 46.0116C65.5486 46.0116 64.9192 45.8302 64.4392 45.4676C63.9592 45.1049 63.7192 44.5876 63.7192 43.9156C63.7192 43.2862 63.9806 42.7582 64.5032 42.3316C65.0259 41.8942 65.8046 41.5849 66.8392 41.4036L68.8712 41.0516V40.6196C68.8712 40.1289 68.7272 39.7449 68.4392 39.4676C68.1512 39.1796 67.7512 39.0356 67.2392 39.0356C66.1832 39.0356 65.4952 39.5156 65.1752 40.4756L63.8472 39.7716C64.0392 39.1316 64.4286 38.6249 65.0152 38.2516C65.6126 37.8782 66.3432 37.6916 67.2072 37.6916C68.2419 37.6916 69.0632 37.9316 69.6712 38.4116C70.2792 38.8916 70.5832 39.5956 70.5832 40.5236V44.1396C70.5832 44.3422 70.6259 44.4916 70.7112 44.5876C70.8072 44.6836 70.9619 44.7316 71.1753 44.7316ZM66.6952 44.7156C67.2712 44.7156 67.7779 44.5769 68.2152 44.2996C68.6526 44.0222 68.8712 43.6542 68.8712 43.1956V42.2356L67.1272 42.5876C66.5726 42.6942 66.1619 42.8436 65.8952 43.0356C65.6286 43.2276 65.4952 43.4836 65.4952 43.8036C65.4952 44.1022 65.5966 44.3316 65.7992 44.4916C66.0126 44.6409 66.3112 44.7156 66.6952 44.7156ZM77.6922 37.6916C78.5776 37.6916 79.2976 37.9476 79.8522 38.4596C80.4176 38.9716 80.7002 39.7076 80.7002 40.6676V45.8516H78.9882V41.2116C78.9882 39.8036 78.4176 39.0996 77.2762 39.0996C76.6789 39.0996 76.1669 39.3076 75.7402 39.7236C75.3136 40.1289 75.1002 40.7582 75.1002 41.6116V45.8516H73.3882V37.8516H74.9082L74.9882 39.1796C75.2549 38.6782 75.6229 38.3049 76.0922 38.0596C76.5616 37.8142 77.0949 37.6916 77.6922 37.6916ZM86.8145 37.6916C88.5638 37.6916 89.7212 38.4382 90.2865 39.9316L88.6865 40.5716C88.4092 39.5582 87.7852 39.0516 86.8145 39.0516C86.0998 39.0516 85.5452 39.2969 85.1505 39.7876C84.7558 40.2782 84.5585 40.9716 84.5585 41.8676C84.5585 42.7636 84.7558 43.4516 85.1505 43.9316C85.5452 44.4116 86.0998 44.6516 86.8145 44.6516C87.3585 44.6516 87.7958 44.5182 88.1265 44.2516C88.4572 43.9849 88.6758 43.6009 88.7825 43.0996L90.3505 43.6276C90.1158 44.3742 89.6998 44.9609 89.1025 45.3876C88.5052 45.8036 87.7532 46.0116 86.8465 46.0116C85.5878 46.0116 84.6012 45.6436 83.8865 44.9076C83.1825 44.1716 82.8305 43.1529 82.8305 41.8516C82.8305 40.5502 83.1825 39.5316 83.8865 38.7956C84.5905 38.0596 85.5665 37.6916 86.8145 37.6916ZM99.509 41.6116C99.509 41.9209 99.4877 42.2142 99.445 42.4916H93.589C93.685 43.1956 93.9357 43.7342 94.341 44.1076C94.7463 44.4702 95.269 44.6516 95.909 44.6516C96.4317 44.6516 96.8637 44.5609 97.205 44.3796C97.557 44.1876 97.797 43.9156 97.925 43.5636L99.349 44.1556C98.7517 45.3929 97.605 46.0116 95.909 46.0116C94.6503 46.0116 93.6637 45.6436 92.949 44.9076C92.245 44.1716 91.893 43.1529 91.893 41.8516C91.893 40.5396 92.2343 39.5209 92.917 38.7956C93.5997 38.0596 94.5597 37.6916 95.797 37.6916C96.9703 37.6916 97.8823 38.0489 98.533 38.7636C99.1837 39.4782 99.509 40.4276 99.509 41.6116ZM95.797 39.0516C95.1783 39.0516 94.677 39.2329 94.293 39.5956C93.9197 39.9582 93.685 40.4862 93.589 41.1796H97.909C97.8237 40.5076 97.5943 39.9849 97.221 39.6116C96.8583 39.2382 96.3837 39.0516 95.797 39.0516Z" fill="#82321D"/>
<path d="M155.029 65.1708V68.2268H159.669V69.7148H155.029V74.2588H153.317V63.6988H160.949V65.1708H155.029ZM169.167 70.0188C169.167 70.3281 169.146 70.6215 169.103 70.8988H163.247C163.343 71.6028 163.594 72.1415 163.999 72.5148C164.404 72.8775 164.927 73.0588 165.567 73.0588C166.09 73.0588 166.522 72.9681 166.863 72.7868C167.215 72.5948 167.455 72.3228 167.583 71.9708L169.007 72.5628C168.41 73.8001 167.263 74.4188 165.567 74.4188C164.308 74.4188 163.322 74.0508 162.607 73.3148C161.903 72.5788 161.551 71.5601 161.551 70.2588C161.551 68.9468 161.892 67.9281 162.575 67.2028C163.258 66.4668 164.218 66.0988 165.455 66.0988C166.628 66.0988 167.54 66.4561 168.191 67.1708C168.842 67.8855 169.167 68.8348 169.167 70.0188ZM165.455 67.4588C164.836 67.4588 164.335 67.6401 163.951 68.0028C163.578 68.3655 163.343 68.8935 163.247 69.5868H167.567C167.482 68.9148 167.252 68.3921 166.879 68.0188C166.516 67.6455 166.042 67.4588 165.455 67.4588ZM178.464 70.0188C178.464 70.3281 178.442 70.6215 178.4 70.8988H172.544C172.64 71.6028 172.89 72.1415 173.296 72.5148C173.701 72.8775 174.224 73.0588 174.864 73.0588C175.386 73.0588 175.818 72.9681 176.16 72.7868C176.512 72.5948 176.752 72.3228 176.88 71.9708L178.304 72.5628C177.706 73.8001 176.56 74.4188 174.864 74.4188C173.605 74.4188 172.618 74.0508 171.904 73.3148C171.2 72.5788 170.848 71.5601 170.848 70.2588C170.848 68.9468 171.189 67.9281 171.872 67.2028C172.554 66.4668 173.514 66.0988 174.752 66.0988C175.925 66.0988 176.837 66.4561 177.488 67.1708C178.138 67.8855 178.464 68.8348 178.464 70.0188ZM174.752 67.4588C174.133 67.4588 173.632 67.6401 173.248 68.0028C172.874 68.3655 172.64 68.8935 172.544 69.5868H176.864C176.778 68.9148 176.549 68.3921 176.176 68.0188C175.813 67.6455 175.338 67.4588 174.752 67.4588ZM182.273 71.9228C182.273 72.3175 182.331 72.5948 182.449 72.7548C182.566 72.9041 182.785 72.9788 183.105 72.9788C183.307 72.9788 183.478 72.9681 183.617 72.9468C183.766 72.9148 183.947 72.8561 184.161 72.7708L183.969 74.1468C183.606 74.3281 183.163 74.4188 182.641 74.4188C181.926 74.4188 181.398 74.2375 181.057 73.8748C180.726 73.5121 180.561 72.9415 180.561 72.1628V62.6588H182.273V71.9228ZM186.457 64.9148C186.094 64.9148 185.812 64.8241 185.609 64.6428C185.406 64.4508 185.305 64.1841 185.305 63.8428C185.305 63.5015 185.406 63.2401 185.609 63.0588C185.812 62.8775 186.094 62.7868 186.457 62.7868C186.82 62.7868 187.097 62.8775 187.289 63.0588C187.492 63.2401 187.593 63.5015 187.593 63.8428C187.593 64.1841 187.492 64.4508 187.289 64.6428C187.097 64.8241 186.82 64.9148 186.457 64.9148ZM187.305 74.2588H185.593V66.2588H187.305V74.2588ZM194.288 66.0988C195.173 66.0988 195.893 66.3548 196.448 66.8668C197.013 67.3788 197.296 68.1148 197.296 69.0748V74.2588H195.584V69.6188C195.584 68.2108 195.013 67.5068 193.872 67.5068C193.274 67.5068 192.762 67.7148 192.336 68.1308C191.909 68.5361 191.696 69.1655 191.696 70.0188V74.2588H189.984V66.2588H191.504L191.584 67.5868C191.85 67.0855 192.218 66.7121 192.688 66.4668C193.157 66.2215 193.69 66.0988 194.288 66.0988ZM204.546 73.0108C205.357 73.0108 205.986 73.1921 206.434 73.5548C206.882 73.9175 207.106 74.4188 207.106 75.0588C207.106 75.6028 206.925 76.0721 206.562 76.4668C206.21 76.8615 205.719 77.1655 205.09 77.3788C204.471 77.5921 203.773 77.6988 202.994 77.6988C201.725 77.6988 200.77 77.5121 200.13 77.1388C199.501 76.7655 199.186 76.2695 199.186 75.6508C199.186 75.2881 199.309 74.9681 199.554 74.6908C199.81 74.4241 200.162 74.2321 200.61 74.1148C200.269 73.9548 199.997 73.7521 199.794 73.5068C199.591 73.2508 199.49 72.9468 199.49 72.5948C199.49 71.8161 199.906 71.2828 200.738 70.9948C200.333 70.7601 200.023 70.4561 199.81 70.0828C199.607 69.7095 199.506 69.2828 199.506 68.8028C199.506 68.2695 199.65 67.8001 199.938 67.3948C200.226 66.9788 200.631 66.6588 201.154 66.4348C201.687 66.2108 202.295 66.0988 202.978 66.0988C203.565 66.0988 204.103 66.1841 204.594 66.3548C204.743 65.7681 205.01 65.3255 205.394 65.0268C205.789 64.7175 206.306 64.5681 206.946 64.5788L207.234 65.9068C206.722 65.8961 206.306 65.9601 205.986 66.0988C205.677 66.2375 205.463 66.4455 205.346 66.7228C205.698 66.9681 205.97 67.2668 206.162 67.6188C206.354 67.9708 206.45 68.3655 206.45 68.8028C206.45 69.6241 206.13 70.2801 205.49 70.7708C204.861 71.2615 204.023 71.5068 202.978 71.5068C202.487 71.5068 202.045 71.4588 201.65 71.3628C201.383 71.4268 201.186 71.5335 201.058 71.6828C200.941 71.8215 200.882 72.0081 200.882 72.2428C200.882 72.4881 200.967 72.6801 201.138 72.8188C201.319 72.9468 201.565 73.0108 201.874 73.0108H204.546ZM202.978 67.2988C202.487 67.2988 202.077 67.4428 201.746 67.7308C201.415 68.0081 201.25 68.3655 201.25 68.8028C201.25 69.2508 201.415 69.6188 201.746 69.9068C202.077 70.1841 202.487 70.3228 202.978 70.3228C203.479 70.3228 203.89 70.1841 204.21 69.9068C204.541 69.6188 204.706 69.2508 204.706 68.8028C204.706 68.3548 204.541 67.9921 204.21 67.7148C203.89 67.4375 203.479 67.2988 202.978 67.2988ZM203.154 76.4188C203.933 76.4188 204.541 76.3068 204.978 76.0828C205.415 75.8588 205.634 75.5815 205.634 75.2508C205.634 74.9841 205.527 74.7815 205.314 74.6428C205.101 74.5041 204.743 74.4348 204.242 74.4348H202.082C201.602 74.4348 201.239 74.5095 200.994 74.6588C200.759 74.8081 200.642 75.0161 200.642 75.2828C200.642 75.6455 200.85 75.9228 201.266 76.1148C201.693 76.3175 202.322 76.4188 203.154 76.4188ZM138.884 81.6588V93.2588H137.38L137.284 91.8348C137.049 92.3148 136.692 92.6988 136.212 92.9868C135.743 93.2748 135.204 93.4188 134.596 93.4188C133.497 93.4188 132.628 93.0561 131.988 92.3308C131.359 91.5948 131.044 90.5761 131.044 89.2748C131.044 87.9735 131.359 86.9548 131.988 86.2188C132.628 85.4721 133.497 85.0988 134.596 85.0988C135.183 85.0988 135.7 85.2321 136.148 85.4988C136.596 85.7548 136.937 86.1068 137.172 86.5548V81.6588H138.884ZM134.98 92.0428C135.652 92.0428 136.185 91.8028 136.58 91.3228C136.975 90.8428 137.172 90.1868 137.172 89.3548V89.1628C137.172 88.3308 136.975 87.6801 136.58 87.2108C136.185 86.7308 135.652 86.4908 134.98 86.4908C134.287 86.4908 133.743 86.7361 133.348 87.2268C132.964 87.7068 132.772 88.3841 132.772 89.2588C132.772 90.1335 132.964 90.8161 133.348 91.3068C133.743 91.7975 134.287 92.0428 134.98 92.0428ZM142.402 83.9148C142.04 83.9148 141.757 83.8241 141.554 83.6428C141.352 83.4508 141.25 83.1841 141.25 82.8428C141.25 82.5015 141.352 82.2401 141.554 82.0588C141.757 81.8775 142.04 81.7868 142.402 81.7868C142.765 81.7868 143.042 81.8775 143.234 82.0588C143.437 82.2401 143.538 82.5015 143.538 82.8428C143.538 83.1841 143.437 83.4508 143.234 83.6428C143.042 83.8241 142.765 83.9148 142.402 83.9148ZM143.25 93.2588H141.538V85.2588H143.25V93.2588ZM148.825 93.4188C148.014 93.4188 147.294 93.2801 146.665 93.0028C146.046 92.7255 145.577 92.3041 145.257 91.7388L146.409 90.7468C146.612 91.2055 146.926 91.5415 147.353 91.7548C147.78 91.9681 148.292 92.0748 148.889 92.0748C149.433 92.0748 149.854 91.9895 150.153 91.8188C150.452 91.6375 150.601 91.4028 150.601 91.1148C150.601 90.8588 150.462 90.6561 150.185 90.5068C149.908 90.3468 149.428 90.1975 148.745 90.0588C147.561 89.8348 146.729 89.5361 146.249 89.1628C145.769 88.7895 145.529 88.2615 145.529 87.5788C145.529 87.1415 145.662 86.7361 145.929 86.3628C146.196 85.9788 146.58 85.6748 147.081 85.4508C147.593 85.2161 148.196 85.0988 148.889 85.0988C149.774 85.0988 150.484 85.2481 151.017 85.5468C151.55 85.8348 151.961 86.2881 152.249 86.9068L151.033 87.8028C150.841 87.3335 150.569 86.9921 150.217 86.7788C149.876 86.5548 149.438 86.4428 148.905 86.4428C148.425 86.4428 148.025 86.5441 147.705 86.7468C147.396 86.9388 147.241 87.1628 147.241 87.4188C147.241 87.7068 147.38 87.9361 147.657 88.1068C147.945 88.2775 148.462 88.4321 149.209 88.5708C150.34 88.7735 151.14 89.0615 151.609 89.4348C152.078 89.8081 152.313 90.3308 152.313 91.0028C152.313 91.7175 152.004 92.2988 151.385 92.7468C150.766 93.1948 149.913 93.4188 148.825 93.4188ZM157.902 85.0988C159.15 85.0988 160.126 85.4668 160.83 86.2028C161.534 86.9388 161.886 87.9575 161.886 89.2588C161.886 90.5601 161.534 91.5788 160.83 92.3148C160.126 93.0508 159.15 93.4188 157.902 93.4188C156.654 93.4188 155.678 93.0508 154.974 92.3148C154.27 91.5788 153.918 90.5601 153.918 89.2588C153.918 87.9575 154.27 86.9388 154.974 86.2028C155.678 85.4668 156.654 85.0988 157.902 85.0988ZM157.902 86.4428C157.177 86.4428 156.617 86.6881 156.222 87.1788C155.838 87.6588 155.646 88.3521 155.646 89.2588C155.646 90.1655 155.838 90.8641 156.222 91.3548C156.617 91.8348 157.177 92.0748 157.902 92.0748C158.627 92.0748 159.187 91.8295 159.582 91.3388C159.977 90.8481 160.174 90.1548 160.174 89.2588C160.174 88.3628 159.977 87.6695 159.582 87.1788C159.187 86.6881 158.627 86.4428 157.902 86.4428ZM168.213 85.0988C168.587 85.0988 168.88 85.1521 169.093 85.2588L168.821 86.8268C168.576 86.6881 168.24 86.6188 167.813 86.6188C167.472 86.6188 167.147 86.7095 166.837 86.8908C166.539 87.0721 166.288 87.3441 166.085 87.7068C165.893 88.0695 165.797 88.5068 165.797 89.0188V93.2588H164.085V85.2588H165.541L165.685 86.6988C166.133 85.6321 166.976 85.0988 168.213 85.0988ZM175.022 92.0108C175.833 92.0108 176.462 92.1921 176.91 92.5548C177.358 92.9175 177.582 93.4188 177.582 94.0588C177.582 94.6028 177.401 95.0721 177.038 95.4668C176.686 95.8615 176.196 96.1655 175.566 96.3788C174.948 96.5921 174.249 96.6988 173.47 96.6988C172.201 96.6988 171.246 96.5121 170.606 96.1388C169.977 95.7655 169.662 95.2695 169.662 94.6508C169.662 94.2881 169.785 93.9681 170.03 93.6908C170.286 93.4241 170.638 93.2321 171.086 93.1148C170.745 92.9548 170.473 92.7521 170.27 92.5068C170.068 92.2508 169.966 91.9468 169.966 91.5948C169.966 90.8161 170.382 90.2828 171.214 89.9948C170.809 89.7601 170.5 89.4561 170.286 89.0828C170.084 88.7095 169.982 88.2828 169.982 87.8028C169.982 87.2695 170.126 86.8001 170.414 86.3948C170.702 85.9788 171.108 85.6588 171.63 85.4348C172.164 85.2108 172.772 85.0988 173.454 85.0988C174.041 85.0988 174.58 85.1841 175.07 85.3548C175.22 84.7681 175.486 84.3255 175.87 84.0268C176.265 83.7175 176.782 83.5681 177.422 83.5788L177.71 84.9068C177.198 84.8961 176.782 84.9601 176.462 85.0988C176.153 85.2375 175.94 85.4455 175.822 85.7228C176.174 85.9681 176.446 86.2668 176.638 86.6188C176.83 86.9708 176.926 87.3655 176.926 87.8028C176.926 88.6241 176.606 89.2801 175.966 89.7708C175.337 90.2615 174.5 90.5068 173.454 90.5068C172.964 90.5068 172.521 90.4588 172.126 90.3628C171.86 90.4268 171.662 90.5335 171.534 90.6828C171.417 90.8215 171.358 91.0081 171.358 91.2428C171.358 91.4881 171.444 91.6801 171.614 91.8188C171.796 91.9468 172.041 92.0108 172.35 92.0108H175.022ZM173.454 86.2988C172.964 86.2988 172.553 86.4428 172.222 86.7308C171.892 87.0081 171.726 87.3655 171.726 87.8028C171.726 88.2508 171.892 88.6188 172.222 88.9068C172.553 89.1841 172.964 89.3228 173.454 89.3228C173.956 89.3228 174.366 89.1841 174.686 88.9068C175.017 88.6188 175.182 88.2508 175.182 87.8028C175.182 87.3548 175.017 86.9921 174.686 86.7148C174.366 86.4375 173.956 86.2988 173.454 86.2988ZM173.63 95.4188C174.409 95.4188 175.017 95.3068 175.454 95.0828C175.892 94.8588 176.11 94.5815 176.11 94.2508C176.11 93.9841 176.004 93.7815 175.79 93.6428C175.577 93.5041 175.22 93.4348 174.718 93.4348H172.558C172.078 93.4348 171.716 93.5095 171.47 93.6588C171.236 93.8081 171.118 94.0161 171.118 94.2828C171.118 94.6455 171.326 94.9228 171.742 95.1148C172.169 95.3175 172.798 95.4188 173.63 95.4188ZM186.138 92.1388C186.373 92.1388 186.57 92.1175 186.73 92.0748L186.618 93.2268C186.33 93.3548 185.999 93.4188 185.626 93.4188C185.167 93.4188 184.799 93.3281 184.522 93.1468C184.255 92.9655 184.079 92.6615 183.994 92.2348C183.749 92.6081 183.386 92.9015 182.906 93.1148C182.426 93.3175 181.887 93.4188 181.29 93.4188C180.511 93.4188 179.882 93.2375 179.402 92.8748C178.922 92.5121 178.682 91.9948 178.682 91.3228C178.682 90.6935 178.943 90.1655 179.466 89.7388C179.989 89.3015 180.767 88.9921 181.802 88.8108L183.834 88.4588V88.0268C183.834 87.5361 183.69 87.1521 183.402 86.8748C183.114 86.5868 182.714 86.4428 182.202 86.4428C181.146 86.4428 180.458 86.9228 180.138 87.8828L178.81 87.1788C179.002 86.5388 179.391 86.0321 179.978 85.6588C180.575 85.2855 181.306 85.0988 182.17 85.0988C183.205 85.0988 184.026 85.3388 184.634 85.8188C185.242 86.2988 185.546 87.0028 185.546 87.9308V91.5468C185.546 91.7495 185.589 91.8988 185.674 91.9948C185.77 92.0908 185.925 92.1388 186.138 92.1388ZM181.658 92.1228C182.234 92.1228 182.741 91.9841 183.178 91.7068C183.615 91.4295 183.834 91.0615 183.834 90.6028V89.6428L182.09 89.9948C181.535 90.1015 181.125 90.2508 180.858 90.4428C180.591 90.6348 180.458 90.8908 180.458 91.2108C180.458 91.5095 180.559 91.7388 180.762 91.8988C180.975 92.0481 181.274 92.1228 181.658 92.1228ZM192.655 85.0988C193.54 85.0988 194.26 85.3548 194.815 85.8668C195.38 86.3788 195.663 87.1148 195.663 88.0748V93.2588H193.951V88.6188C193.951 87.2108 193.38 86.5068 192.239 86.5068C191.642 86.5068 191.13 86.7148 190.703 87.1308C190.276 87.5361 190.063 88.1655 190.063 89.0188V93.2588H188.351V85.2588H189.871L189.951 86.5868C190.218 86.0855 190.586 85.7121 191.055 85.4668C191.524 85.2215 192.058 85.0988 192.655 85.0988ZM199.121 83.9148C198.758 83.9148 198.476 83.8241 198.273 83.6428C198.07 83.4508 197.969 83.1841 197.969 82.8428C197.969 82.5015 198.07 82.2401 198.273 82.0588C198.476 81.8775 198.758 81.7868 199.121 81.7868C199.484 81.7868 199.761 81.8775 199.953 82.0588C200.156 82.2401 200.257 82.5015 200.257 82.8428C200.257 83.1841 200.156 83.4508 199.953 83.6428C199.761 83.8241 199.484 83.9148 199.121 83.9148ZM199.969 93.2588H198.257V85.2588H199.969V93.2588ZM202.136 92.0748L206.024 87.5628L206.984 86.5708L205.608 86.6028H202.168V85.2588H208.872V86.4428L205 90.9548L204.04 91.9468L205.56 91.9148H209.016V93.2588H202.136V92.0748ZM218.143 89.0188C218.143 89.3281 218.122 89.6215 218.079 89.8988H212.223C212.319 90.6028 212.57 91.1415 212.975 91.5148C213.381 91.8775 213.903 92.0588 214.543 92.0588C215.066 92.0588 215.498 91.9681 215.839 91.7868C216.191 91.5948 216.431 91.3228 216.559 90.9708L217.983 91.5628C217.386 92.8001 216.239 93.4188 214.543 93.4188C213.285 93.4188 212.298 93.0508 211.583 92.3148C210.879 91.5788 210.527 90.5601 210.527 89.2588C210.527 87.9468 210.869 86.9281 211.551 86.2028C212.234 85.4668 213.194 85.0988 214.431 85.0988C215.605 85.0988 216.517 85.4561 217.167 86.1708C217.818 86.8855 218.143 87.8348 218.143 89.0188ZM214.431 86.4588C213.813 86.4588 213.311 86.6401 212.927 87.0028C212.554 87.3655 212.319 87.8935 212.223 88.5868H216.543C216.458 87.9148 216.229 87.3921 215.855 87.0188C215.493 86.6455 215.018 86.4588 214.431 86.4588ZM227.696 81.6588V93.2588H226.192L226.096 91.8348C225.862 92.3148 225.504 92.6988 225.024 92.9868C224.555 93.2748 224.016 93.4188 223.408 93.4188C222.31 93.4188 221.44 93.0561 220.8 92.3308C220.171 91.5948 219.856 90.5761 219.856 89.2748C219.856 87.9735 220.171 86.9548 220.8 86.2188C221.44 85.4721 222.31 85.0988 223.408 85.0988C223.995 85.0988 224.512 85.2321 224.96 85.4988C225.408 85.7548 225.75 86.1068 225.984 86.5548V81.6588H227.696ZM223.792 92.0428C224.464 92.0428 224.998 91.8028 225.392 91.3228C225.787 90.8428 225.984 90.1868 225.984 89.3548V89.1628C225.984 88.3308 225.787 87.6801 225.392 87.2108C224.998 86.7308 224.464 86.4908 223.792 86.4908C223.099 86.4908 222.555 86.7361 222.16 87.2268C221.776 87.7068 221.584 88.3841 221.584 89.2588C221.584 90.1335 221.776 90.8161 222.16 91.3068C222.555 91.7975 223.099 92.0428 223.792 92.0428Z" fill="#82321D"/>
<path d="M277.178 112.769C278.149 112.769 278.975 112.945 279.658 113.297C280.351 113.649 280.933 114.187 281.402 114.913L280.106 116.081C279.807 115.441 279.434 114.977 278.986 114.689C278.538 114.401 277.941 114.257 277.194 114.257C276.458 114.257 275.887 114.406 275.482 114.705C275.077 114.993 274.874 115.366 274.874 115.825C274.874 116.251 275.071 116.593 275.466 116.849C275.861 117.094 276.565 117.307 277.578 117.489C278.527 117.659 279.279 117.878 279.834 118.145C280.399 118.401 280.81 118.726 281.066 119.121C281.322 119.505 281.45 119.985 281.45 120.561C281.45 121.179 281.274 121.723 280.922 122.193C280.57 122.662 280.074 123.025 279.434 123.281C278.805 123.526 278.074 123.649 277.242 123.649C275.098 123.649 273.583 122.934 272.698 121.505L273.898 120.305C274.239 120.945 274.677 121.414 275.21 121.713C275.754 122.011 276.426 122.161 277.226 122.161C277.983 122.161 278.575 122.033 279.002 121.777C279.439 121.51 279.658 121.137 279.658 120.657C279.658 120.273 279.461 119.963 279.066 119.729C278.682 119.494 278.005 119.286 277.034 119.105C276.063 118.923 275.29 118.699 274.714 118.433C274.138 118.166 273.717 117.835 273.45 117.441C273.194 117.046 273.066 116.566 273.066 116.001C273.066 115.403 273.231 114.859 273.562 114.369C273.893 113.878 274.367 113.489 274.986 113.201C275.615 112.913 276.346 112.769 277.178 112.769ZM290.756 119.249C290.756 119.558 290.734 119.851 290.692 120.129H284.836C284.932 120.833 285.182 121.371 285.588 121.745C285.993 122.107 286.516 122.289 287.156 122.289C287.678 122.289 288.11 122.198 288.452 122.017C288.804 121.825 289.044 121.553 289.172 121.201L290.596 121.793C289.998 123.03 288.852 123.649 287.156 123.649C285.897 123.649 284.91 123.281 284.196 122.545C283.492 121.809 283.14 120.79 283.14 119.489C283.14 118.177 283.481 117.158 284.164 116.433C284.846 115.697 285.806 115.329 287.044 115.329C288.217 115.329 289.129 115.686 289.78 116.401C290.43 117.115 290.756 118.065 290.756 119.249ZM287.044 116.689C286.425 116.689 285.924 116.87 285.54 117.233C285.166 117.595 284.932 118.123 284.836 118.817H289.156C289.07 118.145 288.841 117.622 288.468 117.249C288.105 116.875 287.63 116.689 287.044 116.689ZM297.204 115.329C298.09 115.329 298.81 115.585 299.364 116.097C299.93 116.609 300.212 117.345 300.212 118.305V123.489H298.5V118.849C298.5 117.441 297.93 116.737 296.788 116.737C296.191 116.737 295.679 116.945 295.252 117.361C294.826 117.766 294.612 118.395 294.612 119.249V123.489H292.9V115.489H294.42L294.5 116.817C294.767 116.315 295.135 115.942 295.604 115.697C296.074 115.451 296.607 115.329 297.204 115.329ZM310.215 111.889V123.489H308.711L308.615 122.065C308.38 122.545 308.023 122.929 307.543 123.217C307.073 123.505 306.535 123.649 305.927 123.649C304.828 123.649 303.959 123.286 303.319 122.561C302.689 121.825 302.375 120.806 302.375 119.505C302.375 118.203 302.689 117.185 303.319 116.449C303.959 115.702 304.828 115.329 305.927 115.329C306.513 115.329 307.031 115.462 307.479 115.729C307.927 115.985 308.268 116.337 308.503 116.785V111.889H310.215ZM306.311 122.273C306.983 122.273 307.516 122.033 307.911 121.553C308.305 121.073 308.503 120.417 308.503 119.585V119.393C308.503 118.561 308.305 117.91 307.911 117.441C307.516 116.961 306.983 116.721 306.311 116.721C305.617 116.721 305.073 116.966 304.679 117.457C304.295 117.937 304.103 118.614 304.103 119.489C304.103 120.363 304.295 121.046 304.679 121.537C305.073 122.027 305.617 122.273 306.311 122.273ZM313.733 114.145C313.371 114.145 313.088 114.054 312.885 113.873C312.683 113.681 312.581 113.414 312.581 113.073C312.581 112.731 312.683 112.47 312.885 112.289C313.088 112.107 313.371 112.017 313.733 112.017C314.096 112.017 314.373 112.107 314.565 112.289C314.768 112.47 314.869 112.731 314.869 113.073C314.869 113.414 314.768 113.681 314.565 113.873C314.373 114.054 314.096 114.145 313.733 114.145ZM314.581 123.489H312.869V115.489H314.581V123.489ZM321.564 115.329C322.449 115.329 323.169 115.585 323.724 116.097C324.289 116.609 324.572 117.345 324.572 118.305V123.489H322.86V118.849C322.86 117.441 322.289 116.737 321.148 116.737C320.55 116.737 320.038 116.945 319.612 117.361C319.185 117.766 318.972 118.395 318.972 119.249V123.489H317.26V115.489H318.78L318.86 116.817C319.126 116.315 319.494 115.942 319.964 115.697C320.433 115.451 320.966 115.329 321.564 115.329ZM331.822 122.241C332.633 122.241 333.262 122.422 333.71 122.785C334.158 123.147 334.382 123.649 334.382 124.289C334.382 124.833 334.201 125.302 333.838 125.697C333.486 126.091 332.995 126.395 332.366 126.609C331.747 126.822 331.049 126.929 330.27 126.929C329.001 126.929 328.046 126.742 327.406 126.369C326.777 125.995 326.462 125.499 326.462 124.881C326.462 124.518 326.585 124.198 326.83 123.921C327.086 123.654 327.438 123.462 327.886 123.345C327.545 123.185 327.273 122.982 327.07 122.737C326.867 122.481 326.766 122.177 326.766 121.825C326.766 121.046 327.182 120.513 328.014 120.225C327.609 119.99 327.299 119.686 327.086 119.313C326.883 118.939 326.782 118.513 326.782 118.033C326.782 117.499 326.926 117.03 327.214 116.625C327.502 116.209 327.907 115.889 328.43 115.665C328.963 115.441 329.571 115.329 330.254 115.329C330.841 115.329 331.379 115.414 331.87 115.585C332.019 114.998 332.286 114.555 332.67 114.257C333.065 113.947 333.582 113.798 334.222 113.809L334.51 115.137C333.998 115.126 333.582 115.19 333.262 115.329C332.953 115.467 332.739 115.675 332.622 115.953C332.974 116.198 333.246 116.497 333.438 116.849C333.63 117.201 333.726 117.595 333.726 118.033C333.726 118.854 333.406 119.51 332.766 120.001C332.137 120.491 331.299 120.737 330.254 120.737C329.763 120.737 329.321 120.689 328.926 120.593C328.659 120.657 328.462 120.763 328.334 120.913C328.217 121.051 328.158 121.238 328.158 121.473C328.158 121.718 328.243 121.91 328.414 122.049C328.595 122.177 328.841 122.241 329.15 122.241H331.822ZM330.254 116.529C329.763 116.529 329.353 116.673 329.022 116.961C328.691 117.238 328.526 117.595 328.526 118.033C328.526 118.481 328.691 118.849 329.022 119.137C329.353 119.414 329.763 119.553 330.254 119.553C330.755 119.553 331.166 119.414 331.486 119.137C331.817 118.849 331.982 118.481 331.982 118.033C331.982 117.585 331.817 117.222 331.486 116.945C331.166 116.667 330.755 116.529 330.254 116.529ZM330.43 125.649C331.209 125.649 331.817 125.537 332.254 125.313C332.691 125.089 332.91 124.811 332.91 124.481C332.91 124.214 332.803 124.011 332.59 123.873C332.377 123.734 332.019 123.665 331.518 123.665H329.358C328.878 123.665 328.515 123.739 328.27 123.889C328.035 124.038 327.918 124.246 327.918 124.513C327.918 124.875 328.126 125.153 328.542 125.345C328.969 125.547 329.598 125.649 330.43 125.649ZM279.772 133.145C279.41 133.145 279.127 133.054 278.924 132.873C278.722 132.681 278.62 132.414 278.62 132.073C278.62 131.731 278.722 131.47 278.924 131.289C279.127 131.107 279.41 131.017 279.772 131.017C280.135 131.017 280.412 131.107 280.604 131.289C280.807 131.47 280.908 131.731 280.908 132.073C280.908 132.414 280.807 132.681 280.604 132.873C280.412 133.054 280.135 133.145 279.772 133.145ZM280.62 142.489H278.908V134.489H280.62V142.489ZM287.603 134.329C288.488 134.329 289.208 134.585 289.763 135.097C290.328 135.609 290.611 136.345 290.611 137.305V142.489H288.899V137.849C288.899 136.441 288.328 135.737 287.187 135.737C286.59 135.737 286.078 135.945 285.651 136.361C285.224 136.766 285.011 137.395 285.011 138.249V142.489H283.299V134.489H284.819L284.899 135.817C285.166 135.315 285.534 134.942 286.003 134.697C286.472 134.451 287.006 134.329 287.603 134.329ZM300.058 134.489L296.874 142.489H295.002L291.802 134.489H293.69L295.946 141.097L298.266 134.489H300.058ZM302.382 133.145C302.019 133.145 301.736 133.054 301.534 132.873C301.331 132.681 301.23 132.414 301.23 132.073C301.23 131.731 301.331 131.47 301.534 131.289C301.736 131.107 302.019 131.017 302.382 131.017C302.744 131.017 303.022 131.107 303.214 131.289C303.416 131.47 303.518 131.731 303.518 132.073C303.518 132.414 303.416 132.681 303.214 132.873C303.022 133.054 302.744 133.145 302.382 133.145ZM303.23 142.489H301.518V134.489H303.23V142.489ZM311.092 141.961C310.836 142.174 310.522 142.345 310.148 142.473C309.786 142.59 309.391 142.649 308.964 142.649C308.228 142.649 307.636 142.467 307.188 142.105C306.751 141.731 306.527 141.155 306.516 140.377V135.833H304.996V134.489H306.516V132.617L308.228 132.137V134.489H311.028V135.833H308.228V140.089C308.228 140.473 308.33 140.761 308.532 140.953C308.746 141.134 309.034 141.225 309.396 141.225C309.887 141.225 310.319 141.054 310.692 140.713L311.092 141.961ZM319.841 138.249C319.841 138.558 319.82 138.851 319.777 139.129H313.921C314.017 139.833 314.268 140.371 314.673 140.745C315.079 141.107 315.601 141.289 316.241 141.289C316.764 141.289 317.196 141.198 317.537 141.017C317.889 140.825 318.129 140.553 318.257 140.201L319.681 140.793C319.084 142.03 317.937 142.649 316.241 142.649C314.983 142.649 313.996 142.281 313.281 141.545C312.577 140.809 312.225 139.79 312.225 138.489C312.225 137.177 312.567 136.158 313.249 135.433C313.932 134.697 314.892 134.329 316.129 134.329C317.303 134.329 318.215 134.686 318.865 135.401C319.516 136.115 319.841 137.065 319.841 138.249ZM316.129 135.689C315.511 135.689 315.009 135.87 314.625 136.233C314.252 136.595 314.017 137.123 313.921 137.817H318.241C318.156 137.145 317.927 136.622 317.553 136.249C317.191 135.875 316.716 135.689 316.129 135.689ZM324.882 142.649C324.072 142.649 323.352 142.51 322.722 142.233C322.104 141.955 321.634 141.534 321.314 140.969L322.466 139.977C322.669 140.435 322.984 140.771 323.41 140.985C323.837 141.198 324.349 141.305 324.946 141.305C325.49 141.305 325.912 141.219 326.21 141.049C326.509 140.867 326.658 140.633 326.658 140.345C326.658 140.089 326.52 139.886 326.242 139.737C325.965 139.577 325.485 139.427 324.802 139.289C323.618 139.065 322.786 138.766 322.306 138.393C321.826 138.019 321.586 137.491 321.586 136.809C321.586 136.371 321.72 135.966 321.986 135.593C322.253 135.209 322.637 134.905 323.138 134.681C323.65 134.446 324.253 134.329 324.946 134.329C325.832 134.329 326.541 134.478 327.074 134.777C327.608 135.065 328.018 135.518 328.306 136.137L327.09 137.033C326.898 136.563 326.626 136.222 326.274 136.009C325.933 135.785 325.496 135.673 324.962 135.673C324.482 135.673 324.082 135.774 323.762 135.977C323.453 136.169 323.298 136.393 323.298 136.649C323.298 136.937 323.437 137.166 323.714 137.337C324.002 137.507 324.52 137.662 325.266 137.801C326.397 138.003 327.197 138.291 327.666 138.665C328.136 139.038 328.37 139.561 328.37 140.233C328.37 140.947 328.061 141.529 327.442 141.977C326.824 142.425 325.97 142.649 324.882 142.649Z" fill="#82321D"/>
<rect x="371.552" y="97.7183" width="110.714" height="190.282" fill="#F3EAEA" stroke="#82321D" stroke-width="2"/>
<path d="M396.237 263.433H393.501V266.961H389.709V263.433H380.661V260.817L388.581 250.161H392.661L385.317 260.265H389.829V257.121H393.501V260.265H396.237V263.433ZM412.784 263.433H410.048V266.961H406.256V263.433H397.208V260.817L405.128 250.161H409.208L401.864 260.265H406.376V257.121H410.048V260.265H412.784V263.433ZM417.811 259.185C416.643 259.185 415.699 258.761 414.979 257.913C414.259 257.065 413.899 255.961 413.899 254.601C413.899 253.241 414.259 252.137 414.979 251.289C415.699 250.441 416.643 250.017 417.811 250.017C418.979 250.017 419.915 250.441 420.619 251.289C421.339 252.121 421.699 253.225 421.699 254.601C421.699 255.977 421.339 257.089 420.619 257.937C419.915 258.769 418.979 259.185 417.811 259.185ZM427.939 250.161H429.787L418.315 266.961H416.467L427.939 250.161ZM417.811 257.817C418.547 257.817 419.123 257.537 419.539 256.977C419.955 256.401 420.163 255.609 420.163 254.601C420.163 253.593 419.955 252.809 419.539 252.249C419.123 251.673 418.547 251.385 417.811 251.385C417.091 251.385 416.515 251.673 416.083 252.249C415.667 252.825 415.459 253.609 415.459 254.601C415.459 255.593 415.667 256.377 416.083 256.953C416.515 257.529 417.091 257.817 417.811 257.817ZM428.443 267.105C427.275 267.105 426.331 266.689 425.611 265.857C424.907 265.009 424.555 263.897 424.555 262.521C424.555 261.145 424.907 260.041 425.611 259.209C426.331 258.361 427.275 257.937 428.443 257.937C429.611 257.937 430.555 258.361 431.275 259.209C431.995 260.057 432.355 261.161 432.355 262.521C432.355 263.881 431.995 264.985 431.275 265.833C430.555 266.681 429.611 267.105 428.443 267.105ZM428.443 265.737C429.163 265.737 429.731 265.449 430.147 264.873C430.579 264.297 430.795 263.513 430.795 262.521C430.795 261.529 430.579 260.745 430.147 260.169C429.731 259.593 429.163 259.305 428.443 259.305C427.707 259.305 427.131 259.593 426.715 260.169C426.299 260.729 426.091 261.513 426.091 262.521C426.091 263.529 426.299 264.321 426.715 264.897C427.131 265.457 427.707 265.737 428.443 265.737Z" fill="#82321D"/>
<path d="M403.585 114.401H399.969V123.489H398.257V114.401H394.641V112.929H403.585V114.401ZM408.43 115.329C408.803 115.329 409.096 115.382 409.31 115.489L409.038 117.057C408.792 116.918 408.456 116.849 408.03 116.849C407.688 116.849 407.363 116.939 407.054 117.121C406.755 117.302 406.504 117.574 406.302 117.937C406.11 118.299 406.014 118.737 406.014 119.249V123.489H404.302V115.489H405.758L405.902 116.929C406.35 115.862 407.192 115.329 408.43 115.329ZM417.667 122.369C417.901 122.369 418.099 122.347 418.259 122.305L418.147 123.457C417.859 123.585 417.528 123.649 417.155 123.649C416.696 123.649 416.328 123.558 416.051 123.377C415.784 123.195 415.608 122.891 415.523 122.465C415.277 122.838 414.915 123.131 414.435 123.345C413.955 123.547 413.416 123.649 412.819 123.649C412.04 123.649 411.411 123.467 410.931 123.105C410.451 122.742 410.211 122.225 410.211 121.553C410.211 120.923 410.472 120.395 410.995 119.969C411.517 119.531 412.296 119.222 413.331 119.041L415.363 118.689V118.257C415.363 117.766 415.219 117.382 414.931 117.105C414.643 116.817 414.243 116.673 413.731 116.673C412.675 116.673 411.987 117.153 411.667 118.113L410.339 117.409C410.531 116.769 410.92 116.262 411.507 115.889C412.104 115.515 412.835 115.329 413.699 115.329C414.733 115.329 415.555 115.569 416.163 116.049C416.771 116.529 417.075 117.233 417.075 118.161V121.777C417.075 121.979 417.117 122.129 417.203 122.225C417.299 122.321 417.453 122.369 417.667 122.369ZM413.187 122.353C413.763 122.353 414.269 122.214 414.707 121.937C415.144 121.659 415.363 121.291 415.363 120.833V119.873L413.619 120.225C413.064 120.331 412.653 120.481 412.387 120.673C412.12 120.865 411.987 121.121 411.987 121.441C411.987 121.739 412.088 121.969 412.291 122.129C412.504 122.278 412.803 122.353 413.187 122.353ZM423.384 115.329C425.133 115.329 426.291 116.075 426.856 117.569L425.256 118.209C424.979 117.195 424.355 116.689 423.384 116.689C422.669 116.689 422.115 116.934 421.72 117.425C421.325 117.915 421.128 118.609 421.128 119.505C421.128 120.401 421.325 121.089 421.72 121.569C422.115 122.049 422.669 122.289 423.384 122.289C423.928 122.289 424.365 122.155 424.696 121.889C425.027 121.622 425.245 121.238 425.352 120.737L426.92 121.265C426.685 122.011 426.269 122.598 425.672 123.025C425.075 123.441 424.323 123.649 423.416 123.649C422.157 123.649 421.171 123.281 420.456 122.545C419.752 121.809 419.4 120.79 419.4 119.489C419.4 118.187 419.752 117.169 420.456 116.433C421.16 115.697 422.136 115.329 423.384 115.329ZM432.223 119.729L430.639 121.361V123.489H428.927V111.889H430.639V119.409L434.463 115.489H436.479L433.423 118.625L436.671 123.489H434.687L432.223 119.729ZM439.119 114.145C438.756 114.145 438.473 114.054 438.271 113.873C438.068 113.681 437.967 113.414 437.967 113.073C437.967 112.731 438.068 112.47 438.271 112.289C438.473 112.107 438.756 112.017 439.119 112.017C439.481 112.017 439.759 112.107 439.951 112.289C440.153 112.47 440.255 112.731 440.255 113.073C440.255 113.414 440.153 113.681 439.951 113.873C439.759 114.054 439.481 114.145 439.119 114.145ZM439.967 123.489H438.255V115.489H439.967V123.489ZM446.949 115.329C447.835 115.329 448.555 115.585 449.109 116.097C449.675 116.609 449.957 117.345 449.957 118.305V123.489H448.245V118.849C448.245 117.441 447.675 116.737 446.533 116.737C445.936 116.737 445.424 116.945 444.997 117.361C444.571 117.766 444.357 118.395 444.357 119.249V123.489H442.645V115.489H444.165L444.245 116.817C444.512 116.315 444.88 115.942 445.349 115.697C445.819 115.451 446.352 115.329 446.949 115.329ZM457.208 122.241C458.018 122.241 458.648 122.422 459.096 122.785C459.544 123.147 459.768 123.649 459.768 124.289C459.768 124.833 459.586 125.302 459.224 125.697C458.872 126.091 458.381 126.395 457.752 126.609C457.133 126.822 456.434 126.929 455.656 126.929C454.386 126.929 453.432 126.742 452.792 126.369C452.162 125.995 451.848 125.499 451.848 124.881C451.848 124.518 451.97 124.198 452.216 123.921C452.472 123.654 452.824 123.462 453.272 123.345C452.93 123.185 452.658 122.982 452.456 122.737C452.253 122.481 452.152 122.177 452.152 121.825C452.152 121.046 452.568 120.513 453.4 120.225C452.994 119.99 452.685 119.686 452.472 119.313C452.269 118.939 452.168 118.513 452.168 118.033C452.168 117.499 452.312 117.03 452.6 116.625C452.888 116.209 453.293 115.889 453.816 115.665C454.349 115.441 454.957 115.329 455.64 115.329C456.226 115.329 456.765 115.414 457.256 115.585C457.405 114.998 457.672 114.555 458.056 114.257C458.45 113.947 458.968 113.798 459.608 113.809L459.896 115.137C459.384 115.126 458.968 115.19 458.648 115.329C458.338 115.467 458.125 115.675 458.008 115.953C458.36 116.198 458.632 116.497 458.824 116.849C459.016 117.201 459.112 117.595 459.112 118.033C459.112 118.854 458.792 119.51 458.152 120.001C457.522 120.491 456.685 120.737 455.64 120.737C455.149 120.737 454.706 120.689 454.312 120.593C454.045 120.657 453.848 120.763 453.72 120.913C453.602 121.051 453.544 121.238 453.544 121.473C453.544 121.718 453.629 121.91 453.8 122.049C453.981 122.177 454.226 122.241 454.536 122.241H457.208ZM455.64 116.529C455.149 116.529 454.738 116.673 454.408 116.961C454.077 117.238 453.912 117.595 453.912 118.033C453.912 118.481 454.077 118.849 454.408 119.137C454.738 119.414 455.149 119.553 455.64 119.553C456.141 119.553 456.552 119.414 456.872 119.137C457.202 118.849 457.368 118.481 457.368 118.033C457.368 117.585 457.202 117.222 456.872 116.945C456.552 116.667 456.141 116.529 455.64 116.529ZM455.816 125.649C456.594 125.649 457.202 125.537 457.64 125.313C458.077 125.089 458.296 124.811 458.296 124.481C458.296 124.214 458.189 124.011 457.976 123.873C457.762 123.734 457.405 123.665 456.904 123.665H454.744C454.264 123.665 453.901 123.739 453.656 123.889C453.421 124.038 453.304 124.246 453.304 124.513C453.304 124.875 453.512 125.153 453.928 125.345C454.354 125.547 454.984 125.649 455.816 125.649ZM410.728 134.329C412.477 134.329 413.634 135.075 414.2 136.569L412.6 137.209C412.322 136.195 411.698 135.689 410.728 135.689C410.013 135.689 409.458 135.934 409.064 136.425C408.669 136.915 408.472 137.609 408.472 138.505C408.472 139.401 408.669 140.089 409.064 140.569C409.458 141.049 410.013 141.289 410.728 141.289C411.272 141.289 411.709 141.155 412.04 140.889C412.37 140.622 412.589 140.238 412.696 139.737L414.264 140.265C414.029 141.011 413.613 141.598 413.016 142.025C412.418 142.441 411.666 142.649 410.76 142.649C409.501 142.649 408.514 142.281 407.8 141.545C407.096 140.809 406.744 139.79 406.744 138.489C406.744 137.187 407.096 136.169 407.8 135.433C408.504 134.697 409.48 134.329 410.728 134.329ZM419.79 134.329C421.038 134.329 422.014 134.697 422.718 135.433C423.422 136.169 423.774 137.187 423.774 138.489C423.774 139.79 423.422 140.809 422.718 141.545C422.014 142.281 421.038 142.649 419.79 142.649C418.542 142.649 417.566 142.281 416.862 141.545C416.158 140.809 415.806 139.79 415.806 138.489C415.806 137.187 416.158 136.169 416.862 135.433C417.566 134.697 418.542 134.329 419.79 134.329ZM419.79 135.673C419.065 135.673 418.505 135.918 418.11 136.409C417.726 136.889 417.534 137.582 417.534 138.489C417.534 139.395 417.726 140.094 418.11 140.585C418.505 141.065 419.065 141.305 419.79 141.305C420.516 141.305 421.076 141.059 421.47 140.569C421.865 140.078 422.062 139.385 422.062 138.489C422.062 137.593 421.865 136.899 421.47 136.409C421.076 135.918 420.516 135.673 419.79 135.673ZM428.869 142.649C428.059 142.649 427.339 142.51 426.709 142.233C426.091 141.955 425.621 141.534 425.301 140.969L426.453 139.977C426.656 140.435 426.971 140.771 427.397 140.985C427.824 141.198 428.336 141.305 428.933 141.305C429.477 141.305 429.899 141.219 430.197 141.049C430.496 140.867 430.645 140.633 430.645 140.345C430.645 140.089 430.507 139.886 430.229 139.737C429.952 139.577 429.472 139.427 428.789 139.289C427.605 139.065 426.773 138.766 426.293 138.393C425.813 138.019 425.573 137.491 425.573 136.809C425.573 136.371 425.707 135.966 425.973 135.593C426.24 135.209 426.624 134.905 427.125 134.681C427.637 134.446 428.24 134.329 428.933 134.329C429.819 134.329 430.528 134.478 431.061 134.777C431.595 135.065 432.005 135.518 432.293 136.137L431.077 137.033C430.885 136.563 430.613 136.222 430.261 136.009C429.92 135.785 429.483 135.673 428.949 135.673C428.469 135.673 428.069 135.774 427.749 135.977C427.44 136.169 427.285 136.393 427.285 136.649C427.285 136.937 427.424 137.166 427.701 137.337C427.989 137.507 428.507 137.662 429.253 137.801C430.384 138.003 431.184 138.291 431.653 138.665C432.123 139.038 432.357 139.561 432.357 140.233C432.357 140.947 432.048 141.529 431.429 141.977C430.811 142.425 429.957 142.649 428.869 142.649ZM439.626 141.961C439.37 142.174 439.055 142.345 438.682 142.473C438.319 142.59 437.925 142.649 437.498 142.649C436.762 142.649 436.17 142.467 435.722 142.105C435.285 141.731 435.061 141.155 435.05 140.377V135.833H433.53V134.489H435.05V132.617L436.762 132.137V134.489H439.562V135.833H436.762V140.089C436.762 140.473 436.863 140.761 437.066 140.953C437.279 141.134 437.567 141.225 437.93 141.225C438.421 141.225 438.853 141.054 439.226 140.713L439.626 141.961ZM444.119 142.649C443.309 142.649 442.589 142.51 441.959 142.233C441.341 141.955 440.871 141.534 440.551 140.969L441.703 139.977C441.906 140.435 442.221 140.771 442.647 140.985C443.074 141.198 443.586 141.305 444.183 141.305C444.727 141.305 445.149 141.219 445.447 141.049C445.746 140.867 445.895 140.633 445.895 140.345C445.895 140.089 445.757 139.886 445.479 139.737C445.202 139.577 444.722 139.427 444.039 139.289C442.855 139.065 442.023 138.766 441.543 138.393C441.063 138.019 440.823 137.491 440.823 136.809C440.823 136.371 440.957 135.966 441.223 135.593C441.49 135.209 441.874 134.905 442.375 134.681C442.887 134.446 443.49 134.329 444.183 134.329C445.069 134.329 445.778 134.478 446.311 134.777C446.845 135.065 447.255 135.518 447.543 136.137L446.327 137.033C446.135 136.563 445.863 136.222 445.511 136.009C445.17 135.785 444.733 135.673 444.199 135.673C443.719 135.673 443.319 135.774 442.999 135.977C442.69 136.169 442.535 136.393 442.535 136.649C442.535 136.937 442.674 137.166 442.951 137.337C443.239 137.507 443.757 137.662 444.503 137.801C445.634 138.003 446.434 138.291 446.903 138.665C447.373 139.038 447.607 139.561 447.607 140.233C447.607 140.947 447.298 141.529 446.679 141.977C446.061 142.425 445.207 142.649 444.119 142.649Z" fill="#82321D"/>
<path d="M507.944 230.09C507.624 231.039 507.074 231.77 506.296 232.282C505.528 232.794 504.621 233.05 503.576 233.05C502.562 233.05 501.682 232.831 500.936 232.394C500.189 231.956 499.613 231.327 499.208 230.506C498.802 229.684 498.6 228.719 498.6 227.61C498.6 226.5 498.802 225.535 499.208 224.714C499.613 223.892 500.189 223.263 500.936 222.826C501.682 222.388 502.557 222.17 503.56 222.17C504.616 222.17 505.501 222.388 506.216 222.826C506.941 223.263 507.464 223.908 507.784 224.762L506.168 225.482C505.954 224.852 505.645 224.394 505.24 224.106C504.834 223.807 504.306 223.658 503.656 223.658C502.664 223.658 501.869 224.01 501.272 224.714C500.685 225.407 500.392 226.372 500.392 227.61C500.392 228.858 500.674 229.828 501.24 230.522C501.805 231.215 502.589 231.562 503.592 231.562C504.274 231.562 504.845 231.391 505.304 231.05C505.773 230.708 506.109 230.207 506.312 229.546L507.944 230.09ZM513.409 224.73C514.657 224.73 515.633 225.098 516.337 225.834C517.041 226.57 517.393 227.588 517.393 228.89C517.393 230.191 517.041 231.21 516.337 231.946C515.633 232.682 514.657 233.05 513.409 233.05C512.161 233.05 511.185 232.682 510.481 231.946C509.777 231.21 509.425 230.191 509.425 228.89C509.425 227.588 509.777 226.57 510.481 225.834C511.185 225.098 512.161 224.73 513.409 224.73ZM513.409 226.074C512.684 226.074 512.124 226.319 511.729 226.81C511.345 227.29 511.153 227.983 511.153 228.89C511.153 229.796 511.345 230.495 511.729 230.986C512.124 231.466 512.684 231.706 513.409 231.706C514.134 231.706 514.694 231.46 515.089 230.97C515.484 230.479 515.681 229.786 515.681 228.89C515.681 227.994 515.484 227.3 515.089 226.81C514.694 226.319 514.134 226.074 513.409 226.074ZM521.256 230.554C521.256 230.948 521.315 231.226 521.432 231.386C521.55 231.535 521.768 231.61 522.088 231.61C522.291 231.61 522.462 231.599 522.6 231.578C522.75 231.546 522.931 231.487 523.144 231.402L522.952 232.778C522.59 232.959 522.147 233.05 521.624 233.05C520.91 233.05 520.382 232.868 520.04 232.506C519.71 232.143 519.544 231.572 519.544 230.794V221.29H521.256V230.554ZM526.241 230.554C526.241 230.948 526.299 231.226 526.417 231.386C526.534 231.535 526.753 231.61 527.073 231.61C527.275 231.61 527.446 231.599 527.585 231.578C527.734 231.546 527.915 231.487 528.129 231.402L527.937 232.778C527.574 232.959 527.131 233.05 526.609 233.05C525.894 233.05 525.366 232.868 525.025 232.506C524.694 232.143 524.529 231.572 524.529 230.794V221.29H526.241V230.554ZM536.489 231.77C536.723 231.77 536.921 231.748 537.081 231.706L536.969 232.858C536.681 232.986 536.35 233.05 535.977 233.05C535.518 233.05 535.15 232.959 534.873 232.778C534.606 232.596 534.43 232.292 534.345 231.866C534.099 232.239 533.737 232.532 533.257 232.746C532.777 232.948 532.238 233.05 531.641 233.05C530.862 233.05 530.233 232.868 529.753 232.506C529.273 232.143 529.033 231.626 529.033 230.954C529.033 230.324 529.294 229.796 529.817 229.37C530.339 228.932 531.118 228.623 532.153 228.442L534.185 228.09V227.658C534.185 227.167 534.041 226.783 533.753 226.506C533.465 226.218 533.065 226.074 532.553 226.074C531.497 226.074 530.809 226.554 530.489 227.514L529.161 226.81C529.353 226.17 529.742 225.663 530.329 225.29C530.926 224.916 531.657 224.73 532.521 224.73C533.555 224.73 534.377 224.97 534.985 225.45C535.593 225.93 535.897 226.634 535.897 227.562V231.178C535.897 231.38 535.939 231.53 536.025 231.626C536.121 231.722 536.275 231.77 536.489 231.77ZM532.009 231.754C532.585 231.754 533.091 231.615 533.529 231.338C533.966 231.06 534.185 230.692 534.185 230.234V229.274L532.441 229.626C531.886 229.732 531.475 229.882 531.209 230.074C530.942 230.266 530.809 230.522 530.809 230.842C530.809 231.14 530.91 231.37 531.113 231.53C531.326 231.679 531.625 231.754 532.009 231.754ZM543.006 224.73C544.104 224.73 544.968 225.103 545.598 225.85C546.227 226.586 546.542 227.604 546.542 228.906C546.542 230.207 546.227 231.226 545.598 231.962C544.968 232.687 544.104 233.05 543.006 233.05C542.376 233.05 541.822 232.9 541.342 232.602C540.872 232.303 540.52 231.903 540.286 231.402L540.206 232.89H538.702V221.29H540.414V226.17C540.659 225.722 541.006 225.37 541.454 225.114C541.912 224.858 542.43 224.73 543.006 224.73ZM542.622 231.674C543.315 231.674 543.854 231.428 544.238 230.938C544.632 230.447 544.83 229.764 544.83 228.89C544.83 228.015 544.632 227.338 544.238 226.858C543.854 226.367 543.315 226.122 542.622 226.122C541.971 226.122 541.448 226.34 541.054 226.778C540.67 227.215 540.456 227.818 540.414 228.586V229.194C540.456 229.972 540.67 230.58 541.054 231.018C541.448 231.455 541.971 231.674 542.622 231.674ZM552.284 224.73C553.532 224.73 554.508 225.098 555.212 225.834C555.916 226.57 556.268 227.588 556.268 228.89C556.268 230.191 555.916 231.21 555.212 231.946C554.508 232.682 553.532 233.05 552.284 233.05C551.036 233.05 550.06 232.682 549.356 231.946C548.652 231.21 548.3 230.191 548.3 228.89C548.3 227.588 548.652 226.57 549.356 225.834C550.06 225.098 551.036 224.73 552.284 224.73ZM552.284 226.074C551.559 226.074 550.999 226.319 550.604 226.81C550.22 227.29 550.028 227.983 550.028 228.89C550.028 229.796 550.22 230.495 550.604 230.986C550.999 231.466 551.559 231.706 552.284 231.706C553.009 231.706 553.569 231.46 553.964 230.97C554.359 230.479 554.556 229.786 554.556 228.89C554.556 227.994 554.359 227.3 553.964 226.81C553.569 226.319 553.009 226.074 552.284 226.074ZM562.595 224.73C562.969 224.73 563.262 224.783 563.475 224.89L563.203 226.458C562.958 226.319 562.622 226.25 562.195 226.25C561.854 226.25 561.529 226.34 561.219 226.522C560.921 226.703 560.67 226.975 560.467 227.338C560.275 227.7 560.179 228.138 560.179 228.65V232.89H558.467V224.89H559.923L560.067 226.33C560.515 225.263 561.358 224.73 562.595 224.73ZM571.832 231.77C572.067 231.77 572.264 231.748 572.424 231.706L572.312 232.858C572.024 232.986 571.694 233.05 571.32 233.05C570.862 233.05 570.494 232.959 570.216 232.778C569.95 232.596 569.774 232.292 569.688 231.866C569.443 232.239 569.08 232.532 568.6 232.746C568.12 232.948 567.582 233.05 566.984 233.05C566.206 233.05 565.576 232.868 565.096 232.506C564.616 232.143 564.376 231.626 564.376 230.954C564.376 230.324 564.638 229.796 565.16 229.37C565.683 228.932 566.462 228.623 567.496 228.442L569.528 228.09V227.658C569.528 227.167 569.384 226.783 569.096 226.506C568.808 226.218 568.408 226.074 567.896 226.074C566.84 226.074 566.152 226.554 565.832 227.514L564.504 226.81C564.696 226.17 565.086 225.663 565.672 225.29C566.27 224.916 567 224.73 567.864 224.73C568.899 224.73 569.72 224.97 570.328 225.45C570.936 225.93 571.24 226.634 571.24 227.562V231.178C571.24 231.38 571.283 231.53 571.368 231.626C571.464 231.722 571.619 231.77 571.832 231.77ZM567.352 231.754C567.928 231.754 568.435 231.615 568.872 231.338C569.31 231.06 569.528 230.692 569.528 230.234V229.274L567.784 229.626C567.23 229.732 566.819 229.882 566.552 230.074C566.286 230.266 566.152 230.522 566.152 230.842C566.152 231.14 566.254 231.37 566.456 231.53C566.67 231.679 566.968 231.754 567.352 231.754ZM578.917 232.362C578.661 232.575 578.346 232.746 577.973 232.874C577.61 232.991 577.216 233.05 576.789 233.05C576.053 233.05 575.461 232.868 575.013 232.506C574.576 232.132 574.352 231.556 574.341 230.778V226.234H572.821V224.89H574.341V223.018L576.053 222.538V224.89H578.853V226.234H576.053V230.49C576.053 230.874 576.154 231.162 576.357 231.354C576.57 231.535 576.858 231.626 577.221 231.626C577.712 231.626 578.144 231.455 578.517 231.114L578.917 232.362ZM581.378 223.546C581.015 223.546 580.733 223.455 580.53 223.274C580.327 223.082 580.226 222.815 580.226 222.474C580.226 222.132 580.327 221.871 580.53 221.69C580.733 221.508 581.015 221.418 581.378 221.418C581.741 221.418 582.018 221.508 582.21 221.69C582.413 221.871 582.514 222.132 582.514 222.474C582.514 222.815 582.413 223.082 582.21 223.274C582.018 223.455 581.741 223.546 581.378 223.546ZM582.226 232.89H580.514V224.89H582.226V232.89ZM588.425 224.73C589.673 224.73 590.649 225.098 591.353 225.834C592.057 226.57 592.409 227.588 592.409 228.89C592.409 230.191 592.057 231.21 591.353 231.946C590.649 232.682 589.673 233.05 588.425 233.05C587.177 233.05 586.201 232.682 585.497 231.946C584.793 231.21 584.441 230.191 584.441 228.89C584.441 227.588 584.793 226.57 585.497 225.834C586.201 225.098 587.177 224.73 588.425 224.73ZM588.425 226.074C587.699 226.074 587.139 226.319 586.745 226.81C586.361 227.29 586.169 227.983 586.169 228.89C586.169 229.796 586.361 230.495 586.745 230.986C587.139 231.466 587.699 231.706 588.425 231.706C589.15 231.706 589.71 231.46 590.105 230.97C590.499 230.479 590.697 229.786 590.697 228.89C590.697 227.994 590.499 227.3 590.105 226.81C589.71 226.319 589.15 226.074 588.425 226.074ZM598.912 224.73C599.797 224.73 600.517 224.986 601.072 225.498C601.637 226.01 601.92 226.746 601.92 227.706V232.89H600.208V228.25C600.208 226.842 599.637 226.138 598.496 226.138C597.899 226.138 597.387 226.346 596.96 226.762C596.533 227.167 596.32 227.796 596.32 228.65V232.89H594.608V224.89H596.128L596.208 226.218C596.475 225.716 596.843 225.343 597.312 225.098C597.781 224.852 598.315 224.73 598.912 224.73Z" fill="#82321D"/>
</svg>
