<svg width="298" height="322" viewBox="0 0 298 322" fill="none" xmlns="http://www.w3.org/2000/svg">
<rect x="117.5" y="50.6387" width="50.1387" height="180" transform="rotate(-90 117.5 50.6387)" fill="#F3EAEA" stroke="#82321D"/>
<rect x="117.5" y="320.651" width="50.1387" height="47.8212" transform="rotate(-90 117.5 320.651)" fill="#F3EAEA" stroke="#82321D"/>
<rect x="117.5" y="253.148" width="50.1387" height="119.426" transform="rotate(-90 117.5 253.148)" fill="#F3EAEA" stroke="#82321D"/>
<rect x="117.5" y="118.142" width="50.1389" height="149.803" transform="rotate(-90 117.5 118.142)" fill="#F3EAEA" stroke="#82321D"/>
<path d="M129.904 295.349V312.149H126.016V298.469H122.656V295.349H129.904ZM139.303 295.349V312.149H135.415V298.469H132.055V295.349H139.303ZM146.085 304.373C144.917 304.373 143.973 303.949 143.253 303.101C142.533 302.253 142.173 301.149 142.173 299.789C142.173 298.429 142.533 297.325 143.253 296.477C143.973 295.629 144.917 295.205 146.085 295.205C147.253 295.205 148.189 295.629 148.893 296.477C149.613 297.309 149.973 298.413 149.973 299.789C149.973 301.165 149.613 302.277 148.893 303.125C148.189 303.957 147.253 304.373 146.085 304.373ZM156.213 295.349H158.061L146.589 312.149H144.741L156.213 295.349ZM146.085 303.005C146.821 303.005 147.397 302.725 147.813 302.165C148.229 301.589 148.437 300.797 148.437 299.789C148.437 298.781 148.229 297.997 147.813 297.437C147.397 296.861 146.821 296.573 146.085 296.573C145.365 296.573 144.789 296.861 144.357 297.437C143.941 298.013 143.733 298.797 143.733 299.789C143.733 300.781 143.941 301.565 144.357 302.141C144.789 302.717 145.365 303.005 146.085 303.005ZM156.717 312.293C155.549 312.293 154.605 311.877 153.885 311.045C153.181 310.197 152.829 309.085 152.829 307.709C152.829 306.333 153.181 305.229 153.885 304.397C154.605 303.549 155.549 303.125 156.717 303.125C157.885 303.125 158.829 303.549 159.549 304.397C160.269 305.245 160.629 306.349 160.629 307.709C160.629 309.069 160.269 310.173 159.549 311.021C158.829 311.869 157.885 312.293 156.717 312.293ZM156.717 310.925C157.437 310.925 158.005 310.637 158.421 310.061C158.853 309.485 159.069 308.701 159.069 307.709C159.069 306.717 158.853 305.933 158.421 305.357C158.005 304.781 157.437 304.493 156.717 304.493C155.981 304.493 155.405 304.781 154.989 305.357C154.573 305.917 154.365 306.701 154.365 307.709C154.365 308.717 154.573 309.509 154.989 310.085C155.405 310.645 155.981 310.925 156.717 310.925Z" fill="#82321D"/>
<path d="M139.16 239.369H136.424V242.897H132.632V239.369H123.584V236.753L131.504 226.097H135.584L128.24 236.201H132.752V233.057H136.424V236.201H139.16V239.369ZM155.707 239.369H152.971V242.897H149.179V239.369H140.131V236.753L148.051 226.097H152.131L144.787 236.201H149.299V233.057H152.971V236.201H155.707V239.369ZM160.734 235.121C159.566 235.121 158.622 234.697 157.902 233.849C157.182 233.001 156.822 231.897 156.822 230.537C156.822 229.177 157.182 228.073 157.902 227.225C158.622 226.377 159.566 225.953 160.734 225.953C161.902 225.953 162.838 226.377 163.542 227.225C164.262 228.057 164.622 229.161 164.622 230.537C164.622 231.913 164.262 233.025 163.542 233.873C162.838 234.705 161.902 235.121 160.734 235.121ZM170.862 226.097H172.71L161.238 242.897H159.39L170.862 226.097ZM160.734 233.753C161.47 233.753 162.046 233.473 162.462 232.913C162.878 232.337 163.086 231.545 163.086 230.537C163.086 229.529 162.878 228.745 162.462 228.185C162.046 227.609 161.47 227.321 160.734 227.321C160.014 227.321 159.438 227.609 159.006 228.185C158.59 228.761 158.382 229.545 158.382 230.537C158.382 231.529 158.59 232.313 159.006 232.889C159.438 233.465 160.014 233.753 160.734 233.753ZM171.366 243.041C170.198 243.041 169.254 242.625 168.534 241.793C167.83 240.945 167.478 239.833 167.478 238.457C167.478 237.081 167.83 235.977 168.534 235.145C169.254 234.297 170.198 233.873 171.366 233.873C172.534 233.873 173.478 234.297 174.198 235.145C174.918 235.993 175.278 237.097 175.278 238.457C175.278 239.817 174.918 240.921 174.198 241.769C173.478 242.617 172.534 243.041 171.366 243.041ZM171.366 241.673C172.086 241.673 172.654 241.385 173.07 240.809C173.502 240.233 173.718 239.449 173.718 238.457C173.718 237.465 173.502 236.681 173.07 236.105C172.654 235.529 172.086 235.241 171.366 235.241C170.63 235.241 170.054 235.529 169.638 236.105C169.222 236.665 169.014 237.449 169.014 238.457C169.014 239.465 169.222 240.257 169.638 240.833C170.054 241.393 170.63 241.673 171.366 241.673Z" fill="#82321D"/>
<rect x="117.5" y="185.645" width="50.1387" height="119.426" transform="rotate(-90 117.5 185.645)" fill="#F3EAEA" stroke="#82321D"/>
<path d="M139.16 171.866H136.424V175.394H132.632V171.866H123.584V169.25L131.504 158.594H135.584L128.24 168.698H132.752V165.554H136.424V168.698H139.16V171.866ZM155.707 171.866H152.971V175.394H149.179V171.866H140.131V169.25L148.051 158.594H152.131L144.787 168.698H149.299V165.554H152.971V168.698H155.707V171.866ZM160.734 167.618C159.566 167.618 158.622 167.194 157.902 166.346C157.182 165.498 156.822 164.394 156.822 163.034C156.822 161.674 157.182 160.57 157.902 159.722C158.622 158.874 159.566 158.45 160.734 158.45C161.902 158.45 162.838 158.874 163.542 159.722C164.262 160.554 164.622 161.658 164.622 163.034C164.622 164.41 164.262 165.522 163.542 166.37C162.838 167.202 161.902 167.618 160.734 167.618ZM170.862 158.594H172.71L161.238 175.394H159.39L170.862 158.594ZM160.734 166.25C161.47 166.25 162.046 165.97 162.462 165.41C162.878 164.834 163.086 164.042 163.086 163.034C163.086 162.026 162.878 161.242 162.462 160.682C162.046 160.106 161.47 159.818 160.734 159.818C160.014 159.818 159.438 160.106 159.006 160.682C158.59 161.258 158.382 162.042 158.382 163.034C158.382 164.026 158.59 164.81 159.006 165.386C159.438 165.962 160.014 166.25 160.734 166.25ZM171.366 175.538C170.198 175.538 169.254 175.122 168.534 174.29C167.83 173.442 167.478 172.33 167.478 170.954C167.478 169.578 167.83 168.474 168.534 167.642C169.254 166.794 170.198 166.37 171.366 166.37C172.534 166.37 173.478 166.794 174.198 167.642C174.918 168.49 175.278 169.594 175.278 170.954C175.278 172.314 174.918 173.418 174.198 174.266C173.478 175.114 172.534 175.538 171.366 175.538ZM171.366 174.17C172.086 174.17 172.654 173.882 173.07 173.306C173.502 172.73 173.718 171.946 173.718 170.954C173.718 169.962 173.502 169.178 173.07 168.602C172.654 168.026 172.086 167.738 171.366 167.738C170.63 167.738 170.054 168.026 169.638 168.602C169.222 169.162 169.014 169.946 169.014 170.954C169.014 171.962 169.222 172.754 169.638 173.33C170.054 173.89 170.63 174.17 171.366 174.17Z" fill="#82321D"/>
<path d="M129.305 97.4026C131.673 97.4026 133.417 97.8746 134.537 98.8186C135.673 99.7626 136.241 101.027 136.241 102.611C136.241 103.635 135.985 104.571 135.473 105.419C134.961 106.251 134.177 106.923 133.121 107.435C132.081 107.931 130.793 108.179 129.257 108.179C128.073 108.179 126.905 108.027 125.753 107.723C124.617 107.403 123.649 106.955 122.849 106.379L124.385 103.403C125.025 103.883 125.761 104.259 126.593 104.531C127.425 104.787 128.281 104.915 129.161 104.915C130.137 104.915 130.905 104.723 131.465 104.339C132.025 103.955 132.305 103.419 132.305 102.731C132.305 102.011 132.009 101.467 131.417 101.099C130.841 100.731 129.833 100.547 128.393 100.547H124.097L124.961 91.0906H135.209V94.2106H128.201L127.937 97.4026H129.305ZM145.907 97.3546C146.979 97.3546 147.955 97.5706 148.835 98.0026C149.715 98.4346 150.411 99.0506 150.923 99.8506C151.435 100.635 151.691 101.547 151.691 102.587C151.691 103.707 151.411 104.691 150.851 105.539C150.291 106.387 149.523 107.043 148.547 107.507C147.587 107.955 146.515 108.179 145.331 108.179C142.979 108.179 141.139 107.459 139.811 106.019C138.483 104.579 137.819 102.523 137.819 99.8506C137.819 97.9466 138.179 96.3146 138.899 94.9546C139.619 93.5946 140.619 92.5626 141.899 91.8586C143.195 91.1546 144.691 90.8026 146.387 90.8026C147.283 90.8026 148.139 90.9066 148.955 91.1146C149.787 91.3066 150.491 91.5866 151.067 91.9546L149.627 94.8106C148.795 94.2506 147.747 93.9706 146.483 93.9706C145.059 93.9706 143.931 94.3866 143.099 95.2186C142.267 96.0506 141.819 97.2586 141.755 98.8426C142.747 97.8506 144.131 97.3546 145.907 97.3546ZM145.115 105.275C145.947 105.275 146.619 105.051 147.131 104.603C147.659 104.155 147.923 103.547 147.923 102.779C147.923 102.011 147.659 101.403 147.131 100.955C146.619 100.491 145.931 100.259 145.067 100.259C144.219 100.259 143.523 100.499 142.979 100.979C142.435 101.443 142.163 102.043 142.163 102.779C142.163 103.515 142.427 104.115 142.955 104.579C143.483 105.043 144.203 105.275 145.115 105.275ZM156.964 100.115C155.796 100.115 154.852 99.6906 154.132 98.8426C153.412 97.9946 153.052 96.8906 153.052 95.5306C153.052 94.1706 153.412 93.0666 154.132 92.2186C154.852 91.3706 155.796 90.9466 156.964 90.9466C158.132 90.9466 159.068 91.3706 159.772 92.2186C160.492 93.0506 160.852 94.1546 160.852 95.5306C160.852 96.9066 160.492 98.0186 159.772 98.8666C159.068 99.6986 158.132 100.115 156.964 100.115ZM167.092 91.0906H168.94L157.468 107.891H155.62L167.092 91.0906ZM156.964 98.7466C157.7 98.7466 158.276 98.4666 158.692 97.9066C159.108 97.3306 159.316 96.5386 159.316 95.5306C159.316 94.5226 159.108 93.7386 158.692 93.1786C158.276 92.6026 157.7 92.3146 156.964 92.3146C156.244 92.3146 155.668 92.6026 155.236 93.1786C154.82 93.7546 154.612 94.5386 154.612 95.5306C154.612 96.5226 154.82 97.3066 155.236 97.8826C155.668 98.4586 156.244 98.7466 156.964 98.7466ZM167.596 108.035C166.428 108.035 165.484 107.619 164.764 106.787C164.06 105.939 163.708 104.827 163.708 103.451C163.708 102.075 164.06 100.971 164.764 100.139C165.484 99.2906 166.428 98.8666 167.596 98.8666C168.764 98.8666 169.708 99.2906 170.428 100.139C171.148 100.987 171.508 102.091 171.508 103.451C171.508 104.811 171.148 105.915 170.428 106.763C169.708 107.611 168.764 108.035 167.596 108.035ZM167.596 106.667C168.316 106.667 168.884 106.379 169.3 105.803C169.732 105.227 169.948 104.443 169.948 103.451C169.948 102.459 169.732 101.675 169.3 101.099C168.884 100.523 168.316 100.235 167.596 100.235C166.86 100.235 166.284 100.523 165.868 101.099C165.452 101.659 165.244 102.443 165.244 103.451C165.244 104.459 165.452 105.251 165.868 105.827C166.284 106.387 166.86 106.667 167.596 106.667Z" fill="#82321D"/>
<path d="M131.876 29.8512C132.948 29.8512 133.924 30.0672 134.804 30.4992C135.684 30.9312 136.38 31.5472 136.892 32.3472C137.404 33.1312 137.66 34.0432 137.66 35.0832C137.66 36.2032 137.38 37.1872 136.82 38.0352C136.26 38.8832 135.492 39.5392 134.516 40.0032C133.556 40.4512 132.484 40.6752 131.3 40.6752C128.948 40.6752 127.108 39.9552 125.78 38.5152C124.452 37.0752 123.788 35.0192 123.788 32.3472C123.788 30.4432 124.148 28.8112 124.868 27.4512C125.588 26.0912 126.588 25.0592 127.868 24.3552C129.164 23.6512 130.66 23.2992 132.356 23.2992C133.252 23.2992 134.108 23.4032 134.924 23.6112C135.756 23.8032 136.46 24.0832 137.036 24.4512L135.596 27.3072C134.764 26.7472 133.716 26.4672 132.452 26.4672C131.028 26.4672 129.9 26.8832 129.068 27.7152C128.236 28.5472 127.788 29.7552 127.724 31.3392C128.716 30.3472 130.1 29.8512 131.876 29.8512ZM131.084 37.7712C131.916 37.7712 132.588 37.5472 133.1 37.0992C133.628 36.6512 133.892 36.0432 133.892 35.2752C133.892 34.5072 133.628 33.8992 133.1 33.4512C132.588 32.9872 131.9 32.7552 131.036 32.7552C130.188 32.7552 129.492 32.9952 128.948 33.4752C128.404 33.9392 128.132 34.5392 128.132 35.2752C128.132 36.0112 128.396 36.6112 128.924 37.0752C129.452 37.5392 130.172 37.7712 131.084 37.7712ZM152.127 23.5872V26.1072L145.887 40.3872H141.663L147.687 26.7552H142.119V29.4912H138.663V23.5872H152.127ZM157.722 32.6112C156.554 32.6112 155.61 32.1872 154.89 31.3392C154.17 30.4912 153.81 29.3872 153.81 28.0272C153.81 26.6672 154.17 25.5632 154.89 24.7152C155.61 23.8672 156.554 23.4432 157.722 23.4432C158.89 23.4432 159.826 23.8672 160.53 24.7152C161.25 25.5472 161.61 26.6512 161.61 28.0272C161.61 29.4032 161.25 30.5152 160.53 31.3632C159.826 32.1952 158.89 32.6112 157.722 32.6112ZM167.85 23.5872H169.698L158.226 40.3872H156.378L167.85 23.5872ZM157.722 31.2432C158.458 31.2432 159.034 30.9632 159.45 30.4032C159.866 29.8272 160.074 29.0352 160.074 28.0272C160.074 27.0192 159.866 26.2352 159.45 25.6752C159.034 25.0992 158.458 24.8112 157.722 24.8112C157.002 24.8112 156.426 25.0992 155.994 25.6752C155.578 26.2512 155.37 27.0352 155.37 28.0272C155.37 29.0192 155.578 29.8032 155.994 30.3792C156.426 30.9552 157.002 31.2432 157.722 31.2432ZM168.354 40.5312C167.186 40.5312 166.242 40.1152 165.522 39.2832C164.818 38.4352 164.466 37.3232 164.466 35.9472C164.466 34.5712 164.818 33.4672 165.522 32.6352C166.242 31.7872 167.186 31.3632 168.354 31.3632C169.522 31.3632 170.466 31.7872 171.186 32.6352C171.906 33.4832 172.266 34.5872 172.266 35.9472C172.266 37.3072 171.906 38.4112 171.186 39.2592C170.466 40.1072 169.522 40.5312 168.354 40.5312ZM168.354 39.1632C169.074 39.1632 169.642 38.8752 170.058 38.2992C170.49 37.7232 170.706 36.9392 170.706 35.9472C170.706 34.9552 170.49 34.1712 170.058 33.5952C169.642 33.0192 169.074 32.7312 168.354 32.7312C167.618 32.7312 167.042 33.0192 166.626 33.5952C166.21 34.1552 166.002 34.9392 166.002 35.9472C166.002 36.9552 166.21 37.7472 166.626 38.3232C167.042 38.8832 167.618 39.1632 168.354 39.1632Z" fill="#82321D"/>
<path d="M5.115 12.1C6.115 12.1 6.92 12.375 7.53 12.925C8.14 13.465 8.445 14.195 8.445 15.115C8.445 16.035 8.14 16.77 7.53 17.32C6.92 17.86 6.115 18.13 5.115 18.13H2.82V22H1.62V12.1H5.115ZM4.935 17.005C5.705 17.005 6.27 16.85 6.63 16.54C7 16.22 7.185 15.745 7.185 15.115C7.185 14.485 7 14.015 6.63 13.705C6.27 13.385 5.705 13.225 4.935 13.225H2.82V17.005H4.935ZM14.3903 14.35C14.7503 14.35 15.0253 14.4 15.2153 14.5L14.9753 15.67C14.7353 15.54 14.4203 15.475 14.0303 15.475C13.7103 15.475 13.3953 15.57 13.0853 15.76C12.7853 15.94 12.5353 16.22 12.3353 16.6C12.1453 16.97 12.0503 17.42 12.0503 17.95V22H10.8503V14.5H11.8253L11.9903 15.73C12.4103 14.81 13.2103 14.35 14.3903 14.35ZM23.4739 17.86C23.4739 18.14 23.4539 18.42 23.4139 18.7H17.7589C17.8289 19.46 18.0789 20.05 18.5089 20.47C18.9489 20.89 19.5139 21.1 20.2039 21.1C20.7539 21.1 21.2089 21.005 21.5689 20.815C21.9389 20.625 22.1889 20.35 22.3189 19.99L23.3239 20.515C23.0239 21.045 22.6239 21.45 22.1239 21.73C21.6239 22.01 20.9839 22.15 20.2039 22.15C19.0739 22.15 18.1839 21.805 17.5339 21.115C16.8939 20.425 16.5739 19.47 16.5739 18.25C16.5739 17.03 16.8789 16.075 17.4889 15.385C18.1089 14.695 18.9839 14.35 20.1139 14.35C20.8139 14.35 21.4189 14.505 21.9289 14.815C22.4389 15.125 22.8239 15.545 23.0839 16.075C23.3439 16.605 23.4739 17.2 23.4739 17.86ZM20.1139 15.4C19.4539 15.4 18.9189 15.595 18.5089 15.985C18.1089 16.375 17.8639 16.925 17.7739 17.635H22.3189C22.2389 16.935 22.0089 16.39 21.6289 16C21.2489 15.6 20.7439 15.4 20.1139 15.4ZM32.7148 11.05V22H31.6648L31.5898 20.695C31.3698 21.135 31.0298 21.49 30.5698 21.76C30.1198 22.02 29.6048 22.15 29.0248 22.15C27.9748 22.15 27.1398 21.805 26.5198 21.115C25.9098 20.415 25.6048 19.46 25.6048 18.25C25.6048 17.04 25.9098 16.09 26.5198 15.4C27.1398 14.7 27.9748 14.35 29.0248 14.35C29.5748 14.35 30.0648 14.47 30.4948 14.71C30.9348 14.95 31.2748 15.27 31.5148 15.67V11.05H32.7148ZM29.1598 21.1C29.8798 21.1 30.4498 20.85 30.8698 20.35C31.2998 19.85 31.5148 19.18 31.5148 18.34V18.16C31.5148 17.32 31.2998 16.65 30.8698 16.15C30.4498 15.65 29.8798 15.4 29.1598 15.4C28.4298 15.4 27.8548 15.66 27.4348 16.18C27.0148 16.69 26.8048 17.38 26.8048 18.25C26.8048 19.12 27.0148 19.815 27.4348 20.335C27.8548 20.845 28.4298 21.1 29.1598 21.1ZM36.403 13.06C36.133 13.06 35.913 12.98 35.743 12.82C35.583 12.65 35.503 12.43 35.503 12.16C35.503 11.89 35.583 11.675 35.743 11.515C35.913 11.345 36.133 11.26 36.403 11.26C36.673 11.26 36.888 11.345 37.048 11.515C37.218 11.675 37.303 11.89 37.303 12.16C37.303 12.43 37.218 12.65 37.048 12.82C36.888 12.98 36.673 13.06 36.403 13.06ZM37.003 22H35.803V14.5H37.003V22ZM43.2524 14.35C44.0024 14.35 44.6324 14.525 45.1424 14.875C45.6624 15.215 46.0674 15.705 46.3574 16.345L45.2174 16.885C44.8974 15.895 44.2324 15.4 43.2224 15.4C42.4724 15.4 41.8824 15.655 41.4524 16.165C41.0324 16.665 40.8224 17.36 40.8224 18.25C40.8224 19.14 41.0324 19.84 41.4524 20.35C41.8824 20.85 42.4724 21.1 43.2224 21.1C43.8024 21.1 44.2674 20.97 44.6174 20.71C44.9774 20.44 45.2124 20.055 45.3224 19.555L46.4324 19.945C46.1724 20.645 45.7724 21.19 45.2324 21.58C44.6924 21.96 44.0324 22.15 43.2524 22.15C42.1224 22.15 41.2324 21.805 40.5824 21.115C39.9424 20.425 39.6224 19.47 39.6224 18.25C39.6224 17.03 39.9424 16.075 40.5824 15.385C41.2324 14.695 42.1224 14.35 43.2524 14.35ZM53.4442 21.475C52.9442 21.925 52.2992 22.15 51.5092 22.15C50.8992 22.15 50.3992 21.985 50.0092 21.655C49.6292 21.325 49.4342 20.82 49.4242 20.14V15.535H47.9242V14.5H49.4242V12.7L50.6242 12.37V14.5H53.3992V15.535H50.6242V19.93C50.6242 20.29 50.7242 20.565 50.9242 20.755C51.1342 20.935 51.4092 21.025 51.7492 21.025C52.2292 21.025 52.6542 20.84 53.0242 20.47L53.4442 21.475ZM56.0384 13.06C55.7684 13.06 55.5484 12.98 55.3784 12.82C55.2184 12.65 55.1384 12.43 55.1384 12.16C55.1384 11.89 55.2184 11.675 55.3784 11.515C55.5484 11.345 55.7684 11.26 56.0384 11.26C56.3084 11.26 56.5234 11.345 56.6834 11.515C56.8534 11.675 56.9384 11.89 56.9384 12.16C56.9384 12.43 56.8534 12.65 56.6834 12.82C56.5234 12.98 56.3084 13.06 56.0384 13.06ZM56.6384 22H55.4384V14.5H56.6384V22ZM63.3677 14.35C64.2177 14.35 64.9177 14.595 65.4677 15.085C66.0177 15.575 66.2927 16.28 66.2927 17.2V22H65.0927V17.62C65.0927 16.84 64.9227 16.275 64.5827 15.925C64.2527 15.575 63.8077 15.4 63.2477 15.4C62.8477 15.4 62.4727 15.49 62.1227 15.67C61.7727 15.84 61.4827 16.125 61.2527 16.525C61.0327 16.915 60.9227 17.41 60.9227 18.01V22H59.7227V14.5H60.7727L60.8477 15.67C61.0977 15.22 61.4427 14.89 61.8827 14.68C62.3227 14.46 62.8177 14.35 63.3677 14.35ZM73.4948 21.04C74.2048 21.04 74.7598 21.2 75.1598 21.52C75.5598 21.84 75.7598 22.275 75.7598 22.825C75.7598 23.305 75.5948 23.725 75.2648 24.085C74.9348 24.455 74.4848 24.735 73.9148 24.925C73.3548 25.125 72.7348 25.225 72.0548 25.225C70.9148 25.225 70.0548 25.04 69.4748 24.67C68.8948 24.31 68.6048 23.835 68.6048 23.245C68.6048 22.905 68.7198 22.605 68.9498 22.345C69.1898 22.085 69.5148 21.9 69.9248 21.79C69.6148 21.64 69.3648 21.45 69.1748 21.22C68.9948 20.99 68.9048 20.72 68.9048 20.41C68.9048 20.04 69.0048 19.735 69.2048 19.495C69.4048 19.245 69.6798 19.06 70.0298 18.94C69.6698 18.72 69.3948 18.435 69.2048 18.085C69.0248 17.725 68.9348 17.325 68.9348 16.885C68.9348 16.395 69.0648 15.96 69.3248 15.58C69.5848 15.19 69.9498 14.89 70.4198 14.68C70.8898 14.46 71.4198 14.35 72.0098 14.35C72.5698 14.35 73.0798 14.45 73.5398 14.65C73.8198 13.63 74.5248 13.12 75.6548 13.12L75.9248 14.17C74.9448 14.17 74.3498 14.445 74.1398 14.995C74.4398 15.225 74.6698 15.5 74.8298 15.82C74.9998 16.14 75.0848 16.495 75.0848 16.885C75.0848 17.375 74.9548 17.815 74.6948 18.205C74.4348 18.585 74.0698 18.885 73.5998 19.105C73.1298 19.315 72.5998 19.42 72.0098 19.42C71.5698 19.42 71.1848 19.375 70.8548 19.285C70.5548 19.355 70.3398 19.465 70.2098 19.615C70.0798 19.765 70.0148 19.97 70.0148 20.23C70.0148 20.49 70.1048 20.69 70.2848 20.83C70.4648 20.97 70.7048 21.04 71.0048 21.04H73.4948ZM72.0098 15.325C71.4898 15.325 71.0548 15.47 70.7048 15.76C70.3548 16.05 70.1798 16.425 70.1798 16.885C70.1798 17.345 70.3548 17.72 70.7048 18.01C71.0548 18.3 71.4898 18.445 72.0098 18.445C72.5298 18.445 72.9648 18.3 73.3148 18.01C73.6648 17.72 73.8398 17.345 73.8398 16.885C73.8398 16.425 73.6648 16.05 73.3148 15.76C72.9648 15.47 72.5298 15.325 72.0098 15.325ZM72.1898 24.22C72.9498 24.22 73.5498 24.095 73.9898 23.845C74.4298 23.605 74.6498 23.31 74.6498 22.96C74.6498 22.67 74.5348 22.45 74.3048 22.3C74.0848 22.15 73.7048 22.075 73.1648 22.075H71.1548C70.6948 22.075 70.3398 22.155 70.0898 22.315C69.8398 22.485 69.7148 22.715 69.7148 23.005C69.7148 23.385 69.9248 23.68 70.3448 23.89C70.7648 24.11 71.3798 24.22 72.1898 24.22ZM7.545 39.13C7.745 39.13 7.945 39.105 8.145 39.055L8.07 40C7.79 40.1 7.49 40.15 7.17 40.15C6.78 40.15 6.47 40.065 6.24 39.895C6.02 39.725 5.88 39.44 5.82 39.04C5.59 39.39 5.25 39.665 4.8 39.865C4.36 40.055 3.895 40.15 3.405 40.15C2.665 40.15 2.055 39.98 1.575 39.64C1.095 39.29 0.855 38.79 0.855 38.14C0.855 37.57 1.105 37.08 1.605 36.67C2.105 36.25 2.83 35.96 3.78 35.8L5.775 35.47V35.05C5.775 34.55 5.62 34.15 5.31 33.85C5 33.55 4.57 33.4 4.02 33.4C3.52 33.4 3.085 33.52 2.715 33.76C2.355 34 2.075 34.355 1.875 34.825L0.99 34.18C1.19 33.62 1.56 33.175 2.1 32.845C2.65 32.515 3.29 32.35 4.02 32.35C4.91 32.35 5.625 32.565 6.165 32.995C6.705 33.425 6.975 34.06 6.975 34.9V38.59C6.975 38.77 7.02 38.905 7.11 38.995C7.2 39.085 7.345 39.13 7.545 39.13ZM3.465 39.1C4.095 39.1 4.635 38.95 5.085 38.65C5.545 38.35 5.775 37.96 5.775 37.48V36.445L4.095 36.76C3.425 36.88 2.925 37.055 2.595 37.285C2.265 37.505 2.1 37.79 2.1 38.14C2.1 38.45 2.22 38.69 2.46 38.86C2.7 39.02 3.035 39.1 3.465 39.1ZM14.4881 39.475C13.9881 39.925 13.3431 40.15 12.5531 40.15C11.9431 40.15 11.4431 39.985 11.0531 39.655C10.6731 39.325 10.4781 38.82 10.4681 38.14V33.535H8.96813V32.5H10.4681V30.7L11.6681 30.37V32.5H14.4431V33.535H11.6681V37.93C11.6681 38.29 11.7681 38.565 11.9681 38.755C12.1781 38.935 12.4531 39.025 12.7931 39.025C13.2731 39.025 13.6981 38.84 14.0681 38.47L14.4881 39.475ZM20.1055 39.475C19.6055 39.925 18.9605 40.15 18.1705 40.15C17.5605 40.15 17.0605 39.985 16.6705 39.655C16.2905 39.325 16.0955 38.82 16.0855 38.14V33.535H14.5855V32.5H16.0855V30.7L17.2855 30.37V32.5H20.0605V33.535H17.2855V37.93C17.2855 38.29 17.3855 38.565 17.5855 38.755C17.7955 38.935 18.0705 39.025 18.4105 39.025C18.8905 39.025 19.3155 38.84 19.6855 38.47L20.1055 39.475ZM28.5347 35.86C28.5347 36.14 28.5147 36.42 28.4747 36.7H22.8197C22.8897 37.46 23.1397 38.05 23.5697 38.47C24.0097 38.89 24.5747 39.1 25.2647 39.1C25.8147 39.1 26.2697 39.005 26.6297 38.815C26.9997 38.625 27.2497 38.35 27.3797 37.99L28.3847 38.515C28.0847 39.045 27.6847 39.45 27.1847 39.73C26.6847 40.01 26.0447 40.15 25.2647 40.15C24.1347 40.15 23.2447 39.805 22.5947 39.115C21.9547 38.425 21.6347 37.47 21.6347 36.25C21.6347 35.03 21.9397 34.075 22.5497 33.385C23.1697 32.695 24.0447 32.35 25.1747 32.35C25.8747 32.35 26.4797 32.505 26.9897 32.815C27.4997 33.125 27.8847 33.545 28.1447 34.075C28.4047 34.605 28.5347 35.2 28.5347 35.86ZM25.1747 33.4C24.5147 33.4 23.9797 33.595 23.5697 33.985C23.1697 34.375 22.9247 34.925 22.8347 35.635H27.3797C27.2997 34.935 27.0697 34.39 26.6897 34C26.3097 33.6 25.8047 33.4 25.1747 33.4ZM34.7605 32.35C35.6105 32.35 36.3105 32.595 36.8605 33.085C37.4105 33.575 37.6855 34.28 37.6855 35.2V40H36.4855V35.62C36.4855 34.84 36.3155 34.275 35.9755 33.925C35.6455 33.575 35.2005 33.4 34.6405 33.4C34.2405 33.4 33.8655 33.49 33.5155 33.67C33.1655 33.84 32.8755 34.125 32.6455 34.525C32.4255 34.915 32.3155 35.41 32.3155 36.01V40H31.1155V32.5H32.1655L32.2405 33.67C32.4905 33.22 32.8355 32.89 33.2755 32.68C33.7155 32.46 34.2105 32.35 34.7605 32.35ZM47.3626 29.05V40H46.3126L46.2376 38.695C46.0176 39.135 45.6776 39.49 45.2176 39.76C44.7676 40.02 44.2526 40.15 43.6726 40.15C42.6226 40.15 41.7876 39.805 41.1676 39.115C40.5576 38.415 40.2526 37.46 40.2526 36.25C40.2526 35.04 40.5576 34.09 41.1676 33.4C41.7876 32.7 42.6226 32.35 43.6726 32.35C44.2226 32.35 44.7126 32.47 45.1426 32.71C45.5826 32.95 45.9226 33.27 46.1626 33.67V29.05H47.3626ZM43.8076 39.1C44.5276 39.1 45.0976 38.85 45.5176 38.35C45.9476 37.85 46.1626 37.18 46.1626 36.34V36.16C46.1626 35.32 45.9476 34.65 45.5176 34.15C45.0976 33.65 44.5276 33.4 43.8076 33.4C43.0776 33.4 42.5026 33.66 42.0826 34.18C41.6626 34.69 41.4526 35.38 41.4526 36.25C41.4526 37.12 41.6626 37.815 42.0826 38.335C42.5026 38.845 43.0776 39.1 43.8076 39.1ZM56.6009 39.13C56.8009 39.13 57.0009 39.105 57.2009 39.055L57.1259 40C56.8459 40.1 56.5459 40.15 56.2259 40.15C55.8359 40.15 55.5259 40.065 55.2959 39.895C55.0759 39.725 54.9359 39.44 54.8759 39.04C54.6459 39.39 54.3059 39.665 53.8559 39.865C53.4159 40.055 52.9509 40.15 52.4609 40.15C51.7209 40.15 51.1109 39.98 50.6309 39.64C50.1509 39.29 49.9109 38.79 49.9109 38.14C49.9109 37.57 50.1609 37.08 50.6609 36.67C51.1609 36.25 51.8859 35.96 52.8359 35.8L54.8309 35.47V35.05C54.8309 34.55 54.6759 34.15 54.3659 33.85C54.0559 33.55 53.6259 33.4 53.0759 33.4C52.5759 33.4 52.1409 33.52 51.7709 33.76C51.4109 34 51.1309 34.355 50.9309 34.825L50.0459 34.18C50.2459 33.62 50.6159 33.175 51.1559 32.845C51.7059 32.515 52.3459 32.35 53.0759 32.35C53.9659 32.35 54.6809 32.565 55.2209 32.995C55.7609 33.425 56.0309 34.06 56.0309 34.9V38.59C56.0309 38.77 56.0759 38.905 56.1659 38.995C56.2559 39.085 56.4009 39.13 56.6009 39.13ZM52.5209 39.1C53.1509 39.1 53.6909 38.95 54.1409 38.65C54.6009 38.35 54.8309 37.96 54.8309 37.48V36.445L53.1509 36.76C52.4809 36.88 51.9809 37.055 51.6509 37.285C51.3209 37.505 51.1559 37.79 51.1559 38.14C51.1559 38.45 51.2759 38.69 51.5159 38.86C51.7559 39.02 52.0909 39.1 52.5209 39.1ZM62.892 32.35C63.742 32.35 64.442 32.595 64.992 33.085C65.542 33.575 65.817 34.28 65.817 35.2V40H64.617V35.62C64.617 34.84 64.447 34.275 64.107 33.925C63.777 33.575 63.332 33.4 62.772 33.4C62.372 33.4 61.997 33.49 61.647 33.67C61.297 33.84 61.007 34.125 60.777 34.525C60.557 34.915 60.447 35.41 60.447 36.01V40H59.247V32.5H60.297L60.372 33.67C60.622 33.22 60.967 32.89 61.407 32.68C61.847 32.46 62.342 32.35 62.892 32.35ZM71.9991 32.35C72.7491 32.35 73.3791 32.525 73.8891 32.875C74.4091 33.215 74.8141 33.705 75.1041 34.345L73.9641 34.885C73.6441 33.895 72.9791 33.4 71.9691 33.4C71.2191 33.4 70.6291 33.655 70.1991 34.165C69.7791 34.665 69.5691 35.36 69.5691 36.25C69.5691 37.14 69.7791 37.84 70.1991 38.35C70.6291 38.85 71.2191 39.1 71.9691 39.1C72.5491 39.1 73.0141 38.97 73.3641 38.71C73.7241 38.44 73.9591 38.055 74.0691 37.555L75.1791 37.945C74.9191 38.645 74.5191 39.19 73.9791 39.58C73.4391 39.96 72.7791 40.15 71.9991 40.15C70.8691 40.15 69.9791 39.805 69.3291 39.115C68.6891 38.425 68.3691 37.47 68.3691 36.25C68.3691 35.03 68.6891 34.075 69.3291 33.385C69.9791 32.695 70.8691 32.35 71.9991 32.35ZM84.0359 35.86C84.0359 36.14 84.0159 36.42 83.9759 36.7H78.3209C78.3909 37.46 78.6409 38.05 79.0709 38.47C79.5109 38.89 80.0759 39.1 80.7659 39.1C81.3159 39.1 81.7709 39.005 82.1309 38.815C82.5009 38.625 82.7509 38.35 82.8809 37.99L83.8859 38.515C83.5859 39.045 83.1859 39.45 82.6859 39.73C82.1859 40.01 81.5459 40.15 80.7659 40.15C79.6359 40.15 78.7459 39.805 78.0959 39.115C77.4559 38.425 77.1359 37.47 77.1359 36.25C77.1359 35.03 77.4409 34.075 78.0509 33.385C78.6709 32.695 79.5459 32.35 80.6759 32.35C81.3759 32.35 81.9809 32.505 82.4909 32.815C83.0009 33.125 83.3859 33.545 83.6459 34.075C83.9059 34.605 84.0359 35.2 84.0359 35.86ZM80.6759 33.4C80.0159 33.4 79.4809 33.595 79.0709 33.985C78.6709 34.375 78.4259 34.925 78.3359 35.635H82.8809C82.8009 34.935 82.5709 34.39 82.1909 34C81.8109 33.6 81.3059 33.4 80.6759 33.4Z" fill="black"/>
<path d="M2.82 81.225V84.42H7.29V85.545H2.82V90H1.62V80.1H8.55V81.225H2.82ZM16.465 85.86C16.465 86.14 16.445 86.42 16.405 86.7H10.75C10.82 87.46 11.07 88.05 11.5 88.47C11.94 88.89 12.505 89.1 13.195 89.1C13.745 89.1 14.2 89.005 14.56 88.815C14.93 88.625 15.18 88.35 15.31 87.99L16.315 88.515C16.015 89.045 15.615 89.45 15.115 89.73C14.615 90.01 13.975 90.15 13.195 90.15C12.065 90.15 11.175 89.805 10.525 89.115C9.88496 88.425 9.56496 87.47 9.56496 86.25C9.56496 85.03 9.86996 84.075 10.48 83.385C11.1 82.695 11.975 82.35 13.105 82.35C13.805 82.35 14.41 82.505 14.92 82.815C15.43 83.125 15.815 83.545 16.075 84.075C16.335 84.605 16.465 85.2 16.465 85.86ZM13.105 83.4C12.445 83.4 11.91 83.595 11.5 83.985C11.1 84.375 10.855 84.925 10.765 85.635H15.31C15.23 84.935 15 84.39 14.62 84C14.24 83.6 13.735 83.4 13.105 83.4ZM25.4808 85.86C25.4808 86.14 25.4608 86.42 25.4208 86.7H19.7658C19.8358 87.46 20.0858 88.05 20.5158 88.47C20.9558 88.89 21.5208 89.1 22.2108 89.1C22.7608 89.1 23.2158 89.005 23.5758 88.815C23.9458 88.625 24.1958 88.35 24.3258 87.99L25.3308 88.515C25.0308 89.045 24.6308 89.45 24.1308 89.73C23.6308 90.01 22.9908 90.15 22.2108 90.15C21.0808 90.15 20.1908 89.805 19.5408 89.115C18.9008 88.425 18.5808 87.47 18.5808 86.25C18.5808 85.03 18.8858 84.075 19.4958 83.385C20.1158 82.695 20.9908 82.35 22.1208 82.35C22.8208 82.35 23.4258 82.505 23.9358 82.815C24.4458 83.125 24.8308 83.545 25.0908 84.075C25.3508 84.605 25.4808 85.2 25.4808 85.86ZM22.1208 83.4C21.4608 83.4 20.9258 83.595 20.5158 83.985C20.1158 84.375 19.8708 84.925 19.7808 85.635H24.3258C24.2458 84.935 24.0158 84.39 23.6358 84C23.2558 83.6 22.7508 83.4 22.1208 83.4ZM29.2016 87.99C29.2016 88.37 29.2566 88.635 29.3666 88.785C29.4866 88.925 29.7016 88.995 30.0116 88.995C30.2216 88.995 30.4016 88.98 30.5516 88.95C30.7116 88.92 30.8966 88.865 31.1066 88.785L30.9116 89.94C30.5816 90.08 30.2116 90.15 29.8016 90.15C29.1916 90.15 28.7366 89.985 28.4366 89.655C28.1466 89.325 28.0016 88.82 28.0016 88.14V79.05H29.2016V87.99ZM33.5466 81.06C33.2766 81.06 33.0566 80.98 32.8866 80.82C32.7266 80.65 32.6466 80.43 32.6466 80.16C32.6466 79.89 32.7266 79.675 32.8866 79.515C33.0566 79.345 33.2766 79.26 33.5466 79.26C33.8166 79.26 34.0316 79.345 34.1916 79.515C34.3616 79.675 34.4466 79.89 34.4466 80.16C34.4466 80.43 34.3616 80.65 34.1916 80.82C34.0316 80.98 33.8166 81.06 33.5466 81.06ZM34.1466 90H32.9466V82.5H34.1466V90ZM40.8759 82.35C41.7259 82.35 42.4259 82.595 42.9759 83.085C43.5259 83.575 43.8009 84.28 43.8009 85.2V90H42.6009V85.62C42.6009 84.84 42.4309 84.275 42.0909 83.925C41.7609 83.575 41.3159 83.4 40.7559 83.4C40.3559 83.4 39.9809 83.49 39.6309 83.67C39.2809 83.84 38.9909 84.125 38.7609 84.525C38.5409 84.915 38.4309 85.41 38.4309 86.01V90H37.2309V82.5H38.2809L38.3559 83.67C38.6059 83.22 38.9509 82.89 39.3909 82.68C39.8309 82.46 40.3259 82.35 40.8759 82.35ZM51.003 89.04C51.713 89.04 52.268 89.2 52.668 89.52C53.068 89.84 53.268 90.275 53.268 90.825C53.268 91.305 53.103 91.725 52.773 92.085C52.443 92.455 51.993 92.735 51.423 92.925C50.863 93.125 50.243 93.225 49.563 93.225C48.423 93.225 47.563 93.04 46.983 92.67C46.403 92.31 46.113 91.835 46.113 91.245C46.113 90.905 46.228 90.605 46.458 90.345C46.698 90.085 47.023 89.9 47.433 89.79C47.123 89.64 46.873 89.45 46.683 89.22C46.503 88.99 46.413 88.72 46.413 88.41C46.413 88.04 46.513 87.735 46.713 87.495C46.913 87.245 47.188 87.06 47.538 86.94C47.178 86.72 46.903 86.435 46.713 86.085C46.533 85.725 46.443 85.325 46.443 84.885C46.443 84.395 46.573 83.96 46.833 83.58C47.093 83.19 47.458 82.89 47.928 82.68C48.398 82.46 48.928 82.35 49.518 82.35C50.078 82.35 50.588 82.45 51.048 82.65C51.328 81.63 52.033 81.12 53.163 81.12L53.433 82.17C52.453 82.17 51.858 82.445 51.648 82.995C51.948 83.225 52.178 83.5 52.338 83.82C52.508 84.14 52.593 84.495 52.593 84.885C52.593 85.375 52.463 85.815 52.203 86.205C51.943 86.585 51.578 86.885 51.108 87.105C50.638 87.315 50.108 87.42 49.518 87.42C49.078 87.42 48.693 87.375 48.363 87.285C48.063 87.355 47.848 87.465 47.718 87.615C47.588 87.765 47.523 87.97 47.523 88.23C47.523 88.49 47.613 88.69 47.793 88.83C47.973 88.97 48.213 89.04 48.513 89.04H51.003ZM49.518 83.325C48.998 83.325 48.563 83.47 48.213 83.76C47.863 84.05 47.688 84.425 47.688 84.885C47.688 85.345 47.863 85.72 48.213 86.01C48.563 86.3 48.998 86.445 49.518 86.445C50.038 86.445 50.473 86.3 50.823 86.01C51.173 85.72 51.348 85.345 51.348 84.885C51.348 84.425 51.173 84.05 50.823 83.76C50.473 83.47 50.038 83.325 49.518 83.325ZM49.698 92.22C50.458 92.22 51.058 92.095 51.498 91.845C51.938 91.605 52.158 91.31 52.158 90.96C52.158 90.67 52.043 90.45 51.813 90.3C51.593 90.15 51.213 90.075 50.673 90.075H48.663C48.203 90.075 47.848 90.155 47.598 90.315C47.348 90.485 47.223 90.715 47.223 91.005C47.223 91.385 47.433 91.68 47.853 91.89C48.273 92.11 48.888 92.22 49.698 92.22ZM8.055 97.05V108H7.005L6.93 106.695C6.71 107.135 6.37 107.49 5.91 107.76C5.46 108.02 4.945 108.15 4.365 108.15C3.315 108.15 2.48 107.805 1.86 107.115C1.25 106.415 0.945 105.46 0.945 104.25C0.945 103.04 1.25 102.09 1.86 101.4C2.48 100.7 3.315 100.35 4.365 100.35C4.915 100.35 5.405 100.47 5.835 100.71C6.275 100.95 6.615 101.27 6.855 101.67V97.05H8.055ZM4.5 107.1C5.22 107.1 5.79 106.85 6.21 106.35C6.64 105.85 6.855 105.18 6.855 104.34V104.16C6.855 103.32 6.64 102.65 6.21 102.15C5.79 101.65 5.22 101.4 4.5 101.4C3.77 101.4 3.195 101.66 2.775 102.18C2.355 102.69 2.145 103.38 2.145 104.25C2.145 105.12 2.355 105.815 2.775 106.335C3.195 106.845 3.77 107.1 4.5 107.1ZM11.7432 99.06C11.4732 99.06 11.2532 98.98 11.0832 98.82C10.9232 98.65 10.8432 98.43 10.8432 98.16C10.8432 97.89 10.9232 97.675 11.0832 97.515C11.2532 97.345 11.4732 97.26 11.7432 97.26C12.0132 97.26 12.2282 97.345 12.3882 97.515C12.5582 97.675 12.6432 97.89 12.6432 98.16C12.6432 98.43 12.5582 98.65 12.3882 98.82C12.2282 98.98 12.0132 99.06 11.7432 99.06ZM12.3432 108H11.1432V100.5H12.3432V108ZM17.9776 108.15C17.2576 108.15 16.6076 108.01 16.0276 107.73C15.4476 107.44 15.0226 107.015 14.7526 106.455L15.7276 105.78C15.8976 106.22 16.1926 106.55 16.6126 106.77C17.0326 106.99 17.5276 107.1 18.0976 107.1C18.6876 107.1 19.1376 106.995 19.4476 106.785C19.7576 106.575 19.9126 106.31 19.9126 105.99C19.9126 105.7 19.7676 105.47 19.4776 105.3C19.1876 105.12 18.6776 104.965 17.9476 104.835C17.2276 104.705 16.6576 104.55 16.2376 104.37C15.8176 104.18 15.5126 103.945 15.3226 103.665C15.1326 103.375 15.0376 103.02 15.0376 102.6C15.0376 102.19 15.1576 101.815 15.3976 101.475C15.6376 101.135 15.9826 100.865 16.4326 100.665C16.8826 100.455 17.4026 100.35 17.9926 100.35C18.7926 100.35 19.4326 100.5 19.9126 100.8C20.4026 101.09 20.7526 101.54 20.9626 102.15L19.9426 102.75C19.7826 102.27 19.5376 101.925 19.2076 101.715C18.8876 101.505 18.4826 101.4 17.9926 101.4C17.5026 101.4 17.0876 101.51 16.7476 101.73C16.4076 101.95 16.2376 102.205 16.2376 102.495C16.2376 102.825 16.3826 103.08 16.6726 103.26C16.9726 103.44 17.5026 103.595 18.2626 103.725C19.3026 103.895 20.0376 104.15 20.4676 104.49C20.8976 104.83 21.1126 105.31 21.1126 105.93C21.1126 106.36 20.9826 106.745 20.7226 107.085C20.4726 107.415 20.1076 107.675 19.6276 107.865C19.1576 108.055 18.6076 108.15 17.9776 108.15ZM26.8028 100.35C27.9328 100.35 28.8178 100.695 29.4578 101.385C30.1078 102.075 30.4328 103.03 30.4328 104.25C30.4328 105.47 30.1078 106.425 29.4578 107.115C28.8178 107.805 27.9328 108.15 26.8028 108.15C25.6728 108.15 24.7828 107.805 24.1328 107.115C23.4928 106.425 23.1728 105.47 23.1728 104.25C23.1728 103.03 23.4928 102.075 24.1328 101.385C24.7828 100.695 25.6728 100.35 26.8028 100.35ZM26.8028 101.385C26.0428 101.385 25.4478 101.64 25.0178 102.15C24.5878 102.66 24.3728 103.36 24.3728 104.25C24.3728 105.14 24.5878 105.84 25.0178 106.35C25.4478 106.86 26.0428 107.115 26.8028 107.115C27.5628 107.115 28.1578 106.86 28.5878 106.35C29.0178 105.84 29.2328 105.14 29.2328 104.25C29.2328 103.36 29.0178 102.66 28.5878 102.15C28.1578 101.64 27.5628 101.385 26.8028 101.385ZM36.6038 100.35C36.9638 100.35 37.2388 100.4 37.4288 100.5L37.1888 101.67C36.9488 101.54 36.6338 101.475 36.2438 101.475C35.9238 101.475 35.6088 101.57 35.2988 101.76C34.9988 101.94 34.7488 102.22 34.5488 102.6C34.3588 102.97 34.2638 103.42 34.2638 103.95V108H33.0638V100.5H34.0388L34.2038 101.73C34.6238 100.81 35.4238 100.35 36.6038 100.35ZM43.2909 107.04C44.0009 107.04 44.5559 107.2 44.9559 107.52C45.3559 107.84 45.5559 108.275 45.5559 108.825C45.5559 109.305 45.3909 109.725 45.0609 110.085C44.7309 110.455 44.2809 110.735 43.7109 110.925C43.1509 111.125 42.5309 111.225 41.8509 111.225C40.7109 111.225 39.8509 111.04 39.2709 110.67C38.6909 110.31 38.4009 109.835 38.4009 109.245C38.4009 108.905 38.5159 108.605 38.7459 108.345C38.9859 108.085 39.3109 107.9 39.7209 107.79C39.4109 107.64 39.1609 107.45 38.9709 107.22C38.7909 106.99 38.7009 106.72 38.7009 106.41C38.7009 106.04 38.8009 105.735 39.0009 105.495C39.2009 105.245 39.4759 105.06 39.8259 104.94C39.4659 104.72 39.1909 104.435 39.0009 104.085C38.8209 103.725 38.7309 103.325 38.7309 102.885C38.7309 102.395 38.8609 101.96 39.1209 101.58C39.3809 101.19 39.7459 100.89 40.2159 100.68C40.6859 100.46 41.2159 100.35 41.8059 100.35C42.3659 100.35 42.8759 100.45 43.3359 100.65C43.6159 99.63 44.3209 99.12 45.4509 99.12L45.7209 100.17C44.7409 100.17 44.1459 100.445 43.9359 100.995C44.2359 101.225 44.4659 101.5 44.6259 101.82C44.7959 102.14 44.8809 102.495 44.8809 102.885C44.8809 103.375 44.7509 103.815 44.4909 104.205C44.2309 104.585 43.8659 104.885 43.3959 105.105C42.9259 105.315 42.3959 105.42 41.8059 105.42C41.3659 105.42 40.9809 105.375 40.6509 105.285C40.3509 105.355 40.1359 105.465 40.0059 105.615C39.8759 105.765 39.8109 105.97 39.8109 106.23C39.8109 106.49 39.9009 106.69 40.0809 106.83C40.2609 106.97 40.5009 107.04 40.8009 107.04H43.2909ZM41.8059 101.325C41.2859 101.325 40.8509 101.47 40.5009 101.76C40.1509 102.05 39.9759 102.425 39.9759 102.885C39.9759 103.345 40.1509 103.72 40.5009 104.01C40.8509 104.3 41.2859 104.445 41.8059 104.445C42.3259 104.445 42.7609 104.3 43.1109 104.01C43.4609 103.72 43.6359 103.345 43.6359 102.885C43.6359 102.425 43.4609 102.05 43.1109 101.76C42.7609 101.47 42.3259 101.325 41.8059 101.325ZM41.9859 110.22C42.7459 110.22 43.3459 110.095 43.7859 109.845C44.2259 109.605 44.4459 109.31 44.4459 108.96C44.4459 108.67 44.3309 108.45 44.1009 108.3C43.8809 108.15 43.5009 108.075 42.9609 108.075H40.9509C40.4909 108.075 40.1359 108.155 39.8859 108.315C39.6359 108.485 39.5109 108.715 39.5109 109.005C39.5109 109.385 39.7209 109.68 40.1409 109.89C40.5609 110.11 41.1759 110.22 41.9859 110.22ZM53.7884 107.13C53.9884 107.13 54.1884 107.105 54.3884 107.055L54.3134 108C54.0334 108.1 53.7334 108.15 53.4134 108.15C53.0234 108.15 52.7134 108.065 52.4834 107.895C52.2634 107.725 52.1234 107.44 52.0634 107.04C51.8334 107.39 51.4934 107.665 51.0434 107.865C50.6034 108.055 50.1384 108.15 49.6484 108.15C48.9084 108.15 48.2984 107.98 47.8184 107.64C47.3384 107.29 47.0984 106.79 47.0984 106.14C47.0984 105.57 47.3484 105.08 47.8484 104.67C48.3484 104.25 49.0734 103.96 50.0234 103.8L52.0184 103.47V103.05C52.0184 102.55 51.8634 102.15 51.5534 101.85C51.2434 101.55 50.8134 101.4 50.2634 101.4C49.7634 101.4 49.3284 101.52 48.9584 101.76C48.5984 102 48.3184 102.355 48.1184 102.825L47.2334 102.18C47.4334 101.62 47.8034 101.175 48.3434 100.845C48.8934 100.515 49.5334 100.35 50.2634 100.35C51.1534 100.35 51.8684 100.565 52.4084 100.995C52.9484 101.425 53.2184 102.06 53.2184 102.9V106.59C53.2184 106.77 53.2634 106.905 53.3534 106.995C53.4434 107.085 53.5884 107.13 53.7884 107.13ZM49.7084 107.1C50.3384 107.1 50.8784 106.95 51.3284 106.65C51.7884 106.35 52.0184 105.96 52.0184 105.48V104.445L50.3384 104.76C49.6684 104.88 49.1684 105.055 48.8384 105.285C48.5084 105.505 48.3434 105.79 48.3434 106.14C48.3434 106.45 48.4634 106.69 48.7034 106.86C48.9434 107.02 49.2784 107.1 49.7084 107.1ZM60.0795 100.35C60.9295 100.35 61.6295 100.595 62.1795 101.085C62.7295 101.575 63.0045 102.28 63.0045 103.2V108H61.8045V103.62C61.8045 102.84 61.6345 102.275 61.2945 101.925C60.9645 101.575 60.5195 101.4 59.9595 101.4C59.5595 101.4 59.1845 101.49 58.8345 101.67C58.4845 101.84 58.1945 102.125 57.9645 102.525C57.7445 102.915 57.6345 103.41 57.6345 104.01V108H56.4345V100.5H57.4845L57.5595 101.67C57.8095 101.22 58.1545 100.89 58.5945 100.68C59.0345 100.46 59.5295 100.35 60.0795 100.35ZM66.6216 99.06C66.3516 99.06 66.1316 98.98 65.9616 98.82C65.8016 98.65 65.7216 98.43 65.7216 98.16C65.7216 97.89 65.8016 97.675 65.9616 97.515C66.1316 97.345 66.3516 97.26 66.6216 97.26C66.8916 97.26 67.1066 97.345 67.2666 97.515C67.4366 97.675 67.5216 97.89 67.5216 98.16C67.5216 98.43 67.4366 98.65 67.2666 98.82C67.1066 98.98 66.8916 99.06 66.6216 99.06ZM67.2216 108H66.0216V100.5H67.2216V108ZM69.7659 107.085L73.6959 102.48L74.6409 101.505L73.3059 101.535H69.8109V100.5H75.9759V101.415L72.0459 106.02L71.1159 106.995L72.5709 106.965H76.0959V108H69.7659V107.085ZM84.9364 103.86C84.9364 104.14 84.9164 104.42 84.8764 104.7H79.2214C79.2914 105.46 79.5414 106.05 79.9714 106.47C80.4114 106.89 80.9764 107.1 81.6664 107.1C82.2164 107.1 82.6714 107.005 83.0314 106.815C83.4014 106.625 83.6514 106.35 83.7814 105.99L84.7864 106.515C84.4864 107.045 84.0864 107.45 83.5864 107.73C83.0864 108.01 82.4464 108.15 81.6664 108.15C80.5364 108.15 79.6464 107.805 78.9964 107.115C78.3564 106.425 78.0364 105.47 78.0364 104.25C78.0364 103.03 78.3414 102.075 78.9514 101.385C79.5714 100.695 80.4464 100.35 81.5764 100.35C82.2764 100.35 82.8814 100.505 83.3914 100.815C83.9014 101.125 84.2864 101.545 84.5464 102.075C84.8064 102.605 84.9364 103.2 84.9364 103.86ZM81.5764 101.4C80.9164 101.4 80.3814 101.595 79.9714 101.985C79.5714 102.375 79.3264 102.925 79.2364 103.635H83.7814C83.7014 102.935 83.4714 102.39 83.0914 102C82.7114 101.6 82.2064 101.4 81.5764 101.4ZM94.1773 97.05V108H93.1273L93.0523 106.695C92.8323 107.135 92.4923 107.49 92.0323 107.76C91.5823 108.02 91.0673 108.15 90.4873 108.15C89.4373 108.15 88.6023 107.805 87.9823 107.115C87.3723 106.415 87.0673 105.46 87.0673 104.25C87.0673 103.04 87.3723 102.09 87.9823 101.4C88.6023 100.7 89.4373 100.35 90.4873 100.35C91.0373 100.35 91.5273 100.47 91.9573 100.71C92.3973 100.95 92.7373 101.27 92.9773 101.67V97.05H94.1773ZM90.6223 107.1C91.3423 107.1 91.9123 106.85 92.3323 106.35C92.7623 105.85 92.9773 105.18 92.9773 104.34V104.16C92.9773 103.32 92.7623 102.65 92.3323 102.15C91.9123 101.65 91.3423 101.4 90.6223 101.4C89.8923 101.4 89.3173 101.66 88.8973 102.18C88.4773 102.69 88.2673 103.38 88.2673 104.25C88.2673 105.12 88.4773 105.815 88.8973 106.335C89.3173 106.845 89.8923 107.1 90.6223 107.1Z" fill="black"/>
<path d="M4.8 146.95C6.57 146.95 7.845 147.65 8.625 149.05L7.59 149.89C7.29 149.23 6.93 148.765 6.51 148.495C6.1 148.215 5.535 148.075 4.815 148.075C4.055 148.075 3.455 148.235 3.015 148.555C2.585 148.865 2.37 149.265 2.37 149.755C2.37 150.075 2.455 150.34 2.625 150.55C2.795 150.76 3.075 150.945 3.465 151.105C3.865 151.255 4.415 151.39 5.115 151.51C6.425 151.73 7.35 152.06 7.89 152.5C8.44 152.94 8.715 153.55 8.715 154.33C8.715 154.89 8.555 155.385 8.235 155.815C7.925 156.235 7.48 156.565 6.9 156.805C6.32 157.035 5.65 157.15 4.89 157.15C3.89 157.15 3.035 156.955 2.325 156.565C1.625 156.175 1.09 155.655 0.72 155.005L1.755 154.165C2.025 154.755 2.42 155.215 2.94 155.545C3.47 155.865 4.13 156.025 4.92 156.025C5.7 156.025 6.32 155.885 6.78 155.605C7.24 155.315 7.47 154.91 7.47 154.39C7.47 153.95 7.27 153.6 6.87 153.34C6.47 153.08 5.76 152.86 4.74 152.68C3.42 152.45 2.485 152.12 1.935 151.69C1.385 151.26 1.11 150.66 1.11 149.89C1.11 149.36 1.26 148.87 1.56 148.42C1.86 147.97 2.29 147.615 2.85 147.355C3.41 147.085 4.06 146.95 4.8 146.95ZM17.7394 152.86C17.7394 153.14 17.7194 153.42 17.6794 153.7H12.0244C12.0944 154.46 12.3444 155.05 12.7744 155.47C13.2144 155.89 13.7794 156.1 14.4694 156.1C15.0194 156.1 15.4744 156.005 15.8344 155.815C16.2044 155.625 16.4544 155.35 16.5844 154.99L17.5894 155.515C17.2894 156.045 16.8894 156.45 16.3894 156.73C15.8894 157.01 15.2494 157.15 14.4694 157.15C13.3394 157.15 12.4494 156.805 11.7994 156.115C11.1594 155.425 10.8394 154.47 10.8394 153.25C10.8394 152.03 11.1444 151.075 11.7544 150.385C12.3744 149.695 13.2494 149.35 14.3794 149.35C15.0794 149.35 15.6844 149.505 16.1944 149.815C16.7044 150.125 17.0894 150.545 17.3494 151.075C17.6094 151.605 17.7394 152.2 17.7394 152.86ZM14.3794 150.4C13.7194 150.4 13.1844 150.595 12.7744 150.985C12.3744 151.375 12.1294 151.925 12.0394 152.635H16.5844C16.5044 151.935 16.2744 151.39 15.8944 151C15.5144 150.6 15.0094 150.4 14.3794 150.4ZM23.9652 149.35C24.8152 149.35 25.5152 149.595 26.0652 150.085C26.6152 150.575 26.8902 151.28 26.8902 152.2V157H25.6902V152.62C25.6902 151.84 25.5202 151.275 25.1802 150.925C24.8502 150.575 24.4052 150.4 23.8452 150.4C23.4452 150.4 23.0702 150.49 22.7202 150.67C22.3702 150.84 22.0802 151.125 21.8502 151.525C21.6302 151.915 21.5202 152.41 21.5202 153.01V157H20.3202V149.5H21.3702L21.4452 150.67C21.6952 150.22 22.0402 149.89 22.4802 149.68C22.9202 149.46 23.4152 149.35 23.9652 149.35ZM36.5673 146.05V157H35.5173L35.4423 155.695C35.2223 156.135 34.8823 156.49 34.4223 156.76C33.9723 157.02 33.4573 157.15 32.8773 157.15C31.8273 157.15 30.9923 156.805 30.3723 156.115C29.7623 155.415 29.4573 154.46 29.4573 153.25C29.4573 152.04 29.7623 151.09 30.3723 150.4C30.9923 149.7 31.8273 149.35 32.8773 149.35C33.4273 149.35 33.9173 149.47 34.3473 149.71C34.7873 149.95 35.1273 150.27 35.3673 150.67V146.05H36.5673ZM33.0123 156.1C33.7323 156.1 34.3023 155.85 34.7223 155.35C35.1523 154.85 35.3673 154.18 35.3673 153.34V153.16C35.3673 152.32 35.1523 151.65 34.7223 151.15C34.3023 150.65 33.7323 150.4 33.0123 150.4C32.2823 150.4 31.7073 150.66 31.2873 151.18C30.8673 151.69 30.6573 152.38 30.6573 153.25C30.6573 154.12 30.8673 154.815 31.2873 155.335C31.7073 155.845 32.2823 156.1 33.0123 156.1ZM40.2555 148.06C39.9855 148.06 39.7655 147.98 39.5955 147.82C39.4355 147.65 39.3555 147.43 39.3555 147.16C39.3555 146.89 39.4355 146.675 39.5955 146.515C39.7655 146.345 39.9855 146.26 40.2555 146.26C40.5255 146.26 40.7405 146.345 40.9005 146.515C41.0705 146.675 41.1555 146.89 41.1555 147.16C41.1555 147.43 41.0705 147.65 40.9005 147.82C40.7405 147.98 40.5255 148.06 40.2555 148.06ZM40.8555 157H39.6555V149.5H40.8555V157ZM47.5849 149.35C48.4349 149.35 49.1349 149.595 49.6849 150.085C50.2349 150.575 50.5099 151.28 50.5099 152.2V157H49.3099V152.62C49.3099 151.84 49.1399 151.275 48.7999 150.925C48.4699 150.575 48.0249 150.4 47.4649 150.4C47.0649 150.4 46.6899 150.49 46.3399 150.67C45.9899 150.84 45.6999 151.125 45.4699 151.525C45.2499 151.915 45.1399 152.41 45.1399 153.01V157H43.9399V149.5H44.9899L45.0649 150.67C45.3149 150.22 45.6599 149.89 46.0999 149.68C46.5399 149.46 47.0349 149.35 47.5849 149.35ZM57.712 156.04C58.422 156.04 58.977 156.2 59.377 156.52C59.777 156.84 59.977 157.275 59.977 157.825C59.977 158.305 59.812 158.725 59.482 159.085C59.152 159.455 58.702 159.735 58.132 159.925C57.572 160.125 56.952 160.225 56.272 160.225C55.132 160.225 54.272 160.04 53.692 159.67C53.112 159.31 52.822 158.835 52.822 158.245C52.822 157.905 52.937 157.605 53.167 157.345C53.407 157.085 53.732 156.9 54.142 156.79C53.832 156.64 53.582 156.45 53.392 156.22C53.212 155.99 53.122 155.72 53.122 155.41C53.122 155.04 53.222 154.735 53.422 154.495C53.622 154.245 53.897 154.06 54.247 153.94C53.887 153.72 53.612 153.435 53.422 153.085C53.242 152.725 53.152 152.325 53.152 151.885C53.152 151.395 53.282 150.96 53.542 150.58C53.802 150.19 54.167 149.89 54.637 149.68C55.107 149.46 55.637 149.35 56.227 149.35C56.787 149.35 57.297 149.45 57.757 149.65C58.037 148.63 58.742 148.12 59.872 148.12L60.142 149.17C59.162 149.17 58.567 149.445 58.357 149.995C58.657 150.225 58.887 150.5 59.047 150.82C59.217 151.14 59.302 151.495 59.302 151.885C59.302 152.375 59.172 152.815 58.912 153.205C58.652 153.585 58.287 153.885 57.817 154.105C57.347 154.315 56.817 154.42 56.227 154.42C55.787 154.42 55.402 154.375 55.072 154.285C54.772 154.355 54.557 154.465 54.427 154.615C54.297 154.765 54.232 154.97 54.232 155.23C54.232 155.49 54.322 155.69 54.502 155.83C54.682 155.97 54.922 156.04 55.222 156.04H57.712ZM56.227 150.325C55.707 150.325 55.272 150.47 54.922 150.76C54.572 151.05 54.397 151.425 54.397 151.885C54.397 152.345 54.572 152.72 54.922 153.01C55.272 153.3 55.707 153.445 56.227 153.445C56.747 153.445 57.182 153.3 57.532 153.01C57.882 152.72 58.057 152.345 58.057 151.885C58.057 151.425 57.882 151.05 57.532 150.76C57.182 150.47 56.747 150.325 56.227 150.325ZM56.407 159.22C57.167 159.22 57.767 159.095 58.207 158.845C58.647 158.605 58.867 158.31 58.867 157.96C58.867 157.67 58.752 157.45 58.522 157.3C58.302 157.15 57.922 157.075 57.382 157.075H55.372C54.912 157.075 54.557 157.155 54.307 157.315C54.057 157.485 53.932 157.715 53.932 158.005C53.932 158.385 54.142 158.68 54.562 158.89C54.982 159.11 55.597 159.22 56.407 159.22ZM1.995 166.06C1.725 166.06 1.505 165.98 1.335 165.82C1.175 165.65 1.095 165.43 1.095 165.16C1.095 164.89 1.175 164.675 1.335 164.515C1.505 164.345 1.725 164.26 1.995 164.26C2.265 164.26 2.48 164.345 2.64 164.515C2.81 164.675 2.895 164.89 2.895 165.16C2.895 165.43 2.81 165.65 2.64 165.82C2.48 165.98 2.265 166.06 1.995 166.06ZM2.595 175H1.395V167.5H2.595V175ZM9.32438 167.35C10.1744 167.35 10.8744 167.595 11.4244 168.085C11.9744 168.575 12.2494 169.28 12.2494 170.2V175H11.0494V170.62C11.0494 169.84 10.8794 169.275 10.5394 168.925C10.2094 168.575 9.76438 168.4 9.20438 168.4C8.80438 168.4 8.42938 168.49 8.07938 168.67C7.72938 168.84 7.43938 169.125 7.20938 169.525C6.98938 169.915 6.87938 170.41 6.87938 171.01V175H5.67938V167.5H6.72938L6.80438 168.67C7.05438 168.22 7.39938 167.89 7.83938 167.68C8.27938 167.46 8.77438 167.35 9.32438 167.35ZM21.3011 167.5L18.1811 175H16.9811L13.8611 167.5H15.2261L17.5961 173.785L20.0411 167.5H21.3011ZM23.769 166.06C23.499 166.06 23.279 165.98 23.109 165.82C22.949 165.65 22.869 165.43 22.869 165.16C22.869 164.89 22.949 164.675 23.109 164.515C23.279 164.345 23.499 164.26 23.769 164.26C24.039 164.26 24.254 164.345 24.414 164.515C24.584 164.675 24.669 164.89 24.669 165.16C24.669 165.43 24.584 165.65 24.414 165.82C24.254 165.98 24.039 166.06 23.769 166.06ZM24.369 175H23.169V167.5H24.369V175ZM32.0434 174.475C31.5434 174.925 30.8984 175.15 30.1084 175.15C29.4984 175.15 28.9984 174.985 28.6084 174.655C28.2284 174.325 28.0334 173.82 28.0234 173.14V168.535H26.5234V167.5H28.0234V165.7L29.2234 165.37V167.5H31.9984V168.535H29.2234V172.93C29.2234 173.29 29.3234 173.565 29.5234 173.755C29.7334 173.935 30.0084 174.025 30.3484 174.025C30.8284 174.025 31.2534 173.84 31.6234 173.47L32.0434 174.475ZM40.4726 170.86C40.4726 171.14 40.4526 171.42 40.4126 171.7H34.7576C34.8276 172.46 35.0776 173.05 35.5076 173.47C35.9476 173.89 36.5126 174.1 37.2026 174.1C37.7526 174.1 38.2076 174.005 38.5676 173.815C38.9376 173.625 39.1876 173.35 39.3176 172.99L40.3226 173.515C40.0226 174.045 39.6226 174.45 39.1226 174.73C38.6226 175.01 37.9826 175.15 37.2026 175.15C36.0726 175.15 35.1826 174.805 34.5326 174.115C33.8926 173.425 33.5726 172.47 33.5726 171.25C33.5726 170.03 33.8776 169.075 34.4876 168.385C35.1076 167.695 35.9826 167.35 37.1126 167.35C37.8126 167.35 38.4176 167.505 38.9276 167.815C39.4376 168.125 39.8226 168.545 40.0826 169.075C40.3426 169.605 40.4726 170.2 40.4726 170.86ZM37.1126 168.4C36.4526 168.4 35.9176 168.595 35.5076 168.985C35.1076 169.375 34.8626 169.925 34.7726 170.635H39.3176C39.2376 169.935 39.0076 169.39 38.6276 169C38.2476 168.6 37.7426 168.4 37.1126 168.4ZM45.6034 175.15C44.8834 175.15 44.2334 175.01 43.6534 174.73C43.0734 174.44 42.6484 174.015 42.3784 173.455L43.3534 172.78C43.5234 173.22 43.8184 173.55 44.2384 173.77C44.6584 173.99 45.1534 174.1 45.7234 174.1C46.3134 174.1 46.7634 173.995 47.0734 173.785C47.3834 173.575 47.5384 173.31 47.5384 172.99C47.5384 172.7 47.3934 172.47 47.1034 172.3C46.8134 172.12 46.3034 171.965 45.5734 171.835C44.8534 171.705 44.2834 171.55 43.8634 171.37C43.4434 171.18 43.1384 170.945 42.9484 170.665C42.7584 170.375 42.6634 170.02 42.6634 169.6C42.6634 169.19 42.7834 168.815 43.0234 168.475C43.2634 168.135 43.6084 167.865 44.0584 167.665C44.5084 167.455 45.0284 167.35 45.6184 167.35C46.4184 167.35 47.0584 167.5 47.5384 167.8C48.0284 168.09 48.3784 168.54 48.5884 169.15L47.5684 169.75C47.4084 169.27 47.1634 168.925 46.8334 168.715C46.5134 168.505 46.1084 168.4 45.6184 168.4C45.1284 168.4 44.7134 168.51 44.3734 168.73C44.0334 168.95 43.8634 169.205 43.8634 169.495C43.8634 169.825 44.0084 170.08 44.2984 170.26C44.5984 170.44 45.1284 170.595 45.8884 170.725C46.9284 170.895 47.6634 171.15 48.0934 171.49C48.5234 171.83 48.7384 172.31 48.7384 172.93C48.7384 173.36 48.6084 173.745 48.3484 174.085C48.0984 174.415 47.7334 174.675 47.2534 174.865C46.7834 175.055 46.2334 175.15 45.6034 175.15Z" fill="black"/>
<path d="M8.58 216.225H5.13V225H3.93V216.225H0.48V215.1H8.58V216.225ZM13.2477 217.35C13.6077 217.35 13.8827 217.4 14.0727 217.5L13.8327 218.67C13.5927 218.54 13.2777 218.475 12.8877 218.475C12.5677 218.475 12.2527 218.57 11.9427 218.76C11.6427 218.94 11.3927 219.22 11.1927 219.6C11.0027 219.97 10.9077 220.42 10.9077 220.95V225H9.7077V217.5H10.6827L10.8477 218.73C11.2677 217.81 12.0677 217.35 13.2477 217.35ZM22.0757 224.13C22.2757 224.13 22.4757 224.105 22.6757 224.055L22.6007 225C22.3207 225.1 22.0207 225.15 21.7007 225.15C21.3107 225.15 21.0007 225.065 20.7707 224.895C20.5507 224.725 20.4107 224.44 20.3507 224.04C20.1207 224.39 19.7807 224.665 19.3307 224.865C18.8907 225.055 18.4257 225.15 17.9357 225.15C17.1957 225.15 16.5857 224.98 16.1057 224.64C15.6257 224.29 15.3857 223.79 15.3857 223.14C15.3857 222.57 15.6357 222.08 16.1357 221.67C16.6357 221.25 17.3607 220.96 18.3107 220.8L20.3057 220.47V220.05C20.3057 219.55 20.1507 219.15 19.8407 218.85C19.5307 218.55 19.1007 218.4 18.5507 218.4C18.0507 218.4 17.6157 218.52 17.2457 218.76C16.8857 219 16.6057 219.355 16.4057 219.825L15.5207 219.18C15.7207 218.62 16.0907 218.175 16.6307 217.845C17.1807 217.515 17.8207 217.35 18.5507 217.35C19.4407 217.35 20.1557 217.565 20.6957 217.995C21.2357 218.425 21.5057 219.06 21.5057 219.9V223.59C21.5057 223.77 21.5507 223.905 21.6407 223.995C21.7307 224.085 21.8757 224.13 22.0757 224.13ZM17.9957 224.1C18.6257 224.1 19.1657 223.95 19.6157 223.65C20.0757 223.35 20.3057 222.96 20.3057 222.48V221.445L18.6257 221.76C17.9557 221.88 17.4557 222.055 17.1257 222.285C16.7957 222.505 16.6307 222.79 16.6307 223.14C16.6307 223.45 16.7507 223.69 16.9907 223.86C17.2307 224.02 17.5657 224.1 17.9957 224.1ZM27.8868 217.35C28.6368 217.35 29.2668 217.525 29.7768 217.875C30.2968 218.215 30.7018 218.705 30.9918 219.345L29.8518 219.885C29.5318 218.895 28.8668 218.4 27.8568 218.4C27.1068 218.4 26.5168 218.655 26.0868 219.165C25.6668 219.665 25.4568 220.36 25.4568 221.25C25.4568 222.14 25.6668 222.84 26.0868 223.35C26.5168 223.85 27.1068 224.1 27.8568 224.1C28.4368 224.1 28.9018 223.97 29.2518 223.71C29.6118 223.44 29.8468 223.055 29.9568 222.555L31.0668 222.945C30.8068 223.645 30.4068 224.19 29.8668 224.58C29.3268 224.96 28.6668 225.15 27.8868 225.15C26.7568 225.15 25.8668 224.805 25.2168 224.115C24.5768 223.425 24.2568 222.47 24.2568 221.25C24.2568 220.03 24.5768 219.075 25.2168 218.385C25.8668 217.695 26.7568 217.35 27.8868 217.35ZM36.2786 221.295L34.6886 222.885V225H33.4886V214.05H34.6886V221.385L38.5736 217.5H40.0736L37.1486 220.425L40.2536 225H38.7986L36.2786 221.295ZM42.8993 216.06C42.6293 216.06 42.4093 215.98 42.2393 215.82C42.0793 215.65 41.9993 215.43 41.9993 215.16C41.9993 214.89 42.0793 214.675 42.2393 214.515C42.4093 214.345 42.6293 214.26 42.8993 214.26C43.1693 214.26 43.3843 214.345 43.5443 214.515C43.7143 214.675 43.7993 214.89 43.7993 215.16C43.7993 215.43 43.7143 215.65 43.5443 215.82C43.3843 215.98 43.1693 216.06 42.8993 216.06ZM43.4993 225H42.2993V217.5H43.4993V225ZM50.2287 217.35C51.0787 217.35 51.7787 217.595 52.3287 218.085C52.8787 218.575 53.1537 219.28 53.1537 220.2V225H51.9537V220.62C51.9537 219.84 51.7837 219.275 51.4437 218.925C51.1137 218.575 50.6687 218.4 50.1087 218.4C49.7087 218.4 49.3337 218.49 48.9837 218.67C48.6337 218.84 48.3437 219.125 48.1137 219.525C47.8937 219.915 47.7837 220.41 47.7837 221.01V225H46.5837V217.5H47.6337L47.7087 218.67C47.9587 218.22 48.3037 217.89 48.7437 217.68C49.1837 217.46 49.6787 217.35 50.2287 217.35ZM60.3558 224.04C61.0658 224.04 61.6208 224.2 62.0208 224.52C62.4208 224.84 62.6208 225.275 62.6208 225.825C62.6208 226.305 62.4558 226.725 62.1258 227.085C61.7958 227.455 61.3458 227.735 60.7758 227.925C60.2158 228.125 59.5958 228.225 58.9158 228.225C57.7758 228.225 56.9158 228.04 56.3358 227.67C55.7558 227.31 55.4658 226.835 55.4658 226.245C55.4658 225.905 55.5808 225.605 55.8108 225.345C56.0508 225.085 56.3758 224.9 56.7858 224.79C56.4758 224.64 56.2258 224.45 56.0358 224.22C55.8558 223.99 55.7658 223.72 55.7658 223.41C55.7658 223.04 55.8658 222.735 56.0658 222.495C56.2658 222.245 56.5408 222.06 56.8908 221.94C56.5308 221.72 56.2558 221.435 56.0658 221.085C55.8858 220.725 55.7958 220.325 55.7958 219.885C55.7958 219.395 55.9258 218.96 56.1858 218.58C56.4458 218.19 56.8108 217.89 57.2808 217.68C57.7508 217.46 58.2808 217.35 58.8708 217.35C59.4308 217.35 59.9408 217.45 60.4008 217.65C60.6808 216.63 61.3858 216.12 62.5158 216.12L62.7858 217.17C61.8058 217.17 61.2108 217.445 61.0008 217.995C61.3008 218.225 61.5308 218.5 61.6908 218.82C61.8608 219.14 61.9458 219.495 61.9458 219.885C61.9458 220.375 61.8158 220.815 61.5558 221.205C61.2958 221.585 60.9308 221.885 60.4608 222.105C59.9908 222.315 59.4608 222.42 58.8708 222.42C58.4308 222.42 58.0458 222.375 57.7158 222.285C57.4158 222.355 57.2008 222.465 57.0708 222.615C56.9408 222.765 56.8758 222.97 56.8758 223.23C56.8758 223.49 56.9658 223.69 57.1458 223.83C57.3258 223.97 57.5658 224.04 57.8658 224.04H60.3558ZM58.8708 218.325C58.3508 218.325 57.9158 218.47 57.5658 218.76C57.2158 219.05 57.0408 219.425 57.0408 219.885C57.0408 220.345 57.2158 220.72 57.5658 221.01C57.9158 221.3 58.3508 221.445 58.8708 221.445C59.3908 221.445 59.8258 221.3 60.1758 221.01C60.5258 220.72 60.7008 220.345 60.7008 219.885C60.7008 219.425 60.5258 219.05 60.1758 218.76C59.8258 218.47 59.3908 218.325 58.8708 218.325ZM59.0508 227.22C59.8108 227.22 60.4108 227.095 60.8508 226.845C61.2908 226.605 61.5108 226.31 61.5108 225.96C61.5108 225.67 61.3958 225.45 61.1658 225.3C60.9458 225.15 60.5658 225.075 60.0258 225.075H58.0158C57.5558 225.075 57.2008 225.155 56.9508 225.315C56.7008 225.485 56.5758 225.715 56.5758 226.005C56.5758 226.385 56.7858 226.68 57.2058 226.89C57.6258 227.11 58.2408 227.22 59.0508 227.22ZM4.56 235.35C5.31 235.35 5.94 235.525 6.45 235.875C6.97 236.215 7.375 236.705 7.665 237.345L6.525 237.885C6.205 236.895 5.54 236.4 4.53 236.4C3.78 236.4 3.19 236.655 2.76 237.165C2.34 237.665 2.13 238.36 2.13 239.25C2.13 240.14 2.34 240.84 2.76 241.35C3.19 241.85 3.78 242.1 4.53 242.1C5.11 242.1 5.575 241.97 5.925 241.71C6.285 241.44 6.52 241.055 6.63 240.555L7.74 240.945C7.48 241.645 7.08 242.19 6.54 242.58C6 242.96 5.34 243.15 4.56 243.15C3.43 243.15 2.54 242.805 1.89 242.115C1.25 241.425 0.93 240.47 0.93 239.25C0.93 238.03 1.25 237.075 1.89 236.385C2.54 235.695 3.43 235.35 4.56 235.35ZM13.3268 235.35C14.4568 235.35 15.3418 235.695 15.9818 236.385C16.6318 237.075 16.9568 238.03 16.9568 239.25C16.9568 240.47 16.6318 241.425 15.9818 242.115C15.3418 242.805 14.4568 243.15 13.3268 243.15C12.1968 243.15 11.3068 242.805 10.6568 242.115C10.0168 241.425 9.6968 240.47 9.6968 239.25C9.6968 238.03 10.0168 237.075 10.6568 236.385C11.3068 235.695 12.1968 235.35 13.3268 235.35ZM13.3268 236.385C12.5668 236.385 11.9718 236.64 11.5418 237.15C11.1118 237.66 10.8968 238.36 10.8968 239.25C10.8968 240.14 11.1118 240.84 11.5418 241.35C11.9718 241.86 12.5668 242.115 13.3268 242.115C14.0868 242.115 14.6818 241.86 15.1118 241.35C15.5418 240.84 15.7568 240.14 15.7568 239.25C15.7568 238.36 15.5418 237.66 15.1118 237.15C14.6818 236.64 14.0868 236.385 13.3268 236.385ZM22.1378 243.15C21.4178 243.15 20.7678 243.01 20.1878 242.73C19.6078 242.44 19.1828 242.015 18.9128 241.455L19.8878 240.78C20.0578 241.22 20.3528 241.55 20.7728 241.77C21.1928 241.99 21.6878 242.1 22.2578 242.1C22.8478 242.1 23.2978 241.995 23.6078 241.785C23.9178 241.575 24.0728 241.31 24.0728 240.99C24.0728 240.7 23.9278 240.47 23.6378 240.3C23.3478 240.12 22.8378 239.965 22.1078 239.835C21.3878 239.705 20.8178 239.55 20.3978 239.37C19.9778 239.18 19.6728 238.945 19.4828 238.665C19.2928 238.375 19.1978 238.02 19.1978 237.6C19.1978 237.19 19.3178 236.815 19.5578 236.475C19.7978 236.135 20.1428 235.865 20.5928 235.665C21.0428 235.455 21.5628 235.35 22.1528 235.35C22.9528 235.35 23.5928 235.5 24.0728 235.8C24.5628 236.09 24.9128 236.54 25.1228 237.15L24.1028 237.75C23.9428 237.27 23.6978 236.925 23.3678 236.715C23.0478 236.505 22.6428 236.4 22.1528 236.4C21.6628 236.4 21.2478 236.51 20.9078 236.73C20.5678 236.95 20.3978 237.205 20.3978 237.495C20.3978 237.825 20.5428 238.08 20.8328 238.26C21.1328 238.44 21.6628 238.595 22.4228 238.725C23.4628 238.895 24.1978 239.15 24.6278 239.49C25.0578 239.83 25.2728 240.31 25.2728 240.93C25.2728 241.36 25.1428 241.745 24.8828 242.085C24.6328 242.415 24.2678 242.675 23.7878 242.865C23.3178 243.055 22.7678 243.15 22.1378 243.15ZM32.3879 242.475C31.8879 242.925 31.2429 243.15 30.4529 243.15C29.8429 243.15 29.3429 242.985 28.9529 242.655C28.5729 242.325 28.3779 241.82 28.3679 241.14V236.535H26.8679V235.5H28.3679V233.7L29.5679 233.37V235.5H32.3429V236.535H29.5679V240.93C29.5679 241.29 29.6679 241.565 29.8679 241.755C30.0779 241.935 30.3529 242.025 30.6929 242.025C31.1729 242.025 31.5979 241.84 31.9679 241.47L32.3879 242.475ZM36.9321 243.15C36.2121 243.15 35.5621 243.01 34.9821 242.73C34.4021 242.44 33.9771 242.015 33.7071 241.455L34.6821 240.78C34.8521 241.22 35.1471 241.55 35.5671 241.77C35.9871 241.99 36.4821 242.1 37.0521 242.1C37.6421 242.1 38.0921 241.995 38.4021 241.785C38.7121 241.575 38.8671 241.31 38.8671 240.99C38.8671 240.7 38.7221 240.47 38.4321 240.3C38.1421 240.12 37.6321 239.965 36.9021 239.835C36.1821 239.705 35.6121 239.55 35.1921 239.37C34.7721 239.18 34.4671 238.945 34.2771 238.665C34.0871 238.375 33.9921 238.02 33.9921 237.6C33.9921 237.19 34.1121 236.815 34.3521 236.475C34.5921 236.135 34.9371 235.865 35.3871 235.665C35.8371 235.455 36.3571 235.35 36.9471 235.35C37.7471 235.35 38.3871 235.5 38.8671 235.8C39.3571 236.09 39.7071 236.54 39.9171 237.15L38.8971 237.75C38.7371 237.27 38.4921 236.925 38.1621 236.715C37.8421 236.505 37.4371 236.4 36.9471 236.4C36.4571 236.4 36.0421 236.51 35.7021 236.73C35.3621 236.95 35.1921 237.205 35.1921 237.495C35.1921 237.825 35.3371 238.08 35.6271 238.26C35.9271 238.44 36.4571 238.595 37.2171 238.725C38.2571 238.895 38.9921 239.15 39.4221 239.49C39.8521 239.83 40.0671 240.31 40.0671 240.93C40.0671 241.36 39.9371 241.745 39.6771 242.085C39.4271 242.415 39.0621 242.675 38.5821 242.865C38.1121 243.055 37.5621 243.15 36.9321 243.15Z" fill="black"/>
<path d="M9.6 298.465C9.29 299.305 8.78 299.965 8.07 300.445C7.36 300.915 6.54 301.15 5.61 301.15C4.68 301.15 3.87 300.945 3.18 300.535C2.49 300.115 1.955 299.525 1.575 298.765C1.205 297.995 1.02 297.09 1.02 296.05C1.02 295.02 1.205 294.12 1.575 293.35C1.955 292.58 2.49 291.99 3.18 291.58C3.87 291.16 4.67 290.95 5.58 290.95C6.53 290.95 7.325 291.145 7.965 291.535C8.615 291.925 9.1 292.5 9.42 293.26L8.235 293.815C8.015 293.235 7.695 292.8 7.275 292.51C6.855 292.22 6.32 292.075 5.67 292.075C4.99 292.075 4.395 292.235 3.885 292.555C3.375 292.865 2.98 293.32 2.7 293.92C2.42 294.52 2.28 295.23 2.28 296.05C2.28 297.29 2.575 298.265 3.165 298.975C3.765 299.675 4.58 300.025 5.61 300.025C6.28 300.025 6.86 299.855 7.35 299.515C7.84 299.175 8.19 298.675 8.4 298.015L9.6 298.465ZM15.1432 293.35C16.2732 293.35 17.1582 293.695 17.7982 294.385C18.4482 295.075 18.7732 296.03 18.7732 297.25C18.7732 298.47 18.4482 299.425 17.7982 300.115C17.1582 300.805 16.2732 301.15 15.1432 301.15C14.0132 301.15 13.1232 300.805 12.4732 300.115C11.8332 299.425 11.5132 298.47 11.5132 297.25C11.5132 296.03 11.8332 295.075 12.4732 294.385C13.1232 293.695 14.0132 293.35 15.1432 293.35ZM15.1432 294.385C14.3832 294.385 13.7882 294.64 13.3582 295.15C12.9282 295.66 12.7132 296.36 12.7132 297.25C12.7132 298.14 12.9282 298.84 13.3582 299.35C13.7882 299.86 14.3832 300.115 15.1432 300.115C15.9032 300.115 16.4982 299.86 16.9282 299.35C17.3582 298.84 17.5732 298.14 17.5732 297.25C17.5732 296.36 17.3582 295.66 16.9282 295.15C16.4982 294.64 15.9032 294.385 15.1432 294.385ZM22.5442 298.99C22.5442 299.37 22.5992 299.635 22.7092 299.785C22.8292 299.925 23.0442 299.995 23.3542 299.995C23.5642 299.995 23.7442 299.98 23.8942 299.95C24.0542 299.92 24.2392 299.865 24.4492 299.785L24.2542 300.94C23.9242 301.08 23.5542 301.15 23.1442 301.15C22.5342 301.15 22.0792 300.985 21.7792 300.655C21.4892 300.325 21.3442 299.82 21.3442 299.14V290.05H22.5442V298.99ZM27.4291 298.99C27.4291 299.37 27.4841 299.635 27.5941 299.785C27.7141 299.925 27.9291 299.995 28.2391 299.995C28.4491 299.995 28.6291 299.98 28.7791 299.95C28.9391 299.92 29.1241 299.865 29.3341 299.785L29.1391 300.94C28.8091 301.08 28.4391 301.15 28.0291 301.15C27.4191 301.15 26.9641 300.985 26.6641 300.655C26.3741 300.325 26.2291 299.82 26.2291 299.14V290.05H27.4291V298.99ZM37.3241 300.13C37.5241 300.13 37.7241 300.105 37.9241 300.055L37.8491 301C37.5691 301.1 37.2691 301.15 36.9491 301.15C36.5591 301.15 36.2491 301.065 36.0191 300.895C35.7991 300.725 35.6591 300.44 35.5991 300.04C35.3691 300.39 35.0291 300.665 34.5791 300.865C34.1391 301.055 33.6741 301.15 33.1841 301.15C32.4441 301.15 31.8341 300.98 31.3541 300.64C30.8741 300.29 30.6341 299.79 30.6341 299.14C30.6341 298.57 30.8841 298.08 31.3841 297.67C31.8841 297.25 32.6091 296.96 33.5591 296.8L35.5541 296.47V296.05C35.5541 295.55 35.3991 295.15 35.0891 294.85C34.7791 294.55 34.3491 294.4 33.7991 294.4C33.2991 294.4 32.8641 294.52 32.4941 294.76C32.1341 295 31.8541 295.355 31.6541 295.825L30.7691 295.18C30.9691 294.62 31.3391 294.175 31.8791 293.845C32.4291 293.515 33.0691 293.35 33.7991 293.35C34.6891 293.35 35.4041 293.565 35.9441 293.995C36.4841 294.425 36.7541 295.06 36.7541 295.9V299.59C36.7541 299.77 36.7991 299.905 36.8891 299.995C36.9791 300.085 37.1241 300.13 37.3241 300.13ZM33.2441 300.1C33.8741 300.1 34.4141 299.95 34.8641 299.65C35.3241 299.35 35.5541 298.96 35.5541 298.48V297.445L33.8741 297.76C33.2041 297.88 32.7041 298.055 32.3741 298.285C32.0441 298.505 31.8791 298.79 31.8791 299.14C31.8791 299.45 31.9991 299.69 32.2391 299.86C32.4791 300.02 32.8141 300.1 33.2441 300.1ZM43.6602 293.35C44.7102 293.35 45.5402 293.7 46.1502 294.4C46.7702 295.09 47.0802 296.04 47.0802 297.25C47.0802 298.46 46.7702 299.415 46.1502 300.115C45.5402 300.805 44.7102 301.15 43.6602 301.15C43.0802 301.15 42.5602 301.02 42.1002 300.76C41.6502 300.49 41.3152 300.135 41.0952 299.695L41.0202 301H39.9702V290.05H41.1702V294.67C41.4102 294.27 41.7452 293.95 42.1752 293.71C42.6152 293.47 43.1102 293.35 43.6602 293.35ZM43.5252 300.1C44.2552 300.1 44.8302 299.845 45.2502 299.335C45.6702 298.815 45.8802 298.12 45.8802 297.25C45.8802 296.38 45.6702 295.69 45.2502 295.18C44.8302 294.66 44.2552 294.4 43.5252 294.4C42.8052 294.4 42.2302 294.65 41.8002 295.15C41.3802 295.65 41.1702 296.32 41.1702 297.16V297.34C41.1702 298.18 41.3802 298.85 41.8002 299.35C42.2302 299.85 42.8052 300.1 43.5252 300.1ZM52.8834 293.35C54.0134 293.35 54.8984 293.695 55.5384 294.385C56.1884 295.075 56.5134 296.03 56.5134 297.25C56.5134 298.47 56.1884 299.425 55.5384 300.115C54.8984 300.805 54.0134 301.15 52.8834 301.15C51.7534 301.15 50.8634 300.805 50.2134 300.115C49.5734 299.425 49.2534 298.47 49.2534 297.25C49.2534 296.03 49.5734 295.075 50.2134 294.385C50.8634 293.695 51.7534 293.35 52.8834 293.35ZM52.8834 294.385C52.1234 294.385 51.5284 294.64 51.0984 295.15C50.6684 295.66 50.4534 296.36 50.4534 297.25C50.4534 298.14 50.6684 298.84 51.0984 299.35C51.5284 299.86 52.1234 300.115 52.8834 300.115C53.6434 300.115 54.2384 299.86 54.6684 299.35C55.0984 298.84 55.3134 298.14 55.3134 297.25C55.3134 296.36 55.0984 295.66 54.6684 295.15C54.2384 294.64 53.6434 294.385 52.8834 294.385ZM62.6844 293.35C63.0444 293.35 63.3194 293.4 63.5094 293.5L63.2694 294.67C63.0294 294.54 62.7144 294.475 62.3244 294.475C62.0044 294.475 61.6894 294.57 61.3794 294.76C61.0794 294.94 60.8294 295.22 60.6294 295.6C60.4394 295.97 60.3444 296.42 60.3444 296.95V301H59.1444V293.5H60.1194L60.2844 294.73C60.7044 293.81 61.5044 293.35 62.6844 293.35ZM71.5124 300.13C71.7124 300.13 71.9124 300.105 72.1124 300.055L72.0374 301C71.7574 301.1 71.4574 301.15 71.1374 301.15C70.7474 301.15 70.4374 301.065 70.2074 300.895C69.9874 300.725 69.8474 300.44 69.7874 300.04C69.5574 300.39 69.2174 300.665 68.7674 300.865C68.3274 301.055 67.8624 301.15 67.3724 301.15C66.6324 301.15 66.0224 300.98 65.5424 300.64C65.0624 300.29 64.8224 299.79 64.8224 299.14C64.8224 298.57 65.0724 298.08 65.5724 297.67C66.0724 297.25 66.7974 296.96 67.7474 296.8L69.7424 296.47V296.05C69.7424 295.55 69.5874 295.15 69.2774 294.85C68.9674 294.55 68.5374 294.4 67.9874 294.4C67.4874 294.4 67.0524 294.52 66.6824 294.76C66.3224 295 66.0424 295.355 65.8424 295.825L64.9574 295.18C65.1574 294.62 65.5274 294.175 66.0674 293.845C66.6174 293.515 67.2574 293.35 67.9874 293.35C68.8774 293.35 69.5924 293.565 70.1324 293.995C70.6724 294.425 70.9424 295.06 70.9424 295.9V299.59C70.9424 299.77 70.9874 299.905 71.0774 299.995C71.1674 300.085 71.3124 300.13 71.5124 300.13ZM67.4324 300.1C68.0624 300.1 68.6024 299.95 69.0524 299.65C69.5124 299.35 69.7424 298.96 69.7424 298.48V297.445L68.0624 297.76C67.3924 297.88 66.8924 298.055 66.5624 298.285C66.2324 298.505 66.0674 298.79 66.0674 299.14C66.0674 299.45 66.1874 299.69 66.4274 299.86C66.6674 300.02 67.0024 300.1 67.4324 300.1ZM78.4555 300.475C77.9555 300.925 77.3105 301.15 76.5205 301.15C75.9105 301.15 75.4105 300.985 75.0205 300.655C74.6405 300.325 74.4455 299.82 74.4355 299.14V294.535H72.9355V293.5H74.4355V291.7L75.6355 291.37V293.5H78.4105V294.535H75.6355V298.93C75.6355 299.29 75.7355 299.565 75.9355 299.755C76.1455 299.935 76.4205 300.025 76.7605 300.025C77.2405 300.025 77.6655 299.84 78.0355 299.47L78.4555 300.475ZM81.0497 292.06C80.7797 292.06 80.5597 291.98 80.3897 291.82C80.2297 291.65 80.1497 291.43 80.1497 291.16C80.1497 290.89 80.2297 290.675 80.3897 290.515C80.5597 290.345 80.7797 290.26 81.0497 290.26C81.3197 290.26 81.5347 290.345 81.6947 290.515C81.8647 290.675 81.9497 290.89 81.9497 291.16C81.9497 291.43 81.8647 291.65 81.6947 291.82C81.5347 291.98 81.3197 292.06 81.0497 292.06ZM81.6497 301H80.4497V293.5H81.6497V301ZM87.8991 293.35C89.0291 293.35 89.9141 293.695 90.5541 294.385C91.2041 295.075 91.5291 296.03 91.5291 297.25C91.5291 298.47 91.2041 299.425 90.5541 300.115C89.9141 300.805 89.0291 301.15 87.8991 301.15C86.7691 301.15 85.8791 300.805 85.2291 300.115C84.5891 299.425 84.2691 298.47 84.2691 297.25C84.2691 296.03 84.5891 295.075 85.2291 294.385C85.8791 293.695 86.7691 293.35 87.8991 293.35ZM87.8991 294.385C87.1391 294.385 86.5441 294.64 86.1141 295.15C85.6841 295.66 85.4691 296.36 85.4691 297.25C85.4691 298.14 85.6841 298.84 86.1141 299.35C86.5441 299.86 87.1391 300.115 87.8991 300.115C88.6591 300.115 89.2541 299.86 89.6841 299.35C90.1141 298.84 90.3291 298.14 90.3291 297.25C90.3291 296.36 90.1141 295.66 89.6841 295.15C89.2541 294.64 88.6591 294.385 87.8991 294.385ZM97.805 293.35C98.655 293.35 99.355 293.595 99.905 294.085C100.455 294.575 100.73 295.28 100.73 296.2V301H99.53V296.62C99.53 295.84 99.36 295.275 99.02 294.925C98.69 294.575 98.245 294.4 97.685 294.4C97.285 294.4 96.91 294.49 96.56 294.67C96.21 294.84 95.92 295.125 95.69 295.525C95.47 295.915 95.36 296.41 95.36 297.01V301H94.16V293.5H95.21L95.285 294.67C95.535 294.22 95.88 293.89 96.32 293.68C96.76 293.46 97.255 293.35 97.805 293.35Z" fill="black"/>
</svg>
