<svg width="18" height="20" viewBox="0 0 18 20" fill="none" xmlns="http://www.w3.org/2000/svg">
<path d="M6.96762 17.1476C7.36292 17.0239 7.58308 16.6031 7.45935 16.2078C7.33562 15.8125 6.91486 15.5924 6.51956 15.7161L6.96762 17.1476ZM1.18929 13.138C0.788484 13.0334 0.378821 13.2736 0.27428 13.6744C0.169739 14.0752 0.409908 14.4849 0.810712 14.5894L1.18929 13.138ZM11.7372 19C11.7372 19.4142 12.073 19.75 12.4872 19.75C12.9014 19.75 13.2372 19.4142 13.2372 19H11.7372ZM12.4872 15.6871L11.7393 15.6307C11.7379 15.6495 11.7372 15.6683 11.7372 15.6871H12.4872ZM11.7159 13.4528L11.6293 12.7078C11.3485 12.7405 11.1099 12.9282 11.0122 13.1934C10.9144 13.4586 10.9741 13.7563 11.1665 13.9633L11.7159 13.4528ZM17 7.46044H17.75V7.46031L17 7.46044ZM15.7692 4.25025L15.063 3.99764C14.9695 4.25904 15.0281 4.55071 15.2152 4.75579L15.7692 4.25025ZM15.6954 1.02294L16.3891 0.737936C16.3041 0.530875 16.131 0.372635 15.9171 0.306458L15.6954 1.02294ZM12.4872 2.28989L12.2831 3.01159C12.4998 3.07286 12.7325 3.03354 12.917 2.9045L12.4872 2.28989ZM6.74359 2.28989L6.31376 2.9045C6.49827 3.03354 6.73099 3.07286 6.94766 3.01159L6.74359 2.28989ZM3.53539 1.02294L3.31367 0.306458C3.09982 0.372635 2.92671 0.530875 2.84165 0.737936L3.53539 1.02294ZM3.46154 4.25025L4.01554 4.7558C4.20268 4.55073 4.26123 4.25905 4.16772 3.99764L3.46154 4.25025ZM2.23077 7.48612H2.98078L2.98076 7.4823L2.23077 7.48612ZM7.51487 13.4785L8.06474 13.9885C8.25568 13.7827 8.31565 13.4874 8.22016 13.2234C8.12466 12.9594 7.88969 12.7708 7.61125 12.7347L7.51487 13.4785ZM6.74359 15.6871H7.49359C7.49359 15.6703 7.49302 15.6534 7.49189 15.6366L6.74359 15.6871ZM5.99359 19C5.99359 19.4142 6.32938 19.75 6.74359 19.75C7.1578 19.75 7.49359 19.4142 7.49359 19H5.99359ZM6.51956 15.7161C5.58204 16.0095 4.95676 16.0095 4.52406 15.9039C4.10004 15.8004 3.78326 15.5766 3.49017 15.2708C3.33985 15.114 3.19962 14.9396 3.05236 14.7472C2.91411 14.5665 2.75095 14.3443 2.59377 14.1518C2.27861 13.7658 1.84244 13.3083 1.18929 13.138L0.810712 14.5894C0.97807 14.6331 1.15729 14.7642 1.43187 15.1005C1.56956 15.2691 1.69486 15.4415 1.8611 15.6587C2.01833 15.8642 2.19861 16.0911 2.40727 16.3088C2.83213 16.752 3.38714 17.1704 4.16825 17.3611C4.94068 17.5497 5.85386 17.4962 6.96762 17.1476L6.51956 15.7161ZM13.2372 19V15.6871H11.7372V19H13.2372ZM13.2351 15.7435C13.3127 14.7141 12.9634 13.6935 12.2653 12.9423L11.1665 13.9633C11.5736 14.4015 11.7862 15.0086 11.7393 15.6307L13.2351 15.7435ZM11.8025 14.1978C13.1369 14.0426 14.6456 13.69 15.8187 12.6608C17.0226 11.6047 17.75 9.94939 17.75 7.46044H16.25C16.25 9.64552 15.6235 10.8366 14.8295 11.5332C14.0047 12.2568 12.8713 12.5634 11.6293 12.7078L11.8025 14.1978ZM17.75 7.46031C17.7498 6.08221 17.2419 4.7515 16.3232 3.74471L15.2152 4.75579C15.8763 5.48027 16.2498 6.44827 16.25 7.46057L17.75 7.46031ZM16.4754 4.50285C16.9118 3.28287 16.8811 1.93554 16.3891 0.737936L15.0016 1.30794C15.3525 2.16202 15.3747 3.1263 15.063 3.99764L16.4754 4.50285ZM15.6954 1.02294C15.9171 0.306458 15.9164 0.306227 15.9156 0.305995C15.9153 0.305916 15.9146 0.305685 15.9141 0.305528C15.913 0.305215 15.912 0.3049 15.9109 0.304582C15.9088 0.303947 15.9067 0.303302 15.9044 0.302648C15.8999 0.30134 15.8952 0.299999 15.8902 0.298632C15.8802 0.295899 15.8691 0.293067 15.8571 0.290207C15.833 0.284484 15.8048 0.278663 15.7725 0.273293C15.7079 0.262538 15.6274 0.253685 15.5306 0.250908C15.3367 0.245339 15.0816 0.264288 14.762 0.338292C14.1247 0.485922 13.2353 0.851501 12.0573 1.67528L12.917 2.9045C13.9791 2.16171 14.6938 1.89381 15.1005 1.79961C15.3031 1.75269 15.43 1.74864 15.4876 1.75029C15.5166 1.75112 15.5292 1.75344 15.5263 1.75295C15.5249 1.75271 15.5197 1.7518 15.5108 1.7497C15.5064 1.74865 15.5011 1.74731 15.4949 1.74562C15.4918 1.74477 15.4885 1.74383 15.4849 1.7428C15.4832 1.74229 15.4813 1.74175 15.4795 1.74118C15.4785 1.7409 15.4776 1.74061 15.4766 1.74032C15.4761 1.74017 15.4754 1.73994 15.4751 1.73987C15.4744 1.73964 15.4737 1.73941 15.6954 1.02294ZM12.6912 1.56819C10.6772 0.998699 8.55356 0.998699 6.53952 1.56819L6.94766 3.01159C8.69484 2.51756 10.5359 2.51756 12.2831 3.01159L12.6912 1.56819ZM7.17342 1.67528C5.99552 0.851501 5.10611 0.485922 4.46872 0.338292C4.14922 0.264288 3.89406 0.245339 3.70014 0.250908C3.60341 0.253685 3.5229 0.262538 3.45826 0.273293C3.42599 0.278663 3.39781 0.284484 3.37369 0.290207C3.36163 0.293067 3.3506 0.295899 3.3406 0.298632C3.33559 0.299999 3.33085 0.30134 3.32636 0.302648C3.32412 0.303302 3.32194 0.303947 3.31982 0.304582C3.31876 0.3049 3.31772 0.305215 3.31669 0.305528C3.31618 0.305684 3.31542 0.305916 3.31517 0.305995C3.31442 0.306227 3.31367 0.306458 3.53539 1.02294C3.7571 1.73941 3.75636 1.73964 3.75562 1.73987C3.75538 1.73994 3.75465 1.74017 3.75416 1.74032C3.7532 1.74061 3.75224 1.7409 3.7513 1.74118C3.74943 1.74175 3.7476 1.74229 3.74583 1.7428C3.74229 1.74383 3.73897 1.74477 3.73586 1.74562C3.72966 1.74731 3.72434 1.74865 3.71992 1.7497C3.71107 1.7518 3.70589 1.75271 3.70446 1.75295C3.70152 1.75344 3.71415 1.75112 3.74319 1.75029C3.80082 1.74864 3.92771 1.75269 4.13025 1.79961C4.53697 1.89381 5.25166 2.16171 6.31376 2.9045L7.17342 1.67528ZM2.84165 0.737936C2.34965 1.93554 2.31897 3.28287 2.75536 4.50285L4.16772 3.99764C3.85604 3.1263 3.87825 2.16202 4.22913 1.30794L2.84165 0.737936ZM2.90754 3.7447C1.98199 4.75894 1.47371 6.10165 1.48078 7.48994L2.98076 7.4823C2.97556 6.46246 3.3495 5.48567 4.01554 4.7558L2.90754 3.7447ZM1.48077 7.48612C1.48077 9.96031 2.20955 11.6059 3.41206 12.6608C4.58251 13.6876 6.08802 14.0498 7.41849 14.2223L7.61125 12.7347C6.36532 12.5732 5.22877 12.2592 4.40127 11.5332C3.60583 10.8354 2.98077 9.65173 2.98077 7.48612H1.48077ZM6.965 12.9684C6.27535 13.7119 5.92662 14.719 5.99529 15.7375L7.49189 15.6366C7.4504 15.0211 7.66249 14.4222 8.06474 13.9885L6.965 12.9684ZM5.99359 15.6871V19H7.49359V15.6871H5.99359Z" fill="black"/>
</svg>
