<svg width="133" height="40" viewBox="0 0 133 40" fill="none" xmlns="http://www.w3.org/2000/svg">
<path d="M108.296 17.472C95.3065 17.472 95.3065 39.2733 108.296 39.2733C120.822 39.2733 120.822 17.472 108.296 17.472Z" fill="#FFAE11"/>
<path d="M24.5567 17.22V39H22.9067V28.704H9.44274V39H7.79274V17.22H9.44274V27.153H22.9067V17.22H24.5567ZM51.7758 37.482V39H36.3648V17.22H51.2478V18.738H38.0148V27.153H48.4758V28.704H38.0148V37.482H51.7758ZM76.2389 37.482V39H61.5209V17.22H63.1709V37.482H76.2389ZM100.074 37.482V39H85.3556V17.22H87.0056V37.482H100.074ZM116.547 16.89C118.593 16.89 120.364 17.352 121.86 18.276C123.378 19.178 124.544 20.476 125.358 22.17C126.172 23.842 126.579 25.822 126.579 28.11C126.579 30.398 126.172 32.389 125.358 34.083C124.544 35.755 123.378 37.053 121.86 37.977C120.364 38.879 118.593 39.33 116.547 39.33C114.501 39.33 112.719 38.879 111.201 37.977C109.705 37.053 108.55 35.755 107.736 34.083C106.922 32.389 106.515 30.398 106.515 28.11C106.515 25.822 106.922 23.842 107.736 22.17C108.55 20.476 109.705 19.178 111.201 18.276C112.719 17.352 114.501 16.89 116.547 16.89ZM116.547 18.408C114.853 18.408 113.379 18.804 112.125 19.596C110.893 20.366 109.936 21.488 109.254 22.962C108.594 24.414 108.264 26.13 108.264 28.11C108.264 30.09 108.594 31.817 109.254 33.291C109.936 34.743 110.893 35.865 112.125 36.657C113.379 37.427 114.853 37.812 116.547 37.812C118.241 37.812 119.715 37.427 120.969 36.657C122.223 35.865 123.18 34.743 123.84 33.291C124.522 31.817 124.863 30.09 124.863 28.11C124.863 26.13 124.522 24.414 123.84 22.962C123.18 21.488 122.223 20.366 120.969 19.596C119.715 18.804 118.241 18.408 116.547 18.408Z" fill="black"/>
</svg>
