<svg width="311" height="278" viewBox="0 0 311 278" fill="none" xmlns="http://www.w3.org/2000/svg">
<line y1="22.25" x2="73" y2="22.25" stroke="black" stroke-width="1.5"/>
<line x1="238" y1="22.25" x2="311" y2="22.25" stroke="black" stroke-width="1.5"/>
<line y1="262.25" x2="107" y2="262.25" stroke="black" stroke-width="1.5"/>
<line x1="204" y1="262.25" x2="311" y2="262.25" stroke="black" stroke-width="1.5"/>
<path d="M99.9875 23.5156C100.325 23.3516 100.794 23.151 101.396 22.9141C102.006 22.668 102.394 22.5449 102.558 22.5449C102.676 22.5449 102.736 22.6087 102.736 22.7363C102.736 22.8639 102.704 22.9961 102.64 23.1328C102.576 23.2695 102.508 23.388 102.435 23.4883C102.371 23.5885 102.284 23.7116 102.175 23.8574L101.97 24.1309C101.532 24.7507 100.904 25.2656 100.083 25.6758C99.8007 25.8216 99.3905 26.013 98.8527 26.25C98.3241 26.487 97.955 26.6602 97.7453 26.7695L97.0207 27.8633C95.4803 30.1419 94.1906 31.8509 93.1516 32.9902C92.1216 34.1296 91.1646 34.9544 90.2805 35.4648C89.4055 35.9753 88.3846 36.2305 87.218 36.2305C86.6529 36.2305 86.2245 35.9844 85.9328 35.4922C85.6503 35.0091 85.509 34.4622 85.509 33.8516C85.509 33.25 85.6958 32.6257 86.0695 31.9785C86.4523 31.3314 86.9764 30.7116 87.6418 30.1191C88.3072 29.5358 89.0044 28.9798 89.7336 28.4512C90.4628 27.9316 91.2694 27.4258 92.1535 26.9336C93.5845 26.1589 94.9745 25.4616 96.3234 24.8418C99.6411 19.9564 103.009 15.2214 106.427 10.6367C106.5 10.5638 106.536 10.5091 106.536 10.4727C106.536 10.4362 106.4 10.418 106.126 10.418C105.853 10.418 105.242 10.5091 104.294 10.6914C102.225 11.1107 100.17 11.8717 98.1281 12.9746C96.0865 14.0684 94.3365 15.3262 92.8781 16.748C91.4198 18.1608 90.6906 19.3092 90.6906 20.1934C90.6906 20.64 90.882 21.0091 91.2648 21.3008C91.6477 21.5833 92.0578 21.7246 92.4953 21.7246C92.9419 21.7246 93.3977 21.6152 93.8625 21.3965C94.3365 21.1686 94.7284 20.9453 95.0383 20.7266C95.3482 20.4987 95.5259 20.3848 95.5715 20.3848C95.6171 20.3848 95.6398 20.4486 95.6398 20.5762C95.6398 21.2415 95.4621 21.8158 95.1066 22.2988C94.7603 22.7728 94.2772 23.1283 93.6574 23.3652C93.0376 23.6022 92.4406 23.7207 91.8664 23.7207C91.3013 23.7207 90.7225 23.6022 90.1301 23.3652C89.5376 23.1283 89.0318 22.7591 88.6125 22.2578C88.2023 21.7565 87.9973 21.1868 87.9973 20.5488C87.9973 20.2754 88.0565 19.9518 88.175 19.5781C89.0773 16.6432 92.0259 13.8132 97.0207 11.0879C98.7342 10.1582 100.648 9.41081 102.763 8.8457C104.887 8.27148 106.892 7.98438 108.779 7.98438C109.125 7.98438 109.426 8.09375 109.681 8.3125C109.936 8.53125 110.064 8.76367 110.064 9.00977C110.064 9.25586 110.045 9.42904 110.009 9.5293C109.973 9.62956 109.808 9.88932 109.517 10.3086C109.225 10.7279 108.929 11.1335 108.628 11.5254C107.799 12.6009 107.092 13.526 106.509 14.3008C105.926 15.0755 103.752 18.1471 99.9875 23.5156ZM94.1906 28.082C89.7063 30.862 87.4641 32.7214 87.4641 33.6602C87.4641 33.8607 87.619 33.9609 87.9289 33.9609C88.2479 33.9609 88.6626 33.8014 89.173 33.4824C89.6835 33.1634 90.162 32.7897 90.6086 32.3613C91.0643 31.9329 91.5474 31.418 92.0578 30.8164C92.7961 29.9414 93.507 29.0299 94.1906 28.082ZM115.593 17.6094C116.286 17.6094 116.632 17.8464 116.632 18.3203C116.632 18.5755 116.573 18.7624 116.454 18.8809C116.336 18.9993 116.081 19.3958 115.689 20.0703C115.306 20.7357 114.878 21.5924 114.404 22.6406C113.939 23.6797 113.638 24.5684 113.501 25.3066C113.474 25.3978 113.46 25.5254 113.46 25.6895C113.46 26.1908 113.597 26.4414 113.87 26.4414C114.144 26.4414 114.467 26.3138 114.841 26.0586C115.215 25.7943 115.548 25.5163 115.839 25.2246C116.131 24.9238 116.413 24.6185 116.687 24.3086C116.969 23.9987 117.138 23.821 117.193 23.7754C117.247 23.7298 117.329 23.707 117.439 23.707C117.612 23.707 117.717 23.8392 117.753 24.1035C117.79 24.3678 117.808 24.6413 117.808 24.9238C117.808 25.2064 117.781 25.4023 117.726 25.5117C117.462 26.0312 116.878 26.6556 115.976 27.3848C115.083 28.1139 114.267 28.4785 113.529 28.4785C112.8 28.4785 112.262 28.2552 111.915 27.8086C111.569 27.362 111.396 26.8698 111.396 26.332C111.396 25.7852 111.487 25.3066 111.669 24.8965C110.913 25.8809 110.042 26.7148 109.058 27.3984C108.083 28.082 107.285 28.4238 106.665 28.4238C106.046 28.4238 105.54 28.237 105.148 27.8633C104.647 27.3984 104.396 26.7559 104.396 25.9355C104.396 25.1061 104.578 24.2767 104.943 23.4473C105.316 22.6087 105.804 21.8477 106.406 21.1641C107.007 20.4714 107.668 19.8424 108.388 19.2773C109.901 18.0924 111.296 17.5 112.572 17.5C113.064 17.5 113.465 17.582 113.775 17.7461C114.085 17.9102 114.281 18.1152 114.363 18.3613C114.581 18.0332 114.764 17.8281 114.91 17.7461C115.064 17.6549 115.292 17.6094 115.593 17.6094ZM113.775 19.127C112.216 19.127 110.603 19.9928 108.935 21.7246C108.342 22.3444 107.796 23.0872 107.294 23.9531C106.802 24.819 106.556 25.4115 106.556 25.7305C106.556 26.0495 106.647 26.209 106.829 26.209C107.085 26.209 107.796 25.7077 108.962 24.7051C110.129 23.6934 110.904 22.9505 111.286 22.4766C111.706 21.9479 112.535 20.8314 113.775 19.127ZM126.291 24.9648C126.765 24.6641 127.07 24.459 127.207 24.3496C127.343 24.2311 127.503 24.0944 127.685 23.9395C127.867 23.7845 128.018 23.707 128.136 23.707C128.319 23.707 128.41 23.9167 128.41 24.3359C128.41 24.7461 128.205 25.1927 127.794 25.6758C127.393 26.1497 126.892 26.5553 126.291 26.8926C125.689 27.2207 125.046 27.5078 124.363 27.7539C123.005 28.2552 121.847 28.5059 120.89 28.5059C119.942 28.5059 119.085 28.196 118.32 27.5762C117.554 26.9473 117.171 26.1315 117.171 25.1289C117.171 24.1172 117.422 23.11 117.923 22.1074C118.425 21.0957 119.067 20.2116 119.851 19.4551C120.644 18.6895 121.56 18.0697 122.599 17.5957C123.647 17.1217 124.682 16.8848 125.703 16.8848C126.195 16.8848 126.637 17.026 127.029 17.3086C127.421 17.5911 127.617 17.9785 127.617 18.4707C127.617 18.9629 127.371 19.5553 126.878 20.248C126.395 20.9316 125.903 21.2734 125.402 21.2734C124.819 21.2734 124.527 20.9954 124.527 20.4395C124.527 20.2936 124.664 20.0339 124.937 19.6602C125.21 19.2865 125.347 19.0358 125.347 18.9082C125.347 18.7715 125.297 18.7031 125.197 18.7031C124.695 18.7031 124.158 18.8763 123.584 19.2227C123.009 19.569 122.485 19.9336 122.011 20.3164C121.546 20.6992 121.104 21.1276 120.685 21.6016C119.774 22.6315 119.318 23.7025 119.318 24.8145C119.318 25.2611 119.459 25.6484 119.742 25.9766C120.033 26.2956 120.516 26.4551 121.191 26.4551C121.875 26.4551 122.558 26.3776 123.242 26.2227C123.925 26.0586 124.486 25.8854 124.923 25.7031C125.37 25.5117 125.826 25.2656 126.291 24.9648ZM128.689 28.3281L127.814 28.1367C127.55 28.1094 127.331 27.9408 127.158 27.6309C127.112 27.5488 127.085 27.4987 127.076 27.4805C127.058 27.4622 127.049 27.4395 127.049 27.4121C127.049 27.3848 127.058 27.3483 127.076 27.3027C127.094 27.248 127.121 27.1797 127.158 27.0977C127.194 27.0065 127.226 26.9154 127.254 26.8242C127.445 26.1771 129.045 23.1328 132.052 17.6914C135.06 12.25 136.633 9.44727 136.769 9.2832C136.915 9.11003 137.02 8.98698 137.084 8.91406C137.157 8.83203 137.234 8.76367 137.316 8.70898C137.407 8.6543 137.471 8.61784 137.508 8.59961C137.553 8.58138 137.635 8.55404 137.754 8.51758C137.881 8.47201 138.009 8.42643 138.136 8.38086C138.273 8.33529 138.414 8.27604 138.56 8.20312C138.706 8.12109 138.806 8.06641 138.861 8.03906C138.916 8.0026 138.984 7.98438 139.066 7.98438C139.157 7.98438 139.239 8.02539 139.312 8.10742C139.394 8.18945 139.435 8.29427 139.435 8.42188V8.51758C139.39 8.69076 138.2 10.8509 135.867 14.998C133.543 19.1452 132.276 21.4147 132.066 21.8066C132.777 21.5241 133.825 20.8268 135.211 19.7148C136.596 18.6029 137.293 17.8646 137.302 17.5C137.321 17.1354 137.448 16.8711 137.685 16.707C137.922 16.543 138.177 16.4609 138.451 16.4609C138.733 16.4609 138.97 16.5566 139.162 16.748C139.362 16.9303 139.458 17.2357 139.449 17.6641C139.44 18.0833 139.203 18.6211 138.738 19.2773C138.273 19.9245 137.717 20.526 137.07 21.082C135.675 22.2669 134.513 23.0508 133.584 23.4336C134.322 25.4297 135.17 26.4277 136.127 26.4277C136.646 26.3548 137.284 25.931 138.041 25.1562C138.323 24.8737 138.597 24.5911 138.861 24.3086C139.125 24.0169 139.285 23.8438 139.34 23.7891C139.403 23.7344 139.49 23.707 139.599 23.707C139.772 23.707 139.877 23.8392 139.914 24.1035C139.95 24.3678 139.968 24.6413 139.968 24.9238C139.968 25.2064 139.941 25.4023 139.886 25.5117C139.622 26.0221 139.043 26.6465 138.15 27.3848C137.257 28.1139 136.409 28.4785 135.607 28.4785C135.033 28.4785 134.577 28.3691 134.24 28.1504C133.903 27.9316 133.638 27.7493 133.447 27.6035C133.256 27.4577 133.06 27.2617 132.859 27.0156C132.659 26.7604 132.49 26.5508 132.353 26.3867C132.226 26.2227 132.075 25.9948 131.902 25.7031C131.738 25.4115 131.619 25.2064 131.547 25.0879C131.474 24.9603 131.364 24.7598 131.218 24.4863C131.082 24.2038 131.004 24.0488 130.986 24.0215C130.822 24.3587 130.64 24.7233 130.439 25.1152C130.239 25.5072 130.056 25.8717 129.892 26.209C129.728 26.5462 129.578 26.8561 129.441 27.1387C129.304 27.4121 129.19 27.64 129.099 27.8223C129.017 28.0046 128.972 28.1003 128.963 28.1094C128.899 28.2552 128.808 28.3281 128.689 28.3281ZM168.746 11.0059C168.746 11.4707 168.45 12.0312 167.857 12.6875C167.265 13.3438 166.531 13.9681 165.656 14.5605C164.79 15.153 163.929 15.6224 163.072 15.9688C163.264 15.9049 163.46 15.873 163.66 15.873C164.335 15.873 164.781 15.9961 165 16.2422C165.055 16.2969 165.082 16.3607 165.082 16.4336C165.082 16.5065 164.959 16.6842 164.713 16.9668C162.152 19.929 159.8 22.8685 157.658 25.7852C158.533 25.1016 159.308 24.4499 159.982 23.8301C160.356 23.4928 160.812 23.3242 161.35 23.3242C161.742 23.3242 161.983 23.3743 162.074 23.4746C162.165 23.5749 162.211 23.6615 162.211 23.7344C162.211 23.7982 162.152 23.8757 162.033 23.9668C160.511 25.2975 158.027 27.2389 154.582 29.791C153.99 30.4564 152.495 32.0423 150.098 34.5488C149.669 34.9863 149.195 35.2051 148.676 35.2051C147.664 35.2051 147.158 34.9225 147.158 34.3574C147.158 34.1113 147.354 33.7194 147.746 33.1816C148.311 32.3522 149.692 31.099 151.889 29.4219C152.372 28.8841 153.206 27.9727 154.391 26.6875C156.633 24.2448 157.986 22.6771 158.451 21.9844C157.212 23.1602 156.273 23.9896 155.635 24.4727C154.997 24.9557 154.404 25.375 153.857 25.7305C153.32 26.0859 152.823 26.373 152.367 26.5918C150.161 27.6491 148.589 27.6536 147.65 26.6055C147.176 26.0859 146.939 25.3249 146.939 24.3223C146.939 23.3105 147.217 22.1986 147.773 20.9863C148.329 19.7741 149.072 18.5801 150.002 17.4043C150.932 16.2194 152.035 15.0664 153.311 13.9453C154.587 12.8242 155.913 11.8398 157.289 10.9922C158.665 10.1445 160.115 9.46549 161.637 8.95508C163.159 8.43555 164.594 8.17578 165.943 8.17578C166.408 8.17578 166.846 8.25326 167.256 8.4082C167.666 8.56315 167.958 8.72721 168.131 8.90039C168.541 9.31055 168.746 10.0124 168.746 11.0059ZM160.844 13.8633L160.775 14.1367C160.775 14.2917 160.88 14.3691 161.09 14.3691C161.646 14.3691 162.407 14.1003 163.373 13.5625C164.339 13.0247 165.118 12.4733 165.711 11.9082C166.303 11.3431 166.6 10.8737 166.6 10.5C166.6 10.181 166.317 10.0215 165.752 10.0215C164.749 10.0215 163.619 10.2676 162.361 10.7598C161.113 11.252 159.891 11.89 158.697 12.6738C157.503 13.4577 156.327 14.36 155.17 15.3809C154.012 16.3926 153.001 17.4089 152.135 18.4297C151.278 19.4414 150.585 20.4349 150.057 21.4102C149.528 22.3854 149.264 23.2194 149.264 23.9121C149.264 24.1855 149.341 24.4271 149.496 24.6367C149.66 24.8464 149.897 24.9512 150.207 24.9512C151.164 24.9512 152.704 24.2174 154.828 22.75C156.961 21.2826 159.408 19.2819 162.17 16.748C162.206 16.7116 162.27 16.6432 162.361 16.543C162.562 16.2969 162.767 16.1191 162.977 16.0098C162.229 16.3105 161.618 16.4609 161.145 16.4609C160.671 16.4609 160.279 16.3561 159.969 16.1465C159.659 15.9368 159.504 15.6543 159.504 15.2988C159.504 14.9342 159.663 14.5924 159.982 14.2734C160.301 13.9544 160.525 13.7949 160.652 13.7949C160.78 13.7949 160.844 13.8177 160.844 13.8633ZM176.422 23.707C176.595 23.707 176.7 23.8392 176.736 24.1035C176.773 24.3678 176.791 24.6413 176.791 24.9238C176.791 25.2064 176.764 25.4023 176.709 25.5117C176.445 26.0221 175.866 26.6465 174.973 27.3848C174.08 28.1139 173.232 28.4785 172.43 28.4785C171.938 28.4785 171.482 28.3281 171.063 28.0273C170.643 27.7357 170.434 27.2207 170.434 26.4824C170.434 25.7441 170.63 25.0195 171.022 24.3086C168.761 27.1432 166.988 28.5605 165.703 28.5605C165.193 28.5605 164.778 28.3783 164.459 28.0137C164.149 27.6491 163.994 27.2754 163.994 26.8926C163.994 26.5007 164.049 26.0996 164.158 25.6895C164.268 25.2702 164.382 24.8965 164.5 24.5684C164.628 24.2402 164.81 23.8346 165.047 23.3516C165.293 22.8685 165.475 22.5176 165.594 22.2988C165.712 22.0801 165.899 21.752 166.154 21.3145C166.419 20.8678 166.761 20.2708 167.18 19.5234C167.608 18.776 167.959 18.2246 168.233 17.8691C168.515 17.5046 168.789 17.3223 169.053 17.3223C169.317 17.3132 169.55 17.418 169.75 17.6367C169.951 17.8555 170.051 18.0332 170.051 18.1699C170.051 18.3066 169.746 18.9219 169.135 20.0156C167.33 23.2786 166.428 25.179 166.428 25.7168C166.428 25.8535 166.478 25.9219 166.578 25.9219C167.016 25.9219 168.105 24.974 169.846 23.0781C171.587 21.1823 172.594 19.9701 172.867 19.4414C173.141 18.9036 173.405 18.4525 173.66 18.0879C173.925 17.7233 174.121 17.5 174.248 17.418C174.64 17.1628 175.146 17.026 175.766 17.0078C175.866 17.0078 175.944 17.0124 175.998 17.0215C176.053 17.0306 176.117 17.1081 176.19 17.2539C176.263 17.3997 176.299 17.5137 176.299 17.5957C176.217 17.8509 175.852 18.5299 175.205 19.6328C174.567 20.7357 174.212 21.36 174.139 21.5059C173.063 23.7298 172.526 25.179 172.526 25.8535C172.526 26.2363 172.671 26.4277 172.963 26.4277C173.492 26.3548 174.13 25.931 174.877 25.1562C175.151 24.8737 175.419 24.5866 175.684 24.2949C175.957 24.0033 176.126 23.8346 176.19 23.7891C176.253 23.7344 176.331 23.707 176.422 23.707ZM176.756 28.082L176.086 28.0547H175.84C175.749 28.0273 175.653 27.9727 175.553 27.8906C175.444 27.8086 175.362 27.7493 175.307 27.7129C175.252 27.6764 175.225 27.6126 175.225 27.5215C175.225 27.4212 175.261 27.2526 175.334 27.0156C177.112 23.1055 178.83 19.9792 180.489 17.6367C180.671 17.3815 180.963 17.1901 181.364 17.0625C181.774 16.9258 182.17 16.8574 182.553 16.8574C182.781 16.8574 182.895 17.0352 182.895 17.3906C182.895 17.4909 182.858 17.6276 182.785 17.8008C182.713 17.9648 182.53 18.2383 182.239 18.6211C181.947 19.0039 181.601 19.4414 181.2 19.9336C180.798 20.4258 180.571 20.7083 180.516 20.7812C181.765 19.487 182.89 18.5254 183.893 17.8965C184.905 17.2585 185.634 16.9395 186.08 16.9395C186.536 16.9395 186.882 17.0716 187.119 17.3359C187.366 17.5911 187.489 17.8691 187.489 18.1699C187.489 18.4616 187.466 18.7077 187.42 18.9082C187.384 19.0996 187.311 19.3047 187.201 19.5234C187.092 19.7331 186.996 19.9154 186.914 20.0703C186.841 20.2161 186.714 20.4121 186.532 20.6582C186.349 20.8952 186.222 21.0592 186.149 21.1504C186.085 21.2415 185.944 21.4147 185.725 21.6699C185.515 21.9251 185.401 22.0664 185.383 22.0938C185.638 21.8385 185.994 21.4603 186.45 20.959C186.905 20.4577 187.288 20.0384 187.598 19.7012C187.917 19.3639 188.313 18.9857 188.787 18.5664C189.261 18.138 189.703 17.7917 190.114 17.5273C191.098 16.9076 192.096 16.5977 193.108 16.5977C193.454 16.5977 193.746 16.707 193.983 16.9258C194.22 17.1445 194.338 17.4089 194.338 17.7188C194.338 18.0195 193.969 18.7487 193.231 19.9062C192.493 21.0547 191.754 22.2122 191.016 23.3789C190.287 24.5365 189.922 25.2656 189.922 25.5664C189.922 25.9857 190 26.2363 190.155 26.3184C190.31 26.3913 190.496 26.4186 190.715 26.4004C190.934 26.3822 191.239 26.2409 191.631 25.9766C192.032 25.7122 192.388 25.4388 192.698 25.1562C193.199 24.7005 193.664 24.2585 194.092 23.8301C194.183 23.748 194.284 23.707 194.393 23.707C194.566 23.707 194.671 23.8392 194.707 24.1035C194.744 24.3678 194.762 24.6413 194.762 24.9238C194.762 25.2064 194.735 25.4023 194.68 25.5117C194.416 26.0221 193.832 26.6465 192.93 27.3848C192.028 28.123 191.162 28.4922 190.332 28.4922C190.232 28.4922 190.159 28.4876 190.114 28.4785C189.175 28.3874 188.523 28.1322 188.159 27.7129C187.803 27.2845 187.625 26.7786 187.625 26.1953C187.625 25.612 187.821 24.9056 188.213 24.0762C188.614 23.2467 189.052 22.4948 189.526 21.8203C190 21.1458 190.433 20.5397 190.825 20.002C191.226 19.4551 191.426 19.1589 191.426 19.1133C191.426 19.0677 191.39 19.0449 191.317 19.0449C191.034 19.0449 190.405 19.5007 189.43 20.4121C187.762 21.9707 186.322 23.4746 185.11 24.9238C184.791 25.3066 184.034 26.2773 182.84 27.8359C182.703 28.0182 182.485 28.1094 182.184 28.1094C181.892 28.1094 181.587 28.0547 181.268 27.9453C180.949 27.8268 180.789 27.6764 180.789 27.4941C180.789 27.403 181.514 26.127 182.963 23.666C184.412 21.196 185.137 19.8516 185.137 19.6328C185.137 19.4049 185 19.291 184.727 19.291C184.463 19.291 183.911 19.6921 183.073 20.4941C180.767 22.6999 178.98 24.8919 177.713 27.0703C177.631 27.1979 177.472 27.3984 177.235 27.6719C176.998 27.9453 176.838 28.082 176.756 28.082ZM203.532 12.9883C203.532 13.5078 203.29 14.0319 202.807 14.5605C202.324 15.0801 201.818 15.3398 201.29 15.3398C200.77 15.3398 200.51 15.0664 200.51 14.5195C200.51 13.9727 200.738 13.4531 201.194 12.9609C201.659 12.4596 202.169 12.209 202.725 12.209C202.971 12.209 203.167 12.2773 203.313 12.4141C203.459 12.5508 203.532 12.7422 203.532 12.9883ZM201.317 24.9238C201.317 25.1973 201.29 25.3932 201.235 25.5117C200.788 26.4232 200.077 27.1615 199.102 27.7266C198.127 28.2826 197.279 28.5605 196.559 28.5605C195.839 28.5605 195.219 28.319 194.7 27.8359C194.18 27.3529 193.92 26.8607 193.92 26.3594C193.92 25.8581 194.171 25.1289 194.672 24.1719C195.174 23.2148 195.675 22.3307 196.176 21.5195C196.678 20.7083 196.928 20.2708 196.928 20.207C196.928 20.1341 196.833 19.9974 196.641 19.7969C196.459 19.5964 196.368 19.4505 196.368 19.3594C196.368 19.2591 196.555 19.0085 196.928 18.6074C197.311 18.1973 197.771 17.7962 198.309 17.4043C198.856 17.0033 199.271 16.8027 199.553 16.8027C199.845 16.8027 200.105 16.9303 200.333 17.1855C200.56 17.4408 200.674 17.6732 200.674 17.8828C200.674 18.0924 199.59 20.0658 197.42 23.8027C197.393 23.8574 197.316 23.9805 197.188 24.1719C197.069 24.3542 196.974 24.5091 196.901 24.6367C196.837 24.7552 196.76 24.901 196.668 25.0742C196.486 25.4388 196.395 25.7441 196.395 25.9902C196.395 26.3001 196.605 26.4551 197.024 26.4551C197.443 26.4551 197.876 26.3138 198.323 26.0312C198.778 25.7396 199.17 25.4206 199.499 25.0742C200.355 24.1536 200.843 23.6934 200.961 23.6934C201.198 23.6934 201.317 24.1035 201.317 24.9238ZM208.296 25.8945C208.296 26.2956 208.569 26.4961 209.116 26.4961C209.408 26.4961 209.772 26.3503 210.21 26.0586C210.656 25.7669 211.057 25.4479 211.413 25.1016C212.361 24.1628 212.898 23.6934 213.026 23.6934C213.263 23.6934 213.381 24.0352 213.381 24.7188C213.381 25.4023 213.167 25.8717 212.739 26.127C211.436 27.3027 210.428 28.0182 209.717 28.2734C209.316 28.4102 208.874 28.474 208.391 28.4648C207.908 28.4557 207.43 28.2461 206.956 27.8359C206.482 27.4258 206.245 26.929 206.245 26.3457C206.245 25.7533 206.4 25.0833 206.71 24.3359C207.02 23.5885 207.334 22.9505 207.653 22.4219C207.981 21.8841 208.382 21.2643 208.856 20.5625C209.33 19.8516 209.581 19.4095 209.608 19.2363L209.581 19.209C209.28 19.2363 208.533 19.8288 207.339 20.9863C206.154 22.1439 205.174 23.151 204.399 24.0078C203.624 24.8646 202.699 26.0085 201.624 27.4395C201.323 27.8314 201.077 28.0273 200.885 28.0273C200.694 28.0273 200.439 27.9681 200.12 27.8496C199.792 27.722 199.591 27.6309 199.518 27.5762C199.445 27.5215 199.409 27.4395 199.409 27.3301C199.409 27.2207 199.441 27.0885 199.505 26.9336C199.568 26.7695 199.632 26.6374 199.696 26.5371C199.751 26.4277 199.846 26.2637 199.983 26.0449C200.12 25.8262 200.389 25.3659 200.79 24.6641C201.2 23.9531 201.824 22.8958 202.663 21.4922C203.501 20.0885 204.003 19.2409 204.167 18.9492C204.513 18.3477 204.796 17.9102 205.014 17.6367C205.424 17.1172 206.117 16.8574 207.092 16.8574C207.311 16.8574 207.421 16.9941 207.421 17.2676C207.421 17.696 207.024 18.5026 206.231 19.6875L205.657 20.5488C207.234 18.7988 208.564 17.6914 209.649 17.2266C210.178 16.9987 210.652 16.8848 211.071 16.8848C211.499 16.8848 211.837 16.9987 212.083 17.2266C212.338 17.4544 212.465 17.7096 212.465 17.9922C212.465 18.2656 212.37 18.5983 212.178 18.9902C211.987 19.373 211.791 19.7194 211.59 20.0293C211.399 20.3301 211.144 20.7129 210.825 21.1777C210.506 21.6426 210.333 21.8978 210.305 21.9434C210.278 21.9798 210.205 22.0892 210.087 22.2715C209.977 22.4447 209.895 22.5723 209.84 22.6543C209.786 22.7363 209.695 22.8822 209.567 23.0918C209.439 23.2923 209.335 23.4609 209.253 23.5977C209.18 23.7344 209.084 23.903 208.965 24.1035C208.856 24.304 208.765 24.4772 208.692 24.623C208.628 24.7689 208.56 24.9284 208.487 25.1016C208.359 25.4206 208.296 25.6849 208.296 25.8945ZM223.368 17.6094C224.061 17.6094 224.407 17.8464 224.407 18.3203C224.407 18.5755 224.348 18.7624 224.229 18.8809C224.111 18.9993 223.856 19.3958 223.464 20.0703C223.081 20.7357 222.652 21.5924 222.179 22.6406C221.714 23.6797 221.413 24.5684 221.276 25.3066C221.249 25.3978 221.235 25.5254 221.235 25.6895C221.235 26.1908 221.372 26.4414 221.645 26.4414C221.919 26.4414 222.242 26.3138 222.616 26.0586C222.99 25.7943 223.322 25.5163 223.614 25.2246C223.906 24.9238 224.188 24.6185 224.462 24.3086C224.744 23.9987 224.913 23.821 224.968 23.7754C225.022 23.7298 225.104 23.707 225.214 23.707C225.387 23.707 225.492 23.8392 225.528 24.1035C225.565 24.3678 225.583 24.6413 225.583 24.9238C225.583 25.2064 225.555 25.4023 225.501 25.5117C225.236 26.0312 224.653 26.6556 223.751 27.3848C222.858 28.1139 222.042 28.4785 221.304 28.4785C220.574 28.4785 220.037 28.2552 219.69 27.8086C219.344 27.362 219.171 26.8698 219.171 26.332C219.171 25.7852 219.262 25.3066 219.444 24.8965C218.688 25.8809 217.817 26.7148 216.833 27.3984C215.858 28.082 215.06 28.4238 214.44 28.4238C213.82 28.4238 213.315 28.237 212.923 27.8633C212.421 27.3984 212.171 26.7559 212.171 25.9355C212.171 25.1061 212.353 24.2767 212.718 23.4473C213.091 22.6087 213.579 21.8477 214.18 21.1641C214.782 20.4714 215.443 19.8424 216.163 19.2773C217.676 18.0924 219.07 17.5 220.346 17.5C220.839 17.5 221.24 17.582 221.55 17.7461C221.86 17.9102 222.055 18.1152 222.138 18.3613C222.356 18.0332 222.539 17.8281 222.684 17.7461C222.839 17.6549 223.067 17.6094 223.368 17.6094ZM221.55 19.127C219.991 19.127 218.378 19.9928 216.71 21.7246C216.117 22.3444 215.57 23.0872 215.069 23.9531C214.577 24.819 214.331 25.4115 214.331 25.7305C214.331 26.0495 214.422 26.209 214.604 26.209C214.86 26.209 215.57 25.7077 216.737 24.7051C217.904 23.6934 218.679 22.9505 219.061 22.4766C219.481 21.9479 220.31 20.8314 221.55 19.127Z" fill="black"/>
<path d="M122.209 255.602L121.921 255.561H121.867C121.639 255.561 121.402 255.469 121.156 255.287C120.919 255.105 120.8 254.781 120.8 254.316C120.8 253.852 121.051 253.323 121.552 252.73C122.063 252.138 122.751 251.596 123.617 251.104C124.483 250.602 125.558 250.192 126.843 249.873C128.138 249.554 129.5 249.395 130.931 249.395C133.857 249.395 136.14 249.973 137.781 251.131C139.431 252.279 140.255 253.774 140.255 255.615C140.255 256.764 140 257.912 139.49 259.061C138.979 260.209 138.296 261.271 137.439 262.246C136.582 263.212 135.575 264.119 134.418 264.967C133.26 265.805 132.048 266.521 130.781 267.113C128.046 268.371 125.431 269 122.933 269C121.703 269 120.928 268.9 120.609 268.699C120.49 268.635 120.372 268.54 120.254 268.412C120.144 268.275 120.058 268.184 119.994 268.139C119.821 268.029 119.734 267.797 119.734 267.441C119.734 267.077 119.77 266.749 119.843 266.457C120.117 265.482 121.343 263.367 123.521 260.113C125.709 256.85 127.536 254.221 129.004 252.225C129.104 252.088 129.619 251.988 130.548 251.924C130.931 251.924 131.196 251.951 131.341 252.006C131.487 252.061 131.56 252.161 131.56 252.307C131.56 252.443 131.323 252.844 130.849 253.51C130.375 254.166 128.853 256.477 126.283 260.441C123.713 264.397 122.427 266.43 122.427 266.539C122.427 266.648 122.828 266.703 123.63 266.703C124.442 266.703 125.435 266.535 126.611 266.197C127.796 265.851 128.908 265.4 129.947 264.844C130.986 264.288 131.979 263.645 132.927 262.916C133.875 262.178 134.686 261.426 135.361 260.66C136.838 258.983 137.576 257.493 137.576 256.189C137.576 254.886 136.979 253.779 135.785 252.867C134.6 251.956 132.973 251.5 130.904 251.5C129.509 251.5 128.192 251.732 126.953 252.197C125.713 252.662 124.861 253.077 124.396 253.441C123.931 253.806 123.699 254.052 123.699 254.18C123.699 254.253 123.754 254.289 123.863 254.289L124.451 254.18C124.533 254.18 124.574 254.198 124.574 254.234C124.574 254.271 124.496 254.335 124.341 254.426C124.186 254.517 124.059 254.617 123.959 254.727C123.867 254.827 123.63 254.995 123.248 255.232C122.865 255.46 122.518 255.583 122.209 255.602ZM148.711 258.773C148.711 259.375 148.465 259.904 147.972 260.359C147.489 260.815 146.938 261.043 146.318 261.043C146.118 261.043 145.985 260.997 145.922 260.906C145.858 260.806 145.826 260.678 145.826 260.523C145.826 260.368 145.844 260.218 145.881 260.072C145.553 260.182 145.188 260.35 144.787 260.578C144.386 260.806 143.894 261.143 143.31 261.59C142.727 262.036 142.435 262.369 142.435 262.588C142.435 262.661 142.54 262.697 142.75 262.697C142.969 262.697 143.301 262.624 143.748 262.479C144.194 262.324 144.504 262.246 144.678 262.246C144.86 262.246 144.978 262.255 145.033 262.273C145.151 262.337 145.279 262.479 145.416 262.697C145.553 262.907 145.621 263.076 145.621 263.203C145.621 263.322 145.502 263.481 145.265 263.682C145.028 263.882 144.76 264.037 144.459 264.146C144.158 264.247 143.957 264.324 143.857 264.379C141.934 265.454 140.972 266.193 140.972 266.594C140.972 267.305 141.579 267.66 142.791 267.66C143.566 267.66 144.345 267.414 145.129 266.922C145.794 266.503 146.391 266.079 146.92 265.65C147.457 265.213 147.795 264.944 147.931 264.844C148.077 264.743 148.187 264.693 148.26 264.693C148.497 264.693 148.615 264.958 148.615 265.486C148.615 266.015 148.583 266.366 148.519 266.539C148.455 266.703 148.273 266.908 147.972 267.154C146.022 268.74 144.176 269.533 142.435 269.533C141.506 269.533 140.763 269.406 140.207 269.15C139.186 268.686 138.676 267.975 138.676 267.018C138.676 265.76 139.546 264.807 141.287 264.16C140.941 264.005 140.717 263.809 140.617 263.572C140.517 263.326 140.467 262.939 140.467 262.41C140.467 261.872 140.713 261.307 141.205 260.715C141.706 260.113 142.317 259.621 143.037 259.238C144.641 258.372 146.072 257.939 147.33 257.939C147.631 257.939 147.936 258.012 148.246 258.158C148.556 258.304 148.711 258.509 148.711 258.773ZM150.535 266.266L150.521 266.484C150.521 266.712 150.608 266.908 150.781 267.072C150.954 267.236 151.114 267.318 151.26 267.318C152.353 267.318 153.32 267.154 154.158 266.826C155.006 266.498 155.43 266.17 155.43 265.842C155.43 265.687 155.275 265.555 154.965 265.445C154.664 265.327 154.149 265.186 153.42 265.021C152.7 264.848 152.176 264.716 151.848 264.625C151.519 264.525 151.26 264.434 151.068 264.352C150.877 264.27 150.681 264.156 150.48 264.01C150.052 263.709 149.838 263.262 149.838 262.67C149.838 262.068 150.057 261.476 150.494 260.893C150.941 260.3 151.497 259.794 152.162 259.375C152.827 258.956 153.543 258.587 154.309 258.268C155.822 257.639 157.093 257.324 158.123 257.324C159.135 257.324 159.759 257.543 159.996 257.98C160.069 258.135 160.105 258.309 160.105 258.5V258.596C160.105 259.079 160.001 259.457 159.791 259.73C159.59 260.004 159.267 260.25 158.82 260.469C158.383 260.688 158.032 260.797 157.768 260.797C157.512 260.797 157.348 260.779 157.275 260.742C157.212 260.706 157.157 260.66 157.111 260.605C157.066 260.542 157.006 260.496 156.934 260.469C156.87 260.441 156.838 260.373 156.838 260.264C156.838 260.154 156.883 260.045 156.975 259.936C157.066 259.817 157.129 259.694 157.166 259.566C156.564 259.594 155.935 259.735 155.279 259.99C154.623 260.236 154.058 260.514 153.584 260.824C153.119 261.134 152.732 261.43 152.422 261.713C152.112 261.995 151.957 262.205 151.957 262.342C151.957 262.469 152.167 262.574 152.586 262.656C154.473 263.03 155.712 263.354 156.305 263.627C156.897 263.9 157.307 264.21 157.535 264.557C157.763 264.903 157.877 265.217 157.877 265.5C157.877 266.083 157.644 266.635 157.18 267.154C156.715 267.674 156.141 268.098 155.457 268.426C153.99 269.146 152.709 269.506 151.615 269.506C150.531 269.506 149.779 269.337 149.359 269C148.949 268.672 148.744 268.28 148.744 267.824C148.744 267.368 148.858 266.949 149.086 266.566C149.323 266.174 149.624 265.979 149.988 265.979C150.353 265.979 150.535 266.074 150.535 266.266ZM169.08 253.988C169.08 254.508 168.839 255.032 168.356 255.561C167.872 256.08 167.367 256.34 166.838 256.34C166.318 256.34 166.059 256.066 166.059 255.52C166.059 254.973 166.287 254.453 166.742 253.961C167.207 253.46 167.718 253.209 168.274 253.209C168.52 253.209 168.716 253.277 168.861 253.414C169.007 253.551 169.08 253.742 169.08 253.988ZM166.865 265.924C166.865 266.197 166.838 266.393 166.783 266.512C166.337 267.423 165.626 268.161 164.65 268.727C163.675 269.283 162.828 269.561 162.108 269.561C161.387 269.561 160.768 269.319 160.248 268.836C159.729 268.353 159.469 267.861 159.469 267.359C159.469 266.858 159.719 266.129 160.221 265.172C160.722 264.215 161.223 263.331 161.725 262.52C162.226 261.708 162.477 261.271 162.477 261.207C162.477 261.134 162.381 260.997 162.19 260.797C162.007 260.596 161.916 260.451 161.916 260.359C161.916 260.259 162.103 260.008 162.477 259.607C162.859 259.197 163.32 258.796 163.858 258.404C164.404 258.003 164.819 257.803 165.102 257.803C165.393 257.803 165.653 257.93 165.881 258.186C166.109 258.441 166.223 258.673 166.223 258.883C166.223 259.092 165.138 261.066 162.969 264.803C162.941 264.857 162.864 264.98 162.736 265.172C162.618 265.354 162.522 265.509 162.449 265.637C162.385 265.755 162.308 265.901 162.217 266.074C162.035 266.439 161.943 266.744 161.943 266.99C161.943 267.3 162.153 267.455 162.572 267.455C162.992 267.455 163.425 267.314 163.871 267.031C164.327 266.74 164.719 266.421 165.047 266.074C165.904 265.154 166.391 264.693 166.51 264.693C166.747 264.693 166.865 265.104 166.865 265.924ZM170.959 259.922C171.843 259.311 172.709 258.842 173.557 258.514C174.405 258.186 175.138 258.021 175.758 258.021C176.378 258.021 176.774 258.199 176.948 258.555C177.303 258.145 177.745 257.926 178.274 257.898C178.429 257.889 178.62 257.885 178.848 257.885C179.076 257.885 179.217 257.917 179.272 257.98C179.326 258.035 179.377 258.145 179.422 258.309C179.468 258.473 179.495 258.564 179.504 258.582C179.513 258.6 179.518 258.632 179.518 258.678C179.518 258.714 179.495 258.764 179.449 258.828C179.404 258.883 179.349 258.938 179.285 258.992C179.231 259.047 179.199 259.079 179.19 259.088C177.175 261.977 175.115 265.272 173.01 268.973C175.179 267.049 177.121 265.669 178.834 264.83C178.944 264.775 179.048 264.748 179.149 264.748C179.295 264.748 179.39 264.844 179.436 265.035C179.481 265.217 179.504 265.482 179.504 265.828C179.504 266.174 179.481 266.389 179.436 266.471C179.399 266.553 179.19 266.717 178.807 266.963C178.424 267.209 177.927 267.528 177.317 267.92C176.706 268.312 176.059 268.745 175.375 269.219C173.735 270.358 172.386 271.557 171.328 272.814C169.961 274.464 168.981 275.795 168.389 276.807C168.17 277.199 167.801 277.395 167.281 277.395C166.252 277.395 165.737 276.907 165.737 275.932C165.737 274.938 166.224 273.922 167.199 272.883C167.929 272.108 168.599 271.475 169.209 270.982C169.82 270.49 170.153 270.212 170.207 270.148C170.882 269.137 171.798 267.701 172.955 265.842C171.971 266.872 171.014 267.692 170.084 268.303C169.164 268.913 168.475 269.219 168.02 269.219C166.625 269.219 165.928 268.622 165.928 267.428C165.928 266.48 166.17 265.523 166.653 264.557C167.136 263.59 167.755 262.729 168.512 261.973C169.268 261.207 170.084 260.523 170.959 259.922ZM176.168 259.566C175.111 259.794 174.117 260.173 173.188 260.701C172.258 261.221 171.492 261.781 170.891 262.383C170.289 262.975 169.77 263.586 169.332 264.215C168.512 265.391 168.102 266.302 168.102 266.949C168.102 267.104 168.138 267.182 168.211 267.182C168.293 267.182 168.466 267.1 168.731 266.936C169.004 266.771 169.387 266.493 169.879 266.102C170.371 265.701 170.918 265.227 171.52 264.68C172.914 263.395 174.464 261.69 176.168 259.566ZM186.414 266.895C186.414 267.296 186.688 267.496 187.235 267.496C187.526 267.496 187.891 267.35 188.329 267.059C188.775 266.767 189.176 266.448 189.532 266.102C190.48 265.163 191.017 264.693 191.145 264.693C191.382 264.693 191.5 265.035 191.5 265.719C191.5 266.402 191.286 266.872 190.858 267.127C189.554 268.303 188.547 269.018 187.836 269.273C187.435 269.41 186.993 269.474 186.51 269.465C186.027 269.456 185.549 269.246 185.075 268.836C184.601 268.426 184.364 267.929 184.364 267.346C184.364 266.753 184.519 266.083 184.829 265.336C185.138 264.589 185.453 263.951 185.772 263.422C186.1 262.884 186.501 262.264 186.975 261.562C187.449 260.852 187.7 260.41 187.727 260.236L187.7 260.209C187.399 260.236 186.651 260.829 185.457 261.986C184.273 263.144 183.293 264.151 182.518 265.008C181.743 265.865 180.818 267.008 179.743 268.439C179.442 268.831 179.196 269.027 179.004 269.027C178.813 269.027 178.558 268.968 178.239 268.85C177.911 268.722 177.71 268.631 177.637 268.576C177.564 268.521 177.528 268.439 177.528 268.33C177.528 268.221 177.56 268.089 177.623 267.934C177.687 267.77 177.751 267.637 177.815 267.537C177.87 267.428 177.965 267.264 178.102 267.045C178.239 266.826 178.508 266.366 178.909 265.664C179.319 264.953 179.943 263.896 180.782 262.492C181.62 261.089 182.121 260.241 182.286 259.949C182.632 259.348 182.914 258.91 183.133 258.637C183.543 258.117 184.236 257.857 185.211 257.857C185.43 257.857 185.539 257.994 185.539 258.268C185.539 258.696 185.143 259.503 184.35 260.688L183.776 261.549C185.353 259.799 186.683 258.691 187.768 258.227C188.297 257.999 188.771 257.885 189.19 257.885C189.618 257.885 189.955 257.999 190.202 258.227C190.457 258.454 190.584 258.71 190.584 258.992C190.584 259.266 190.489 259.598 190.297 259.99C190.106 260.373 189.91 260.719 189.709 261.029C189.518 261.33 189.263 261.713 188.944 262.178C188.625 262.643 188.452 262.898 188.424 262.943C188.397 262.98 188.324 263.089 188.205 263.271C188.096 263.445 188.014 263.572 187.959 263.654C187.905 263.736 187.814 263.882 187.686 264.092C187.558 264.292 187.454 264.461 187.371 264.598C187.299 264.734 187.203 264.903 187.084 265.104C186.975 265.304 186.884 265.477 186.811 265.623C186.747 265.769 186.679 265.928 186.606 266.102C186.478 266.421 186.414 266.685 186.414 266.895Z" fill="black"/>
<path d="M153.685 65.0404V210M153.685 65.0404C124.018 66.133 113.634 75.967 102.509 85.0725M153.685 65.0404C168.816 64.4576 188.174 70.1395 204.491 85.0725M153.685 210C179.274 210 217.471 193.974 226 151.361H191.141M153.685 210C122.164 210 88.4169 189.604 81 151.361" stroke="#FFAE11" stroke-width="4.5"/>
<path d="M157.685 65.0404V210M157.685 65.0404C128.018 66.133 117.634 75.967 106.509 85.0725M157.685 65.0404C172.816 64.4576 192.174 70.1395 208.491 85.0725M157.685 210C183.274 210 221.471 193.974 230 151.361H195.141M157.685 210C126.164 210 92.4169 189.604 85 151.361" stroke="black" stroke-width="4.5"/>
</svg>
